<svg id="Grupo_982799" data-name="Grupo 982799" xmlns="http://www.w3.org/2000/svg" xmlns:xlink="http://www.w3.org/1999/xlink" width="207.514" height="170.288" viewBox="0 0 207.514 170.288">
  <defs>
    <clipPath id="clip-path">
      <rect id="Rectángulo_343924" data-name="Rectángulo 343924" width="207.514" height="170.288" fill="none"/>
    </clipPath>
  </defs>
  <g id="Grupo_982798" data-name="Grupo 982798" clip-path="url(#clip-path)">
    <path id="Trazado_716532" data-name="Trazado 716532" d="M155.594,56.761a4.864,4.864,0,0,1-1.048-.449c-4.081-2.286-7.751-4.472-7.788-4.494a.313.313,0,1,1,.321-.538c.037.022,3.7,2.2,7.773,4.485.955.535,1.688.618,2.177.247,1.193-.905,1.076-4.434.345-7.452-.931-3.84-6.632-5.657-8.759-5.553a19.478,19.478,0,0,0-4.735.947.313.313,0,1,1-.208-.591,19.746,19.746,0,0,1,4.913-.982c2.693-.132,8.449,2.114,9.4,6.031.582,2.4,1.117,6.814-.576,8.1a1.978,1.978,0,0,1-1.813.251" transform="translate(-70.382 -20.789)" fill="#97e8ce"/>
    <path id="Trazado_716533" data-name="Trazado 716533" d="M40.446,57.415a18.921,18.921,0,0,1-2.044-.695c-3.154-1.287-5.186-3.22-6.039-5.745-.8-2.352-.734-3.942.188-4.86,1.842-1.833,6.633-.189,10.132,1.013.5.17.963.33,1.389.469,4.481,1.466,6.746.662,6.768.654a.313.313,0,1,1,.217.587c-.1.037-2.494.882-7.18-.645-.429-.14-.9-.3-1.4-.472C39.325,46.639,34.558,45,32.993,46.56c-.726.723-.739,2.141-.037,4.215.793,2.345,2.7,4.15,5.683,5.365,5.992,2.444,15.3,1.821,19.612-.371a.313.313,0,1,1,.284.559c-3.987,2.024-11.93,2.809-18.088,1.087" transform="translate(-15.605 -22.222)" fill="#97e8ce"/>
    <path id="Trazado_716534" data-name="Trazado 716534" d="M110.888,44.822l-3.826-8.6a.627.627,0,0,0-.384-.345c-1.873-.583-3.347-1.715-9.659-6.312-6.606-4.811-13.638,1.463-17.432,3.655-2.832,1.636-9.375,4.987-11.611,6.126a.634.634,0,0,0-.168,1.007l7.431,7.683a.641.641,0,0,0,.521.19c4.928-.472,5.414,1.033,12.308,1.969,7.034.955,11.5-.543,15.14-3.212a8.88,8.88,0,0,1,6.977-1.284.634.634,0,0,0,.7-.88" transform="translate(-33.179 -13.637)" fill="#97e8ce"/>
    <path id="Trazado_716535" data-name="Trazado 716535" d="M74.292,42.913a.868.868,0,0,1,.227-1.376c2.989-1.537,7.045-3.652,9.158-4.873.628-.363,1.319-.817,2.05-1.3,3.021-1.985,7.159-4.7,10.983-3.633A7.391,7.391,0,0,1,99.061,32.9l1.238.9c4.664,3.4,6.415,4.676,8.1,5.372a.864.864,0,0,1,.46.448l2.06,4.627a.87.87,0,0,1-.727,1.219,9.694,9.694,0,0,0-4.946,1.814c-3.767,2.763-8.014,3.647-13.774,2.864A37.755,37.755,0,0,1,85.963,49l-.726-.2a15.339,15.339,0,0,0-5.519-.7.868.868,0,0,1-.666-.263Z" transform="translate(-36.327 -15.451)" fill="#52d1ce"/>
    <path id="Trazado_716536" data-name="Trazado 716536" d="M84.205,40.326c.668-.386,1.4-.867,2.177-1.377,3.158-2.074,7.483-4.915,11.431-3.81a7.582,7.582,0,0,1,2.417,1.2l1.31.954c4.945,3.605,6.8,4.954,8.6,5.7a.2.2,0,0,0,.107.012l-.231-.521c-1.678-.753-3.575-2.135-8.228-5.528L100.476,36a8,8,0,0,0-2.55-1.265c-4.131-1.155-8.548,1.745-11.774,3.864-.77.506-1.5.984-2.155,1.364-2.04,1.179-5.8,3.147-8.863,4.729l.3.313c3.049-1.574,6.747-3.512,8.769-4.681" transform="translate(-36.86 -16.913)" fill="#97e8ce"/>
    <path id="Trazado_716537" data-name="Trazado 716537" d="M113.348,48.448c-1.755-.724-3.594-2.066-8.513-5.65l-1.308-.954a8.033,8.033,0,0,0-2.551-1.265c-4.131-1.155-8.548,1.746-11.782,3.87-.767.5-1.492.98-2.147,1.358-1.757,1.015-4.787,2.615-7.552,4.051l.3.313c2.74-1.423,5.718-3,7.458-4,.666-.385,1.4-.863,2.177-1.376,3.158-2.075,7.483-4.916,11.431-3.811a7.612,7.612,0,0,1,2.417,1.2l1.312.956c4.944,3.6,6.794,4.953,8.6,5.7a.2.2,0,0,0,.273-.114.209.209,0,0,0-.113-.273" transform="translate(-39 -19.779)" fill="#97e8ce"/>
    <path id="Trazado_716538" data-name="Trazado 716538" d="M106.576,47.688a8.012,8.012,0,0,0-2.551-1.265c-4.131-1.155-8.548,1.746-11.782,3.87-.767.5-1.492.98-2.148,1.358-1.481.856-3.871,2.13-6.242,3.369l.01.01a.864.864,0,0,0,.421.236c2.3-1.2,4.583-2.423,6.021-3.254.666-.385,1.4-.863,2.177-1.377,3.158-2.074,7.483-4.915,11.432-3.81a7.6,7.6,0,0,1,2.417,1.2l1.309.954c2.542,1.853,4.266,3.109,5.586,3.994q.28-.073.558-.131c-1.35-.886-3.14-2.19-5.9-4.2Z" transform="translate(-41.138 -22.646)" fill="#97e8ce"/>
    <path id="Trazado_716539" data-name="Trazado 716539" d="M112.478,53.531a8.012,8.012,0,0,0-2.551-1.265c-4.131-1.155-8.548,1.746-11.773,3.864-.769.506-1.5.983-2.156,1.365-.548.316-1.221.691-1.97,1.1q.293.073.59.154c.6-.327,1.136-.629,1.589-.89.67-.388,1.4-.868,2.177-1.377,3.158-2.074,7.483-4.915,11.432-3.811a7.6,7.6,0,0,1,2.417,1.2l1.312.956c.961.7,1.8,1.314,2.553,1.856q.208-.113.417-.214c-.791-.572-1.69-1.227-2.727-1.982Z" transform="translate(-46.13 -25.512)" fill="#97e8ce"/>
    <path id="Trazado_716540" data-name="Trazado 716540" d="M117.4,59.374a8.015,8.015,0,0,0-2.55-1.265c-4.131-1.155-8.548,1.746-11.774,3.864-.3.2-.588.386-.873.57.187.041.38.081.581.121l.522-.342c3.158-2.074,7.483-4.915,11.431-3.81a7.6,7.6,0,0,1,2.417,1.2l1.282.934c.121-.081.242-.167.362-.252l-.09-.066Z" transform="translate(-50.14 -28.379)" fill="#97e8ce"/>
    <path id="Trazado_716541" data-name="Trazado 716541" d="M191.851,75.263a4.81,4.81,0,0,1-1.048-.449c-4.081-2.287-7.751-4.473-7.788-4.494a.313.313,0,1,1,.321-.538c.037.022,3.7,2.2,7.773,4.485.955.535,1.688.618,2.177.247,1.193-.906,1.076-4.434.345-7.452-.931-3.84-6.632-5.658-8.759-5.553a19.489,19.489,0,0,0-4.735.946.313.313,0,1,1-.208-.59,19.74,19.74,0,0,1,4.913-.982c2.693-.132,8.449,2.114,9.4,6.031.582,2.4,1.117,6.814-.576,8.1a1.978,1.978,0,0,1-1.813.25" transform="translate(-88.17 -29.867)" fill="#9de2f5"/>
    <path id="Trazado_716542" data-name="Trazado 716542" d="M76.7,75.917a18.95,18.95,0,0,1-2.044-.695c-3.154-1.287-5.186-3.22-6.04-5.745-.8-2.352-.734-3.942.188-4.86,1.841-1.833,6.633-.189,10.132,1.013.5.17.963.33,1.389.469,4.481,1.466,6.747.662,6.769.654a.313.313,0,1,1,.217.587c-.1.037-2.494.882-7.181-.645-.428-.14-.9-.3-1.4-.472-3.155-1.082-7.922-2.719-9.487-1.161-.726.723-.739,2.141-.037,4.215.793,2.345,2.7,4.15,5.683,5.365,5.992,2.444,15.3,1.821,19.612-.371a.313.313,0,1,1,.284.559C90.8,76.855,82.861,77.64,76.7,75.917" transform="translate(-33.393 -31.299)" fill="#9de2f5"/>
    <path id="Trazado_716543" data-name="Trazado 716543" d="M147.145,63.324l-3.826-8.6a.628.628,0,0,0-.384-.345c-1.873-.583-3.347-1.715-9.659-6.312-6.606-4.811-13.638,1.463-17.432,3.655-2.832,1.636-9.375,4.987-11.611,6.126a.634.634,0,0,0-.168,1.007l7.431,7.683a.641.641,0,0,0,.521.19c4.928-.472,5.414,1.033,12.308,1.969,7.034.955,11.5-.543,15.14-3.212a8.88,8.88,0,0,1,6.977-1.284.634.634,0,0,0,.7-.88" transform="translate(-50.966 -22.714)" fill="#9de2f5"/>
    <path id="Trazado_716544" data-name="Trazado 716544" d="M110.549,61.415a.868.868,0,0,1,.227-1.376c2.989-1.537,7.045-3.652,9.158-4.873.628-.363,1.319-.817,2.051-1.3,3.021-1.984,7.159-4.7,10.983-3.633a7.39,7.39,0,0,1,2.351,1.167l1.238.9c4.664,3.4,6.415,4.676,8.1,5.372a.863.863,0,0,1,.46.448l2.06,4.627a.87.87,0,0,1-.727,1.219,9.694,9.694,0,0,0-4.946,1.814c-3.767,2.763-8.014,3.647-13.774,2.864a37.755,37.755,0,0,1-5.507-1.144l-.726-.2a15.34,15.34,0,0,0-5.519-.7.866.866,0,0,1-.666-.263Z" transform="translate(-54.115 -24.528)" fill="#5598de"/>
    <path id="Trazado_716545" data-name="Trazado 716545" d="M120.461,58.828c.668-.386,1.4-.867,2.177-1.377,3.158-2.074,7.483-4.915,11.431-3.811a7.594,7.594,0,0,1,2.417,1.2l1.31.954c4.945,3.605,6.8,4.954,8.6,5.7a.2.2,0,0,0,.107.012l-.231-.521c-1.678-.753-3.575-2.135-8.229-5.528l-1.308-.954a8.013,8.013,0,0,0-2.55-1.265c-4.131-1.155-8.548,1.745-11.774,3.864-.77.506-1.5.984-2.155,1.364-2.04,1.179-5.8,3.147-8.863,4.729l.3.313c3.049-1.574,6.747-3.512,8.769-4.681" transform="translate(-54.647 -25.99)" fill="#9de2f5"/>
    <path id="Trazado_716546" data-name="Trazado 716546" d="M149.6,66.951c-1.755-.725-3.594-2.066-8.513-5.65l-1.308-.954a8.01,8.01,0,0,0-2.551-1.265c-4.131-1.156-8.548,1.745-11.782,3.869-.767.5-1.492.98-2.147,1.359-1.757,1.015-4.787,2.615-7.552,4.05l.3.313c2.74-1.423,5.718-3,7.458-4,.666-.385,1.4-.864,2.177-1.377,3.158-2.074,7.483-4.915,11.432-3.811a7.6,7.6,0,0,1,2.417,1.2l1.312.956c4.944,3.6,6.794,4.952,8.6,5.7a.2.2,0,0,0,.273-.113.209.209,0,0,0-.113-.273" transform="translate(-56.787 -28.857)" fill="#9de2f5"/>
    <path id="Trazado_716547" data-name="Trazado 716547" d="M142.833,66.19a8.012,8.012,0,0,0-2.551-1.265c-4.131-1.155-8.548,1.746-11.782,3.87-.767.5-1.492.98-2.148,1.358-1.481.856-3.871,2.13-6.242,3.369l.01.01a.864.864,0,0,0,.421.236c2.3-1.2,4.584-2.423,6.021-3.253.666-.385,1.4-.864,2.177-1.377,3.158-2.074,7.483-4.915,11.432-3.81a7.6,7.6,0,0,1,2.417,1.2l1.309.954c2.542,1.853,4.266,3.109,5.586,3.995q.28-.074.557-.131c-1.35-.886-3.14-2.19-5.9-4.2Z" transform="translate(-58.925 -31.723)" fill="#9de2f5"/>
    <path id="Trazado_716548" data-name="Trazado 716548" d="M148.735,72.033a8.012,8.012,0,0,0-2.551-1.265c-4.131-1.155-8.548,1.746-11.773,3.864-.769.506-1.5.983-2.156,1.365-.548.316-1.221.691-1.97,1.1q.293.073.59.154c.6-.327,1.136-.629,1.589-.89.67-.387,1.4-.868,2.177-1.377,3.158-2.074,7.483-4.915,11.432-3.811a7.6,7.6,0,0,1,2.417,1.2l1.312.956c.961.7,1.8,1.314,2.553,1.856q.208-.113.417-.214c-.791-.572-1.69-1.227-2.727-1.982Z" transform="translate(-63.917 -34.589)" fill="#9de2f5"/>
    <path id="Trazado_716549" data-name="Trazado 716549" d="M153.657,77.877a8.012,8.012,0,0,0-2.551-1.265c-4.131-1.155-8.547,1.746-11.773,3.864-.3.2-.588.386-.873.57.187.041.38.081.581.121l.522-.342c3.158-2.074,7.483-4.914,11.431-3.81a7.6,7.6,0,0,1,2.417,1.2l1.282.934c.121-.081.241-.167.362-.252l-.09-.066Z" transform="translate(-67.928 -37.456)" fill="#9de2f5"/>
    <path id="Trazado_716550" data-name="Trazado 716550" d="M186.139,162.838a18.386,18.386,0,0,1,1.643-10.258,16.977,16.977,0,0,1,7.139-7.512c4.561-2.456,10.033-2.927,14.888-4.627a20.286,20.286,0,0,0-.736,3.054c-.333,1.345-.558,2.714-.777,4.082a36.88,36.88,0,0,1-1.752,7.688,23.07,23.07,0,0,1-7.474,9.449c-2.468,1.939-6.148,4.787-9.531,4.279-2.525-.38-3.141-4.11-3.4-6.154" transform="translate(-91.247 -68.899)" fill="#4c4d01"/>
    <path id="Trazado_716551" data-name="Trazado 716551" d="M208.085,148.321c-4.484,2.261-8.4,6.306-11.294,10.342-2.774,3.868-5.415,8.656-5.963,13.456-.062.538.75.918.974.333,1.747-4.562,3.146-8.974,5.93-13.062,2.931-4.3,6.62-7.415,10.638-10.642a.257.257,0,0,0-.285-.426" transform="translate(-93.618 -72.749)" fill="#213006"/>
    <path id="Trazado_716552" data-name="Trazado 716552" d="M182,191.807a18.381,18.381,0,0,1,7.337-7.354,16.974,16.974,0,0,1,10.186-1.911c5.136.679,9.847,3.5,14.779,4.965a20.314,20.314,0,0,0-2.385,2.045c-1.058.9-2.041,1.874-3.019,2.854a36.857,36.857,0,0,1-5.922,5.207,23.069,23.069,0,0,1-11.591,3.284c-3.136.127-7.787.282-10.232-2.112-1.825-1.786-.14-5.171.847-6.978" transform="translate(-88.475 -89.487)" fill="#766f04"/>
    <path id="Trazado_716553" data-name="Trazado 716553" d="M208.837,193.863c-4.958-.793-10.5.2-15.21,1.772-4.513,1.511-9.459,3.847-12.713,7.417-.365.4.071,1.183.595.84,4.087-2.675,7.8-5.433,12.455-7.117,4.9-1.773,9.708-2.135,14.855-2.4a.257.257,0,0,0,.018-.513" transform="translate(-88.69 -94.971)" fill="#484a04"/>
    <path id="Trazado_716554" data-name="Trazado 716554" d="M285.991,210.552c5.329,7.8,7.6,18.312,4.671,26.739-5.277,15.18-27.106,18.243-40.946,18.314a46.129,46.129,0,0,1-22.482-5.268c-3.507-1.932-6.8-4.544-8.613-8.113-3.077-6.043.7-12.735,2.955-18.455,2.918-7.387,7.036-14.462,13.019-19.686a42.856,42.856,0,0,1,16.372-8.638c1.958-.566,5.412.028,6.961-1.124,2.694-2-1.063-5.627.455-6.818a2.35,2.35,0,0,1,1.631-.312,18.142,18.142,0,0,1,8.515,2.451c.016.011-4.547,4.41-4.188,5.567.727,2.338,3.583,2.7,5.535,3.449a45.239,45.239,0,0,1,8.06,3.924,28.1,28.1,0,0,1,8.055,7.968" transform="translate(-106.686 -91.827)" fill="#0a1829"/>
    <path id="Trazado_716555" data-name="Trazado 716555" d="M318.357,223.594a22.082,22.082,0,0,0-6.27-6.246,38.3,38.3,0,0,0-16.513-5.9,5.674,5.674,0,0,0-6.238,5.632V219.1a5.678,5.678,0,0,0,3.727,5.316,68.687,68.687,0,0,1,20.18,11.9,27.785,27.785,0,0,1,6.5,8.107q.167.315.324.631a1.21,1.21,0,0,0,2.224-.149l.009-.027c2.137-6.148.552-14.7-3.944-21.284" transform="translate(-141.947 -103.722)" fill="#172f3d"/>
    <path id="Trazado_716556" data-name="Trazado 716556" d="M214.115,220.553c5.329,7.8,7.6,18.312,4.671,26.739-5.277,15.18-27.106,18.243-40.946,18.315a46.13,46.13,0,0,1-22.482-5.268c-3.507-1.932-6.8-4.544-8.613-8.112-3.077-6.043.7-12.736,2.955-18.455,2.918-7.388,7.036-14.462,13.02-19.686a42.865,42.865,0,0,1,16.372-8.638c1.958-.565,5.412.028,6.961-1.123,2.694-2-1.063-5.626.455-6.817a2.35,2.35,0,0,1,1.631-.312,18.139,18.139,0,0,1,8.515,2.451c.016.011-4.547,4.41-4.188,5.567.727,2.339,3.583,2.7,5.535,3.45a45.2,45.2,0,0,1,8.06,3.924,28.114,28.114,0,0,1,8.055,7.968" transform="translate(-71.424 -96.734)" fill="#172f3d"/>
    <path id="Trazado_716557" data-name="Trazado 716557" d="M246.482,233.6a22.082,22.082,0,0,0-6.27-6.246,38.305,38.305,0,0,0-16.513-5.9,5.674,5.674,0,0,0-6.238,5.632V229.1a5.678,5.678,0,0,0,3.727,5.316,68.687,68.687,0,0,1,20.18,11.9,27.785,27.785,0,0,1,6.5,8.107q.167.315.324.631a1.21,1.21,0,0,0,2.224-.149l.009-.027c2.137-6.148.552-14.7-3.944-21.284" transform="translate(-106.686 -108.629)" fill="#214357"/>
    <rect id="Rectángulo_343920" data-name="Rectángulo 343920" width="7.175" height="7.174" transform="translate(18.101 9.491) rotate(-18.118)" fill="#84d5e6"/>
    <rect id="Rectángulo_343921" data-name="Rectángulo 343921" width="4.879" height="7.174" transform="translate(19.192 9.134) rotate(-18.117)" fill="#6aa5d9"/>
    <rect id="Rectángulo_343922" data-name="Rectángulo 343922" width="1.952" height="7.174" transform="translate(20.583 8.679) rotate(-18.113)" fill="#84d5e6"/>
    <path id="Trazado_716558" data-name="Trazado 716558" d="M26.513,1.424,28.4,7.207a2.066,2.066,0,0,1-1.321,2.606l-9.492,3.106A2.066,2.066,0,0,1,14.986,11.6l-.5-1.528A2.066,2.066,0,0,0,11.88,8.749L.642,12.426,0,10.462,23.907.1a2.066,2.066,0,0,1,2.606,1.321" transform="translate(0 0)" fill="#ebfdff"/>
    <path id="Trazado_716559" data-name="Trazado 716559" d="M34.714,28.033l10.937-3.579a.847.847,0,0,1,1.068.541l1.044,3.191a.847.847,0,0,1-.541,1.068L36.284,32.833a.846.846,0,0,1-1.068-.541L34.172,29.1a.847.847,0,0,1,.541-1.068" transform="translate(-16.744 -11.976)" fill="#0090b8"/>
    <path id="Trazado_716560" data-name="Trazado 716560" d="M55.511,26.236a.545.545,0,0,1,.687.349l.786,2.4a.545.545,0,0,1-1.037.339l-.785-2.4a.546.546,0,0,1,.349-.688" transform="translate(-27.049 -12.858)" fill="#00558f"/>
    <path id="Trazado_716561" data-name="Trazado 716561" d="M51.763,27.463a.545.545,0,0,1,.688.348l.786,2.4a.545.545,0,0,1-1.037.339l-.785-2.4a.545.545,0,0,1,.348-.688" transform="translate(-25.21 -13.46)" fill="#00558f"/>
    <path id="Trazado_716562" data-name="Trazado 716562" d="M48.015,28.689a.545.545,0,0,1,.688.348l.786,2.4a.545.545,0,0,1-1.037.339l-.785-2.4a.545.545,0,0,1,.348-.688" transform="translate(-23.372 -14.061)" fill="#00558f"/>
    <path id="Trazado_716563" data-name="Trazado 716563" d="M44.267,29.915a.545.545,0,0,1,.688.349l.786,2.4A.545.545,0,0,1,44.7,33l-.785-2.4a.545.545,0,0,1,.348-.688" transform="translate(-21.533 -14.663)" fill="#00558f"/>
    <path id="Trazado_716564" data-name="Trazado 716564" d="M40.519,31.142a.545.545,0,0,1,.688.349l.785,2.4a.545.545,0,0,1-1.037.339l-.785-2.4a.545.545,0,0,1,.348-.688" transform="translate(-19.694 -15.265)" fill="#00558f"/>
    <path id="Trazado_716565" data-name="Trazado 716565" d="M36.771,32.368a.545.545,0,0,1,.688.348l.786,2.4a.545.545,0,0,1-1.037.339l-.785-2.4a.545.545,0,0,1,.348-.688" transform="translate(-17.855 -15.866)" fill="#00558f"/>
    <path id="Trazado_716566" data-name="Trazado 716566" d="M5.465,8.938C8.276,8.1,11.1,7.069,14.034,7.149a2.6,2.6,0,0,1,1.463.37,7.164,7.164,0,0,1,1.019,1.245,3.319,3.319,0,0,0,2.7.968,9.818,9.818,0,0,0,2.859-.767,5.736,5.736,0,0,0,3.07-2.023c1.339-2.2.279-4.771-1.543-6.708l.3-.131a2.066,2.066,0,0,1,2.606,1.321l1.892,5.782a2.067,2.067,0,0,1-1.321,2.607l-9.492,3.105A2.066,2.066,0,0,1,14.986,11.6l-.5-1.528A2.066,2.066,0,0,0,11.88,8.749L.643,12.426,0,10.462l1.426-.618a25.631,25.631,0,0,0,4.039-.907" transform="translate(0 0)" fill="#bfdde0"/>
    <path id="Trazado_716567" data-name="Trazado 716567" d="M25.366,54.86c-1.928-8.319,7.027-17.328,7.027-17.328l2.556-.836,4.612-1.509,2.556-.836s12.549,1.973,15.909,9.824,8.45,31.281,6.612,34.147c-.9,1.4-4.5,3.947-9.034,5.894q-.277.118-.557.233a25.115,25.115,0,0,1-3.472,1.136q-.293.073-.583.14c-4.809,1.109-9.222,1.181-10.771.586C37.042,85.085,27.3,63.18,25.366,54.86" transform="translate(-12.311 -16.851)" fill="#ebfdff"/>
    <path id="Trazado_716568" data-name="Trazado 716568" d="M54.3,85.138c.543-.177,1.085-.377,1.612-.593q.27-.111.536-.225c4.424-1.9,7.679-4.294,8.354-5.311.374-.832.252-5.341-1.614-14.431-1.516-7.385-3.567-14.756-5.1-18.341-2.7-6.316-12.483-8.5-14.432-8.876l-9.008,2.948c-1.348,1.453-7.947,9-6.4,15.691.882,3.8,3.586,10.958,6.728,17.809,3.869,8.436,6.436,12.144,7.23,12.593,1.143.421,5.185.429,9.88-.655.184-.043.372-.088.56-.134.553-.137,1.109-.3,1.652-.475" transform="translate(-13.747 -18.329)" fill="#a1d8df"/>
    <path id="Trazado_716569" data-name="Trazado 716569" d="M55.372,78.871c-3.161-8.7-6.211-17.633-7.59-22.232a39.292,39.292,0,0,1-1.32-16.364l3.152-1.032a39.3,39.3,0,0,1,8.608,13.98c1.607,4.522,4.428,13.531,7.021,22.418,1.2,4.113,2.123,7.417,2.811,9.984-.681.341-1.393.674-2.13.99q-.277.118-.558.234a25.069,25.069,0,0,1-3.472,1.136q-.292.072-.583.14c-.782.181-1.554.333-2.305.461-.963-2.477-2.171-5.687-3.635-9.714" transform="translate(-22.63 -19.252)" fill="#fff"/>
    <path id="Trazado_716570" data-name="Trazado 716570" d="M36.481,90.07A83.262,83.262,0,0,0,66.1,80.38l-4.144-14.9A83.349,83.349,0,0,1,31.014,75.6L36.481,90.07" transform="translate(-15.215 -32.122)" fill="#ebfdff"/>
    <path id="Trazado_716571" data-name="Trazado 716571" d="M56.619,87.1q1.4-.368,2.79-.785l-.945-2.835q1.939-.583,3.846-1.258l.913,2.846q1.365-.484,2.715-1.015.61,1.953,1.21,3.878-1.334.525-2.684,1,.441,1.375.878,2.735-1.855.656-3.739,1.223-.452-1.356-.909-2.725-1.371.412-2.757.777L56.619,87.1" transform="translate(-27.777 -40.339)" fill="#0090b8"/>
    <rect id="Rectángulo_343923" data-name="Rectángulo 343923" width="5.311" height="5.311" transform="matrix(0.975, -0.223, 0.223, 0.975, 156.288, 146.012)" fill="#fff"/>
    <path id="Trazado_716572" data-name="Trazado 716572" d="M319.909,278.143l-4.391,1a1.529,1.529,0,0,1-1.832-1.15l-1.647-7.207a1.53,1.53,0,0,1,1.15-1.832l1.16-.265a1.53,1.53,0,0,0,1.15-1.832l-1.95-8.533,1.491-.341,6.019,18.324a1.529,1.529,0,0,1-1.15,1.832" transform="translate(-153.066 -126.567)" fill="#a1d8df"/>
    <path id="Trazado_716573" data-name="Trazado 716573" d="M303.961,282.779l1.9,8.3a.627.627,0,0,1-.472.751l-2.423.554a.627.627,0,0,1-.751-.471l-1.9-8.3a.627.627,0,0,1,.471-.751l2.423-.554a.627.627,0,0,1,.75.471" transform="translate(-147.326 -138.491)" fill="#0090b8"/>
    <path id="Trazado_716574" data-name="Trazado 716574" d="M307.445,298.484a.4.4,0,0,1-.3.483l-1.822.417a.4.4,0,0,1-.18-.787l1.822-.417a.4.4,0,0,1,.483.3" transform="translate(-149.546 -146.281)" fill="#00558f"/>
    <path id="Trazado_716575" data-name="Trazado 716575" d="M306.8,295.639a.4.4,0,0,1-.3.483l-1.822.417a.4.4,0,0,1-.18-.787l1.823-.417a.4.4,0,0,1,.483.3" transform="translate(-149.227 -144.885)" fill="#00558f"/>
    <path id="Trazado_716576" data-name="Trazado 716576" d="M306.144,292.793a.4.4,0,0,1-.3.483l-1.822.417a.4.4,0,0,1-.18-.787l1.822-.417a.4.4,0,0,1,.483.3" transform="translate(-148.908 -143.489)" fill="#00558f"/>
    <path id="Trazado_716577" data-name="Trazado 716577" d="M305.494,289.947a.4.4,0,0,1-.3.483l-1.822.417a.4.4,0,0,1-.18-.787l1.823-.417a.4.4,0,0,1,.483.3" transform="translate(-148.589 -142.093)" fill="#00558f"/>
    <path id="Trazado_716578" data-name="Trazado 716578" d="M304.843,287.1a.4.4,0,0,1-.3.483l-1.822.417a.4.4,0,0,1-.18-.787l1.823-.417a.4.4,0,0,1,.483.3" transform="translate(-148.269 -140.696)" fill="#00558f"/>
    <path id="Trazado_716579" data-name="Trazado 716579" d="M304.193,284.256a.4.4,0,0,1-.3.483l-1.822.417a.4.4,0,0,1-.18-.787l1.823-.417a.4.4,0,0,1,.483.3" transform="translate(-147.951 -139.301)" fill="#00558f"/>
    <path id="Trazado_716580" data-name="Trazado 716580" d="M252.536,273.153c-6.264.86-23.07,6.562-24.188,8.823-.544,1.1-.79,4.359-.3,7.979.02.146.041.292.064.439a18.614,18.614,0,0,0,.6,2.636q.066.215.134.427c1.129,3.474,2.766,6.3,3.734,7.058,1.988,1.549,19.6-.616,25.618-2.564s8.318-11.063,8.318-11.063l-.444-1.941-.8-3.5-.444-1.941s-6.036-7.211-12.3-6.352" transform="translate(-111.75 -133.973)" fill="#a1d8df"/>
    <path id="Trazado_716581" data-name="Trazado 716581" d="M235.354,294.349c6.625-1.742,13.418-3.386,16.9-4.091a29.092,29.092,0,0,1,12.152.134l.547,2.394a29.094,29.094,0,0,1-10.887,5.4c-3.442.878-10.274,2.349-17,3.659-3.113.606-5.611,1.063-7.55,1.4-.206-.525-.4-1.072-.586-1.637q-.068-.212-.134-.427a18.536,18.536,0,0,1-.6-2.636q-.034-.221-.064-.439c-.081-.589-.141-1.169-.183-1.73,1.891-.542,4.339-1.216,7.406-2.022" transform="translate(-111.83 -142.119)" fill="#fff"/>
    <path id="Trazado_716582" data-name="Trazado 716582" d="M248.572,282.779a52.792,52.792,0,0,0,4.4,19.261l9.651-1.753a52.843,52.843,0,0,1-4.6-20.122l-9.455,2.614" transform="translate(-121.948 -137.448)" fill="#ebfdff"/>
    <path id="Trazado_716583" data-name="Trazado 716583" d="M257.773,295.959q.151.907.335,1.807l1.845-.432q.255,1.258.572,2.5l-1.85.412q.226.89.483,1.773l-2.518.539q-.254-.873-.478-1.753l-1.778.4q-.306-1.209-.556-2.431l1.773-.416q-.181-.889-.331-1.786l2.5-.609" transform="translate(-124.527 -145.196)" fill="#0090b8"/>
    <path id="Trazado_716584" data-name="Trazado 716584" d="M20.16,102.955l9.606,110.459a6.638,6.638,0,0,0,6.612,6.062H98.167a6.637,6.637,0,0,0,6.613-6.062l9.606-110.459Z" transform="translate(-9.89 -50.509)" fill="#f5971d"/>
    <path id="Trazado_716585" data-name="Trazado 716585" d="M97.629,119.812H40.441a8.883,8.883,0,0,0-8.85,9.653l7.956,85.712a4.359,4.359,0,0,0,4.343,3.982h57.05A4.359,4.359,0,0,0,105.3,214.8l-3.311-90.628a4.359,4.359,0,0,0-4.359-4.359" transform="translate(-15.482 -58.779)" fill="#f5b72f"/>
    <path id="Trazado_716586" data-name="Trazado 716586" d="M63.1,223.658H51.63a2.85,2.85,0,0,0-2.84,3.1L51.9,262.5a2.846,2.846,0,0,0,4.01,2.35q4.154-1.889,8.717-3.6a4.359,4.359,0,0,0,2.832-4.077v-29.16a4.355,4.355,0,0,0-4.355-4.355" transform="translate(-23.931 -109.726)" fill="#ffd273"/>
    <path id="Trazado_716587" data-name="Trazado 716587" d="M112.2,68.57H9.036a2.687,2.687,0,0,0-2.444,2.9l.126,11.784a2.674,2.674,0,0,0,2.445,2.83H112.071a2.674,2.674,0,0,0,2.444-2.83l.126-11.784a2.687,2.687,0,0,0-2.444-2.9" transform="translate(-3.234 -33.64)" fill="#f5b72f"/>
    <path id="Trazado_716588" data-name="Trazado 716588" d="M52.117,77.57H17.178A1.519,1.519,0,0,0,15.66,79.1l.057,5.311a1.518,1.518,0,0,0,1.518,1.5h9.832a.8.8,0,0,0,.584-.24c2.565-2.742,11.733-5.1,24.551-6.55a.781.781,0,0,0-.084-1.557" transform="translate(-7.683 -38.055)" fill="#ffd273"/>
    <path id="Trazado_716589" data-name="Trazado 716589" d="M114.423,163.682c-.593-.344-1.181-.644-1.717-1.019a.775.775,0,0,1-.219-.657,3.325,3.325,0,0,0-2.277-3.848c-.165-.048-.393-.252-.4-.4-.044-.649-.019-1.3-.019-1.945a11,11,0,0,0,2.082-21.641c2.842-.271,7.938,3.306,10.005,7.077a14.511,14.511,0,0,1,.834,12.361,14.487,14.487,0,0,1,11.647,18.677c.707-6.555-1.622-11.273-8.054-13.1-4.825-1.37-8.792.475-11.881,4.488" transform="translate(-53.859 -65.819)" fill="#0a1829"/>
    <path id="Trazado_716590" data-name="Trazado 716590" d="M110.067,205.812a14.421,14.421,0,0,1-22.2-.546c-3.574,4.046-8.022,5.919-13.415,5.166a13.485,13.485,0,0,1-8.2-4.3c4.815,3.435,9.755,3.893,14.416.005,4.221-3.521,4.782-8.136,2.794-13.213.57-.334,1.142-.7,1.745-1,.13-.065.407.039.553.149a3.274,3.274,0,0,0,4.36,0,.727.727,0,0,1,.619-.074c.587.291,1.141.647,1.715.983-2.218,5.717-1.32,10.714,3.9,14.165,4.747,3.136,9.44,2.238,13.707-1.34" transform="translate(-32.505 -94.148)" fill="#0a1829"/>
    <path id="Trazado_716591" data-name="Trazado 716591" d="M78.93,163.59a11.108,11.108,0,0,0-13.357-4.177,10.825,10.825,0,0,0-5.664,5.26,11.308,11.308,0,0,0-.856,7.612c-2.673-6.239.97-17.113,11.357-18.827-3.57-10.251,3.924-18.434,10.938-19.307a11.384,11.384,0,0,0-6.187,4.2,10.691,10.691,0,0,0-2.118,7.217,11.1,11.1,0,0,0,10.276,10.25c0,.643.031,1.3-.02,1.947a.778.778,0,0,1-.429.482,3.322,3.322,0,0,0-2.085,3.774.782.782,0,0,1-.243.628c-.5.347-1.043.621-1.612.946" transform="translate(-28.557 -65.813)" fill="#0a1829"/>
    <path id="Trazado_716592" data-name="Trazado 716592" d="M90.274,198.531a13.643,13.643,0,0,1-8.32-13.547c.023-.426.14-.653.614-.528.8.21,1.611.364,2.386.634a.961.961,0,0,1,.508.718,10.194,10.194,0,0,0,5.24,9.038.787.787,0,0,1,.358.608c-.216,1.009-.5,2-.786,3.078" transform="translate(-40.195 -90.476)" fill="#0a1829"/>
    <path id="Trazado_716593" data-name="Trazado 716593" d="M126.748,184.5a13.447,13.447,0,0,1-8.194,14.184c-.27-1.066-.558-2.1-.773-3.157-.03-.147.267-.424.469-.545a10.111,10.111,0,0,0,4.941-6.928,11.554,11.554,0,0,0,.2-2.033c.01-.4.1-.655.5-.76.933-.247,1.864-.5,2.857-.762" transform="translate(-57.782 -90.514)" fill="#0a1829"/>
    <path id="Trazado_716594" data-name="Trazado 716594" d="M109.086,163.477c-.789.77-1.517,1.507-2.285,2.2a.7.7,0,0,1-.632.008,10.25,10.25,0,0,0-10.582-.01.754.754,0,0,1-.689-.033c-.754-.676-1.462-1.4-2.194-2.12,3.925-3.4,11.177-4.077,16.381-.046" transform="translate(-45.481 -78.842)" fill="#0a1829"/>
    <path id="Trazado_716595" data-name="Trazado 716595" d="M388.856,307.791a5.1,5.1,0,0,1-1.115-.324c-4.457-1.8-8.492-3.548-8.533-3.566a.347.347,0,0,1-.2-.417.283.283,0,0,1,.393-.161c.04.017,4.068,1.763,8.517,3.559,1.043.421,1.772.416,2.167-.016.963-1.052.087-4.578-1.277-7.516-1.734-3.74-7.663-4.872-9.7-4.511a17.324,17.324,0,0,0-4.392,1.523.33.33,0,0,1-.429-.144.3.3,0,0,1,.1-.424,17.6,17.6,0,0,1,4.557-1.579c2.586-.458,8.66,1.1,10.429,4.913,1.086,2.341,2.558,6.7,1.193,8.193a1.8,1.8,0,0,1-1.707.471" transform="translate(-183.598 -144.302)" fill="#9de2f5"/>
    <path id="Trazado_716596" data-name="Trazado 716596" d="M277.452,322.6a19.512,19.512,0,0,1-2.134-.45,11.043,11.043,0,0,1-7.106-5.031c-1.281-2.264-1.565-3.866-.868-4.9,1.391-2.061,6.4-.992,10.056-.21.518.111,1.006.215,1.449.3,4.668.929,6.693-.152,6.713-.164a.329.329,0,0,1,.431.137.3.3,0,0,1-.093.426c-.089.049-2.231,1.186-7.111.221-.446-.089-.937-.194-1.458-.305-3.3-.7-8.279-1.769-9.462-.017-.549.813-.254,2.237.876,4.233a10.366,10.366,0,0,0,6.678,4.694c6.346,1.727,15.244-.023,18.96-2.744a.321.321,0,0,1,.439.087.31.31,0,0,1-.043.439c-3.433,2.513-10.975,4.261-17.326,3.279" transform="translate(-130.975 -152.586)" fill="#9de2f5"/>
    <path id="Trazado_716597" data-name="Trazado 716597" d="M345.12,299.017l-5.574-8.16a.706.706,0,0,0-.447-.3c-1.945-.358-3.62-1.315-10.743-5.163-7.454-4.027-12.924,3.117-16.133,5.774-2.4,1.984-8.024,6.136-9.948,7.549a.649.649,0,0,0,.055,1.03l8.877,6.808a.661.661,0,0,0,.547.127c4.683-1.069,5.48.382,12.375.486,7.035.107,11.048-1.935,14-5.052a8.027,8.027,0,0,1,6.5-2.132.592.592,0,0,0,.492-.968" transform="translate(-148.182 -139.422)" fill="#9de2f5"/>
    <path id="Trazado_716598" data-name="Trazado 716598" d="M308.9,301.922a.889.889,0,0,1-.077-1.408c2.569-1.9,6.05-4.515,7.837-5.995.531-.44,1.1-.979,1.711-1.55,2.5-2.356,5.933-5.582,9.877-4.972a7.907,7.907,0,0,1,2.535.886l1.4.755c5.264,2.847,7.239,3.915,9.025,4.409a.982.982,0,0,1,.544.394l3,4.393a.823.823,0,0,1-.443,1.311,8.473,8.473,0,0,0-4.409,2.418c-3.059,3.228-6.992,4.627-12.753,4.539a37.685,37.685,0,0,1-5.594-.481l-.748-.117a14.919,14.919,0,0,0-5.511-.037.9.9,0,0,1-.7-.183Z" transform="translate(-151.355 -141.253)" fill="#5598de"/>
    <path id="Trazado_716599" data-name="Trazado 716599" d="M317.86,298.126c.565-.468,1.172-1.039,1.816-1.644,2.617-2.462,6.2-5.835,10.274-5.205a8.135,8.135,0,0,1,2.606.912l1.477.8c5.581,3.018,7.67,4.148,9.58,4.676a.193.193,0,0,0,.106,0l-.337-.494c-1.792-.552-3.933-1.71-9.185-4.549l-1.476-.8a8.577,8.577,0,0,0-2.75-.961c-4.261-.659-7.921,2.785-10.6,5.3-.638.6-1.241,1.167-1.8,1.628-1.725,1.429-4.948,3.858-7.582,5.816l.362.278c2.62-1.947,5.791-4.339,7.5-5.756" transform="translate(-152.083 -142.654)" fill="#9de2f5"/>
    <path id="Trazado_716600" data-name="Trazado 716600" d="M347.77,302.9c-1.861-.515-3.937-1.637-9.487-4.638l-1.476-.8a8.566,8.566,0,0,0-2.75-.961c-4.261-.659-7.922,2.785-10.6,5.306-.636.6-1.236,1.163-1.791,1.622-1.486,1.231-4.081,3.2-6.455,4.976l.362.278c2.352-1.758,4.9-3.7,6.375-4.916.563-.467,1.168-1.036,1.815-1.644,2.617-2.462,6.2-5.835,10.274-5.205a8.126,8.126,0,0,1,2.606.912l1.48.8c5.58,3.017,7.667,4.146,9.577,4.675a.183.183,0,0,0,.24-.147.236.236,0,0,0-.169-.26" transform="translate(-154.64 -145.423)" fill="#9de2f5"/>
    <path id="Trazado_716601" data-name="Trazado 716601" d="M340.889,303.111a8.566,8.566,0,0,0-2.75-.961c-4.261-.659-7.921,2.785-10.6,5.306-.636.6-1.236,1.163-1.791,1.622-1.254,1.038-3.3,2.6-5.332,4.134l.012.009a.931.931,0,0,0,.46.185c1.97-1.483,3.926-2.984,5.142-3.991.563-.467,1.168-1.036,1.815-1.645,2.617-2.462,6.2-5.835,10.274-5.2a8.127,8.127,0,0,1,2.606.912l1.478.8c2.869,1.551,4.813,2.6,6.287,3.331q.257-.108.513-.2c-1.5-.726-3.522-1.818-6.635-3.5Z" transform="translate(-157.193 -148.193)" fill="#9de2f5"/>
    <path id="Trazado_716602" data-name="Trazado 716602" d="M347.41,308.756a8.566,8.566,0,0,0-2.75-.961c-4.261-.659-7.921,2.785-10.595,5.3-.638.6-1.24,1.167-1.8,1.629-.464.384-1.036.84-1.675,1.341.2.025.4.052.606.083.507-.4.967-.768,1.35-1.086.567-.47,1.173-1.04,1.815-1.644,2.617-2.462,6.2-5.835,10.274-5.205a8.128,8.128,0,0,1,2.606.912l1.48.8c1.084.586,2.035,1.1,2.88,1.554.119-.092.238-.181.359-.265-.892-.478-1.906-1.026-3.076-1.659Z" transform="translate(-162.187 -150.962)" fill="#9de2f5"/>
    <path id="Trazado_716603" data-name="Trazado 716603" d="M353.057,314.4a8.566,8.566,0,0,0-2.75-.961c-4.26-.659-7.921,2.785-10.595,5.3-.248.233-.487.458-.724.677.191.018.386.035.59.051l.432-.406c2.617-2.462,6.2-5.835,10.274-5.2a8.128,8.128,0,0,1,2.606.912l1.447.782c.1-.1.2-.2.3-.3l-.1-.055Z" transform="translate(-166.306 -153.732)" fill="#9de2f5"/>
  </g>
</svg>
