<svg id="Grupo_979274" data-name="Grupo 979274" xmlns="http://www.w3.org/2000/svg" xmlns:xlink="http://www.w3.org/1999/xlink" width="194.073" height="184.167" viewBox="0 0 194.073 184.167">
  <defs>
    <clipPath id="clip-path">
      <rect id="Rectángulo_342585" data-name="Rectángulo 342585" width="194.073" height="184.167" fill="none"/>
    </clipPath>
    <clipPath id="clip-path-3">
      <rect id="Rectángulo_342570" data-name="Rectángulo 342570" width="32.723" height="46.277" fill="none"/>
    </clipPath>
    <clipPath id="clip-path-4">
      <rect id="Rectángulo_342571" data-name="Rectángulo 342571" width="22.637" height="30.709" fill="none"/>
    </clipPath>
    <clipPath id="clip-path-5">
      <rect id="Rectángulo_342572" data-name="Rectángulo 342572" width="64.221" height="92.465" fill="none"/>
    </clipPath>
    <clipPath id="clip-path-6">
      <rect id="Rectángulo_342573" data-name="Rectángulo 342573" width="40.956" height="35.885" fill="none"/>
    </clipPath>
    <clipPath id="clip-path-7">
      <rect id="Rectángulo_342574" data-name="Rectángulo 342574" width="27.81" height="26.116" fill="none"/>
    </clipPath>
    <clipPath id="clip-path-8">
      <rect id="Rectángulo_342575" data-name="Rectángulo 342575" width="5.137" height="12.829" fill="none"/>
    </clipPath>
    <clipPath id="clip-path-11">
      <rect id="Rectángulo_342578" data-name="Rectángulo 342578" width="8.77" height="19.864" fill="none"/>
    </clipPath>
    <clipPath id="clip-path-12">
      <rect id="Rectángulo_342579" data-name="Rectángulo 342579" width="5.388" height="12.562" fill="none"/>
    </clipPath>
    <clipPath id="clip-path-13">
      <rect id="Rectángulo_342580" data-name="Rectángulo 342580" width="5.167" height="19.225" fill="none"/>
    </clipPath>
    <clipPath id="clip-path-14">
      <rect id="Rectángulo_342581" data-name="Rectángulo 342581" width="25.683" height="17.011" fill="none"/>
    </clipPath>
    <clipPath id="clip-path-15">
      <rect id="Rectángulo_342582" data-name="Rectángulo 342582" width="28.828" height="31.106" fill="none"/>
    </clipPath>
    <clipPath id="clip-path-16">
      <rect id="Rectángulo_342583" data-name="Rectángulo 342583" width="6.311" height="6.311" fill="none"/>
    </clipPath>
  </defs>
  <g id="Grupo_979273" data-name="Grupo 979273" clip-path="url(#clip-path)">
    <g id="Grupo_979272" data-name="Grupo 979272">
      <g id="Grupo_979271" data-name="Grupo 979271" clip-path="url(#clip-path)">
        <path id="Trazado_712072" data-name="Trazado 712072" d="M106.3,99.114c.566,0-5.544-10.676-11.111-9.29s-4.067,4.735-4.067,4.735-5.774-.813-7.968,3.174,1.545,6.527,1.545,6.527-2.056.577-2.056,3.465,4.907,3.984,4.907,3.984S99.076,99.114,106.3,99.114" transform="translate(-43.901 -47.753)" fill="#942d30"/>
        <path id="Trazado_712073" data-name="Trazado 712073" d="M124.883,82.31s5.789-6.929,12.558-10.395,28.461-9.47,24.775-20.326-10.095-5.774-12.434-18.016S150.194.857,150.971.081,165.8,4.239,173.138,7.7s4.493,9.7,7.992,9.7,7.151-2.541,12.6.693,5.4,10.163,5.4,17.323S209.26,48.587,209.26,56.209s-3.73,8.546-3.73,14.321,4.2,15.765,6.6,22.931c3.3,9.845,3.134,38.227-9.117,46.063s-84.17.716-91.043-6.157S124.883,82.31,124.883,82.31" transform="translate(-58.837 0)" fill="#cecbcd"/>
        <path id="Trazado_712074" data-name="Trazado 712074" d="M127.922,159.285c-.663.663-4.482,3.4-6.861-12.533s-.958-27.717-14.372-35.8S81.726,116.725,81.726,121s7.391,4.966,7.391,6.467,1.155,3.465-.462,5.081S70.691,171.609,71.73,181.457s7.736,24.214,24.92,24.2c13.427-.011,31.272-46.374,31.272-46.374" transform="translate(-38.162 -57.743)" fill="#e7e1db"/>
        <path id="Trazado_712075" data-name="Trazado 712075" d="M94.145,153.067s.918,3.378-2.546,8.748,1.04,7.189,3.465,4.764,1.646,1.733,3.378,1.733,4.764-1.907,3.9-10.221-2.565-10.81-2.565-10.81Z" transform="translate(-48.092 -78.408)" fill="#942d30"/>
        <path id="Trazado_712076" data-name="Trazado 712076" d="M85.186,155.225s-1.007-.173,5.069-1.213S96.67,150.2,96.67,150.2s1.063-3.269,0-4.388-8.827,3.58-8.827,3.58Z" transform="translate(-45.317 -77.535)" fill="#a7721d"/>
        <path id="Trazado_712077" data-name="Trazado 712077" d="M87.652,136.674s.393,1.387-2.379,4.158a10.063,10.063,0,0,0-1.79,10.682s9.171-8.36,11.572-9.492-5.552-6.028-7.4-5.348" transform="translate(-44.018 -72.727)" fill="#f7931e"/>
        <path id="Trazado_712078" data-name="Trazado 712078" d="M49.054,327.32s-15.867,6.945-5.113,14.286,41.99,14.464,66.793,14.464,39.165-8.922,59.24-8.922,46.279-5.58,45.483-14c-.924-9.78-41.212-10.745-64.5-10.077s-101.9,4.251-101.9,4.251" transform="translate(-21.403 -171.904)" fill="#b3c1bb"/>
        <path id="Trazado_712079" data-name="Trazado 712079" d="M147.317,284c-.3-10.609-7.979-27.831-17.939-27.545s-18.435,17.97-18.131,28.579,8.625,18.976,18.585,18.691,17.79-9.116,17.486-19.725" transform="translate(-59.22 -136.527)" fill="#ea965e"/>
        <g id="Grupo_979231" data-name="Grupo 979231" transform="translate(55.382 120.928)" opacity="0.14" style="mix-blend-mode: multiply;isolation: isolate">
          <g id="Grupo_979230" data-name="Grupo 979230">
            <g id="Grupo_979229" data-name="Grupo 979229" clip-path="url(#clip-path-3)">
              <path id="Trazado_712080" data-name="Trazado 712080" d="M137.564,258.6a41.1,41.1,0,0,1,7.077,20.564c.3,10.607-7.525,19.438-17.485,19.724a17.105,17.105,0,0,1-8.725-2.108,17.76,17.76,0,0,0,15.229,8.09c9.961-.285,17.79-9.116,17.486-19.724-.258-9-5.82-22.752-13.582-26.546" transform="translate(-118.431 -258.598)" fill="#964"/>
            </g>
          </g>
        </g>
        <g id="Grupo_979234" data-name="Grupo 979234" transform="translate(56.039 124.81)" opacity="0.26" style="mix-blend-mode: screen;isolation: isolate">
          <g id="Grupo_979233" data-name="Grupo 979233">
            <g id="Grupo_979232" data-name="Grupo 979232" clip-path="url(#clip-path-4)">
              <path id="Trazado_712081" data-name="Trazado 712081" d="M142.219,283.978c-1.314,8.426-7.332,14.484-13.443,13.531s-10-8.556-8.684-16.982,7.332-14.484,13.443-13.53,10,8.555,8.684,16.981" transform="translate(-119.837 -266.898)" fill="#fff0e9"/>
            </g>
          </g>
        </g>
        <path id="Trazado_712082" data-name="Trazado 712082" d="M159.3,271.492a.9.9,0,1,1-.942-.867.906.906,0,0,1,.942.867" transform="translate(-83.844 -144.072)" fill="#b75009"/>
        <path id="Trazado_712083" data-name="Trazado 712083" d="M166.408,277.892a.739.739,0,1,1-.77-.707.74.74,0,0,1,.77.707" transform="translate(-87.804 -147.565)" fill="#b75009"/>
        <path id="Trazado_712084" data-name="Trazado 712084" d="M167.183,272.667a.452.452,0,1,1-.471-.433.453.453,0,0,1,.471.433" transform="translate(-88.522 -144.929)" fill="#b75009"/>
        <path id="Trazado_712085" data-name="Trazado 712085" d="M158.622,262.1a.765.765,0,1,1-.8-.732.765.765,0,0,1,.8.732" transform="translate(-83.631 -139.145)" fill="#b75009"/>
        <path id="Trazado_712086" data-name="Trazado 712086" d="M163.8,292.918a.773.773,0,1,1-.8-.74.772.772,0,0,1,.8.74" transform="translate(-86.379 -155.546)" fill="#b75009"/>
        <path id="Trazado_712087" data-name="Trazado 712087" d="M116.367,304.416a.637.637,0,1,1-.663-.61.637.637,0,0,1,.663.61" transform="translate(-61.273 -161.737)" fill="#b75009"/>
        <path id="Trazado_712088" data-name="Trazado 712088" d="M121.648,290.619a.327.327,0,1,1-.34-.313.327.327,0,0,1,.34.313" transform="translate(-64.414 -154.55)" fill="#b75009"/>
        <path id="Trazado_712089" data-name="Trazado 712089" d="M142.882,330.173a.671.671,0,1,1-.7-.643.672.672,0,0,1,.7.643" transform="translate(-75.351 -175.432)" fill="#b75009"/>
        <path id="Trazado_712090" data-name="Trazado 712090" d="M151.3,327.639a.492.492,0,1,1-.512-.471.492.492,0,0,1,.512.471" transform="translate(-80.023 -174.174)" fill="#b75009"/>
        <g id="Grupo_979237" data-name="Grupo 979237" transform="translate(90.896 50.489)" style="mix-blend-mode: multiply;isolation: isolate">
          <g id="Grupo_979236" data-name="Grupo 979236">
            <g id="Grupo_979235" data-name="Grupo 979235" clip-path="url(#clip-path-5)">
              <path id="Trazado_712091" data-name="Trazado 712091" d="M250.173,128.009c0-5.775,3.729-6.7,3.729-14.321a11.682,11.682,0,0,0-1.729-5.721l0,0s-2.877,18.505-15.007,23.829c0,0-2.023,48.926-42.789,67.124,22,2.179,46.575,2.369,53.279-1.919,12.251-7.836,12.415-36.218,9.117-46.063-2.4-7.165-6.6-17.156-6.6-22.931" transform="translate(-194.376 -107.968)" fill="#cecbcd"/>
            </g>
          </g>
        </g>
        <path id="Trazado_712092" data-name="Trazado 712092" d="M208.739,309.463c6.865-8.093,12.67-26.033,5.071-32.479s-25.724,1.043-32.589,9.136-6.27,19.879,1.329,26.325,19.324,5.112,26.189-2.982" transform="translate(-93.93 -146.16)" fill="#e8782d"/>
        <g id="Grupo_979240" data-name="Grupo 979240" transform="translate(82.509 134.481)" opacity="0.38" style="mix-blend-mode: multiply;isolation: isolate">
          <g id="Grupo_979239" data-name="Grupo 979239">
            <g id="Grupo_979238" data-name="Grupo 979238" clip-path="url(#clip-path-6)">
              <path id="Trazado_712093" data-name="Trazado 712093" d="M216.384,287.579A41.091,41.091,0,0,1,207.9,307.6c-6.865,8.093-18.591,9.428-26.19,2.983a17.1,17.1,0,0,1-5.08-7.4,17.76,17.76,0,0,0,5.919,16.2c7.6,6.446,19.325,5.111,26.19-2.982,5.823-6.865,10.879-20.812,7.642-28.822" transform="translate(-176.44 -287.579)" fill="#e8782d"/>
            </g>
          </g>
        </g>
        <g id="Grupo_979243" data-name="Grupo 979243" transform="translate(90.366 130.945)" opacity="0.26" style="mix-blend-mode: screen;isolation: isolate">
          <g id="Grupo_979242" data-name="Grupo 979242">
            <g id="Grupo_979241" data-name="Grupo 979241" clip-path="url(#clip-path-7)">
              <path id="Trazado_712094" data-name="Trazado 712094" d="M214.223,301.755c-6.609,5.388-15.135,5.872-19.043,1.078s-1.717-13.047,4.892-18.435,15.135-5.871,19.043-1.078,1.717,13.046-4.892,18.435" transform="translate(-193.243 -280.019)" fill="#e8782d"/>
            </g>
          </g>
        </g>
        <path id="Trazado_712095" data-name="Trazado 712095" d="M252.253,297.563a.9.9,0,1,1-.122-1.273.905.905,0,0,1,.122,1.273" transform="translate(-133.439 -157.625)" fill="#b75009"/>
        <path id="Trazado_712096" data-name="Trazado 712096" d="M253.435,306.995a.739.739,0,1,1-.1-1.04.739.739,0,0,1,.1,1.04" transform="translate(-134.224 -162.791)" fill="#b75009"/>
        <path id="Trazado_712097" data-name="Trazado 712097" d="M257.806,303.493a.452.452,0,1,1-.061-.636.453.453,0,0,1,.061.636" transform="translate(-136.822 -161.176)" fill="#b75009"/>
        <path id="Trazado_712098" data-name="Trazado 712098" d="M258.172,290.06a.765.765,0,1,1-.1-1.077.765.765,0,0,1,.1,1.077" transform="translate(-136.722 -153.752)" fill="#b75009"/>
        <path id="Trazado_712099" data-name="Trazado 712099" d="M241.416,316.443a.772.772,0,1,1-.1-1.087.773.773,0,0,1,.1,1.087" transform="translate(-127.794 -167.791)" fill="#b75009"/>
        <path id="Trazado_712100" data-name="Trazado 712100" d="M204.557,289.22a.753.753,0,1,1-.1-1.061.753.753,0,0,1,.1,1.061" transform="translate(-108.19 -153.315)" fill="#b75009"/>
        <path id="Trazado_712101" data-name="Trazado 712101" d="M198.594,293.225a.637.637,0,1,1-.086-.9.636.636,0,0,1,.086.9" transform="translate(-105.125 -155.549)" fill="#b75009"/>
        <path id="Trazado_712102" data-name="Trazado 712102" d="M196.782,303.454a.654.654,0,1,1-.087-.921.654.654,0,0,1,.087.921" transform="translate(-104.145 -160.98)" fill="#b75009"/>
        <path id="Trazado_712103" data-name="Trazado 712103" d="M212.071,286.349a.327.327,0,1,1-.044-.46.327.327,0,0,1,.044.46" transform="translate(-112.592 -152.158)" fill="#b75009"/>
        <path id="Trazado_712104" data-name="Trazado 712104" d="M202.414,299.525a.487.487,0,1,1-.065-.686.487.487,0,0,1,.065.686" transform="translate(-107.3 -159.034)" fill="#b75009"/>
        <path id="Trazado_712105" data-name="Trazado 712105" d="M201.061,330.121a.671.671,0,1,1-.09-.945.672.672,0,0,1,.09.945" transform="translate(-106.406 -175.162)" fill="#b75009"/>
        <path id="Trazado_712106" data-name="Trazado 712106" d="M209.2,333.779a.492.492,0,1,1-.066-.692.491.491,0,0,1,.066.692" transform="translate(-110.91 -177.265)" fill="#b75009"/>
        <path id="Trazado_712107" data-name="Trazado 712107" d="M172.871,239.038l-2.066,1.632c3.838-8.7,2.718-8.7,3.052-10.066l-2.508-.57c-4.461,11.169-5.956,13.385-6.628,14.486a49.441,49.441,0,0,0,.453-12.884c6.814-8.473,5.433-13.547,5.444-13.619l-1.379-.355c.613-2.082,3.056-11.148,1.674-12.778-4.206-4.951-4.547,8.314-7.935,16.969-.115-.342-.248-.715-.4-1.126,1.308-4.952,3.995-21.935-.848-21.935-3.737,0-1.838,4.84-1.879,9.19l-3-5.061c-1.458-5.513-1.736-5.425-2.566-5.425l-.995,1.106c-2.355,2.623,2.245,8.868.91,17.686a28.529,28.529,0,0,0-2.18-7.041l-2.414-.012c.08,1.042.234,2.46.32,4.664a16.233,16.233,0,0,0-1.473-2.6l-2.524.962L147.276,216c-1.784,11.288-1.847,11.113-1.862,11.182-2.954,2.449-11.139,10.85-11.436,12.085a77.083,77.083,0,0,0-11.657,4.233l-.089-.86-1.384.271c-15.375,3.019-19.952,5.407-19.952,5.407l-.518,2.619a7.487,7.487,0,0,0,1.413.482c-.553.153-1.108.324-1.661.518l-.071-.892c-14.873-2.149,2.5,2.1-34.3-5.866l-.637,3.05a98.376,98.376,0,0,0,10.736,3.707c-13-.38-7.064-.11-13.385-3.595L64,246.809c-2.462-3.138-4.712-8.391-8.208-5.467a20.605,20.605,0,0,0-7.04.407c-2.757-2.685-4.61-4.874-5.974-5.93l-3.849-2.985c3.01,6.038.98,5.114,5.255,9.985q-1.883.478-3.75,1.1-.268-.216-.52-.433c-1.306-8.992-8.507-27.055-8.53-27.124.012,1.191-2.509,3.931.877,16.361-1.519-.81-1-.52-1.113-.579-.243-.928.793,3.238-2.131-8.38l-.92.4a50.556,50.556,0,0,1,.379-8.592c5.677-10.881-1.711-6.217-2.2-5.381a7.6,7.6,0,0,0-3.9,3.265c.488-8.4.948-6.709-2.515-9.494-.106,2.422-.157,3.685-.311,7.076a32.4,32.4,0,0,0-5.92,6.053c-2.012-13.323-8.622.14-.9,13.147-.149.819-.283,1.684-.4,2.595-4.958-10.415-5.91-22.392-9.7-17.3-2.521,3.387,6.951,23.156,11.756,30.215q-.2.567-.408,1.108C4.021,235.121,4.936,230.87,2.109,230.87c-7.079,0,5.587,16.029,9.78,20.735-.131.272-1.8,4.052-2.4,5.4l2.655,1.476c.439-.879,1.222-2.411,2.121-4.288.139,2.759,1.993,2.008,2.1,2.056q2.137,2.053,4.412,3.943c2.7,7.39,6.849,10.385,10.989,12.389l.827-1.692q.263.352.573.739c-3.933,5.017.363,7.221,3.186,3.49.726.7,1.519,1.421,2.373,2.125-6.268,7.409-6.986,9.255-6.275,10.676,2.375,4.752,6.658-3.952,10.087-7.928,9.909,6.154,9.786,1.353,8.976.542a47.074,47.074,0,0,0-6.421-3.349q.347-.36.7-.715c14.175,6.581,15.716,7.685,15.924,7.779,2.67-3.388.221-2.939-3.2-5.7a50.73,50.73,0,0,0,11.924.058c-.742,2.283,2.221,2.445,4.464,2.769l-1.606.469c-.623-.174,2.181.617-5.709-1.6l-.606,2.62c17.661,6.279,21.184,5.922,33.16,1.108-.085.091-.078.066-2.388,2.752l1.909,2.346,6.356-6.131a65.624,65.624,0,0,0,7.344-1.069l-.218,1.719c1.692.627,10.033.74,18.028-4.355,2.931,5.119,6.278,1.661,4.171-2.063a54.5,54.5,0,0,0,11.586-3.926c3.016,4.909,6.276,1.429,4.236-1.982,3.044-1.469,2.708-1.242,4.742-3.659l-1.042-1.89c11.556-7.356,9.559-11.021,10.044-11.636l-1.351-.778c2.219-2.763,3.614-5,5.142-6.087,9.85-7,4.021-7.805,4.174-8.173M49.324,273.144l.262-.229a74.715,74.715,0,0,0,20.684,2.926c-6.707.616-12.962.66-20.947-2.7m37.423,10.893q-1.144,0-2.286-.078l.094-1.38c2.26.216,4.629.382,7.157.506q1.174.056,2.308.094a30.569,30.569,0,0,1-7.273.858Zm31.08-3.7-.127-.7a40.051,40.051,0,0,0,6.819-2.111l-.1-.491c.721-.175,1.441-.35,2.156-.547l1.213-.333-.2-.99q.517-.1,1-.2.563.882,1.112,1.786c-.231.091-.465.184-.7.276a62.068,62.068,0,0,1-11.174,3.31" transform="translate(0 -105.141)" fill="#893c07"/>
        <path id="Trazado_712108" data-name="Trazado 712108" d="M212.4,322.942c-5.1,2.832-4.462,2.5-4.83,2.758l.229.359c1.731-1.021,3.441-2.032,5.21-3.074-.257-.366-.443-.135-.609-.043" transform="translate(-110.502 -171.841)" fill="#f7931e"/>
        <path id="Trazado_712109" data-name="Trazado 712109" d="M220.928,324.24c1.725-.332,1,.07,6.151-6.27.181-.223.1-.37-.157-.517l-6.2,6.377c.129.346.078.239.2.409" transform="translate(-117.506 -169.003)" fill="#f7931e"/>
        <path id="Trazado_712110" data-name="Trazado 712110" d="M311.333,288.8c-1.1.753-4.1,5.663-9.453,9.745-4.033,3.073-10.6,6.658-14.18,8.96l.213.4c2.535-1.079,4.065-2.055,6.544-3.115,11.159-4.768,18.06-14.822,17.527-15.584-.239.231-1.16,1.539-2.537,3.366l-.121-.087c.46-.954,1.656-2.743,2.007-3.687" transform="translate(-153.162 -153.747)" fill="#f7931e"/>
        <path id="Trazado_712111" data-name="Trazado 712111" d="M268.357,301.008a.3.3,0,0,0,.111.528c2.174.314,1.34.527,7.936-4.7.028-.022.039-.067.074-.131l-.261-.353c-.44.21-7.817,4.611-7.859,4.651" transform="translate(-142.805 -157.771)" fill="#f7931e"/>
        <path id="Trazado_712112" data-name="Trazado 712112" d="M294.022,300.323l-.123-.059c-1.694,2.676-3.388,5.35-5.133,8.106,2.152-.621,4.572-4.968,5.256-8.047" transform="translate(-153.73 -159.851)" fill="#f7931e"/>
        <path id="Trazado_712113" data-name="Trazado 712113" d="M256.328,321.889c1.625-.5,6.514-4.17,7.436-5.574-2.534.657-4.005,2.408-7.436,5.574" transform="translate(-136.461 -168.396)" fill="#f7931e"/>
        <path id="Trazado_712114" data-name="Trazado 712114" d="M316.139,230.471l-.444.169c.8,2.224,1.582,4.41,2.375,6.617l.419-.176c-.24-2.392-1.5-4.35-2.263-6.5-.012-.036-.05-.062-.087-.106" transform="translate(-168.066 -122.696)" fill="#f7931e"/>
        <path id="Trazado_712115" data-name="Trazado 712115" d="M277.792,269.3c-6.915,7.088-6.053,6.183-6.491,6.495l.107.148a2.512,2.512,0,0,1,.714-.1l.055.128c-.985.882-2.017,1.7-3.083,2.656.5.212.266.252.772-.06a36.087,36.087,0,0,0,6.573-5.5c11.47-11.6,13.892-17.629,15.986-27.218a1.03,1.03,0,0,0-.2-.847q-.652,2.344-1.3,4.687c-.35-.835,1.806-9.1.27-11.963-.96,4.5.233,17.592-13.4,31.574" transform="translate(-143.257 -126.558)" fill="#f7931e"/>
        <path id="Trazado_712116" data-name="Trazado 712116" d="M264.46,293.741c-3.968,3.7-6.9,6.5-12.059,8.626-8.971,3.7-7.921,3.643-9.834,5.232.137.507.145.3,2.825-.681l.06.143c-1.251.687-2.553,1.27-3.8,1.953.013.07.026.14.04.21.988-.056,1.73-.434,10.716-4.753,4.589-2.2,11.578-6.538,13.938-11.869-1.156-.439-1.039.352-1.882,1.138" transform="translate(-128.646 -155.706)" fill="#f7931e"/>
        <path id="Trazado_712117" data-name="Trazado 712117" d="M215.706,326.24c2.049-.694,2.981-2.137,4.977-4.4l-.1-.125-5.427,4.232c.115.385.3.375.546.293" transform="translate(-114.545 -171.271)" fill="#f7931e"/>
        <path id="Trazado_712118" data-name="Trazado 712118" d="M241.247,313.9c.232-.2.289-.387.017-.653-3.319.99-2.141.438-8.122,5.8a11.364,11.364,0,0,0-2.188,2.68c.112.138.226.277.332.4,2.748-1.082,2.1-1.441,9.961-8.231" transform="translate(-122.953 -166.764)" fill="#f7931e"/>
        <path id="Trazado_712119" data-name="Trazado 712119" d="M314.354,315.905l-.4-.4-9.791,10.554.087.094a31.123,31.123,0,0,0,10.105-10.25" transform="translate(-161.927 -167.966)" fill="#f7931e"/>
        <path id="Trazado_712120" data-name="Trazado 712120" d="M269.551,329.847,257.6,337.241c1.94-.262,10.837-5.748,11.953-7.394" transform="translate(-137.137 -175.6)" fill="#f7931e"/>
        <path id="Trazado_712121" data-name="Trazado 712121" d="M162.012,346.9c-32.289.572-9.4.954-59.239.072,0,.03,0,.059,0,.089,9.929,2.709,9.908,1.9,27.391,1.037a2.985,2.985,0,0,1,1.585.357c-8.906,1.309-15.655,1.364-15.252,2.217,1.484.512,17.6-.577,19.126-.663,7.3-.408,19.451-.6,26.391-3.11" transform="translate(-54.712 -184.677)" fill="#f7931e"/>
        <path id="Trazado_712122" data-name="Trazado 712122" d="M304.033,294.8c-4.868,4.108-4.711,9.557-27.643,19.073-1.4.583-2.773,1.267-4.154,1.9.041.509.166.5,1.919-.24,8.933-3.762,15.176-5.96,21.488-10.887,2.422-1.89,7.68-6.754,8.391-9.85" transform="translate(-144.93 -156.943)" fill="#f7931e"/>
        <path id="Trazado_712123" data-name="Trazado 712123" d="M323.493,319.484l-.081-.055-6.851,6.71a15.016,15.016,0,0,0,4.9-3.233,8.541,8.541,0,0,0,2.032-3.422" transform="translate(-168.527 -170.054)" fill="#f7931e"/>
        <path id="Trazado_712124" data-name="Trazado 712124" d="M210.152,358.265l0-.133c-9.535,0-18.166.2-25.334.9.947.52,22.042.576,25.337-.766" transform="translate(-98.39 -190.659)" fill="#f7931e"/>
        <path id="Trazado_712125" data-name="Trazado 712125" d="M117.085,353.324c-.279-.189,1.064.127-12.46-2.638-.058.47-.059.474.239.548,2.432.6,11.97,3.261,12.222,2.09" transform="translate(-55.682 -186.695)" fill="#f7931e"/>
        <path id="Trazado_712126" data-name="Trazado 712126" d="M68.954,316.474a14.834,14.834,0,0,0,2.425,1.942c18.052,10.614,14.82,9.031,20.031,10.038.255-.435.094-.441-.488-.729-19.658-9.745-15.221-7.994-22.515-12.874-.058.2-.161.364-.12.449a3.811,3.811,0,0,0,.667,1.175" transform="translate(-36.349 -167.616)" fill="#f7931e"/>
        <path id="Trazado_712127" data-name="Trazado 712127" d="M241.029,334.853a23.808,23.808,0,0,0-4.975,2.128c-6.9,3.634-15.56,4.477-14.953,5.528,5.961,0,6.324-.392,18.342-6.1a24.034,24.034,0,0,0,2.164-1.318c-.267-.333-.265-.326-.578-.243" transform="translate(-117.691 -178.24)" fill="#f7931e"/>
        <path id="Trazado_712128" data-name="Trazado 712128" d="M83.075,333.9c.012-.051.025-.1.037-.152l-9.969-7.6c.392,1.573,5.884,6.532,9.932,7.754" transform="translate(-38.939 -173.63)" fill="#f7931e"/>
        <path id="Trazado_712129" data-name="Trazado 712129" d="M64.97,277.37c-.153,1.384.621,2.181,1.77,3.018,20.339,14.816,25.413,14.361,41.115,16.26,11.385,1.377,36.89.241,41.119-2.083-3.786.346-7.541.877-11.34.49,4.073-.641,8.193-.991,12.149-2.354l-7.167.33c-.009-.216-.016-.374-.026-.593,26.6,0,48-14.085,50.849-31.113.334-1.994.51-4.017.817-6.017a2.218,2.218,0,0,0-.483-1.721c-.314.078-.326.331-.354.553-1.2,9.661-.224,8.583-6.176,17.243a16.032,16.032,0,0,1-2.972,3.284c-29.078,24.132-44.079,13.745-78.231,15.073-4.272.167-3.5.3-10.132-.979a32.552,32.552,0,0,1-7.9-2.411C71.866,278.682,71.436,275.7,69.82,275.7a9.073,9.073,0,0,0,1.348,1.627c4.884,3.634,14.874,10.062,20.586,11.955,11.2,3.714,14.153.051,47.181,3.191a11.319,11.319,0,0,1,1.463.289c.09.021.161.14.24.213l-.02.13c-1.023.1-3.664.046-5.919.062.382.532-.255.395,3.133.395-.009.04-.018.08-.028.121-4.372.464-10.313,1.055-10.908,1.164.084.2-.618.127,6.177.276a4.283,4.283,0,0,1-1.783.336c-21.041.346-20.184,1.115-33.455-1.515-11.49-2.277-18.936-5.005-32.866-16.578" transform="translate(-34.578 -135)" fill="#f7931e"/>
        <path id="Trazado_712130" data-name="Trazado 712130" d="M253.688,326.968a.9.9,0,0,0,.065-.2l-.412-.331c-7.606,5.918-3.283,3.868-15.5,8.147-16.118,5.644-29.708,3.347-33.773,4.624.068.043,18.056,1.395,35.382-3.506l.023.076c-7.129,3.2-16.621,3.966-19.928,4.586.007.041.014.082.02.124,7.258.331,20.527-2.448,27.219-6.582a19.264,19.264,0,0,0,6.91-6.943" transform="translate(-108.637 -173.788)" fill="#f7931e"/>
        <path id="Trazado_712131" data-name="Trazado 712131" d="M177.276,366.666c3.054,1.45,27.673,3.455,41.134-2.235-1.164.041-2.28.381-3.44.4,1.86-.616,3.777-.981,5.657-1.5-.012-.057-.023-.114-.035-.17-1.052.06.3-.2-9.037,1.341-12.847,2.122-20.363.794-22.991,1.81-.174.65-.433.415,9.262,1.083-4.891.99-14.777-1.125-20.55-.736" transform="translate(-94.376 -193.34)" fill="#f7931e"/>
        <path id="Trazado_712132" data-name="Trazado 712132" d="M283.555,346l8.651-3.625c-.418-.289-.269-.322-.715-.133-9.026,3.807-7.755,3.092-7.936,3.758" transform="translate(-150.956 -182.137)" fill="#f7931e"/>
        <path id="Trazado_712133" data-name="Trazado 712133" d="M338.927,277.252l-.11,0c-.65,2.209-1.772,8.21-3.407,12.9-1.029,2.951-2.55,6.989-2.975,8.257l.147.075c5.354-7.521,7.091-14.881,6.345-21.235" transform="translate(-176.978 -147.601)" fill="#f7931e"/>
        <path id="Trazado_712134" data-name="Trazado 712134" d="M130.221,351.7l-15.883-.447c-.138,1,.434.915,5.033,1.1A68.821,68.821,0,0,1,86.5,346.08c-.336.464-.262.432,3.379,2.345a16.714,16.714,0,0,0,1.648.74c13.27,5.217,26.394,4.248,28.36,4.424l-.844.341.033.124c.762-.044,9.266-1.564,10.871-1.834.275-.046.409-.144.268-.522" transform="translate(-45.984 -184.242)" fill="#f7931e"/>
        <path id="Trazado_712135" data-name="Trazado 712135" d="M342.56,232.248c1.739-2.2.519-3.86-1.131-6.7-.061-.1-.145-.193-.292-.388.23,3.546.007,4.077,1.423,7.084" transform="translate(-181.611 -119.87)" fill="#f7931e"/>
        <path id="Trazado_712136" data-name="Trazado 712136" d="M95.859,318.766a1.342,1.342,0,0,0,.339,0l-13.714-8.294-.07.1c3.494,4.154,8.641,6.194,13.445,8.194" transform="translate(-43.875 -165.287)" fill="#f7931e"/>
        <path id="Trazado_712137" data-name="Trazado 712137" d="M342.786,251.119c.269,1.868-.389,2.075-3.761,5.981l.619,1.3c.546-.55,4.623-5.579,5.346-6.491,2.019-2.548,5.185-8.209,4.906-11.2l-.461-.119c-1.677,3.9-2.875,7.673-5.692,10.86-.136-.943-.257-1.789-.375-2.608l-.643-.207c.146-2.266.4-2.667-1.421-7.229-.134-.336-.288-.623-.665-.708.282-.591-.117-.962-.309-1.377a6.009,6.009,0,0,0-.743-1.3c-.791,2.734,1.687,2.64,3.2,13.1" transform="translate(-180.487 -126.712)" fill="#f7931e"/>
        <path id="Trazado_712138" data-name="Trazado 712138" d="M339.038,292.546c.4-.387,1.928-2.374,2.279-2.829,2.485-3.218,3.038-8.151,3.146-12.365.021-.837.013-5.245-.134-6.017-2.3,2.653-.238,2.657-1.469,10.078-1.1,6.666-3.915,10.047-3.973,11.088Z" transform="translate(-180.413 -144.45)" fill="#f7931e"/>
        <path id="Trazado_712139" data-name="Trazado 712139" d="M171.537,308.538c0-.052-.008-.1-.012-.157-3.594-.582-16.881-.9-23.143-2.835-9.411-2.91-5.769-1.976-8.943-2.621l-.117.559A94.337,94.337,0,0,0,157.91,308.8l-.031.142c-4.884,1.347-18.656-.216-21.355.067,1.188.943,1.519.57,7.078,1.09.029,0,.054.046.2.175l-.364.088c8.528,1.443,22.034.245,28.1-1.825" transform="translate(-72.681 -161.268)" fill="#f7931e"/>
        <path id="Trazado_712140" data-name="Trazado 712140" d="M224.015,309.072h-8.239a6.591,6.591,0,0,0,1.3.428c2.512.592,4.826,1.11,6.942-.428" transform="translate(-114.873 -164.541)" fill="#f7931e"/>
        <path id="Trazado_712141" data-name="Trazado 712141" d="M135.574,310.624c-.92-.863-.542-.637-.871-.759l-.18.395,1.541,1.485c.723-.766.223-.451-.491-1.12" transform="translate(-71.616 -164.963)" fill="#f7931e"/>
        <path id="Trazado_712142" data-name="Trazado 712142" d="M163.778,315.906c22.006,2.926,27.911-5.217,46.279-6.054a7.484,7.484,0,0,0,2.565-.629c-.015-.17-.029-.327-.05-.553-5.931-.051-5.739-.48-20.717,2.572a26.7,26.7,0,0,0-6.464,1.994c-3.917,1.908-15.361,1.332-22.294,2.174a.68.68,0,0,0,.68.495" transform="translate(-86.828 -164.301)" fill="#f7931e"/>
        <path id="Trazado_712143" data-name="Trazado 712143" d="M298.242,276.736c5.064-1.276,16.713-19.006,16.46-27.922-.56.642-2.9,10.124-7.121,15.86-1.812,2.461-5.757,6.608-9.34,12.063" transform="translate(-158.775 -132.461)" fill="#f7931e"/>
        <path id="Trazado_712144" data-name="Trazado 712144" d="M159.942,335.231c-2.486-.845-24.934-.143-31.307-1.007,2.156,3.126,27.9,2.374,31.307,1.007" transform="translate(-68.481 -177.931)" fill="#f7931e"/>
        <path id="Trazado_712145" data-name="Trazado 712145" d="M322.173,243.8c.532-1.934.765-3.91,1.2-5.838l.132.019v2.05l.132-.008c1.707-4.965,1.02-9.755-.983-14.448h-.14c.887,10.549-.767,16.894-.343,18.227" transform="translate(-171.477 -120.091)" fill="#f7931e"/>
        <path id="Trazado_712146" data-name="Trazado 712146" d="M317.712,286.906c-.005.014.039.047.085.1,2.342-2.73,3.264-6.156,4.192-9.6-2.208,2.56-2.554,4.242-4.276,9.5" transform="translate(-169.14 -147.683)" fill="#f7931e"/>
        <path id="Trazado_712147" data-name="Trazado 712147" d="M95.275,301.936c3.067,2.065,7.97,5.379,8.58,5.659-1.037-1.646-6.919-5.552-8.58-5.659" transform="translate(-50.722 -160.742)" fill="#f7931e"/>
        <path id="Trazado_712148" data-name="Trazado 712148" d="M115.588,316.846l.23-.538c-1.227-.463-2.343-1.023-3.574-1.4,0,.36-.542,0,3.344,1.939" transform="translate(-59.741 -167.647)" fill="#f7931e"/>
        <path id="Trazado_712149" data-name="Trazado 712149" d="M123.6,318.259c3.667,3.3,8.071,4.344,12.709,4.675Z" transform="translate(-65.799 -169.431)" fill="#f7931e"/>
        <path id="Trazado_712150" data-name="Trazado 712150" d="M41.762,293.079c-.043-.155-.107-.3-.2-.572-.7.919.449,6.519,2.794,11.143.4-.2.5.62-2.589-10.571" transform="translate(-22.016 -155.722)" fill="#f7931e"/>
        <path id="Trazado_712151" data-name="Trazado 712151" d="M51.076,331.346c-2.087-2.1-2.835-4.07-4.177-7.028a30.872,30.872,0,0,1-1.961-6.265c-.373-.084-.5.072-.468.4a18.079,18.079,0,0,0,.2,1.885,23.792,23.792,0,0,0,6.884,12.548,9.728,9.728,0,0,0,3.256,2.139l.05-.1c-.147-.136-.3-.272-.442-.41-1.118-1.05-2.263-2.071-3.345-3.162" transform="translate(-23.672 -169.309)" fill="#f7931e"/>
        <path id="Trazado_712152" data-name="Trazado 712152" d="M62,336.085l.3-.351a26.556,26.556,0,0,0-3.174-3.385c.006,1.823,1.05,2.28,2.87,3.736" transform="translate(-31.48 -176.932)" fill="#f7931e"/>
        <path id="Trazado_712153" data-name="Trazado 712153" d="M49.346,325.467l-.523.346,2.095,3.9.336-.239c-1-2.862-1.131-3.576-1.908-4.006" transform="translate(-25.992 -173.269)" fill="#f7931e"/>
        <path id="Trazado_712154" data-name="Trazado 712154" d="M69.32,348.486c-.119.4,6.433,10.144,16.5,13.4.463.15.465.145.78-.426-.74-.425-1.421-.859-2.135-1.218-.989-.5-2-.948-3.005-1.4-5.082-2.275-8.543-7.358-12.143-10.353" transform="translate(-36.903 -185.523)" fill="#f7931e"/>
        <path id="Trazado_712155" data-name="Trazado 712155" d="M80.536,354.852a10.578,10.578,0,0,0-3.271-2.6l-.232.477,3.432,2.235.071-.109" transform="translate(-41.01 -187.527)" fill="#f7931e"/>
        <path id="Trazado_712156" data-name="Trazado 712156" d="M33.756,243.6c.568-5.773.718-12.554.644-13.224a30.228,30.228,0,0,0-5.921,6.462,2.392,2.392,0,0,0-.516,1.729c.3.225.472.089.656-.168,2.5-3.5,2.329-3.515,3.917-3.882.083.421.152.793.231,1.162.312,1.454-3.975,6.52-4.581,18.571,1.075-.56-.493-2.108,2.922-12.267a8.437,8.437,0,0,1,1.6-2.6c.889.026.287,1.1.517,4.615.47.017.487.018.527-.4" transform="translate(-14.881 -122.648)" fill="#f7931e"/>
        <path id="Trazado_712157" data-name="Trazado 712157" d="M35.008,265.045l-.709.052c.251,2.232.493,4.383.74,6.581l.606-.078c-.214-2.207-.423-4.361-.636-6.555" transform="translate(-18.26 -141.102)" fill="#f7931e"/>
        <path id="Trazado_712158" data-name="Trazado 712158" d="M47.754,297.307l.419-.265c-1.96-5.678-1.006-1.953-4.074-15.552,1.364.524,2.638,7.8,12.391,16a22.089,22.089,0,0,0,4.392,2.538c.24.123.325-.014.361-.235-3.186-2.489-5.253-3.908-7.64-6.759-8.046-9.611-6.852-7.69-10.218-15.134a30.188,30.188,0,0,1-3.043-13.536,19.866,19.866,0,0,0,0,8.493c.4,1.783,5.719,22.693,7.413,24.45" transform="translate(-21.236 -140.739)" fill="#f7931e"/>
        <path id="Trazado_712159" data-name="Trazado 712159" d="M65.815,332.6l.047-.083c-11.16-10.859-10.618-10.42-10.8-10.338-.055,3.4,8.113,9.239,10.748,10.421" transform="translate(-29.316 -171.505)" fill="#f7931e"/>
        <path id="Trazado_712160" data-name="Trazado 712160" d="M55.9,336.818a22.741,22.741,0,0,0,8.068,5.24c-1.531-1.732-5.612-4.788-8.068-5.24" transform="translate(-29.758 -179.312)" fill="#f7931e"/>
        <path id="Trazado_712161" data-name="Trazado 712161" d="M281.426,355.537c7.729-1.013,13.169-3.536,20.736-7.229a5.849,5.849,0,0,0,1.968-1.713l-.241-.437c-9.68,5.382-17.276,6.849-22.464,9.379" transform="translate(-149.823 -184.284)" fill="#f7931e"/>
        <path id="Trazado_712162" data-name="Trazado 712162" d="M143.715,367.817c2.216-.12,4.427-.352,6.7-.593Z" transform="translate(-76.509 -195.499)" fill="#f7931e"/>
        <path id="Trazado_712163" data-name="Trazado 712163" d="M98.053,358.095a13.855,13.855,0,0,0-1.289-1.017c-1.1-.722-2.344-1.1-3.248-2.313a3.121,3.121,0,0,1-.215-.442l10.5-.928c-9.589.519-19.289-1.07-35.032-13.26a.725.725,0,0,0,.3.787c1.142,1.087,2.259,2.2,3.434,3.25a41.93,41.93,0,0,0,11.913,7.633c1.8.74,3.619,1.432,5.413,2.188,6.017,2.533,5.349,3.678,8.206,4.651a.317.317,0,0,0,.013-.55" transform="translate(-36.595 -181.078)" fill="#f7931e"/>
        <path id="Trazado_712164" data-name="Trazado 712164" d="M250.231,373.27a28.3,28.3,0,0,0,10.079-4.254c-5.633,2.28-11.358,4.141-17.447,4.575,1.039.383,4.655.235,7.368-.321" transform="translate(-129.293 -196.453)" fill="#f7931e"/>
        <path id="Trazado_712165" data-name="Trazado 712165" d="M336.831,217.049v2.207l1.624.535-1.624-2.742" transform="translate(-179.319 -115.55)" fill="#f7931e"/>
        <path id="Trazado_712166" data-name="Trazado 712166" d="M319.1,322.137c-5.7,7.551-12.683,9.231-23.43,15.289-.166.094-.514.121-.368.435s.169.061,4.083-1.682a91.142,91.142,0,0,0,17-9.864,11.532,11.532,0,0,0,4.282-6.266l-.086-.049c-.479.588-.864,1.328-1.476,2.138" transform="translate(-157.193 -170.358)" fill="#f7931e"/>
        <path id="Trazado_712167" data-name="Trazado 712167" d="M176.169,379.4c-10.458,3.95-19.7,1.617-29.6-1.466-.008.036-.017.072-.025.108,9.942,3.784,20.111,6.536,29.874,1.36a.276.276,0,0,0-.248,0" transform="translate(-78.015 -201.198)" fill="#f7931e"/>
        <path id="Trazado_712168" data-name="Trazado 712168" d="M197.952,372.283c-.01-.052-.019-.106-.029-.159-1.622-.058-7.914,1.2-12.374,1.164-4.7-.034-9.392-.337-14.085-.624-12.407-.758-12.809-1.782-18.209-1.139-.129.459-.664.519,8.887,1.756,3.718.481,7.451.777,11.191.959,14.311.694,19.835-.94,24.237-1.777a1.711,1.711,0,0,0,.38-.18" transform="translate(-81.562 -197.681)" fill="#f7931e"/>
        <path id="Trazado_712169" data-name="Trazado 712169" d="M162.286,378.817c2.8.929,5.632.5,8.461.286-2.805-.654-5.616-1.118-8.461-.286" transform="translate(-86.396 -201.432)" fill="#f7931e"/>
        <path id="Trazado_712170" data-name="Trazado 712170" d="M212.788,385.131l.267.33,3.293-3.176c-1.48.1-1.837.882-3.56,2.846" transform="translate(-113.282 -203.517)" fill="#f7931e"/>
        <path id="Trazado_712171" data-name="Trazado 712171" d="M267.98,279.539l-5.188,4.1c.048-1.394,4.457-9.31,4.725-13.109l-.482-.109c-1.567,2.76-2.944,10.639-10.314,19.451-1.487,1.778-5.881,6.57-9.59,9-7.516,4.931-21.807,11.429-24.683,12.055-4.93,1.072-7.2,1.8-11.133,2.292-13.177,1.651-12.4.944-19.011.893-.834-.007-12.937-.082-13.768-.022v.5a100.446,100.446,0,0,0,19.949,1.474c4.469-.287,15.018-1.942,19.19-2.623,17.1-2.8,12.2-3.52,26.484-11.182,12.778-6.852,15.05-14.673,18.857-17.379a41.017,41.017,0,0,0,5.07-4.8c.061-.166.183-.353-.107-.547" transform="translate(-95.047 -143.962)" fill="#f7931e"/>
        <path id="Trazado_712172" data-name="Trazado 712172" d="M123.1,303.4c1.405.151,2.818.214,4.228.318.011-.046.023-.092.035-.137-2.379-.788-7.383-1.754-16.8-5.1-5.654-2.007-7.585-4.626-9.241-5.9-5.948-4.582-9.515-9.215-11.489-10.745a10.337,10.337,0,0,0,1.269,2.716c8.557,10.634,18.987,17.446,32,18.844" transform="translate(-47.826 -150.042)" fill="#f7931e"/>
        <path id="Trazado_712173" data-name="Trazado 712173" d="M240.179,298.2c.17-.044.333-.113.513-.174-.016-.151-.028-.271-.051-.492a121.616,121.616,0,0,0-16.07,3.916c1.421.455,1.063.526,15.609-3.25" transform="translate(-119.554 -158.4)" fill="#f7931e"/>
        <path id="Trazado_712174" data-name="Trazado 712174" d="M30.037,287.753c-1.47,8.132-4.811,13.064-6.195,16.66l.453.253c4.292-8.546,3.056-7.406,3.982-7.756-.1,6.522,0,6.079.3,6.05.155-.588-.075,1.255,1.409-11.831.372-3.279.5-3.415.045-3.375" transform="translate(-12.693 -153.188)" fill="#f7931e"/>
        <path id="Trazado_712175" data-name="Trazado 712175" d="M244.427,297.09c.339.875,2.16.484,3.056.112,12.055-5,18.855-7.242,20.925-8.422.3-.171.3-.672-.347-.594-7.918.953-19.507,6.934-21.854,8.07-.578.28-1.163.545-1.781.833" transform="translate(-130.125 -153.418)" fill="#f7931e"/>
        <path id="Trazado_712176" data-name="Trazado 712176" d="M330.01,213.014c.733,7.132-2.125,11.9-2.473,15.475l.17.051c.5-.625.77-1.713,1.842-5.421a33.291,33.291,0,0,0,.873-15.507c-.291-1.57-.936-3.649-.978-3.815a4.647,4.647,0,0,0-.834-1.888,1.369,1.369,0,0,0-.4,1.5c.026.071,1.458,6.318,1.8,9.611" transform="translate(-174.371 -107.49)" fill="#f7931e"/>
        <path id="Trazado_712177" data-name="Trazado 712177" d="M328.91,251.645c.707.467.672-.205,2.7-6.982,1.731-5.772,1.5-8.986,1.7-16.918.015-.607-.253-1.227-1-1.011a55.425,55.425,0,0,1-.873,12.077c-.661,3.611-1.151,5.829-2.531,12.834" transform="translate(-175.102 -120.683)" fill="#f7931e"/>
        <path id="Trazado_712178" data-name="Trazado 712178" d="M124.793,297.969l.973-.974a13.32,13.32,0,0,0-1.491-2.023c-3.2-3.582-2.918-3.2-5.167-1.326a20,20,0,0,1,5.686,4.322" transform="translate(-63.409 -155.583)" fill="#f7931e"/>
        <path id="Trazado_712179" data-name="Trazado 712179" d="M44.4,226.838c.028-.217.051-.334.058-.451.56-10.089.639-8.828.126-9.246-.46,10.655-.5,9.454-.184,9.7" transform="translate(-23.531 -115.599)" fill="#f7931e"/>
        <path id="Trazado_712180" data-name="Trazado 712180" d="M51.965,272.036c.382-3.059-.527-5.834-1.49-8.6.158,2.807.114,6.358,1.49,8.6" transform="translate(-26.871 -140.245)" fill="#f7931e"/>
        <path id="Trazado_712181" data-name="Trazado 712181" d="M46.061,254.71c3.077,6.744,2.54,5.578,2.874,6.205l.481-.195c-2.988-11.153-6.17-11.725-1.664-28.558-.342,0-.327.578-.8.4.67-1.359,1.388-2.648,1.978-4.024-4.086,1.985-7.82,15.326-2.871,26.173" transform="translate(-23.263 -121.666)" fill="#f7931e"/>
        <path id="Trazado_712182" data-name="Trazado 712182" d="M46.436,285.2l-.109.067c.311,1.322.757,2.6,1.136,3.933l.465-.16c-1.5-4.277-1.219-3.626-1.492-3.84" transform="translate(-24.663 -151.832)" fill="#f7931e"/>
        <path id="Trazado_712183" data-name="Trazado 712183" d="M71.8,263.88a34.556,34.556,0,0,0,2.54,3.191c-.1-1.045-3.22-6.113-4.642-14.669a24.753,24.753,0,0,0-1.952-5.5,3.557,3.557,0,0,0,.188,2.524c.465,1.045.51,9.721,3.865,14.459" transform="translate(-35.989 -131.44)" fill="#f7931e"/>
        <path id="Trazado_712184" data-name="Trazado 712184" d="M69.091,283.858c.872,6.126,15.932,14.422,16.078,14.417.1,0,.2-.087.361-.168a51.353,51.353,0,0,0-7.069-5.662c-4.594-2.88-6.2-6.308-9.37-8.588" transform="translate(-36.782 -151.117)" fill="#f7931e"/>
        <path id="Trazado_712185" data-name="Trazado 712185" d="M55.019,257.3a80.587,80.587,0,0,0,2.9,15.041,5.251,5.251,0,0,0,1.13,1.967c.435-.145.289-.1-.569-3.67a1.886,1.886,0,0,1,0-.415l.138-.04,2.187,6.163c.92-.063-1.578-4.52-2.857-10.962-1.437-7.245-1.964-8.61-1.856-13.769.118-5.658-1.337-18.112.838-25.364a4.088,4.088,0,0,1,.166,2.337,1.092,1.092,0,0,0,.309-.455c.928-3.172,1.395-3.956.459-4.684-1.259,1.087-1.674.437-2.708,6.24-1.34,7.52-.6,22.057-.131,27.609" transform="translate(-28.954 -118.958)" fill="#f7931e"/>
        <path id="Trazado_712186" data-name="Trazado 712186" d="M71.158,279.924c0-.017,0-.04-.009-.051-4.3-5.3-3.474-4.349-4.064-4.678.428,1.817,2.8,4.457,4.073,4.728" transform="translate(-35.714 -146.506)" fill="#f7931e"/>
        <path id="Trazado_712187" data-name="Trazado 712187" d="M60.019,257.554l-.409.177c1.179,10.4,2.8,19.157,9.941,26.651-.018-.564-.385-.829-1.748-3.515-6.024-11.874-7.317-22.031-7.785-23.313" transform="translate(-31.735 -137.114)" fill="#f7931e"/>
        <path id="Trazado_712188" data-name="Trazado 712188" d="M47.927,289.04l-.465.16c-.379-1.335-.824-2.611-1.136-3.933l.109-.067c.271.213-.014-.462,1.492,3.84" transform="translate(-24.663 -151.832)" fill="#7e4d00"/>
        <path id="Trazado_712189" data-name="Trazado 712189" d="M62,336.085c-1.782-1.426-2.864-1.914-2.87-3.736a26.59,26.59,0,0,1,3.174,3.385l-.3.351" transform="translate(-31.48 -176.932)" fill="#7e4d00"/>
        <path id="Trazado_712190" data-name="Trazado 712190" d="M63.965,342.058a22.741,22.741,0,0,1-8.068-5.24c2.466.454,6.549,3.521,8.068,5.24" transform="translate(-29.758 -179.312)" fill="#7e4d00"/>
        <path id="Trazado_712191" data-name="Trazado 712191" d="M51.254,329.474l-.336.239-2.095-3.9.523-.346c.8.44.939,1.235,1.908,4.006" transform="translate(-25.992 -173.269)" fill="#7e4d00"/>
        <path id="Trazado_712192" data-name="Trazado 712192" d="M77.032,352.726l.232-.477a10.586,10.586,0,0,1,3.271,2.6l-.071.109-3.432-2.235" transform="translate(-41.009 -187.527)" fill="#7e4d00"/>
        <path id="Trazado_712193" data-name="Trazado 712193" d="M46.326,285.266c.311,1.322.757,2.6,1.136,3.933l.465-.16c-1.506-4.3-1.221-3.627-1.492-3.84Z" transform="translate(-24.663 -151.831)" fill="#7e4d00"/>
        <path id="Trazado_712194" data-name="Trazado 712194" d="M59.131,332.349c.006,1.821,1.087,2.31,2.869,3.736.132-.152.21-.242.3-.351a26.662,26.662,0,0,0-3.173-3.385" transform="translate(-31.48 -176.932)" fill="#7e4d00"/>
        <path id="Trazado_712195" data-name="Trazado 712195" d="M63.965,342.058c-1.519-1.719-5.6-4.786-8.068-5.24a22.741,22.741,0,0,0,8.068,5.24" transform="translate(-29.758 -179.312)" fill="#7e4d00"/>
        <path id="Trazado_712196" data-name="Trazado 712196" d="M48.822,325.813l2.095,3.9.336-.239c-.968-2.771-1.111-3.566-1.908-4.006l-.523.346" transform="translate(-25.991 -173.269)" fill="#7e4d00"/>
        <path id="Trazado_712197" data-name="Trazado 712197" d="M77.265,352.249c-.083.171-.144.3-.232.477l3.431,2.235c.024-.036.047-.073.071-.11a10.576,10.576,0,0,0-3.271-2.6" transform="translate(-41.01 -187.527)" fill="#7e4d00"/>
        <path id="Trazado_712198" data-name="Trazado 712198" d="M337.678,204.535c1.7,10.154-1.177,20.1-5.073,29.3-.512,1.211,1.177,2.269,1.693,1.049,4.136-9.769,7.073-20.137,5.27-30.9-.22-1.315-2.109-.758-1.891.552" transform="translate(-177.018 -108.195)" fill="#f79c31"/>
        <path id="Trazado_712199" data-name="Trazado 712199" d="M341.077,215.639c-1.432,14.427-8.873,26.871-16.127,38.785a1,1,0,0,0,1.693,1.049c7.473-12.274,14.922-24.992,16.4-39.834.132-1.329-1.83-1.319-1.961,0" transform="translate(-172.908 -114.271)" fill="#f79c31"/>
        <path id="Trazado_712200" data-name="Trazado 712200" d="M7.441,238.27a79.64,79.64,0,0,0,20.422,38.069c.905.932,2.293-.536,1.387-1.47A77.583,77.583,0,0,1,9.332,237.718c-.293-1.3-2.183-.75-1.891.553" transform="translate(-3.945 -126.158)" fill="#f79c31"/>
        <path id="Trazado_712201" data-name="Trazado 712201" d="M21.262,232.762c.884,5.1,1.271,10.523,3.977,14.972,2.964,4.873,6.463,9.462,9.877,13.986.788,1.044,2.168-.435,1.387-1.47-3.31-4.386-6.7-8.839-9.571-13.565-2.593-4.263-2.933-9.587-3.78-14.475-.228-1.314-2.117-.757-1.891.553" transform="translate(-11.309 -123.222)" fill="#f79c31"/>
        <path id="Trazado_712202" data-name="Trazado 712202" d="M2.4,273.388a81.929,81.929,0,0,0,30.9,32.674c1.1.649,2.095-1.146.99-1.8A79.933,79.933,0,0,1,4.1,272.338c-.615-1.169-2.309-.121-1.693,1.05" transform="translate(-1.209 -144.713)" fill="#f79c31"/>
        <path id="Trazado_712203" data-name="Trazado 712203" d="M102.692,329.459a72.2,72.2,0,0,0-30.863,27.086,1,1,0,0,0,1.693,1.049,70.361,70.361,0,0,1,30.159-26.34c1.156-.526.159-2.317-.99-1.8" transform="translate(-38.149 -175.344)" fill="#f79c31"/>
        <path id="Trazado_712204" data-name="Trazado 712204" d="M97.6,324.977c-10.866-.519-21.194,8.394-27.423,17.059-.764,1.063.938,2.1,1.693,1.049,5.815-8.09,15.612-16.512,25.73-16.029,1.262.061,1.259-2.018,0-2.079" transform="translate(-37.259 -172.997)" fill="#f79c31"/>
        <path id="Trazado_712205" data-name="Trazado 712205" d="M90.92,294.044c-9.565-.292-18.658,4.709-24.141,9.57-.673.6.825,1.178,1.49.589,5.12-4.538,13.744-9.264,22.651-8.993,1.111.034,1.108-1.132,0-1.166" transform="translate(-35.461 -156.534)" fill="#f79c31"/>
        <path id="Trazado_712206" data-name="Trazado 712206" d="M224.851,314.156c6.433.516,11.448,5.014,15.67,9.83a96.3,96.3,0,0,1,11.74,16.9c.638,1.153,2.334.109,1.693-1.049a94.616,94.616,0,0,0-13.473-18.9c-4.312-4.6-9.378-8.354-15.631-8.856-1.259-.1-1.252,1.978,0,2.079" transform="translate(-119.202 -166.138)" fill="#f79c31"/>
        <path id="Trazado_712207" data-name="Trazado 712207" d="M253.831,305.012c1.083,2.144,4.007,2.416,5.962,3.27a50.053,50.053,0,0,1,9.413,5.434,53.4,53.4,0,0,1,14.637,16.442,1,1,0,0,0,1.693-1.05,56.032,56.032,0,0,0-12.82-15.23,52.358,52.358,0,0,0-8.09-5.492c-1.259-.691-2.545-1.321-3.852-1.9-1.222-.543-4.615-1.264-5.25-2.52-.6-1.179-2.289-.131-1.693,1.049" transform="translate(-135.065 -161.545)" fill="#f79c31"/>
        <path id="Trazado_712208" data-name="Trazado 712208" d="M283.065,296.8c9.354-.079,22.106,3.344,26.856,12.839.592,1.182,2.285.132,1.693-1.05-5.086-10.165-18.492-13.952-28.55-13.868-1.261.01-1.264,2.089,0,2.079" transform="translate(-150.191 -156.899)" fill="#f79c31"/>
        <path id="Trazado_712209" data-name="Trazado 712209" d="M290.828,269.314c5.683-6.035,12.7-15.119,21.262-15.822,1.25-.1,1.26-2.182,0-2.079-9.272.761-16.512,9.914-22.648,16.431-.893.948.493,2.418,1.387,1.47" transform="translate(-153.936 -133.843)" fill="#f79c31"/>
        <g id="Grupo_979246" data-name="Grupo 979246" transform="translate(64.789 90.608)" style="mix-blend-mode: screen;isolation: isolate">
          <g id="Grupo_979245" data-name="Grupo 979245">
            <g id="Grupo_979244" data-name="Grupo 979244" clip-path="url(#clip-path-8)">
              <path id="Trazado_712210" data-name="Trazado 712210" d="M143.1,193.76c2.046,6.6-1.793,14.281-3.981,12.592-2.682-2.07,4.961-2.881,3.981-12.592" transform="translate(-138.548 -193.76)" fill="#cecbcd"/>
            </g>
          </g>
        </g>
        <g id="Grupo_979249" data-name="Grupo 979249" transform="translate(54.339 109.042)" style="mix-blend-mode: screen;isolation: isolate">
          <g id="Grupo_979248" data-name="Grupo 979248">
            <g id="Grupo_979247" data-name="Grupo 979247" clip-path="url(#clip-path-8)">
              <path id="Trazado_712211" data-name="Trazado 712211" d="M120.756,233.18c2.046,6.6-1.793,14.281-3.981,12.592-2.682-2.07,4.961-2.881,3.981-12.592" transform="translate(-116.201 -233.18)" fill="#cecbcd"/>
            </g>
          </g>
        </g>
        <g id="Grupo_979252" data-name="Grupo 979252" transform="translate(63.843 77.075)" style="mix-blend-mode: screen;isolation: isolate">
          <g id="Grupo_979251" data-name="Grupo 979251">
            <g id="Grupo_979250" data-name="Grupo 979250" clip-path="url(#clip-path-8)">
              <path id="Trazado_712212" data-name="Trazado 712212" d="M141.079,164.821c2.046,6.6-1.793,14.28-3.981,12.592-2.682-2.07,4.961-2.881,3.981-12.592" transform="translate(-136.524 -164.821)" fill="#cecbcd"/>
            </g>
          </g>
        </g>
        <g id="Grupo_979255" data-name="Grupo 979255" transform="translate(124.914 28.98)" style="mix-blend-mode: screen;isolation: isolate">
          <g id="Grupo_979254" data-name="Grupo 979254">
            <g id="Grupo_979253" data-name="Grupo 979253" clip-path="url(#clip-path-11)">
              <path id="Trazado_712213" data-name="Trazado 712213" d="M267.122,81.836a28.865,28.865,0,0,1,.872-5.459,38.977,38.977,0,0,1,1.726-5.266,32.531,32.531,0,0,1,2.571-4.926,20.393,20.393,0,0,1,3.6-4.213c-1,1.556-1.928,3.1-2.765,4.7-.805,1.616-1.579,3.243-2.262,4.914-1.386,3.339-2.553,6.763-3.743,10.248" transform="translate(-267.122 -61.972)" fill="#cecbcd"/>
            </g>
          </g>
        </g>
        <g id="Grupo_979258" data-name="Grupo 979258" transform="translate(122.922 21.73)" style="mix-blend-mode: screen;isolation: isolate">
          <g id="Grupo_979257" data-name="Grupo 979257">
            <g id="Grupo_979256" data-name="Grupo 979256" clip-path="url(#clip-path-12)">
              <path id="Trazado_712214" data-name="Trazado 712214" d="M268.249,46.469a49.154,49.154,0,0,0-3.138,6.071,31.3,31.3,0,0,0-1.168,3.162c-.362,1.076-.6,2.184-.926,3.329A10.869,10.869,0,0,1,263,55.487a14.493,14.493,0,0,1,.367-1.749,15.76,15.76,0,0,1,.6-1.683,14.5,14.5,0,0,1,1.773-3.087,10.865,10.865,0,0,1,2.508-2.5" transform="translate(-262.861 -46.469)" fill="#cecbcd"/>
            </g>
          </g>
        </g>
        <g id="Grupo_979261" data-name="Grupo 979261" transform="translate(100.872 7.559)" style="mix-blend-mode: screen;isolation: isolate">
          <g id="Grupo_979260" data-name="Grupo 979260">
            <g id="Grupo_979259" data-name="Grupo 979259" clip-path="url(#clip-path-13)">
              <path id="Trazado_712215" data-name="Trazado 712215" d="M216.623,16.165c.856,10.591,2.321,13.651,4.252,19.225-5.126-5.244-6.212-13.969-4.252-19.225" transform="translate(-215.708 -16.165)" fill="#cecbcd"/>
            </g>
          </g>
        </g>
        <path id="Trazado_712216" data-name="Trazado 712216" d="M109.783,126.7a2.938,2.938,0,1,0,2.938-2.939,2.938,2.938,0,0,0-2.938,2.939" transform="translate(-58.445 -65.889)" fill="#283038"/>
        <path id="Trazado_712217" data-name="Trazado 712217" d="M114.891,128.358a1.362,1.362,0,1,0,1.357-1.486,1.425,1.425,0,0,0-1.357,1.486" transform="translate(-61.164 -67.543)" fill="#fff"/>
        <path id="Trazado_712218" data-name="Trazado 712218" d="M167.271,177.072s-.932-10.864,10.784-18.486,10.385-4.293,12.138-2.541,12.916-9.781,19.644-14.592,12.92-8.586,10.98,0,2.03,10.2,2.03,17.133-6.753,12.535-4.511,16.864,6.974,2.069,3.482,11.73-11.5,21.649-26.224,23.985-31.88-10.434-33.865-22.233,5.542-11.861,5.542-11.861" transform="translate(-85.922 -72.58)" fill="#e7e1db"/>
        <g id="Grupo_979264" data-name="Grupo 979264" transform="translate(105.799 112.988)" style="mix-blend-mode: screen;isolation: isolate">
          <g id="Grupo_979263" data-name="Grupo 979263">
            <g id="Grupo_979262" data-name="Grupo 979262" clip-path="url(#clip-path-14)">
              <path id="Trazado_712219" data-name="Trazado 712219" d="M226.244,258.628a25.745,25.745,0,0,0,6.543-2.145c13.962-6.662,13.547-17.288,18.008-14.369a2.5,2.5,0,0,1,.458,3.8c-5.507,5.894-10.293,9.621-18.043,11.737a26.305,26.305,0,0,1-6.967.977" transform="translate(-226.244 -241.618)" fill="#e7e1db"/>
            </g>
          </g>
        </g>
        <g id="Grupo_979267" data-name="Grupo 979267" transform="translate(105.764 80.986)" style="mix-blend-mode: screen;isolation: isolate">
          <g id="Grupo_979266" data-name="Grupo 979266">
            <g id="Grupo_979265" data-name="Grupo 979265" clip-path="url(#clip-path-15)">
              <path id="Trazado_712220" data-name="Trazado 712220" d="M226.169,204.289a35.358,35.358,0,0,0,7.874-5.24c16.035-13.943,11.586-27.856,18.562-25.631a3.435,3.435,0,0,1,2,4.862c-5.127,9.823-10.094,16.512-19.575,22.159a36.182,36.182,0,0,1-8.863,3.85" transform="translate(-226.169 -173.183)" fill="#e7e1db"/>
            </g>
          </g>
        </g>
        <g id="Grupo_979270" data-name="Grupo 979270" transform="translate(57.215 62.562)" style="mix-blend-mode: color;isolation: isolate">
          <g id="Grupo_979269" data-name="Grupo 979269">
            <g id="Grupo_979268" data-name="Grupo 979268" clip-path="url(#clip-path-16)">
              <path id="Trazado_712221" data-name="Trazado 712221" d="M128.661,136.942a3.156,3.156,0,1,1-3.156-3.156,3.155,3.155,0,0,1,3.156,3.156" transform="translate(-122.35 -133.786)" fill="#a62f3a"/>
            </g>
          </g>
        </g>
      </g>
    </g>
  </g>
</svg>
