<svg id="Grupo_979839" data-name="Grupo 979839" xmlns="http://www.w3.org/2000/svg" xmlns:xlink="http://www.w3.org/1999/xlink" width="59.349" height="194.456" viewBox="0 0 59.349 194.456">
  <defs>
    <clipPath id="clip-path">
      <rect id="Rectángulo_342776" data-name="Rectángulo 342776" width="59.349" height="194.456" fill="none"/>
    </clipPath>
  </defs>
  <g id="Grupo_979838" data-name="Grupo 979838" clip-path="url(#clip-path)">
    <path id="Trazado_712320" data-name="Trazado 712320" d="M39.01,137.941c2.873-.31,4.645-.5,6.238-2.625.6-2.494-.446-4.572-2.394-7.587-2.32-3.6-5.662-9.033-5.662-9.033l-6.674.035a33.683,33.683,0,0,0-.32,7.671,27.79,27.79,0,0,0,1.027,4.673c.549,1.055,1.308,2.464,1.955,3.505,1.162,1.867,2.377,3.734,5.83,3.361" transform="translate(13.931 54.96)" fill="#ceb5b3"/>
    <path id="Trazado_712321" data-name="Trazado 712321" d="M44.363,132.9a7.585,7.585,0,0,0,.524-1.505c-1.592,2.127-3.364,2.315-6.238,2.626-3.453.373-4.667-1.494-5.829-3.361-.648-1.042-1.406-2.451-1.956-3.507a27.26,27.26,0,0,0,2.9,6.769c1.678,2.462,9.062,2.214,10.6-1.023" transform="translate(14.291 58.878)" fill="#4f3333"/>
    <path id="Trazado_712322" data-name="Trazado 712322" d="M4.686,124.708a8.254,8.254,0,0,0,7.747-4.2,12.4,12.4,0,0,1,2.146-2.519s3.086,1.026,5.04-.187a11.189,11.189,0,0,0,2.6-2.4c0-.2,0-.4-.006-.609a37.3,37.3,0,0,0-.834-6.37L11.9,106.757A14.545,14.545,0,0,1,6.939,114c-3.747,2.708-6.9,4.1-6.939,8.382a3.75,3.75,0,0,0,.038.435,6.58,6.58,0,0,0,4.648,1.887" transform="translate(0 49.432)" fill="#ceb5b3"/>
    <path id="Trazado_712323" data-name="Trazado 712323" d="M9.9,122.075a12.761,12.761,0,0,0,4.853-5.568,7.192,7.192,0,0,0,5.492-.524,3.357,3.357,0,0,0,1.96-3.314,11.183,11.183,0,0,1-2.6,2.4c-1.956,1.213-5.04.186-5.04.186a12.457,12.457,0,0,0-2.146,2.519,8.255,8.255,0,0,1-7.747,4.2,6.58,6.58,0,0,1-4.648-1.887c.4,3.852,6.509,4.038,9.871,1.99" transform="translate(0.012 52.169)" fill="#4f3333"/>
    <path id="Trazado_712324" data-name="Trazado 712324" d="M34.364,31.08a10.849,10.849,0,0,1-4.865,2.9c-2.184.591-6.859,7.78-8.331,5.674-.629-.9-1.108-6.212-1.343-7.284.639-.291,2.067-3.928,2.167-4.472.171-.95,1.144-1.829.977-2.781-.231-1.326-.519-2.691-.653-4.053C24.262,20,26,18.558,28.241,18.032c1.227-.288,2.93-3.737,4.08-4.366-.777,2.952.192,7.159.535,8.872a10.44,10.44,0,0,0,2.094,4.832c-.49.148-.064,3.219-.587,3.71" transform="translate(9.18 6.328)" fill="#ffb9a4"/>
    <path id="Trazado_712325" data-name="Trazado 712325" d="M12.048,59.957c1.965-3.858,5.536-5.858,6.723-10.092,1.238-4.411-.138-9.181-1.424-13.423a.739.739,0,0,1,.705-.925c7.918-.312,14.967,2.876,22.5,4.8a.247.247,0,0,1,.113.078c.139-.1.266-.219.41-.313.217-.143.538.152.372.372-2.118,2.791-3.917,5.526-4.415,8.973.142,4.746,7.5,14.648,7.988,16.854C41.661,70.009,32.171,72.806,24,70.009c-5.8-1.519-11.959-5.9-11.95-10.052" transform="translate(5.579 16.436)" fill="#fff"/>
    <path id="Trazado_712326" data-name="Trazado 712326" d="M9.57,35.672c1.286-2.783,4.211-10.014,6.965-13.909,2.967-4.195,10.529-2.99,10.529-2.99L22.844,37.257a105.239,105.239,0,0,0-8.314,9.5A36.861,36.861,0,0,1,9.57,35.672" transform="translate(4.431 8.618)" fill="#ff9d27"/>
    <path id="Trazado_712327" data-name="Trazado 712327" d="M17.157,53.924c1.356-5.334-1.914-13.145-2.178-15.12-.544-4.085,2.158-7.422,3.318-9.6a48.717,48.717,0,0,1,6.262-8.679c.092-.1,1.7.473,3.128.673-1.062,1.394-2.543,4.426-2.041,5.976.822,2.537,3.327,3.416,7.112,3.577,6.1.262,8.677-5.653,8.677-5.653s-.474-.325-1.227-.8c.038-.032.079-.073.114-.1,1.6,1.545,5.2,3.217,7.143,4.385a4.116,4.116,0,0,1,1.406,2.688c-.124,1.7-.688,10.755-2.65,13.931-1.631,2.025-4.958,5.039-5.9,8.829-1.222,4.92,4.537,13.308,7.908,19.6-3.286,2.623-10,7.976-16.908,7.976-2.331,0-22.153-9.4-23.094-10.36,2.3-4.372,6.968-9.611,8.93-17.328" transform="translate(3.809 9.497)" fill="#feb51c"/>
    <path id="Trazado_712328" data-name="Trazado 712328" d="M27.277,30.636c-3.786-.162-6.291-1.042-7.112-3.577-.5-1.551.979-4.582,2.041-5.978.894.126,1.721.105,2.061-.325,0,1.229-4.076,5.845-.105,7.353,6.154,2.339,9.344-2.892,10.565-3.925.752.473,1.227.8,1.227.8s-2.576,5.914-8.677,5.653" transform="translate(9.29 9.611)" fill="#ff9d27"/>
    <path id="Trazado_712329" data-name="Trazado 712329" d="M42.682,26.918A63.453,63.453,0,0,0,36.55,35.1a36.662,36.662,0,0,0-3.728,8.2,87.69,87.69,0,0,0-2.5,12.706s-14-1.772-15.821-5.372-2.42-11.562-2.42-11.562a50.044,50.044,0,0,1,6.341-13.264,39.576,39.576,0,0,1,4.357-5.292l2.3.983a38.829,38.829,0,0,0-3.255,3.444,30.817,30.817,0,0,0-3.753,5.943l13.635,5.978s3.434-5.047,5.726-7.627a40.883,40.883,0,0,0,3.018-3.666Z" transform="translate(5.593 9.501)" fill="#ead9d6"/>
    <path id="Trazado_712330" data-name="Trazado 712330" d="M46.69,53.443a52.532,52.532,0,0,1,4.48,9.922A46.409,46.409,0,0,1,51.917,82.1a175.277,175.277,0,0,1-4.135,17.423,4.292,4.292,0,0,1,.9,5.35c1.182,3.112.508,5.873,1.747,11.274s1.851,18.842,1.918,22.949a9.1,9.1,0,0,1-1.918,6.2s2.091,2.513.12,4.8c-3.087,3.582-5.3,4.642-8.338,2.442s-2.019-4.79-2.019-4.79-3.457-1.432-5.2-12.829c-.93-6.091-.911-15-1.147-17.071s.08-9.682.08-9.682a16.839,16.839,0,0,1-2.629-5.656c-.351-1.542-3.088-21.662-3.088-21.662s-1.943,10.26-2.729,12.5-2.559,6.3-2.559,6.3a21.411,21.411,0,0,1,.748,9.581c-.416,2.945-1.456,6.636-1.833,8.837-.639,3.734.83,5.356,0,7.555a2.878,2.878,0,0,1-2.654,2.015,9.564,9.564,0,0,1,2.015,3.745c.338,1.848-1,3.192-3.931,4.73s-9.068.139-10.041-3.858-.846-17.732-.876-25.015c-.022-4.951-.614-17.953.061-19.647s.437-22.283,5.93-30.446C16,51.7,32.352,50.637,40.209,55c3.245,1.8,6.481-1.557,6.481-1.557" transform="translate(2.818 24.216)" fill="#ead9d6"/>
    <path id="Trazado_712331" data-name="Trazado 712331" d="M43.21,54.817s-4.516,2.9-7.624,3.615c-7.678,1.77-14.232,1.387-18.1-1.009s-.988-3.571-.988-3.571,9.065,2.952,12.84,2.767A27.422,27.422,0,0,0,42.157,52.69Z" transform="translate(7.163 24.397)" fill="#ddc6c3"/>
    <path id="Trazado_712332" data-name="Trazado 712332" d="M16.332,15.046c.124-2.964.765-6.688,3.045-8.8,2.252-2.091,6.121-2.3,9.046-2.092,4.534.317,7.725,5.331,6.922,11.129-.74,5.356-4.317,13.609-10.288,14.727-6.644,1.245-8.913-10.453-8.724-14.961" transform="translate(7.557 1.893)" fill="#ffc9b6"/>
    <path id="Trazado_712333" data-name="Trazado 712333" d="M27.125,1c10.2.811,14.43,12.4,12.6,17.47-1.1,3.042-3.978,6.137-5.688,7.734,0-3.748-3.184-10.715-5.292-11.981-2.691-1.618-8.958-2.288-11.788-1.249C12.466,7.341,21.266.535,27.125,1" transform="translate(7.281 0.453)" fill="#4f3333"/>
    <path id="Trazado_712334" data-name="Trazado 712334" d="M25.563,13.553s1.925-3.113,3.327-1.187.086,5.864-1.663,5.776-1.663-4.59-1.663-4.59" transform="translate(11.836 5.435)" fill="#ffc9b6"/>
    <path id="Trazado_712335" data-name="Trazado 712335" d="M38.209,23.02a23.008,23.008,0,0,0-10.033-7.189,36.964,36.964,0,0,0-10.781-2s-3.785-2.022-1.425-6.727S22.608-1.633,30.362.665,40.39,5.177,42.036,13.029s-3.827,9.991-3.827,9.991" transform="translate(7.036 0)" fill="#efe1df"/>
    <path id="Trazado_712336" data-name="Trazado 712336" d="M37.755,18.995s-2.417-4.4-5.507-6.617c-3.687-2.641-12.18-4.892-15.859-2.954-.531.279.094,2.25.094,2.25.933-.047,4.285-.976,11.239,1.6,3.45,1.277,8.652,6.671,8.652,6.671a4.243,4.243,0,0,0,1.381-.948" transform="translate(7.489 4.026)" fill="#ddc6c3"/>
    <path id="Trazado_712337" data-name="Trazado 712337" d="M19.713,3.811a18.366,18.366,0,0,1-.6,3.049,23.555,23.555,0,0,1-1.058,2.364,5.906,5.906,0,0,1,.063-2.676,6.949,6.949,0,0,1,1.595-2.737" transform="translate(8.304 1.765)" fill="#ddc6c3"/>
    <path id="Trazado_712338" data-name="Trazado 712338" d="M25.851,6.023a8.288,8.288,0,0,1,0,2.178,3.951,3.951,0,0,1-.831,2.116,9.236,9.236,0,0,1,0-2.391,4.607,4.607,0,0,1,.831-1.9" transform="translate(11.547 2.789)" fill="#ddc6c3"/>
    <path id="Trazado_712339" data-name="Trazado 712339" d="M29.795,7.511a4.538,4.538,0,0,1-1.431,2.364,4.887,4.887,0,0,1-2.054.689s.5-.464,1.245-1.323a10.964,10.964,0,0,1,2.24-1.731" transform="translate(12.182 3.478)" fill="#ddc6c3"/>
    <path id="Trazado_712340" data-name="Trazado 712340" d="M32.611,10.574a7.075,7.075,0,0,1,0,2.875c-.17.553-1.5,1.65-1.5,1.65a24.48,24.48,0,0,1,.623-2.745,9.449,9.449,0,0,1,.872-1.781" transform="translate(14.408 4.896)" fill="#ddc6c3"/>
    <path id="Trazado_712341" data-name="Trazado 712341" d="M3.792,29.465A3.823,3.823,0,0,1,6.5,28.208a1.551,1.551,0,0,1,1.625,1.159,2.078,2.078,0,0,1-1.867,2.17c-1.091-.145-2.5-1.4-2.465-2.072" transform="translate(1.756 13.061)" fill="#feb51c"/>
    <path id="Trazado_712342" data-name="Trazado 712342" d="M5.984,29.856C5.941,29.789,8.871,31,9.6,32.219c.47.787.746,2.255-.255,2.783a2.991,2.991,0,0,1-3.011-.465,1.475,1.475,0,0,1-.269-.429c-.945.178-2.029.026-2.023-1.309a3.837,3.837,0,0,1,1.941-2.942" transform="translate(1.872 13.823)" fill="#ff6485"/>
    <path id="Trazado_712343" data-name="Trazado 712343" d="M4.9,32.005a5.341,5.341,0,0,1,.2-3.213,5.4,5.4,0,0,1,5.116-3.027c4.607.214,5.839,3.912,6.477,5.491.094.231.2.483.307.749.158,3.083,1.972,8.085,2.184,9.751A5.88,5.88,0,0,1,24.962,46.2,7.4,7.4,0,0,1,31.045,49.2c1.14,1.691,1.273,2.626,1.881,5.938a13.818,13.818,0,0,1,5.747-.793,5.987,5.987,0,0,1,1.494,1.094,3.5,3.5,0,0,1-1.1,2.609,2.9,2.9,0,0,1-1.587.8,1.718,1.718,0,0,1-1.249-.36c.247-.367.512-1.23.171-1.306-1.023,1.819-3.864,2.161-5.064.7-.089,1.88-3.612,4.949-5.235,2.666-.424.92-1.735,2.246-3.125,2.053a4.559,4.559,0,0,0,.35-2.546,5.186,5.186,0,0,0-6.178-4.121,4.385,4.385,0,0,1,3.067,4.007c.1,2.23-1.222,3.189-3.087,2.475.183-.578-.59-1.706-1.222-1.5.8,1.053-.237,2.173-1.206,2.534a3.515,3.515,0,0,1-2.266-.007,4.528,4.528,0,0,1-2.99-2.7C7.683,60.1,6.792,58.6,6.509,56.574a7.81,7.81,0,0,1,.568-4.544c-.53.152-.832.417-1.4,1.327-1.735-3.5.1-7.22,2.3-10.159-1.23-.525-1.589-4.117-1.538-6.626a12.723,12.723,0,0,1,.329-2.6A5.056,5.056,0,0,1,4.9,32.005" transform="translate(2.197 11.928)" fill="#ead9d6"/>
    <path id="Trazado_712344" data-name="Trazado 712344" d="M29.049,53.168c-.61-3.312-.742-4.247-1.881-5.941a7.406,7.406,0,0,0-6.083-3A5.882,5.882,0,0,0,15.3,39.78c-.212-1.665-2.026-6.667-2.184-9.75h0c.745,1.791,1.813,4.224,2.478,5.77.335.777.692,1.58,1.027,2.4,2.445-.1,5.3,2.111,6.29,4.446a9.774,9.774,0,0,1,5.068,3.785,7.849,7.849,0,0,1,1.857,5.178c1.931.351,3.374-.028,4.958.77a13.8,13.8,0,0,0-5.747.793" transform="translate(6.074 13.904)" fill="#f4e8e6"/>
    <path id="Trazado_712345" data-name="Trazado 712345" d="M37.4,59.009a4.9,4.9,0,0,1-3.982,2.221c.119-.751.022-1.328-.436-1.624a5.729,5.729,0,0,1-1.416,2.939,4.536,4.536,0,0,1-2.825,1.563,1.2,1.2,0,0,0-.105-1.538,3.655,3.655,0,0,1-2.361,2.294,1.2,1.2,0,0,0-.255-1.448A5.867,5.867,0,0,1,22.455,64.8a3.246,3.246,0,0,0,.467-.871c.268-.784.108-2.775-.762-3.374a3.362,3.362,0,0,1-.821,2.53,5.528,5.528,0,0,1-1.4.818c-.023-.252-.111-.727-.6-.8a3.606,3.606,0,0,1-4.922,1.814c-1.794.758-3.208.227-4.56-1.227a4.873,4.873,0,0,1-1.336-3.166c-.342-.178-.385.307-.445.522-1.617-.149-2.6-1.766-2.989-3.2a5.351,5.351,0,0,1,.423-3.51c-.287-.1-.685.332-.818.554a6.425,6.425,0,0,1-.439-4.149c.006-.038-.048-.044-.066-.018a5.181,5.181,0,0,0-.663,1.445,17.493,17.493,0,0,1,.623-8.819,11.059,11.059,0,0,1,1.611-2.168c-.317-2.05.483-7.459,1.545-8.8a2.931,2.931,0,0,1-1.7-2.358,5.066,5.066,0,0,0,1.865,1.962,12.9,12.9,0,0,0-.328,2.6c-.051,2.509.307,6.1,1.536,6.626C6.485,44.16,4.649,47.887,6.385,51.38c.568-.91.871-1.175,1.4-1.326A7.8,7.8,0,0,0,7.218,54.6c.285,2.028,1.175,3.527,2.938,4.167a4.528,4.528,0,0,0,2.99,2.7,3.51,3.51,0,0,0,2.268,0c.969-.36,2.007-1.479,1.2-2.531.632-.208,1.4.922,1.222,1.5,1.865.717,3.185-.246,3.088-2.473a4.391,4.391,0,0,0-3.067-4.01,5.188,5.188,0,0,1,6.177,4.123,4.571,4.571,0,0,1-.348,2.546c1.388.193,2.7-1.132,3.124-2.051,1.623,2.282,5.145-.786,5.235-2.669,1.2,1.466,4.041,1.125,5.065-.693.341.075.075.936-.173,1.3a1.723,1.723,0,0,0,1.251.361,2.9,2.9,0,0,0,1.587-.794,3.518,3.518,0,0,0,1.1-2.61c.132.129.265.263.4.413,1.148,1.264.394,3.173-.947,4.373a5.433,5.433,0,0,1-2.929.755" transform="translate(1.486 13.904)" fill="#ddc6c3"/>
    <path id="Trazado_712346" data-name="Trazado 712346" d="M34.664,60.08c-1.005.9-2.628,3.731-7.881,4.336-2.152,1.86-6.917,2.341-10.487.726-6.835.979-12.4-7.16-12.99-11.561a7.946,7.946,0,0,1,.1-2.74,15.182,15.182,0,0,1,.98-11.706,17.509,17.509,0,0,0-.623,8.819,5.219,5.219,0,0,1,.663-1.445c.018-.026.072-.019.067.018a6.422,6.422,0,0,0,.437,4.149c.135-.222.531-.655.818-.554a5.365,5.365,0,0,0-.423,3.511c.386,1.435,1.372,3.05,2.989,3.2.06-.215.1-.7.446-.521A4.86,4.86,0,0,0,10.1,59.476c1.352,1.456,2.767,1.987,4.56,1.229a3.606,3.606,0,0,0,4.922-1.816c.484.072.574.549.6.8a5.513,5.513,0,0,0,1.4-.816,3.358,3.358,0,0,0,.821-2.53c.871.6,1.03,2.59.762,3.374a3.246,3.246,0,0,1-.467.871A5.875,5.875,0,0,0,26.264,59.2a1.2,1.2,0,0,1,.255,1.448,3.655,3.655,0,0,0,2.361-2.294,1.2,1.2,0,0,1,.105,1.538A4.536,4.536,0,0,0,31.81,58.33a5.74,5.74,0,0,0,1.416-2.941c.458.3.554.873.436,1.625a4.907,4.907,0,0,0,3.982-2.221,5.429,5.429,0,0,0,2.929-.756,4.619,4.619,0,0,1-1.514.923c.108.629-.557,2.475-4.395,5.119" transform="translate(1.244 18.121)" fill="#ceb5b3"/>
    <path id="Trazado_712347" data-name="Trazado 712347" d="M6.6,24.817a1.038,1.038,0,0,1,1.543.5,2.01,2.01,0,0,1,2.216-1.021,1.331,1.331,0,0,1,.894,1.17,1.449,1.449,0,0,1,1.925,1.463,1.857,1.857,0,0,1,.679,2.013.321.321,0,0,1-.47.193,8.023,8.023,0,0,0-7.5-.925A2.363,2.363,0,0,1,6.6,24.817" transform="translate(2.52 11.21)" fill="#ff6485"/>
    <path id="Trazado_712348" data-name="Trazado 712348" d="M12.444,43.8A2.778,2.778,0,0,1,13.57,45.55a4.867,4.867,0,0,1,2.99,3.385c.022.18-.217.189-.3.082A11.407,11.407,0,0,0,14.314,46.6a11.124,11.124,0,0,0-2.581-1.266c-.069-.028-.023-.117.032-.123a3.372,3.372,0,0,1,1.251.139,2.631,2.631,0,0,0-.155-.392,3.082,3.082,0,0,0-.666-.834,2.887,2.887,0,0,0-1.029-.6A3.328,3.328,0,0,1,10.4,43.3a.015.015,0,0,1,0-.025c.562-.358,1.582.178,2.044.524" transform="translate(4.813 19.985)" fill="#ddc6c3"/>
    <path id="Trazado_712349" data-name="Trazado 712349" d="M11.026,49.185c.462.252,1.14.576,1.665.288.48-.262.2-.881.433-1.267a.084.084,0,0,1,.13-.016,1,1,0,0,1,.241.8,1.734,1.734,0,0,0,.764-.36.762.762,0,0,0,.022-.986c-.067-.073,0-.215.1-.178A.872.872,0,0,1,14.8,48.73a1.325,1.325,0,0,1-1.378.666,1.027,1.027,0,0,1-.566.607c-.66.288-1.8.111-2.007-.682a.122.122,0,0,1,.177-.136" transform="translate(5.022 21.975)" fill="#ddc6c3"/>
    <path id="Trazado_712350" data-name="Trazado 712350" d="M8.181,46.763c.271.415.571.847,1.122.859.483.01.786-.315,1.159-.557a.038.038,0,0,1,.057.034c.038.663-.784,1.052-1.35,1.017a1.339,1.339,0,0,1-1.287-1.27.162.162,0,0,1,.3-.082" transform="translate(3.649 21.617)" fill="#ddc6c3"/>
    <path id="Trazado_712351" data-name="Trazado 712351" d="M7.638,45.073c.418.107.623.569,1.1.619a.988.988,0,0,0,.541-.1.7.7,0,0,0,.094-.063A1.776,1.776,0,0,1,9,44.652c-.006-.078.091-.1.14-.059.3.247,1.445,1.909,1.7.876a.124.124,0,0,1,.151-.086.409.409,0,0,1,.192.559.671.671,0,0,1-.736.38,1.612,1.612,0,0,1-.818-.489,1.4,1.4,0,0,1-.843.335c-.483,0-1.34-.414-1.287-.99a.11.11,0,0,1,.138-.105" transform="translate(3.472 20.639)" fill="#ddc6c3"/>
    <path id="Trazado_712352" data-name="Trazado 712352" d="M17.984,46.353a3.323,3.323,0,0,0,1.606.334,1.536,1.536,0,0,0,1.077-1.033.085.085,0,0,1,.162,0,.953.953,0,0,1-.041.777,1.093,1.093,0,0,0,.152.045,1,1,0,0,0,.635-.076c.208-.1.844-.509.653-.821a.1.1,0,0,1,.117-.152c.689.181.056,1.012-.241,1.239a1.589,1.589,0,0,1-1.021.363.934.934,0,0,1-.569-.222,1.672,1.672,0,0,1-.553.363,2.071,2.071,0,0,1-2.17-.487.2.2,0,0,1,.193-.329" transform="translate(8.213 21.033)" fill="#ddc6c3"/>
    <path id="Trazado_712353" data-name="Trazado 712353" d="M15.132,42.925a9.308,9.308,0,0,0,1.557.509,2.857,2.857,0,0,0,1.226-.341c.057-.02.1.041.089.091a.716.716,0,0,1-.252.427,1.276,1.276,0,0,0,.556.148c.221,0,1.027-.184.961-.538a.046.046,0,0,1,.044-.057c.186-.01.253.2.217.356a1.123,1.123,0,0,1-.683.644,1.486,1.486,0,0,1-1.595-.3,1.832,1.832,0,0,1-.405.067,2.791,2.791,0,0,1-1.895-.7.186.186,0,0,1,.18-.309" transform="translate(6.897 19.873)" fill="#ddc6c3"/>
    <path id="Trazado_712354" data-name="Trazado 712354" d="M21.342,43.837c.326-.088.667-.126.854-.448a.963.963,0,0,0-.155-1.061c-.037-.042,0-.133.061-.107a1,1,0,0,1,.547,1.293c-.183.481-.859.9-1.343.585a.146.146,0,0,1,.035-.263" transform="translate(9.834 19.548)" fill="#ddc6c3"/>
    <path id="Trazado_712355" data-name="Trazado 712355" d="M19.012,42.87c.31-.152.7-.126.969-.375a.617.617,0,0,0,.044-.873.105.105,0,0,1,.1-.174.824.824,0,0,1,.4,1.173,1.257,1.257,0,0,1-1.51.563.183.183,0,0,1,0-.315" transform="translate(8.762 19.189)" fill="#ddc6c3"/>
    <path id="Trazado_712356" data-name="Trazado 712356" d="M12.283,40.97a4.775,4.775,0,0,0,1.144.593,1.2,1.2,0,0,0,1.093-.388.1.1,0,0,1,.162.094c-.214,1.324-2.146.7-2.626-.072-.094-.152.086-.293.227-.227" transform="translate(5.57 18.963)" fill="#ddc6c3"/>
    <path id="Trazado_712357" data-name="Trazado 712357" d="M8.145,41.556c.335.092.531.31.914.272a3.783,3.783,0,0,0,.853-.338.061.061,0,0,1,.075.056c.124.938-1.88,1.113-2.085.252a.2.2,0,0,1,.243-.241" transform="translate(3.656 19.21)" fill="#ddc6c3"/>
    <path id="Trazado_712358" data-name="Trazado 712358" d="M7.516,39.653a.142.142,0,0,1,.237.063c.059.3.031.607.3.811.209.155.5.11.685.3a.122.122,0,0,1,.018.14c-.35.79-2.006-.527-1.242-1.317" transform="translate(3.388 18.342)" fill="#ddc6c3"/>
    <path id="Trazado_712359" data-name="Trazado 712359" d="M10.846,38.372a1.92,1.92,0,0,0,.982-.217,1.519,1.519,0,0,0,.559-.881.141.141,0,0,1,.269,0,1.248,1.248,0,0,1-1.9,1.327c-.1-.079-.013-.225.1-.23" transform="translate(4.959 17.213)" fill="#ddc6c3"/>
    <path id="Trazado_712360" data-name="Trazado 712360" d="M7.778,34.826a.046.046,0,0,1,.082.01,1.83,1.83,0,0,0,.727,1,1.119,1.119,0,0,0,.6.262c.2,0,.281-.158.461-.183a.151.151,0,0,1,.161.066c.146.231-.061.461-.278.552a.753.753,0,0,1-.312.053.988.988,0,0,0,.347.279,1.46,1.46,0,0,0,.974.07.074.074,0,0,1,.072.123,1.091,1.091,0,0,1-1.225.233c-.351-.133-.78-.478-.751-.888-.026-.015-.053-.026-.078-.042-.413-.266-1.2-.992-.786-1.536" transform="translate(3.548 16.116)" fill="#ddc6c3"/>
    <path id="Trazado_712361" data-name="Trazado 712361" d="M15.3,39.609c.285.138.471.417.768.544a1.183,1.183,0,0,0,.815-.026.088.088,0,0,1,.108.107c-.078.354-.553.445-.857.4a1.529,1.529,0,0,1-1.077-.783.179.179,0,0,1,.243-.243" transform="translate(6.962 18.33)" fill="#ddc6c3"/>
    <path id="Trazado_712362" data-name="Trazado 712362" d="M8.41,33.382c.3,0,.581.123.887.111a2.752,2.752,0,0,0,.9-.285c.1-.035.155.082.121.157-.291.639-1.659.851-1.984.149a.089.089,0,0,1,.076-.132" transform="translate(3.855 15.373)" fill="#ddc6c3"/>
    <path id="Trazado_712363" data-name="Trazado 712363" d="M38.282,25.588s7.246,1.166,8.331,7.69-2.806,11.369-4.481,17.33-3.687,10.1-6.2,13.1-8.326,3.628-9.295,1.173-2.07-10.824.863-16.816S33.188,31.75,38.282,25.588" transform="translate(11.856 11.848)" fill="#ff9d27"/>
    <path id="Trazado_712364" data-name="Trazado 712364" d="M35.631,55.455s3.789-1.381,2.35-4.788S31.672,42.291,27.2,43.654s8.431,11.8,8.431,11.8" transform="translate(12.158 20.106)" fill="#efe1df"/>
    <path id="Trazado_712365" data-name="Trazado 712365" d="M23.743,40.066s6.168,7.813,8.929,10.342,8.2,3.682,9.954,7.627.7,6.451-2.174,8.513c-3.931,2.825-7.144,1.985-11.132-1.037S20.742,45.32,19.086,42.766c-3.523-1.9-7.258-6.357-8.013-9.135S9.39,26.681,12.7,27.652C17.264,29,20.714,33.923,23.743,40.066" transform="translate(4.792 12.737)" fill="#fff"/>
    <path id="Trazado_712366" data-name="Trazado 712366" d="M21.94,55.408c2.71-1.175,4.266.031,3.778,1.794-.272.983-1.75,2.559-6.752,3.766C10.521,63,7.88,57.264,7.88,57.264s2.663.714,3.627-.481c.91-1.128,3.416-2.462,4.486-3.309.808-.641,2.361-.531,1.7.568a28.205,28.205,0,0,1-2.24,2.828,16.644,16.644,0,0,0,6.483-1.462" transform="translate(3.649 24.578)" fill="#efe1df"/>
    <path id="Trazado_712367" data-name="Trazado 712367" d="M34.76,84.976a6.329,6.329,0,0,0-2.707-.654c-1.494,0-2.8.56-2.521.654a6.538,6.538,0,0,0,2.6.746,6.719,6.719,0,0,0,2.632-.746" transform="translate(13.657 39.044)" fill="#ddc6c3"/>
    <path id="Trazado_712368" data-name="Trazado 712368" d="M35.361,88.979s-.279,2.054-1.587,2.8a6.26,6.26,0,0,1-2.146.84s1.944-3.456,3.734-3.64" transform="translate(14.644 41.2)" fill="#ddc6c3"/>
    <path id="Trazado_712369" data-name="Trazado 712369" d="M36.868,116.25c.373.094-.84,1.306-1.773,1.68s-2.894-.373-2.894-.373,2.588-1.827,4.667-1.306" transform="translate(14.91 53.784)" fill="#ddc6c3"/>
    <path id="Trazado_712370" data-name="Trazado 712370" d="M30.356,117.687s2.793.746,4.007,1.027,2.707.449,2.707.449a5.906,5.906,0,0,1-4.015.345,7.131,7.131,0,0,1-2.7-1.821" transform="translate(14.056 54.493)" fill="#ddc6c3"/>
    <path id="Trazado_712371" data-name="Trazado 712371" d="M16.518,104.29a7.332,7.332,0,0,1-2.613,2.334,5.822,5.822,0,0,1-3.267,0,19.2,19.2,0,0,0,2.941-1.042c1.352-.638,2.939-1.292,2.939-1.292" transform="translate(4.926 48.29)" fill="#ddc6c3"/>
    <path id="Trazado_712372" data-name="Trazado 712372" d="M17.451,103.369a6.853,6.853,0,0,1-3.873,0,14.806,14.806,0,0,1-2.941-1.4,11.459,11.459,0,0,1,3.406,0,8.381,8.381,0,0,1,3.407,1.4" transform="translate(4.926 47.158)" fill="#ddc6c3"/>
    <path id="Trazado_712373" data-name="Trazado 712373" d="M18.24,85.038a9.393,9.393,0,0,0-2.8-2.054,3.8,3.8,0,0,0-2.474,0A3.905,3.905,0,0,0,15.6,85.038a9.525,9.525,0,0,0,2.636,0" transform="translate(6.004 38.328)" fill="#ddc6c3"/>
  </g>
</svg>
