<svg xmlns="http://www.w3.org/2000/svg" width="482.656" height="127.365" viewBox="0 0 482.656 127.365">
  <path id="Trazado_716633" data-name="Trazado 716633" d="M3.535,17.467h6.738V19H1.65V4.781H3.535ZM18.652,19a3.8,3.8,0,0,1-.254-1.113A4.031,4.031,0,0,1,15.391,19.2a3.73,3.73,0,0,1-2.563-.884,2.859,2.859,0,0,1-1-2.241,2.987,2.987,0,0,1,1.255-2.563,5.916,5.916,0,0,1,3.53-.913h1.758v-.83a2.029,2.029,0,0,0-.566-1.509,2.276,2.276,0,0,0-1.67-.562,2.634,2.634,0,0,0-1.621.488,1.439,1.439,0,0,0-.654,1.182H12.041A2.493,2.493,0,0,1,12.6,9.835a3.832,3.832,0,0,1,1.523-1.167,5.125,5.125,0,0,1,2.114-.43,4.177,4.177,0,0,1,2.861.913,3.294,3.294,0,0,1,1.074,2.515v4.863a5.946,5.946,0,0,0,.371,2.314V19Zm-3-1.377a3.175,3.175,0,0,0,1.611-.439,2.658,2.658,0,0,0,1.1-1.143V13.873H16.953q-3.32,0-3.32,1.943a1.645,1.645,0,0,0,.566,1.328A2.177,2.177,0,0,0,15.654,17.623ZM34.111,16.2a1.33,1.33,0,0,0-.552-1.138,5.311,5.311,0,0,0-1.924-.7,9.1,9.1,0,0,1-2.178-.7,3.1,3.1,0,0,1-1.191-.977,2.336,2.336,0,0,1-.386-1.348,2.741,2.741,0,0,1,1.1-2.2,4.291,4.291,0,0,1,2.808-.9,4.415,4.415,0,0,1,2.915.928,2.947,2.947,0,0,1,1.118,2.373H34a1.631,1.631,0,0,0-.63-1.279,2.36,2.36,0,0,0-1.587-.537,2.47,2.47,0,0,0-1.543.43,1.353,1.353,0,0,0-.557,1.123,1.1,1.1,0,0,0,.518.986,6.368,6.368,0,0,0,1.87.635,9.744,9.744,0,0,1,2.192.723,3.2,3.2,0,0,1,1.245,1.011,2.485,2.485,0,0,1,.405,1.44,2.7,2.7,0,0,1-1.133,2.271,4.752,4.752,0,0,1-2.939.854,5.321,5.321,0,0,1-2.246-.449,3.653,3.653,0,0,1-1.528-1.255,3.025,3.025,0,0,1-.552-1.743h1.807a1.87,1.87,0,0,0,.728,1.44,2.822,2.822,0,0,0,1.792.532,2.913,2.913,0,0,0,1.646-.415A1.275,1.275,0,0,0,34.111,16.2Zm8.545,3a4.617,4.617,0,0,1-3.5-1.411,5.237,5.237,0,0,1-1.348-3.774v-.332a6.341,6.341,0,0,1,.6-2.808,4.685,4.685,0,0,1,1.68-1.934,4.223,4.223,0,0,1,2.339-.7,3.957,3.957,0,0,1,3.2,1.357,5.877,5.877,0,0,1,1.143,3.887v.752H39.619a3.756,3.756,0,0,0,.913,2.524,2.87,2.87,0,0,0,2.222.962,3.147,3.147,0,0,0,1.621-.391,4.073,4.073,0,0,0,1.162-1.035l1.1.859A4.437,4.437,0,0,1,42.656,19.2Zm-.225-9.473a2.41,2.41,0,0,0-1.836.8,3.868,3.868,0,0,0-.918,2.231h5.293v-.137a3.441,3.441,0,0,0-.742-2.134A2.269,2.269,0,0,0,42.432,9.723Zm6.006,3.906A6.21,6.21,0,0,1,49.58,9.7a3.939,3.939,0,0,1,6.045-.093l.088-1.172h1.65V18.746a4.3,4.3,0,0,1-1.216,3.232,4.487,4.487,0,0,1-3.267,1.182,5.435,5.435,0,0,1-2.236-.488,3.85,3.85,0,0,1-1.67-1.338l.938-1.084a3.533,3.533,0,0,0,2.842,1.436,2.768,2.768,0,0,0,2.056-.742,2.837,2.837,0,0,0,.737-2.09v-.908a3.713,3.713,0,0,1-2.959,1.25,3.609,3.609,0,0,1-3-1.494A6.529,6.529,0,0,1,48.438,13.629Zm1.816.205a4.738,4.738,0,0,0,.732,2.808,2.38,2.38,0,0,0,2.051,1.021,2.646,2.646,0,0,0,2.51-1.553V11.285a2.677,2.677,0,0,0-2.49-1.514A2.4,2.4,0,0,0,51,10.8,5.16,5.16,0,0,0,50.254,13.834Zm16.357,4.121a3.837,3.837,0,0,1-3.1,1.24,3.285,3.285,0,0,1-2.573-.981,4.248,4.248,0,0,1-.894-2.905V8.434h1.807V15.26q0,2.4,1.953,2.4a2.7,2.7,0,0,0,2.754-1.543V8.434h1.807V19H66.65Zm9.609-7.9a5.414,5.414,0,0,0-.889-.068A2.381,2.381,0,0,0,72.92,11.5V19H71.113V8.434h1.758L72.9,9.654a2.813,2.813,0,0,1,2.52-1.416,1.846,1.846,0,0,1,.8.137ZM79.844,19H78.037V8.434h1.807ZM77.891,5.631a1.078,1.078,0,0,1,.269-.742,1.008,1.008,0,0,1,.8-.3,1.024,1.024,0,0,1,.8.3,1.067,1.067,0,0,1,.273.742,1.032,1.032,0,0,1-.273.732,1.043,1.043,0,0,1-.8.293,1.026,1.026,0,0,1-.8-.293A1.043,1.043,0,0,1,77.891,5.631Zm4.4,8a6.19,6.19,0,0,1,1.152-3.911,3.921,3.921,0,0,1,5.957-.21V4h1.807V19h-1.66l-.088-1.133A3.679,3.679,0,0,1,86.445,19.2a3.609,3.609,0,0,1-2.993-1.5,6.26,6.26,0,0,1-1.157-3.926Zm1.807.205a4.687,4.687,0,0,0,.742,2.813,2.4,2.4,0,0,0,2.051,1.016,2.636,2.636,0,0,0,2.51-1.543V11.266a2.656,2.656,0,0,0-2.49-1.494,2.411,2.411,0,0,0-2.07,1.025A5.16,5.16,0,0,0,84.1,13.834ZM100.537,19a3.8,3.8,0,0,1-.254-1.113A4.031,4.031,0,0,1,97.275,19.2a3.73,3.73,0,0,1-2.563-.884,2.859,2.859,0,0,1-1-2.241,2.987,2.987,0,0,1,1.255-2.563,5.916,5.916,0,0,1,3.53-.913h1.758v-.83a2.029,2.029,0,0,0-.566-1.509,2.276,2.276,0,0,0-1.67-.562,2.634,2.634,0,0,0-1.621.488,1.439,1.439,0,0,0-.654,1.182H93.926a2.493,2.493,0,0,1,.562-1.528,3.832,3.832,0,0,1,1.523-1.167,5.125,5.125,0,0,1,2.114-.43,4.177,4.177,0,0,1,2.861.913,3.294,3.294,0,0,1,1.074,2.515v4.863a5.946,5.946,0,0,0,.371,2.314V19Zm-3-1.377a3.175,3.175,0,0,0,1.611-.439,2.658,2.658,0,0,0,1.1-1.143V13.873H98.838q-3.32,0-3.32,1.943a1.645,1.645,0,0,0,.566,1.328A2.177,2.177,0,0,0,97.539,17.623Zm6.914-3.994a6.19,6.19,0,0,1,1.152-3.911,3.921,3.921,0,0,1,5.957-.21V4h1.807V19h-1.66l-.088-1.133A3.679,3.679,0,0,1,108.6,19.2a3.609,3.609,0,0,1-2.993-1.5,6.26,6.26,0,0,1-1.157-3.926Zm1.807.205A4.687,4.687,0,0,0,107,16.646a2.4,2.4,0,0,0,2.051,1.016,2.636,2.636,0,0,0,2.51-1.543V11.266a2.656,2.656,0,0,0-2.49-1.494A2.411,2.411,0,0,0,107,10.8,5.16,5.16,0,0,0,106.26,13.834Zm18.32,2.52,2.461-7.92h1.934l-4.248,12.2q-.986,2.637-3.135,2.637l-.342-.029-.674-.127V21.646l.488.039a2.4,2.4,0,0,0,1.431-.371,2.686,2.686,0,0,0,.845-1.357l.4-1.074-3.77-10.449h1.973ZM137.5,19h-1.807V4H137.5Zm9.414,0a3.8,3.8,0,0,1-.254-1.113,4.031,4.031,0,0,1-3.008,1.309,3.73,3.73,0,0,1-2.563-.884,2.859,2.859,0,0,1-1-2.241,2.987,2.987,0,0,1,1.255-2.563,5.916,5.916,0,0,1,3.53-.913h1.758v-.83a2.029,2.029,0,0,0-.566-1.509,2.276,2.276,0,0,0-1.67-.562,2.634,2.634,0,0,0-1.621.488,1.439,1.439,0,0,0-.654,1.182H140.3a2.493,2.493,0,0,1,.562-1.528,3.832,3.832,0,0,1,1.523-1.167,5.125,5.125,0,0,1,2.114-.43,4.177,4.177,0,0,1,2.861.913,3.294,3.294,0,0,1,1.074,2.515v4.863a5.946,5.946,0,0,0,.371,2.314V19Zm-3-1.377a3.175,3.175,0,0,0,1.611-.439,2.658,2.658,0,0,0,1.1-1.143V13.873h-1.416q-3.32,0-3.32,1.943a1.645,1.645,0,0,0,.566,1.328A2.177,2.177,0,0,0,143.916,17.623ZM162.373,16.2a1.33,1.33,0,0,0-.552-1.138,5.311,5.311,0,0,0-1.924-.7,9.1,9.1,0,0,1-2.178-.7,3.1,3.1,0,0,1-1.191-.977,2.336,2.336,0,0,1-.386-1.348,2.741,2.741,0,0,1,1.1-2.2,4.291,4.291,0,0,1,2.808-.9,4.415,4.415,0,0,1,2.915.928,2.947,2.947,0,0,1,1.118,2.373h-1.816a1.631,1.631,0,0,0-.63-1.279,2.36,2.36,0,0,0-1.587-.537,2.47,2.47,0,0,0-1.543.43,1.353,1.353,0,0,0-.557,1.123,1.1,1.1,0,0,0,.518.986,6.368,6.368,0,0,0,1.87.635,9.744,9.744,0,0,1,2.192.723,3.2,3.2,0,0,1,1.245,1.011,2.485,2.485,0,0,1,.405,1.44,2.7,2.7,0,0,1-1.133,2.271,4.752,4.752,0,0,1-2.939.854,5.321,5.321,0,0,1-2.246-.449,3.653,3.653,0,0,1-1.528-1.255,3.025,3.025,0,0,1-.552-1.743h1.807a1.87,1.87,0,0,0,.728,1.44,2.822,2.822,0,0,0,1.792.532,2.913,2.913,0,0,0,1.646-.415A1.275,1.275,0,0,0,162.373,16.2ZM173.057,19a3.8,3.8,0,0,1-.254-1.113,4.031,4.031,0,0,1-3.008,1.309,3.73,3.73,0,0,1-2.563-.884,2.859,2.859,0,0,1-1-2.241,2.987,2.987,0,0,1,1.255-2.563,5.916,5.916,0,0,1,3.53-.913h1.758v-.83a2.029,2.029,0,0,0-.566-1.509,2.276,2.276,0,0,0-1.67-.562,2.634,2.634,0,0,0-1.621.488,1.439,1.439,0,0,0-.654,1.182h-1.816a2.493,2.493,0,0,1,.562-1.528,3.832,3.832,0,0,1,1.523-1.167,5.125,5.125,0,0,1,2.114-.43,4.177,4.177,0,0,1,2.861.913,3.294,3.294,0,0,1,1.074,2.515v4.863a5.946,5.946,0,0,0,.371,2.314V19Zm-3-1.377a3.175,3.175,0,0,0,1.611-.439,2.658,2.658,0,0,0,1.1-1.143V13.873h-1.416q-3.32,0-3.32,1.943a1.645,1.645,0,0,0,.566,1.328A2.177,2.177,0,0,0,170.059,17.623ZM179.375,19h-1.807V4h1.807Zm9.414-1.045a3.837,3.837,0,0,1-3.1,1.24,3.285,3.285,0,0,1-2.573-.981,4.248,4.248,0,0,1-.894-2.905V8.434h1.807V15.26q0,2.4,1.953,2.4a2.7,2.7,0,0,0,2.754-1.543V8.434h1.807V19h-1.719Zm4.063-4.326A6.19,6.19,0,0,1,194,9.718a3.921,3.921,0,0,1,5.957-.21V4h1.807V19h-1.66l-.088-1.133A3.679,3.679,0,0,1,197,19.2a3.609,3.609,0,0,1-2.993-1.5,6.26,6.26,0,0,1-1.157-3.926Zm1.807.205a4.687,4.687,0,0,0,.742,2.813,2.4,2.4,0,0,0,2.051,1.016,2.636,2.636,0,0,0,2.51-1.543V11.266a2.656,2.656,0,0,0-2.49-1.494A2.411,2.411,0,0,0,195.4,10.8,5.16,5.16,0,0,0,194.658,13.834Zm14.424-.205a6.19,6.19,0,0,1,1.152-3.911,3.921,3.921,0,0,1,5.957-.21V4H218V19h-1.66l-.088-1.133a3.679,3.679,0,0,1-3.018,1.328,3.609,3.609,0,0,1-2.993-1.5,6.26,6.26,0,0,1-1.157-3.926Zm1.807.205a4.687,4.687,0,0,0,.742,2.813,2.4,2.4,0,0,0,2.051,1.016,2.636,2.636,0,0,0,2.51-1.543V11.266a2.656,2.656,0,0,0-2.49-1.494,2.411,2.411,0,0,0-2.07,1.025A5.16,5.16,0,0,0,210.889,13.834Zm14.3,5.361a4.617,4.617,0,0,1-3.5-1.411,5.237,5.237,0,0,1-1.348-3.774v-.332a6.341,6.341,0,0,1,.6-2.808,4.685,4.685,0,0,1,1.68-1.934,4.223,4.223,0,0,1,2.339-.7,3.957,3.957,0,0,1,3.2,1.357,5.877,5.877,0,0,1,1.143,3.887v.752h-7.158a3.756,3.756,0,0,0,.913,2.524,2.87,2.87,0,0,0,2.222.962,3.147,3.147,0,0,0,1.621-.391,4.073,4.073,0,0,0,1.162-1.035l1.1.859A4.437,4.437,0,0,1,225.186,19.2Zm-.225-9.473a2.41,2.41,0,0,0-1.836.8,3.868,3.868,0,0,0-.918,2.231H227.5v-.137a3.441,3.441,0,0,0-.742-2.134A2.269,2.269,0,0,0,224.961,9.723ZM238.311,19H236.5V4h1.807Zm2.412-5.381a6.241,6.241,0,0,1,.61-2.793,4.553,4.553,0,0,1,1.7-1.914,4.626,4.626,0,0,1,2.485-.674,4.456,4.456,0,0,1,3.491,1.494,5.748,5.748,0,0,1,1.333,3.975v.127a6.3,6.3,0,0,1-.591,2.769,4.486,4.486,0,0,1-1.689,1.909,4.679,4.679,0,0,1-2.524.684,4.445,4.445,0,0,1-3.481-1.494,5.719,5.719,0,0,1-1.333-3.955Zm1.816.215a4.52,4.52,0,0,0,.815,2.822,2.763,2.763,0,0,0,4.37-.015,4.943,4.943,0,0,0,.811-3.022,4.513,4.513,0,0,0-.825-2.817,2.623,2.623,0,0,0-2.192-1.079,2.594,2.594,0,0,0-2.158,1.064A4.906,4.906,0,0,0,242.539,13.834ZM258.76,16.2a1.33,1.33,0,0,0-.552-1.138,5.311,5.311,0,0,0-1.924-.7,9.1,9.1,0,0,1-2.178-.7,3.1,3.1,0,0,1-1.191-.977,2.336,2.336,0,0,1-.386-1.348,2.741,2.741,0,0,1,1.1-2.2,4.291,4.291,0,0,1,2.808-.9,4.415,4.415,0,0,1,2.915.928,2.947,2.947,0,0,1,1.118,2.373h-1.816a1.631,1.631,0,0,0-.63-1.279,2.36,2.36,0,0,0-1.587-.537,2.47,2.47,0,0,0-1.543.43,1.353,1.353,0,0,0-.557,1.123,1.1,1.1,0,0,0,.518.986,6.368,6.368,0,0,0,1.87.635,9.744,9.744,0,0,1,2.192.723,3.2,3.2,0,0,1,1.245,1.011,2.485,2.485,0,0,1,.405,1.44,2.7,2.7,0,0,1-1.133,2.271,4.752,4.752,0,0,1-2.939.854,5.321,5.321,0,0,1-2.246-.449,3.653,3.653,0,0,1-1.528-1.255,3.025,3.025,0,0,1-.552-1.743h1.807a1.87,1.87,0,0,0,.728,1.44,2.822,2.822,0,0,0,1.792.532,2.913,2.913,0,0,0,1.646-.415A1.275,1.275,0,0,0,258.76,16.2Zm13.5,3a4.617,4.617,0,0,1-3.5-1.411,5.237,5.237,0,0,1-1.348-3.774v-.332a6.341,6.341,0,0,1,.6-2.808,4.685,4.685,0,0,1,1.68-1.934,4.223,4.223,0,0,1,2.339-.7,3.957,3.957,0,0,1,3.2,1.357,5.877,5.877,0,0,1,1.143,3.887v.752h-7.158a3.756,3.756,0,0,0,.913,2.524,2.87,2.87,0,0,0,2.222.962,3.147,3.147,0,0,0,1.621-.391,4.073,4.073,0,0,0,1.162-1.035l1.1.859A4.437,4.437,0,0,1,272.256,19.2Zm-.225-9.473a2.41,2.41,0,0,0-1.836.8,3.869,3.869,0,0,0-.918,2.231h5.293v-.137a3.441,3.441,0,0,0-.742-2.134A2.269,2.269,0,0,0,272.031,9.723Zm8.135-1.289.049,1.172a3.9,3.9,0,0,1,3.135-1.367,3.021,3.021,0,0,1,3.018,1.7,4,4,0,0,1,1.372-1.23,4.052,4.052,0,0,1,2-.469q3.477,0,3.535,3.682V19h-1.807V12.027a2.426,2.426,0,0,0-.518-1.694,2.279,2.279,0,0,0-1.738-.562,2.4,2.4,0,0,0-1.67.6,2.436,2.436,0,0,0-.771,1.616V19h-1.816V12.076a2.016,2.016,0,0,0-2.256-2.3,2.417,2.417,0,0,0-2.432,1.514V19h-1.807V8.434Zm24.756,5.4a6.327,6.327,0,0,1-1.1,3.887A3.537,3.537,0,0,1,300.83,19.2a3.875,3.875,0,0,1-3.027-1.221v5.088H296V8.434h1.65l.088,1.172A3.722,3.722,0,0,1,300.8,8.238a3.6,3.6,0,0,1,3.013,1.436,6.4,6.4,0,0,1,1.108,3.994Zm-1.807-.205a4.669,4.669,0,0,0-.762-2.822,2.454,2.454,0,0,0-2.09-1.035,2.656,2.656,0,0,0-2.461,1.455v5.049a2.661,2.661,0,0,0,2.48,1.445,2.442,2.442,0,0,0,2.065-1.03A5.1,5.1,0,0,0,303.115,13.629ZM309.18,19h-1.807V4h1.807Zm7.275.2a4.617,4.617,0,0,1-3.5-1.411,5.237,5.237,0,0,1-1.348-3.774v-.332a6.341,6.341,0,0,1,.6-2.808,4.685,4.685,0,0,1,1.68-1.934,4.223,4.223,0,0,1,2.339-.7,3.957,3.957,0,0,1,3.2,1.357,5.877,5.877,0,0,1,1.143,3.887v.752h-7.158a3.756,3.756,0,0,0,.913,2.524,2.87,2.87,0,0,0,2.222.962,3.147,3.147,0,0,0,1.621-.391,4.073,4.073,0,0,0,1.162-1.035l1.1.859A4.437,4.437,0,0,1,316.455,19.2Zm-.225-9.473a2.41,2.41,0,0,0-1.836.8,3.869,3.869,0,0,0-.918,2.231h5.293v-.137a3.441,3.441,0,0,0-.742-2.134A2.269,2.269,0,0,0,316.23,9.723ZM329.189,19a3.8,3.8,0,0,1-.254-1.113,4.031,4.031,0,0,1-3.008,1.309,3.73,3.73,0,0,1-2.563-.884,2.859,2.859,0,0,1-1-2.241,2.987,2.987,0,0,1,1.255-2.563,5.916,5.916,0,0,1,3.53-.913h1.758v-.83a2.029,2.029,0,0,0-.566-1.509,2.276,2.276,0,0,0-1.67-.562,2.634,2.634,0,0,0-1.621.488,1.439,1.439,0,0,0-.654,1.182h-1.816a2.493,2.493,0,0,1,.562-1.528,3.833,3.833,0,0,1,1.523-1.167,5.125,5.125,0,0,1,2.114-.43,4.177,4.177,0,0,1,2.861.913,3.294,3.294,0,0,1,1.074,2.515v4.863a5.946,5.946,0,0,0,.371,2.314V19Zm-3-1.377a3.175,3.175,0,0,0,1.611-.439,2.658,2.658,0,0,0,1.1-1.143V13.873H327.49q-3.32,0-3.32,1.943a1.645,1.645,0,0,0,.566,1.328A2.177,2.177,0,0,0,326.191,17.623Zm6.914-3.994a6.19,6.19,0,0,1,1.152-3.911,3.921,3.921,0,0,1,5.957-.21V4h1.807V19h-1.66l-.088-1.133a3.679,3.679,0,0,1-3.018,1.328,3.609,3.609,0,0,1-2.993-1.5,6.26,6.26,0,0,1-1.157-3.926Zm1.807.205a4.687,4.687,0,0,0,.742,2.813,2.4,2.4,0,0,0,2.051,1.016,2.636,2.636,0,0,0,2.51-1.543V11.266a2.656,2.656,0,0,0-2.49-1.494,2.411,2.411,0,0,0-2.07,1.025A5.16,5.16,0,0,0,334.912,13.834Zm9.434-.215a6.241,6.241,0,0,1,.61-2.793,4.553,4.553,0,0,1,1.7-1.914,4.626,4.626,0,0,1,2.485-.674,4.456,4.456,0,0,1,3.491,1.494,5.748,5.748,0,0,1,1.333,3.975v.127a6.3,6.3,0,0,1-.591,2.769,4.486,4.486,0,0,1-1.689,1.909,4.679,4.679,0,0,1-2.524.684,4.445,4.445,0,0,1-3.481-1.494,5.719,5.719,0,0,1-1.333-3.955Zm1.816.215a4.52,4.52,0,0,0,.815,2.822,2.763,2.763,0,0,0,4.37-.015,4.943,4.943,0,0,0,.811-3.022,4.512,4.512,0,0,0-.825-2.817,2.623,2.623,0,0,0-2.192-1.079,2.594,2.594,0,0,0-2.158,1.064A4.906,4.906,0,0,0,346.162,13.834ZM362.383,16.2a1.33,1.33,0,0,0-.552-1.138,5.311,5.311,0,0,0-1.924-.7,9.1,9.1,0,0,1-2.178-.7,3.1,3.1,0,0,1-1.191-.977,2.336,2.336,0,0,1-.386-1.348,2.741,2.741,0,0,1,1.1-2.2,4.291,4.291,0,0,1,2.808-.9,4.415,4.415,0,0,1,2.915.928,2.947,2.947,0,0,1,1.118,2.373h-1.816a1.631,1.631,0,0,0-.63-1.279,2.36,2.36,0,0,0-1.587-.537,2.47,2.47,0,0,0-1.543.43,1.353,1.353,0,0,0-.557,1.123,1.1,1.1,0,0,0,.518.986,6.368,6.368,0,0,0,1.87.635,9.744,9.744,0,0,1,2.192.723,3.2,3.2,0,0,1,1.245,1.011,2.485,2.485,0,0,1,.405,1.44,2.7,2.7,0,0,1-1.133,2.271,4.752,4.752,0,0,1-2.939.854,5.321,5.321,0,0,1-2.246-.449,3.653,3.653,0,0,1-1.528-1.255,3.025,3.025,0,0,1-.552-1.743H357.6a1.87,1.87,0,0,0,.728,1.44,2.822,2.822,0,0,0,1.792.532,2.913,2.913,0,0,0,1.646-.415A1.275,1.275,0,0,0,362.383,16.2Zm8.672-2.568a6.2,6.2,0,0,1,1.143-3.94,4.032,4.032,0,0,1,6.025-.19l.078-1.064h1.66V23.063h-1.807V18.023a3.792,3.792,0,0,1-2.91,1.172,3.644,3.644,0,0,1-3.052-1.489,6.34,6.34,0,0,1-1.138-3.95Zm1.807.205a4.7,4.7,0,0,0,.767,2.852,2.438,2.438,0,0,0,2.065,1.035,2.705,2.705,0,0,0,2.461-1.426V11.119a2.714,2.714,0,0,0-2.441-1.4,2.457,2.457,0,0,0-2.08,1.04A5.118,5.118,0,0,0,372.861,13.834Zm16.523,4.121a3.837,3.837,0,0,1-3.1,1.24,3.285,3.285,0,0,1-2.573-.981,4.248,4.248,0,0,1-.894-2.905V8.434h1.807V15.26q0,2.4,1.953,2.4a2.7,2.7,0,0,0,2.754-1.543V8.434h1.807V19h-1.719Zm8.887,1.24a4.617,4.617,0,0,1-3.5-1.411,5.237,5.237,0,0,1-1.348-3.774v-.332a6.341,6.341,0,0,1,.6-2.808,4.685,4.685,0,0,1,1.68-1.934,4.223,4.223,0,0,1,2.339-.7,3.957,3.957,0,0,1,3.2,1.357,5.877,5.877,0,0,1,1.143,3.887v.752h-7.158a3.756,3.756,0,0,0,.913,2.524,2.87,2.87,0,0,0,2.222.962,3.147,3.147,0,0,0,1.621-.391,4.073,4.073,0,0,0,1.162-1.035l1.1.859A4.437,4.437,0,0,1,398.271,19.2Zm-.225-9.473a2.41,2.41,0,0,0-1.836.8,3.869,3.869,0,0,0-.918,2.231h5.293v-.137a3.441,3.441,0,0,0-.742-2.134A2.269,2.269,0,0,0,398.047,9.723ZM410.322,19V9.83h-1.67v-1.4h1.67V7.35a3.6,3.6,0,0,1,.908-2.627,3.431,3.431,0,0,1,2.568-.928,4.77,4.77,0,0,1,1.24.165l-.1,1.456a5.189,5.189,0,0,0-.977-.088,1.763,1.763,0,0,0-1.357.514,2.086,2.086,0,0,0-.479,1.474V8.434h2.256v1.4h-2.256V19Zm5.576-5.381a6.241,6.241,0,0,1,.61-2.793,4.553,4.553,0,0,1,1.7-1.914,4.626,4.626,0,0,1,2.485-.674,4.456,4.456,0,0,1,3.491,1.494,5.748,5.748,0,0,1,1.333,3.975v.127a6.3,6.3,0,0,1-.591,2.769,4.486,4.486,0,0,1-1.689,1.909,4.679,4.679,0,0,1-2.524.684,4.445,4.445,0,0,1-3.481-1.494,5.719,5.719,0,0,1-1.333-3.955Zm1.816.215a4.52,4.52,0,0,0,.815,2.822,2.763,2.763,0,0,0,4.37-.015,4.943,4.943,0,0,0,.811-3.022,4.512,4.512,0,0,0-.825-2.817,2.623,2.623,0,0,0-2.192-1.079,2.594,2.594,0,0,0-2.158,1.064A4.906,4.906,0,0,0,417.715,13.834Zm15.176-3.779A5.414,5.414,0,0,0,432,9.986,2.381,2.381,0,0,0,429.59,11.5V19h-1.807V8.434h1.758l.029,1.221a2.813,2.813,0,0,1,2.52-1.416,1.846,1.846,0,0,1,.8.137Zm3.359-1.621.049,1.172a3.9,3.9,0,0,1,3.135-1.367,3.021,3.021,0,0,1,3.018,1.7,4,4,0,0,1,1.372-1.23,4.052,4.052,0,0,1,2-.469q3.477,0,3.535,3.682V19h-1.807V12.027a2.426,2.426,0,0,0-.518-1.694,2.279,2.279,0,0,0-1.738-.562,2.4,2.4,0,0,0-1.67.6,2.436,2.436,0,0,0-.771,1.616V19h-1.816V12.076a2.016,2.016,0,0,0-2.256-2.3,2.417,2.417,0,0,0-2.432,1.514V19h-1.807V8.434ZM458.6,19a3.8,3.8,0,0,1-.254-1.113,4.031,4.031,0,0,1-3.008,1.309,3.73,3.73,0,0,1-2.563-.884,2.859,2.859,0,0,1-1-2.241,2.987,2.987,0,0,1,1.255-2.563,5.916,5.916,0,0,1,3.53-.913h1.758v-.83a2.029,2.029,0,0,0-.566-1.509,2.276,2.276,0,0,0-1.67-.562,2.634,2.634,0,0,0-1.621.488,1.439,1.439,0,0,0-.654,1.182h-1.816a2.493,2.493,0,0,1,.562-1.528,3.833,3.833,0,0,1,1.523-1.167,5.125,5.125,0,0,1,2.114-.43,4.177,4.177,0,0,1,2.861.913,3.294,3.294,0,0,1,1.074,2.515v4.863a5.946,5.946,0,0,0,.371,2.314V19Zm-3-1.377a3.175,3.175,0,0,0,1.611-.439,2.658,2.658,0,0,0,1.1-1.143V13.873H456.9q-3.32,0-3.32,1.943a1.645,1.645,0,0,0,.566,1.328A2.177,2.177,0,0,0,455.605,17.623Zm9.063-9.189.059,1.328a3.85,3.85,0,0,1,3.164-1.523q3.35,0,3.379,3.779V19h-1.807V12.008a2.432,2.432,0,0,0-.522-1.689,2.094,2.094,0,0,0-1.6-.547,2.607,2.607,0,0,0-1.543.469,3.183,3.183,0,0,0-1.035,1.23V19h-1.807V8.434ZM10.293,40.834a6.327,6.327,0,0,1-1.1,3.887A3.537,3.537,0,0,1,6.2,46.2a3.875,3.875,0,0,1-3.027-1.221v5.088H1.367V35.434h1.65l.088,1.172a3.722,3.722,0,0,1,3.066-1.367,3.6,3.6,0,0,1,3.013,1.436,6.4,6.4,0,0,1,1.108,3.994Zm-1.807-.205a4.669,4.669,0,0,0-.762-2.822,2.454,2.454,0,0,0-2.09-1.035,2.656,2.656,0,0,0-2.461,1.455v5.049a2.661,2.661,0,0,0,2.48,1.445A2.442,2.442,0,0,0,7.72,43.69,5.1,5.1,0,0,0,8.486,40.629ZM19.111,46a3.8,3.8,0,0,1-.254-1.113A4.031,4.031,0,0,1,15.85,46.2a3.73,3.73,0,0,1-2.563-.884,2.859,2.859,0,0,1-1-2.241,2.987,2.987,0,0,1,1.255-2.563,5.916,5.916,0,0,1,3.53-.913h1.758v-.83a2.029,2.029,0,0,0-.566-1.509,2.276,2.276,0,0,0-1.67-.562,2.634,2.634,0,0,0-1.621.488,1.439,1.439,0,0,0-.654,1.182H12.5a2.493,2.493,0,0,1,.562-1.528,3.832,3.832,0,0,1,1.523-1.167,5.125,5.125,0,0,1,2.114-.43,4.177,4.177,0,0,1,2.861.913,3.294,3.294,0,0,1,1.074,2.515v4.863a5.946,5.946,0,0,0,.371,2.314V46Zm-3-1.377a3.175,3.175,0,0,0,1.611-.439,2.658,2.658,0,0,0,1.1-1.143V40.873H17.412q-3.32,0-3.32,1.943a1.645,1.645,0,0,0,.566,1.328A2.177,2.177,0,0,0,16.113,44.623Zm12.461-7.568a5.414,5.414,0,0,0-.889-.068A2.381,2.381,0,0,0,25.273,38.5V46H23.467V35.434h1.758l.029,1.221a2.813,2.813,0,0,1,2.52-1.416,1.846,1.846,0,0,1,.8.137Zm4.6-4.18v2.559h1.973v1.4H33.174v6.561a1.467,1.467,0,0,0,.264.953,1.11,1.11,0,0,0,.9.318,4.374,4.374,0,0,0,.859-.117V46a5.268,5.268,0,0,1-1.387.194,2.25,2.25,0,0,1-1.826-.732,3.147,3.147,0,0,1-.615-2.08V36.83H29.443v-1.4h1.924V32.875ZM41.641,46.2a4.617,4.617,0,0,1-3.5-1.411A5.237,5.237,0,0,1,36.8,41.01v-.332a6.341,6.341,0,0,1,.6-2.808,4.685,4.685,0,0,1,1.68-1.934,4.223,4.223,0,0,1,2.339-.7,3.957,3.957,0,0,1,3.2,1.357,5.877,5.877,0,0,1,1.143,3.887v.752H38.6a3.756,3.756,0,0,0,.913,2.524,2.87,2.87,0,0,0,2.222.962,3.147,3.147,0,0,0,1.621-.391,4.073,4.073,0,0,0,1.162-1.035l1.1.859A4.437,4.437,0,0,1,41.641,46.2Zm-.225-9.473a2.41,2.41,0,0,0-1.836.8,3.868,3.868,0,0,0-.918,2.231h5.293v-.137a3.441,3.441,0,0,0-.742-2.134A2.269,2.269,0,0,0,41.416,36.723Zm10.947,3.906a6.19,6.19,0,0,1,1.152-3.911,3.921,3.921,0,0,1,5.957-.21V31h1.807V46h-1.66l-.088-1.133A3.679,3.679,0,0,1,56.514,46.2a3.609,3.609,0,0,1-2.993-1.5,6.26,6.26,0,0,1-1.157-3.926Zm1.807.205a4.687,4.687,0,0,0,.742,2.813,2.4,2.4,0,0,0,2.051,1.016,2.636,2.636,0,0,0,2.51-1.543V38.266a2.656,2.656,0,0,0-2.49-1.494,2.411,2.411,0,0,0-2.07,1.025A5.16,5.16,0,0,0,54.17,40.834Zm14.3,5.361a4.617,4.617,0,0,1-3.5-1.411,5.237,5.237,0,0,1-1.348-3.774v-.332a6.341,6.341,0,0,1,.6-2.808,4.685,4.685,0,0,1,1.68-1.934,4.223,4.223,0,0,1,2.339-.7,3.957,3.957,0,0,1,3.2,1.357,5.877,5.877,0,0,1,1.143,3.887v.752H65.43a3.756,3.756,0,0,0,.913,2.524,2.87,2.87,0,0,0,2.222.962,3.147,3.147,0,0,0,1.621-.391,4.073,4.073,0,0,0,1.162-1.035l1.1.859A4.437,4.437,0,0,1,68.467,46.2Zm-.225-9.473a2.41,2.41,0,0,0-1.836.8,3.869,3.869,0,0,0-.918,2.231h5.293v-.137a3.441,3.441,0,0,0-.742-2.134A2.269,2.269,0,0,0,68.242,36.723ZM76.641,46H74.834V31h1.807Zm13.994-2.8a1.33,1.33,0,0,0-.552-1.138,5.311,5.311,0,0,0-1.924-.7,9.1,9.1,0,0,1-2.178-.7,3.1,3.1,0,0,1-1.191-.977,2.336,2.336,0,0,1-.386-1.348,2.741,2.741,0,0,1,1.1-2.2,4.291,4.291,0,0,1,2.808-.9,4.415,4.415,0,0,1,2.915.928,2.947,2.947,0,0,1,1.118,2.373H90.527a1.631,1.631,0,0,0-.63-1.279,2.36,2.36,0,0,0-1.587-.537,2.47,2.47,0,0,0-1.543.43,1.353,1.353,0,0,0-.557,1.123,1.1,1.1,0,0,0,.518.986,6.368,6.368,0,0,0,1.87.635,9.744,9.744,0,0,1,2.192.723,3.2,3.2,0,0,1,1.245,1.011,2.485,2.485,0,0,1,.405,1.44,2.7,2.7,0,0,1-1.133,2.271,4.752,4.752,0,0,1-2.939.854,5.321,5.321,0,0,1-2.246-.449,3.653,3.653,0,0,1-1.528-1.255,3.025,3.025,0,0,1-.552-1.743H85.85a1.87,1.87,0,0,0,.728,1.44,2.822,2.822,0,0,0,1.792.532,2.913,2.913,0,0,0,1.646-.415A1.275,1.275,0,0,0,90.635,43.2Zm8.545,3a4.617,4.617,0,0,1-3.5-1.411,5.237,5.237,0,0,1-1.348-3.774v-.332a6.341,6.341,0,0,1,.6-2.808,4.685,4.685,0,0,1,1.68-1.934,4.223,4.223,0,0,1,2.339-.7,3.957,3.957,0,0,1,3.2,1.357,5.877,5.877,0,0,1,1.143,3.887v.752H96.143a3.756,3.756,0,0,0,.913,2.524,2.87,2.87,0,0,0,2.222.962,3.147,3.147,0,0,0,1.621-.391,4.073,4.073,0,0,0,1.162-1.035l1.1.859A4.437,4.437,0,0,1,99.18,46.2Zm-.225-9.473a2.41,2.41,0,0,0-1.836.8A3.869,3.869,0,0,0,96.2,39.75h5.293v-.137a3.441,3.441,0,0,0-.742-2.134A2.269,2.269,0,0,0,98.955,36.723Zm10.674,8a2.6,2.6,0,0,0,1.689-.586,2.061,2.061,0,0,0,.8-1.465h1.709A3.276,3.276,0,0,1,113.2,44.4a4.116,4.116,0,0,1-1.538,1.309,4.438,4.438,0,0,1-2.036.488,4.353,4.353,0,0,1-3.433-1.44,5.737,5.737,0,0,1-1.274-3.94v-.3a6.361,6.361,0,0,1,.566-2.744,4.314,4.314,0,0,1,1.626-1.865,4.619,4.619,0,0,1,2.5-.664,4.238,4.238,0,0,1,2.954,1.064,3.8,3.8,0,0,1,1.255,2.764h-1.709a2.49,2.49,0,0,0-.776-1.685,2.415,2.415,0,0,0-1.724-.659,2.529,2.529,0,0,0-2.134.991,4.655,4.655,0,0,0-.757,2.866v.342a4.562,4.562,0,0,0,.752,2.813A2.541,2.541,0,0,0,109.629,44.721Zm8.682-11.846v2.559h1.973v1.4h-1.973v6.561a1.467,1.467,0,0,0,.264.953,1.11,1.11,0,0,0,.9.318,4.374,4.374,0,0,0,.859-.117V46a5.268,5.268,0,0,1-1.387.194,2.25,2.25,0,0,1-1.826-.732,3.147,3.147,0,0,1-.615-2.08V36.83H114.58v-1.4H116.5V32.875Zm3.408,7.744a6.241,6.241,0,0,1,.61-2.793,4.553,4.553,0,0,1,1.7-1.914,4.626,4.626,0,0,1,2.485-.674A4.456,4.456,0,0,1,130,36.732a5.748,5.748,0,0,1,1.333,3.975v.127a6.3,6.3,0,0,1-.591,2.769,4.486,4.486,0,0,1-1.689,1.909,4.679,4.679,0,0,1-2.524.684,4.445,4.445,0,0,1-3.481-1.494,5.719,5.719,0,0,1-1.333-3.955Zm1.816.215a4.52,4.52,0,0,0,.815,2.822,2.763,2.763,0,0,0,4.37-.015,4.943,4.943,0,0,0,.811-3.022,4.513,4.513,0,0,0-.825-2.817,2.623,2.623,0,0,0-2.192-1.079,2.594,2.594,0,0,0-2.158,1.064A4.906,4.906,0,0,0,123.535,40.834Zm15.176-3.779a5.414,5.414,0,0,0-.889-.068A2.381,2.381,0,0,0,135.41,38.5V46H133.6V35.434h1.758l.029,1.221a2.813,2.813,0,0,1,2.52-1.416,1.846,1.846,0,0,1,.8.137ZM151.846,46a3.8,3.8,0,0,1-.254-1.113,4.031,4.031,0,0,1-3.008,1.309,3.73,3.73,0,0,1-2.563-.884,2.859,2.859,0,0,1-1-2.241,2.987,2.987,0,0,1,1.255-2.563,5.916,5.916,0,0,1,3.53-.913h1.758v-.83A2.029,2.029,0,0,0,151,37.255a2.276,2.276,0,0,0-1.67-.562,2.634,2.634,0,0,0-1.621.488,1.439,1.439,0,0,0-.654,1.182h-1.816a2.493,2.493,0,0,1,.562-1.528,3.832,3.832,0,0,1,1.523-1.167,5.125,5.125,0,0,1,2.114-.43,4.177,4.177,0,0,1,2.861.913,3.294,3.294,0,0,1,1.074,2.515v4.863a5.946,5.946,0,0,0,.371,2.314V46Zm-3-1.377a3.175,3.175,0,0,0,1.611-.439,2.658,2.658,0,0,0,1.1-1.143V40.873h-1.416q-3.32,0-3.32,1.943a1.645,1.645,0,0,0,.566,1.328A2.177,2.177,0,0,0,148.848,44.623Zm10.693-1.074,2.617-8.115H164L160.215,46h-1.377L155.01,35.434h1.846ZM167.705,46h-1.816V35.434h1.816Zm.02-14.99h2.188l-2.617,2.871-1.455,0Zm7.2,13.711a2.6,2.6,0,0,0,1.689-.586,2.061,2.061,0,0,0,.8-1.465h1.709A3.276,3.276,0,0,1,178.5,44.4a4.116,4.116,0,0,1-1.538,1.309,4.438,4.438,0,0,1-2.036.488,4.353,4.353,0,0,1-3.433-1.44,5.737,5.737,0,0,1-1.274-3.94v-.3a6.361,6.361,0,0,1,.566-2.744,4.314,4.314,0,0,1,1.626-1.865,4.619,4.619,0,0,1,2.5-.664,4.238,4.238,0,0,1,2.954,1.064,3.8,3.8,0,0,1,1.255,2.764h-1.709a2.49,2.49,0,0,0-.776-1.685,2.415,2.415,0,0,0-1.724-.659,2.529,2.529,0,0,0-2.134.991,4.655,4.655,0,0,0-.757,2.866v.342a4.562,4.562,0,0,0,.752,2.813A2.541,2.541,0,0,0,174.922,44.721Zm5.752-4.1a6.241,6.241,0,0,1,.61-2.793,4.553,4.553,0,0,1,1.7-1.914,4.626,4.626,0,0,1,2.485-.674,4.456,4.456,0,0,1,3.491,1.494,5.748,5.748,0,0,1,1.333,3.975v.127A6.3,6.3,0,0,1,189.7,43.6a4.486,4.486,0,0,1-1.689,1.909,4.679,4.679,0,0,1-2.524.684,4.445,4.445,0,0,1-3.481-1.494,5.719,5.719,0,0,1-1.333-3.955Zm1.816.215a4.52,4.52,0,0,0,.815,2.822,2.763,2.763,0,0,0,4.37-.015,4.943,4.943,0,0,0,.811-3.022,4.513,4.513,0,0,0-.825-2.817,2.623,2.623,0,0,0-2.192-1.079,2.594,2.594,0,0,0-2.158,1.064A4.906,4.906,0,0,0,182.49,40.834ZM194.521,46h-1.807V31h1.807Zm9.414,0a3.8,3.8,0,0,1-.254-1.113,4.031,4.031,0,0,1-3.008,1.309,3.73,3.73,0,0,1-2.563-.884,2.859,2.859,0,0,1-1-2.241,2.987,2.987,0,0,1,1.255-2.563,5.916,5.916,0,0,1,3.53-.913h1.758v-.83a2.029,2.029,0,0,0-.566-1.509,2.276,2.276,0,0,0-1.67-.562,2.634,2.634,0,0,0-1.621.488,1.439,1.439,0,0,0-.654,1.182h-1.816a2.493,2.493,0,0,1,.562-1.528,3.832,3.832,0,0,1,1.523-1.167,5.125,5.125,0,0,1,2.114-.43,4.177,4.177,0,0,1,2.861.913,3.294,3.294,0,0,1,1.074,2.515v4.863a5.946,5.946,0,0,0,.371,2.314V46Zm-3-1.377a3.175,3.175,0,0,0,1.611-.439,2.658,2.658,0,0,0,1.1-1.143V40.873h-1.416q-3.32,0-3.32,1.943a1.645,1.645,0,0,0,.566,1.328A2.177,2.177,0,0,0,200.938,44.623Zm16.543.1a2.6,2.6,0,0,0,1.689-.586,2.061,2.061,0,0,0,.8-1.465h1.709a3.276,3.276,0,0,1-.625,1.729,4.116,4.116,0,0,1-1.538,1.309,4.438,4.438,0,0,1-2.036.488,4.353,4.353,0,0,1-3.433-1.44,5.737,5.737,0,0,1-1.274-3.94v-.3a6.361,6.361,0,0,1,.566-2.744,4.314,4.314,0,0,1,1.626-1.865,4.619,4.619,0,0,1,2.5-.664,4.238,4.238,0,0,1,2.954,1.064,3.8,3.8,0,0,1,1.255,2.764h-1.709a2.49,2.49,0,0,0-.776-1.685,2.415,2.415,0,0,0-1.724-.659,2.529,2.529,0,0,0-2.134.991,4.655,4.655,0,0,0-.757,2.866v.342a4.562,4.562,0,0,0,.752,2.813A2.541,2.541,0,0,0,217.48,44.721Zm5.752-4.1a6.241,6.241,0,0,1,.61-2.793,4.553,4.553,0,0,1,1.7-1.914,4.626,4.626,0,0,1,2.485-.674,4.456,4.456,0,0,1,3.491,1.494,5.748,5.748,0,0,1,1.333,3.975v.127a6.3,6.3,0,0,1-.591,2.769,4.486,4.486,0,0,1-1.689,1.909,4.679,4.679,0,0,1-2.524.684,4.445,4.445,0,0,1-3.481-1.494,5.719,5.719,0,0,1-1.333-3.955Zm1.816.215a4.52,4.52,0,0,0,.815,2.822,2.763,2.763,0,0,0,4.37-.015,4.943,4.943,0,0,0,.811-3.022,4.513,4.513,0,0,0-.825-2.817,2.623,2.623,0,0,0-2.192-1.079,2.594,2.594,0,0,0-2.158,1.064A4.906,4.906,0,0,0,225.049,40.834ZM237.08,46h-1.807V31h1.807Zm2.412-5.381a6.241,6.241,0,0,1,.61-2.793,4.553,4.553,0,0,1,1.7-1.914,4.626,4.626,0,0,1,2.485-.674,4.456,4.456,0,0,1,3.491,1.494,5.748,5.748,0,0,1,1.333,3.975v.127a6.3,6.3,0,0,1-.591,2.769,4.486,4.486,0,0,1-1.689,1.909,4.679,4.679,0,0,1-2.524.684,4.445,4.445,0,0,1-3.481-1.494,5.719,5.719,0,0,1-1.333-3.955Zm1.816.215a4.52,4.52,0,0,0,.815,2.822,2.763,2.763,0,0,0,4.37-.015,4.943,4.943,0,0,0,.811-3.022,4.513,4.513,0,0,0-.825-2.817,2.623,2.623,0,0,0-2.192-1.079,2.594,2.594,0,0,0-2.158,1.064A4.906,4.906,0,0,0,241.309,40.834Zm11.768-5.4.049,1.172a3.9,3.9,0,0,1,3.135-1.367,3.021,3.021,0,0,1,3.018,1.7,4,4,0,0,1,1.372-1.23,4.052,4.052,0,0,1,2-.469q3.477,0,3.535,3.682V46h-1.807V39.027a2.426,2.426,0,0,0-.518-1.694,2.279,2.279,0,0,0-1.738-.562,2.4,2.4,0,0,0-1.67.6,2.436,2.436,0,0,0-.771,1.616V46h-1.816V39.076a2.016,2.016,0,0,0-2.256-2.3,2.417,2.417,0,0,0-2.432,1.514V46h-1.807V35.434Zm24.775,5.4a6.283,6.283,0,0,1-1.113,3.892,3.557,3.557,0,0,1-2.988,1.47,3.683,3.683,0,0,1-3.1-1.416L270.566,46h-1.66V31h1.807v5.6a3.662,3.662,0,0,1,3.018-1.357,3.579,3.579,0,0,1,3.022,1.455,6.471,6.471,0,0,1,1.1,3.984Zm-1.807-.205a4.882,4.882,0,0,0-.713-2.852,2.36,2.36,0,0,0-2.051-1.006,2.652,2.652,0,0,0-2.568,1.66V43a2.727,2.727,0,0,0,2.588,1.66,2.347,2.347,0,0,0,2.021-1.006A5.191,5.191,0,0,0,276.045,40.629ZM282.09,46h-1.807V35.434h1.807Zm-1.953-13.369a1.078,1.078,0,0,1,.269-.742,1.008,1.008,0,0,1,.8-.3,1.024,1.024,0,0,1,.8.3,1.067,1.067,0,0,1,.273.742,1.032,1.032,0,0,1-.273.732,1.043,1.043,0,0,1-.8.293,1.026,1.026,0,0,1-.8-.293A1.043,1.043,0,0,1,280.137,32.631ZM291.5,46a3.8,3.8,0,0,1-.254-1.113,4.031,4.031,0,0,1-3.008,1.309,3.73,3.73,0,0,1-2.563-.884,2.859,2.859,0,0,1-1-2.241,2.987,2.987,0,0,1,1.255-2.563,5.916,5.916,0,0,1,3.53-.913h1.758v-.83a2.029,2.029,0,0,0-.566-1.509,2.276,2.276,0,0,0-1.67-.562,2.634,2.634,0,0,0-1.621.488,1.439,1.439,0,0,0-.654,1.182h-1.816a2.493,2.493,0,0,1,.562-1.528,3.833,3.833,0,0,1,1.523-1.167,5.125,5.125,0,0,1,2.114-.43,4.177,4.177,0,0,1,2.861.913,3.294,3.294,0,0,1,1.074,2.515v4.863a5.946,5.946,0,0,0,.371,2.314V46Zm-3-1.377a3.175,3.175,0,0,0,1.611-.439,2.658,2.658,0,0,0,1.1-1.143V40.873H289.8q-3.32,0-3.32,1.943a1.645,1.645,0,0,0,.566,1.328A2.177,2.177,0,0,0,288.506,44.623Zm9.063-9.189.059,1.328a3.85,3.85,0,0,1,3.164-1.523q3.35,0,3.379,3.779V46h-1.807V39.008a2.432,2.432,0,0,0-.522-1.689,2.094,2.094,0,0,0-1.6-.547,2.607,2.607,0,0,0-1.543.469,3.183,3.183,0,0,0-1.035,1.23V46h-1.807V35.434Zm8.848,5.186a6.241,6.241,0,0,1,.61-2.793,4.553,4.553,0,0,1,1.7-1.914,4.626,4.626,0,0,1,2.485-.674,4.456,4.456,0,0,1,3.491,1.494,5.748,5.748,0,0,1,1.333,3.975v.127a6.3,6.3,0,0,1-.591,2.769,4.486,4.486,0,0,1-1.689,1.909,4.679,4.679,0,0,1-2.524.684,4.445,4.445,0,0,1-3.481-1.494,5.719,5.719,0,0,1-1.333-3.955Zm1.816.215a4.52,4.52,0,0,0,.815,2.822,2.763,2.763,0,0,0,4.37-.015,4.943,4.943,0,0,0,.811-3.022A4.512,4.512,0,0,0,313.4,37.8a2.623,2.623,0,0,0-2.192-1.079,2.594,2.594,0,0,0-2.158,1.064A4.906,4.906,0,0,0,308.232,40.834Zm14.58-.205a6.19,6.19,0,0,1,1.152-3.911,3.921,3.921,0,0,1,5.957-.21V31h1.807V46h-1.66l-.088-1.133a3.679,3.679,0,0,1-3.018,1.328,3.609,3.609,0,0,1-2.993-1.5,6.26,6.26,0,0,1-1.157-3.926Zm1.807.205a4.687,4.687,0,0,0,.742,2.813,2.4,2.4,0,0,0,2.051,1.016,2.636,2.636,0,0,0,2.51-1.543V38.266a2.656,2.656,0,0,0-2.49-1.494,2.411,2.411,0,0,0-2.07,1.025A5.16,5.16,0,0,0,324.619,40.834Zm14.3,5.361a4.617,4.617,0,0,1-3.5-1.411,5.237,5.237,0,0,1-1.348-3.774v-.332a6.341,6.341,0,0,1,.6-2.808,4.685,4.685,0,0,1,1.68-1.934,4.223,4.223,0,0,1,2.339-.7,3.957,3.957,0,0,1,3.2,1.357,5.877,5.877,0,0,1,1.143,3.887v.752h-7.158a3.756,3.756,0,0,0,.913,2.524,2.87,2.87,0,0,0,2.222.962,3.147,3.147,0,0,0,1.621-.391,4.073,4.073,0,0,0,1.162-1.035l1.1.859A4.437,4.437,0,0,1,338.916,46.2Zm-.225-9.473a2.41,2.41,0,0,0-1.836.8,3.869,3.869,0,0,0-.918,2.231h5.293v-.137a3.441,3.441,0,0,0-.742-2.134A2.269,2.269,0,0,0,338.691,36.723Zm15.381,4.111a6.283,6.283,0,0,1-1.113,3.892,3.557,3.557,0,0,1-2.988,1.47,3.683,3.683,0,0,1-3.1-1.416L346.787,46h-1.66V31h1.807v5.6a3.662,3.662,0,0,1,3.018-1.357,3.579,3.579,0,0,1,3.022,1.455,6.471,6.471,0,0,1,1.1,3.984Zm-1.807-.205a4.882,4.882,0,0,0-.713-2.852,2.36,2.36,0,0,0-2.051-1.006,2.652,2.652,0,0,0-2.568,1.66V43a2.727,2.727,0,0,0,2.588,1.66,2.347,2.347,0,0,0,2.021-1.006A5.191,5.191,0,0,0,352.266,40.629Zm8.467,5.566a4.617,4.617,0,0,1-3.5-1.411,5.237,5.237,0,0,1-1.348-3.774v-.332a6.341,6.341,0,0,1,.6-2.808,4.685,4.685,0,0,1,1.68-1.934,4.223,4.223,0,0,1,2.339-.7,3.957,3.957,0,0,1,3.2,1.357,5.877,5.877,0,0,1,1.143,3.887v.752H357.7a3.756,3.756,0,0,0,.913,2.524,2.87,2.87,0,0,0,2.222.962,3.147,3.147,0,0,0,1.621-.391,4.073,4.073,0,0,0,1.162-1.035l1.1.859A4.437,4.437,0,0,1,360.732,46.2Zm-.225-9.473a2.41,2.41,0,0,0-1.836.8,3.869,3.869,0,0,0-.918,2.231h5.293v-.137a3.441,3.441,0,0,0-.742-2.134A2.269,2.269,0,0,0,360.508,36.723ZM378.047,43.2a1.33,1.33,0,0,0-.552-1.138,5.311,5.311,0,0,0-1.924-.7,9.1,9.1,0,0,1-2.178-.7,3.1,3.1,0,0,1-1.191-.977,2.336,2.336,0,0,1-.386-1.348,2.741,2.741,0,0,1,1.1-2.2,4.291,4.291,0,0,1,2.808-.9,4.415,4.415,0,0,1,2.915.928,2.947,2.947,0,0,1,1.118,2.373h-1.816a1.631,1.631,0,0,0-.63-1.279,2.36,2.36,0,0,0-1.587-.537,2.47,2.47,0,0,0-1.543.43,1.353,1.353,0,0,0-.557,1.123,1.1,1.1,0,0,0,.518.986,6.368,6.368,0,0,0,1.87.635,9.744,9.744,0,0,1,2.192.723,3.2,3.2,0,0,1,1.245,1.011,2.485,2.485,0,0,1,.405,1.44,2.7,2.7,0,0,1-1.133,2.271,4.752,4.752,0,0,1-2.939.854,5.321,5.321,0,0,1-2.246-.449,3.653,3.653,0,0,1-1.528-1.255,3.025,3.025,0,0,1-.552-1.743h1.807a1.87,1.87,0,0,0,.728,1.44,2.822,2.822,0,0,0,1.792.532,2.914,2.914,0,0,0,1.646-.415A1.275,1.275,0,0,0,378.047,43.2Zm8.545,3a4.617,4.617,0,0,1-3.5-1.411,5.237,5.237,0,0,1-1.348-3.774v-.332a6.341,6.341,0,0,1,.6-2.808,4.685,4.685,0,0,1,1.68-1.934,4.223,4.223,0,0,1,2.339-.7,3.957,3.957,0,0,1,3.2,1.357,5.877,5.877,0,0,1,1.143,3.887v.752h-7.158a3.756,3.756,0,0,0,.913,2.524,2.87,2.87,0,0,0,2.222.962,3.147,3.147,0,0,0,1.621-.391,4.073,4.073,0,0,0,1.162-1.035l1.1.859A4.437,4.437,0,0,1,386.592,46.2Zm-.225-9.473a2.41,2.41,0,0,0-1.836.8,3.869,3.869,0,0,0-.918,2.231h5.293v-.137a3.441,3.441,0,0,0-.742-2.134A2.269,2.269,0,0,0,386.367,36.723Zm11.543.332a5.414,5.414,0,0,0-.889-.068,2.381,2.381,0,0,0-2.412,1.514V46H392.8V35.434h1.758l.029,1.221a2.813,2.813,0,0,1,2.52-1.416,1.846,1.846,0,0,1,.8.137Zm9.063-4.18v2.559h1.973v1.4h-1.973v6.561a1.467,1.467,0,0,0,.264.953,1.11,1.11,0,0,0,.9.318,4.374,4.374,0,0,0,.859-.117V46a5.268,5.268,0,0,1-1.387.194,2.25,2.25,0,0,1-1.826-.732,3.147,3.147,0,0,1-.615-2.08V36.83h-1.924v-1.4h1.924V32.875Zm8.467,13.32a4.617,4.617,0,0,1-3.5-1.411A5.237,5.237,0,0,1,410.6,41.01v-.332a6.341,6.341,0,0,1,.6-2.808,4.685,4.685,0,0,1,1.68-1.934,4.223,4.223,0,0,1,2.339-.7,3.957,3.957,0,0,1,3.2,1.357,5.877,5.877,0,0,1,1.143,3.887v.752H412.4a3.756,3.756,0,0,0,.913,2.524,2.87,2.87,0,0,0,2.222.962,3.147,3.147,0,0,0,1.621-.391,4.073,4.073,0,0,0,1.162-1.035l1.1.859A4.437,4.437,0,0,1,415.439,46.2Zm-.225-9.473a2.41,2.41,0,0,0-1.836.8,3.869,3.869,0,0,0-.918,2.231h5.293v-.137a3.441,3.441,0,0,0-.742-2.134A2.269,2.269,0,0,0,415.215,36.723Zm8.145-1.289.059,1.328a3.85,3.85,0,0,1,3.164-1.523q3.35,0,3.379,3.779V46h-1.807V39.008a2.432,2.432,0,0,0-.522-1.689,2.094,2.094,0,0,0-1.6-.547,2.607,2.607,0,0,0-1.543.469,3.183,3.183,0,0,0-1.035,1.23V46H421.65V35.434ZM434.648,46h-1.807V35.434h1.807ZM432.7,32.631a1.078,1.078,0,0,1,.269-.742,1.008,1.008,0,0,1,.8-.3,1.024,1.024,0,0,1,.8.3,1.067,1.067,0,0,1,.273.742,1.032,1.032,0,0,1-.273.732,1.043,1.043,0,0,1-.8.293,1.026,1.026,0,0,1-.8-.293A1.043,1.043,0,0,1,432.7,32.631Zm4.4,8a6.19,6.19,0,0,1,1.152-3.911,3.921,3.921,0,0,1,5.957-.21V31h1.807V46h-1.66l-.088-1.133A3.679,3.679,0,0,1,441.25,46.2a3.609,3.609,0,0,1-2.993-1.5,6.26,6.26,0,0,1-1.157-3.926Zm1.807.205a4.687,4.687,0,0,0,.742,2.813,2.4,2.4,0,0,0,2.051,1.016,2.636,2.636,0,0,0,2.51-1.543V38.266a2.656,2.656,0,0,0-2.49-1.494,2.411,2.411,0,0,0-2.07,1.025A5.16,5.16,0,0,0,438.906,40.834ZM455.342,46a3.8,3.8,0,0,1-.254-1.113A4.031,4.031,0,0,1,452.08,46.2a3.73,3.73,0,0,1-2.563-.884,2.859,2.859,0,0,1-1-2.241,2.987,2.987,0,0,1,1.255-2.563,5.916,5.916,0,0,1,3.53-.913h1.758v-.83a2.029,2.029,0,0,0-.566-1.509,2.276,2.276,0,0,0-1.67-.562,2.634,2.634,0,0,0-1.621.488,1.439,1.439,0,0,0-.654,1.182H448.73a2.493,2.493,0,0,1,.562-1.528,3.833,3.833,0,0,1,1.523-1.167,5.125,5.125,0,0,1,2.114-.43,4.177,4.177,0,0,1,2.861.913,3.294,3.294,0,0,1,1.074,2.515v4.863a5.946,5.946,0,0,0,.371,2.314V46Zm-3-1.377a3.175,3.175,0,0,0,1.611-.439,2.658,2.658,0,0,0,1.1-1.143V40.873h-1.416q-3.32,0-3.32,1.943a1.645,1.645,0,0,0,.566,1.328A2.177,2.177,0,0,0,452.344,44.623ZM469.033,46.2a4.617,4.617,0,0,1-3.5-1.411,5.237,5.237,0,0,1-1.348-3.774v-.332a6.341,6.341,0,0,1,.6-2.808,4.685,4.685,0,0,1,1.68-1.934,4.223,4.223,0,0,1,2.339-.7,3.957,3.957,0,0,1,3.2,1.357,5.877,5.877,0,0,1,1.143,3.887v.752H466a3.756,3.756,0,0,0,.913,2.524,2.87,2.87,0,0,0,2.222.962,3.147,3.147,0,0,0,1.621-.391,4.073,4.073,0,0,0,1.162-1.035l1.1.859A4.437,4.437,0,0,1,469.033,46.2Zm-.225-9.473a2.41,2.41,0,0,0-1.836.8,3.869,3.869,0,0,0-.918,2.231h5.293v-.137a3.441,3.441,0,0,0-.742-2.134A2.269,2.269,0,0,0,468.809,36.723Zm8.145-1.289.059,1.328a3.85,3.85,0,0,1,3.164-1.523q3.35,0,3.379,3.779V46h-1.807V39.008a2.432,2.432,0,0,0-.522-1.689,2.094,2.094,0,0,0-1.6-.547,2.607,2.607,0,0,0-1.543.469,3.183,3.183,0,0,0-1.035,1.23V46h-1.807V35.434ZM5.605,71.721a2.6,2.6,0,0,0,1.689-.586,2.061,2.061,0,0,0,.8-1.465H9.8A3.276,3.276,0,0,1,9.18,71.4a4.116,4.116,0,0,1-1.538,1.309,4.438,4.438,0,0,1-2.036.488,4.353,4.353,0,0,1-3.433-1.44A5.737,5.737,0,0,1,.9,67.814v-.3a6.361,6.361,0,0,1,.566-2.744A4.314,4.314,0,0,1,3.091,62.9a4.619,4.619,0,0,1,2.5-.664A4.238,4.238,0,0,1,8.55,63.3,3.8,3.8,0,0,1,9.8,66.066H8.1a2.49,2.49,0,0,0-.776-1.685A2.415,2.415,0,0,0,5.6,63.723a2.529,2.529,0,0,0-2.134.991,4.655,4.655,0,0,0-.757,2.866v.342a4.562,4.562,0,0,0,.752,2.813A2.541,2.541,0,0,0,5.605,71.721Zm12.754.234a3.837,3.837,0,0,1-3.1,1.24,3.285,3.285,0,0,1-2.573-.981,4.248,4.248,0,0,1-.894-2.905V62.434H13.6V69.26q0,2.4,1.953,2.4a2.7,2.7,0,0,0,2.754-1.543V62.434h1.807V73H18.4Zm8.887,1.24a4.617,4.617,0,0,1-3.5-1.411A5.237,5.237,0,0,1,22.4,68.01v-.332A6.341,6.341,0,0,1,23,64.87a4.685,4.685,0,0,1,1.68-1.934,4.223,4.223,0,0,1,2.339-.7,3.957,3.957,0,0,1,3.2,1.357,5.877,5.877,0,0,1,1.143,3.887v.752H24.209a3.756,3.756,0,0,0,.913,2.524,2.87,2.87,0,0,0,2.222.962,3.147,3.147,0,0,0,1.621-.391,4.073,4.073,0,0,0,1.162-1.035l1.1.859A4.437,4.437,0,0,1,27.246,73.2Zm-.225-9.473a2.41,2.41,0,0,0-1.836.8,3.869,3.869,0,0,0-.918,2.231h5.293v-.137a3.441,3.441,0,0,0-.742-2.134A2.269,2.269,0,0,0,27.021,63.723Zm8.145-1.289.059,1.328a3.851,3.851,0,0,1,3.164-1.523q3.35,0,3.379,3.779V73H39.961V66.008a2.432,2.432,0,0,0-.522-1.689,2.094,2.094,0,0,0-1.6-.547,2.607,2.607,0,0,0-1.543.469,3.183,3.183,0,0,0-1.035,1.23V73H33.457V62.434Zm11.777-2.559v2.559h1.973v1.4H46.943v6.561a1.467,1.467,0,0,0,.264.953,1.11,1.11,0,0,0,.9.318,4.374,4.374,0,0,0,.859-.117V73a5.268,5.268,0,0,1-1.387.194,2.25,2.25,0,0,1-1.826-.732,3.147,3.147,0,0,1-.615-2.08V63.83H43.213v-1.4h1.924V59.875ZM57.549,73a3.8,3.8,0,0,1-.254-1.113A4.031,4.031,0,0,1,54.287,73.2a3.73,3.73,0,0,1-2.563-.884,2.859,2.859,0,0,1-1-2.241,2.987,2.987,0,0,1,1.255-2.563,5.916,5.916,0,0,1,3.53-.913h1.758v-.83a2.029,2.029,0,0,0-.566-1.509,2.276,2.276,0,0,0-1.67-.562,2.634,2.634,0,0,0-1.621.488,1.439,1.439,0,0,0-.654,1.182H50.938a2.493,2.493,0,0,1,.562-1.528,3.832,3.832,0,0,1,1.523-1.167,5.125,5.125,0,0,1,2.114-.43A4.177,4.177,0,0,1,58,63.151a3.294,3.294,0,0,1,1.074,2.515v4.863a5.946,5.946,0,0,0,.371,2.314V73Zm-3-1.377a3.175,3.175,0,0,0,1.611-.439,2.658,2.658,0,0,0,1.1-1.143V67.873H55.85q-3.32,0-3.32,1.943a1.645,1.645,0,0,0,.566,1.328A2.177,2.177,0,0,0,54.551,71.623Zm16.543.1a2.6,2.6,0,0,0,1.689-.586,2.061,2.061,0,0,0,.8-1.465h1.709a3.276,3.276,0,0,1-.625,1.729,4.116,4.116,0,0,1-1.538,1.309,4.438,4.438,0,0,1-2.036.488,4.353,4.353,0,0,1-3.433-1.44,5.737,5.737,0,0,1-1.274-3.94v-.3a6.361,6.361,0,0,1,.566-2.744A4.314,4.314,0,0,1,68.579,62.9a4.619,4.619,0,0,1,2.5-.664A4.238,4.238,0,0,1,74.038,63.3a3.8,3.8,0,0,1,1.255,2.764H73.584a2.49,2.49,0,0,0-.776-1.685,2.415,2.415,0,0,0-1.724-.659,2.529,2.529,0,0,0-2.134.991,4.655,4.655,0,0,0-.757,2.866v.342a4.562,4.562,0,0,0,.752,2.813A2.541,2.541,0,0,0,71.094,71.721Zm5.752-4.1a6.241,6.241,0,0,1,.61-2.793,4.553,4.553,0,0,1,1.7-1.914,4.626,4.626,0,0,1,2.485-.674,4.456,4.456,0,0,1,3.491,1.494,5.748,5.748,0,0,1,1.333,3.975v.127a6.3,6.3,0,0,1-.591,2.769,4.486,4.486,0,0,1-1.689,1.909,4.679,4.679,0,0,1-2.524.684A4.445,4.445,0,0,1,78.179,71.7a5.719,5.719,0,0,1-1.333-3.955Zm1.816.215a4.52,4.52,0,0,0,.815,2.822,2.763,2.763,0,0,0,4.37-.015,4.943,4.943,0,0,0,.811-3.022,4.513,4.513,0,0,0-.825-2.817,2.623,2.623,0,0,0-2.192-1.079,2.594,2.594,0,0,0-2.158,1.064A4.906,4.906,0,0,0,78.662,67.834Zm11.768-5.4.049,1.172a3.9,3.9,0,0,1,3.135-1.367,3.021,3.021,0,0,1,3.018,1.7A4,4,0,0,1,98,62.707a4.052,4.052,0,0,1,2-.469q3.477,0,3.535,3.682V73h-1.807V66.027a2.426,2.426,0,0,0-.518-1.694,2.279,2.279,0,0,0-1.738-.562,2.4,2.4,0,0,0-1.67.6,2.436,2.436,0,0,0-.771,1.616V73H95.215V66.076a2.016,2.016,0,0,0-2.256-2.3,2.417,2.417,0,0,0-2.432,1.514V73H88.721V62.434Zm15.352,5.186a6.241,6.241,0,0,1,.61-2.793,4.553,4.553,0,0,1,1.7-1.914,4.626,4.626,0,0,1,2.485-.674,4.456,4.456,0,0,1,3.491,1.494,5.748,5.748,0,0,1,1.333,3.975v.127a6.3,6.3,0,0,1-.591,2.769,4.486,4.486,0,0,1-1.689,1.909,4.679,4.679,0,0,1-2.524.684,4.445,4.445,0,0,1-3.481-1.494,5.719,5.719,0,0,1-1.333-3.955Zm1.816.215a4.52,4.52,0,0,0,.815,2.822,2.763,2.763,0,0,0,4.37-.015,4.943,4.943,0,0,0,.811-3.022,4.513,4.513,0,0,0-.825-2.817,2.623,2.623,0,0,0-2.192-1.079,2.594,2.594,0,0,0-2.158,1.064A4.906,4.906,0,0,0,107.6,67.834Zm23.945,0a6.327,6.327,0,0,1-1.1,3.887,3.537,3.537,0,0,1-2.988,1.475,3.875,3.875,0,0,1-3.027-1.221v5.088h-1.807V62.434h1.65l.088,1.172a3.722,3.722,0,0,1,3.066-1.367,3.6,3.6,0,0,1,3.013,1.436,6.4,6.4,0,0,1,1.108,3.994Zm-1.807-.205a4.669,4.669,0,0,0-.762-2.822,2.454,2.454,0,0,0-2.09-1.035,2.656,2.656,0,0,0-2.461,1.455v5.049a2.661,2.661,0,0,0,2.48,1.445,2.442,2.442,0,0,0,2.065-1.03A5.1,5.1,0,0,0,129.736,67.629ZM140.361,73a3.8,3.8,0,0,1-.254-1.113A4.031,4.031,0,0,1,137.1,73.2a3.73,3.73,0,0,1-2.563-.884,2.859,2.859,0,0,1-1-2.241,2.987,2.987,0,0,1,1.255-2.563,5.916,5.916,0,0,1,3.53-.913h1.758v-.83a2.029,2.029,0,0,0-.566-1.509,2.276,2.276,0,0,0-1.67-.562,2.634,2.634,0,0,0-1.621.488,1.439,1.439,0,0,0-.654,1.182H133.75a2.493,2.493,0,0,1,.562-1.528,3.832,3.832,0,0,1,1.523-1.167,5.125,5.125,0,0,1,2.114-.43,4.177,4.177,0,0,1,2.861.913,3.294,3.294,0,0,1,1.074,2.515v4.863a5.946,5.946,0,0,0,.371,2.314V73Zm-3-1.377a3.175,3.175,0,0,0,1.611-.439,2.658,2.658,0,0,0,1.1-1.143V67.873h-1.416q-3.32,0-3.32,1.943a1.645,1.645,0,0,0,.566,1.328A2.177,2.177,0,0,0,137.363,71.623Zm12.461-7.568a5.414,5.414,0,0,0-.889-.068,2.381,2.381,0,0,0-2.412,1.514V73h-1.807V62.434h1.758l.029,1.221a2.813,2.813,0,0,1,2.52-1.416,1.846,1.846,0,0,1,.8.137Zm4.6-4.18v2.559H156.4v1.4h-1.973v6.561a1.467,1.467,0,0,0,.264.953,1.11,1.11,0,0,0,.9.318,4.374,4.374,0,0,0,.859-.117V73a5.268,5.268,0,0,1-1.387.194,2.25,2.25,0,0,1-1.826-.732,3.147,3.147,0,0,1-.615-2.08V63.83h-1.924v-1.4h1.924V59.875Zm8.467,13.32a4.617,4.617,0,0,1-3.5-1.411,5.237,5.237,0,0,1-1.348-3.774v-.332a6.341,6.341,0,0,1,.6-2.808,4.685,4.685,0,0,1,1.68-1.934,4.223,4.223,0,0,1,2.339-.7,3.957,3.957,0,0,1,3.2,1.357,5.877,5.877,0,0,1,1.143,3.887v.752h-7.158a3.756,3.756,0,0,0,.913,2.524,2.87,2.87,0,0,0,2.222.962,3.147,3.147,0,0,0,1.621-.391,4.073,4.073,0,0,0,1.162-1.035l1.1.859A4.437,4.437,0,0,1,162.891,73.2Zm-.225-9.473a2.41,2.41,0,0,0-1.836.8,3.868,3.868,0,0,0-.918,2.231h5.293v-.137a3.441,3.441,0,0,0-.742-2.134A2.269,2.269,0,0,0,162.666,63.723Zm10.947,3.906a6.19,6.19,0,0,1,1.152-3.911,3.921,3.921,0,0,1,5.957-.21V58h1.807V73h-1.66l-.088-1.133a3.679,3.679,0,0,1-3.018,1.328,3.609,3.609,0,0,1-2.993-1.5,6.26,6.26,0,0,1-1.157-3.926Zm1.807.205a4.687,4.687,0,0,0,.742,2.813,2.4,2.4,0,0,0,2.051,1.016,2.636,2.636,0,0,0,2.51-1.543V65.266a2.656,2.656,0,0,0-2.49-1.494,2.411,2.411,0,0,0-2.07,1.025A5.16,5.16,0,0,0,175.42,67.834Zm14.3,5.361a4.617,4.617,0,0,1-3.5-1.411,5.237,5.237,0,0,1-1.348-3.774v-.332a6.341,6.341,0,0,1,.6-2.808,4.685,4.685,0,0,1,1.68-1.934,4.223,4.223,0,0,1,2.339-.7,3.957,3.957,0,0,1,3.2,1.357,5.877,5.877,0,0,1,1.143,3.887v.752H186.68a3.756,3.756,0,0,0,.913,2.524,2.87,2.87,0,0,0,2.222.962,3.147,3.147,0,0,0,1.621-.391,4.073,4.073,0,0,0,1.162-1.035l1.1.859A4.437,4.437,0,0,1,189.717,73.2Zm-.225-9.473a2.41,2.41,0,0,0-1.836.8,3.868,3.868,0,0,0-.918,2.231h5.293v-.137a3.441,3.441,0,0,0-.742-2.134A2.269,2.269,0,0,0,189.492,63.723ZM202.842,73h-1.807V58h1.807Zm9.414,0A3.8,3.8,0,0,1,212,71.887a4.031,4.031,0,0,1-3.008,1.309,3.73,3.73,0,0,1-2.563-.884,2.859,2.859,0,0,1-1-2.241,2.987,2.987,0,0,1,1.255-2.563,5.916,5.916,0,0,1,3.53-.913h1.758v-.83a2.029,2.029,0,0,0-.566-1.509,2.276,2.276,0,0,0-1.67-.562,2.634,2.634,0,0,0-1.621.488,1.439,1.439,0,0,0-.654,1.182h-1.816a2.493,2.493,0,0,1,.562-1.528,3.832,3.832,0,0,1,1.523-1.167,5.125,5.125,0,0,1,2.114-.43,4.177,4.177,0,0,1,2.861.913,3.294,3.294,0,0,1,1.074,2.515v4.863a5.946,5.946,0,0,0,.371,2.314V73Zm-3-1.377a3.175,3.175,0,0,0,1.611-.439,2.658,2.658,0,0,0,1.1-1.143V67.873h-1.416q-3.32,0-3.32,1.943a1.645,1.645,0,0,0,.566,1.328A2.177,2.177,0,0,0,209.258,71.623ZM222.764,70.2a1.33,1.33,0,0,0-.552-1.138,5.311,5.311,0,0,0-1.924-.7,9.1,9.1,0,0,1-2.178-.7,3.1,3.1,0,0,1-1.191-.977,2.336,2.336,0,0,1-.386-1.348,2.741,2.741,0,0,1,1.1-2.2,4.291,4.291,0,0,1,2.808-.9,4.415,4.415,0,0,1,2.915.928,2.947,2.947,0,0,1,1.118,2.373h-1.816a1.631,1.631,0,0,0-.63-1.279,2.36,2.36,0,0,0-1.587-.537,2.47,2.47,0,0,0-1.543.43,1.353,1.353,0,0,0-.557,1.123,1.1,1.1,0,0,0,.518.986,6.368,6.368,0,0,0,1.87.635,9.744,9.744,0,0,1,2.192.723,3.2,3.2,0,0,1,1.245,1.011,2.485,2.485,0,0,1,.405,1.44,2.7,2.7,0,0,1-1.133,2.271,4.752,4.752,0,0,1-2.939.854,5.321,5.321,0,0,1-2.246-.449,3.653,3.653,0,0,1-1.528-1.255,3.025,3.025,0,0,1-.552-1.743h1.807a1.87,1.87,0,0,0,.728,1.44,2.822,2.822,0,0,0,1.792.532,2.913,2.913,0,0,0,1.646-.415A1.275,1.275,0,0,0,222.764,70.2Zm14.219-6.143a5.414,5.414,0,0,0-.889-.068,2.381,2.381,0,0,0-2.412,1.514V73h-1.807V62.434h1.758l.029,1.221a2.813,2.813,0,0,1,2.52-1.416,1.846,1.846,0,0,1,.8.137Zm5.859,9.141a4.617,4.617,0,0,1-3.5-1.411A5.237,5.237,0,0,1,238,68.01v-.332a6.341,6.341,0,0,1,.6-2.808,4.685,4.685,0,0,1,1.68-1.934,4.223,4.223,0,0,1,2.339-.7,3.957,3.957,0,0,1,3.2,1.357,5.877,5.877,0,0,1,1.143,3.887v.752H239.8a3.756,3.756,0,0,0,.913,2.524,2.87,2.87,0,0,0,2.222.962,3.147,3.147,0,0,0,1.621-.391,4.073,4.073,0,0,0,1.162-1.035l1.1.859A4.437,4.437,0,0,1,242.842,73.2Zm-.225-9.473a2.41,2.41,0,0,0-1.836.8,3.868,3.868,0,0,0-.918,2.231h5.293v-.137a3.441,3.441,0,0,0-.742-2.134A2.269,2.269,0,0,0,242.617,63.723ZM255.205,70.2a1.33,1.33,0,0,0-.552-1.138,5.311,5.311,0,0,0-1.924-.7,9.1,9.1,0,0,1-2.178-.7,3.1,3.1,0,0,1-1.191-.977,2.336,2.336,0,0,1-.386-1.348,2.741,2.741,0,0,1,1.1-2.2,4.291,4.291,0,0,1,2.808-.9,4.415,4.415,0,0,1,2.915.928,2.947,2.947,0,0,1,1.118,2.373H255.1a1.631,1.631,0,0,0-.63-1.279,2.36,2.36,0,0,0-1.587-.537,2.47,2.47,0,0,0-1.543.43,1.353,1.353,0,0,0-.557,1.123,1.1,1.1,0,0,0,.518.986,6.368,6.368,0,0,0,1.87.635,9.744,9.744,0,0,1,2.192.723,3.2,3.2,0,0,1,1.245,1.011,2.485,2.485,0,0,1,.405,1.44,2.7,2.7,0,0,1-1.133,2.271,4.752,4.752,0,0,1-2.939.854,5.321,5.321,0,0,1-2.246-.449,3.653,3.653,0,0,1-1.528-1.255,3.025,3.025,0,0,1-.552-1.743h1.807a1.87,1.87,0,0,0,.728,1.44,2.822,2.822,0,0,0,1.792.532,2.913,2.913,0,0,0,1.646-.415A1.275,1.275,0,0,0,255.205,70.2Zm13.086-2.363a6.327,6.327,0,0,1-1.1,3.887A3.537,3.537,0,0,1,264.2,73.2a3.875,3.875,0,0,1-3.027-1.221v5.088h-1.807V62.434h1.65l.088,1.172a3.722,3.722,0,0,1,3.066-1.367,3.6,3.6,0,0,1,3.013,1.436,6.4,6.4,0,0,1,1.108,3.994Zm-1.807-.205a4.669,4.669,0,0,0-.762-2.822,2.454,2.454,0,0,0-2.09-1.035,2.656,2.656,0,0,0-2.461,1.455v5.049a2.661,2.661,0,0,0,2.48,1.445,2.442,2.442,0,0,0,2.065-1.03A5.1,5.1,0,0,0,266.484,67.629Zm3.623-.01a6.241,6.241,0,0,1,.61-2.793,4.553,4.553,0,0,1,1.7-1.914,4.626,4.626,0,0,1,2.485-.674,4.456,4.456,0,0,1,3.491,1.494,5.748,5.748,0,0,1,1.333,3.975v.127a6.3,6.3,0,0,1-.591,2.769,4.486,4.486,0,0,1-1.689,1.909,4.679,4.679,0,0,1-2.524.684A4.445,4.445,0,0,1,271.44,71.7a5.719,5.719,0,0,1-1.333-3.955Zm1.816.215a4.52,4.52,0,0,0,.815,2.822,2.763,2.763,0,0,0,4.37-.015,4.943,4.943,0,0,0,.811-3.022,4.512,4.512,0,0,0-.825-2.817,2.623,2.623,0,0,0-2.192-1.079,2.594,2.594,0,0,0-2.158,1.064A4.906,4.906,0,0,0,271.924,67.834Zm11.777-5.4.059,1.328a3.85,3.85,0,0,1,3.164-1.523q3.35,0,3.379,3.779V73H288.5V66.008a2.432,2.432,0,0,0-.522-1.689,2.094,2.094,0,0,0-1.6-.547,2.607,2.607,0,0,0-1.543.469,3.183,3.183,0,0,0-1.035,1.23V73h-1.807V62.434ZM299.18,70.2a1.33,1.33,0,0,0-.552-1.138,5.311,5.311,0,0,0-1.924-.7,9.1,9.1,0,0,1-2.178-.7,3.1,3.1,0,0,1-1.191-.977,2.336,2.336,0,0,1-.386-1.348,2.741,2.741,0,0,1,1.1-2.2,4.291,4.291,0,0,1,2.808-.9,4.415,4.415,0,0,1,2.915.928,2.947,2.947,0,0,1,1.118,2.373h-1.816a1.631,1.631,0,0,0-.63-1.279,2.36,2.36,0,0,0-1.587-.537,2.47,2.47,0,0,0-1.543.43,1.353,1.353,0,0,0-.557,1.123,1.1,1.1,0,0,0,.518.986,6.368,6.368,0,0,0,1.87.635,9.744,9.744,0,0,1,2.192.723,3.2,3.2,0,0,1,1.245,1.011,2.485,2.485,0,0,1,.405,1.44,2.7,2.7,0,0,1-1.133,2.271,4.752,4.752,0,0,1-2.939.854,5.321,5.321,0,0,1-2.246-.449,3.653,3.653,0,0,1-1.528-1.255,3.025,3.025,0,0,1-.552-1.743h1.807a1.87,1.87,0,0,0,.728,1.44,2.822,2.822,0,0,0,1.792.532,2.913,2.913,0,0,0,1.646-.415A1.275,1.275,0,0,0,299.18,70.2ZM309.863,73a3.8,3.8,0,0,1-.254-1.113A4.031,4.031,0,0,1,306.6,73.2a3.73,3.73,0,0,1-2.563-.884,2.859,2.859,0,0,1-1-2.241,2.987,2.987,0,0,1,1.255-2.563,5.916,5.916,0,0,1,3.53-.913h1.758v-.83a2.029,2.029,0,0,0-.566-1.509,2.276,2.276,0,0,0-1.67-.562,2.634,2.634,0,0,0-1.621.488,1.439,1.439,0,0,0-.654,1.182h-1.816a2.493,2.493,0,0,1,.562-1.528,3.833,3.833,0,0,1,1.523-1.167,5.125,5.125,0,0,1,2.114-.43,4.177,4.177,0,0,1,2.861.913,3.294,3.294,0,0,1,1.074,2.515v4.863a5.946,5.946,0,0,0,.371,2.314V73Zm-3-1.377a3.175,3.175,0,0,0,1.611-.439,2.658,2.658,0,0,0,1.1-1.143V67.873h-1.416q-3.32,0-3.32,1.943a1.645,1.645,0,0,0,.566,1.328A2.177,2.177,0,0,0,306.865,71.623Zm16.3-3.789a6.283,6.283,0,0,1-1.113,3.892,3.557,3.557,0,0,1-2.988,1.47,3.683,3.683,0,0,1-3.1-1.416L315.879,73h-1.66V58h1.807v5.6a3.662,3.662,0,0,1,3.018-1.357,3.579,3.579,0,0,1,3.022,1.455,6.471,6.471,0,0,1,1.1,3.984Zm-1.807-.205a4.882,4.882,0,0,0-.713-2.852,2.36,2.36,0,0,0-2.051-1.006,2.652,2.652,0,0,0-2.568,1.66V70a2.727,2.727,0,0,0,2.588,1.66,2.347,2.347,0,0,0,2.021-1.006A5.191,5.191,0,0,0,321.357,67.629ZM327.4,73H325.6V62.434H327.4Zm-1.953-13.369a1.078,1.078,0,0,1,.269-.742,1.008,1.008,0,0,1,.8-.3,1.024,1.024,0,0,1,.8.3,1.067,1.067,0,0,1,.273.742,1.032,1.032,0,0,1-.273.732,1.043,1.043,0,0,1-.8.293,1.026,1.026,0,0,1-.8-.293A1.043,1.043,0,0,1,325.449,59.631ZM332.256,73h-1.807V58h1.807Zm4.854,0H335.3V62.434h1.807Zm-1.953-13.369a1.078,1.078,0,0,1,.269-.742,1.008,1.008,0,0,1,.8-.3,1.024,1.024,0,0,1,.8.3,1.067,1.067,0,0,1,.273.742,1.032,1.032,0,0,1-.273.732,1.043,1.043,0,0,1-.8.293,1.026,1.026,0,0,1-.8-.293A1.043,1.043,0,0,1,335.156,59.631Zm4.4,8a6.19,6.19,0,0,1,1.152-3.911,3.921,3.921,0,0,1,5.957-.21V58h1.807V73h-1.66l-.088-1.133a3.679,3.679,0,0,1-3.018,1.328,3.609,3.609,0,0,1-2.993-1.5,6.26,6.26,0,0,1-1.157-3.926Zm1.807.205a4.687,4.687,0,0,0,.742,2.813,2.4,2.4,0,0,0,2.051,1.016,2.636,2.636,0,0,0,2.51-1.543V65.266a2.656,2.656,0,0,0-2.49-1.494,2.411,2.411,0,0,0-2.07,1.025A5.16,5.16,0,0,0,341.367,67.834ZM357.8,73a3.8,3.8,0,0,1-.254-1.113,4.031,4.031,0,0,1-3.008,1.309,3.73,3.73,0,0,1-2.563-.884,2.859,2.859,0,0,1-1-2.241,2.987,2.987,0,0,1,1.255-2.563,5.916,5.916,0,0,1,3.53-.913h1.758v-.83a2.029,2.029,0,0,0-.566-1.509,2.276,2.276,0,0,0-1.67-.562,2.634,2.634,0,0,0-1.621.488,1.439,1.439,0,0,0-.654,1.182h-1.816a2.493,2.493,0,0,1,.562-1.528,3.833,3.833,0,0,1,1.523-1.167,5.125,5.125,0,0,1,2.114-.43,4.177,4.177,0,0,1,2.861.913,3.294,3.294,0,0,1,1.074,2.515v4.863a5.946,5.946,0,0,0,.371,2.314V73Zm-3-1.377a3.175,3.175,0,0,0,1.611-.439,2.658,2.658,0,0,0,1.1-1.143V67.873H356.1q-3.32,0-3.32,1.943a1.645,1.645,0,0,0,.566,1.328A2.177,2.177,0,0,0,354.8,71.623Zm6.914-3.994a6.19,6.19,0,0,1,1.152-3.911,3.921,3.921,0,0,1,5.957-.21V58h1.807V73h-1.66l-.088-1.133a3.679,3.679,0,0,1-3.018,1.328,3.609,3.609,0,0,1-2.993-1.5,6.26,6.26,0,0,1-1.157-3.926Zm1.807.205a4.687,4.687,0,0,0,.742,2.813,2.4,2.4,0,0,0,2.051,1.016,2.636,2.636,0,0,0,2.51-1.543V65.266a2.656,2.656,0,0,0-2.49-1.494,2.411,2.411,0,0,0-2.07,1.025A5.16,5.16,0,0,0,363.525,67.834Zm14.3,5.361a4.617,4.617,0,0,1-3.5-1.411,5.237,5.237,0,0,1-1.348-3.774v-.332a6.341,6.341,0,0,1,.6-2.808,4.685,4.685,0,0,1,1.68-1.934,4.223,4.223,0,0,1,2.339-.7,3.957,3.957,0,0,1,3.2,1.357,5.877,5.877,0,0,1,1.143,3.887v.752h-7.158a3.756,3.756,0,0,0,.913,2.524,2.87,2.87,0,0,0,2.222.962,3.147,3.147,0,0,0,1.621-.391,4.073,4.073,0,0,0,1.162-1.035l1.1.859A4.437,4.437,0,0,1,377.822,73.2Zm-.225-9.473a2.41,2.41,0,0,0-1.836.8,3.869,3.869,0,0,0-.918,2.231h5.293v-.137a3.441,3.441,0,0,0-.742-2.134A2.269,2.269,0,0,0,377.6,63.723ZM390.186,70.2a1.33,1.33,0,0,0-.552-1.138,5.311,5.311,0,0,0-1.924-.7,9.1,9.1,0,0,1-2.178-.7,3.1,3.1,0,0,1-1.191-.977,2.336,2.336,0,0,1-.386-1.348,2.741,2.741,0,0,1,1.1-2.2,4.291,4.291,0,0,1,2.808-.9,4.415,4.415,0,0,1,2.915.928,2.947,2.947,0,0,1,1.118,2.373h-1.816a1.631,1.631,0,0,0-.63-1.279,2.36,2.36,0,0,0-1.587-.537,2.47,2.47,0,0,0-1.543.43,1.353,1.353,0,0,0-.557,1.123,1.1,1.1,0,0,0,.518.986,6.368,6.368,0,0,0,1.87.635,9.744,9.744,0,0,1,2.192.723,3.2,3.2,0,0,1,1.245,1.011,2.485,2.485,0,0,1,.405,1.44,2.7,2.7,0,0,1-1.133,2.271,4.752,4.752,0,0,1-2.939.854,5.321,5.321,0,0,1-2.246-.449,3.653,3.653,0,0,1-1.528-1.255,3.025,3.025,0,0,1-.552-1.743H385.4a1.87,1.87,0,0,0,.728,1.44,2.822,2.822,0,0,0,1.792.532,2.913,2.913,0,0,0,1.646-.415A1.275,1.275,0,0,0,390.186,70.2Zm18.037-2.363a6.327,6.327,0,0,1-1.1,3.887,3.537,3.537,0,0,1-2.988,1.475,3.875,3.875,0,0,1-3.027-1.221v5.088H399.3V62.434h1.65l.088,1.172a3.722,3.722,0,0,1,3.066-1.367,3.6,3.6,0,0,1,3.013,1.436,6.4,6.4,0,0,1,1.108,3.994Zm-1.807-.205a4.669,4.669,0,0,0-.762-2.822,2.454,2.454,0,0,0-2.09-1.035,2.656,2.656,0,0,0-2.461,1.455v5.049a2.661,2.661,0,0,0,2.48,1.445,2.442,2.442,0,0,0,2.065-1.03A5.1,5.1,0,0,0,406.416,67.629ZM417.041,73a3.8,3.8,0,0,1-.254-1.113,4.031,4.031,0,0,1-3.008,1.309,3.73,3.73,0,0,1-2.563-.884,2.859,2.859,0,0,1-1-2.241,2.987,2.987,0,0,1,1.255-2.563,5.916,5.916,0,0,1,3.53-.913h1.758v-.83a2.029,2.029,0,0,0-.566-1.509,2.276,2.276,0,0,0-1.67-.562,2.634,2.634,0,0,0-1.621.488,1.439,1.439,0,0,0-.654,1.182H410.43a2.493,2.493,0,0,1,.562-1.528,3.833,3.833,0,0,1,1.523-1.167,5.125,5.125,0,0,1,2.114-.43,4.177,4.177,0,0,1,2.861.913,3.294,3.294,0,0,1,1.074,2.515v4.863a5.946,5.946,0,0,0,.371,2.314V73Zm-3-1.377a3.175,3.175,0,0,0,1.611-.439,2.658,2.658,0,0,0,1.1-1.143V67.873h-1.416q-3.32,0-3.32,1.943a1.645,1.645,0,0,0,.566,1.328A2.177,2.177,0,0,0,414.043,71.623ZM426.5,64.055a5.414,5.414,0,0,0-.889-.068A2.381,2.381,0,0,0,423.2,65.5V73H421.4V62.434h1.758l.029,1.221a2.813,2.813,0,0,1,2.52-1.416,1.846,1.846,0,0,1,.8.137ZM434.3,73a3.8,3.8,0,0,1-.254-1.113,4.031,4.031,0,0,1-3.008,1.309,3.73,3.73,0,0,1-2.563-.884,2.859,2.859,0,0,1-1-2.241,2.987,2.987,0,0,1,1.255-2.563,5.916,5.916,0,0,1,3.53-.913h1.758v-.83a2.029,2.029,0,0,0-.566-1.509,2.276,2.276,0,0,0-1.67-.562,2.634,2.634,0,0,0-1.621.488,1.439,1.439,0,0,0-.654,1.182h-1.816a2.493,2.493,0,0,1,.562-1.528,3.833,3.833,0,0,1,1.523-1.167,5.125,5.125,0,0,1,2.114-.43,4.177,4.177,0,0,1,2.861.913,3.294,3.294,0,0,1,1.074,2.515v4.863a5.946,5.946,0,0,0,.371,2.314V73Zm-3-1.377a3.175,3.175,0,0,0,1.611-.439,2.658,2.658,0,0,0,1.1-1.143V67.873H432.6q-3.32,0-3.32,1.943a1.645,1.645,0,0,0,.566,1.328A2.177,2.177,0,0,0,431.3,71.623ZM447.988,73.2a4.617,4.617,0,0,1-3.5-1.411,5.237,5.237,0,0,1-1.348-3.774v-.332a6.341,6.341,0,0,1,.6-2.808,4.685,4.685,0,0,1,1.68-1.934,4.223,4.223,0,0,1,2.339-.7,3.957,3.957,0,0,1,3.2,1.357,5.877,5.877,0,0,1,1.143,3.887v.752h-7.158a3.756,3.756,0,0,0,.913,2.524,2.87,2.87,0,0,0,2.222.962,3.147,3.147,0,0,0,1.621-.391,4.073,4.073,0,0,0,1.162-1.035l1.1.859A4.437,4.437,0,0,1,447.988,73.2Zm-.225-9.473a2.41,2.41,0,0,0-1.836.8,3.869,3.869,0,0,0-.918,2.231H450.3v-.137a3.441,3.441,0,0,0-.742-2.134A2.269,2.269,0,0,0,447.764,63.723Zm8.4,9.277h-1.807V58h1.807ZM.938,94.629A6.21,6.21,0,0,1,2.08,90.7a3.654,3.654,0,0,1,3.027-1.46,3.635,3.635,0,0,1,3.018,1.367l.088-1.172h1.65V99.746a4.3,4.3,0,0,1-1.216,3.232,4.487,4.487,0,0,1-3.267,1.182,5.434,5.434,0,0,1-2.236-.488,3.85,3.85,0,0,1-1.67-1.338l.938-1.084a3.533,3.533,0,0,0,2.842,1.436,2.768,2.768,0,0,0,2.056-.742,2.837,2.837,0,0,0,.737-2.09v-.908a3.713,3.713,0,0,1-2.959,1.25,3.609,3.609,0,0,1-3-1.494A6.529,6.529,0,0,1,.938,94.629Zm1.816.205a4.738,4.738,0,0,0,.732,2.808,2.38,2.38,0,0,0,2.051,1.021,2.646,2.646,0,0,0,2.51-1.553V92.285a2.677,2.677,0,0,0-2.49-1.514A2.4,2.4,0,0,0,3.5,91.8,5.16,5.16,0,0,0,2.754,94.834ZM16.973,100.2a4.617,4.617,0,0,1-3.5-1.411,5.237,5.237,0,0,1-1.348-3.774v-.332a6.341,6.341,0,0,1,.6-2.808,4.685,4.685,0,0,1,1.68-1.934,4.223,4.223,0,0,1,2.339-.7,3.957,3.957,0,0,1,3.2,1.357,5.877,5.877,0,0,1,1.143,3.887v.752H13.936a3.756,3.756,0,0,0,.913,2.524,2.87,2.87,0,0,0,2.222.962,3.147,3.147,0,0,0,1.621-.391,4.073,4.073,0,0,0,1.162-1.035l1.1.859A4.437,4.437,0,0,1,16.973,100.2Zm-.225-9.473a2.41,2.41,0,0,0-1.836.8,3.868,3.868,0,0,0-.918,2.231h5.293v-.137a3.441,3.441,0,0,0-.742-2.134A2.269,2.269,0,0,0,16.748,90.723ZM29.336,97.2a1.33,1.33,0,0,0-.552-1.138,5.311,5.311,0,0,0-1.924-.7,9.1,9.1,0,0,1-2.178-.7,3.1,3.1,0,0,1-1.191-.977,2.336,2.336,0,0,1-.386-1.348,2.741,2.741,0,0,1,1.1-2.2,4.291,4.291,0,0,1,2.808-.9,4.415,4.415,0,0,1,2.915.928,2.947,2.947,0,0,1,1.118,2.373H29.229a1.631,1.631,0,0,0-.63-1.279,2.36,2.36,0,0,0-1.587-.537,2.47,2.47,0,0,0-1.543.43,1.353,1.353,0,0,0-.557,1.123,1.1,1.1,0,0,0,.518.986,6.368,6.368,0,0,0,1.87.635,9.744,9.744,0,0,1,2.192.723,3.2,3.2,0,0,1,1.245,1.011,2.485,2.485,0,0,1,.405,1.44,2.7,2.7,0,0,1-1.133,2.271,4.752,4.752,0,0,1-2.939.854,5.321,5.321,0,0,1-2.246-.449A3.653,3.653,0,0,1,23.3,98.491a3.025,3.025,0,0,1-.552-1.743h1.807a1.87,1.87,0,0,0,.728,1.44,2.822,2.822,0,0,0,1.792.532,2.913,2.913,0,0,0,1.646-.415A1.275,1.275,0,0,0,29.336,97.2Zm6.611-10.322v2.559H37.92v1.4H35.947v6.561a1.467,1.467,0,0,0,.264.953,1.11,1.11,0,0,0,.9.318,4.374,4.374,0,0,0,.859-.117V100a5.268,5.268,0,0,1-1.387.194,2.25,2.25,0,0,1-1.826-.732,3.147,3.147,0,0,1-.615-2.08V90.83H32.217v-1.4h1.924V86.875Zm3.408,7.744a6.241,6.241,0,0,1,.61-2.793,4.553,4.553,0,0,1,1.7-1.914,4.626,4.626,0,0,1,2.485-.674,4.456,4.456,0,0,1,3.491,1.494,5.748,5.748,0,0,1,1.333,3.975v.127a6.3,6.3,0,0,1-.591,2.769,4.486,4.486,0,0,1-1.689,1.909,4.679,4.679,0,0,1-2.524.684A4.445,4.445,0,0,1,40.688,98.7a5.719,5.719,0,0,1-1.333-3.955Zm1.816.215a4.52,4.52,0,0,0,.815,2.822,2.763,2.763,0,0,0,4.37-.015,4.943,4.943,0,0,0,.811-3.022,4.513,4.513,0,0,0-.825-2.817,2.623,2.623,0,0,0-2.192-1.079,2.594,2.594,0,0,0-2.158,1.064A4.906,4.906,0,0,0,41.172,94.834Zm15.176-3.779a5.414,5.414,0,0,0-.889-.068A2.381,2.381,0,0,0,53.047,92.5V100H51.24V89.434H53l.029,1.221a2.813,2.813,0,0,1,2.52-1.416,1.846,1.846,0,0,1,.8.137Zm6.172,3.574a6.19,6.19,0,0,1,1.152-3.911,3.921,3.921,0,0,1,5.957-.21V85h1.807v15h-1.66l-.088-1.133A3.679,3.679,0,0,1,66.67,100.2a3.609,3.609,0,0,1-2.993-1.5,6.26,6.26,0,0,1-1.157-3.926Zm1.807.205a4.687,4.687,0,0,0,.742,2.813,2.4,2.4,0,0,0,2.051,1.016,2.636,2.636,0,0,0,2.51-1.543V92.266a2.656,2.656,0,0,0-2.49-1.494,2.411,2.411,0,0,0-2.07,1.025A5.16,5.16,0,0,0,64.326,94.834Zm14.3,5.361a4.617,4.617,0,0,1-3.5-1.411,5.237,5.237,0,0,1-1.348-3.774v-.332a6.341,6.341,0,0,1,.6-2.808,4.685,4.685,0,0,1,1.68-1.934,4.223,4.223,0,0,1,2.339-.7A3.957,3.957,0,0,1,81.6,90.6a5.877,5.877,0,0,1,1.143,3.887v.752H75.586a3.756,3.756,0,0,0,.913,2.524,2.87,2.87,0,0,0,2.222.962,3.147,3.147,0,0,0,1.621-.391A4.073,4.073,0,0,0,81.5,97.295l1.1.859A4.437,4.437,0,0,1,78.623,100.2ZM78.4,90.723a2.41,2.41,0,0,0-1.836.8,3.869,3.869,0,0,0-.918,2.231h5.293v-.137a3.441,3.441,0,0,0-.742-2.134A2.269,2.269,0,0,0,78.4,90.723ZM94.17,100.2a4.617,4.617,0,0,1-3.5-1.411,5.237,5.237,0,0,1-1.348-3.774v-.332a6.341,6.341,0,0,1,.6-2.808,4.685,4.685,0,0,1,1.68-1.934,4.223,4.223,0,0,1,2.339-.7,3.957,3.957,0,0,1,3.2,1.357,5.877,5.877,0,0,1,1.143,3.887v.752H91.133a3.756,3.756,0,0,0,.913,2.524,2.87,2.87,0,0,0,2.222.962,3.147,3.147,0,0,0,1.621-.391,4.073,4.073,0,0,0,1.162-1.035l1.1.859A4.437,4.437,0,0,1,94.17,100.2Zm-.225-9.473a2.41,2.41,0,0,0-1.836.8,3.869,3.869,0,0,0-.918,2.231h5.293v-.137a3.441,3.441,0,0,0-.742-2.134A2.269,2.269,0,0,0,93.945,90.723Zm8.135-1.289.049,1.172a3.9,3.9,0,0,1,3.135-1.367,3.021,3.021,0,0,1,3.018,1.7,4,4,0,0,1,1.372-1.23,4.052,4.052,0,0,1,2-.469q3.477,0,3.535,3.682V100h-1.807V93.027a2.426,2.426,0,0,0-.518-1.694,2.279,2.279,0,0,0-1.738-.562,2.4,2.4,0,0,0-1.67.6,2.436,2.436,0,0,0-.771,1.616V100h-1.816V93.076a2.016,2.016,0,0,0-2.256-2.3,2.417,2.417,0,0,0-2.432,1.514V100h-1.807V89.434Zm24.756,5.4a6.327,6.327,0,0,1-1.1,3.887,3.537,3.537,0,0,1-2.988,1.475,3.875,3.875,0,0,1-3.027-1.221v5.088H117.91V89.434h1.65l.088,1.172a3.722,3.722,0,0,1,3.066-1.367,3.6,3.6,0,0,1,3.013,1.436,6.4,6.4,0,0,1,1.108,3.994Zm-1.807-.205a4.669,4.669,0,0,0-.762-2.822,2.454,2.454,0,0,0-2.09-1.035,2.656,2.656,0,0,0-2.461,1.455v5.049a2.661,2.661,0,0,0,2.48,1.445,2.442,2.442,0,0,0,2.065-1.03A5.1,5.1,0,0,0,125.029,94.629Zm9.209-3.574a5.414,5.414,0,0,0-.889-.068,2.381,2.381,0,0,0-2.412,1.514V100h-1.807V89.434h1.758l.029,1.221a2.813,2.813,0,0,1,2.52-1.416,1.846,1.846,0,0,1,.8.137ZM140.1,100.2a4.617,4.617,0,0,1-3.5-1.411,5.237,5.237,0,0,1-1.348-3.774v-.332a6.341,6.341,0,0,1,.6-2.808,4.685,4.685,0,0,1,1.68-1.934,4.223,4.223,0,0,1,2.339-.7,3.957,3.957,0,0,1,3.2,1.357,5.877,5.877,0,0,1,1.143,3.887v.752h-7.158a3.756,3.756,0,0,0,.913,2.524,2.87,2.87,0,0,0,2.222.962,3.147,3.147,0,0,0,1.621-.391,4.073,4.073,0,0,0,1.162-1.035l1.1.859A4.437,4.437,0,0,1,140.1,100.2Zm-.225-9.473a2.41,2.41,0,0,0-1.836.8,3.868,3.868,0,0,0-.918,2.231h5.293v-.137a3.441,3.441,0,0,0-.742-2.134A2.269,2.269,0,0,0,139.873,90.723ZM152.461,97.2a1.33,1.33,0,0,0-.552-1.138,5.311,5.311,0,0,0-1.924-.7,9.1,9.1,0,0,1-2.178-.7,3.1,3.1,0,0,1-1.191-.977,2.336,2.336,0,0,1-.386-1.348,2.741,2.741,0,0,1,1.1-2.2,4.29,4.29,0,0,1,2.808-.9,4.415,4.415,0,0,1,2.915.928,2.947,2.947,0,0,1,1.118,2.373h-1.816a1.631,1.631,0,0,0-.63-1.279,2.36,2.36,0,0,0-1.587-.537,2.47,2.47,0,0,0-1.543.43,1.353,1.353,0,0,0-.557,1.123,1.1,1.1,0,0,0,.518.986,6.368,6.368,0,0,0,1.87.635,9.744,9.744,0,0,1,2.192.723,3.2,3.2,0,0,1,1.245,1.011,2.485,2.485,0,0,1,.405,1.44,2.7,2.7,0,0,1-1.133,2.271,4.752,4.752,0,0,1-2.939.854,5.321,5.321,0,0,1-2.246-.449,3.653,3.653,0,0,1-1.528-1.255,3.025,3.025,0,0,1-.552-1.743h1.807a1.87,1.87,0,0,0,.728,1.44,2.822,2.822,0,0,0,1.792.532,2.913,2.913,0,0,0,1.646-.415A1.275,1.275,0,0,0,152.461,97.2Zm10.684,2.8a3.8,3.8,0,0,1-.254-1.113,4.031,4.031,0,0,1-3.008,1.309,3.73,3.73,0,0,1-2.563-.884,2.859,2.859,0,0,1-1-2.241,2.987,2.987,0,0,1,1.255-2.563,5.916,5.916,0,0,1,3.53-.913h1.758v-.83a2.029,2.029,0,0,0-.566-1.509,2.276,2.276,0,0,0-1.67-.562,2.634,2.634,0,0,0-1.621.488,1.439,1.439,0,0,0-.654,1.182h-1.816a2.493,2.493,0,0,1,.562-1.528,3.832,3.832,0,0,1,1.523-1.167,5.125,5.125,0,0,1,2.114-.43,4.177,4.177,0,0,1,2.861.913,3.294,3.294,0,0,1,1.074,2.515v4.863a5.946,5.946,0,0,0,.371,2.314V100Zm-3-1.377a3.175,3.175,0,0,0,1.611-.439,2.658,2.658,0,0,0,1.1-1.143V94.873h-1.416q-3.32,0-3.32,1.943a1.645,1.645,0,0,0,.566,1.328A2.177,2.177,0,0,0,160.146,98.623ZM173.652,97.2a1.33,1.33,0,0,0-.552-1.138,5.311,5.311,0,0,0-1.924-.7,9.1,9.1,0,0,1-2.178-.7,3.1,3.1,0,0,1-1.191-.977,2.336,2.336,0,0,1-.386-1.348,2.741,2.741,0,0,1,1.1-2.2,4.29,4.29,0,0,1,2.808-.9,4.415,4.415,0,0,1,2.915.928,2.947,2.947,0,0,1,1.118,2.373h-1.816a1.631,1.631,0,0,0-.63-1.279,2.36,2.36,0,0,0-1.587-.537,2.47,2.47,0,0,0-1.543.43,1.353,1.353,0,0,0-.557,1.123,1.1,1.1,0,0,0,.518.986,6.368,6.368,0,0,0,1.87.635,9.744,9.744,0,0,1,2.192.723,3.2,3.2,0,0,1,1.245,1.011,2.485,2.485,0,0,1,.405,1.44,2.7,2.7,0,0,1-1.133,2.271,4.752,4.752,0,0,1-2.939.854,5.321,5.321,0,0,1-2.246-.449,3.653,3.653,0,0,1-1.528-1.255,3.025,3.025,0,0,1-.552-1.743h1.807a1.87,1.87,0,0,0,.728,1.44,2.822,2.822,0,0,0,1.792.532,2.913,2.913,0,0,0,1.646-.415A1.275,1.275,0,0,0,173.652,97.2Zm15.635,2.8a3.8,3.8,0,0,1-.254-1.113,4.031,4.031,0,0,1-3.008,1.309,3.73,3.73,0,0,1-2.563-.884,2.859,2.859,0,0,1-1-2.241,2.987,2.987,0,0,1,1.255-2.563,5.916,5.916,0,0,1,3.53-.913H189v-.83a2.029,2.029,0,0,0-.566-1.509,2.276,2.276,0,0,0-1.67-.562,2.634,2.634,0,0,0-1.621.488,1.439,1.439,0,0,0-.654,1.182h-1.816a2.493,2.493,0,0,1,.562-1.528,3.832,3.832,0,0,1,1.523-1.167,5.125,5.125,0,0,1,2.114-.43,4.177,4.177,0,0,1,2.861.913,3.294,3.294,0,0,1,1.074,2.515v4.863a5.946,5.946,0,0,0,.371,2.314V100Zm-3-1.377a3.175,3.175,0,0,0,1.611-.439,2.658,2.658,0,0,0,1.1-1.143V94.873h-1.416q-3.32,0-3.32,1.943a1.645,1.645,0,0,0,.566,1.328A2.177,2.177,0,0,0,186.289,98.623Zm10.693-1.074,2.617-8.115h1.846L197.656,100h-1.377l-3.828-10.566H194.3ZM205.146,100H203.33V89.434h1.816Zm.02-14.99h2.188l-2.617,2.871-1.455,0Zm7.2,13.711a2.6,2.6,0,0,0,1.689-.586,2.061,2.061,0,0,0,.8-1.465h1.709a3.276,3.276,0,0,1-.625,1.729,4.116,4.116,0,0,1-1.538,1.309,4.438,4.438,0,0,1-2.036.488,4.353,4.353,0,0,1-3.433-1.44,5.737,5.737,0,0,1-1.274-3.94v-.3a6.361,6.361,0,0,1,.566-2.744,4.314,4.314,0,0,1,1.626-1.865,4.619,4.619,0,0,1,2.5-.664,4.238,4.238,0,0,1,2.954,1.064,3.8,3.8,0,0,1,1.255,2.764h-1.709a2.49,2.49,0,0,0-.776-1.685,2.415,2.415,0,0,0-1.724-.659,2.529,2.529,0,0,0-2.134.991,4.655,4.655,0,0,0-.757,2.866v.342a4.562,4.562,0,0,0,.752,2.813A2.541,2.541,0,0,0,212.363,98.721Zm5.752-4.1a6.241,6.241,0,0,1,.61-2.793,4.553,4.553,0,0,1,1.7-1.914,4.626,4.626,0,0,1,2.485-.674,4.456,4.456,0,0,1,3.491,1.494,5.748,5.748,0,0,1,1.333,3.975v.127a6.3,6.3,0,0,1-.591,2.769,4.486,4.486,0,0,1-1.689,1.909,4.679,4.679,0,0,1-2.524.684,4.445,4.445,0,0,1-3.481-1.494,5.719,5.719,0,0,1-1.333-3.955Zm1.816.215a4.52,4.52,0,0,0,.815,2.822,2.763,2.763,0,0,0,4.37-.015,4.943,4.943,0,0,0,.811-3.022A4.513,4.513,0,0,0,225.1,91.8a2.623,2.623,0,0,0-2.192-1.079,2.594,2.594,0,0,0-2.158,1.064A4.906,4.906,0,0,0,219.932,94.834ZM231.963,100h-1.807V85h1.807Zm9.414,0a3.8,3.8,0,0,1-.254-1.113,4.031,4.031,0,0,1-3.008,1.309,3.73,3.73,0,0,1-2.563-.884,2.859,2.859,0,0,1-1-2.241,2.987,2.987,0,0,1,1.255-2.563,5.916,5.916,0,0,1,3.53-.913h1.758v-.83a2.029,2.029,0,0,0-.566-1.509,2.276,2.276,0,0,0-1.67-.562,2.634,2.634,0,0,0-1.621.488,1.439,1.439,0,0,0-.654,1.182h-1.816a2.493,2.493,0,0,1,.562-1.528,3.832,3.832,0,0,1,1.523-1.167,5.125,5.125,0,0,1,2.114-.43,4.177,4.177,0,0,1,2.861.913,3.294,3.294,0,0,1,1.074,2.515v4.863a5.946,5.946,0,0,0,.371,2.314V100Zm-3-1.377a3.175,3.175,0,0,0,1.611-.439,2.658,2.658,0,0,0,1.1-1.143V94.873h-1.416q-3.32,0-3.32,1.943a1.645,1.645,0,0,0,.566,1.328A2.177,2.177,0,0,0,238.379,98.623ZM251.885,97.2a1.33,1.33,0,0,0-.552-1.138,5.311,5.311,0,0,0-1.924-.7,9.1,9.1,0,0,1-2.178-.7,3.1,3.1,0,0,1-1.191-.977,2.336,2.336,0,0,1-.386-1.348,2.741,2.741,0,0,1,1.1-2.2,4.29,4.29,0,0,1,2.808-.9,4.415,4.415,0,0,1,2.915.928,2.947,2.947,0,0,1,1.118,2.373h-1.816a1.631,1.631,0,0,0-.63-1.279,2.36,2.36,0,0,0-1.587-.537,2.47,2.47,0,0,0-1.543.43,1.353,1.353,0,0,0-.557,1.123,1.1,1.1,0,0,0,.518.986,6.368,6.368,0,0,0,1.87.635,9.744,9.744,0,0,1,2.192.723,3.2,3.2,0,0,1,1.245,1.011,2.485,2.485,0,0,1,.405,1.44,2.7,2.7,0,0,1-1.133,2.271,4.752,4.752,0,0,1-2.939.854,5.321,5.321,0,0,1-2.246-.449,3.653,3.653,0,0,1-1.528-1.255,3.025,3.025,0,0,1-.552-1.743H247.1a1.87,1.87,0,0,0,.728,1.44,2.822,2.822,0,0,0,1.792.532,2.913,2.913,0,0,0,1.646-.415A1.275,1.275,0,0,0,251.885,97.2Zm4.2,1.855a1.131,1.131,0,0,1,.278-.781,1.061,1.061,0,0,1,.835-.312,1.092,1.092,0,0,1,.845.313,1.109,1.109,0,0,1,.288.781,1.048,1.048,0,0,1-.288.752,1.112,1.112,0,0,1-.845.3,1,1,0,0,1-1.113-1.055Zm12.334-4.619V100h-1.875V85.781h5.244a5.269,5.269,0,0,1,3.657,1.191,4.039,4.039,0,0,1,1.323,3.154,3.986,3.986,0,0,1-1.294,3.188,5.5,5.5,0,0,1-3.706,1.118Zm0-1.533h3.369a3.369,3.369,0,0,0,2.3-.709,2.593,2.593,0,0,0,.8-2.05,2.679,2.679,0,0,0-.8-2.035,3.156,3.156,0,0,0-2.2-.792h-3.477Zm16.875,7.1a3.8,3.8,0,0,1-.254-1.113,4.031,4.031,0,0,1-3.008,1.309,3.73,3.73,0,0,1-2.563-.884,2.859,2.859,0,0,1-1-2.241,2.987,2.987,0,0,1,1.255-2.563,5.916,5.916,0,0,1,3.53-.913h1.758v-.83a2.029,2.029,0,0,0-.566-1.509,2.276,2.276,0,0,0-1.67-.562,2.634,2.634,0,0,0-1.621.488,1.439,1.439,0,0,0-.654,1.182h-1.816a2.493,2.493,0,0,1,.562-1.528,3.833,3.833,0,0,1,1.523-1.167,5.125,5.125,0,0,1,2.114-.43,4.177,4.177,0,0,1,2.861.913,3.294,3.294,0,0,1,1.074,2.515v4.863a5.946,5.946,0,0,0,.371,2.314V100Zm-3-1.377a3.175,3.175,0,0,0,1.611-.439,2.658,2.658,0,0,0,1.1-1.143V94.873h-1.416q-3.32,0-3.32,1.943a1.645,1.645,0,0,0,.566,1.328A2.177,2.177,0,0,0,282.295,98.623Zm12.461-7.568a5.414,5.414,0,0,0-.889-.068,2.381,2.381,0,0,0-2.412,1.514V100h-1.807V89.434h1.758l.029,1.221a2.813,2.813,0,0,1,2.52-1.416,1.846,1.846,0,0,1,.8.137ZM302.549,100a3.8,3.8,0,0,1-.254-1.113,4.031,4.031,0,0,1-3.008,1.309,3.73,3.73,0,0,1-2.563-.884,2.859,2.859,0,0,1-1-2.241,2.987,2.987,0,0,1,1.255-2.563,5.916,5.916,0,0,1,3.53-.913h1.758v-.83a2.029,2.029,0,0,0-.566-1.509,2.276,2.276,0,0,0-1.67-.562,2.634,2.634,0,0,0-1.621.488,1.439,1.439,0,0,0-.654,1.182h-1.816a2.493,2.493,0,0,1,.562-1.528,3.833,3.833,0,0,1,1.523-1.167,5.125,5.125,0,0,1,2.114-.43,4.177,4.177,0,0,1,2.861.913,3.294,3.294,0,0,1,1.074,2.515v4.863a5.946,5.946,0,0,0,.371,2.314V100Zm-3-1.377a3.175,3.175,0,0,0,1.611-.439,2.658,2.658,0,0,0,1.1-1.143V94.873H300.85q-3.32,0-3.32,1.943a1.645,1.645,0,0,0,.566,1.328A2.177,2.177,0,0,0,299.551,98.623ZM318.379,100a3.8,3.8,0,0,1-.254-1.113,4.031,4.031,0,0,1-3.008,1.309,3.73,3.73,0,0,1-2.563-.884,2.859,2.859,0,0,1-1-2.241,2.987,2.987,0,0,1,1.255-2.563,5.916,5.916,0,0,1,3.53-.913H318.1v-.83a2.029,2.029,0,0,0-.566-1.509,2.276,2.276,0,0,0-1.67-.562,2.634,2.634,0,0,0-1.621.488,1.439,1.439,0,0,0-.654,1.182h-1.816a2.493,2.493,0,0,1,.562-1.528,3.833,3.833,0,0,1,1.523-1.167,5.125,5.125,0,0,1,2.114-.43,4.177,4.177,0,0,1,2.861.913,3.294,3.294,0,0,1,1.074,2.515v4.863a5.946,5.946,0,0,0,.371,2.314V100Zm-3-1.377a3.175,3.175,0,0,0,1.611-.439,2.658,2.658,0,0,0,1.1-1.143V94.873H316.68q-3.32,0-3.32,1.943a1.645,1.645,0,0,0,.566,1.328A2.177,2.177,0,0,0,315.381,98.623Zm11.592.1a2.6,2.6,0,0,0,1.689-.586,2.061,2.061,0,0,0,.8-1.465h1.709a3.276,3.276,0,0,1-.625,1.729,4.117,4.117,0,0,1-1.538,1.309,4.438,4.438,0,0,1-2.036.488,4.353,4.353,0,0,1-3.433-1.44,5.737,5.737,0,0,1-1.274-3.94v-.3a6.362,6.362,0,0,1,.566-2.744,4.314,4.314,0,0,1,1.626-1.865,4.619,4.619,0,0,1,2.5-.664,4.238,4.238,0,0,1,2.954,1.064,3.8,3.8,0,0,1,1.255,2.764h-1.709a2.49,2.49,0,0,0-.776-1.685,2.415,2.415,0,0,0-1.724-.659,2.529,2.529,0,0,0-2.134.991,4.655,4.655,0,0,0-.757,2.866v.342a4.562,4.562,0,0,0,.752,2.813A2.541,2.541,0,0,0,326.973,98.721Zm10.469,0a2.6,2.6,0,0,0,1.689-.586,2.061,2.061,0,0,0,.8-1.465h1.709a3.276,3.276,0,0,1-.625,1.729,4.117,4.117,0,0,1-1.538,1.309,4.438,4.438,0,0,1-2.036.488,4.353,4.353,0,0,1-3.433-1.44,5.737,5.737,0,0,1-1.274-3.94v-.3a6.362,6.362,0,0,1,.566-2.744,4.314,4.314,0,0,1,1.626-1.865,4.619,4.619,0,0,1,2.5-.664,4.238,4.238,0,0,1,2.954,1.064,3.8,3.8,0,0,1,1.255,2.764h-1.709a2.49,2.49,0,0,0-.776-1.685,2.415,2.415,0,0,0-1.724-.659,2.529,2.529,0,0,0-2.134.991,4.655,4.655,0,0,0-.757,2.866v.342a4.562,4.562,0,0,0,.752,2.813A2.541,2.541,0,0,0,337.441,98.721Zm10.615,1.475a4.617,4.617,0,0,1-3.5-1.411,5.237,5.237,0,0,1-1.348-3.774v-.332a6.341,6.341,0,0,1,.6-2.808,4.685,4.685,0,0,1,1.68-1.934,4.223,4.223,0,0,1,2.339-.7,3.957,3.957,0,0,1,3.2,1.357,5.877,5.877,0,0,1,1.143,3.887v.752H345.02a3.756,3.756,0,0,0,.913,2.524,2.87,2.87,0,0,0,2.222.962,3.147,3.147,0,0,0,1.621-.391,4.073,4.073,0,0,0,1.162-1.035l1.1.859A4.437,4.437,0,0,1,348.057,100.2Zm-.225-9.473a2.41,2.41,0,0,0-1.836.8,3.869,3.869,0,0,0-.918,2.231h5.293v-.137a3.441,3.441,0,0,0-.742-2.134A2.269,2.269,0,0,0,347.832,90.723Zm6,3.906a6.19,6.19,0,0,1,1.152-3.911,3.921,3.921,0,0,1,5.957-.21V85h1.807v15h-1.66L361,98.867a3.679,3.679,0,0,1-3.018,1.328,3.609,3.609,0,0,1-2.993-1.5,6.26,6.26,0,0,1-1.157-3.926Zm1.807.205a4.687,4.687,0,0,0,.742,2.813,2.4,2.4,0,0,0,2.051,1.016,2.636,2.636,0,0,0,2.51-1.543V92.266a2.656,2.656,0,0,0-2.49-1.494,2.411,2.411,0,0,0-2.07,1.025A5.16,5.16,0,0,0,355.635,94.834Zm14.3,5.361a4.617,4.617,0,0,1-3.5-1.411,5.237,5.237,0,0,1-1.348-3.774v-.332a6.341,6.341,0,0,1,.6-2.808,4.685,4.685,0,0,1,1.68-1.934,4.223,4.223,0,0,1,2.339-.7,3.957,3.957,0,0,1,3.2,1.357,5.877,5.877,0,0,1,1.143,3.887v.752h-7.158a3.756,3.756,0,0,0,.913,2.524,2.87,2.87,0,0,0,2.222.962,3.147,3.147,0,0,0,1.621-.391,4.073,4.073,0,0,0,1.162-1.035l1.1.859A4.437,4.437,0,0,1,369.932,100.2Zm-.225-9.473a2.41,2.41,0,0,0-1.836.8,3.869,3.869,0,0,0-.918,2.231h5.293v-.137a3.441,3.441,0,0,0-.742-2.134A2.269,2.269,0,0,0,369.707,90.723Zm11.543.332a5.414,5.414,0,0,0-.889-.068,2.381,2.381,0,0,0-2.412,1.514V100h-1.807V89.434H377.9l.029,1.221a2.813,2.813,0,0,1,2.52-1.416,1.846,1.846,0,0,1,.8.137ZM394.385,100a3.8,3.8,0,0,1-.254-1.113,4.031,4.031,0,0,1-3.008,1.309,3.73,3.73,0,0,1-2.563-.884,2.859,2.859,0,0,1-1-2.241,2.987,2.987,0,0,1,1.255-2.563,5.916,5.916,0,0,1,3.53-.913H394.1v-.83a2.029,2.029,0,0,0-.566-1.509,2.276,2.276,0,0,0-1.67-.562,2.634,2.634,0,0,0-1.621.488,1.439,1.439,0,0,0-.654,1.182h-1.816a2.493,2.493,0,0,1,.562-1.528,3.833,3.833,0,0,1,1.523-1.167,5.125,5.125,0,0,1,2.114-.43,4.177,4.177,0,0,1,2.861.913,3.294,3.294,0,0,1,1.074,2.515v4.863a5.946,5.946,0,0,0,.371,2.314V100Zm-3-1.377A3.175,3.175,0,0,0,393,98.184a2.658,2.658,0,0,0,1.1-1.143V94.873h-1.416q-3.32,0-3.32,1.943a1.645,1.645,0,0,0,.566,1.328A2.177,2.177,0,0,0,391.387,98.623ZM405.654,100h-1.807V85h1.807Zm9.414,0a3.8,3.8,0,0,1-.254-1.113,4.031,4.031,0,0,1-3.008,1.309,3.73,3.73,0,0,1-2.563-.884,2.859,2.859,0,0,1-1-2.241,2.987,2.987,0,0,1,1.255-2.563,5.916,5.916,0,0,1,3.53-.913h1.758v-.83a2.029,2.029,0,0,0-.566-1.509,2.276,2.276,0,0,0-1.67-.562,2.634,2.634,0,0,0-1.621.488,1.439,1.439,0,0,0-.654,1.182h-1.816a2.493,2.493,0,0,1,.562-1.528,3.833,3.833,0,0,1,1.523-1.167,5.125,5.125,0,0,1,2.114-.43,4.177,4.177,0,0,1,2.861.913,3.294,3.294,0,0,1,1.074,2.515v4.863a5.946,5.946,0,0,0,.371,2.314V100Zm-3-1.377a3.175,3.175,0,0,0,1.611-.439,2.658,2.658,0,0,0,1.1-1.143V94.873h-1.416q-3.32,0-3.32,1.943a1.645,1.645,0,0,0,.566,1.328A2.177,2.177,0,0,0,412.07,98.623ZM3.33,127H1.523V116.434H3.33ZM1.377,113.631a1.078,1.078,0,0,1,.269-.742,1.008,1.008,0,0,1,.8-.3,1.024,1.024,0,0,1,.8.3,1.067,1.067,0,0,1,.273.742,1.032,1.032,0,0,1-.273.732,1.043,1.043,0,0,1-.8.293,1.026,1.026,0,0,1-.8-.293A1.043,1.043,0,0,1,1.377,113.631Zm6.553,2.8.059,1.328a3.85,3.85,0,0,1,3.164-1.523q3.35,0,3.379,3.779V127H12.725v-6.992a2.432,2.432,0,0,0-.522-1.689,2.094,2.094,0,0,0-1.6-.547,2.607,2.607,0,0,0-1.543.469,3.183,3.183,0,0,0-1.035,1.23V127H6.221V116.434ZM18.145,127v-9.17h-1.67v-1.4h1.67V115.35a3.6,3.6,0,0,1,.908-2.627,3.431,3.431,0,0,1,2.568-.928,4.77,4.77,0,0,1,1.24.165l-.1,1.456a5.189,5.189,0,0,0-.977-.088,1.763,1.763,0,0,0-1.357.514,2.086,2.086,0,0,0-.479,1.474v1.117h2.256v1.4H19.951V127Zm5.576-5.381a6.241,6.241,0,0,1,.61-2.793,4.553,4.553,0,0,1,1.7-1.914,4.626,4.626,0,0,1,2.485-.674,4.456,4.456,0,0,1,3.491,1.494,5.748,5.748,0,0,1,1.333,3.975v.127a6.3,6.3,0,0,1-.591,2.769,4.486,4.486,0,0,1-1.689,1.909,4.679,4.679,0,0,1-2.524.684,4.445,4.445,0,0,1-3.481-1.494,5.719,5.719,0,0,1-1.333-3.955Zm1.816.215a4.52,4.52,0,0,0,.815,2.822,2.763,2.763,0,0,0,4.37-.015,4.943,4.943,0,0,0,.811-3.022,4.513,4.513,0,0,0-.825-2.817,2.623,2.623,0,0,0-2.192-1.079,2.594,2.594,0,0,0-2.158,1.064A4.906,4.906,0,0,0,25.537,121.834Zm15.176-3.779a5.414,5.414,0,0,0-.889-.068,2.381,2.381,0,0,0-2.412,1.514V127H35.605V116.434h1.758l.029,1.221a2.813,2.813,0,0,1,2.52-1.416,1.846,1.846,0,0,1,.8.137Zm3.359-1.621.049,1.172a3.9,3.9,0,0,1,3.135-1.367,3.021,3.021,0,0,1,3.018,1.7,4,4,0,0,1,1.372-1.23,4.052,4.052,0,0,1,2-.469q3.477,0,3.535,3.682V127H55.371v-6.973a2.426,2.426,0,0,0-.518-1.694,2.279,2.279,0,0,0-1.738-.562,2.4,2.4,0,0,0-1.67.6,2.436,2.436,0,0,0-.771,1.616V127H48.857v-6.924a2.016,2.016,0,0,0-2.256-2.3,2.417,2.417,0,0,0-2.432,1.514V127H42.363V116.434ZM66.426,127a3.8,3.8,0,0,1-.254-1.113,4.031,4.031,0,0,1-3.008,1.309,3.73,3.73,0,0,1-2.563-.884,2.859,2.859,0,0,1-1-2.241,2.987,2.987,0,0,1,1.255-2.563,5.916,5.916,0,0,1,3.53-.913h1.758v-.83a2.029,2.029,0,0,0-.566-1.509,2.276,2.276,0,0,0-1.67-.562,2.634,2.634,0,0,0-1.621.488,1.439,1.439,0,0,0-.654,1.182H59.814a2.493,2.493,0,0,1,.562-1.528,3.832,3.832,0,0,1,1.523-1.167,5.125,5.125,0,0,1,2.114-.43,4.177,4.177,0,0,1,2.861.913,3.294,3.294,0,0,1,1.074,2.515v4.863a5.946,5.946,0,0,0,.371,2.314V127Zm-3-1.377a3.175,3.175,0,0,0,1.611-.439,2.658,2.658,0,0,0,1.1-1.143v-2.168H64.727q-3.32,0-3.32,1.943a1.645,1.645,0,0,0,.566,1.328A2.177,2.177,0,0,0,63.428,125.623Zm11.592.1a2.6,2.6,0,0,0,1.689-.586,2.061,2.061,0,0,0,.8-1.465h1.709a3.276,3.276,0,0,1-.625,1.729,4.116,4.116,0,0,1-1.538,1.309,4.438,4.438,0,0,1-2.036.488,4.353,4.353,0,0,1-3.433-1.44,5.737,5.737,0,0,1-1.274-3.94v-.3a6.361,6.361,0,0,1,.566-2.744A4.314,4.314,0,0,1,72.5,116.9a4.619,4.619,0,0,1,2.5-.664,4.238,4.238,0,0,1,2.954,1.064,3.8,3.8,0,0,1,1.255,2.764H77.51a2.49,2.49,0,0,0-.776-1.685,2.415,2.415,0,0,0-1.724-.659,2.529,2.529,0,0,0-2.134.991,4.655,4.655,0,0,0-.757,2.866v.342a4.562,4.562,0,0,0,.752,2.813A2.541,2.541,0,0,0,75.02,125.721ZM83.213,127H81.406V116.434h1.807ZM81.26,113.631a1.078,1.078,0,0,1,.269-.742,1.008,1.008,0,0,1,.8-.3,1.024,1.024,0,0,1,.8.3,1.067,1.067,0,0,1,.273.742,1.032,1.032,0,0,1-.273.732,1.043,1.043,0,0,1-.8.293,1.026,1.026,0,0,1-.8-.293A1.043,1.043,0,0,1,81.26,113.631Zm4.365,7.988a6.241,6.241,0,0,1,.61-2.793,4.553,4.553,0,0,1,1.7-1.914,4.626,4.626,0,0,1,2.485-.674,4.456,4.456,0,0,1,3.491,1.494,5.748,5.748,0,0,1,1.333,3.975v.127a6.3,6.3,0,0,1-.591,2.769,4.486,4.486,0,0,1-1.689,1.909,4.679,4.679,0,0,1-2.524.684,4.445,4.445,0,0,1-3.481-1.494,5.719,5.719,0,0,1-1.333-3.955Zm1.816.215a4.52,4.52,0,0,0,.815,2.822,2.763,2.763,0,0,0,4.37-.015,4.943,4.943,0,0,0,.811-3.022,4.513,4.513,0,0,0-.825-2.817,2.623,2.623,0,0,0-2.192-1.079,2.594,2.594,0,0,0-2.158,1.064A4.906,4.906,0,0,0,87.441,121.834ZM91.24,112h2.188l-2.617,2.871-1.455,0Zm7.979,4.434.059,1.328a3.85,3.85,0,0,1,3.164-1.523q3.35,0,3.379,3.779V127h-1.807v-6.992a2.432,2.432,0,0,0-.522-1.689,2.094,2.094,0,0,0-1.6-.547,2.607,2.607,0,0,0-1.543.469,3.183,3.183,0,0,0-1.035,1.23V127H97.51V116.434Zm23.2,5.4a6.327,6.327,0,0,1-1.1,3.887,3.537,3.537,0,0,1-2.988,1.475,3.875,3.875,0,0,1-3.027-1.221v5.088H113.5V116.434h1.65l.088,1.172a3.722,3.722,0,0,1,3.066-1.367,3.6,3.6,0,0,1,3.013,1.436,6.4,6.4,0,0,1,1.108,3.994Zm-1.807-.205a4.669,4.669,0,0,0-.762-2.822,2.454,2.454,0,0,0-2.09-1.035,2.656,2.656,0,0,0-2.461,1.455v5.049a2.661,2.661,0,0,0,2.48,1.445,2.442,2.442,0,0,0,2.065-1.03A5.1,5.1,0,0,0,120.615,121.629Zm10.625,4.326a3.837,3.837,0,0,1-3.1,1.24,3.285,3.285,0,0,1-2.573-.981,4.248,4.248,0,0,1-.894-2.905v-6.875h1.807v6.826q0,2.4,1.953,2.4a2.7,2.7,0,0,0,2.754-1.543v-7.686H133V127h-1.719Zm8.887,1.24a4.617,4.617,0,0,1-3.5-1.411,5.237,5.237,0,0,1-1.348-3.774v-.332a6.341,6.341,0,0,1,.6-2.808,4.685,4.685,0,0,1,1.68-1.934,4.223,4.223,0,0,1,2.339-.7,3.957,3.957,0,0,1,3.2,1.357,5.877,5.877,0,0,1,1.143,3.887v.752H137.09a3.756,3.756,0,0,0,.913,2.524,2.87,2.87,0,0,0,2.222.962,3.147,3.147,0,0,0,1.621-.391,4.073,4.073,0,0,0,1.162-1.035l1.1.859A4.437,4.437,0,0,1,140.127,127.2Zm-.225-9.473a2.41,2.41,0,0,0-1.836.8,3.868,3.868,0,0,0-.918,2.231h5.293v-.137a3.441,3.441,0,0,0-.742-2.134A2.269,2.269,0,0,0,139.9,117.723Zm6,3.906a6.19,6.19,0,0,1,1.152-3.911,3.921,3.921,0,0,1,5.957-.21V112h1.807v15h-1.66l-.088-1.133a3.679,3.679,0,0,1-3.018,1.328,3.609,3.609,0,0,1-2.993-1.5,6.26,6.26,0,0,1-1.157-3.926Zm1.807.205a4.687,4.687,0,0,0,.742,2.813,2.4,2.4,0,0,0,2.051,1.016,2.636,2.636,0,0,0,2.51-1.543v-4.854a2.656,2.656,0,0,0-2.49-1.494,2.411,2.411,0,0,0-2.07,1.025A5.16,5.16,0,0,0,147.705,121.834ZM162,127.2a4.617,4.617,0,0,1-3.5-1.411,5.237,5.237,0,0,1-1.348-3.774v-.332a6.341,6.341,0,0,1,.6-2.808,4.685,4.685,0,0,1,1.68-1.934,4.223,4.223,0,0,1,2.339-.7,3.957,3.957,0,0,1,3.2,1.357,5.877,5.877,0,0,1,1.143,3.887v.752h-7.158a3.756,3.756,0,0,0,.913,2.524,2.87,2.87,0,0,0,2.222.962,3.147,3.147,0,0,0,1.621-.391,4.073,4.073,0,0,0,1.162-1.035l1.1.859A4.437,4.437,0,0,1,162,127.2Zm-.225-9.473a2.41,2.41,0,0,0-1.836.8,3.868,3.868,0,0,0-.918,2.231h5.293v-.137a3.441,3.441,0,0,0-.742-2.134A2.269,2.269,0,0,0,161.777,117.723Zm10.947,3.906a6.19,6.19,0,0,1,1.152-3.911,3.921,3.921,0,0,1,5.957-.21V112h1.807v15h-1.66l-.088-1.133a3.679,3.679,0,0,1-3.018,1.328,3.609,3.609,0,0,1-2.993-1.5,6.26,6.26,0,0,1-1.157-3.926Zm1.807.205a4.687,4.687,0,0,0,.742,2.813,2.4,2.4,0,0,0,2.051,1.016,2.636,2.636,0,0,0,2.51-1.543v-4.854a2.656,2.656,0,0,0-2.49-1.494,2.411,2.411,0,0,0-2.07,1.025A5.16,5.16,0,0,0,174.531,121.834Zm14.3,5.361a4.617,4.617,0,0,1-3.5-1.411,5.237,5.237,0,0,1-1.348-3.774v-.332a6.341,6.341,0,0,1,.6-2.808,4.685,4.685,0,0,1,1.68-1.934,4.223,4.223,0,0,1,2.339-.7,3.957,3.957,0,0,1,3.2,1.357,5.877,5.877,0,0,1,1.143,3.887v.752h-7.158a3.756,3.756,0,0,0,.913,2.524,2.87,2.87,0,0,0,2.222.962,3.147,3.147,0,0,0,1.621-.391,4.073,4.073,0,0,0,1.162-1.035l1.1.859A4.437,4.437,0,0,1,188.828,127.2Zm-.225-9.473a2.41,2.41,0,0,0-1.836.8,3.868,3.868,0,0,0-.918,2.231h5.293v-.137a3.441,3.441,0,0,0-.742-2.134A2.269,2.269,0,0,0,188.6,117.723Zm12.588,6.475a1.33,1.33,0,0,0-.552-1.138,5.311,5.311,0,0,0-1.924-.7,9.1,9.1,0,0,1-2.178-.7,3.1,3.1,0,0,1-1.191-.977,2.336,2.336,0,0,1-.386-1.348,2.741,2.741,0,0,1,1.1-2.2,4.29,4.29,0,0,1,2.808-.9,4.415,4.415,0,0,1,2.915.928,2.947,2.947,0,0,1,1.118,2.373h-1.816a1.631,1.631,0,0,0-.63-1.279,2.36,2.36,0,0,0-1.587-.537,2.47,2.47,0,0,0-1.543.43,1.353,1.353,0,0,0-.557,1.123,1.1,1.1,0,0,0,.518.986,6.368,6.368,0,0,0,1.87.635,9.744,9.744,0,0,1,2.192.723,3.2,3.2,0,0,1,1.245,1.011,2.485,2.485,0,0,1,.405,1.44,2.7,2.7,0,0,1-1.133,2.271,4.752,4.752,0,0,1-2.939.854,5.321,5.321,0,0,1-2.246-.449,3.653,3.653,0,0,1-1.528-1.255,3.025,3.025,0,0,1-.552-1.743h1.807a1.87,1.87,0,0,0,.728,1.44,2.822,2.822,0,0,0,1.792.532,2.913,2.913,0,0,0,1.646-.415A1.275,1.275,0,0,0,201.191,124.2Zm8.4,1.523a2.6,2.6,0,0,0,1.689-.586,2.061,2.061,0,0,0,.8-1.465h1.709a3.276,3.276,0,0,1-.625,1.729,4.116,4.116,0,0,1-1.538,1.309,4.438,4.438,0,0,1-2.036.488,4.353,4.353,0,0,1-3.433-1.44,5.737,5.737,0,0,1-1.274-3.94v-.3a6.361,6.361,0,0,1,.566-2.744,4.314,4.314,0,0,1,1.626-1.865,4.619,4.619,0,0,1,2.5-.664,4.238,4.238,0,0,1,2.954,1.064,3.8,3.8,0,0,1,1.255,2.764H212.08a2.49,2.49,0,0,0-.776-1.685,2.415,2.415,0,0,0-1.724-.659,2.529,2.529,0,0,0-2.134.991,4.655,4.655,0,0,0-.757,2.866v.342a4.562,4.562,0,0,0,.752,2.813A2.541,2.541,0,0,0,209.59,125.721ZM222.344,127a3.8,3.8,0,0,1-.254-1.113,4.031,4.031,0,0,1-3.008,1.309,3.73,3.73,0,0,1-2.563-.884,2.859,2.859,0,0,1-1-2.241,2.987,2.987,0,0,1,1.255-2.563,5.916,5.916,0,0,1,3.53-.913h1.758v-.83a2.029,2.029,0,0,0-.566-1.509,2.276,2.276,0,0,0-1.67-.562,2.634,2.634,0,0,0-1.621.488,1.439,1.439,0,0,0-.654,1.182h-1.816a2.493,2.493,0,0,1,.562-1.528,3.832,3.832,0,0,1,1.523-1.167,5.125,5.125,0,0,1,2.114-.43,4.177,4.177,0,0,1,2.861.913,3.294,3.294,0,0,1,1.074,2.515v4.863a5.946,5.946,0,0,0,.371,2.314V127Zm-3-1.377a3.175,3.175,0,0,0,1.611-.439,2.658,2.658,0,0,0,1.1-1.143v-2.168h-1.416q-3.32,0-3.32,1.943a1.645,1.645,0,0,0,.566,1.328A2.177,2.177,0,0,0,219.346,125.623Zm12.461-7.568a5.414,5.414,0,0,0-.889-.068,2.381,2.381,0,0,0-2.412,1.514V127H226.7V116.434h1.758l.029,1.221a2.813,2.813,0,0,1,2.52-1.416,1.846,1.846,0,0,1,.8.137Zm1.045,3.574a6.21,6.21,0,0,1,1.143-3.931,3.939,3.939,0,0,1,6.045-.093l.088-1.172h1.65v10.313a4.3,4.3,0,0,1-1.216,3.232,4.487,4.487,0,0,1-3.267,1.182,5.435,5.435,0,0,1-2.236-.488,3.849,3.849,0,0,1-1.67-1.338l.938-1.084a3.533,3.533,0,0,0,2.842,1.436,2.768,2.768,0,0,0,2.056-.742,2.837,2.837,0,0,0,.737-2.09v-.908A3.713,3.713,0,0,1,237,127.2a3.609,3.609,0,0,1-3-1.494A6.529,6.529,0,0,1,232.852,121.629Zm1.816.205a4.738,4.738,0,0,0,.732,2.808,2.38,2.38,0,0,0,2.051,1.021,2.646,2.646,0,0,0,2.51-1.553v-4.824a2.677,2.677,0,0,0-2.49-1.514,2.4,2.4,0,0,0-2.061,1.025A5.16,5.16,0,0,0,234.668,121.834ZM251.025,127a3.8,3.8,0,0,1-.254-1.113,4.031,4.031,0,0,1-3.008,1.309,3.73,3.73,0,0,1-2.563-.884,2.859,2.859,0,0,1-1-2.241,2.987,2.987,0,0,1,1.255-2.563,5.916,5.916,0,0,1,3.53-.913h1.758v-.83a2.029,2.029,0,0,0-.566-1.509,2.276,2.276,0,0,0-1.67-.562,2.634,2.634,0,0,0-1.621.488,1.439,1.439,0,0,0-.654,1.182h-1.816a2.493,2.493,0,0,1,.562-1.528,3.832,3.832,0,0,1,1.523-1.167,5.125,5.125,0,0,1,2.114-.43,4.177,4.177,0,0,1,2.861.913,3.294,3.294,0,0,1,1.074,2.515v4.863a5.946,5.946,0,0,0,.371,2.314V127Zm-3-1.377a3.175,3.175,0,0,0,1.611-.439,2.658,2.658,0,0,0,1.1-1.143v-2.168h-1.416q-3.32,0-3.32,1.943a1.645,1.645,0,0,0,.566,1.328A2.177,2.177,0,0,0,248.027,125.623Zm12.461-7.568a5.414,5.414,0,0,0-.889-.068,2.381,2.381,0,0,0-2.412,1.514V127h-1.807V116.434h1.758l.029,1.221a2.813,2.813,0,0,1,2.52-1.416,1.846,1.846,0,0,1,.8.137Zm11,9.141a4.617,4.617,0,0,1-3.5-1.411,5.237,5.237,0,0,1-1.348-3.774v-.332a6.341,6.341,0,0,1,.6-2.808,4.685,4.685,0,0,1,1.68-1.934,4.223,4.223,0,0,1,2.339-.7,3.957,3.957,0,0,1,3.2,1.357,5.877,5.877,0,0,1,1.143,3.887v.752h-7.158a3.756,3.756,0,0,0,.913,2.524,2.87,2.87,0,0,0,2.222.962,3.147,3.147,0,0,0,1.621-.391,4.073,4.073,0,0,0,1.162-1.035l1.1.859A4.437,4.437,0,0,1,271.484,127.2Zm-.225-9.473a2.41,2.41,0,0,0-1.836.8,3.869,3.869,0,0,0-.918,2.231H273.8v-.137a3.441,3.441,0,0,0-.742-2.134A2.269,2.269,0,0,0,271.26,117.723Zm8.4,9.277h-1.807V112h1.807Zm13.994-2.8a1.33,1.33,0,0,0-.552-1.138,5.311,5.311,0,0,0-1.924-.7,9.1,9.1,0,0,1-2.178-.7,3.1,3.1,0,0,1-1.191-.977,2.336,2.336,0,0,1-.386-1.348,2.741,2.741,0,0,1,1.1-2.2,4.291,4.291,0,0,1,2.808-.9,4.415,4.415,0,0,1,2.915.928,2.947,2.947,0,0,1,1.118,2.373h-1.816a1.631,1.631,0,0,0-.63-1.279,2.36,2.36,0,0,0-1.587-.537,2.47,2.47,0,0,0-1.543.43,1.353,1.353,0,0,0-.557,1.123,1.1,1.1,0,0,0,.518.986,6.368,6.368,0,0,0,1.87.635,9.744,9.744,0,0,1,2.192.723,3.2,3.2,0,0,1,1.245,1.011,2.485,2.485,0,0,1,.405,1.44,2.7,2.7,0,0,1-1.133,2.271,4.752,4.752,0,0,1-2.939.854,5.321,5.321,0,0,1-2.246-.449,3.653,3.653,0,0,1-1.528-1.255,3.025,3.025,0,0,1-.552-1.743h1.807a1.87,1.87,0,0,0,.728,1.44,2.822,2.822,0,0,0,1.792.532,2.913,2.913,0,0,0,1.646-.415A1.275,1.275,0,0,0,293.652,124.2Zm6.123,2.8h-1.807V116.434h1.807Zm-1.953-13.369a1.078,1.078,0,0,1,.269-.742,1.008,1.008,0,0,1,.8-.3,1.024,1.024,0,0,1,.8.3,1.067,1.067,0,0,1,.273.742,1.032,1.032,0,0,1-.273.732,1.043,1.043,0,0,1-.8.293,1.026,1.026,0,0,1-.8-.293A1.043,1.043,0,0,1,297.822,113.631Zm4.414,8a6.21,6.21,0,0,1,1.143-3.931,3.939,3.939,0,0,1,6.045-.093l.088-1.172h1.65v10.313a4.3,4.3,0,0,1-1.216,3.232,4.487,4.487,0,0,1-3.267,1.182,5.435,5.435,0,0,1-2.236-.488,3.85,3.85,0,0,1-1.67-1.338l.938-1.084a3.533,3.533,0,0,0,2.842,1.436,2.768,2.768,0,0,0,2.056-.742,2.837,2.837,0,0,0,.737-2.09v-.908a3.713,3.713,0,0,1-2.959,1.25,3.609,3.609,0,0,1-3-1.494A6.529,6.529,0,0,1,302.236,121.629Zm1.816.205a4.738,4.738,0,0,0,.732,2.808,2.38,2.38,0,0,0,2.051,1.021,2.646,2.646,0,0,0,2.51-1.553v-4.824a2.677,2.677,0,0,0-2.49-1.514,2.4,2.4,0,0,0-2.061,1.025A5.16,5.16,0,0,0,304.053,121.834Zm16.357,4.121a3.837,3.837,0,0,1-3.1,1.24,3.285,3.285,0,0,1-2.573-.981,4.248,4.248,0,0,1-.894-2.905v-6.875h1.807v6.826q0,2.4,1.953,2.4a2.7,2.7,0,0,0,2.754-1.543v-7.686h1.807V127h-1.719ZM326.875,127h-1.807V116.434h1.807Zm-1.953-13.369a1.078,1.078,0,0,1,.269-.742,1.008,1.008,0,0,1,.8-.3,1.024,1.024,0,0,1,.8.3,1.067,1.067,0,0,1,.273.742,1.032,1.032,0,0,1-.273.732,1.043,1.043,0,0,1-.8.293,1.026,1.026,0,0,1-.8-.293A1.043,1.043,0,0,1,324.922,113.631ZM334.15,127.2a4.617,4.617,0,0,1-3.5-1.411,5.237,5.237,0,0,1-1.348-3.774v-.332a6.341,6.341,0,0,1,.6-2.808,4.685,4.685,0,0,1,1.68-1.934,4.223,4.223,0,0,1,2.339-.7,3.957,3.957,0,0,1,3.2,1.357,5.877,5.877,0,0,1,1.143,3.887v.752h-7.158a3.756,3.756,0,0,0,.913,2.524,2.87,2.87,0,0,0,2.222.962,3.147,3.147,0,0,0,1.621-.391,4.073,4.073,0,0,0,1.162-1.035l1.1.859A4.437,4.437,0,0,1,334.15,127.2Zm-.225-9.473a2.41,2.41,0,0,0-1.836.8,3.869,3.869,0,0,0-.918,2.231h5.293v-.137a3.441,3.441,0,0,0-.742-2.134A2.269,2.269,0,0,0,333.926,117.723Zm8.145-1.289.059,1.328a3.85,3.85,0,0,1,3.164-1.523q3.35,0,3.379,3.779V127h-1.807v-6.992a2.432,2.432,0,0,0-.522-1.689,2.094,2.094,0,0,0-1.6-.547,2.607,2.607,0,0,0-1.543.469,3.183,3.183,0,0,0-1.035,1.23V127h-1.807V116.434Zm11.777-2.559v2.559h1.973v1.4h-1.973v6.561a1.467,1.467,0,0,0,.264.953,1.11,1.11,0,0,0,.9.318,4.374,4.374,0,0,0,.859-.117V127a5.268,5.268,0,0,1-1.387.194,2.25,2.25,0,0,1-1.826-.732,3.147,3.147,0,0,1-.615-2.08V117.83h-1.924v-1.4h1.924v-2.559Zm8.467,13.32a4.617,4.617,0,0,1-3.5-1.411,5.237,5.237,0,0,1-1.348-3.774v-.332a6.341,6.341,0,0,1,.6-2.808,4.685,4.685,0,0,1,1.68-1.934,4.223,4.223,0,0,1,2.339-.7,3.957,3.957,0,0,1,3.2,1.357,5.877,5.877,0,0,1,1.143,3.887v.752h-7.158a3.756,3.756,0,0,0,.913,2.524,2.87,2.87,0,0,0,2.222.962,3.147,3.147,0,0,0,1.621-.391,4.073,4.073,0,0,0,1.162-1.035l1.1.859A4.437,4.437,0,0,1,362.314,127.2Zm-.225-9.473a2.41,2.41,0,0,0-1.836.8,3.869,3.869,0,0,0-.918,2.231h5.293v-.137a3.441,3.441,0,0,0-.742-2.134A2.269,2.269,0,0,0,362.09,117.723Zm13.545,3.711V127H373.76V112.781H379a5.269,5.269,0,0,1,3.657,1.191,4.039,4.039,0,0,1,1.323,3.154,3.986,3.986,0,0,1-1.294,3.188,5.5,5.5,0,0,1-3.706,1.118Zm0-1.533H379a3.369,3.369,0,0,0,2.3-.709,2.593,2.593,0,0,0,.8-2.05,2.679,2.679,0,0,0-.8-2.035,3.156,3.156,0,0,0-2.2-.792h-3.477Zm10.742,7.1V112.781h4.014a6.461,6.461,0,0,1,3.281.82,5.548,5.548,0,0,1,2.2,2.334,7.6,7.6,0,0,1,.786,3.477v.908a7.624,7.624,0,0,1-.776,3.525,5.461,5.461,0,0,1-2.217,2.324,6.873,6.873,0,0,1-3.354.83Zm1.875-12.686v11.152h1.973a4.292,4.292,0,0,0,3.374-1.349,5.573,5.573,0,0,0,1.206-3.841v-.831a5.661,5.661,0,0,0-1.138-3.768,4.049,4.049,0,0,0-3.228-1.364Zm19.082,6.406h-5.967V127h-1.875V112.781H408.3v1.533h-6.934v4.873h5.967Zm.684,5.332a1.131,1.131,0,0,1,.278-.781,1.061,1.061,0,0,1,.835-.312,1.092,1.092,0,0,1,.845.313,1.109,1.109,0,0,1,.288.781,1.048,1.048,0,0,1-.288.752,1.112,1.112,0,0,1-.845.3,1,1,0,0,1-1.113-1.055Z" transform="translate(-0.898 -3.795)"/>
</svg>
