<svg xmlns="http://www.w3.org/2000/svg" xmlns:xlink="http://www.w3.org/1999/xlink" width="1116.537" height="284" viewBox="0 0 1116.537 284">
  <defs>
    <clipPath id="clip-path">
      <rect id="Rectángulo_341289" data-name="Rectángulo 341289" width="186.915" height="80.988" fill="#b20d0d"/>
    </clipPath>
  </defs>
  <g id="Grupo_982809" data-name="Grupo 982809" transform="translate(-241.731 -2989)">
    <rect id="Rectángulo_341287" data-name="Rectángulo 341287" width="362" height="96" rx="22" transform="translate(394.5 3083)" fill="#06d1d1"/>
    <rect id="Rectángulo_341288" data-name="Rectángulo 341288" width="362" height="96" rx="22" transform="translate(842.5 3083)" fill="#06d1d1"/>
    <g id="Grupo_976416" data-name="Grupo 976416" transform="translate(521.5 3118)">
      <text id="Temperatura" transform="translate(-24)" font-size="24" font-family="Roboto-Black, Roboto" font-weight="800"><tspan x="8.932" y="23">Temperatura</tspan></text>
    </g>
    <path id="Trazado_716611" data-name="Trazado 716611" d="M23.615,9.113H18.494V23H14.381V9.113H9.354V5.938H23.615ZM30.26,23.234a6.518,6.518,0,0,1-4.723-1.74,6.009,6.009,0,0,1-1.8-4.529v-.328a7.787,7.787,0,0,1,.721-3.434,5.274,5.274,0,0,1,2.1-2.3,6.35,6.35,0,0,1,3.281-.814,5.489,5.489,0,0,1,4.219,1.658A6.516,6.516,0,0,1,35.6,16.367V17.9H27.752a2.846,2.846,0,0,0,.926,1.676,2.755,2.755,0,0,0,1.852.609,3.549,3.549,0,0,0,2.93-1.312l1.8,2.133a5.045,5.045,0,0,1-2.092,1.623A7.069,7.069,0,0,1,30.26,23.234Zm-.445-10.1q-1.734,0-2.062,2.3h3.984v-.3a1.956,1.956,0,0,0-.48-1.471A1.912,1.912,0,0,0,29.814,13.133ZM40.924,10.32l.129,1.488a4.36,4.36,0,0,1,3.621-1.723A3.21,3.21,0,0,1,47.92,12a4.22,4.22,0,0,1,3.727-1.91q3.855,0,3.961,4.664V23H51.646V15a2.417,2.417,0,0,0-.328-1.418,1.4,1.4,0,0,0-1.2-.445,1.871,1.871,0,0,0-1.746,1.043l.012.164V23H44.428V15.02a2.541,2.541,0,0,0-.316-1.441,1.393,1.393,0,0,0-1.207-.445,1.894,1.894,0,0,0-1.734,1.043V23H37.221V10.32Zm28.711,6.434a7.646,7.646,0,0,1-1.33,4.717,4.264,4.264,0,0,1-3.592,1.764,3.655,3.655,0,0,1-2.871-1.277v5.918H57.893V10.32h3.691l.117,1.172a3.656,3.656,0,0,1,2.988-1.406,4.3,4.3,0,0,1,3.645,1.729,7.741,7.741,0,0,1,1.3,4.752Zm-3.949-.246q0-3.375-1.969-3.375a1.859,1.859,0,0,0-1.875,1.008v4.992a1.919,1.919,0,0,0,1.9,1.055q1.887,0,1.945-3.258ZM77.51,23.234a6.518,6.518,0,0,1-4.723-1.74,6.009,6.009,0,0,1-1.8-4.529v-.328A7.787,7.787,0,0,1,71.7,13.2a5.274,5.274,0,0,1,2.1-2.3,6.35,6.35,0,0,1,3.281-.814,5.489,5.489,0,0,1,4.219,1.658,6.516,6.516,0,0,1,1.547,4.623V17.9H75a2.846,2.846,0,0,0,.926,1.676,2.755,2.755,0,0,0,1.852.609,3.549,3.549,0,0,0,2.93-1.312l1.8,2.133a5.045,5.045,0,0,1-2.092,1.623A7.069,7.069,0,0,1,77.51,23.234Zm-.445-10.1q-1.734,0-2.062,2.3h3.984v-.3a1.956,1.956,0,0,0-.48-1.471A1.912,1.912,0,0,0,77.064,13.133Zm15.047.762-1.3-.094a2.336,2.336,0,0,0-2.391,1.172V23H84.471V10.32h3.7l.129,1.629a3.058,3.058,0,0,1,2.777-1.863,3.851,3.851,0,0,1,1.1.141ZM100.326,23a4.459,4.459,0,0,1-.375-1.137A3.672,3.672,0,0,1,96.9,23.234a4.5,4.5,0,0,1-3.047-1.084A3.45,3.45,0,0,1,92.6,19.426a3.546,3.546,0,0,1,1.523-3.117,7.761,7.761,0,0,1,4.43-1.055h1.219v-.671q0-1.755-1.512-1.755a1.236,1.236,0,0,0-1.406,1.39H92.908a3.54,3.54,0,0,1,1.564-2.985,6.575,6.575,0,0,1,3.99-1.147,5.764,5.764,0,0,1,3.832,1.184,4.115,4.115,0,0,1,1.441,3.246v5.613a5.748,5.748,0,0,0,.539,2.672V23Zm-2.473-2.578a2.2,2.2,0,0,0,1.225-.316,1.983,1.983,0,0,0,.7-.715V17.363H98.627q-2.062,0-2.062,1.852a1.131,1.131,0,0,0,.363.873A1.315,1.315,0,0,0,97.854,20.422ZM110.521,7.168V10.32h2.086v2.742h-2.086v5.8a1.481,1.481,0,0,0,.258,1,1.383,1.383,0,0,0,1.02.281,5.793,5.793,0,0,0,.984-.07v2.824a7.288,7.288,0,0,1-2.227.34,4.137,4.137,0,0,1-3.012-.961,3.939,3.939,0,0,1-.973-2.918V13.063h-1.617V10.32h1.617V7.168Zm11.191,14.461a4.072,4.072,0,0,1-3.387,1.605,3.993,3.993,0,0,1-3.158-1.213,5.1,5.1,0,0,1-1.072-3.486V10.32h3.949v8.238a1.419,1.419,0,0,0,1.582,1.629,2.064,2.064,0,0,0,1.934-.973V10.32h3.973V23h-3.7Zm13.652-7.734-1.3-.094a2.336,2.336,0,0,0-2.391,1.172V23h-3.949V10.32h3.7l.129,1.629a3.058,3.058,0,0,1,2.777-1.863,3.851,3.851,0,0,1,1.1.141ZM143.58,23a4.459,4.459,0,0,1-.375-1.137,3.672,3.672,0,0,1-3.047,1.371,4.5,4.5,0,0,1-3.047-1.084,3.45,3.45,0,0,1-1.254-2.725,3.546,3.546,0,0,1,1.523-3.117,7.761,7.761,0,0,1,4.43-1.055h1.219v-.671q0-1.755-1.512-1.755a1.236,1.236,0,0,0-1.406,1.39h-3.949a3.54,3.54,0,0,1,1.564-2.985,6.575,6.575,0,0,1,3.99-1.147,5.764,5.764,0,0,1,3.832,1.184,4.115,4.115,0,0,1,1.441,3.246v5.613a5.748,5.748,0,0,0,.539,2.672V23Zm-2.473-2.578a2.2,2.2,0,0,0,1.225-.316,1.983,1.983,0,0,0,.7-.715V17.363h-1.148q-2.062,0-2.062,1.852a1.131,1.131,0,0,0,.363.873A1.315,1.315,0,0,0,141.107,20.422Z" transform="translate(497.5 3118)"/>
    <path id="Trazado_716612" data-name="Trazado 716612" d="M37.631,19.813H31.994L31.01,23H26.615L32.873,5.938H36.74L43.045,23H38.627Zm-4.652-3.176h3.668l-1.84-5.918ZM48.271,23H44.311V10.32h3.961Zm-4.2-15.949a1.763,1.763,0,0,1,.609-1.383,2.591,2.591,0,0,1,3.164,0,1.763,1.763,0,0,1,.609,1.383,1.763,1.763,0,0,1-.609,1.383,2.591,2.591,0,0,1-3.164,0A1.763,1.763,0,0,1,44.076,7.051Zm14.3,6.844-1.3-.094a2.336,2.336,0,0,0-2.391,1.172V23H50.732V10.32h3.7l.129,1.629a3.058,3.058,0,0,1,2.777-1.863,3.851,3.851,0,0,1,1.1.141Zm7.336,9.34a6.518,6.518,0,0,1-4.723-1.74,6.009,6.009,0,0,1-1.8-4.529v-.328A7.787,7.787,0,0,1,59.9,13.2a5.274,5.274,0,0,1,2.1-2.3,6.35,6.35,0,0,1,3.281-.814,5.489,5.489,0,0,1,4.219,1.658,6.516,6.516,0,0,1,1.547,4.623V17.9H63.2a2.846,2.846,0,0,0,.926,1.676,2.755,2.755,0,0,0,1.852.609,3.549,3.549,0,0,0,2.93-1.312l1.8,2.133a5.045,5.045,0,0,1-2.092,1.623A7.069,7.069,0,0,1,65.709,23.234Zm-.445-10.1q-1.734,0-2.062,2.3h3.984v-.3a1.956,1.956,0,0,0-.48-1.471A1.912,1.912,0,0,0,65.264,13.133ZM79.783,23a4.459,4.459,0,0,1-.375-1.137,3.672,3.672,0,0,1-3.047,1.371,4.5,4.5,0,0,1-3.047-1.084,3.45,3.45,0,0,1-1.254-2.725,3.546,3.546,0,0,1,1.523-3.117,7.761,7.761,0,0,1,4.43-1.055h1.219v-.671q0-1.755-1.512-1.755a1.236,1.236,0,0,0-1.406,1.39H72.365a3.54,3.54,0,0,1,1.564-2.985,6.575,6.575,0,0,1,3.99-1.147,5.764,5.764,0,0,1,3.832,1.184,4.115,4.115,0,0,1,1.441,3.246v5.613a5.748,5.748,0,0,0,.539,2.672V23Zm-2.473-2.578a2.2,2.2,0,0,0,1.225-.316,1.983,1.983,0,0,0,.7-.715V17.363H78.084q-2.062,0-2.062,1.852a1.131,1.131,0,0,0,.363.873A1.315,1.315,0,0,0,77.311,20.422Zm13.43-.234a1.756,1.756,0,0,0,1.289-.451,1.654,1.654,0,0,0,.445-1.26h3.7A4.384,4.384,0,0,1,94.684,21.9a5.558,5.558,0,0,1-3.85,1.336A5.627,5.627,0,0,1,86.475,21.5a6.834,6.834,0,0,1-1.594-4.8v-.164a7.723,7.723,0,0,1,.709-3.393,5.162,5.162,0,0,1,2.045-2.262,6.1,6.1,0,0,1,3.164-.791,5.488,5.488,0,0,1,3.926,1.371,4.863,4.863,0,0,1,1.453,3.715h-3.7a2.168,2.168,0,0,0-.48-1.512,1.658,1.658,0,0,0-1.289-.527q-1.535,0-1.793,1.957A13.809,13.809,0,0,0,88.83,16.8a5.424,5.424,0,0,0,.457,2.648A1.582,1.582,0,0,0,90.74,20.188ZM102.014,23H98.053V10.32h3.961Zm-4.2-15.949a1.763,1.763,0,0,1,.609-1.383,2.591,2.591,0,0,1,3.164,0,1.763,1.763,0,0,1,.609,1.383,1.763,1.763,0,0,1-.609,1.383,2.591,2.591,0,0,1-3.164,0A1.763,1.763,0,0,1,97.818,7.051Zm6.129,9.492a7.484,7.484,0,0,1,.738-3.381,5.28,5.28,0,0,1,2.121-2.279,6.388,6.388,0,0,1,3.246-.8,5.83,5.83,0,0,1,4.488,1.764,6.768,6.768,0,0,1,1.641,4.8v.141a6.566,6.566,0,0,1-1.646,4.705,5.846,5.846,0,0,1-4.459,1.74,5.912,5.912,0,0,1-4.348-1.623,6.348,6.348,0,0,1-1.77-4.4Zm3.949.246a4.718,4.718,0,0,0,.551,2.578,1.835,1.835,0,0,0,1.629.82q2.109,0,2.156-3.246v-.4q0-3.41-2.18-3.41-1.98,0-2.145,2.941ZM110.592,5h4.172l-3.258,3.68-3.223-.006Zm10.957,5.32.129,1.488a4.3,4.3,0,0,1,3.621-1.723,3.618,3.618,0,0,1,2.959,1.184,5.635,5.635,0,0,1,1.014,3.563V23h-3.961V15a2.14,2.14,0,0,0-.387-1.412,1.789,1.789,0,0,0-1.406-.451,1.883,1.883,0,0,0-1.723.914V23h-3.949V10.32Z" transform="translate(945.5 3118)"/>
    <g id="Grupo_976420" data-name="Grupo 976420" transform="translate(706.042 2989)">
      <g id="Grupo_976419" data-name="Grupo 976419" transform="translate(0 0)" clip-path="url(#clip-path)">
        <path id="Trazado_710372" data-name="Trazado 710372" d="M186.915,70.41,184.325,19.8,172.688,31.931C155.148,12.726,128.287.31,98.026.006,45.6-.523,2.417,35.48,0,80.987c6.911-35.833,42.735-62.935,85.529-62.5,26.3.259,49.685,10.879,65.2,27.363L133.15,51.77Z" transform="translate(0 0.002)" fill="#b20d0d" fill-rule="evenodd"/>
      </g>
    </g>
    <g id="Grupo_976421" data-name="Grupo 976421" transform="translate(892.958 3273) rotate(180)">
      <g id="Grupo_976419-2" data-name="Grupo 976419" transform="translate(0 0)" clip-path="url(#clip-path)">
        <path id="Trazado_710372-2" data-name="Trazado 710372" d="M186.915,70.41,184.325,19.8,172.688,31.931C155.148,12.726,128.287.31,98.026.006,45.6-.523,2.417,35.48,0,80.987c6.911-35.833,42.735-62.935,85.529-62.5,26.3.259,49.685,10.879,65.2,27.363L133.15,51.77Z" transform="translate(0 0.002)" fill="#b20d0d" fill-rule="evenodd"/>
      </g>
    </g>
    <g id="Grupo_976422" data-name="Grupo 976422" transform="translate(-105.56 -256.113)">
      <path id="Trazado_710373" data-name="Trazado 710373" d="M204.226,102.113A102.113,102.113,0,1,1,102.113,0,102.113,102.113,0,0,1,204.226,102.113" transform="translate(347.292 3290)" fill="#ffe8ce"/>
      <path id="Trazado_710374" data-name="Trazado 710374" d="M197.863,188.695V109.361a2,2,0,0,0-2-2h-.041a2,2,0,0,0-2,2v79.415a12.787,12.787,0,1,0,4.044-.081" transform="translate(252.477 3234.469)" fill="#a44040"/>
      <path id="Trazado_710375" data-name="Trazado 710375" d="M173.493,111.113v55.331a22.825,22.825,0,0,0-9.393,25.088c2.605,9.518,11.64,15.994,21.325,16.293,9.854.3,18.561-6.429,21.722-15.548,3.341-9.644-.931-20.285-9.173-25.832V95.569c0-3.168.305-6.54-.276-9.674-1.769-9.533-16-10.827-21.646-4.381-2.955,3.376-2.558,7.667-2.558,11.794Zm3.441,56.236V94.879c0-3.549-.6-7.708,1.45-10.8,2.336-3.522,8.884-3.885,12.4-2.093,2.7,1.376,3.747,4.211,3.747,7.058v78.337a1.585,1.585,0,0,0,.539,1.249,1.951,1.951,0,0,0,.313.237,19.289,19.289,0,0,1,3.506,30.251c-8.564,8.447-22.875,6.144-29.267-3.641a19.225,19.225,0,0,1-1.759-16.858,18.98,18.98,0,0,1,4.768-7.159c1.13-1.109,4.3-2.325,4.3-4.113" transform="translate(262.837 3249.902)" fill="#272425"/>
      <path id="Trazado_710376" data-name="Trazado 710376" d="M140.582,115.242a18.092,18.092,0,0,0,18.092,18.092V97.15a18.092,18.092,0,0,0-18.092,18.092" transform="translate(274.576 3239.75)" fill="#272425"/>
      <path id="Trazado_710377" data-name="Trazado 710377" d="M116.406,75.956,127.9,85.184c1.614,1.3,3.926-.984,2.294-2.295L118.7,73.662c-1.615-1.3-3.926.984-2.295,2.294" transform="translate(287.37 3252.098)" fill="#272425"/>
      <path id="Trazado_710378" data-name="Trazado 710378" d="M154.6,63.21c.948,1.866,3.747.223,2.8-1.638l-6.622-13.033c-.948-1.866-3.747-.223-2.8,1.638L154.6,63.21" transform="translate(270.849 3265.319)" fill="#272425"/>
      <path id="Trazado_710379" data-name="Trazado 710379" d="M100.483,149.868l14.562-3.324c2.04-.465,1.175-3.594-.862-3.129l-14.562,3.324c-2.04.465-1.175,3.594.863,3.129" transform="translate(296.365 3215.844)" fill="#272425"/>
      <path id="Trazado_710380" data-name="Trazado 710380" d="M99.621,112.846l14.5,3.31c2.037.465,2.9-2.663.863-3.129l-14.5-3.31c-2.037-.464-2.9,2.664-.863,3.129" transform="translate(296.365 3233.274)" fill="#272425"/>
      <path id="Trazado_710381" data-name="Trazado 710381" d="M127.895,168.379,116.4,177.543c-1.636,1.3.676,3.585,2.295,2.295l11.491-9.164c1.636-1.3-.676-3.585-2.294-2.295" transform="translate(287.372 3203.105)" fill="#272425"/>
      <path id="Trazado_710382" data-name="Trazado 710382" d="M150.783,200.5,157.4,187.4c.941-1.862-1.858-3.506-2.8-1.637l-6.622,13.106c-.941,1.862,1.858,3.505,2.8,1.637" transform="translate(270.848 3194.343)" fill="#272425"/>
      <path id="Trazado_710383" data-name="Trazado 710383" d="M249.058,126.7h7.865a1.467,1.467,0,0,0,0-2.933h-7.865a1.467,1.467,0,0,0,0,2.933" transform="translate(219.201 3225.98)" fill="#272425"/>
      <path id="Trazado_710384" data-name="Trazado 710384" d="M249.058,162.883h7.865a1.467,1.467,0,0,0,0-2.933h-7.865a1.467,1.467,0,0,0,0,2.933" transform="translate(219.201 3207.267)" fill="#272425"/>
      <path id="Trazado_710385" data-name="Trazado 710385" d="M249.058,202.3h7.865a1.467,1.467,0,0,0,0-2.933h-7.865a1.467,1.467,0,0,0,0,2.933" transform="translate(219.201 3186.878)" fill="#272425"/>
    </g>
    <g id="Grupo_976423" data-name="Grupo 976423" transform="translate(552.56 -518.25)">
      <g id="Grupo_976424" data-name="Grupo 976424">
        <path id="Trazado_710386" data-name="Trazado 710386" d="M730.767,645.113A102.113,102.113,0,1,1,628.654,543,102.113,102.113,0,0,1,730.767,645.113" transform="translate(74.941 3009.136)" fill="#ffe8ce"/>
        <path id="Trazado_710387" data-name="Trazado 710387" d="M669.9,590.626a4.741,4.741,0,0,0,8.281,4.573c1.558-2.825.646-10.955.646-10.955s-7.319,3.477-8.927,6.382" transform="translate(1.08 2987.803)" fill="#65a7dd"/>
        <path id="Trazado_710388" data-name="Trazado 710388" d="M723.089,590.626a4.739,4.739,0,0,0,8.277,4.573c1.56-2.825.645-10.955.645-10.955s-7.319,3.477-8.923,6.382" transform="translate(-26.434 2987.803)" fill="#65a7dd"/>
        <path id="Trazado_710389" data-name="Trazado 710389" d="M776.275,590.626a4.741,4.741,0,0,0,8.281,4.573c1.56-2.825.646-10.955.646-10.955s-7.319,3.477-8.927,6.382" transform="translate(-53.945 2987.803)" fill="#65a7dd"/>
        <path id="Trazado_710390" data-name="Trazado 710390" d="M692.5,625.2a4.741,4.741,0,0,0,8.281,4.573c1.56-2.825.646-10.955.646-10.955s-7.321,3.474-8.927,6.382" transform="translate(-10.613 2969.921)" fill="#65a7dd"/>
        <path id="Trazado_710391" data-name="Trazado 710391" d="M745.692,625.2a4.74,4.74,0,0,0,8.28,4.573c1.558-2.825.644-10.955.644-10.955s-7.318,3.474-8.923,6.382" transform="translate(-38.125 2969.921)" fill="#65a7dd"/>
        <path id="Trazado_710392" data-name="Trazado 710392" d="M807.808,618.817s-7.322,3.474-8.928,6.382a4.741,4.741,0,0,0,8.281,4.572c1.56-2.825.647-10.954.647-10.954" transform="translate(-65.637 2969.921)" fill="#65a7dd"/>
        <path id="Trazado_710393" data-name="Trazado 710393" d="M673.049,582a1,1,0,0,0-1.488-.854c-3.585,1.717-8.676,4.119-9.854,8.243-.752,2.632,1.309,5.542,3.75,6.377a5.526,5.526,0,0,0,6.636-2.061,1.568,1.568,0,0,0,.3-.538c1.473-3.329,1.038-7.656.655-11.167m-2.489,10.455c-1.633,2.528-4.875,2.071-6.5-.249-1.6-2.287.623-4.425,2.3-5.7a32.815,32.815,0,0,1,4.877-3c.31,2.944.543,6.427-.676,8.941" transform="translate(5.109 2989.467)" fill="#272425"/>
        <path id="Trazado_710394" data-name="Trazado 710394" d="M725.284,593.7a.993.993,0,0,0,.174-.249,1.013,1.013,0,0,0,.125-.285c1.475-3.328,1.04-7.658.656-11.169a1,1,0,0,0-1.488-.854c-3.585,1.717-8.672,4.119-9.85,8.243-.751,2.63,1.306,5.542,3.747,6.377a5.524,5.524,0,0,0,6.636-2.063m-8.03-1.5c-1.6-2.287.621-4.424,2.3-5.7a32.783,32.783,0,0,1,4.876-3c.311,2.944.543,6.427-.676,8.941-1.63,2.529-4.875,2.071-6.5-.249" transform="translate(-22.405 2989.467)" fill="#272425"/>
        <path id="Trazado_710395" data-name="Trazado 710395" d="M779.429,582a1,1,0,0,0-1.488-.854c-3.584,1.717-8.677,4.119-9.853,8.243-.75,2.63,1.3,5.542,3.746,6.377a5.53,5.53,0,0,0,6.64-2.062,1.578,1.578,0,0,0,.3-.536c1.475-3.328,1.039-7.657.655-11.168m-2.489,10.455c-1.632,2.528-4.878,2.072-6.5-.249-1.6-2.288.622-4.424,2.3-5.7a32.827,32.827,0,0,1,4.877-3c.311,2.944.543,6.427-.676,8.941" transform="translate(-49.916 2989.467)" fill="#272425"/>
        <path id="Trazado_710396" data-name="Trazado 710396" d="M688.063,630.342a5.525,5.525,0,0,0,6.636-2.063,1,1,0,0,0,.174-.25,1.017,1.017,0,0,0,.126-.286c1.475-3.328,1.039-7.658.655-11.168a1,1,0,0,0-1.488-.854c-3.586,1.716-8.676,4.118-9.854,8.242-.751,2.631,1.31,5.543,3.751,6.378m.9-9.257a32.827,32.827,0,0,1,4.878-2.995c.311,2.944.544,6.427-.676,8.941-1.632,2.529-4.875,2.071-6.5-.249-1.6-2.288.62-4.425,2.3-5.7" transform="translate(-6.584 2971.584)" fill="#272425"/>
        <path id="Trazado_710397" data-name="Trazado 710397" d="M741.25,630.342a5.527,5.527,0,0,0,6.638-2.063,1,1,0,0,0,.175-.25,1.017,1.017,0,0,0,.125-.286c1.474-3.329,1.038-7.657.654-11.167a1,1,0,0,0-1.488-.854c-3.587,1.717-8.67,4.118-9.851,8.242-.754,2.63,1.309,5.543,3.748,6.378m.9-9.257a32.78,32.78,0,0,1,4.876-2.995c.311,2.944.544,6.427-.674,8.941-1.631,2.53-4.877,2.071-6.5-.249-1.6-2.286.623-4.425,2.3-5.7" transform="translate(-34.095 2971.584)" fill="#272425"/>
        <path id="Trazado_710398" data-name="Trazado 710398" d="M790.692,623.964c-.749,2.629,1.3,5.543,3.746,6.378a5.529,5.529,0,0,0,6.639-2.063,1,1,0,0,0,.174-.249,1.014,1.014,0,0,0,.125-.285c1.475-3.328,1.041-7.658.658-11.168a1,1,0,0,0-1.488-.854c-3.585,1.715-8.678,4.117-9.854,8.242m4.65-2.88a32.83,32.83,0,0,1,4.879-2.995c.31,2.944.542,6.427-.678,8.941-1.63,2.529-4.877,2.072-6.5-.249-1.6-2.288.621-4.425,2.3-5.7" transform="translate(-61.608 2971.584)" fill="#272425"/>
        <path id="Trazado_710399" data-name="Trazado 710399" d="M734.052,817.416h-2.466V788.053a1.319,1.319,0,0,0-2.637,0v29.363h-2.466a1.331,1.331,0,0,0-1.319,1.319v19.517a1.331,1.331,0,0,0,1.319,1.318h7.569a1.219,1.219,0,0,0,.895-.353c.013-.011.024-.023.037-.034s.024-.024.034-.037a1.219,1.219,0,0,0,.353-.894V818.735a1.331,1.331,0,0,0-1.319-1.319m-1.318,19.517H727.8v-16.88h4.932Z" transform="translate(-27.795 2883.044)" fill="#272425"/>
        <path id="Trazado_710400" data-name="Trazado 710400" d="M699.9,773.4c-4.8-3.9-10.505-6.174-16.644-4.352a16.445,16.445,0,0,0-7.376,4.615c-1.122,1.269.736,3.142,1.865,1.865a14.36,14.36,0,0,1,5.3-3.615c5.341-2.174,10.733-.106,14.991,3.351,1.308,1.062,3.186-.793,1.865-1.865" transform="translate(-2.124 2892.544)" fill="#272425"/>
        <path id="Trazado_710401" data-name="Trazado 710401" d="M767.7,773.4c-4.8-3.9-10.506-6.174-16.644-4.352a16.445,16.445,0,0,0-7.376,4.615c-1.122,1.269.736,3.142,1.865,1.865a14.359,14.359,0,0,1,5.3-3.615c5.341-2.174,10.733-.106,14.991,3.351,1.308,1.062,3.186-.793,1.865-1.865" transform="translate(-37.195 2892.544)" fill="#272425"/>
        <path id="Trazado_710402" data-name="Trazado 710402" d="M830.044,767.816c-4.57-3.557-9.969-5.46-15.4-2.647a16.031,16.031,0,0,0-6.36,6.422c-.763,1.415,1.39,2.674,2.153,1.259a14.619,14.619,0,0,1,4.067-4.643c4.5-3.366,9.651-1.836,13.775,1.373,1.253.975,3.031-.777,1.763-1.763" transform="translate(-70.706 2894.922)" fill="#272425"/>
        <path id="Trazado_710403" data-name="Trazado 710403" d="M623.763,767.057c-1.424.748-.164,2.9,1.259,2.153a12.008,12.008,0,0,1,15.918,3.834c.893,1.326,3.054.079,2.153-1.259a14.561,14.561,0,0,0-19.329-4.729" transform="translate(24.978 2894.198)" fill="#272425"/>
        <path id="Trazado_710404" data-name="Trazado 710404" d="M735.5,717.606c-1.21-9.022-5.146-17.975-10.225-25.447-9.827-14.458-25.4-22.533-42.614-24.27-18.48-1.866-36.891,3.474-49.835,17.107a69.841,69.841,0,0,0-16.178,29.372c-.263.953-.515,1.916-.7,2.887-.313,1.662,2.228,2.371,2.543.7,1.438-7.627,4.885-15.119,8.954-21.659a54.328,54.328,0,0,1,40.44-25.745c.2-.023.408-.04.612-.06-11.406,6.912-19.625,17.628-24.149,30.314a63.089,63.089,0,0,0-3.96,21.609,1.32,1.32,0,0,0,2.638,0,61.572,61.572,0,0,1,3.563-20.033,54.287,54.287,0,0,1,25.853-31.1v50.867a1.319,1.319,0,0,0,2.637,0V671.021c12.443,6.649,21.29,17.719,25.853,31.1a60.555,60.555,0,0,1,3.564,20.032,1.319,1.319,0,0,0,2.637,0,64.11,64.11,0,0,0-3.96-21.609,57.04,57.04,0,0,0-24.185-30.336c15.281.76,30.063,6.711,40.331,18.5a59.815,59.815,0,0,1,13.409,28.109c.036.2.189,1.2.134.788.223,1.66,2.863,1.681,2.637,0" transform="translate(28.708 2944.725)" fill="#272425"/>
        <path id="Trazado_710405" data-name="Trazado 710405" d="M735.641,659.936V657.3a1.319,1.319,0,0,0-2.637,0v2.637a1.319,1.319,0,0,0,2.637,0" transform="translate(-31.85 2950.676)" fill="#272425"/>
      </g>
    </g>
  </g>
</svg>
