<svg xmlns="http://www.w3.org/2000/svg" xmlns:xlink="http://www.w3.org/1999/xlink" width="703.794" height="337.669" viewBox="0 0 703.794 337.669">
  <defs>
    <clipPath id="clip-path">
      <rect id="Rectángulo_341306" data-name="Rectángulo 341306" width="298.314" height="292.575" fill="none"/>
    </clipPath>
    <clipPath id="clip-path-3">
      <rect id="Rectángulo_341291" data-name="Rectángulo 341291" width="28.355" height="51.679" fill="none"/>
    </clipPath>
    <clipPath id="clip-path-4">
      <rect id="Rectángulo_341294" data-name="Rectángulo 341294" width="29.881" height="46.082" fill="none"/>
    </clipPath>
    <clipPath id="clip-path-5">
      <rect id="Rectángulo_341292" data-name="Rectángulo 341292" width="15.091" height="34.785" fill="none"/>
    </clipPath>
    <clipPath id="clip-path-6">
      <rect id="Rectángulo_341293" data-name="Rectángulo 341293" width="17.984" height="10.27" fill="none"/>
    </clipPath>
    <clipPath id="clip-path-10">
      <rect id="Rectángulo_341298" data-name="Rectángulo 341298" width="25.571" height="31.294" fill="none"/>
    </clipPath>
    <clipPath id="clip-path-11">
      <rect id="Rectángulo_341299" data-name="Rectángulo 341299" width="31.554" height="14.438" fill="none"/>
    </clipPath>
    <clipPath id="clip-path-12">
      <rect id="Rectángulo_341300" data-name="Rectángulo 341300" width="13.277" height="25.854" fill="none"/>
    </clipPath>
    <clipPath id="clip-path-13">
      <rect id="Rectángulo_341301" data-name="Rectángulo 341301" width="4.634" height="6.433" fill="none"/>
    </clipPath>
    <clipPath id="clip-path-14">
      <rect id="Rectángulo_341302" data-name="Rectángulo 341302" width="51.432" height="23.621" fill="none"/>
    </clipPath>
    <clipPath id="clip-path-15">
      <rect id="Rectángulo_341303" data-name="Rectángulo 341303" width="214.66" height="27.061" fill="none"/>
    </clipPath>
    <clipPath id="clip-path-16">
      <rect id="Rectángulo_341304" data-name="Rectángulo 341304" width="171.918" height="18.317" fill="none"/>
    </clipPath>
  </defs>
  <g id="Grupo_982804" data-name="Grupo 982804" transform="translate(-378.475 -3595)">
    <path id="Trazado_716564" data-name="Trazado 716564" d="M5.492,10.4H2.82V15H1.313V3.625H5.078A4.457,4.457,0,0,1,8.035,4.5,3.148,3.148,0,0,1,9.07,7.047,3.062,3.062,0,0,1,8.5,8.9a3.428,3.428,0,0,1-1.6,1.18L9.57,14.906V15H7.961ZM2.82,9.172h2.3A2.6,2.6,0,0,0,6.9,8.593a1.959,1.959,0,0,0,.66-1.55,2.062,2.062,0,0,0-.629-1.62,2.663,2.663,0,0,0-1.816-.571H2.82Zm11.633,5.984a3.693,3.693,0,0,1-2.8-1.129,4.19,4.19,0,0,1-1.078-3.02v-.266a5.073,5.073,0,0,1,.48-2.246A3.748,3.748,0,0,1,12.4,6.949a3.378,3.378,0,0,1,1.871-.559,3.166,3.166,0,0,1,2.563,1.086,4.7,4.7,0,0,1,.914,3.109v.6H12.023a3,3,0,0,0,.73,2.02,2.3,2.3,0,0,0,1.777.77,2.517,2.517,0,0,0,1.3-.312,3.259,3.259,0,0,0,.93-.828l.883.688A3.55,3.55,0,0,1,14.453,15.156Zm-.18-7.578a1.928,1.928,0,0,0-1.469.637A3.1,3.1,0,0,0,12.07,10H16.3V9.891a2.753,2.753,0,0,0-.594-1.707A1.815,1.815,0,0,0,14.273,7.578Zm10.367,6.586a3.07,3.07,0,0,1-2.477.992,2.628,2.628,0,0,1-2.059-.785,3.4,3.4,0,0,1-.715-2.324v-5.5h1.445v5.461q0,1.922,1.563,1.922A2.163,2.163,0,0,0,24.6,12.7V6.547h1.445V15H24.672ZM30.2,4.5V6.547h1.578V7.664H30.2v5.249a1.173,1.173,0,0,0,.211.763.888.888,0,0,0,.719.254,3.5,3.5,0,0,0,.688-.094V15a4.215,4.215,0,0,1-1.109.155,1.8,1.8,0,0,1-1.461-.586,2.517,2.517,0,0,1-.492-1.664V7.664H27.219V6.547h1.539V4.5ZM35.039,15H33.594V6.547h1.445ZM33.477,4.3a.863.863,0,0,1,.215-.594.807.807,0,0,1,.637-.242.819.819,0,0,1,.641.242.854.854,0,0,1,.219.594.826.826,0,0,1-.219.586.834.834,0,0,1-.641.234.821.821,0,0,1-.637-.234A.834.834,0,0,1,33.477,4.3ZM38.922,15H37.477V3h1.445ZM42.8,15H41.359V6.547H42.8ZM41.242,4.3a.863.863,0,0,1,.215-.594.807.807,0,0,1,.637-.242.819.819,0,0,1,.641.242.854.854,0,0,1,.219.594.826.826,0,0,1-.219.586.834.834,0,0,1-.641.234.821.821,0,0,1-.637-.234A.834.834,0,0,1,41.242,4.3Zm5.234,9.516h4.945V15H44.711V13.938l4.664-6.2H44.781v-1.2h6.406V7.57ZM58.266,15a3.036,3.036,0,0,1-.2-.891,3.225,3.225,0,0,1-2.406,1.047,2.984,2.984,0,0,1-2.051-.707,2.287,2.287,0,0,1-.8-1.793,2.39,2.39,0,0,1,1-2.051,4.733,4.733,0,0,1,2.824-.73h1.406V9.211A1.623,1.623,0,0,0,57.586,8a1.821,1.821,0,0,0-1.336-.449,2.107,2.107,0,0,0-1.3.391,1.151,1.151,0,0,0-.523.945H52.977a2,2,0,0,1,.449-1.223,3.066,3.066,0,0,1,1.219-.934,4.1,4.1,0,0,1,1.691-.344,3.342,3.342,0,0,1,2.289.73,2.635,2.635,0,0,1,.859,2.012v3.891a4.757,4.757,0,0,0,.3,1.852V15Zm-2.4-1.1a2.54,2.54,0,0,0,1.289-.352,2.127,2.127,0,0,0,.883-.914V10.9H56.906q-2.656,0-2.656,1.555a1.316,1.316,0,0,0,.453,1.063A1.742,1.742,0,0,0,55.867,13.9Zm9.273.078a2.082,2.082,0,0,0,1.352-.469,1.649,1.649,0,0,0,.641-1.172H68.5a2.621,2.621,0,0,1-.5,1.383,3.293,3.293,0,0,1-1.23,1.047,3.55,3.55,0,0,1-1.629.391A3.482,3.482,0,0,1,62.395,14a4.59,4.59,0,0,1-1.02-3.152v-.242a5.089,5.089,0,0,1,.453-2.2,3.451,3.451,0,0,1,1.3-1.492,3.7,3.7,0,0,1,2-.531,3.39,3.39,0,0,1,2.363.852,3.043,3.043,0,0,1,1,2.211H67.133a1.992,1.992,0,0,0-.621-1.348,1.932,1.932,0,0,0-1.379-.527,2.023,2.023,0,0,0-1.707.793,3.724,3.724,0,0,0-.605,2.293v.273a3.65,3.65,0,0,0,.6,2.25A2.033,2.033,0,0,0,65.141,13.977ZM71.7,15H70.25V6.547H71.7ZM70.133,4.3a.863.863,0,0,1,.215-.594.807.807,0,0,1,.637-.242.819.819,0,0,1,.641.242.854.854,0,0,1,.219.594.826.826,0,0,1-.219.586.834.834,0,0,1-.641.234.821.821,0,0,1-.637-.234A.834.834,0,0,1,70.133,4.3ZM73.625,10.7a4.993,4.993,0,0,1,.488-2.234A3.643,3.643,0,0,1,75.473,6.93a3.7,3.7,0,0,1,1.988-.539,3.565,3.565,0,0,1,2.793,1.2,4.6,4.6,0,0,1,1.066,3.18v.1a5.036,5.036,0,0,1-.473,2.215A3.589,3.589,0,0,1,79.5,14.609a3.743,3.743,0,0,1-2.02.547,3.556,3.556,0,0,1-2.785-1.2A4.575,4.575,0,0,1,73.625,10.8Zm1.453.172a3.616,3.616,0,0,0,.652,2.258,2.211,2.211,0,0,0,3.5-.012,3.955,3.955,0,0,0,.648-2.418,3.61,3.61,0,0,0-.66-2.254,2.1,2.1,0,0,0-1.754-.863,2.075,2.075,0,0,0-1.727.852A3.925,3.925,0,0,0,75.078,10.867ZM78.117,3h1.75L77.773,5.3l-1.164,0ZM84.5,6.547l.047,1.063a3.08,3.08,0,0,1,2.531-1.219q2.68,0,2.7,3.023V15H88.336V9.406a1.946,1.946,0,0,0-.418-1.352,1.675,1.675,0,0,0-1.277-.437,2.086,2.086,0,0,0-1.234.375,2.546,2.546,0,0,0-.828.984V15H83.133V6.547ZM95.57,10.7a4.952,4.952,0,0,1,.922-3.129,3.137,3.137,0,0,1,4.766-.168V3H102.7V15h-1.328l-.07-.906a2.943,2.943,0,0,1-2.414,1.063,2.887,2.887,0,0,1-2.395-1.2,5.008,5.008,0,0,1-.926-3.141Zm1.445.164a3.749,3.749,0,0,0,.594,2.25,1.92,1.92,0,0,0,1.641.813,2.108,2.108,0,0,0,2.008-1.234V8.813a2.125,2.125,0,0,0-1.992-1.2,1.929,1.929,0,0,0-1.656.82A4.128,4.128,0,0,0,97.016,10.867Zm11.438,4.289a3.693,3.693,0,0,1-2.8-1.129,4.19,4.19,0,0,1-1.078-3.02v-.266a5.073,5.073,0,0,1,.48-2.246A3.748,3.748,0,0,1,106.4,6.949a3.378,3.378,0,0,1,1.871-.559,3.166,3.166,0,0,1,2.563,1.086,4.7,4.7,0,0,1,.914,3.109v.6h-5.727a3,3,0,0,0,.73,2.02,2.3,2.3,0,0,0,1.777.77,2.517,2.517,0,0,0,1.3-.312,3.259,3.259,0,0,0,.93-.828l.883.688A3.55,3.55,0,0,1,108.453,15.156Zm-.18-7.578a1.928,1.928,0,0,0-1.469.637A3.1,3.1,0,0,0,106.07,10H110.3V9.891a2.753,2.753,0,0,0-.594-1.707A1.815,1.815,0,0,0,108.273,7.578Zm13.2.266a4.331,4.331,0,0,0-.711-.055A1.9,1.9,0,0,0,118.828,9v6h-1.445V6.547h1.406l.023.977a2.251,2.251,0,0,1,2.016-1.133,1.477,1.477,0,0,1,.641.109Zm4.688,7.313a3.693,3.693,0,0,1-2.8-1.129,4.19,4.19,0,0,1-1.078-3.02v-.266a5.073,5.073,0,0,1,.48-2.246,3.748,3.748,0,0,1,1.344-1.547,3.378,3.378,0,0,1,1.871-.559,3.166,3.166,0,0,1,2.563,1.086,4.7,4.7,0,0,1,.914,3.109v.6h-5.727a3,3,0,0,0,.73,2.02,2.3,2.3,0,0,0,1.777.77,2.517,2.517,0,0,0,1.3-.312,3.259,3.259,0,0,0,.93-.828l.883.688A3.55,3.55,0,0,1,126.156,15.156Zm-.18-7.578a1.928,1.928,0,0,0-1.469.637A3.1,3.1,0,0,0,123.773,10h4.234V9.891a2.753,2.753,0,0,0-.594-1.707A1.815,1.815,0,0,0,125.977,7.578Zm10.07,5.18a1.064,1.064,0,0,0-.441-.91,4.249,4.249,0,0,0-1.539-.559,7.277,7.277,0,0,1-1.742-.562,2.479,2.479,0,0,1-.953-.781,1.869,1.869,0,0,1-.309-1.078,2.193,2.193,0,0,1,.879-1.758,3.432,3.432,0,0,1,2.246-.719,3.532,3.532,0,0,1,2.332.742,2.357,2.357,0,0,1,.895,1.9h-1.453a1.3,1.3,0,0,0-.5-1.023,1.888,1.888,0,0,0-1.27-.43,1.976,1.976,0,0,0-1.234.344,1.082,1.082,0,0,0-.445.9.877.877,0,0,0,.414.789,5.1,5.1,0,0,0,1.5.508,7.8,7.8,0,0,1,1.754.578,2.558,2.558,0,0,1,1,.809,1.988,1.988,0,0,1,.324,1.152,2.163,2.163,0,0,1-.906,1.816,3.8,3.8,0,0,1-2.352.684,4.257,4.257,0,0,1-1.8-.359,2.922,2.922,0,0,1-1.223-1,2.42,2.42,0,0,1-.441-1.395h1.445a1.5,1.5,0,0,0,.582,1.152,2.258,2.258,0,0,0,1.434.426,2.331,2.331,0,0,0,1.316-.332A1.02,1.02,0,0,0,136.047,12.758Zm4.9,2.242H139.5V6.547h1.445ZM139.383,4.3a.863.863,0,0,1,.215-.594.807.807,0,0,1,.637-.242.819.819,0,0,1,.641.242.854.854,0,0,1,.219.594.826.826,0,0,1-.219.586.834.834,0,0,1-.641.234.821.821,0,0,1-.637-.234A.834.834,0,0,1,139.383,4.3Zm3.523,6.4a4.952,4.952,0,0,1,.922-3.129,3.137,3.137,0,0,1,4.766-.168V3h1.445V15h-1.328l-.07-.906a2.943,2.943,0,0,1-2.414,1.063,2.887,2.887,0,0,1-2.395-1.2,5.008,5.008,0,0,1-.926-3.141Zm1.445.164a3.749,3.749,0,0,0,.594,2.25,1.919,1.919,0,0,0,1.641.813,2.108,2.108,0,0,0,2.008-1.234V8.813a2.125,2.125,0,0,0-1.992-1.2,1.929,1.929,0,0,0-1.656.82A4.128,4.128,0,0,0,144.352,10.867Zm13.148,3.3a3.07,3.07,0,0,1-2.477.992,2.628,2.628,0,0,1-2.059-.785,3.4,3.4,0,0,1-.715-2.324v-5.5H153.7v5.461q0,1.922,1.563,1.922a2.163,2.163,0,0,0,2.2-1.234V6.547h1.445V15h-1.375Zm3.219-3.469a4.993,4.993,0,0,1,.488-2.234,3.642,3.642,0,0,1,1.359-1.531,3.7,3.7,0,0,1,1.988-.539,3.565,3.565,0,0,1,2.793,1.2,4.6,4.6,0,0,1,1.066,3.18v.1a5.036,5.036,0,0,1-.473,2.215,3.589,3.589,0,0,1-1.352,1.527,3.743,3.743,0,0,1-2.02.547,3.556,3.556,0,0,1-2.785-1.2,4.575,4.575,0,0,1-1.066-3.164Zm1.453.172a3.616,3.616,0,0,0,.652,2.258,2.211,2.211,0,0,0,3.5-.012,3.954,3.954,0,0,0,.648-2.418,3.61,3.61,0,0,0-.66-2.254,2.1,2.1,0,0,0-1.754-.863,2.075,2.075,0,0,0-1.727.852A3.925,3.925,0,0,0,162.172,10.867Zm12.977,1.891a1.064,1.064,0,0,0-.441-.91,4.249,4.249,0,0,0-1.539-.559,7.277,7.277,0,0,1-1.742-.562,2.479,2.479,0,0,1-.953-.781,1.869,1.869,0,0,1-.309-1.078,2.193,2.193,0,0,1,.879-1.758,3.432,3.432,0,0,1,2.246-.719,3.532,3.532,0,0,1,2.332.742,2.357,2.357,0,0,1,.895,1.9h-1.453a1.3,1.3,0,0,0-.5-1.023,1.888,1.888,0,0,0-1.27-.43,1.976,1.976,0,0,0-1.234.344,1.082,1.082,0,0,0-.445.9.877.877,0,0,0,.414.789,5.1,5.1,0,0,0,1.5.508,7.8,7.8,0,0,1,1.754.578,2.558,2.558,0,0,1,1,.809,1.988,1.988,0,0,1,.324,1.152,2.163,2.163,0,0,1-.906,1.816,3.8,3.8,0,0,1-2.352.684,4.257,4.257,0,0,1-1.8-.359,2.922,2.922,0,0,1-1.223-1,2.42,2.42,0,0,1-.441-1.395h1.445a1.5,1.5,0,0,0,.582,1.152,2.258,2.258,0,0,0,1.434.426,2.331,2.331,0,0,0,1.316-.332A1.02,1.02,0,0,0,175.148,12.758Zm6.906-2.062a4.993,4.993,0,0,1,.488-2.234A3.642,3.642,0,0,1,183.9,6.93a3.7,3.7,0,0,1,1.988-.539,3.565,3.565,0,0,1,2.793,1.2,4.6,4.6,0,0,1,1.066,3.18v.1a5.036,5.036,0,0,1-.473,2.215,3.589,3.589,0,0,1-1.352,1.527,3.743,3.743,0,0,1-2.02.547,3.556,3.556,0,0,1-2.785-1.2,4.575,4.575,0,0,1-1.066-3.164Zm1.453.172a3.616,3.616,0,0,0,.652,2.258,2.211,2.211,0,0,0,3.5-.012A3.954,3.954,0,0,0,188.3,10.7a3.61,3.61,0,0,0-.66-2.254,2.1,2.1,0,0,0-1.754-.863,2.075,2.075,0,0,0-1.727.852A3.925,3.925,0,0,0,183.508,10.867Zm12.141-3.023a4.331,4.331,0,0,0-.711-.055A1.9,1.9,0,0,0,193.008,9v6h-1.445V6.547h1.406l.023.977a2.251,2.251,0,0,1,2.016-1.133,1.477,1.477,0,0,1,.641.109Zm.836,2.859a4.968,4.968,0,0,1,.914-3.145,3.151,3.151,0,0,1,4.836-.074l.07-.937h1.32V14.8a3.439,3.439,0,0,1-.973,2.586,3.589,3.589,0,0,1-2.613.945,4.348,4.348,0,0,1-1.789-.391,3.08,3.08,0,0,1-1.336-1.07l.75-.867a2.826,2.826,0,0,0,2.273,1.148,2.214,2.214,0,0,0,1.645-.594,2.269,2.269,0,0,0,.59-1.672v-.727a2.971,2.971,0,0,1-2.367,1,2.887,2.887,0,0,1-2.4-1.2A5.224,5.224,0,0,1,196.484,10.7Zm1.453.164a3.79,3.79,0,0,0,.586,2.246,1.9,1.9,0,0,0,1.641.816,2.117,2.117,0,0,0,2.008-1.242V8.828a2.142,2.142,0,0,0-1.992-1.211,1.921,1.921,0,0,0-1.648.82A4.128,4.128,0,0,0,197.938,10.867ZM211.023,15a3.036,3.036,0,0,1-.2-.891,3.225,3.225,0,0,1-2.406,1.047,2.984,2.984,0,0,1-2.051-.707,2.287,2.287,0,0,1-.8-1.793,2.39,2.39,0,0,1,1-2.051,4.733,4.733,0,0,1,2.824-.73H210.8V9.211A1.623,1.623,0,0,0,210.344,8a1.821,1.821,0,0,0-1.336-.449,2.107,2.107,0,0,0-1.3.391,1.151,1.151,0,0,0-.523.945h-1.453a2,2,0,0,1,.449-1.223,3.066,3.066,0,0,1,1.219-.934,4.1,4.1,0,0,1,1.691-.344,3.342,3.342,0,0,1,2.289.73,2.635,2.635,0,0,1,.859,2.012v3.891a4.757,4.757,0,0,0,.3,1.852V15Zm-2.4-1.1a2.54,2.54,0,0,0,1.289-.352,2.127,2.127,0,0,0,.883-.914V10.9h-1.133q-2.656,0-2.656,1.555a1.316,1.316,0,0,0,.453,1.063A1.742,1.742,0,0,0,208.625,13.9ZM209.961,3h1.75l-2.094,2.3-1.164,0Zm5.914,3.547.047,1.063a3.08,3.08,0,0,1,2.531-1.219q2.68,0,2.7,3.023V15h-1.445V9.406a1.946,1.946,0,0,0-.418-1.352,1.675,1.675,0,0,0-1.277-.437,2.086,2.086,0,0,0-1.234.375,2.546,2.546,0,0,0-.828.984V15h-1.445V6.547ZM224.906,15h-1.445V6.547h1.445ZM223.344,4.3a.863.863,0,0,1,.215-.594.807.807,0,0,1,.637-.242.819.819,0,0,1,.641.242.854.854,0,0,1,.219.594.826.826,0,0,1-.219.586.834.834,0,0,1-.641.234.821.821,0,0,1-.637-.234A.834.834,0,0,1,223.344,4.3Zm7.266,9.672a2.082,2.082,0,0,0,1.352-.469,1.649,1.649,0,0,0,.641-1.172h1.367a2.621,2.621,0,0,1-.5,1.383,3.293,3.293,0,0,1-1.23,1.047,3.55,3.55,0,0,1-1.629.391A3.482,3.482,0,0,1,227.863,14a4.59,4.59,0,0,1-1.02-3.152v-.242a5.089,5.089,0,0,1,.453-2.2,3.451,3.451,0,0,1,1.3-1.492,3.7,3.7,0,0,1,2-.531,3.39,3.39,0,0,1,2.363.852,3.043,3.043,0,0,1,1,2.211H232.6a1.992,1.992,0,0,0-.621-1.348,1.932,1.932,0,0,0-1.379-.527,2.023,2.023,0,0,0-1.707.793,3.724,3.724,0,0,0-.605,2.293v.273a3.65,3.65,0,0,0,.6,2.25A2.033,2.033,0,0,0,230.609,13.977Zm4.6-3.281a4.993,4.993,0,0,1,.488-2.234,3.642,3.642,0,0,1,1.359-1.531,3.7,3.7,0,0,1,1.988-.539,3.565,3.565,0,0,1,2.793,1.2,4.6,4.6,0,0,1,1.066,3.18v.1a5.036,5.036,0,0,1-.473,2.215,3.589,3.589,0,0,1-1.352,1.527,3.743,3.743,0,0,1-2.02.547,3.556,3.556,0,0,1-2.785-1.2,4.575,4.575,0,0,1-1.066-3.164Zm1.453.172a3.616,3.616,0,0,0,.652,2.258,2.211,2.211,0,0,0,3.5-.012,3.954,3.954,0,0,0,.648-2.418,3.61,3.61,0,0,0-.66-2.254,2.1,2.1,0,0,0-1.754-.863,2.075,2.075,0,0,0-1.727.852A3.925,3.925,0,0,0,236.664,10.867Zm12.977,1.891a1.064,1.064,0,0,0-.441-.91,4.249,4.249,0,0,0-1.539-.559,7.277,7.277,0,0,1-1.742-.562,2.479,2.479,0,0,1-.953-.781,1.869,1.869,0,0,1-.309-1.078,2.193,2.193,0,0,1,.879-1.758,3.432,3.432,0,0,1,2.246-.719,3.532,3.532,0,0,1,2.332.742,2.357,2.357,0,0,1,.895,1.9h-1.453a1.3,1.3,0,0,0-.5-1.023,1.888,1.888,0,0,0-1.27-.43,1.976,1.976,0,0,0-1.234.344,1.082,1.082,0,0,0-.445.9.877.877,0,0,0,.414.789,5.1,5.1,0,0,0,1.5.508,7.8,7.8,0,0,1,1.754.578,2.558,2.558,0,0,1,1,.809,1.988,1.988,0,0,1,.324,1.152,2.163,2.163,0,0,1-.906,1.816,3.8,3.8,0,0,1-2.352.684,4.257,4.257,0,0,1-1.8-.359,2.922,2.922,0,0,1-1.223-1,2.42,2.42,0,0,1-.441-1.395h1.445a1.5,1.5,0,0,0,.582,1.152,2.258,2.258,0,0,0,1.434.426,2.331,2.331,0,0,0,1.316-.332A1.02,1.02,0,0,0,249.641,12.758Z" transform="translate(831.184 3863.62)" fill="#12263f"/>
    <path id="Trazado_716563" data-name="Trazado 716563" d="M11.32-4.333a4.673,4.673,0,0,1-.721,2.36A4.35,4.35,0,0,1,8.75-.387a6.3,6.3,0,0,1-2.72.563A5.025,5.025,0,0,1,2.057-1.468,6.786,6.786,0,0,1,.606-6.108v-.633a7.746,7.746,0,0,1,.655-3.292,4.961,4.961,0,0,1,1.885-2.18,5.26,5.26,0,0,1,2.848-.769,5.516,5.516,0,0,1,3.744,1.226,4.844,4.844,0,0,1,1.608,3.379H8.271a2.292,2.292,0,0,0-.589-1.679,2.422,2.422,0,0,0-1.687-.51A1.843,1.843,0,0,0,4.307-9.7a5.536,5.536,0,0,0-.562,2.751v.905A6.125,6.125,0,0,0,4.258-3.12a1.882,1.882,0,0,0,1.771.879,2.369,2.369,0,0,0,1.626-.5,2.126,2.126,0,0,0,.6-1.591Zm.949-.51a5.613,5.613,0,0,1,.554-2.536,3.96,3.96,0,0,1,1.591-1.709,4.791,4.791,0,0,1,2.435-.6,4.373,4.373,0,0,1,3.366,1.323,5.076,5.076,0,0,1,1.23,3.6v.105A4.925,4.925,0,0,1,20.21-1.129,4.384,4.384,0,0,1,16.866.176a4.434,4.434,0,0,1-3.261-1.217,4.761,4.761,0,0,1-1.327-3.3Zm2.962.185a3.538,3.538,0,0,0,.413,1.934,1.376,1.376,0,0,0,1.222.615q1.582,0,1.617-2.435v-.3q0-2.558-1.635-2.558-1.485,0-1.608,2.206ZM25.55-9.51l.1,1.116a3.27,3.27,0,0,1,2.716-1.292A2.407,2.407,0,0,1,30.8-8.253a3.165,3.165,0,0,1,2.795-1.433q2.892,0,2.971,3.5V0H33.592V-6a1.813,1.813,0,0,0-.246-1.063,1.048,1.048,0,0,0-.9-.334,1.4,1.4,0,0,0-1.31.782l.009.123V0H28.178V-5.985a1.906,1.906,0,0,0-.237-1.081,1.045,1.045,0,0,0-.905-.334,1.42,1.42,0,0,0-1.3.782V0H22.772V-9.51ZM47.083-4.685a5.735,5.735,0,0,1-1,3.538A3.2,3.2,0,0,1,43.392.176a2.742,2.742,0,0,1-2.153-.958V3.656H38.276V-9.51h2.769l.088.879a2.742,2.742,0,0,1,2.241-1.055,3.224,3.224,0,0,1,2.733,1.3,5.805,5.805,0,0,1,.976,3.564Zm-2.962-.185q0-2.531-1.477-2.531a1.394,1.394,0,0,0-1.406.756V-2.9a1.439,1.439,0,0,0,1.424.791q1.415,0,1.459-2.443Zm3.894.026a5.613,5.613,0,0,1,.554-2.536,3.96,3.96,0,0,1,1.591-1.709,4.791,4.791,0,0,1,2.435-.6A4.373,4.373,0,0,1,55.96-8.363a5.076,5.076,0,0,1,1.23,3.6v.105a4.925,4.925,0,0,1-1.235,3.529A4.384,4.384,0,0,1,52.611.176a4.434,4.434,0,0,1-3.261-1.217,4.761,4.761,0,0,1-1.327-3.3Zm2.962.185a3.538,3.538,0,0,0,.413,1.934,1.376,1.376,0,0,0,1.222.615q1.582,0,1.617-2.435v-.3q0-2.558-1.635-2.558-1.485,0-1.608,2.206Zm12.5,1.986a.684.684,0,0,0-.4-.606,6.016,6.016,0,0,0-1.5-.475A6.853,6.853,0,0,1,59.748-4.4a3.062,3.062,0,0,1-1.1-.971,2.319,2.319,0,0,1-.378-1.31,2.628,2.628,0,0,1,1.081-2.158,4.453,4.453,0,0,1,2.83-.848,4.934,4.934,0,0,1,3.023.853,2.666,2.666,0,0,1,1.143,2.241H63.378q0-1.143-1.2-1.143a1.194,1.194,0,0,0-.782.259.8.8,0,0,0-.316.646.737.737,0,0,0,.387.642,3.654,3.654,0,0,0,1.235.4,10.671,10.671,0,0,1,1.49.378A2.706,2.706,0,0,1,66.331-2.76,2.491,2.491,0,0,1,65.175-.642a5.068,5.068,0,0,1-2.993.817A5.172,5.172,0,0,1,60-.264a3.645,3.645,0,0,1-1.494-1.2,2.707,2.707,0,0,1-.536-1.591h2.769a1.145,1.145,0,0,0,.439.962,1.808,1.808,0,0,0,1.081.3,1.422,1.422,0,0,0,.91-.246A.787.787,0,0,0,63.475-2.672Zm7.69-9.2V-9.51h1.564v2.057H71.165V-3.1a1.111,1.111,0,0,0,.193.747,1.037,1.037,0,0,0,.765.211,4.345,4.345,0,0,0,.738-.053V-.079a5.466,5.466,0,0,1-1.67.255,3.1,3.1,0,0,1-2.259-.721A2.954,2.954,0,0,1,68.2-2.733v-4.72H66.99V-9.51H68.2v-2.364ZM79.251,0a3.344,3.344,0,0,1-.281-.853A2.754,2.754,0,0,1,76.685.176,3.374,3.374,0,0,1,74.4-.637a2.588,2.588,0,0,1-.94-2.043A2.66,2.66,0,0,1,74.6-5.019a5.821,5.821,0,0,1,3.322-.791h.914v-.5q0-1.316-1.134-1.316a.927.927,0,0,0-1.055,1.042H73.688a2.655,2.655,0,0,1,1.173-2.239,4.931,4.931,0,0,1,2.993-.86,4.323,4.323,0,0,1,2.874.888,3.086,3.086,0,0,1,1.081,2.435v4.21a4.311,4.311,0,0,0,.4,2V0ZM77.4-1.934a1.652,1.652,0,0,0,.918-.237,1.487,1.487,0,0,0,.523-.536V-4.228h-.861q-1.547,0-1.547,1.389a.848.848,0,0,0,.272.655A.986.986,0,0,0,77.4-1.934ZM86.634-9.51V.325a3.452,3.452,0,0,1-.967,2.6A3.714,3.714,0,0,1,83,3.841a6.308,6.308,0,0,1-1.4-.149V1.45a5.667,5.667,0,0,0,.835.079A1.084,1.084,0,0,0,83.663.308V-9.51Zm-3.19-2.452A1.322,1.322,0,0,1,83.9-13a1.724,1.724,0,0,1,1.187-.4,1.724,1.724,0,0,1,1.187.4,1.322,1.322,0,0,1,.457,1.037,1.322,1.322,0,0,1-.457,1.037,1.724,1.724,0,0,1-1.187.4,1.724,1.724,0,0,1-1.187-.4A1.322,1.322,0,0,1,83.443-11.962ZM92.909.176a4.889,4.889,0,0,1-3.542-1.305,4.507,4.507,0,0,1-1.354-3.4v-.246a5.84,5.84,0,0,1,.541-2.575,3.955,3.955,0,0,1,1.578-1.727,4.763,4.763,0,0,1,2.461-.611,4.117,4.117,0,0,1,3.164,1.244,4.887,4.887,0,0,1,1.16,3.467v1.151H91.028a2.135,2.135,0,0,0,.694,1.257,2.066,2.066,0,0,0,1.389.457,2.662,2.662,0,0,0,2.2-.984l1.354,1.6A3.784,3.784,0,0,1,95.093-.277,5.3,5.3,0,0,1,92.909.176ZM92.575-7.4q-1.3,0-1.547,1.723h2.988v-.229a1.467,1.467,0,0,0-.36-1.1A1.434,1.434,0,0,0,92.575-7.4Z" transform="translate(831.184 3832.625)" fill="#12263f"/>
    <g id="Image_Place_Holder" data-name="Image Place Holder" transform="translate(378.475 3661.899)" opacity="0.1">
      <rect id="Image_Place_Holder-2" data-name="Image Place Holder" width="400" height="270.769" rx="10" fill="#06d1d1"/>
    </g>
    <g id="Grupo_976472" data-name="Grupo 976472" transform="translate(415.398 3595)">
      <g id="Grupo_976471" data-name="Grupo 976471" clip-path="url(#clip-path)">
        <g id="Grupo_976470" data-name="Grupo 976470">
          <g id="Grupo_976469" data-name="Grupo 976469" clip-path="url(#clip-path)">
            <path id="Trazado_710406" data-name="Trazado 710406" d="M62.232,5.734q-18.7,48.23-39.618,95.561c8.062,5.726,19.379,5.993,28.867,3.2s17.667-9.163,23.8-16.921,10.364-16.86,13.682-26.179c3.048-8.562,5.39-17.823,3.35-26.682-1.625-7.059-5.967-13.3-11.407-18.08S68.923,8.507,62.232,5.734" transform="translate(37.221 9.438)" fill="#5d6d23"/>
            <path id="Trazado_710407" data-name="Trazado 710407" d="M43.914,98.34c8.486-1.556,16.175-6.313,22.2-12.486S76.61,72.14,80.219,64.306c4.734-10.279,8.094-22.041,4.7-32.836A33.994,33.994,0,0,0,73.54,15.5,52.751,52.751,0,0,0,59.382,7.619Q42.2,51.634,23.159,94.9A30.421,30.421,0,0,0,43.914,98.34" transform="translate(38.118 12.54)" fill="#ffce88"/>
            <path id="Trazado_710408" data-name="Trazado 710408" d="M43.419,95.632c7.721-1.609,14.711-5.932,20.3-11.5A72.158,72.158,0,0,0,77.051,64.717c4.57-9.261,7.943-19.718,5.882-29.838a34.235,34.235,0,0,0-9.385-16.966,48.5,48.5,0,0,0-14.87-10Q41.917,50.786,23.4,92.947a29.609,29.609,0,0,0,20.017,2.686" transform="translate(38.518 13.026)" fill="#dc4545"/>
            <path id="Trazado_710409" data-name="Trazado 710409" d="M32.285,24.514s4.128,3.654,4.89,1.865-4.89-1.865-4.89-1.865" transform="translate(53.139 40.349)" fill="#47270c"/>
            <path id="Trazado_710410" data-name="Trazado 710410" d="M36.354,26.161s4.128,3.654,4.89,1.865-4.89-1.865-4.89-1.865" transform="translate(59.837 43.059)" fill="#47270c"/>
            <path id="Trazado_710411" data-name="Trazado 710411" d="M40.484,27.672s4.128,3.657,4.89,1.865-4.89-1.865-4.89-1.865" transform="translate(66.634 45.547)" fill="#47270c"/>
            <path id="Trazado_710412" data-name="Trazado 710412" d="M37.7,29.593s3.376,4.358,4.458,2.741S37.7,29.593,37.7,29.593" transform="translate(62.054 48.708)" fill="#47270c"/>
            <path id="Trazado_710413" data-name="Trazado 710413" d="M34.546,35.52s2.773,4.765,4.059,3.3-4.059-3.3-4.059-3.3" transform="translate(56.861 58.464)" fill="#47270c"/>
            <path id="Trazado_710414" data-name="Trazado 710414" d="M26.45,38.364s-.1,4.366,1.373,3.911-1.373-3.911-1.373-3.911" transform="translate(43.533 63.145)" fill="#47270c"/>
            <path id="Trazado_710415" data-name="Trazado 710415" d="M38.21,32.461s2.119,3.307,2.99,2.231-2.99-2.231-2.99-2.231" transform="translate(62.891 53.429)" fill="#47270c"/>
            <path id="Trazado_710416" data-name="Trazado 710416" d="M33.709,27.782s3.376,4.358,4.458,2.741-4.458-2.741-4.458-2.741" transform="translate(55.483 45.728)" fill="#47270c"/>
            <path id="Trazado_710417" data-name="Trazado 710417" d="M34.493,31.737s3.374,4.361,4.456,2.741-4.456-2.741-4.456-2.741" transform="translate(56.773 52.237)" fill="#47270c"/>
            <path id="Trazado_710418" data-name="Trazado 710418" d="M30.843,33.727s2.014,5.133,3.509,3.887-3.509-3.887-3.509-3.887" transform="translate(50.766 55.513)" fill="#47270c"/>
            <path id="Trazado_710419" data-name="Trazado 710419" d="M31.167,37.264s1.22,5.377,2.884,4.368-2.884-4.368-2.884-4.368" transform="translate(51.299 61.334)" fill="#47270c"/>
            <path id="Trazado_710420" data-name="Trazado 710420" d="M30.171,29.646s3.376,4.361,4.458,2.741-4.458-2.741-4.458-2.741" transform="translate(49.66 48.796)" fill="#47270c"/>
            <path id="Trazado_710421" data-name="Trazado 710421" d="M27.8,34.773s1.2,5.384,2.871,4.379S27.8,34.773,27.8,34.773" transform="translate(45.751 57.234)" fill="#47270c"/>
            <path id="Trazado_710422" data-name="Trazado 710422" d="M39.564,24.175s5.456-.794,5.112,1.122-5.112-1.122-5.112-1.122" transform="translate(65.12 39.523)" fill="#47270c"/>
            <path id="Trazado_710423" data-name="Trazado 710423" d="M41.408,17.964s5.305-1.506,5.215.439-5.215-.439-5.215-.439" transform="translate(68.155 28.652)" fill="#47270c"/>
            <path id="Trazado_710424" data-name="Trazado 710424" d="M36.769,11.9s2.958-3.212,3.7-1.863-3.7,1.863-3.7,1.863" transform="translate(60.52 15.984)" fill="#47270c"/>
            <path id="Trazado_710425" data-name="Trazado 710425" d="M41.921,22.546s3.821-.91,3.7.471-3.7-.471-3.7-.471" transform="translate(69 36.625)" fill="#47270c"/>
            <path id="Trazado_710426" data-name="Trazado 710426" d="M35.433,22.706s5.456-.794,5.112,1.122-5.112-1.122-5.112-1.122" transform="translate(58.321 37.105)" fill="#47270c"/>
            <path id="Trazado_710427" data-name="Trazado 710427" d="M38.743,20.4s5.456-.794,5.112,1.122S38.743,20.4,38.743,20.4" transform="translate(63.769 33.316)" fill="#47270c"/>
            <path id="Trazado_710428" data-name="Trazado 710428" d="M37.41,17.237s5.014-2.294,5.22-.36-5.22.36-5.22.36" transform="translate(61.575 26.503)" fill="#47270c"/>
            <path id="Trazado_710429" data-name="Trazado 710429" d="M39.877,15.277s4.612-3.022,5.109-1.14-5.109,1.14-5.109,1.14" transform="translate(65.635 22.253)" fill="#47270c"/>
            <path id="Trazado_710430" data-name="Trazado 710430" d="M34.181,18.908s5.456-.794,5.112,1.122-5.112-1.122-5.112-1.122" transform="translate(56.26 30.854)" fill="#47270c"/>
            <path id="Trazado_710431" data-name="Trazado 710431" d="M35.878,14.909s4.6-3.038,5.1-1.156-5.1,1.156-5.1,1.156" transform="translate(59.053 21.624)" fill="#47270c"/>
            <g id="Grupo_976429" data-name="Grupo 976429" transform="translate(77.931 26.698)" opacity="0.7" style="mix-blend-mode: soft-light;isolation: isolate">
              <g id="Grupo_976428" data-name="Grupo 976428">
                <g id="Grupo_976427" data-name="Grupo 976427" clip-path="url(#clip-path-3)">
                  <path id="Trazado_710432" data-name="Trazado 710432" d="M29.467,60.138a4.279,4.279,0,0,1,.455-2.048q8.91-21.9,17.82-43.812c.7-1.728,1.654-3.681,3.471-4.107a4.754,4.754,0,0,1,3.389.773,6.23,6.23,0,0,1,3.019,3.384c.64,2.149-.5,4.384-1.609,6.334Q45.171,39.789,34.33,58.921c-.765,1.347-4.432,4.921-4.863,1.217" transform="translate(-29.454 -10.09)" fill="#f8f5f1"/>
                </g>
              </g>
            </g>
            <path id="Trazado_710433" data-name="Trazado 710433" d="M140.466,22.452c-.238,3.617-2.815,7.652-.712,10.486,1.535,2.043,4.691,2.027,6.517,3.8,1.947,1.908,1.725,5.186.908,7.877s-2.1,5.4-1.794,8.157c.265,2.421,1.725,4.686,1.265,7.094-.738,3.9-5.583,5.181-8.493,7.885-2.231,2.059-3.342,5.046-5.263,7.4-2.8,3.474-7.181,5.337-11.531,5.943a38.491,38.491,0,0,1-9.084-.008c-8.438-1.68-16.609-5.075-22.58-11.166a64.08,64.08,0,0,1-6.76-8.692c-1.744-2.54-3.538-5.2-3.879-8.319C78.6,48.633,81,44.4,80.959,40.087c-.021-2.728-1-5.313-1.421-7.988s-.14-5.768,1.852-7.671c2.556-2.434,6.745-1.855,9.631-3.895,2.953-2.074,4.107-6.6,7.544-7.544,2.831-.791,5.625,1.368,8.525,1.087,4.757-.492,8.123-7.263,12.7-6.07,2.876.757,4.064,4.316,6.7,5.676,2.429,1.267,5.456.347,8.144.921a7.689,7.689,0,0,1,5.826,7.848" transform="translate(130.031 12.948)" fill="#5d6d23"/>
            <path id="Trazado_710434" data-name="Trazado 710434" d="M106.7,83.685c7.036.251,14.291-1.45,19.929-5.668,5.168-3.866,8.655-9.539,11.647-15.257,3.969-7.594,7.369-16.153,5.665-24.552-1.236-6.094-5.03-11.351-9.176-15.984-5.7-6.374-12.8-12.23-21.289-13.312-9.716-1.238-19.416,4.3-25.24,12.171S79.924,38.829,78.81,48.561A47.857,47.857,0,0,0,79.1,64.2c1.127,5.133,4.371,11.727,8.792,14.862,4.771,3.384,13.119,4.419,18.8,4.622" transform="translate(128.899 14.386)" fill="#343a12"/>
            <path id="Trazado_710435" data-name="Trazado 710435" d="M137.108,28.185c-.743,3.448-3.831,6.877-2.183,9.986,1.191,2.246,4.273,2.791,5.789,4.821,1.627,2.191.942,5.308-.241,7.766s-2.813,4.831-2.921,7.557c-.09,2.371,1.011,4.824.222,7.062-1.275,3.625-6.173,4.006-9.412,6.1-2.445,1.588-3.969,4.268-6.162,6.2-3.241,2.855-7.771,3.876-12.081,3.7a39.386,39.386,0,0,1-8.848-1.619c-7.978-3.109-15.447-7.843-20.392-14.77a64.784,64.784,0,0,1-5.334-9.6c-1.334-2.744-2.7-5.649-2.582-8.7.156-4.218,3.1-7.858,3.688-12.039.363-2.638-.217-5.295-.249-7.954s.7-5.591,2.895-7.067c2.852-1.894,6.848-.587,9.941-2.04,3.167-1.482,4.945-5.646,8.433-5.956,2.868-.246,5.279,2.336,8.136,2.564,4.71.378,8.956-5.562,13.248-3.588,2.688,1.228,3.337,4.876,5.707,6.652,2.18,1.648,5.26,1.31,7.795,2.334a7.8,7.8,0,0,1,4.551,8.6" transform="translate(120.08 16.775)" fill="#5d6d23"/>
            <path id="Trazado_710436" data-name="Trazado 710436" d="M114.14,14.27A84.459,84.459,0,0,0,94.454,35.1a24.192,24.192,0,0,1-3.12-18.053A.6.6,0,0,0,90.17,16.8a25.4,25.4,0,0,0,3.347,19.051.534.534,0,0,0,.3.23c-.066.106-.138.206-.2.315a54.855,54.855,0,0,0-7.726,21.723,28.54,28.54,0,0,1-7.581-23c.1-.751-1.066-1-1.164-.243a29.8,29.8,0,0,0,8.366,24.57.58.58,0,0,0,.233.143c-.04.439-.1.878-.13,1.32a43.923,43.923,0,0,0,.222,7.935c.426.262.86.519,1.294.767-.1-.738-.183-1.479-.243-2.22a56.136,56.136,0,0,0,26.9-6.258,54.508,54.508,0,0,0,6.808-4.178c.622-.447-.016-1.45-.638-1.005a54.913,54.913,0,0,1-25.478,9.9,54.708,54.708,0,0,1-7.676.355,47.636,47.636,0,0,1,1.865-15.783c.175-.6.384-1.18.577-1.767A47.832,47.832,0,0,0,112.52,44.27a47.2,47.2,0,0,0,5.993-3.339.6.6,0,0,0-.64-1,46.874,46.874,0,0,1-28.256,7.559,62.724,62.724,0,0,1,12.2-20.162.449.449,0,0,0,.108.048,28.193,28.193,0,0,0,14.516-.765.6.6,0,0,0-.357-1.135,26.948,26.948,0,0,1-13.365.833,94.188,94.188,0,0,1,12.063-11.034c.6-.463-.032-1.471-.638-1" transform="translate(126.588 23.289)" fill="#343a12"/>
            <g id="Grupo_976438" data-name="Grupo 976438" transform="translate(199.277 47.924)" opacity="0.5">
              <g id="Grupo_976437" data-name="Grupo 976437">
                <g id="Grupo_976436" data-name="Grupo 976436" clip-path="url(#clip-path-4)">
                  <g id="Grupo_976432" data-name="Grupo 976432" opacity="0.7" style="mix-blend-mode: soft-light;isolation: isolate">
                    <g id="Grupo_976431" data-name="Grupo 976431">
                      <g id="Grupo_976430" data-name="Grupo 976430" clip-path="url(#clip-path-5)">
                        <path id="Trazado_710437" data-name="Trazado 710437" d="M76,38.776a23.824,23.824,0,0,1,1.183-15.034,11.507,11.507,0,0,1,2.723-3.972,6.113,6.113,0,0,1,4.429-1.643,5.925,5.925,0,0,1,4.08,2.35,9.707,9.707,0,0,1,1.791,4.448C91.416,32.429,86.622,39.7,86.7,47.3a9.273,9.273,0,0,1-.392,4c-.513,1.114-2.122,2.127-3.247,1.278C82,51.781,81,49.728,80.277,48.6A31.582,31.582,0,0,1,76,38.776" transform="translate(-75.314 -18.112)" fill="#f8f5f1"/>
                      </g>
                    </g>
                  </g>
                  <g id="Grupo_976435" data-name="Grupo 976435" transform="translate(11.896 35.812)" opacity="0.7" style="mix-blend-mode: soft-light;isolation: isolate">
                    <g id="Grupo_976434" data-name="Grupo 976434">
                      <g id="Grupo_976433" data-name="Grupo 976433" clip-path="url(#clip-path-6)">
                        <path id="Trazado_710438" data-name="Trazado 710438" d="M81.453,36.672c-.9-.8-1.8-1.857-1.619-3.045.209-1.392,1.871-2.154,3.262-1.945a9.571,9.571,0,0,1,3.736,1.887,35.843,35.843,0,0,0,8.3,4.175c1.267.442,3.186,1.294,2.535,3.019-.489,1.3-2.326,1.183-3.445,1.122a21.187,21.187,0,0,1-8.6-2.365,20.593,20.593,0,0,1-4.162-2.847" transform="translate(-79.81 -31.647)" fill="#f8f5f1"/>
                      </g>
                    </g>
                  </g>
                </g>
              </g>
            </g>
            <path id="Trazado_710439" data-name="Trazado 710439" d="M72.3,37.857c-.238,3.617-2.815,7.652-.712,10.486,1.535,2.043,4.691,2.027,6.517,3.8,1.947,1.908,1.725,5.186.908,7.877s-2.1,5.4-1.794,8.157c.265,2.421,1.725,4.686,1.265,7.094-.738,3.9-5.583,5.181-8.493,7.885-2.231,2.059-3.342,5.046-5.263,7.4C61.925,94.033,57.548,95.9,53.2,96.5a38.492,38.492,0,0,1-9.084-.008c-8.438-1.68-16.609-5.075-22.58-11.166a64.079,64.079,0,0,1-6.76-8.692c-1.744-2.54-3.538-5.2-3.879-8.319-.458-4.278,1.939-8.509,1.9-12.825-.021-2.728-1-5.313-1.421-7.988s-.14-5.768,1.852-7.671c2.556-2.434,6.745-1.855,9.631-3.895,2.953-2.074,4.106-6.6,7.544-7.544,2.831-.791,5.625,1.368,8.525,1.087,4.757-.492,8.123-7.263,12.7-6.07,2.876.757,4.064,4.316,6.7,5.676,2.429,1.267,5.456.347,8.144.921A7.689,7.689,0,0,1,72.3,37.857" transform="translate(17.837 38.304)" fill="#5d6d23"/>
            <path id="Trazado_710440" data-name="Trazado 710440" d="M38.529,99.09c7.036.251,14.291-1.45,19.929-5.668,5.168-3.866,8.655-9.539,11.647-15.256,3.969-7.594,7.369-16.153,5.665-24.552-1.236-6.094-5.03-11.351-9.173-15.984C60.89,31.256,53.791,25.4,45.306,24.319c-9.716-1.238-19.416,4.3-25.24,12.171s-8.308,17.744-9.42,27.475c-.593,5.2-.831,10.523.291,15.64,1.127,5.133,4.371,11.727,8.792,14.862,4.771,3.384,13.119,4.419,18.8,4.622" transform="translate(16.705 39.742)" fill="#343a12"/>
            <path id="Trazado_710441" data-name="Trazado 710441" d="M68.943,43.59c-.744,3.448-3.831,6.877-2.183,9.986,1.191,2.246,4.273,2.791,5.789,4.821,1.627,2.191.942,5.308-.241,7.766s-2.813,4.831-2.921,7.557c-.09,2.371,1.011,4.824.222,7.062-1.275,3.625-6.173,4.006-9.412,6.1-2.445,1.588-3.969,4.268-6.162,6.2-3.241,2.855-7.771,3.876-12.081,3.7a39.386,39.386,0,0,1-8.848-1.619c-7.978-3.109-15.447-7.843-20.392-14.77a64.782,64.782,0,0,1-5.334-9.6c-1.334-2.744-2.7-5.649-2.582-8.7.156-4.218,3.1-7.858,3.688-12.039.362-2.638-.217-5.295-.249-7.954s.7-5.591,2.895-7.067c2.852-1.895,6.848-.587,9.941-2.04,3.167-1.482,4.945-5.646,8.433-5.956,2.868-.246,5.279,2.336,8.136,2.564,4.71.378,8.957-5.562,13.248-3.588,2.688,1.228,3.337,4.876,5.707,6.652,2.18,1.648,5.26,1.31,7.795,2.334a7.8,7.8,0,0,1,4.551,8.6" transform="translate(7.885 42.131)" fill="#5d6d23"/>
            <path id="Trazado_710442" data-name="Trazado 710442" d="M45.976,29.675A84.459,84.459,0,0,0,26.29,50.5a24.192,24.192,0,0,1-3.12-18.053.6.6,0,0,0-1.164-.243,25.4,25.4,0,0,0,3.347,19.051.534.534,0,0,0,.3.23c-.066.106-.138.206-.2.315A54.855,54.855,0,0,0,17.72,73.524a28.54,28.54,0,0,1-7.581-23c.1-.751-1.066-1-1.164-.243a29.8,29.8,0,0,0,8.366,24.57.58.58,0,0,0,.233.143c-.04.439-.1.878-.13,1.32a43.921,43.921,0,0,0,.222,7.935c.426.262.86.519,1.294.767-.1-.738-.183-1.479-.243-2.22a56.135,56.135,0,0,0,26.9-6.258,54.734,54.734,0,0,0,6.811-4.178c.619-.447-.019-1.45-.64-1.005A54.436,54.436,0,0,1,18.63,81.61,47.635,47.635,0,0,1,20.5,65.827c.175-.6.384-1.18.577-1.767a47.832,47.832,0,0,0,23.284-4.384,47.2,47.2,0,0,0,5.993-3.339.6.6,0,0,0-.64-1,46.874,46.874,0,0,1-28.256,7.559,62.724,62.724,0,0,1,12.2-20.162.449.449,0,0,0,.108.048,28.193,28.193,0,0,0,14.516-.765.6.6,0,0,0-.357-1.135,26.948,26.948,0,0,1-13.365.833A94.188,94.188,0,0,1,46.613,30.678c.6-.463-.032-1.471-.638-1" transform="translate(14.394 48.644)" fill="#343a12"/>
            <g id="Grupo_976447" data-name="Grupo 976447" transform="translate(18.918 88.684)" opacity="0.5">
              <g id="Grupo_976446" data-name="Grupo 976446">
                <g id="Grupo_976445" data-name="Grupo 976445" clip-path="url(#clip-path-4)">
                  <g id="Grupo_976441" data-name="Grupo 976441" opacity="0.7" style="mix-blend-mode: soft-light;isolation: isolate">
                    <g id="Grupo_976440" data-name="Grupo 976440">
                      <g id="Grupo_976439" data-name="Grupo 976439" clip-path="url(#clip-path-5)">
                        <path id="Trazado_710443" data-name="Trazado 710443" d="M7.839,54.179A23.816,23.816,0,0,1,9.022,39.147a11.507,11.507,0,0,1,2.723-3.972,6.113,6.113,0,0,1,4.429-1.643,5.925,5.925,0,0,1,4.08,2.35,9.707,9.707,0,0,1,1.791,4.448c1.207,7.5-3.588,14.775-3.509,22.377a9.273,9.273,0,0,1-.392,4c-.513,1.114-2.122,2.127-3.244,1.278-1.061-.8-2.064-2.858-2.789-3.979a31.569,31.569,0,0,1-4.273-9.83" transform="translate(-7.15 -33.516)" fill="#f8f5f1"/>
                      </g>
                    </g>
                  </g>
                  <g id="Grupo_976444" data-name="Grupo 976444" transform="translate(11.896 35.812)" opacity="0.7" style="mix-blend-mode: soft-light;isolation: isolate">
                    <g id="Grupo_976443" data-name="Grupo 976443">
                      <g id="Grupo_976442" data-name="Grupo 976442" clip-path="url(#clip-path-6)">
                        <path id="Trazado_710444" data-name="Trazado 710444" d="M13.288,52.077c-.9-.794-1.8-1.857-1.619-3.045.209-1.392,1.871-2.154,3.262-1.945a9.572,9.572,0,0,1,3.736,1.887,35.842,35.842,0,0,0,8.3,4.175c1.267.442,3.186,1.294,2.535,3.022-.489,1.3-2.326,1.18-3.445,1.119a21.188,21.188,0,0,1-8.6-2.365,20.593,20.593,0,0,1-4.162-2.847" transform="translate(-11.646 -47.051)" fill="#f8f5f1"/>
                      </g>
                    </g>
                  </g>
                </g>
              </g>
            </g>
            <path id="Trazado_710445" data-name="Trazado 710445" d="M49.025,38.522c-3.673-1.72-7.988-1.085-11.915-.077s-7.9,2.368-11.933,1.982c-2.119-.2-4.405-1.08-5.31-3.008a4.854,4.854,0,0,1,.979-5.154,7.984,7.984,0,0,1,4.914-2.347,23.588,23.588,0,0,1,5.546.132c-6.065-.418-11.994-1.334-17.564-3.765a7.726,7.726,0,0,1-2.455-1.519,3.259,3.259,0,0,1-1.035-2.609A3.25,3.25,0,0,1,12.1,19.776a7.487,7.487,0,0,1,3.051-.646,22.724,22.724,0,0,1,9.822,1.754,25.4,25.4,0,0,1-9.451-6.517A13.827,13.827,0,0,1,12.389,9.6,7.253,7.253,0,0,1,12.556,4a4.956,4.956,0,0,1,4.638-2.8c2.3.2,3.985,2.209,5.213,4.162a77.671,77.671,0,0,1,5.44,11.147C26.632,12.566,25.656,8.343,26.5,4.3A6.519,6.519,0,0,1,27.9,1.212,3.4,3.4,0,0,1,30.971.05a3.547,3.547,0,0,1,2.283,1.815,9.136,9.136,0,0,1,.9,2.855c1.164,6.128,1.154,12.409,1.138,18.649a44.471,44.471,0,0,1,.95-11.036,8.232,8.232,0,0,1,.958-2.789,3.179,3.179,0,0,1,2.373-1.585,3.289,3.289,0,0,1,2.956,1.984,9.95,9.95,0,0,1,.744,3.678A58.081,58.081,0,0,0,45.3,26.327a23.2,23.2,0,0,0,6.641,10.859c-.884.339-2.032,1-2.916,1.336" transform="translate(16.843 0)" fill="#5d6d23"/>
            <path id="Trazado_710446" data-name="Trazado 710446" d="M28.473,39.541c-5.183-5.488-8.359-11.782-5.265-18.2,1.942-4.024,7.014-7.263,11.034-8.835,7.5-2.932,12.563,1.648,16.99,7.186Q69.718,42.807,88.195,65.931a16.434,16.434,0,0,1,2.418,3.654c.886,2.059.836,6.117-2.334,5.988a6.4,6.4,0,0,1-2.572-.873C72.8,68.143,59.658,61.931,47.508,54.011c-4.85-3.162-13.211-8.306-19.035-14.471" transform="translate(36.193 19.072)" fill="#e2a050"/>
            <path id="Trazado_710447" data-name="Trazado 710447" d="M48.692,30.837a27.238,27.238,0,0,1-8,8.774c.3.153.6.3.9.458.651-.474,1.286-.968,1.894-1.5a28.226,28.226,0,0,0,6.964-9.25c-.206-.259-.413-.516-.619-.773-.349.778-.725,1.545-1.146,2.289" transform="translate(66.983 46.988)" fill="#af6822"/>
            <path id="Trazado_710448" data-name="Trazado 710448" d="M39.705,23.241A36.639,36.639,0,0,1,26.939,35.692c-.781.455-1.582.878-2.395,1.275.214.222.431.442.651.661a37.945,37.945,0,0,0,8.618-5.879A37.441,37.441,0,0,0,43.886,16.525c.286-.807.54-1.625.77-2.447-.243-.259-.49-.511-.738-.757a37.276,37.276,0,0,1-4.212,9.92" transform="translate(40.398 21.926)" fill="#af6822"/>
            <path id="Trazado_710449" data-name="Trazado 710449" d="M44.625,30.641a34.79,34.79,0,0,1-9.372,9.515c.288.164.579.323.865.484.773-.542,1.529-1.1,2.257-1.7A35.8,35.8,0,0,0,48.858,24.36c-.22-.275-.439-.55-.659-.823a35.118,35.118,0,0,1-3.575,7.1" transform="translate(58.024 38.741)" fill="#af6822"/>
            <path id="Trazado_710450" data-name="Trazado 710450" d="M42.453,27.784a40.816,40.816,0,0,1-13,10.825c.28.188.556.373.831.556a46.127,46.127,0,0,0,5.048-3.215A37.141,37.141,0,0,0,47.4,21.222c.251-.566.476-1.143.693-1.725l-.675-.844a33.026,33.026,0,0,1-4.964,9.131" transform="translate(48.478 30.702)" fill="#af6822"/>
            <g id="Grupo_976450" data-name="Grupo 976450" transform="translate(62.469 39.901)" opacity="0.7" style="mix-blend-mode: soft-light;isolation: isolate">
              <g id="Grupo_976449" data-name="Grupo 976449">
                <g id="Grupo_976448" data-name="Grupo 976448" clip-path="url(#clip-path-10)">
                  <path id="Trazado_710451" data-name="Trazado 710451" d="M26.786,29.643a15.667,15.667,0,0,1-3.032-6.371,7.834,7.834,0,0,1,1.664-6.662c1.177-1.273,3.157-2,4.681-1.18,1.339.722,1.884,2.323,2.379,3.76A52.8,52.8,0,0,0,39.833,33.2c2.72,3.7,6.266,6.657,8.658,10.621.59.979,1.418,2.993-.537,2.461a4.84,4.84,0,0,1-1.289-.651c-3.043-1.95-6.131-3.845-9.086-5.922a45.69,45.69,0,0,1-10.793-10.07" transform="translate(-23.609 -15.08)" fill="#f8f5f1"/>
                </g>
              </g>
            </g>
            <path id="Trazado_710452" data-name="Trazado 710452" d="M69.26,71.112a3.4,3.4,0,0,1-3.366-4.342c2.664-9.478,6.255-18.765,12.227-26.539,6.911-9,17.506-15.762,28.851-15.667s22.768,8.448,24.126,19.712c2.44-7.559,11.544-13.007,19.474-13.439A19.56,19.56,0,0,1,169.38,42.824,18.881,18.881,0,0,1,163.427,64.2c-5.84,4.4-13.658,4.845-20.966,5.109-24.316.884-48.855,1.122-73.2,1.8" transform="translate(108.243 40.43)" fill="#703f12"/>
            <path id="Trazado_710453" data-name="Trazado 710453" d="M116.385,34.018a10.9,10.9,0,0,0-3.363,3.972,9.992,9.992,0,0,0-1.241,4.609l.085,2.863-2.389-2.053c-4.728-4.059-10.769-5.985-16.921-6.451a31.7,31.7,0,0,0-18.111,4.58c3.921-5.615,11.108-8.919,18.3-8.753A27.137,27.137,0,0,1,103.1,35.047a20.97,20.97,0,0,1,8.34,6.583l-2.3.81a10.541,10.541,0,0,1,2.606-5.34,9.586,9.586,0,0,1,4.644-3.083" transform="translate(122.53 53.952)" fill="#af6822"/>
            <g id="Grupo_976453" data-name="Grupo 976453" transform="translate(190.669 70.933)" opacity="0.5" style="mix-blend-mode: soft-light;isolation: isolate">
              <g id="Grupo_976452" data-name="Grupo 976452">
                <g id="Grupo_976451" data-name="Grupo 976451" clip-path="url(#clip-path-11)">
                  <path id="Trazado_710454" data-name="Trazado 710454" d="M83.583,29.822a27.956,27.956,0,0,1,14.15-2.956,8.721,8.721,0,0,1,3.858.99,3.865,3.865,0,0,1,2.024,3.26,4.135,4.135,0,0,1-2.8,3.437,15.029,15.029,0,0,1-4.62.7,41.738,41.738,0,0,0-14.823,3.77c-2.223,1.027-4.477,2.278-6.924,2.223-1.236-.026-2.686-.826-2.339-2.283.3-1.23,2.143-2.5,3.027-3.31a36.565,36.565,0,0,1,8.443-5.829" transform="translate(-72.062 -26.809)" fill="#f8f5f1"/>
                </g>
              </g>
            </g>
            <path id="Trazado_710455" data-name="Trazado 710455" d="M97.214,32.429c.344-.222.124-.108,0,0" transform="translate(160.009 53.167)" fill="#dc4545"/>
            <path id="Trazado_710456" data-name="Trazado 710456" d="M58.871,39.213a25.605,25.605,0,0,1,21.34-29.3A23.249,23.249,0,0,1,76.6,28.93,25.953,25.953,0,0,1,58.871,39.213" transform="translate(96.398 16.318)" fill="#5d6d23"/>
            <path id="Trazado_710457" data-name="Trazado 710457" d="M67.383,38.369l2.905-1.1a37.474,37.474,0,0,1-6.819-26.56A10.2,10.2,0,0,0,52.936,14.05c2.694,8.877,7.623,18.037,14.447,24.319" transform="translate(87.13 17.061)" fill="#343a12"/>
            <path id="Trazado_710458" data-name="Trazado 710458" d="M116.307,61.7a68.2,68.2,0,0,1-2,9.131c-1.109,3.77-2.331,9.66-7.144,10.51-3.344.59-6.969-1.95-10.168-.828-5.76,2.021-5.527,8.747-13.079,6.221-11.348-3.8-22.348-10.761-29.3-20.247C47.6,56.906,44.3,40.97,53.727,32.516a19.861,19.861,0,0,1,6.633-3.85c6.493-2.331,13.82-1.3,20.032-4.53C88.209,20.069,97.272,13.338,105.9,19a13.982,13.982,0,0,1,1.722,1.336,8.991,8.991,0,0,0-4.064,6.059,8.161,8.161,0,0,0,2.016,6.636,7.661,7.661,0,0,0,.939,6.274,7.424,7.424,0,0,0,5.39,3.157,12.355,12.355,0,0,0-2.471,10.526,12.985,12.985,0,0,0,6.874,8.713" transform="translate(78.858 27.695)" fill="#dc4545"/>
            <g id="Grupo_976456" data-name="Grupo 976456" transform="translate(130.235 60.28)" style="mix-blend-mode: soft-light;isolation: isolate">
              <g id="Grupo_976455" data-name="Grupo 976455">
                <g id="Grupo_976454" data-name="Grupo 976454" clip-path="url(#clip-path-12)">
                  <path id="Trazado_710459" data-name="Trazado 710459" d="M49.283,35.376A15.428,15.428,0,0,1,54.75,24.369a7.363,7.363,0,0,1,3.038-1.5,4.091,4.091,0,0,1,3.252.659,4.427,4.427,0,0,1,1.389,4.212,11.852,11.852,0,0,1-1.871,4.234c-2.471,3.966-5.366,7.978-5.707,12.637a10.8,10.8,0,0,1-.267,2.323,2.31,2.31,0,0,1-1.506,1.656c-2.125.54-2.7-3.937-3.024-5.242a25.081,25.081,0,0,1-.77-7.972" transform="translate(-49.222 -22.782)" fill="#f8f5f1"/>
                </g>
              </g>
            </g>
            <g id="Grupo_976459" data-name="Grupo 976459" transform="translate(134.53 88.356)" style="mix-blend-mode: soft-light;isolation: isolate">
              <g id="Grupo_976458" data-name="Grupo 976458">
                <g id="Grupo_976457" data-name="Grupo 976457" clip-path="url(#clip-path-13)">
                  <path id="Trazado_710460" data-name="Trazado 710460" d="M51.2,36.338a3,3,0,0,1-.307-1.826A1.462,1.462,0,0,1,52.3,33.393a2.484,2.484,0,0,1,1.76.892,5.833,5.833,0,0,1,1.085,1.881c.442,1.154.717,3.85-.984,3.651-1.18-.14-2.5-2.413-2.961-3.479" transform="translate(-50.844 -33.394)" fill="#f8f5f1"/>
                </g>
              </g>
            </g>
            <path id="Trazado_710461" data-name="Trazado 710461" d="M72.467,20.6a13.75,13.75,0,0,0-6.03,5.636,8.583,8.583,0,0,0-.116,8.044,7.794,7.794,0,0,0-1.844,6.226,7.477,7.477,0,0,0,3.49,5.313,7.622,7.622,0,0,0,6.316,10.515A4.424,4.424,0,0,0,75.8,59.188a7.454,7.454,0,0,0,2.723,1.476,14.022,14.022,0,0,0,10.634-1.151,12.981,12.981,0,0,1-6.874-8.71,12.361,12.361,0,0,1,2.471-10.526,7.435,7.435,0,0,1-5.387-3.159,7.651,7.651,0,0,1-.939-6.274,8.158,8.158,0,0,1-2.016-6.636,8.983,8.983,0,0,1,4.064-6.057,35.7,35.7,0,0,0-8.007,2.45" transform="translate(106.009 29.877)" fill="#ffce88"/>
            <path id="Trazado_710462" data-name="Trazado 710462" d="M16.42,99.825A515.251,515.251,0,0,0,173.483,75.514c2.2-.7,4.527-1.5,6-3.289,2.921-3.538,1.066-8.959-1.712-12.611a31.314,31.314,0,0,0-45.833-4.358c-6.414-18.2-25.565-31.053-44.822-32.365s-38.8,9.721-47.622,26.885c-2.236,4.35-4.109,9.348-8.356,11.774-4.122,2.358-9.271,1.564-13.9,2.619A17.925,17.925,0,0,0,3.744,79.732C3.138,87.05,9.075,99.812,16.42,99.825" transform="translate(6.091 37.505)" fill="#703f12"/>
            <path id="Trazado_710463" data-name="Trazado 710463" d="M14.518,46.622A34.4,34.4,0,0,1,41.48,56.613l-3.024.614A34.133,34.133,0,0,1,60.917,36.1a33.039,33.039,0,0,1,15.672-.749,31.1,31.1,0,0,1,13.894,6.422,37.581,37.581,0,0,0-14.23-3.937,35.334,35.334,0,0,0-14.188,1.818,34.26,34.26,0,0,0-20.2,18.858l-1.125,2.717-1.9-2.1A39.552,39.552,0,0,0,14.518,46.622" transform="translate(23.896 57.197)" fill="#af6822"/>
            <g id="Grupo_976462" data-name="Grupo 976462" transform="translate(52.318 68.711)" opacity="0.5" style="mix-blend-mode: soft-light;isolation: isolate">
              <g id="Grupo_976461" data-name="Grupo 976461">
                <g id="Grupo_976460" data-name="Grupo 976460" clip-path="url(#clip-path-14)">
                  <path id="Trazado_710464" data-name="Trazado 710464" d="M27.362,37.1A53.61,53.61,0,0,1,60.685,25.975a15.785,15.785,0,0,1,6.506,1.162,6.668,6.668,0,0,1,3.982,4.98c.368,3.18-2.4,6.009-5.448,6.991s-6.34.624-9.541.572a49.807,49.807,0,0,0-26.42,7.1c-2.3,1.386-9.787,5.506-9.988.1-.135-3.654,5.062-7.827,7.586-9.782" transform="translate(-19.773 -25.967)" fill="#f8f5f1"/>
                </g>
              </g>
            </g>
            <path id="Trazado_710465" data-name="Trazado 710465" d="M5.055,67.64a254.478,254.478,0,0,1-2.556,87.5c95.286-7.988,190.9-16.606,285.923-26.991-2.9-22.819-5.448-45.941-8.345-68.76C187.739,58.557,97.343,63.96,5.055,67.64" transform="translate(4.113 97.615)" fill="#af6822"/>
            <path id="Trazado_710466" data-name="Trazado 710466" d="M5.425,106.165A249,249,0,0,1,.4,69.609c-.217-3.482,2.733-6.5,6.6-6.874,93.251-8.9,185.467-17.593,278.7-26.5,4.6-.439,8.459,3.019,8,7.155-1.926,17.185-3.405,34.122-5.371,51.337a7.1,7.1,0,0,1-6.977,5.94c-88.488,3.874-179.974,6.842-268.46,10.711-3.6.159-6.792-2.048-7.469-5.215" transform="translate(0.637 59.584)" fill="#ffba5f"/>
            <path id="Trazado_710467" data-name="Trazado 710467" d="M83.441,77.086l4.019-.156c4.032-6.072,4.382-14.1-2.59-18.659-8.3-5.422-18.728-2.487-27.557.193a177.628,177.628,0,0,1-33.492,6.8A178.277,178.277,0,0,1,1.647,66.1c.169.966.378,1.926.561,2.889A181.087,181.087,0,0,0,46.67,64.349c5.123-1.2,10.1-2.733,15.135-4.2,4.712-1.379,9.779-2.646,14.751-1.863,4.2.661,8.425,2.686,10,6.44,1.662,3.964.108,8.533-2.606,11.838-.156.188-.347.341-.508.524" transform="translate(2.711 90.894)" fill="#e2a050"/>
            <path id="Trazado_710468" data-name="Trazado 710468" d="M115.467,76.744c5.107-1.2,10.258-2.9,14.095-6.157s6.075-8.414,4.3-12.851a11.509,11.509,0,0,0-5.316-5.617,33.971,33.971,0,0,0-11.507-3.44c-22.247-3.2-45.7-.468-65.974,8.533-3.591,1.593-7.237,3.509-9.33,6.578C34.464,74.447,51.62,78.236,59.648,78.8c18.641,1.3,37.691,2.217,55.819-2.053M57.476,75.352C52.52,74.714,41.727,73.41,43.751,66.5c.783-2.67,3.882-4.334,6.393-5.575a91.33,91.33,0,0,1,10.11-4.234,118.338,118.338,0,0,1,42.84-6.342c6.509.2,13.521.519,19.726,2.418,5.99,1.834,10.483,6.356,7.462,12.224-3.075,5.975-11.028,7.991-17.556,9.4a125.726,125.726,0,0,1-23.34,2.551,197.511,197.511,0,0,1-29.928-1.331l-1.982-.254" transform="translate(65.804 78.004)" fill="#e2a050"/>
            <path id="Trazado_710469" data-name="Trazado 710469" d="M148.562,64.95a6.5,6.5,0,0,0,1.64-2.477,65.128,65.128,0,0,0-20.419-5.527,66.237,66.237,0,0,0-36.9,7.038,61.628,61.628,0,0,0-8.779,5.546q2.842-.119,5.676-.233a62.925,62.925,0,0,1,55.141-5.882c1.241.463,2.442.995,3.638,1.535" transform="translate(138.435 93.193)" fill="#e2a050"/>
            <path id="Trazado_710470" data-name="Trazado 710470" d="M.4,56.8c24.184,5.21,50.715,6.967,71.422-7.583a47.639,47.639,0,0,0,6.512-5.554c-1.651.159-3.307.315-4.958.474a54,54,0,0,1-17.744,9.909c-13.219,4.506-27.555,4.5-41.308,2.477-4.424-.651-8.8-1.5-13.148-2.466A5.9,5.9,0,0,0,.4,56.8" transform="translate(0.658 71.863)" fill="#e2a050"/>
            <path id="Trazado_710471" data-name="Trazado 710471" d="M137.883,53.345a124.46,124.46,0,0,0-28.955,6.067c-9.975,3.429-18.836,8.6-28.079,13.312a100.785,100.785,0,0,1-10.314,4.591c2.709-.1,5.4-.209,8.11-.315,8.493-4.03,16.685-9.007,25.031-12.486,18.593-7.755,39.472-9.983,59.7-8.417,3.553.278,7.086.712,10.6,1.222.1-.96.209-1.929.31-2.887a155.862,155.862,0,0,0-36.4-1.087" transform="translate(116.098 86.81)" fill="#e2a050"/>
            <path id="Trazado_710472" data-name="Trazado 710472" d="M102.037,48.846c10.981,1.373,21.85-2.122,30.375-8.361a49.575,49.575,0,0,0,4.615-3.89q-2.56.246-5.112.487A40.573,40.573,0,0,1,110.774,46.1,34.862,34.862,0,0,1,88.9,41.178l-4.6.439a35.937,35.937,0,0,0,17.738,7.229" transform="translate(138.751 60.233)" fill="#e2a050"/>
            <path id="Trazado_710473" data-name="Trazado 710473" d="M260.7,60.109a152.724,152.724,0,0,1-32.008-3.268c-11.039-2.334-21.586-6.086-32.355-9.2-10.457-3.022-21.128-5.223-32.188-5.252a132.172,132.172,0,0,0-32.569,4.525C109.8,52.423,89.243,61.329,67.276,66.282a175.243,175.243,0,0,1-66.6,2.384c.1.992.241,1.982.352,2.974a177.13,177.13,0,0,0,57.044-.6c22.662-3.847,43.661-12.5,65.482-18.911,10.705-3.146,21.691-5.747,32.934-6.575a102.846,102.846,0,0,1,33.892,3.458c11.052,2.895,21.726,6.829,32.836,9.557a155.183,155.183,0,0,0,32.011,4.339,157.727,157.727,0,0,0,35.212-2.858q.151-1.508.3-3.016A155.271,155.271,0,0,1,260.7,60.109" transform="translate(1.111 69.77)" fill="#e2a050"/>
            <path id="Trazado_710474" data-name="Trazado 710474" d="M166.854,51.53c2.826-.839,5.6-1.807,8.34-2.847.114-1.093.236-2.193.352-3.289-26.11,10.264-56.229,11.042-82.876,1.355A112.578,112.578,0,0,1,76.82,39.507q-2.568.242-5.13.487c27.774,16.534,63.1,21.046,95.164,11.536" transform="translate(117.998 65.026)" fill="#e2a050"/>
            <path id="Trazado_710475" data-name="Trazado 710475" d="M110.827,52.663c.1,2.876-2.429,5.292-5.636,5.4s-5.882-2.141-5.977-5.014,2.429-5.295,5.636-5.4,5.882,2.141,5.977,5.017" transform="translate(163.296 78.417)" fill="#a36029"/>
            <path id="Trazado_710476" data-name="Trazado 710476" d="M101.706,48.256a9.389,9.389,0,0,1,.791,3.651,9.258,9.258,0,0,1-.55,3.694,9.3,9.3,0,0,1-.791-3.651,9.435,9.435,0,0,1,.55-3.694" transform="translate(166.492 79.427)" fill="#47270c"/>
            <path id="Trazado_710477" data-name="Trazado 710477" d="M108.049,49.884a12.707,12.707,0,0,1-4.075.738,12.548,12.548,0,0,1-4.114-.468,12.691,12.691,0,0,1,4.075-.736,12.92,12.92,0,0,1,4.114.466" transform="translate(164.364 81.333)" fill="#47270c"/>
            <path id="Trazado_710478" data-name="Trazado 710478" d="M16.439,58.32c.1,2.876-2.429,5.292-5.636,5.4S4.921,61.577,4.826,58.7s2.429-5.292,5.636-5.4,5.882,2.138,5.977,5.014" transform="translate(7.938 87.733)" fill="#a36029"/>
            <path id="Trazado_710479" data-name="Trazado 710479" d="M7.318,53.914a9.386,9.386,0,0,1,.791,3.649,9.263,9.263,0,0,1-.55,3.7,9.3,9.3,0,0,1-.791-3.651,9.434,9.434,0,0,1,.55-3.694" transform="translate(11.135 88.739)" fill="#47270c"/>
            <path id="Trazado_710480" data-name="Trazado 710480" d="M13.662,55.545a12.853,12.853,0,0,1-4.075.738,12.692,12.692,0,0,1-4.114-.468,12.7,12.7,0,0,1,4.075-.738,12.848,12.848,0,0,1,4.114.468" transform="translate(9.008 90.646)" fill="#47270c"/>
            <g id="Grupo_976465" data-name="Grupo 976465" transform="translate(33.464 108.641)" opacity="0.7" style="mix-blend-mode: soft-light;isolation: isolate">
              <g id="Grupo_976464" data-name="Grupo 976464">
                <g id="Grupo_976463" data-name="Grupo 976463" clip-path="url(#clip-path-15)">
                  <path id="Trazado_710481" data-name="Trazado 710481" d="M203.131,41.635c5.218-.585,10.653-1.154,15.6.611s9.216,6.612,8.5,11.817c-.542,3.919-3.768,7.051-7.409,8.6s-7.689,1.8-11.642,2.021q-95.44,5.295-191.1,2.421c-1.532-.048-5.067-.37-4.329-2.691.683-2.154,5.628-1.947,7.274-2.133q9.9-1.115,19.8-2.233,19.8-2.231,39.607-4.466l79.217-8.93q22.238-2.508,44.481-5.019" transform="translate(-12.648 -41.059)" fill="#f8f5f1"/>
                </g>
              </g>
            </g>
            <path id="Trazado_710482" data-name="Trazado 710482" d="M289.477,68.019a249,249,0,0,1,5.027,36.556c.217,3.482-2.733,6.5-6.6,6.874-93.251,8.906-185.467,17.593-278.7,26.5-4.6.442-8.459-3.019-8-7.149C3.125,113.606,4.6,96.669,6.57,79.455a7.1,7.1,0,0,1,6.977-5.94c88.488-3.874,179.972-6.84,268.46-10.711,3.6-.159,6.792,2.048,7.469,5.215" transform="translate(1.91 103.358)" fill="#ffba5f"/>
            <path id="Trazado_710483" data-name="Trazado 710483" d="M84.144,63.928l-4.019.156c-4.032,6.072-4.379,14.1,2.593,18.659,8.3,5.422,18.725,2.487,27.555-.193a173.6,173.6,0,0,1,55.668-7.634c-.172-.966-.381-1.926-.564-2.889a181.216,181.216,0,0,0-44.462,4.638c-5.123,1.2-10.1,2.733-15.135,4.2C101.067,82.246,96,83.513,91.029,82.73c-4.2-.661-8.425-2.686-10-6.44-1.662-3.964-.108-8.533,2.606-11.838.156-.188.347-.341.508-.524" transform="translate(127.151 105.222)" fill="#e2a050"/>
            <path id="Trazado_710484" data-name="Trazado 710484" d="M55.732,70.88c-5.1,1.2-10.256,2.9-14.092,6.157s-6.075,8.414-4.3,12.851a11.509,11.509,0,0,0,5.316,5.617,33.971,33.971,0,0,0,11.507,3.44c22.247,3.2,45.7.468,65.974-8.533,3.591-1.593,7.237-3.508,9.33-6.578,7.271-10.658-9.885-14.447-17.913-15.008-18.641-1.3-37.694-2.217-55.821,2.053m57.994,1.392c4.956.638,15.749,1.942,13.725,8.853-.783,2.67-3.882,4.334-6.393,5.575a91.543,91.543,0,0,1-10.11,4.234,118.339,118.339,0,0,1-42.84,6.342c-6.512-.2-13.521-.519-19.726-2.418C42.391,93.024,37.9,88.5,40.92,82.633c3.075-5.975,11.028-7.991,17.556-9.4a125.475,125.475,0,0,1,23.34-2.548,197.168,197.168,0,0,1,29.928,1.328l1.982.254" transform="translate(60.441 111.5)" fill="#e2a050"/>
            <path id="Trazado_710485" data-name="Trazado 710485" d="M4.97,70.492a6.508,6.508,0,0,0-1.64,2.479A65.27,65.27,0,0,0,23.749,78.5a66.238,66.238,0,0,0,36.9-7.041,61.467,61.467,0,0,0,8.779-5.543l-5.676.23A62.933,62.933,0,0,1,8.609,72.03c-1.241-.466-2.442-1-3.638-1.537" transform="translate(5.481 108.492)" fill="#e2a050"/>
            <path id="Trazado_710486" data-name="Trazado 710486" d="M160.5,81.141c-24.184-5.21-50.715-6.964-71.425,7.583a47.772,47.772,0,0,0-6.509,5.554c1.651-.159,3.307-.315,4.956-.474A54.052,54.052,0,0,1,105.262,83.9c13.219-4.506,27.557-4.5,41.311-2.477,4.424.651,8.8,1.5,13.148,2.466a5.9,5.9,0,0,0,.775-2.744" transform="translate(135.892 127.325)" fill="#e2a050"/>
            <path id="Trazado_710487" data-name="Trazado 710487" d="M39.075,89.354a124.46,124.46,0,0,0,28.955-6.067C78,79.857,86.863,74.69,96.108,69.975a100.737,100.737,0,0,1,10.311-4.591c-2.707.1-5.4.212-8.107.315-8.493,4.03-16.685,9.007-25.031,12.486-18.593,7.755-39.472,9.983-59.7,8.417-3.553-.278-7.086-.712-10.6-1.222-.1.96-.212,1.929-.312,2.887a155.889,155.889,0,0,0,36.406,1.087" transform="translate(4.393 107.618)" fill="#e2a050"/>
            <path id="Trazado_710488" data-name="Trazado 710488" d="M43.179,86.373C32.2,85,21.329,88.495,12.8,94.734a49.578,49.578,0,0,0-4.615,3.89C9.9,98.459,11.6,98.3,13.3,98.136a40.556,40.556,0,0,1,21.138-9.017,34.863,34.863,0,0,1,21.871,4.921l4.6-.439a35.938,35.938,0,0,0-17.738-7.229" transform="translate(13.479 141.676)" fill="#e2a050"/>
            <path id="Trazado_710489" data-name="Trazado 710489" d="M32.153,86.761a152.724,152.724,0,0,1,32.008,3.268c11.039,2.334,21.586,6.086,32.355,9.2,10.457,3.022,21.128,5.223,32.188,5.252a132.211,132.211,0,0,0,32.572-4.525c21.779-5.509,42.338-14.415,64.3-19.368a175.242,175.242,0,0,1,66.6-2.384c-.1-.992-.241-1.982-.352-2.974a177.13,177.13,0,0,0-57.044.6c-22.663,3.847-43.661,12.5-65.482,18.911-10.705,3.146-21.691,5.747-32.934,6.575a102.847,102.847,0,0,1-33.892-3.458C91.425,94.961,80.751,91.026,69.641,88.3A155.184,155.184,0,0,0,37.63,83.959,157.728,157.728,0,0,0,2.418,86.817q-.151,1.508-.3,3.016a155.27,155.27,0,0,1,30.039-3.072" transform="translate(3.48 120.488)" fill="#e2a050"/>
            <path id="Trazado_710490" data-name="Trazado 710490" d="M10.168,86.422c-2.826.839-5.6,1.807-8.34,2.847-.114,1.093-.235,2.193-.352,3.286C27.586,82.295,57.7,81.517,84.352,91.2A112.279,112.279,0,0,1,100.2,98.446q2.568-.242,5.13-.487c-27.774-16.534-63.1-21.046-95.164-11.536" transform="translate(2.429 134.151)" fill="#e2a050"/>
            <g id="Grupo_976468" data-name="Grupo 976468" transform="translate(77.436 176.372)" opacity="0.7" style="mix-blend-mode: soft-light;isolation: isolate">
              <g id="Grupo_976467" data-name="Grupo 976467">
                <g id="Grupo_976466" data-name="Grupo 976466" clip-path="url(#clip-path-16)">
                  <path id="Trazado_710491" data-name="Trazado 710491" d="M186.651,66.687c5.292-.18,11.822.368,13.971,5.207,1.823,4.1-1.04,9.06-5.022,11.131s-8.687,2.014-13.171,1.908q-13.99-.325-27.978-.654c-37.885-.884-75.872-1.77-113.487-6.745-1.741-.23-11.087-.447-11.634-2.167-.714-2.241,4.9-3.36,6.115-3.53,9.48-1.307,19.667-.669,29.24-.995l57.687-1.966,64.281-2.191" transform="translate(-29.266 -66.657)" fill="#f8f5f1"/>
                </g>
              </g>
            </g>
            <path id="Trazado_710492" data-name="Trazado 710492" d="M112.966,76.557c.1,2.876-2.429,5.292-5.633,5.4s-5.885-2.141-5.98-5.014,2.429-5.295,5.636-5.4,5.882,2.141,5.977,5.017" transform="translate(166.816 117.745)" fill="#a36029"/>
            <path id="Trazado_710493" data-name="Trazado 710493" d="M103.845,72.149a9.389,9.389,0,0,1,.791,3.651,9.258,9.258,0,0,1-.55,3.694,9.3,9.3,0,0,1-.791-3.651,9.435,9.435,0,0,1,.55-3.694" transform="translate(170.013 118.753)" fill="#47270c"/>
            <path id="Trazado_710494" data-name="Trazado 710494" d="M110.188,73.78a12.776,12.776,0,0,1-4.075.736A12.617,12.617,0,0,1,102,74.05a12.7,12.7,0,0,1,4.075-.738,12.848,12.848,0,0,1,4.114.468" transform="translate(167.884 120.66)" fill="#47270c"/>
            <path id="Trazado_710495" data-name="Trazado 710495" d="M18.578,82.213c.1,2.876-2.429,5.292-5.633,5.4S7.06,85.47,6.965,82.6s2.429-5.292,5.636-5.4,5.882,2.138,5.977,5.014" transform="translate(11.459 127.06)" fill="#a36029"/>
            <path id="Trazado_710496" data-name="Trazado 710496" d="M9.457,77.808a9.386,9.386,0,0,1,.791,3.649,9.263,9.263,0,0,1-.55,3.7A9.3,9.3,0,0,1,8.906,81.5a9.434,9.434,0,0,1,.55-3.694" transform="translate(14.656 128.067)" fill="#47270c"/>
            <path id="Trazado_710497" data-name="Trazado 710497" d="M15.8,79.438a12.853,12.853,0,0,1-4.075.738,12.693,12.693,0,0,1-4.114-.468,12.694,12.694,0,0,1,4.075-.738,12.848,12.848,0,0,1,4.114.468" transform="translate(12.529 129.972)" fill="#47270c"/>
            <path id="Trazado_710498" data-name="Trazado 710498" d="M284.46,83.706c3.337-.331,7.075-.561,9.652,1.349,2.754,2.043,3.051,5.673,3.133,8.89l1.066,41.668c.106,4.223-3.479,7.829-8.176,8.2q-138.9,11.065-278.424,11.351c-6.938.013-10.319-3.329-11.145-9.348a73.613,73.613,0,0,1,.09-18.871c.508-4.178.243-12.621,4.81-15.066a18.2,18.2,0,0,1,7.041-1.569c24.456-2.127,48.876-4.525,73.3-6.943q63.78-6.315,127.563-12.626l71.091-7.038" transform="translate(0 137.408)" fill="#ffba5f"/>
            <path id="Trazado_710499" data-name="Trazado 710499" d="M38.84,95.824c-.032.079-.077.153-.106.233-1.355,3.7.164,7.6,2.889,10.438,3.172,3.3,7.8,4.974,12.473,5.829a110.1,110.1,0,0,0,16.783,1.469,164.8,164.8,0,0,0,34.881-2.829c9.123-1.738,19.244-5.826,21.969-14.64a12.1,12.1,0,0,0-.841-9.216q-1.679.167-3.355.331a9.532,9.532,0,0,1,1.225,7.673c-1.947,7.5-10.608,11.116-18.183,12.74a152.213,152.213,0,0,1-27.986,3.059c-4.662.114-9.33.024-13.976-.294a62.5,62.5,0,0,1-13.351-1.945c-4.146-1.225-8.255-3.8-9.5-7.747a6.612,6.612,0,0,1,.8-5.469q-1.861.183-3.723.368" transform="translate(62.926 143.375)" fill="#e2a050"/>
            <path id="Trazado_710500" data-name="Trazado 710500" d="M115.339,108.885c-8.647-4.739-19.466-5.022-29.256-3.659-10.854,1.511-21.22,5-32.011,6.782a126.5,126.5,0,0,1-31.553,1.156A124.137,124.137,0,0,1,.135,109.042c.074.72.111,1.445.209,2.162.05.357.138.672.206,1.011a130.063,130.063,0,0,0,44.468,3.823c10.43-.918,20.366-3.5,30.481-5.84s20.935-4.136,31.169-1.527c6.147,1.566,11.883,5.115,15.214,9.941,1.188-.04,2.376-.087,3.567-.13a26.225,26.225,0,0,0-10.11-9.6" transform="translate(0.222 172.026)" fill="#e2a050"/>
            <path id="Trazado_710501" data-name="Trazado 710501" d="M67.83,135.178c5.377-2.736,12.2-3.178,18.2-3.85,13.248-1.49,26.592-1.987,39.858-3.286,23.435-2.3,46.923-7.655,64.532-22.633a84.173,84.173,0,0,0,10.018-10.152l-.122-4.768a83.506,83.506,0,0,1-10.832,11.732,82.1,82.1,0,0,1-30.412,16.754c-25.555,7.959-52.932,6.567-79.317,10.248-6.022.839-12.653,1.879-17.185,5.9a12.547,12.547,0,0,0-3.551,5.3c1.151-.048,2.3-.108,3.456-.156a12.657,12.657,0,0,1,5.358-5.091" transform="translate(97.137 148.938)" fill="#e2a050"/>
            <path id="Trazado_710502" data-name="Trazado 710502" d="M.748,104.28a62.325,62.325,0,0,0,29.447,8.856,60.624,60.624,0,0,0,39.022-12.243,53.519,53.519,0,0,0,9.756-9.687c-1.445.143-2.892.28-4.337.423a54.676,54.676,0,0,1-22.025,15.108,58.512,58.512,0,0,1-40.11-.011,56.2,56.2,0,0,1-10.571-5.2A11.53,11.53,0,0,0,.748,104.28" transform="translate(1.231 150.12)" fill="#e2a050"/>
            <path id="Trazado_710503" data-name="Trazado 710503" d="M.42,124.095c-.124,1.064-.222,2.133-.31,3.2,8.861,4.839,19.405,7.189,29.82,7.827,18.8,1.148,37.226-3.429,55.745-5.615a145.9,145.9,0,0,1,29.645-.556c9.8.836,19.519,2.355,29.346,3.014a95.514,95.514,0,0,0,27.923-1.762,85.308,85.308,0,0,0,23.888-9.584c14.764-8.679,26.11-21.178,34.371-35.051l-3.913.386a95.488,95.488,0,0,1-27.663,29.4,80.428,80.428,0,0,1-49.41,13.986c-9.7-.294-19.281-1.712-28.9-2.725A153.278,153.278,0,0,0,92.85,125.9c-18.572,1.453-36.765,6.319-55.462,6.514-12.8.138-26.309-2-36.969-8.324" transform="translate(0.181 140.838)" fill="#e2a050"/>
            <path id="Trazado_710504" data-name="Trazado 710504" d="M140.33,103.462l-.074-2.913A97.442,97.442,0,0,0,95.918,118.43c1.934-.135,3.866-.28,5.8-.418a94.543,94.543,0,0,1,38.612-14.55" transform="translate(157.875 165.498)" fill="#e2a050"/>
            <path id="Trazado_710505" data-name="Trazado 710505" d="M94.292,110.533a59.52,59.52,0,0,0,4.44-4.861,56.4,56.4,0,0,0,10.115-18.5q-1.734.175-3.469.344a53.436,53.436,0,0,1-10.208,17.64c-2.876,3.3-7.133,6.154-9,10.063-1.736,3.633-.7,7.9,3.538,9.555,4.043,1.58,9.216,1.005,13.359-.008a44.132,44.132,0,0,0,13.7-6.247A89.522,89.522,0,0,0,137.183,99.14a172.354,172.354,0,0,0,10.87-15.648,32.226,32.226,0,0,0-3.786.18c-6.575,10.33-13.931,20.276-23.75,28.349-6.858,5.636-15.558,10.949-25.211,10.777-2.09-.037-4.879-.238-6.144-1.966-1.286-1.752-.445-4.106.7-5.726a35.406,35.406,0,0,1,4.432-4.572" transform="translate(140.508 137.413)" fill="#e2a050"/>
            <path id="Trazado_710506" data-name="Trazado 710506" d="M113.9,99.1c.061,2.876-2.487,5.271-5.7,5.345s-5.855-2.193-5.919-5.07,2.49-5.271,5.7-5.345,5.858,2.193,5.919,5.07" transform="translate(168.356 154.758)" fill="#a36029"/>
            <path id="Trazado_710507" data-name="Trazado 710507" d="M104.821,94.635a9.434,9.434,0,0,1,.751,3.657,9.325,9.325,0,0,1-.6,3.691,10.4,10.4,0,0,1-.156-7.348" transform="translate(171.553 155.764)" fill="#47270c"/>
            <path id="Trazado_710508" data-name="Trazado 710508" d="M111.126,96.3a12.78,12.78,0,0,1-4.083.7,12.622,12.622,0,0,1-4.109-.505,14.24,14.24,0,0,1,8.192-.193" transform="translate(169.423 157.674)" fill="#47270c"/>
            <path id="Trazado_710509" data-name="Trazado 710509" d="M16.617,105.529c.061,2.876-2.49,5.271-5.7,5.345S5.065,108.681,5,105.8s2.49-5.271,5.694-5.347,5.858,2.2,5.919,5.072" transform="translate(8.234 165.344)" fill="#a36029"/>
            <path id="Trazado_710510" data-name="Trazado 710510" d="M7.538,101.067a9.386,9.386,0,0,1,.751,3.657,9.324,9.324,0,0,1-.6,3.691,10.4,10.4,0,0,1-.156-7.348" transform="translate(11.431 166.35)" fill="#47270c"/>
            <path id="Trazado_710511" data-name="Trazado 710511" d="M13.842,102.734a12.78,12.78,0,0,1-4.083.7,12.623,12.623,0,0,1-4.109-.505,12.708,12.708,0,0,1,4.083-.7,12.769,12.769,0,0,1,4.109.505" transform="translate(9.3 168.26)" fill="#47270c"/>
          </g>
        </g>
      </g>
    </g>
  </g>
</svg>
