<svg xmlns="http://www.w3.org/2000/svg" xmlns:xlink="http://www.w3.org/1999/xlink" width="1228" height="1059" viewBox="0 0 1228 1059">
  <defs>
    <clipPath id="clip-path">
      <rect id="Rectángulo_341196" data-name="Rectángulo 341196" width="48.049" height="72.959" fill="none"/>
    </clipPath>
    <clipPath id="clip-path-2">
      <rect id="Rectángulo_341197" data-name="Rectángulo 341197" width="78.471" height="66.801" fill="none"/>
    </clipPath>
    <clipPath id="clip-path-3">
      <rect id="Rectángulo_341198" data-name="Rectángulo 341198" width="64.926" height="78.897" fill="#fff"/>
    </clipPath>
    <clipPath id="clip-path-4">
      <rect id="Rectángulo_341199" data-name="Rectángulo 341199" width="64.925" height="64.863" fill="none"/>
    </clipPath>
    <clipPath id="clip-path-5">
      <rect id="Rectángulo_341200" data-name="Rectángulo 341200" width="69.599" height="64.554" fill="none"/>
    </clipPath>
    <clipPath id="clip-path-6">
      <rect id="Rectángulo_341201" data-name="Rectángulo 341201" width="62.984" height="67.039" fill="none"/>
    </clipPath>
    <clipPath id="clip-path-7">
      <rect id="Rectángulo_341202" data-name="Rectángulo 341202" width="43.606" height="80.062" fill="#fff"/>
    </clipPath>
  </defs>
  <g id="Grupo_982798" data-name="Grupo 982798" transform="translate(-186 -1031)">
    <rect id="Rectángulo_4776" data-name="Rectángulo 4776" width="1021" height="984" rx="10" transform="translate(290 1031)" fill="#fafafa"/>
    <circle id="Elipse_1142" data-name="Elipse 1142" cx="50.5" cy="50.5" r="50.5" transform="translate(750 1112)" fill="#ffc403"/>
    <path id="Trazado_716532" data-name="Trazado 716532" d="M4.052,12.658V17H.967V4.2H6.073a5.948,5.948,0,0,1,2.6.541,4.074,4.074,0,0,1,1.749,1.538,4.2,4.2,0,0,1,.62,2.263A3.7,3.7,0,0,1,9.7,11.538a5.561,5.561,0,0,1-3.678,1.121Zm0-2.382H6.073A1.906,1.906,0,0,0,7.44,9.828a1.665,1.665,0,0,0,.47-1.266A2.059,2.059,0,0,0,7.427,7.13a1.712,1.712,0,0,0-1.318-.545H4.052ZM18.3,10.171l-.976-.07a1.752,1.752,0,0,0-1.793.879V17H12.568V7.49h2.777l.1,1.222a2.294,2.294,0,0,1,2.083-1.4,2.888,2.888,0,0,1,.826.105Zm.378,1.986a5.613,5.613,0,0,1,.554-2.536,3.96,3.96,0,0,1,1.591-1.709,4.791,4.791,0,0,1,2.435-.6,4.373,4.373,0,0,1,3.366,1.323,5.076,5.076,0,0,1,1.23,3.6v.105a4.925,4.925,0,0,1-1.235,3.529,4.384,4.384,0,0,1-3.344,1.305,4.434,4.434,0,0,1-3.261-1.217,4.761,4.761,0,0,1-1.327-3.3Zm2.962.185a3.538,3.538,0,0,0,.413,1.934,1.376,1.376,0,0,0,1.222.615q1.582,0,1.617-2.435v-.3q0-2.558-1.635-2.558-1.485,0-1.608,2.206Zm11.18,1.134,1.5-5.985h3.12L34.339,17H31.315l-3.1-9.51h3.129ZM41.449,17H38.479V7.49h2.971ZM38.3,5.038A1.322,1.322,0,0,1,38.76,4a1.943,1.943,0,0,1,2.373,0,1.322,1.322,0,0,1,.457,1.037,1.322,1.322,0,0,1-.457,1.037,1.943,1.943,0,0,1-2.373,0A1.322,1.322,0,0,1,38.3,5.038Zm9.949,9.29a.684.684,0,0,0-.4-.606,6.016,6.016,0,0,0-1.5-.475,6.853,6.853,0,0,1-1.828-.646,3.062,3.062,0,0,1-1.1-.971,2.319,2.319,0,0,1-.378-1.31A2.628,2.628,0,0,1,44.13,8.163a4.453,4.453,0,0,1,2.83-.848,4.934,4.934,0,0,1,3.023.853,2.666,2.666,0,0,1,1.143,2.241H48.155q0-1.143-1.2-1.143a1.194,1.194,0,0,0-.782.259.8.8,0,0,0-.316.646.737.737,0,0,0,.387.642,3.654,3.654,0,0,0,1.235.4,10.671,10.671,0,0,1,1.49.378,2.706,2.706,0,0,1,2.145,2.646,2.491,2.491,0,0,1-1.156,2.118,5.068,5.068,0,0,1-2.993.817,5.172,5.172,0,0,1-2.18-.439,3.645,3.645,0,0,1-1.494-1.2,2.707,2.707,0,0,1-.536-1.591h2.769a1.145,1.145,0,0,0,.439.962,1.808,1.808,0,0,0,1.081.3,1.422,1.422,0,0,0,.91-.246A.787.787,0,0,0,48.252,14.328ZM55.617,17H52.646V7.49h2.971ZM52.471,5.038A1.322,1.322,0,0,1,52.928,4,1.943,1.943,0,0,1,55.3,4a1.322,1.322,0,0,1,.457,1.037A1.322,1.322,0,0,1,55.3,6.075a1.943,1.943,0,0,1-2.373,0A1.322,1.322,0,0,1,52.471,5.038Zm4.6,7.119a5.613,5.613,0,0,1,.554-2.536,3.96,3.96,0,0,1,1.591-1.709,4.791,4.791,0,0,1,2.435-.6,4.373,4.373,0,0,1,3.366,1.323,5.076,5.076,0,0,1,1.23,3.6v.105a4.925,4.925,0,0,1-1.235,3.529,4.384,4.384,0,0,1-3.344,1.305A4.434,4.434,0,0,1,58.4,15.958a4.761,4.761,0,0,1-1.327-3.3Zm2.962.185a3.538,3.538,0,0,0,.413,1.934,1.376,1.376,0,0,0,1.222.615q1.582,0,1.617-2.435v-.3q0-2.558-1.635-2.558-1.485,0-1.608,2.206ZM70.269,7.49l.1,1.116a3.225,3.225,0,0,1,2.716-1.292A2.713,2.713,0,0,1,75.3,8.2a4.226,4.226,0,0,1,.76,2.672V17H73.09V11a1.6,1.6,0,0,0-.29-1.059A1.342,1.342,0,0,0,71.745,9.6a1.413,1.413,0,0,0-1.292.686V17H67.491V7.49ZM82.3,17.176a4.889,4.889,0,0,1-3.542-1.305,4.507,4.507,0,0,1-1.354-3.4v-.246a5.84,5.84,0,0,1,.541-2.575,3.955,3.955,0,0,1,1.578-1.727,4.763,4.763,0,0,1,2.461-.611,4.117,4.117,0,0,1,3.164,1.244,4.887,4.887,0,0,1,1.16,3.467v1.151H80.42a2.135,2.135,0,0,0,.694,1.257,2.066,2.066,0,0,0,1.389.457,2.662,2.662,0,0,0,2.2-.984l1.354,1.6a3.784,3.784,0,0,1-1.569,1.217A5.3,5.3,0,0,1,82.3,17.176ZM81.967,9.6q-1.3,0-1.547,1.723h2.988v-.229a1.467,1.467,0,0,0-.36-1.1A1.434,1.434,0,0,0,81.967,9.6Zm10.512,4.729a.684.684,0,0,0-.4-.606,6.016,6.016,0,0,0-1.5-.475,6.853,6.853,0,0,1-1.828-.646,3.062,3.062,0,0,1-1.1-.971,2.319,2.319,0,0,1-.378-1.31,2.628,2.628,0,0,1,1.081-2.158,4.453,4.453,0,0,1,2.83-.848,4.934,4.934,0,0,1,3.023.853,2.666,2.666,0,0,1,1.143,2.241H92.382q0-1.143-1.2-1.143a1.194,1.194,0,0,0-.782.259.8.8,0,0,0-.316.646.737.737,0,0,0,.387.642,3.654,3.654,0,0,0,1.235.4,10.671,10.671,0,0,1,1.49.378,2.706,2.706,0,0,1,2.145,2.646,2.491,2.491,0,0,1-1.156,2.118,5.068,5.068,0,0,1-2.993.817,5.172,5.172,0,0,1-2.18-.439,3.645,3.645,0,0,1-1.494-1.2,2.707,2.707,0,0,1-.536-1.591h2.769a1.145,1.145,0,0,0,.439.962,1.808,1.808,0,0,0,1.081.3,1.422,1.422,0,0,0,.91-.246A.787.787,0,0,0,92.479,14.328Zm8.35-2.153a5.809,5.809,0,0,1,.976-3.56,3.211,3.211,0,0,1,2.725-1.3,2.731,2.731,0,0,1,2.145,1V3.5h2.971V17H106.98l-.149-1.02a2.8,2.8,0,0,1-2.32,1.2,3.205,3.205,0,0,1-2.689-1.3A5.993,5.993,0,0,1,100.828,12.175Zm2.962.185q0,2.531,1.477,2.531a1.458,1.458,0,0,0,1.406-.826V10.443a1.419,1.419,0,0,0-1.389-.844q-1.371,0-1.485,2.215Zm12.138,4.816a4.889,4.889,0,0,1-3.542-1.305,4.507,4.507,0,0,1-1.354-3.4v-.246a5.84,5.84,0,0,1,.541-2.575,3.955,3.955,0,0,1,1.578-1.727,4.763,4.763,0,0,1,2.461-.611,4.117,4.117,0,0,1,3.164,1.244,4.887,4.887,0,0,1,1.16,3.467v1.151h-5.889a2.135,2.135,0,0,0,.694,1.257,2.066,2.066,0,0,0,1.389.457,2.662,2.662,0,0,0,2.2-.984l1.354,1.6a3.784,3.784,0,0,1-1.569,1.217A5.3,5.3,0,0,1,115.928,17.176ZM115.594,9.6q-1.3,0-1.547,1.723h2.988v-.229a1.467,1.467,0,0,0-.36-1.1A1.434,1.434,0,0,0,115.594,9.6Zm14.036,5.291a1.317,1.317,0,0,0,.967-.338,1.241,1.241,0,0,0,.334-.945h2.777a3.288,3.288,0,0,1-1.121,2.566,4.168,4.168,0,0,1-2.887,1,4.22,4.22,0,0,1-3.27-1.3,5.125,5.125,0,0,1-1.2-3.6v-.123a5.792,5.792,0,0,1,.532-2.544,3.872,3.872,0,0,1,1.534-1.7,4.573,4.573,0,0,1,2.373-.593,4.116,4.116,0,0,1,2.944,1.028,3.647,3.647,0,0,1,1.09,2.786h-2.777A1.626,1.626,0,0,0,130.57,10a1.244,1.244,0,0,0-.967-.4q-1.151,0-1.345,1.468a10.357,10.357,0,0,0-.062,1.283,4.068,4.068,0,0,0,.343,1.986A1.187,1.187,0,0,0,129.63,14.891Zm4.957-2.733a5.613,5.613,0,0,1,.554-2.536,3.96,3.96,0,0,1,1.591-1.709,4.791,4.791,0,0,1,2.435-.6,4.373,4.373,0,0,1,3.366,1.323,5.076,5.076,0,0,1,1.23,3.6v.105a4.925,4.925,0,0,1-1.235,3.529,4.384,4.384,0,0,1-3.344,1.305,4.434,4.434,0,0,1-3.261-1.217,4.761,4.761,0,0,1-1.327-3.3Zm2.962.185a3.538,3.538,0,0,0,.413,1.934,1.376,1.376,0,0,0,1.222.615q1.582,0,1.617-2.435v-.3q0-2.558-1.635-2.558-1.485,0-1.608,2.206ZM147.788,7.49l.1,1.116A3.225,3.225,0,0,1,150.6,7.314a2.713,2.713,0,0,1,2.219.888,4.226,4.226,0,0,1,.76,2.672V17h-2.971V11a1.6,1.6,0,0,0-.29-1.059,1.342,1.342,0,0,0-1.055-.338,1.413,1.413,0,0,0-1.292.686V17h-2.962V7.49ZM155.874,17V9.547h-1.38V7.49h1.38V6.734a3.286,3.286,0,0,1,.958-2.522,3.785,3.785,0,0,1,2.689-.9,5.89,5.89,0,0,1,1.389.185l.009,2.18a2.706,2.706,0,0,0-.729-.079q-1.345,0-1.345,1.16V7.49H160.7V9.547h-1.854V17Zm5.493-4.843a5.613,5.613,0,0,1,.554-2.536,3.96,3.96,0,0,1,1.591-1.709,4.791,4.791,0,0,1,2.435-.6,4.373,4.373,0,0,1,3.366,1.323,5.076,5.076,0,0,1,1.23,3.6v.105a4.925,4.925,0,0,1-1.235,3.529,4.384,4.384,0,0,1-3.344,1.305,4.434,4.434,0,0,1-3.261-1.217,4.761,4.761,0,0,1-1.327-3.3Zm2.962.185a3.538,3.538,0,0,0,.413,1.934,1.376,1.376,0,0,0,1.222.615q1.582,0,1.617-2.435v-.3q0-2.558-1.635-2.558-1.485,0-1.608,2.206ZM177.6,10.171l-.976-.07a1.752,1.752,0,0,0-1.793.879V17H171.87V7.49h2.777l.1,1.222a2.294,2.294,0,0,1,2.083-1.4,2.888,2.888,0,0,1,.826.105Zm4.957-5.045V7.49h1.564V9.547h-1.564V13.9a1.111,1.111,0,0,0,.193.747,1.037,1.037,0,0,0,.765.211,4.345,4.345,0,0,0,.738-.053v2.118a5.466,5.466,0,0,1-1.67.255,3.1,3.1,0,0,1-2.259-.721,2.954,2.954,0,0,1-.729-2.188V9.547h-1.213V7.49H179.6V5.126ZM195.126,17a3.344,3.344,0,0,1-.281-.853,2.754,2.754,0,0,1-2.285,1.028,3.374,3.374,0,0,1-2.285-.813,2.588,2.588,0,0,1-.94-2.043,2.66,2.66,0,0,1,1.143-2.338,5.821,5.821,0,0,1,3.322-.791h.914v-.5q0-1.316-1.134-1.316a.927.927,0,0,0-1.055,1.042h-2.962a2.655,2.655,0,0,1,1.173-2.239,4.931,4.931,0,0,1,2.993-.86A4.323,4.323,0,0,1,196.6,8.2a3.086,3.086,0,0,1,1.081,2.435v4.21a4.311,4.311,0,0,0,.4,2V17Zm-1.854-1.934a1.652,1.652,0,0,0,.918-.237,1.487,1.487,0,0,0,.523-.536V12.772h-.861q-1.547,0-1.547,1.389a.848.848,0,0,0,.272.655A.986.986,0,0,0,193.271,15.066Zm8.771-7.576.1,1.116a3.225,3.225,0,0,1,2.716-1.292,2.713,2.713,0,0,1,2.219.888,4.226,4.226,0,0,1,.76,2.672V17h-2.971V11a1.6,1.6,0,0,0-.29-1.059A1.342,1.342,0,0,0,203.52,9.6a1.413,1.413,0,0,0-1.292.686V17h-2.962V7.49ZM212.6,17h-2.971V7.49H212.6ZM209.452,5.038A1.322,1.322,0,0,1,209.909,4a1.943,1.943,0,0,1,2.373,0,1.322,1.322,0,0,1,.457,1.037,1.322,1.322,0,0,1-.457,1.037,1.943,1.943,0,0,1-2.373,0A1.322,1.322,0,0,1,209.452,5.038Zm7.77,2.452.1,1.116a3.27,3.27,0,0,1,2.716-1.292,2.407,2.407,0,0,1,2.435,1.433,3.165,3.165,0,0,1,2.795-1.433q2.892,0,2.971,3.5V17h-2.971V11a1.813,1.813,0,0,0-.246-1.063,1.048,1.048,0,0,0-.9-.334,1.4,1.4,0,0,0-1.31.782l.009.123V17H219.85V11.015a1.906,1.906,0,0,0-.237-1.081,1.045,1.045,0,0,0-.905-.334,1.42,1.42,0,0,0-1.3.782V17h-2.962V7.49ZM235.283,17a3.344,3.344,0,0,1-.281-.853,2.754,2.754,0,0,1-2.285,1.028,3.374,3.374,0,0,1-2.285-.813,2.588,2.588,0,0,1-.94-2.043,2.66,2.66,0,0,1,1.143-2.338,5.821,5.821,0,0,1,3.322-.791h.914v-.5q0-1.316-1.134-1.316a.927.927,0,0,0-1.055,1.042H229.72a2.655,2.655,0,0,1,1.173-2.239,4.931,4.931,0,0,1,2.993-.86,4.323,4.323,0,0,1,2.874.888,3.086,3.086,0,0,1,1.081,2.435v4.21a4.311,4.311,0,0,0,.4,2V17Zm-1.854-1.934a1.652,1.652,0,0,0,.918-.237,1.487,1.487,0,0,0,.523-.536V12.772h-.861q-1.547,0-1.547,1.389a.848.848,0,0,0,.272.655A.986.986,0,0,0,233.429,15.066ZM242.6,17h-2.971V3.5H242.6Z" transform="translate(320 1061)" fill="#12263f"/>
    <path id="Trazado_716533" data-name="Trazado 716533" d="M11.443,15.418A4.96,4.96,0,0,1,9.36,16.692a8.984,8.984,0,0,1-3.006.483,5.36,5.36,0,0,1-4.017-1.538,6.226,6.226,0,0,1-1.608-4.28L.721,10.25a7.637,7.637,0,0,1,.668-3.3A4.96,4.96,0,0,1,3.3,4.779a5.407,5.407,0,0,1,2.878-.76A5.669,5.669,0,0,1,9.892,5.113a4.637,4.637,0,0,1,1.542,3.265H8.464a2.426,2.426,0,0,0-.686-1.529,2.212,2.212,0,0,0-1.494-.457,2.013,2.013,0,0,0-1.793.984,5.256,5.256,0,0,0-.642,2.813v.773A5.145,5.145,0,0,0,4.5,13.84a2.316,2.316,0,0,0,2.061.962,2.592,2.592,0,0,0,1.793-.536V12.28H6.214V10.162h5.229ZM17.7,17.176a4.889,4.889,0,0,1-3.542-1.305,4.507,4.507,0,0,1-1.354-3.4v-.246a5.84,5.84,0,0,1,.541-2.575,3.955,3.955,0,0,1,1.578-1.727,4.763,4.763,0,0,1,2.461-.611,4.117,4.117,0,0,1,3.164,1.244,4.887,4.887,0,0,1,1.16,3.467v1.151H15.82a2.135,2.135,0,0,0,.694,1.257,2.066,2.066,0,0,0,1.389.457,2.662,2.662,0,0,0,2.2-.984l1.354,1.6a3.784,3.784,0,0,1-1.569,1.217A5.3,5.3,0,0,1,17.7,17.176ZM17.367,9.6q-1.3,0-1.547,1.723h2.988v-.229a1.467,1.467,0,0,0-.36-1.1A1.434,1.434,0,0,0,17.367,9.6ZM25.62,7.49l.1,1.116a3.225,3.225,0,0,1,2.716-1.292,2.713,2.713,0,0,1,2.219.888,4.226,4.226,0,0,1,.76,2.672V17H28.441V11a1.6,1.6,0,0,0-.29-1.059A1.342,1.342,0,0,0,27.1,9.6a1.413,1.413,0,0,0-1.292.686V17H22.843V7.49Zm12.032,9.686a4.889,4.889,0,0,1-3.542-1.305,4.507,4.507,0,0,1-1.354-3.4v-.246A5.84,5.84,0,0,1,33.3,9.652a3.955,3.955,0,0,1,1.578-1.727,4.763,4.763,0,0,1,2.461-.611A4.117,4.117,0,0,1,40.5,8.558a4.887,4.887,0,0,1,1.16,3.467v1.151H35.771a2.135,2.135,0,0,0,.694,1.257,2.066,2.066,0,0,0,1.389.457,2.662,2.662,0,0,0,2.2-.984l1.354,1.6a3.784,3.784,0,0,1-1.569,1.217A5.3,5.3,0,0,1,37.652,17.176ZM37.318,9.6q-1.3,0-1.547,1.723H38.76v-.229a1.467,1.467,0,0,0-.36-1.1A1.434,1.434,0,0,0,37.318,9.6Zm-.035-6.108h3.129l-2.443,2.76-2.417,0ZM46.3,5.126V7.49h1.564V9.547H46.3V13.9a1.111,1.111,0,0,0,.193.747,1.037,1.037,0,0,0,.765.211A4.345,4.345,0,0,0,48,14.8v2.118a5.466,5.466,0,0,1-1.67.255,3.1,3.1,0,0,1-2.259-.721,2.954,2.954,0,0,1-.729-2.188V9.547H42.126V7.49h1.213V5.126ZM52.154,17H49.184V7.49h2.971ZM49.008,5.038A1.322,1.322,0,0,1,49.465,4a1.943,1.943,0,0,1,2.373,0,1.322,1.322,0,0,1,.457,1.037,1.322,1.322,0,0,1-.457,1.037,1.943,1.943,0,0,1-2.373,0A1.322,1.322,0,0,1,49.008,5.038ZM58,14.891a1.317,1.317,0,0,0,.967-.338,1.241,1.241,0,0,0,.334-.945h2.777a3.288,3.288,0,0,1-1.121,2.566,4.168,4.168,0,0,1-2.887,1,4.22,4.22,0,0,1-3.27-1.3,5.125,5.125,0,0,1-1.2-3.6v-.123A5.792,5.792,0,0,1,54.136,9.6a3.872,3.872,0,0,1,1.534-1.7,4.573,4.573,0,0,1,2.373-.593,4.116,4.116,0,0,1,2.944,1.028,3.647,3.647,0,0,1,1.09,2.786H59.3A1.626,1.626,0,0,0,58.939,10a1.244,1.244,0,0,0-.967-.4q-1.151,0-1.345,1.468a10.357,10.357,0,0,0-.062,1.283,4.068,4.068,0,0,0,.343,1.986A1.187,1.187,0,0,0,58,14.891ZM68.687,17a3.344,3.344,0,0,1-.281-.853,2.754,2.754,0,0,1-2.285,1.028,3.374,3.374,0,0,1-2.285-.813,2.588,2.588,0,0,1-.94-2.043,2.66,2.66,0,0,1,1.143-2.338,5.821,5.821,0,0,1,3.322-.791h.914v-.5q0-1.316-1.134-1.316a.927.927,0,0,0-1.055,1.042H63.123A2.655,2.655,0,0,1,64.3,8.175a4.931,4.931,0,0,1,2.993-.86,4.323,4.323,0,0,1,2.874.888,3.086,3.086,0,0,1,1.081,2.435v4.21a4.311,4.311,0,0,0,.4,2V17Zm-1.854-1.934a1.652,1.652,0,0,0,.918-.237,1.487,1.487,0,0,0,.523-.536V12.772h-.861q-1.547,0-1.547,1.389a.848.848,0,0,0,.272.655A.986.986,0,0,0,66.832,15.066Z" transform="translate(881 1152)" fill="#12263f"/>
    <path id="Trazado_716537" data-name="Trazado 716537" d="M12.578,14.186a5.193,5.193,0,0,1-.8,2.622A4.833,4.833,0,0,1,9.722,18.57,7,7,0,0,1,6.7,19.2a5.584,5.584,0,0,1-4.414-1.826A7.54,7.54,0,0,1,.674,12.213v-.7A8.607,8.607,0,0,1,1.4,7.853,5.513,5.513,0,0,1,3.5,5.431,5.844,5.844,0,0,1,6.66,4.576a6.129,6.129,0,0,1,4.16,1.362,5.383,5.383,0,0,1,1.787,3.755H9.189a2.547,2.547,0,0,0-.654-1.865A2.691,2.691,0,0,0,6.66,7.262a2.048,2.048,0,0,0-1.875.957,6.151,6.151,0,0,0-.625,3.057v1.006a6.806,6.806,0,0,0,.571,3.252A2.091,2.091,0,0,0,6.7,16.51a2.632,2.632,0,0,0,1.807-.557,2.363,2.363,0,0,0,.664-1.768Zm1.055-.566a6.236,6.236,0,0,1,.615-2.817,4.4,4.4,0,0,1,1.768-1.9,5.323,5.323,0,0,1,2.705-.664,4.858,4.858,0,0,1,3.74,1.47,5.64,5.64,0,0,1,1.367,4v.117a5.472,5.472,0,0,1-1.372,3.921A4.871,4.871,0,0,1,18.74,19.2a4.927,4.927,0,0,1-3.623-1.353,5.29,5.29,0,0,1-1.475-3.667Zm3.291.205a3.932,3.932,0,0,0,.459,2.148,1.529,1.529,0,0,0,1.357.684q1.758,0,1.8-2.705v-.332q0-2.842-1.816-2.842-1.65,0-1.787,2.451ZM28.389,8.434l.107,1.24a3.633,3.633,0,0,1,3.018-1.436A2.675,2.675,0,0,1,34.219,9.83a3.516,3.516,0,0,1,3.105-1.592q3.213,0,3.3,3.887V19h-3.3V12.33a2.014,2.014,0,0,0-.273-1.182,1.164,1.164,0,0,0-1-.371,1.559,1.559,0,0,0-1.455.869l.01.137V19h-3.3V12.35a2.117,2.117,0,0,0-.264-1.2,1.161,1.161,0,0,0-1.006-.371,1.578,1.578,0,0,0-1.445.869V19H25.3V8.434Zm23.926,5.361a6.372,6.372,0,0,1-1.108,3.931,3.554,3.554,0,0,1-2.993,1.47,3.046,3.046,0,0,1-2.393-1.064v4.932H42.529V8.434h3.076l.1.977a3.046,3.046,0,0,1,2.49-1.172,3.582,3.582,0,0,1,3.037,1.44,6.45,6.45,0,0,1,1.084,3.96Zm-3.291-.205q0-2.812-1.641-2.812a1.549,1.549,0,0,0-1.562.84v4.16a1.6,1.6,0,0,0,1.582.879q1.572,0,1.621-2.715Zm4.326.029a6.236,6.236,0,0,1,.615-2.817,4.4,4.4,0,0,1,1.768-1.9,5.323,5.323,0,0,1,2.705-.664,4.858,4.858,0,0,1,3.74,1.47,5.64,5.64,0,0,1,1.367,4v.117a5.472,5.472,0,0,1-1.372,3.921,4.871,4.871,0,0,1-3.716,1.45,4.927,4.927,0,0,1-3.623-1.353,5.29,5.29,0,0,1-1.475-3.667Zm3.291.205a3.932,3.932,0,0,0,.459,2.148,1.529,1.529,0,0,0,1.357.684q1.758,0,1.8-2.705v-.332q0-2.842-1.816-2.842-1.65,0-1.787,2.451Zm14.746-2.412L70.3,11.334a1.947,1.947,0,0,0-1.992.977V19H65.02V8.434h3.086l.107,1.357a2.548,2.548,0,0,1,2.314-1.553,3.209,3.209,0,0,1,.918.117Zm5.508-5.605V8.434h1.738v2.285H76.895v4.834a1.234,1.234,0,0,0,.215.83,1.152,1.152,0,0,0,.85.234,4.828,4.828,0,0,0,.82-.059v2.354a6.074,6.074,0,0,1-1.855.283,3.448,3.448,0,0,1-2.51-.8,3.282,3.282,0,0,1-.811-2.432V10.719H72.256V8.434H73.6V5.807ZM85.879,19a3.716,3.716,0,0,1-.312-.947A3.06,3.06,0,0,1,83.027,19.2a3.749,3.749,0,0,1-2.539-.9,2.875,2.875,0,0,1-1.045-2.271,2.955,2.955,0,0,1,1.27-2.6,6.468,6.468,0,0,1,3.691-.879H85.42v-.559q0-1.462-1.26-1.462a1.03,1.03,0,0,0-1.172,1.158H79.7A2.95,2.95,0,0,1,81,9.194a5.479,5.479,0,0,1,3.325-.956,4.8,4.8,0,0,1,3.193.986,3.429,3.429,0,0,1,1.2,2.705v4.678a4.79,4.79,0,0,0,.449,2.227V19Zm-2.061-2.148a1.836,1.836,0,0,0,1.021-.264,1.653,1.653,0,0,0,.581-.6V14.3h-.957q-1.719,0-1.719,1.543a.942.942,0,0,0,.3.728A1.1,1.1,0,0,0,83.818,16.852Zm9.834-8.418.107,1.24a3.633,3.633,0,0,1,3.018-1.436A2.675,2.675,0,0,1,99.482,9.83a3.517,3.517,0,0,1,3.105-1.592q3.213,0,3.3,3.887V19h-3.3V12.33a2.014,2.014,0,0,0-.273-1.182,1.164,1.164,0,0,0-1-.371,1.559,1.559,0,0,0-1.455.869l.01.137V19h-3.3V12.35a2.117,2.117,0,0,0-.264-1.2,1.161,1.161,0,0,0-1.006-.371,1.578,1.578,0,0,0-1.445.869V19H90.566V8.434ZM111.24,19h-3.3V8.434h3.3Zm-3.5-13.291a1.469,1.469,0,0,1,.508-1.152,2.159,2.159,0,0,1,2.637,0,1.469,1.469,0,0,1,.508,1.152,1.469,1.469,0,0,1-.508,1.152,2.159,2.159,0,0,1-2.637,0A1.469,1.469,0,0,1,107.744,5.709ZM118.379,19.2a5.432,5.432,0,0,1-3.936-1.45,5.008,5.008,0,0,1-1.5-3.774V13.7a6.489,6.489,0,0,1,.6-2.861,4.395,4.395,0,0,1,1.753-1.919,5.292,5.292,0,0,1,2.734-.679,4.574,4.574,0,0,1,3.516,1.382,5.43,5.43,0,0,1,1.289,3.853v1.279h-6.543a2.372,2.372,0,0,0,.771,1.4,2.3,2.3,0,0,0,1.543.508,2.958,2.958,0,0,0,2.441-1.094l1.5,1.777a4.2,4.2,0,0,1-1.743,1.353A5.891,5.891,0,0,1,118.379,19.2Zm-.371-8.418q-1.445,0-1.719,1.914h3.32v-.254a1.63,1.63,0,0,0-.4-1.226A1.593,1.593,0,0,0,118.008,10.777Zm9.17-2.344.107,1.24A3.583,3.583,0,0,1,130.3,8.238a3.015,3.015,0,0,1,2.466.986,4.7,4.7,0,0,1,.845,2.969V19h-3.3V12.33a1.783,1.783,0,0,0-.322-1.177,1.491,1.491,0,0,0-1.172-.376,1.569,1.569,0,0,0-1.436.762V19h-3.291V8.434Zm12.09-2.627V8.434h1.738v2.285h-1.738v4.834a1.234,1.234,0,0,0,.215.83,1.152,1.152,0,0,0,.85.234,4.828,4.828,0,0,0,.82-.059v2.354a6.074,6.074,0,0,1-1.855.283,3.448,3.448,0,0,1-2.51-.8,3.282,3.282,0,0,1-.811-2.432V10.719h-1.348V8.434h1.348V5.807Zm2.324,7.813a6.236,6.236,0,0,1,.615-2.817,4.4,4.4,0,0,1,1.768-1.9,5.323,5.323,0,0,1,2.705-.664,4.858,4.858,0,0,1,3.74,1.47,5.64,5.64,0,0,1,1.367,4v.117a5.472,5.472,0,0,1-1.372,3.921A4.871,4.871,0,0,1,146.7,19.2a4.927,4.927,0,0,1-3.623-1.353,5.29,5.29,0,0,1-1.475-3.667Zm3.291.205a3.932,3.932,0,0,0,.459,2.148,1.529,1.529,0,0,0,1.357.684q1.758,0,1.8-2.705v-.332q0-2.842-1.816-2.842-1.65,0-1.787,2.451Z" transform="translate(881 1638)" fill="#111e61"/>
    <path id="Trazado_716539" data-name="Trazado 716539" d="M5.576,4.781,8.75,14.674l3.164-9.893h4.512V19H12.988V15.68l.332-6.8L9.883,19H7.617L4.17,8.873,4.5,15.68V19H1.074V4.781ZM21.924,19h-3.3V8.434h3.3Zm-3.5-13.291a1.469,1.469,0,0,1,.508-1.152,2.159,2.159,0,0,1,2.637,0,1.469,1.469,0,0,1,.508,1.152,1.469,1.469,0,0,1-.508,1.152,2.159,2.159,0,0,1-2.637,0A1.469,1.469,0,0,1,18.428,5.709Zm9.99,10.947a1.464,1.464,0,0,0,1.074-.376,1.379,1.379,0,0,0,.371-1.05h3.086A3.653,3.653,0,0,1,31.7,18.082,4.631,4.631,0,0,1,28.5,19.2a4.689,4.689,0,0,1-3.633-1.445,5.7,5.7,0,0,1-1.328-4v-.137a6.436,6.436,0,0,1,.591-2.827A4.3,4.3,0,0,1,25.83,8.9a5.081,5.081,0,0,1,2.637-.659,4.573,4.573,0,0,1,3.271,1.143,4.053,4.053,0,0,1,1.211,3.1H29.863a1.807,1.807,0,0,0-.4-1.26,1.382,1.382,0,0,0-1.074-.439q-1.279,0-1.494,1.631a11.508,11.508,0,0,0-.068,1.426,4.52,4.52,0,0,0,.381,2.207A1.319,1.319,0,0,0,28.418,16.656Zm12.314-5.244-1.084-.078a1.947,1.947,0,0,0-1.992.977V19H34.365V8.434h3.086l.107,1.357a2.548,2.548,0,0,1,2.314-1.553,3.209,3.209,0,0,1,.918.117Zm.42,2.207a6.236,6.236,0,0,1,.615-2.817,4.4,4.4,0,0,1,1.768-1.9,5.323,5.323,0,0,1,2.705-.664,4.858,4.858,0,0,1,3.74,1.47,5.64,5.64,0,0,1,1.367,4v.117a5.472,5.472,0,0,1-1.372,3.921A4.871,4.871,0,0,1,46.26,19.2a4.927,4.927,0,0,1-3.623-1.353,5.29,5.29,0,0,1-1.475-3.667Zm3.291.205a3.932,3.932,0,0,0,.459,2.148,1.529,1.529,0,0,0,1.357.684q1.758,0,1.8-2.705v-.332q0-2.842-1.816-2.842-1.65,0-1.787,2.451Zm12.822,2.832a1.464,1.464,0,0,0,1.074-.376,1.379,1.379,0,0,0,.371-1.05H61.8a3.653,3.653,0,0,1-1.245,2.852A4.631,4.631,0,0,1,57.344,19.2a4.689,4.689,0,0,1-3.633-1.445,5.7,5.7,0,0,1-1.328-4v-.137a6.436,6.436,0,0,1,.591-2.827,4.3,4.3,0,0,1,1.7-1.885,5.081,5.081,0,0,1,2.637-.659,4.573,4.573,0,0,1,3.271,1.143,4.053,4.053,0,0,1,1.211,3.1H58.711a1.807,1.807,0,0,0-.4-1.26,1.382,1.382,0,0,0-1.074-.439q-1.279,0-1.494,1.631a11.507,11.507,0,0,0-.068,1.426,4.52,4.52,0,0,0,.381,2.207A1.319,1.319,0,0,0,57.266,16.656ZM66.66,19h-3.3V4h3.3Zm5.5,0h-3.3V8.434h3.3Zm-3.5-13.291a1.469,1.469,0,0,1,.508-1.152,2.159,2.159,0,0,1,2.637,0,1.469,1.469,0,0,1,.508,1.152,1.469,1.469,0,0,1-.508,1.152,2.159,2.159,0,0,1-2.637,0A1.469,1.469,0,0,1,68.662,5.709Zm8.633,2.725.107,1.24A3.633,3.633,0,0,1,80.42,8.238,2.675,2.675,0,0,1,83.125,9.83,3.517,3.517,0,0,1,86.23,8.238q3.213,0,3.3,3.887V19h-3.3V12.33a2.014,2.014,0,0,0-.273-1.182,1.164,1.164,0,0,0-1-.371,1.559,1.559,0,0,0-1.455.869l.01.137V19h-3.3V12.35a2.117,2.117,0,0,0-.264-1.2,1.161,1.161,0,0,0-1.006-.371,1.578,1.578,0,0,0-1.445.869V19H74.209V8.434ZM97.363,19a3.716,3.716,0,0,1-.312-.947A3.06,3.06,0,0,1,94.512,19.2a3.749,3.749,0,0,1-2.539-.9,2.875,2.875,0,0,1-1.045-2.271,2.955,2.955,0,0,1,1.27-2.6,6.468,6.468,0,0,1,3.691-.879H96.9v-.559q0-1.462-1.26-1.462a1.03,1.03,0,0,0-1.172,1.158H91.182a2.95,2.95,0,0,1,1.3-2.487,5.479,5.479,0,0,1,3.325-.956A4.8,4.8,0,0,1,99,9.225a3.429,3.429,0,0,1,1.2,2.705v4.678a4.79,4.79,0,0,0,.449,2.227V19ZM95.3,16.852a1.836,1.836,0,0,0,1.021-.264,1.653,1.653,0,0,0,.581-.6V14.3h-.957q-1.719,0-1.719,1.543a.942.942,0,0,0,.3.728A1.1,1.1,0,0,0,95.3,16.852Z" transform="translate(881 1883)" fill="#111e61"/>
    <path id="Trazado_716535" data-name="Trazado 716535" d="M5.019,4.2l2.856,8.9,2.848-8.9h4.061V17H11.689V14.012l.3-6.117L8.895,17H6.855l-3.1-9.114.3,6.126V17H.967V4.2ZM21.964,17a3.344,3.344,0,0,1-.281-.853A2.754,2.754,0,0,1,19.4,17.176a3.374,3.374,0,0,1-2.285-.813,2.588,2.588,0,0,1-.94-2.043,2.66,2.66,0,0,1,1.143-2.338,5.821,5.821,0,0,1,3.322-.791h.914v-.5q0-1.316-1.134-1.316a.927.927,0,0,0-1.055,1.042H16.4a2.655,2.655,0,0,1,1.173-2.239,4.931,4.931,0,0,1,2.993-.86A4.323,4.323,0,0,1,23.44,8.2a3.086,3.086,0,0,1,1.081,2.435v4.21a4.311,4.311,0,0,0,.4,2V17Zm-1.854-1.934a1.652,1.652,0,0,0,.918-.237,1.487,1.487,0,0,0,.523-.536V12.772h-.861q-1.547,0-1.547,1.389a.848.848,0,0,0,.272.655A.986.986,0,0,0,20.109,15.066ZM28.881,7.49l.1,1.116a3.225,3.225,0,0,1,2.716-1.292,2.713,2.713,0,0,1,2.219.888,4.226,4.226,0,0,1,.76,2.672V17H31.7V11a1.6,1.6,0,0,0-.29-1.059A1.342,1.342,0,0,0,30.357,9.6a1.413,1.413,0,0,0-1.292.686V17H26.1V7.49Zm12.032,9.686a4.889,4.889,0,0,1-3.542-1.305,4.507,4.507,0,0,1-1.354-3.4v-.246a5.84,5.84,0,0,1,.541-2.575,3.955,3.955,0,0,1,1.578-1.727A4.763,4.763,0,0,1,40.6,7.314a4.117,4.117,0,0,1,3.164,1.244,4.887,4.887,0,0,1,1.16,3.467v1.151H39.032a2.135,2.135,0,0,0,.694,1.257,2.066,2.066,0,0,0,1.389.457,2.662,2.662,0,0,0,2.2-.984l1.354,1.6A3.784,3.784,0,0,1,43.1,16.723,5.3,5.3,0,0,1,40.913,17.176ZM40.579,9.6q-1.3,0-1.547,1.723h2.988v-.229a1.467,1.467,0,0,0-.36-1.1A1.434,1.434,0,0,0,40.579,9.6ZM49.3,7.49v9.835a3.452,3.452,0,0,1-.967,2.6,3.714,3.714,0,0,1-2.672.914,6.308,6.308,0,0,1-1.4-.149V18.45a5.667,5.667,0,0,0,.835.079,1.084,1.084,0,0,0,1.23-1.222V7.49Zm-3.19-2.452A1.322,1.322,0,0,1,46.564,4a1.943,1.943,0,0,1,2.373,0,1.322,1.322,0,0,1,.457,1.037,1.322,1.322,0,0,1-.457,1.037,1.943,1.943,0,0,1-2.373,0A1.322,1.322,0,0,1,46.107,5.038ZM50.6,12.157a5.613,5.613,0,0,1,.554-2.536,3.96,3.96,0,0,1,1.591-1.709,4.791,4.791,0,0,1,2.435-.6,4.373,4.373,0,0,1,3.366,1.323,5.076,5.076,0,0,1,1.23,3.6v.105a4.925,4.925,0,0,1-1.235,3.529A4.384,4.384,0,0,1,55.2,17.176a4.434,4.434,0,0,1-3.261-1.217,4.761,4.761,0,0,1-1.327-3.3Zm2.962.185a3.538,3.538,0,0,0,.413,1.934,1.376,1.376,0,0,0,1.222.615q1.582,0,1.617-2.435v-.3q0-2.558-1.635-2.558-1.485,0-1.608,2.206Z" transform="translate(881 1395)" fill="#12263f"/>
    <path id="Trazado_716534" data-name="Trazado 716534" d="M75.881,14.609H71.653L70.915,17h-3.3L72.313,4.2h2.9L79.941,17H76.628Zm-3.489-2.382h2.751l-1.38-4.438ZM83.114,7.49l.1,1.116a3.27,3.27,0,0,1,2.716-1.292,2.407,2.407,0,0,1,2.435,1.433,3.165,3.165,0,0,1,2.795-1.433q2.892,0,2.971,3.5V17H91.156V11a1.813,1.813,0,0,0-.246-1.063,1.048,1.048,0,0,0-.9-.334,1.4,1.4,0,0,0-1.31.782l.009.123V17H85.742V11.015A1.906,1.906,0,0,0,85.5,9.934,1.045,1.045,0,0,0,84.6,9.6a1.42,1.42,0,0,0-1.3.782V17H80.337V7.49Zm21.533,4.834a5.8,5.8,0,0,1-.967,3.595,3.238,3.238,0,0,1-2.725,1.257,2.81,2.81,0,0,1-2.338-1.151L98.5,17H95.841V3.5H98.8V8.255a2.711,2.711,0,0,1,2.136-.94,3.239,3.239,0,0,1,2.742,1.274,5.826,5.826,0,0,1,.967,3.586Zm-2.971-.189a3.866,3.866,0,0,0-.365-1.952,1.229,1.229,0,0,0-1.121-.584,1.418,1.418,0,0,0-1.389.763v3.773a1.426,1.426,0,0,0,1.406.755,1.258,1.258,0,0,0,1.327-1.018A7.309,7.309,0,0,0,101.677,12.135Zm7.4,4.865h-2.971V7.49h2.971ZM105.931,5.038A1.322,1.322,0,0,1,106.388,4a1.943,1.943,0,0,1,2.373,0,1.322,1.322,0,0,1,.457,1.037,1.322,1.322,0,0,1-.457,1.037,1.943,1.943,0,0,1-2.373,0A1.322,1.322,0,0,1,105.931,5.038ZM115.5,17.176a4.889,4.889,0,0,1-3.542-1.305,4.507,4.507,0,0,1-1.354-3.4v-.246a5.84,5.84,0,0,1,.541-2.575,3.955,3.955,0,0,1,1.578-1.727,4.763,4.763,0,0,1,2.461-.611,4.117,4.117,0,0,1,3.164,1.244,4.887,4.887,0,0,1,1.16,3.467v1.151h-5.889a2.135,2.135,0,0,0,.694,1.257,2.066,2.066,0,0,0,1.389.457,2.662,2.662,0,0,0,2.2-.984l1.354,1.6a3.784,3.784,0,0,1-1.569,1.217A5.3,5.3,0,0,1,115.5,17.176ZM115.168,9.6q-1.3,0-1.547,1.723h2.988v-.229a1.467,1.467,0,0,0-.36-1.1A1.434,1.434,0,0,0,115.168,9.6Zm8.253-2.109.1,1.116a3.225,3.225,0,0,1,2.716-1.292,2.713,2.713,0,0,1,2.219.888,4.226,4.226,0,0,1,.76,2.672V17h-2.971V11a1.6,1.6,0,0,0-.29-1.059A1.342,1.342,0,0,0,124.9,9.6a1.413,1.413,0,0,0-1.292.686V17h-2.962V7.49ZM134.3,5.126V7.49h1.564V9.547H134.3V13.9a1.111,1.111,0,0,0,.193.747,1.037,1.037,0,0,0,.765.211A4.345,4.345,0,0,0,136,14.8v2.118a5.466,5.466,0,0,1-1.67.255,3.1,3.1,0,0,1-2.259-.721,2.954,2.954,0,0,1-.729-2.188V9.547h-1.213V7.49h1.213V5.126Zm7.33,12.05a4.889,4.889,0,0,1-3.542-1.305,4.507,4.507,0,0,1-1.354-3.4v-.246a5.84,5.84,0,0,1,.541-2.575,3.955,3.955,0,0,1,1.578-1.727,4.763,4.763,0,0,1,2.461-.611,4.117,4.117,0,0,1,3.164,1.244,4.887,4.887,0,0,1,1.16,3.467v1.151h-5.889a2.135,2.135,0,0,0,.694,1.257,2.066,2.066,0,0,0,1.389.457,2.662,2.662,0,0,0,2.2-.984l1.354,1.6a3.784,3.784,0,0,1-1.569,1.217A5.3,5.3,0,0,1,141.632,17.176ZM141.3,9.6q-1.3,0-1.547,1.723h2.988v-.229a1.467,1.467,0,0,0-.36-1.1A1.434,1.434,0,0,0,141.3,9.6Z" transform="translate(573 1273)" fill="#12263f"/>
    <path id="Trazado_716538" data-name="Trazado 716538" d="M46.332,14.609H42.1L41.366,17h-3.3L42.764,4.2h2.9L50.393,17H47.079Zm-3.489-2.382h2.751l-1.38-4.438ZM54.313,17H51.342V3.5h2.971Zm4.948,0H56.29V7.49h2.971ZM56.114,5.038A1.322,1.322,0,0,1,56.571,4a1.943,1.943,0,0,1,2.373,0A1.322,1.322,0,0,1,59.4,5.038a1.322,1.322,0,0,1-.457,1.037,1.943,1.943,0,0,1-2.373,0A1.322,1.322,0,0,1,56.114,5.038Zm7.77,2.452.1,1.116A3.27,3.27,0,0,1,66.7,7.314a2.407,2.407,0,0,1,2.435,1.433,3.165,3.165,0,0,1,2.795-1.433q2.892,0,2.971,3.5V17H71.926V11a1.813,1.813,0,0,0-.246-1.063,1.048,1.048,0,0,0-.9-.334,1.4,1.4,0,0,0-1.31.782l.009.123V17H66.512V11.015a1.906,1.906,0,0,0-.237-1.081,1.045,1.045,0,0,0-.905-.334,1.42,1.42,0,0,0-1.3.782V17H61.106V7.49Zm17.306,9.686a4.889,4.889,0,0,1-3.542-1.305,4.507,4.507,0,0,1-1.354-3.4v-.246a5.84,5.84,0,0,1,.541-2.575,3.955,3.955,0,0,1,1.578-1.727,4.763,4.763,0,0,1,2.461-.611,4.117,4.117,0,0,1,3.164,1.244,4.887,4.887,0,0,1,1.16,3.467v1.151H79.309A2.135,2.135,0,0,0,80,14.434a2.066,2.066,0,0,0,1.389.457,2.662,2.662,0,0,0,2.2-.984l1.354,1.6a3.784,3.784,0,0,1-1.569,1.217A5.3,5.3,0,0,1,81.189,17.176ZM80.855,9.6q-1.3,0-1.547,1.723H82.3v-.229a1.467,1.467,0,0,0-.36-1.1A1.434,1.434,0,0,0,80.855,9.6ZM89.108,7.49l.1,1.116a3.225,3.225,0,0,1,2.716-1.292A2.713,2.713,0,0,1,94.14,8.2a4.226,4.226,0,0,1,.76,2.672V17H91.93V11a1.6,1.6,0,0,0-.29-1.059A1.342,1.342,0,0,0,90.585,9.6a1.413,1.413,0,0,0-1.292.686V17H86.331V7.49ZM99.989,5.126V7.49h1.564V9.547H99.989V13.9a1.111,1.111,0,0,0,.193.747,1.037,1.037,0,0,0,.765.211,4.345,4.345,0,0,0,.738-.053v2.118a5.466,5.466,0,0,1-1.67.255,3.1,3.1,0,0,1-2.259-.721,2.954,2.954,0,0,1-.729-2.188V9.547H95.814V7.49h1.213V5.126ZM108.075,17a3.344,3.344,0,0,1-.281-.853,2.754,2.754,0,0,1-2.285,1.028,3.374,3.374,0,0,1-2.285-.813,2.588,2.588,0,0,1-.94-2.043,2.66,2.66,0,0,1,1.143-2.338,5.821,5.821,0,0,1,3.322-.791h.914v-.5q0-1.316-1.134-1.316a.927.927,0,0,0-1.055,1.042h-2.962a2.655,2.655,0,0,1,1.173-2.239,4.931,4.931,0,0,1,2.993-.86,4.323,4.323,0,0,1,2.874.888,3.086,3.086,0,0,1,1.081,2.435v4.21a4.311,4.311,0,0,0,.4,2V17Zm-1.854-1.934a1.652,1.652,0,0,0,.918-.237,1.487,1.487,0,0,0,.523-.536V12.772H106.8q-1.547,0-1.547,1.389a.848.848,0,0,0,.272.655A.986.986,0,0,0,106.221,15.066Zm10.072-.176a1.317,1.317,0,0,0,.967-.338,1.241,1.241,0,0,0,.334-.945h2.777a3.288,3.288,0,0,1-1.121,2.566,4.168,4.168,0,0,1-2.887,1,4.22,4.22,0,0,1-3.27-1.3,5.125,5.125,0,0,1-1.2-3.6v-.123A5.792,5.792,0,0,1,112.43,9.6a3.872,3.872,0,0,1,1.534-1.7,4.573,4.573,0,0,1,2.373-.593,4.116,4.116,0,0,1,2.944,1.028,3.647,3.647,0,0,1,1.09,2.786h-2.777a1.626,1.626,0,0,0-.36-1.134,1.244,1.244,0,0,0-.967-.4q-1.151,0-1.345,1.468a10.357,10.357,0,0,0-.062,1.283,4.068,4.068,0,0,0,.343,1.986A1.187,1.187,0,0,0,116.293,14.891ZM124.748,17h-2.971V7.49h2.971ZM121.6,5.038A1.322,1.322,0,0,1,122.059,4a1.943,1.943,0,0,1,2.373,0,1.322,1.322,0,0,1,.457,1.037,1.322,1.322,0,0,1-.457,1.037,1.943,1.943,0,0,1-2.373,0A1.322,1.322,0,0,1,121.6,5.038Zm4.6,7.119a5.613,5.613,0,0,1,.554-2.536,3.96,3.96,0,0,1,1.591-1.709,4.791,4.791,0,0,1,2.435-.6,4.373,4.373,0,0,1,3.366,1.323,5.076,5.076,0,0,1,1.23,3.6v.105a4.925,4.925,0,0,1-1.235,3.529,4.384,4.384,0,0,1-3.344,1.305,4.434,4.434,0,0,1-3.261-1.217,4.761,4.761,0,0,1-1.327-3.3Zm2.962.185a3.538,3.538,0,0,0,.413,1.934,1.376,1.376,0,0,0,1.222.615q1.582,0,1.617-2.435v-.3q0-2.558-1.635-2.558-1.485,0-1.608,2.206ZM131.182,3.5h3.129l-2.443,2.76-2.417,0ZM139.4,7.49l.1,1.116a3.225,3.225,0,0,1,2.716-1.292,2.713,2.713,0,0,1,2.219.888,4.226,4.226,0,0,1,.76,2.672V17h-2.971V11a1.6,1.6,0,0,0-.29-1.059,1.342,1.342,0,0,0-1.055-.338,1.413,1.413,0,0,0-1.292.686V17h-2.962V7.49Z" transform="translate(573 1761)" fill="#12263f"/>
    <path id="Trazado_716536" data-name="Trazado 716536" d="M107.521,13.6a1.268,1.268,0,0,0-.479-1.055,5.954,5.954,0,0,0-1.683-.782,16.147,16.147,0,0,1-1.969-.782Q100.9,9.758,100.9,7.622a3.011,3.011,0,0,1,.62-1.876,4.008,4.008,0,0,1,1.753-1.266,6.823,6.823,0,0,1,2.549-.453,5.969,5.969,0,0,1,2.474.492,3.917,3.917,0,0,1,1.7,1.4A3.661,3.661,0,0,1,110.606,8H107.53a1.547,1.547,0,0,0-.479-1.213,1.867,1.867,0,0,0-1.3-.431,2.106,2.106,0,0,0-1.305.365,1.074,1.074,0,0,0,.048,1.819,6.65,6.65,0,0,0,1.854.826,11.36,11.36,0,0,1,2.18.918,3.663,3.663,0,0,1,2.074,3.3,3.125,3.125,0,0,1-1.266,2.637,5.629,5.629,0,0,1-3.472.958,6.888,6.888,0,0,1-2.817-.558,4.247,4.247,0,0,1-1.9-1.529,3.985,3.985,0,0,1-.637-2.237h3.094a1.963,1.963,0,0,0,.532,1.516,2.513,2.513,0,0,0,1.727.488,1.985,1.985,0,0,0,1.208-.33A1.088,1.088,0,0,0,107.521,13.6Zm9.888,3.4a3.344,3.344,0,0,1-.281-.853,2.754,2.754,0,0,1-2.285,1.028,3.374,3.374,0,0,1-2.285-.813,2.588,2.588,0,0,1-.94-2.043,2.66,2.66,0,0,1,1.143-2.338,5.821,5.821,0,0,1,3.322-.791H117v-.5q0-1.316-1.134-1.316a.927.927,0,0,0-1.055,1.042h-2.962a2.655,2.655,0,0,1,1.173-2.239,4.931,4.931,0,0,1,2.993-.86,4.323,4.323,0,0,1,2.874.888,3.086,3.086,0,0,1,1.081,2.435v4.21a4.311,4.311,0,0,0,.4,2V17Zm-1.854-1.934a1.652,1.652,0,0,0,.918-.237,1.487,1.487,0,0,0,.523-.536V12.772h-.861q-1.547,0-1.547,1.389a.848.848,0,0,0,.272.655A.986.986,0,0,0,115.555,15.066ZM124.73,17H121.76V3.5h2.971Zm7.488-1.028a3.054,3.054,0,0,1-2.54,1.2,3,3,0,0,1-2.369-.91,3.826,3.826,0,0,1-.8-2.615V7.49h2.962v6.179a1.065,1.065,0,0,0,1.187,1.222,1.548,1.548,0,0,0,1.45-.729V7.49h2.979V17h-2.777Zm4.113-3.8a5.809,5.809,0,0,1,.976-3.56,3.211,3.211,0,0,1,2.725-1.3,2.731,2.731,0,0,1,2.145,1V3.5h2.971V17h-2.663l-.149-1.02a2.8,2.8,0,0,1-2.32,1.2,3.205,3.205,0,0,1-2.689-1.3A5.993,5.993,0,0,1,136.332,12.175Zm2.962.185q0,2.531,1.477,2.531a1.458,1.458,0,0,0,1.406-.826V10.443a1.419,1.419,0,0,0-1.389-.844q-1.371,0-1.485,2.215Z" transform="translate(573 1517)" fill="#12263f"/>
    <line id="Línea_86" data-name="Línea 86" x2="21.177" transform="translate(849.17 1162.599)" fill="none" stroke="#ffc403" stroke-linecap="round" stroke-width="2"/>
    <line id="Línea_91" data-name="Línea 91" x2="21.177" transform="translate(849.17 1650.056)" fill="none" stroke="#ffc403" stroke-linecap="round" stroke-width="2"/>
    <line id="Línea_738" data-name="Línea 738" x2="21.177" transform="translate(849.17 1894.678)" fill="none" stroke="#b20d0d" stroke-linecap="round" stroke-width="2"/>
    <line id="Línea_88" data-name="Línea 88" x2="21.177" transform="translate(849.17 1406.128)" fill="none" stroke="#b20d0d" stroke-linecap="round" stroke-width="2"/>
    <line id="Línea_87" data-name="Línea 87" x2="21.177" transform="translate(730.176 1284.441)" fill="none" stroke="#6dc5db" stroke-linecap="round" stroke-width="2"/>
    <line id="Línea_92" data-name="Línea 92" x2="21.177" transform="translate(730.176 1772.288)" fill="none" stroke="#6dc5db" stroke-linecap="round" stroke-width="2"/>
    <line id="Línea_89" data-name="Línea 89" x2="21.177" transform="translate(730.176 1527.666)" fill="none" stroke="#ffe8ce" stroke-linecap="round" stroke-width="2"/>
    <line id="Línea_90" data-name="Línea 90" y2="714" transform="translate(800 1213)" fill="none" stroke="#707070" stroke-linecap="round" stroke-width="3" stroke-dasharray="0 9"/>
    <circle id="Elipse_1146" data-name="Elipse 1146" cx="50.5" cy="50.5" r="50.5" transform="translate(750 1234)" fill="#6dc5db"/>
    <circle id="Elipse_1149" data-name="Elipse 1149" cx="50.5" cy="50.5" r="50.5" transform="translate(750 1721.457)" fill="#6dc5db"/>
    <circle id="Elipse_1147" data-name="Elipse 1147" cx="50.5" cy="50.5" r="50.5" transform="translate(750 1355.843)" fill="#b20d0d"/>
    <circle id="Elipse_1150" data-name="Elipse 1150" cx="50.5" cy="50.5" r="50.5" transform="translate(750 1599.067)" fill="#ffc403"/>
    <circle id="Elipse_5693" data-name="Elipse 5693" cx="50.5" cy="50.5" r="50.5" transform="translate(750 1843.689)" fill="#b20d0d"/>
    <g id="Grupo_976259" data-name="Grupo 976259" transform="translate(775.975 1126.521)">
      <g id="Grupo_976258" data-name="Grupo 976258" clip-path="url(#clip-path)">
        <path id="Trazado_709856" data-name="Trazado 709856" d="M48.041,6.131A38.6,38.6,0,0,1,34.916,34.695,16.44,16.44,0,0,1,33.336,36c-.53.37-.466.581.012.956a37.74,37.74,0,0,1,7.571,8,38.545,38.545,0,0,1,6.668,16.476,41.788,41.788,0,0,1,.459,6.912,4.676,4.676,0,0,1-4.335,4.59,4.751,4.751,0,0,1-4.826-3.615,27.627,27.627,0,0,1-.265-3.615c-.077-.8-.364-.911-1.054-.909q-12.362.029-24.724.012c-.79,0-1.583.038-2.369-.019-.715-.052-.977.2-1,.92a28.21,28.21,0,0,1-.3,3.45,4.628,4.628,0,0,1-4.821,3.781A4.688,4.688,0,0,1,.009,68.366,38.434,38.434,0,0,1,9.072,42.414a34.248,34.248,0,0,1,5.665-5.476c.454-.347.484-.53.01-.91A38.688,38.688,0,0,1,.015,4.421,4.67,4.67,0,0,1,4.364.014,4.777,4.777,0,0,1,9.177,3.649c.24,1.22.125,2.462.27,3.692.078.664.282.829.9.825,3.4-.019,6.793,0,10.189,0,5.687,0,11.375-.012,17.062.009.666,0,.929-.115,1.017-.875a33.7,33.7,0,0,1,.26-3.613A4.7,4.7,0,0,1,43.733.027a4.642,4.642,0,0,1,4.308,4.6c0,.5,0,1,0,1.5M2.333,66.373c0,.6-.033,1.212.006,1.814A2.243,2.243,0,0,0,4.655,70.46,2.242,2.242,0,0,0,7,68.214a46.228,46.228,0,0,1,.585-5.079A34.069,34.069,0,0,1,23.24,40.194a1.366,1.366,0,0,1,1.614,0A34.14,34.14,0,0,1,39.67,59.64a37.61,37.61,0,0,1,1.4,8.667,2.155,2.155,0,0,0,1.347,1.964,2.4,2.4,0,0,0,3.4-2.357,37.409,37.409,0,0,0-.759-7.747A36.1,36.1,0,0,0,30.669,37.756c-1.326-.983-1.333-1.577.018-2.569A36.82,36.82,0,0,0,41.6,22.6,36.707,36.707,0,0,0,45.492,10.29a33.058,33.058,0,0,0,.329-5.272,2.326,2.326,0,0,0-2.354-2.511,2.246,2.246,0,0,0-2.413,2.407,34.827,34.827,0,0,1-2.812,12.358A34.235,34.235,0,0,1,24.8,32.774a1.306,1.306,0,0,1-1.605-.016c-.7-.5-1.458-.94-2.153-1.457A34.118,34.118,0,0,1,8.69,14.289,35.739,35.739,0,0,1,7,4.715,2.172,2.172,0,0,0,5.619,2.686a2.371,2.371,0,0,0-3.37,2.22,34.361,34.361,0,0,0,.745,7.9A36.17,36.17,0,0,0,17.518,35.3c1.16.85,1.165,1.534-.019,2.382a35.412,35.412,0,0,0-7.091,6.707A36.257,36.257,0,0,0,2.333,66.373M24,62.552c4.45,0,8.9-.014,13.348.015.647,0,.755-.178.574-.744-.334-1.048-.654-2.1-.941-3.164-.142-.524-.41-.68-.954-.674-2.843.031-5.687.014-8.53.014-5.134,0-10.268.013-15.4-.011-.635,0-.954.187-1.112.8-.252.99-.534,1.975-.872,2.939-.265.755.032.836.7.833,4.4-.025,8.793-.013,13.19-.012M38.053,10.407H12.6c-.711,0-1.421.013-2.132,0-.375-.008-.495.062-.387.489.28,1.116.623,2.212.952,3.313a.907.907,0,0,0,1.049.763c6.5-.022,13-.013,19.5-.012,1.5,0,3-.006,4.5.007.4,0,.7-.04.846-.5a31.66,31.66,0,0,0,1.124-4.056m-14.011,6.8c-3.685,0-7.369.008-11.053-.009-.536,0-.653.094-.4.6.606,1.2,1.278,2.355,1.983,3.5a.912.912,0,0,0,.9.47q8.566-.017,17.132,0a.934.934,0,0,0,.884-.505,36.07,36.07,0,0,0,1.868-3.2c.436-.858.431-.863-.5-.863q-5.408,0-10.816,0M12.315,55.69H35.691A29.576,29.576,0,0,0,33.4,51.567a.822.822,0,0,0-.795-.375q-8.6.006-17.195,0a.713.713,0,0,0-.684.278,28.623,28.623,0,0,0-2.411,4.222m4.289-6.8H31.384A31.261,31.261,0,0,0,24.4,42.6a.62.62,0,0,0-.786.031A32.269,32.269,0,0,0,16.6,48.886m.164-24.838a.884.884,0,0,0,.081.257A33.257,33.257,0,0,0,23.6,30.329a.74.74,0,0,0,.988-.087c.884-.662,1.79-1.3,2.641-2a25.6,25.6,0,0,0,4.142-4.193Z" transform="translate(0 0)"/>
      </g>
    </g>
    <g id="Grupo_976261" data-name="Grupo 976261" transform="translate(761.529 1251.1)">
      <g id="Grupo_976260" data-name="Grupo 976260" clip-path="url(#clip-path-2)">
        <path id="Trazado_709857" data-name="Trazado 709857" d="M.024,41.728C-.286,33.413,2.466,25.945,6.547,18.9a43.358,43.358,0,0,1,13.382-14.7C23.57,1.777,27.5.055,32,0a11.52,11.52,0,0,1,6.008,1.6q16.747,9.7,33.484,19.418c3.9,2.263,5.74,5.87,6.545,10.129.579,3.059.353,6.162.435,9.247a1.443,1.443,0,0,1-.8,1.4q-4.06,2.367-8.093,4.779a1.422,1.422,0,0,1-1.714-.011,19.7,19.7,0,0,1-1.9-1.153c-1.5-1.3-2.8-.971-4.406-.022-5.036,2.98-10.168,5.8-15.28,8.651a1.53,1.53,0,0,0-.968,1.622c.088,1.315-.012,2.642.045,3.96a1.565,1.565,0,0,1-.9,1.585q-4.549,2.632-9.056,5.336a1.551,1.551,0,0,1-1.811-.1Q17.256,56.9.9,47.39a1.549,1.549,0,0,1-.9-1.576c.056-1.36.016-2.724.016-4.086M33.729,64.716c0-1.078.024-1.9,0-2.721a34.738,34.738,0,0,1,.893-9.069,54.638,54.638,0,0,1,6.49-15.541A42.892,42.892,0,0,1,53.723,23.821a22.042,22.042,0,0,1,11.719-4.275c.032-.33-.13-.376-.274-.458q-5.6-3.236-11.2-6.48Q45.155,7.523,36.337,2.449a4.18,4.18,0,0,0-2.066-.586c.382.548.958.616,1.409.874q13.239,7.557,26.5,15.068c.514.291,1,.6.626,1.226-.336.573-.818.456-1.373.139Q47.647,11.3,33.828,3.492c-.852-.481-1.288-.948-.592-1.97a18.992,18.992,0,0,0-8.771,1.623A24.1,24.1,0,0,0,17.585,7.7C7.056,17.537.885,29.289,1.392,44.061a3.133,3.133,0,0,0,1.863,3.028c5.882,3.325,11.7,6.755,17.55,10.144,4.234,2.455,8.47,4.9,12.924,7.483m10-14.284h-.033c0-2.806.039-5.613-.02-8.419a2.145,2.145,0,0,1,1.243-2.169c3.914-2.205,7.79-4.478,11.679-6.727q5.674-3.28,11.343-6.565c.785-.457,1.339-.439,1.5.582a7.121,7.121,0,0,1,.037,1.112c.02,5.118.047,10.235.05,15.352,0,.912.172,1.224,1.09.646,1.849-1.161,3.746-2.247,5.627-3.357.326-.192.648-.358.638-.817-.1-4.028.114-8.091-1.45-11.943a10.325,10.325,0,0,0-10.927-6.771A20.267,20.267,0,0,0,55.032,25,43.445,43.445,0,0,0,42.154,38.67,43.152,43.152,0,0,0,35.2,63.75c.041,1.009.289,1.009,1.048.549,2.219-1.348,4.461-2.657,6.714-3.95a1.363,1.363,0,0,0,.779-1.374c-.042-2.847-.018-5.695-.018-8.543M45.3,52.82c7.534-4.227,14.823-8.318,22.116-12.4a.981.981,0,0,0,.541-1c-.033-3.383-.053-6.767-.024-10.15.007-.871-.216-.892-.889-.5Q56.57,34.861,46.079,40.92c-.437.254-.8.468-.8,1.1.032,3.537.015,7.073.015,10.8m22.78-9.567c-.422-.283.434-1.226-.458-1.134-.7.073-1.9.539-1.876,1.23.017.634,1.2,1.11,1.932,1.173.686.059.1-.789.4-1.27" transform="translate(0 0)"/>
        <path id="Trazado_709858" data-name="Trazado 709858" d="M45.416,3.407c.956.509,2.023,1.043,3.058,1.631q10.236,5.815,20.462,11.65c1.537.875,3.079,1.74,4.615,2.615a3.945,3.945,0,0,1,.616.411.8.8,0,0,1,.214,1.189c-.322.422-.7.277-1.1.053q-2.518-1.45-5.048-2.878-11.18-6.349-22.358-12.7a9.033,9.033,0,0,1-1.127-.747.652.652,0,0,1-.156-.8c.122-.284.378-.426.819-.428" transform="translate(-15.283 -1.169)"/>
        <path id="Trazado_709859" data-name="Trazado 709859" d="M15.016,29.785a1.883,1.883,0,0,1,1,.431q13.706,7.75,27.407,15.508c.107.06.213.126.316.194.449.293.807.675.5,1.222-.328.588-.817.366-1.273.108-1.9-1.075-3.8-2.142-5.694-3.219Q26.6,37.966,15.922,31.9c-.429-.243-.862-.479-1.275-.748a.755.755,0,0,1-.271-.883.636.636,0,0,1,.64-.483" transform="translate(-4.922 -10.223)"/>
        <path id="Trazado_709860" data-name="Trazado 709860" d="M34.211,75.626c.011.8-.653,1.02-1.492.548-2.4-1.354-4.791-2.734-7.19-4.1Q15.439,66.342,5.344,60.615c-.142-.081-.3-.127-.439-.217-.46-.308-.958-.659-.558-1.285.357-.56.864-.3,1.306-.049q2.955,1.668,5.905,3.345,10.631,6.023,21.257,12.054c.546.311,1.254.486,1.4,1.163" transform="translate(-1.442 -20.175)"/>
        <path id="Trazado_709861" data-name="Trazado 709861" d="M39.054,57.233c-.2.707-.706.745-1.307.422-.87-.468-1.721-.973-2.58-1.461L10.251,42.02c-.072-.041-.143-.082-.213-.125-.513-.315-1.31-.58-.868-1.349.486-.845,1.139-.238,1.694.074,1.291.726,2.577,1.462,3.864,2.194q11.651,6.626,23.3,13.258c.44.251,1.057.37,1.029,1.161" transform="translate(-3.103 -13.769)"/>
        <path id="Trazado_709862" data-name="Trazado 709862" d="M37.816,60.362c-.177.647-.463,1.055-1.215.629-1.539-.871-3.087-1.729-4.624-2.6Q20.385,51.8,8.8,45.206c-.214-.122-.436-.234-.638-.375a.712.712,0,0,1-.28-1.053c.28-.466.647-.414,1.057-.187,1.255.694,2.523,1.366,3.771,2.074q11.877,6.74,23.746,13.5c.524.3,1.139.512,1.362,1.2" transform="translate(-2.659 -14.904)"/>
        <path id="Trazado_709863" data-name="Trazado 709863" d="M35.562,67.835c.013.642-.653.943-1.37.554-1.59-.866-3.16-1.767-4.733-2.664Q17.929,59.156,6.4,52.585c-.51-.29-1.148-.548-.773-1.279.4-.776.946-.328,1.453-.04q12.338,7,24.681,14,1.556.883,3.11,1.769c.323.185.657.366.689.8" transform="translate(-1.893 -17.461)"/>
        <path id="Trazado_709864" data-name="Trazado 709864" d="M34.791,71.7c.018.691-.663.935-1.464.484q-3.662-2.06-7.307-4.148Q15.875,62.26,5.731,56.483c-.143-.081-.295-.148-.429-.242-.38-.267-.764-.536-.469-1.1.347-.661.818-.393,1.252-.15q3.446,1.931,6.88,3.885Q21.933,63.959,30.9,69.047q1.557.883,3.114,1.762c.364.206.721.416.778.889" transform="translate(-1.623 -18.783)"/>
        <path id="Trazado_709865" data-name="Trazado 709865" d="M4.847,62.971a6.746,6.746,0,0,1,.648.3Q17.668,70.179,29.836,77.1c1.109.63,2.226,1.243,3.327,1.885.476.278,1.2.523.738,1.273-.417.681-1.013.32-1.516.033q-6.439-3.666-12.87-7.343Q12.164,68.765,4.807,64.6c-.422-.24-.945-.46-.829-1.076.062-.327.329-.568.869-.554" transform="translate(-1.36 -21.613)"/>
        <path id="Trazado_709866" data-name="Trazado 709866" d="M4.767,67.235c.8.424,1.645.847,2.466,1.313q12.613,7.157,25.219,14.327a10.925,10.925,0,0,1,1.164.7c.3.221.59.541.307.942a.77.77,0,0,1-1.069.311c-.29-.156-.584-.306-.87-.469Q18.453,76.673,4.926,68.983a4.631,4.631,0,0,1-.808-.553.569.569,0,0,1-.11-.782.833.833,0,0,1,.761-.413" transform="translate(-1.338 -23.077)"/>
        <path id="Trazado_709867" data-name="Trazado 709867" d="M7.367,47.164c.337.167.786.365,1.209.606q9.871,5.618,19.737,11.247c2.468,1.406,4.932,2.816,7.408,4.207.539.3,1.095.6.677,1.306-.389.661-.905.3-1.381.032q-13.9-7.908-27.805-15.8c-.43-.244-.769-.5-.688-1.036.058-.378.345-.537.843-.558" transform="translate(-2.235 -16.188)"/>
        <path id="Trazado_709868" data-name="Trazado 709868" d="M41.562,50.94c-.251-.127-.548-.263-.831-.424q-13.53-7.687-27.046-15.4c-.562-.321-1.754-.516-1.243-1.48.594-1.118,1.378-.066,1.949.254q13.561,7.617,27.084,15.3c.476.269,1,.5.878,1.176-.066.379-.387.5-.79.569" transform="translate(-4.227 -11.373)"/>
        <path id="Trazado_709869" data-name="Trazado 709869" d="M11.432,36.6c.234.122.529.263.814.424Q26.01,44.8,39.772,52.579c.52.294,1.114.625.751,1.319-.4.763-.977.3-1.468.022q-13.7-7.778-27.393-15.563a6.982,6.982,0,0,1-.828-.531.6.6,0,0,1-.168-.782.786.786,0,0,1,.766-.442" transform="translate(-3.635 -12.563)"/>
        <path id="Trazado_709870" data-name="Trazado 709870" d="M91.113,59.425a1.167,1.167,0,0,1-.72.949Q81.036,65.668,71.68,70.962c-.5.282-1.094.646-1.49-.085-.356-.656.2-.955.678-1.226q9.4-5.333,18.812-10.662c.622-.353,1.179-.4,1.433.436" transform="translate(-24.052 -20.164)"/>
        <path id="Trazado_709871" data-name="Trazado 709871" d="M91.03,55.86c-.079.527-.52.718-.906.938Q82.616,61.063,75.1,65.316c-1.182.669-2.36,1.342-3.546,2.005-.468.261-.992.6-1.393-.041s.109-.99.581-1.258q9.4-5.33,18.809-10.634c.847-.476,1.518-.219,1.477.472" transform="translate(-24.031 -18.927)"/>
        <path id="Trazado_709872" data-name="Trazado 709872" d="M70.812,63.622a.691.691,0,0,1-.772-.514c-.166-.5.2-.745.564-.952q2.411-1.381,4.828-2.75Q82.146,55.6,88.862,51.8a7.569,7.569,0,0,1,.984-.512c.395-.15.833-.224,1.08.246.267.507.016.874-.424,1.128-1.1.637-2.216,1.262-3.326,1.89q-7.687,4.339-15.372,8.681a1.684,1.684,0,0,1-.993.391" transform="translate(-24.026 -17.564)"/>
      </g>
    </g>
    <circle id="Elipse_1145" data-name="Elipse 1145" cx="50.5" cy="50.5" r="50.5" transform="translate(750 1477.529)" fill="#ffe8ce"/>
    <g id="Grupo_976263" data-name="Grupo 976263" transform="translate(767.537 1373)">
      <g id="Grupo_976262" data-name="Grupo 976262" clip-path="url(#clip-path-3)">
        <path id="Trazado_709873" data-name="Trazado 709873" d="M6.65,37.521l7.113,4.953a18.732,18.732,0,0,1-.6-5.453A16.857,16.857,0,0,1,14.7,30.227c.233-.524.131-.729-.349-1.054A15.582,15.582,0,0,1,7.086,17.82,6.537,6.537,0,0,0,6.3,15.692C4.355,11.831,2.43,7.964.47,4.112a2.588,2.588,0,0,1,.09-3.1C1.415-.024,2.6-.082,3.887.054c4.471.47,8.947.9,13.422,1.343a2.83,2.83,0,0,0,1.172-.289c9.9-3.266,20.721,2.439,22.693,11.968a11.37,11.37,0,0,1,.243,4.5c-.133.69.109.984.855,1.25,7.824,2.793,12.5,8.065,14.076,15.624a18.091,18.091,0,0,1-.837,9.562L64.9,37.494c0,2.45.06,4.668-.012,6.882a43.918,43.918,0,0,1-1.773,12.29A32.806,32.806,0,0,1,49.8,74.611,25.331,25.331,0,0,1,19.95,73.4,33.216,33.216,0,0,1,7.585,53.425a66.791,66.791,0,0,1-.935-15.9m5.836,10.548c-.1.1-.143.121-.141.14.123.878.223,1.761.382,2.634A30.27,30.27,0,0,0,21.11,67.366,20.223,20.223,0,0,0,35.5,73.7,19.742,19.742,0,0,0,49,68.605a29.551,29.551,0,0,0,9.43-16.248,19.186,19.186,0,0,0,.691-4.393c-1.19.836-2.209,1.515-3.178,2.248a1.077,1.077,0,0,1-1.518.021c-2.735-1.96-5.527-3.853-8.27-5.8a1.025,1.025,0,0,0-1.426,0c-2.741,1.957-5.532,3.855-8.27,5.814a1.027,1.027,0,0,1-1.434,0c-2.743-1.951-5.528-3.852-8.275-5.8a.985.985,0,0,0-1.4-.034c-2.762,1.986-5.59,3.9-8.364,5.867a.964.964,0,0,1-1.35,0c-1.03-.767-2.107-1.479-3.154-2.206M18.773,37.64a10.137,10.137,0,0,0,.4,3.308c.326,1.1.315,1.1,1.339.389,1.607-1.116,3.229-2.214,4.806-3.364a.983.983,0,0,1,1.413-.02c2.726,1.97,5.526,3.852,8.257,5.818a1.091,1.091,0,0,0,1.52-.019c2.745-1.947,5.529-3.849,8.268-5.8a.959.959,0,0,1,1.343,0c1.162.858,2.4,1.629,3.54,2.511.744.576,1,.455,1.15-.387a13.161,13.161,0,0,0-.215-5.719c-1.323-5.112-4.694-8.6-9.916-10.636-.764-.3-1.216-.2-1.592.517A8.283,8.283,0,0,1,37.9,25.853c-4.328,4.856-9.86,6.9-16.622,5.928-.921-.132-1.355-.027-1.641.867a14.593,14.593,0,0,0-.867,4.993M35.886,16.157c.029-5.97-5.122-10.769-11.585-10.8s-11.765,4.849-11.765,10.8c0,5.885,5.25,10.6,11.709,10.725,5.84.109,11.609-4.318,11.641-10.727M8.929,8.622l1.834-2.58a7.151,7.151,0,0,0-.718-.148c-.8-.074-2.084-.43-2.293-.137-.426.6.42,1.315.712,1.992.105.245.251.474.465.873" transform="translate(0 0)" fill="#fff"/>
        <path id="Trazado_709874" data-name="Trazado 709874" d="M40.368,17.875a3.353,3.353,0,0,1,3.52,3.249,3.534,3.534,0,0,1-7.053-.011,3.361,3.361,0,0,1,3.533-3.238" transform="translate(-16.086 -8.591)" fill="#fff"/>
      </g>
    </g>
    <g id="Grupo_976265" data-name="Grupo 976265" transform="translate(767.537 1495.234)">
      <g id="Grupo_976264" data-name="Grupo 976264" clip-path="url(#clip-path-4)">
        <path id="Trazado_709875" data-name="Trazado 709875" d="M18.514,12.111A12.368,12.368,0,0,1,29.584.131,12.7,12.7,0,0,1,40.041,4c.479.465.975.914,1.43,1.4.376.4.671.385,1.058,0A33.541,33.541,0,0,1,45.046,3.03c3.8-3.07,8.06-3.894,12.611-2.069a11.657,11.657,0,0,1,7.7,10.172,11.466,11.466,0,0,1-3.471,9.675c-6,6.012-12.061,11.955-18.106,17.918-1.326,1.308-2.24,1.3-3.577-.016q-9.01-8.873-18.008-17.757a12.384,12.384,0,0,1-3.68-8.841m23.451,14.8a1.583,1.583,0,0,0,1.658-1.567c.048-.968.038-1.94.023-2.91-.01-.645.249-.947.915-.931.909.021,1.819,0,2.729,0a1.654,1.654,0,0,0,1.181-.38,1.678,1.678,0,0,0-1.022-2.947,19.383,19.383,0,0,0-2.725-.038c-.873.059-1.12-.318-1.085-1.113.037-.847.028-1.7-.008-2.546a1.635,1.635,0,1,0-3.269.03c-.032.908-.03,1.819-.012,2.728.013.656-.256.916-.925.9a21.851,21.851,0,0,0-2.905.054,1.66,1.66,0,1,0,.213,3.314c.879.022,1.759.031,2.638,0,.691-.021,1,.254.982.959-.022.969-.026,1.941.023,2.909a1.575,1.575,0,0,0,1.589,1.542" transform="translate(-9.546 0)"/>
        <path id="Trazado_709876" data-name="Trazado 709876" d="M29,77.623c0,2.857.011,5.192,0,7.528-.012,1.9-.7,2.584-2.586,2.586q-6.6.007-13.2,0c-1.714,0-2.43-.717-2.446-2.436-.013-1.335-.04-2.671.012-4a1.362,1.362,0,0,0-.852-1.429A18.575,18.575,0,0,1,4,75.432,16.231,16.231,0,0,1,.025,64.84C-.02,60.078.008,55.316.016,50.553A5.9,5.9,0,0,1,5.688,44.4c2.912-.3,5.454,1.754,6.1,4.925.523,2.583,1.064,5.163,1.56,7.752.114.6.3.662.841.436a6.747,6.747,0,0,1,7.754,1.554c1.621,1.637,3.249,3.27,4.826,4.951a8.46,8.46,0,0,1,2.115,5.391c.219,2.91.058,5.821.124,8.21" transform="translate(0 -22.879)"/>
        <path id="Trazado_709877" data-name="Trazado 709877" d="M103.073,58.558c-.1,2.309.223,5.228-.141,8.124a16.1,16.1,0,0,1-8.551,12.572c-2.554,1.445-1.992.637-2.058,3.514-.022.939.017,1.88-.013,2.82a2.008,2.008,0,0,1-2.231,2.186q-6.868.018-13.735,0A1.982,1.982,0,0,1,74.1,85.6c.031-5.485-.2-10.975.143-16.457a8.051,8.051,0,0,1,2.3-5.311c1.679-1.708,3.341-3.433,5.057-5.1a6.416,6.416,0,0,1,7.335-1.158c.661.32.843.249.979-.481q.738-3.975,1.593-7.928a5.791,5.791,0,0,1,5.97-4.682,5.893,5.893,0,0,1,5.59,5.844c.033,2.547.007,5.094.007,8.239" transform="translate(-38.183 -22.919)"/>
      </g>
    </g>
    <g id="Grupo_976267" data-name="Grupo 976267" transform="translate(768.918 1617.779)">
      <g id="Grupo_976266" data-name="Grupo 976266" clip-path="url(#clip-path-5)">
        <path id="Trazado_709878" data-name="Trazado 709878" d="M0,76.695q0-4.49,0-8.979a2.266,2.266,0,0,1,2.578-2.549c2.58,0,5.161,0,7.741,0a2.305,2.305,0,0,1,2.406,1.316.458.458,0,0,0,.4.317,3.848,3.848,0,0,0,2.99-.713c1.987-1.878,4.022-3.707,5.958-5.637a12.6,12.6,0,0,0,3.329-6.987c.2-1.131.48-2.249.758-3.364a4.1,4.1,0,0,1,5.949-2.943,6.432,6.432,0,0,1,3.966,5.622,20.648,20.648,0,0,1-.909,8.755c-.259.844-.251.849.677.85,3.612,0,7.225-.011,10.837.005a4.891,4.891,0,0,1,5.022,5.034,4.081,4.081,0,0,1-.591,2.051c-.181.295-.129.472.108.725,2.08,2.228,2.03,4.89-.143,6.959-.276.263-.252.407-.106.7a4.613,4.613,0,0,1-.812,5.613.556.556,0,0,0-.1.788,4.812,4.812,0,0,1-4.377,7.1c-1.572-.06-3.164.136-4.717-.043-2.335-.268-4.518.514-6.78.708-3.75.321-7.508.745-11.256.218a10.319,10.319,0,0,1-7.04-4.6c-.234-.328-.347-.87-.754-.924A14.25,14.25,0,0,0,12.9,86.7c-.23.005-.2.27-.285.417a2.009,2.009,0,0,1-1.8,1.136c-2.915.014-5.83.036-8.744-.011A2.11,2.11,0,0,1,0,85.984c-.009-3.1,0-6.193,0-9.289m34.155-2.209A12.4,12.4,0,0,1,30.524,76.5,9.754,9.754,0,0,1,25.6,77.1a1.653,1.653,0,0,1,.373-3.271,11.183,11.183,0,0,0,2-.07c4.256-.76,6.269-3.967,7.165-7.417.129-.5-.065-.645-.536-.629-.618.021-1.239.022-1.857,0a1.7,1.7,0,0,1-1.692-2.42c.224-.683.472-1.358.679-2.046a19.089,19.089,0,0,0,.945-8.5,3.047,3.047,0,0,0-2-2.687c-.815-.295-1.229-.063-1.406.769-.219,1.028-.46,2.053-.647,3.087a16.847,16.847,0,0,1-5.3,9.794c-1.527,1.387-3,2.832-4.459,4.295a6.446,6.446,0,0,1-5.2,2.084c-.581-.039-.778.159-.776.718q.017,6.038,0,12.075c0,.454.179.565.6.553.9-.024,1.806,0,2.709,0a1.675,1.675,0,0,1,1.544.849c.333.552.665,1.107,1.041,1.629a7.2,7.2,0,0,0,5.615,3.25,59.852,59.852,0,0,0,11.4-.63c.388-.054.545-.179.422-.6a4.513,4.513,0,0,1,.445-3.717c.2-.337.063-.472-.145-.7a4.645,4.645,0,0,1-.792-5.621c.126-.258.189-.425-.077-.655a4.965,4.965,0,0,1-1.508-2.755m9.176.739c1.417,0,2.834,0,4.25,0,1.14,0,1.8-.561,1.819-1.535a1.621,1.621,0,0,0-1.78-1.7q-4.289-.03-8.578,0A1.585,1.585,0,0,0,37.3,73.639a1.566,1.566,0,0,0,1.779,1.584c1.417.009,2.834,0,4.25,0m.029,3.246H41.816c-.541,0-1.082,0-1.622,0A1.622,1.622,0,1,0,40.2,81.7q3.206.024,6.412,0a1.635,1.635,0,0,0,1.778-1.711,1.6,1.6,0,0,0-1.787-1.513c-1.082-.008-2.163,0-3.245,0m.013-12.853v0H41.829c-.541,0-1.082-.007-1.622,0a1.632,1.632,0,1,0-.014,3.246q3.206.019,6.413,0a1.629,1.629,0,1,0,.013-3.243c-1.081-.014-2.163,0-3.245,0m0,19.333v-.01c-.8,0-1.6-.013-2.4,0a1.539,1.539,0,0,0-1.7,1.5,1.5,1.5,0,0,0,1.539,1.663c1.724.053,3.453.037,5.177-.022a1.567,1.567,0,0,0-.062-3.127c-.85-.033-1.7-.007-2.552-.007M8.406,82.61a1.968,1.968,0,0,0-1.958-1.964A1.994,1.994,0,0,0,4.492,82.7,2.022,2.022,0,0,0,6.5,84.627a1.98,1.98,0,0,0,1.9-2.017" transform="translate(0 -27.935)"/>
        <path id="Trazado_709879" data-name="Trazado 709879" d="M116.056,19.4a19.543,19.543,0,0,1-13.9,18.746c-.553.169-.844.2-.9-.516a4.842,4.842,0,0,0-.628-1.891c-.25-.458-.139-.571.338-.707a16.193,16.193,0,1,0-20.116-19.2c-.108.448-.214.486-.594.279a5.38,5.38,0,0,0-2.032-.69c-.628-.06-.563-.378-.454-.772a19.756,19.756,0,0,1,5.414-9.2A18.976,18.976,0,0,1,94.643.1,19.323,19.323,0,0,1,115.52,14.886c.111.472.205.949.293,1.426a21.954,21.954,0,0,1,.243,3.089" transform="translate(-46.457 0)"/>
        <path id="Trazado_709880" data-name="Trazado 709880" d="M110.292,49.16q4.257,0,8.514,0c1.232,0,1.433.246,1.225,1.472a9.774,9.774,0,0,1-13.91,7.491,9.506,9.506,0,0,1-5.627-7.772c-.127-.91.179-1.185,1.129-1.186q4.335,0,8.669,0Z" transform="translate(-60.072 -29.394)"/>
        <path id="Trazado_709881" data-name="Trazado 709881" d="M109.987,28.171a2.926,2.926,0,0,1-2.918,2.879,3.015,3.015,0,0,1-2.942-2.972,2.954,2.954,0,0,1,2.911-2.9,2.9,2.9,0,0,1,2.948,2.989" transform="translate(-62.261 -15.057)"/>
        <path id="Trazado_709882" data-name="Trazado 709882" d="M136.83,28.145a2.956,2.956,0,0,1-2.989,2.9,3,3,0,0,1-2.883-3.019,2.964,2.964,0,0,1,2.956-2.851,2.929,2.929,0,0,1,2.915,2.965" transform="translate(-78.304 -15.055)"/>
      </g>
    </g>
    <g id="Grupo_976269" data-name="Grupo 976269" transform="translate(767.537 1738.769)">
      <g id="Grupo_976268" data-name="Grupo 976268" clip-path="url(#clip-path-6)">
        <path id="Trazado_709883" data-name="Trazado 709883" d="M11.178,26.251c-.7.045-1.357.064-2,.133a14.307,14.307,0,0,1-3.583-.168A3.765,3.765,0,0,1,6.6,18.754a17.012,17.012,0,0,0,10.5-2.619.517.517,0,0,0,.278-.578,4.168,4.168,0,0,1,1.744-4c.382-.281.188-.505.04-.772q-2.321-4.163-4.638-8.328C13.688.939,14.252,0,16,0Q31.467,0,46.935,0c1.8,0,2.348.968,1.46,2.557-1.561,2.795-3.108,5.6-4.683,8.384a.637.637,0,0,0,.142.946,4.092,4.092,0,0,1,.312,5.83c-.393.431-.352.641.047,1A81.666,81.666,0,0,1,53.28,28.2a47.465,47.465,0,0,1,8.273,13.965,20.542,20.542,0,0,1,1.006,11.515,13.86,13.86,0,0,1-7.273,9.254,30.129,30.129,0,0,1-10.3,3.267,98.408,98.408,0,0,1-16.97.788,62.656,62.656,0,0,1-12.958-1.35,24.559,24.559,0,0,1-9.4-4.031A13.5,13.5,0,0,1,.107,51.843c-.5-4.736.818-9.089,2.824-13.284a54.936,54.936,0,0,1,7.817-11.633,1.37,1.37,0,0,0,.431-.676m4.486-.824c-.23.315-.351.522-.51.693a64.922,64.922,0,0,0-6.935,8.725c-2.762,4.24-5,8.7-5.417,13.855a11.667,11.667,0,0,0,2.564,8.909A15.613,15.613,0,0,0,12.4,62.015a41.934,41.934,0,0,0,12.835,2.095,121.376,121.376,0,0,0,17.42-.383,32.311,32.311,0,0,0,10.141-2.6c6.035-2.838,8-7.358,7.271-13.406a28.015,28.015,0,0,0-4.264-11.2A74.469,74.469,0,0,0,40.962,19.5a1.28,1.28,0,0,0-.892-.348q-7.24.008-14.48,0a.8.8,0,0,0-.824.511,15.609,15.609,0,0,0-1.236,3.6,4.559,4.559,0,0,0,.845,4.167,3.647,3.647,0,0,1-.581,5.028,3.691,3.691,0,0,1-5.063-.173,9.532,9.532,0,0,1-2.659-4.968,6.858,6.858,0,0,0-.408-1.886M31.493,2.764c-4.3,0-8.61.008-12.915-.009-.62,0-.678.139-.38.661q1.9,3.341,3.747,6.715a1.046,1.046,0,0,0,1.045.635q8.5-.024,17.008,0a1,1,0,0,0,1.007-.584c1.219-2.228,2.467-4.44,3.706-6.658.4-.716.381-.757-.445-.757q-6.387,0-12.774,0m-.258,13.627q4.766,0,9.532,0a1.577,1.577,0,0,0,1.426-.607,1.319,1.319,0,0,0,.114-1.462,1.608,1.608,0,0,0-1.609-.807q-9.426-.009-18.853,0c-1.081,0-1.73.572-1.729,1.448s.646,1.422,1.727,1.423q4.7.005,9.391,0M21.311,30.549a.855.855,0,0,0,.895-.486,1.063,1.063,0,0,0-.192-1.243A5.024,5.024,0,0,1,20.725,26.2a11.8,11.8,0,0,1,.831-6c.32-.92.328-.916-.654-1.083A1.915,1.915,0,0,1,20.425,19c-.54-.25-.749-.011-.88.5a24.3,24.3,0,0,0-.939,4.9,7.684,7.684,0,0,0,1.732,5.58,1.185,1.185,0,0,0,.973.564m-13.083-6.9a22.26,22.26,0,0,0,6.224-1.06c1.256-.352,2.037-.946,2.061-2.311,0-.2.222-.424.025-.594s-.4.037-.577.118a23.182,23.182,0,0,1-3.24,1.179,16.351,16.351,0,0,1-6.2.569c-.869-.092-1.3.226-1.365.853-.06.585.348,1.01,1.175,1.122.626.085,1.263.084,1.895.122" transform="translate(0 0)"/>
      </g>
    </g>
    <g id="Grupo_976271" data-name="Grupo 976271" transform="translate(781.914 1854.969)">
      <g id="Grupo_976270" data-name="Grupo 976270" clip-path="url(#clip-path-7)">
        <path id="Trazado_709884" data-name="Trazado 709884" d="M27.814,28.541c0,6.293.01,12.587-.014,18.88a1.95,1.95,0,0,0,.774,1.63c5.53,4.864,7.723,10.933,5.762,18.074-1.973,7.186-6.883,11.56-14.258,12.725A17.393,17.393,0,0,1,.32,65.736,16.922,16.922,0,0,1,6.446,48.964,1.737,1.737,0,0,0,7,47.41Q7,29.057,7,10.7A10.54,10.54,0,0,1,13.983.623,10.3,10.3,0,0,1,27.794,10.1c.063,6.146.013,12.294.013,18.441Zm-3.987,1.5c0-6.5.023-12.992-.008-19.488a6.518,6.518,0,0,0-7.929-6.191,6.325,6.325,0,0,0-4.972,6.385c-.009,12.553-.035,25.106.034,37.659a3.872,3.872,0,0,1-1.707,3.486c-4.626,3.586-6.151,8.48-5.014,14.058C5.623,72.776,12.365,77.094,19.425,76A13.564,13.564,0,0,0,30.576,60.091a12.893,12.893,0,0,0-5.3-8.384,3.083,3.083,0,0,1-1.48-2.886c.082-6.261.036-12.523.034-18.785" transform="translate(0 0.001)" fill="#fff"/>
        <path id="Trazado_709885" data-name="Trazado 709885" d="M71.29,64.671c1.346,0,2.692-.018,4.037,0,1.437.024,2.285.786,2.28,2a2.074,2.074,0,0,1-2.318,2.078c-2.721.015-5.442-.015-8.162.017-.763.009-1.063-.262-1.019-1.021.042-.729.03-1.463,0-2.194-.022-.634.238-.9.879-.889,1.433.023,2.867.007,4.3.007" transform="translate(-34.001 -33.261)" fill="#fff"/>
        <path id="Trazado_709886" data-name="Trazado 709886" d="M70.981,27.334c-1.432,0-2.864-.027-4.294.011-.7.019-.939-.272-.916-.931.027-.759.016-1.519.007-2.279-.006-.541.213-.787.785-.784,2.951.017,5.9-.006,8.853.017a1.8,1.8,0,0,1,1.919,1.841,1.951,1.951,0,0,1-1.971,2.114c-1.46.03-2.922.007-4.382.007Z" transform="translate(-33.829 -12.011)" fill="#fff"/>
        <path id="Trazado_709887" data-name="Trazado 709887" d="M69.238,48.188c-.761,0-1.522-.015-2.282,0-.539.014-.829-.182-.822-.755.011-.848.013-1.7,0-2.546-.009-.576.3-.773.823-.771,1.551.008,3.1-.036,4.651.029,1.4.06,2.268.884,2.232,1.975a2.259,2.259,0,0,1-2.408,2.061c-.731.013-1.463,0-2.195,0" transform="translate(-34.017 -22.691)" fill="#fff"/>
        <path id="Trazado_709888" data-name="Trazado 709888" d="M28.1,63.935c0,4.3.02,8.6-.018,12.906a1.758,1.758,0,0,0,.933,1.712,16.359,16.359,0,0,1,3.938,3.19C37.35,86.8,35.3,95.921,27.673,97.673a9.5,9.5,0,0,1-9.8-3.037,9.845,9.845,0,0,1-1.959-10.093,9.467,9.467,0,0,1,3.171-4.234,4.547,4.547,0,0,1,.98-.737c2.065-.926,2.42-2.523,2.383-4.669-.136-7.987-.055-15.978-.053-23.968,0-1.2.005-1.2,1.226-1.2,1.112,0,2.227.051,3.335-.017.883-.053,1.168.244,1.16,1.137-.038,4.36-.017,8.721-.017,13.082" transform="translate(-7.88 -25.569)" fill="#fff"/>
      </g>
    </g>
    <rect id="Rectángulo_341203" data-name="Rectángulo 341203" width="1228" height="46" transform="translate(186 2044)" fill="#f6f6f6"/>
    <path id="Trazado_716540" data-name="Trazado 716540" d="M8.982,15H6.932L2.939,8.451V15H.889V5.047H2.939l4,6.563V5.047H8.982Zm1.354-3.767a4.387,4.387,0,0,1,.424-1.962,3.1,3.1,0,0,1,1.22-1.333,3.56,3.56,0,0,1,1.849-.472,3.368,3.368,0,0,1,2.444.916,3.676,3.676,0,0,1,1.056,2.488l.014.506a3.866,3.866,0,0,1-.95,2.731,3.3,3.3,0,0,1-2.55,1.029,3.319,3.319,0,0,1-2.553-1.025,3.934,3.934,0,0,1-.954-2.789Zm1.976.14a2.765,2.765,0,0,0,.4,1.612,1.424,1.424,0,0,0,2.256.007,3.025,3.025,0,0,0,.4-1.763,2.737,2.737,0,0,0-.4-1.6,1.311,1.311,0,0,0-1.135-.568,1.29,1.29,0,0,0-1.121.565A3.076,3.076,0,0,0,12.312,11.374Zm8.613-5.588V7.6h1.265V9.053H20.925v3.691a.881.881,0,0,0,.157.588.79.79,0,0,0,.6.178,3.15,3.15,0,0,0,.581-.048v1.5a4.067,4.067,0,0,1-1.2.178,1.886,1.886,0,0,1-2.119-2.1V9.053h-1.08V7.6h1.08V5.785ZM27.576,15a2.194,2.194,0,0,1-.2-.663,2.39,2.39,0,0,1-1.866.8,2.626,2.626,0,0,1-1.8-.629A2.023,2.023,0,0,1,23,12.922a2.09,2.09,0,0,1,.872-1.8,4.3,4.3,0,0,1,2.519-.636H27.3v-.424a1.219,1.219,0,0,0-.263-.82A1.035,1.035,0,0,0,26.2,8.93a1.177,1.177,0,0,0-.783.239.813.813,0,0,0-.284.656H23.16a1.984,1.984,0,0,1,.4-1.189,2.621,2.621,0,0,1,1.121-.858A4.086,4.086,0,0,1,26.3,7.467a3.228,3.228,0,0,1,2.17.687,2.4,2.4,0,0,1,.8,1.931v3.206a3.536,3.536,0,0,0,.294,1.593V15Zm-1.634-1.374a1.7,1.7,0,0,0,.807-.195,1.28,1.28,0,0,0,.547-.523V11.637h-.738q-1.483,0-1.579,1.025l-.007.116a.791.791,0,0,0,.26.608A1.009,1.009,0,0,0,25.942,13.626Zm4.956.4a1,1,0,0,1,.318-.766,1.235,1.235,0,0,1,1.6,0,1,1,0,0,1,.318.766.981.981,0,0,1-.314.755,1.256,1.256,0,0,1-1.606,0A.981.981,0,0,1,30.9,14.029Zm9-2.926L39.225,15H37.939l1.729-9.953,3.322.007a3.249,3.249,0,0,1,2.372.817,2.57,2.57,0,0,1,.718,2.17,3.1,3.1,0,0,1-1.138,2.249,4.128,4.128,0,0,1-2.676.82Zm.185-1.073,2.215.007a2.694,2.694,0,0,0,1.716-.526A2.106,2.106,0,0,0,44.8,8.048a1.65,1.65,0,0,0-.349-1.364,1.755,1.755,0,0,0-1.333-.55l-2.358-.007Zm10.9-1.3L50.4,8.67a2.117,2.117,0,0,0-1.873,1.073L47.619,15H46.382l1.285-7.4,1.2-.007-.185.861a2.211,2.211,0,0,1,1.853-1,2.27,2.27,0,0,1,.588.1Zm4.033-1.265a2.666,2.666,0,0,1,1.593.506,2.874,2.874,0,0,1,.981,1.357,4.2,4.2,0,0,1,.215,1.89l-.014.15a4.975,4.975,0,0,1-.643,1.952,3.77,3.77,0,0,1-1.326,1.357,3.234,3.234,0,0,1-1.784.458,2.671,2.671,0,0,1-1.589-.506,2.809,2.809,0,0,1-.974-1.34,4.314,4.314,0,0,1-.219-1.866,5.04,5.04,0,0,1,.622-2.064,3.858,3.858,0,0,1,1.336-1.418A3.2,3.2,0,0,1,55.016,7.467ZM52.5,11.432a4.2,4.2,0,0,0,0,.9,2.194,2.194,0,0,0,.482,1.285,1.447,1.447,0,0,0,1.1.5,1.971,1.971,0,0,0,1.135-.3,2.554,2.554,0,0,0,.875-.981,4.131,4.131,0,0,0,.458-1.456,6.558,6.558,0,0,0,.021-1.06A2.277,2.277,0,0,0,56.075,9,1.479,1.479,0,0,0,54.968,8.5a2.016,2.016,0,0,0-1.627.752,3.715,3.715,0,0,0-.827,2.023Zm8.8,1.839L63.971,7.6h1.306L61.551,15h-.943L59.158,7.6h1.217ZM66.6,15h-1.23l1.285-7.4h1.23ZM67.621,4.9a.677.677,0,0,1,.523.188.7.7,0,0,1,.208.53.73.73,0,0,1-.731.745.682.682,0,0,1-.526-.185.669.669,0,0,1-.2-.52.775.775,0,0,1,.205-.533A.723.723,0,0,1,67.621,4.9ZM73.206,13q.1-.766-.841-1.08l-1.285-.376q-1.627-.561-1.572-1.859a2.048,2.048,0,0,1,.892-1.6,3.177,3.177,0,0,1,1.986-.612,2.649,2.649,0,0,1,1.822.653,2.068,2.068,0,0,1,.673,1.665l-1.23-.007a1.154,1.154,0,0,0-.349-.9,1.379,1.379,0,0,0-.964-.362,1.8,1.8,0,0,0-1.107.314,1.151,1.151,0,0,0-.5.807q-.089.643.786.937l.622.171a4.005,4.005,0,0,1,1.8.854,1.632,1.632,0,0,1,.492,1.306,2.074,2.074,0,0,1-.451,1.2,2.58,2.58,0,0,1-1.094.783,3.658,3.658,0,0,1-1.456.25,2.885,2.885,0,0,1-1.941-.687,2.124,2.124,0,0,1-.738-1.733l1.237.007a1.311,1.311,0,0,0,.4,1,1.515,1.515,0,0,0,1.087.376,2.132,2.132,0,0,0,1.169-.284A1.091,1.091,0,0,0,73.206,13Zm3.828,2H75.8l1.285-7.4h1.23ZM78.053,4.9a.677.677,0,0,1,.523.188.7.7,0,0,1,.208.53.73.73,0,0,1-.731.745.682.682,0,0,1-.526-.185.669.669,0,0,1-.2-.52.775.775,0,0,1,.205-.533A.723.723,0,0,1,78.053,4.9Zm5.113,2.563a2.666,2.666,0,0,1,1.593.506A2.875,2.875,0,0,1,85.74,9.33a4.2,4.2,0,0,1,.215,1.89l-.014.15a4.975,4.975,0,0,1-.643,1.952,3.77,3.77,0,0,1-1.326,1.357,3.234,3.234,0,0,1-1.784.458,2.671,2.671,0,0,1-1.589-.506,2.809,2.809,0,0,1-.974-1.34,4.315,4.315,0,0,1-.219-1.866,5.04,5.04,0,0,1,.622-2.064,3.858,3.858,0,0,1,1.336-1.418A3.2,3.2,0,0,1,83.166,7.467ZM80.65,11.432a4.2,4.2,0,0,0,0,.9,2.194,2.194,0,0,0,.482,1.285,1.447,1.447,0,0,0,1.1.5,1.971,1.971,0,0,0,1.135-.3,2.554,2.554,0,0,0,.875-.981A4.131,4.131,0,0,0,84.7,11.37a6.557,6.557,0,0,0,.021-1.06A2.277,2.277,0,0,0,84.226,9,1.479,1.479,0,0,0,83.118,8.5a2.016,2.016,0,0,0-1.627.752,3.715,3.715,0,0,0-.827,2.023ZM89.325,7.6l-.178.937a2.916,2.916,0,0,1,2.27-1.066,1.835,1.835,0,0,1,1.545.725,2.815,2.815,0,0,1,.369,1.962L92.524,15H91.287l.813-4.862a2.592,2.592,0,0,0,.007-.621,1.022,1.022,0,0,0-1.128-.976,2.329,2.329,0,0,0-1.955,1.188L88.108,15H86.871l1.285-7.4Zm8.306,7.54a2.667,2.667,0,0,1-2.16-1.019,3.505,3.505,0,0,1-.656-2.536l.034-.294a4.921,4.921,0,0,1,.653-2.01,3.8,3.8,0,0,1,1.309-1.371,3.054,3.054,0,0,1,1.668-.441,2.352,2.352,0,0,1,1.791.759,3.121,3.121,0,0,1,.711,1.982,5.793,5.793,0,0,1-.027.889l-.075.567H96.045a2.5,2.5,0,0,0,.332,1.709,1.57,1.57,0,0,0,1.357.731,2.631,2.631,0,0,0,2.023-.984l.711.6a3.253,3.253,0,0,1-1.2,1.049A3.4,3.4,0,0,1,97.631,15.137ZM98.417,8.5a1.807,1.807,0,0,0-1.336.52,3.693,3.693,0,0,0-.906,1.606l3.6.007.027-.109a2.024,2.024,0,0,0-.277-1.432A1.3,1.3,0,0,0,98.417,8.5Zm7.854,4.5q.1-.766-.841-1.08l-1.285-.376q-1.627-.561-1.572-1.859a2.048,2.048,0,0,1,.892-1.6,3.177,3.177,0,0,1,1.986-.612,2.649,2.649,0,0,1,1.822.653,2.068,2.068,0,0,1,.673,1.665l-1.23-.007a1.154,1.154,0,0,0-.349-.9,1.379,1.379,0,0,0-.964-.362,1.8,1.8,0,0,0-1.107.314,1.151,1.151,0,0,0-.5.807q-.089.643.786.937l.622.171a4.005,4.005,0,0,1,1.8.854A1.632,1.632,0,0,1,107.5,12.9a2.074,2.074,0,0,1-.451,1.2,2.58,2.58,0,0,1-1.094.783,3.658,3.658,0,0,1-1.456.25,2.885,2.885,0,0,1-1.941-.687,2.124,2.124,0,0,1-.738-1.733l1.237.007a1.311,1.311,0,0,0,.4,1,1.515,1.515,0,0,0,1.087.376,2.132,2.132,0,0,0,1.169-.284A1.091,1.091,0,0,0,106.271,13Zm9.707-5.537a2.313,2.313,0,0,1,1.907.9l.226-.752h1.142l-1.777,10.24h-1.23l.67-3.527a2.8,2.8,0,0,1-2.064.82,2.062,2.062,0,0,1-1.661-.786,3.438,3.438,0,0,1-.67-2.085,6.053,6.053,0,0,1,.2-1.788,5.168,5.168,0,0,1,.714-1.641,3.186,3.186,0,0,1,1.125-1.049A2.8,2.8,0,0,1,115.979,7.46Zm-2.187,3.972-.034.574a2.592,2.592,0,0,0,.359,1.542,1.276,1.276,0,0,0,1.09.564,2.249,2.249,0,0,0,1.853-1l.643-3.637a1.579,1.579,0,0,0-1.477-.978,1.953,1.953,0,0,0-1.579.718A4.253,4.253,0,0,0,113.791,11.432Zm10.883,2.837a2.856,2.856,0,0,1-2.208.868,1.843,1.843,0,0,1-1.569-.759,2.9,2.9,0,0,1-.379-2l.793-4.778h1.237l-.8,4.8a3.187,3.187,0,0,0-.014.588,1.223,1.223,0,0,0,.294.772,1,1,0,0,0,.725.3A2.219,2.219,0,0,0,124.8,12.99l.93-5.387h1.237L125.686,15h-1.169Zm6.057.868a2.667,2.667,0,0,1-2.16-1.019,3.505,3.505,0,0,1-.656-2.536l.034-.294a4.921,4.921,0,0,1,.653-2.01,3.8,3.8,0,0,1,1.309-1.371,3.054,3.054,0,0,1,1.668-.441,2.352,2.352,0,0,1,1.791.759,3.121,3.121,0,0,1,.711,1.982,5.792,5.792,0,0,1-.027.889l-.075.567h-4.833a2.5,2.5,0,0,0,.332,1.709,1.57,1.57,0,0,0,1.357.731,2.631,2.631,0,0,0,2.023-.984l.711.6a3.253,3.253,0,0,1-1.2,1.049A3.4,3.4,0,0,1,130.73,15.137Zm.786-6.638a1.807,1.807,0,0,0-1.336.52,3.693,3.693,0,0,0-.906,1.606l3.6.007.027-.109a2.024,2.024,0,0,0-.277-1.432A1.3,1.3,0,0,0,131.517,8.5Zm8.046,6.5h-1.23l1.285-7.4h1.23Zm1.019-10.1a.677.677,0,0,1,.523.188.7.7,0,0,1,.208.53.73.73,0,0,1-.731.745.682.682,0,0,1-.526-.185.669.669,0,0,1-.2-.52.776.776,0,0,1,.205-.533A.723.723,0,0,1,140.581,4.9ZM144.04,7.6l-.178.937a2.916,2.916,0,0,1,2.27-1.066,1.835,1.835,0,0,1,1.545.725,2.815,2.815,0,0,1,.369,1.962L147.239,15H146l.813-4.862a2.592,2.592,0,0,0,.007-.621,1.022,1.022,0,0,0-1.128-.976,2.329,2.329,0,0,0-1.955,1.188L142.823,15h-1.237l1.285-7.4ZM155.271,5.56a8.618,8.618,0,0,0-1.285-.15,1.537,1.537,0,0,0-1.087.379,1.716,1.716,0,0,0-.513,1.029l-.123.786H153.8l-.171.978H152.1L150.985,15h-1.237l1.121-6.419h-1.142L149.9,7.6h1.135l.123-.868a2.824,2.824,0,0,1,.916-1.777,2.715,2.715,0,0,1,1.873-.622,10.39,10.39,0,0,1,2,.3l.656.137L154.868,15h-1.237Zm6.351,8.709a2.856,2.856,0,0,1-2.208.868,1.843,1.843,0,0,1-1.569-.759,2.9,2.9,0,0,1-.379-2l.793-4.778H159.5l-.8,4.8a3.188,3.188,0,0,0-.014.588,1.223,1.223,0,0,0,.294.772,1,1,0,0,0,.725.3,2.219,2.219,0,0,0,2.051-1.073l.93-5.387h1.237L162.634,15h-1.169Zm5.51-1.135,2.632-5.53h1.367l-4.389,8.627a2.656,2.656,0,0,1-2.352,1.777,4.029,4.029,0,0,1-.745-.123l.109-1.025.321.034a1.622,1.622,0,0,0,1.015-.263,2.426,2.426,0,0,0,.755-.94l.444-.848L165.013,7.6H166.3Zm7.041,2a2.667,2.667,0,0,1-2.16-1.019,3.505,3.505,0,0,1-.656-2.536l.034-.294a4.921,4.921,0,0,1,.653-2.01,3.8,3.8,0,0,1,1.309-1.371,3.054,3.054,0,0,1,1.668-.441,2.352,2.352,0,0,1,1.791.759,3.121,3.121,0,0,1,.711,1.982,5.792,5.792,0,0,1-.027.889l-.075.567h-4.833a2.5,2.5,0,0,0,.332,1.709,1.57,1.57,0,0,0,1.357.731,2.631,2.631,0,0,0,2.023-.984l.711.6a3.253,3.253,0,0,1-1.2,1.049A3.4,3.4,0,0,1,174.173,15.137Zm.786-6.638a1.807,1.807,0,0,0-1.336.52,3.693,3.693,0,0,0-.906,1.606l3.6.007.027-.109a2.024,2.024,0,0,0-.277-1.432A1.3,1.3,0,0,0,174.959,8.5Zm5.729-.9-.178.937a2.916,2.916,0,0,1,2.27-1.066,1.835,1.835,0,0,1,1.545.725,2.815,2.815,0,0,1,.369,1.962L183.887,15h-1.237l.813-4.862a2.592,2.592,0,0,0,.007-.621,1.022,1.022,0,0,0-1.128-.976,2.329,2.329,0,0,0-1.955,1.188L179.471,15h-1.237l1.285-7.4Zm11.737,7.54a2.667,2.667,0,0,1-2.16-1.019,3.505,3.505,0,0,1-.656-2.536l.034-.294a4.921,4.921,0,0,1,.653-2.01A3.8,3.8,0,0,1,191.6,7.908a3.054,3.054,0,0,1,1.668-.441,2.352,2.352,0,0,1,1.791.759,3.121,3.121,0,0,1,.711,1.982,5.792,5.792,0,0,1-.027.889l-.075.567h-4.833a2.5,2.5,0,0,0,.332,1.709,1.57,1.57,0,0,0,1.357.731,2.631,2.631,0,0,0,2.023-.984l.711.6a3.253,3.253,0,0,1-1.2,1.049A3.4,3.4,0,0,1,192.425,15.137Zm.786-6.638a1.807,1.807,0,0,0-1.336.52,3.693,3.693,0,0,0-.906,1.606l3.6.007.027-.109a2.024,2.024,0,0,0-.277-1.432A1.3,1.3,0,0,0,193.211,8.5Zm5.729-.9-.178.937a2.916,2.916,0,0,1,2.27-1.066,1.835,1.835,0,0,1,1.545.725,2.815,2.815,0,0,1,.369,1.962L202.139,15H200.9l.813-4.862a2.592,2.592,0,0,0,.007-.621,1.022,1.022,0,0,0-1.128-.976,2.329,2.329,0,0,0-1.955,1.188L197.723,15h-1.237l1.285-7.4Zm11.737,7.54a2.667,2.667,0,0,1-2.16-1.019,3.505,3.505,0,0,1-.656-2.536l.034-.294a4.921,4.921,0,0,1,.653-2.01,3.8,3.8,0,0,1,1.309-1.371,3.054,3.054,0,0,1,1.668-.441,2.352,2.352,0,0,1,1.791.759,3.121,3.121,0,0,1,.711,1.982A5.792,5.792,0,0,1,214,11.1l-.075.567h-4.833a2.5,2.5,0,0,0,.332,1.709,1.57,1.57,0,0,0,1.357.731,2.631,2.631,0,0,0,2.023-.984l.711.6a3.253,3.253,0,0,1-1.2,1.049A3.4,3.4,0,0,1,210.677,15.137Zm.786-6.638a1.807,1.807,0,0,0-1.336.52,3.693,3.693,0,0,0-.906,1.606l3.6.007.027-.109a2.024,2.024,0,0,0-.277-1.432A1.3,1.3,0,0,0,211.463,8.5Zm4.614,6.5h-1.23l1.818-10.5H217.9Zm8.579-.889a1.877,1.877,0,0,0,1.2-.386,1.837,1.837,0,0,0,.7-1.049l1.169-.007a2.638,2.638,0,0,1-.557,1.271,3.22,3.22,0,0,1-2.56,1.2,2.64,2.64,0,0,1-1.562-.482,2.7,2.7,0,0,1-.94-1.306,4.35,4.35,0,0,1-.205-1.883l.034-.342a4.9,4.9,0,0,1,.622-1.907,3.6,3.6,0,0,1,1.285-1.309,3.192,3.192,0,0,1,1.75-.441,2.5,2.5,0,0,1,1.859.779,2.7,2.7,0,0,1,.7,1.907l-1.155-.007a1.775,1.775,0,0,0-.4-1.172,1.406,1.406,0,0,0-1.053-.475,1.972,1.972,0,0,0-1.6.718,3.76,3.76,0,0,0-.8,2.064l-.021.178a5.928,5.928,0,0,0-.014.9,2.061,2.061,0,0,0,.451,1.265A1.449,1.449,0,0,0,224.656,14.111Zm8.162-6.645a2.666,2.666,0,0,1,1.593.506,2.874,2.874,0,0,1,.981,1.357,4.2,4.2,0,0,1,.215,1.89l-.014.15a4.975,4.975,0,0,1-.643,1.952,3.77,3.77,0,0,1-1.326,1.357,3.234,3.234,0,0,1-1.784.458,2.671,2.671,0,0,1-1.589-.506,2.809,2.809,0,0,1-.974-1.34,4.314,4.314,0,0,1-.219-1.866,5.04,5.04,0,0,1,.622-2.064,3.858,3.858,0,0,1,1.336-1.418A3.2,3.2,0,0,1,232.818,7.467ZM230.3,11.432a4.2,4.2,0,0,0,0,.9,2.194,2.194,0,0,0,.482,1.285,1.447,1.447,0,0,0,1.1.5,1.971,1.971,0,0,0,1.135-.3,2.554,2.554,0,0,0,.875-.981,4.131,4.131,0,0,0,.458-1.456,6.559,6.559,0,0,0,.021-1.06,2.277,2.277,0,0,0-.5-1.306,1.479,1.479,0,0,0-1.107-.506,2.016,2.016,0,0,0-1.627.752,3.715,3.715,0,0,0-.827,2.023ZM238.978,7.6l-.178.937a2.916,2.916,0,0,1,2.27-1.066,1.835,1.835,0,0,1,1.545.725,2.815,2.815,0,0,1,.369,1.962L242.177,15h-1.237l.813-4.862a2.592,2.592,0,0,0,.007-.621,1.022,1.022,0,0,0-1.128-.976,2.329,2.329,0,0,0-1.955,1.188L237.761,15h-1.237l1.285-7.4Zm5.708,7.4,1.121-6.419h-1.142l.171-.978h1.135l.123-.875a2.9,2.9,0,0,1,.861-1.743,2.561,2.561,0,0,1,1.832-.643,4.274,4.274,0,0,1,.882.117l-.15,1.038a4.057,4.057,0,0,0-.663-.082,1.412,1.412,0,0,0-1.042.4,1.814,1.814,0,0,0-.5,1.06l-.109.729h1.531l-.171.978h-1.531L245.923,15Zm8.292-7.533a2.666,2.666,0,0,1,1.593.506,2.874,2.874,0,0,1,.981,1.357,4.2,4.2,0,0,1,.215,1.89l-.014.15a4.975,4.975,0,0,1-.643,1.952,3.77,3.77,0,0,1-1.326,1.357,3.234,3.234,0,0,1-1.784.458,2.671,2.671,0,0,1-1.589-.506,2.809,2.809,0,0,1-.974-1.34,4.314,4.314,0,0,1-.219-1.866,5.04,5.04,0,0,1,.622-2.064,3.858,3.858,0,0,1,1.336-1.418A3.2,3.2,0,0,1,252.978,7.467Zm-2.516,3.965a4.2,4.2,0,0,0,0,.9,2.194,2.194,0,0,0,.482,1.285,1.447,1.447,0,0,0,1.1.5,1.971,1.971,0,0,0,1.135-.3,2.554,2.554,0,0,0,.875-.981,4.131,4.131,0,0,0,.458-1.456,6.559,6.559,0,0,0,.021-1.06,2.277,2.277,0,0,0-.5-1.306A1.479,1.479,0,0,0,252.93,8.5a2.016,2.016,0,0,0-1.627.752,3.715,3.715,0,0,0-.827,2.023Zm10.821-2.7L260.7,8.67a2.117,2.117,0,0,0-1.873,1.073L257.92,15h-1.237l1.285-7.4,1.2-.007-.185.861a2.211,2.211,0,0,1,1.853-1,2.27,2.27,0,0,1,.588.1Zm3.671-2.919L264.64,7.6h1.347l-.171.978h-1.34l-.772,4.6a1.6,1.6,0,0,0-.007.328.521.521,0,0,0,.581.533,3.544,3.544,0,0,0,.6-.068l-.1,1.032a3.366,3.366,0,0,1-.9.123,1.292,1.292,0,0,1-1.107-.543,2.1,2.1,0,0,1-.287-1.425l.752-4.58h-1.306L262.1,7.6h1.306l.314-1.791ZM274.148,15a1.657,1.657,0,0,1-.048-.39l.021-.39a3.032,3.032,0,0,1-2.16.916,2.21,2.21,0,0,1-1.589-.619A1.872,1.872,0,0,1,269.814,13a2.277,2.277,0,0,1,1.029-1.835,4.38,4.38,0,0,1,2.526-.66l1.292.007.082-.588a1.352,1.352,0,0,0-.256-1.049,1.237,1.237,0,0,0-.974-.4,1.908,1.908,0,0,0-1.125.311,1.324,1.324,0,0,0-.6.858l-1.244.007a1.983,1.983,0,0,1,.506-1.152,2.943,2.943,0,0,1,1.142-.779,3.688,3.688,0,0,1,1.442-.263,2.452,2.452,0,0,1,1.8.7,2.173,2.173,0,0,1,.54,1.788l-.6,3.664-.034.526a2.58,2.58,0,0,0,.082.745l-.014.116Zm-1.941-.957a2.158,2.158,0,0,0,1.125-.284,2.848,2.848,0,0,0,.913-.824l.267-1.524-.937-.007a3.547,3.547,0,0,0-1.791.369,1.36,1.36,0,0,0-.7,1.046,1.059,1.059,0,0,0,.243.865A1.156,1.156,0,0,0,272.207,14.043ZM279.535,7.6l-.178.937a2.916,2.916,0,0,1,2.27-1.066,1.835,1.835,0,0,1,1.545.725,2.815,2.815,0,0,1,.369,1.962L282.734,15H281.5l.813-4.862a2.591,2.591,0,0,0,.007-.621,1.022,1.022,0,0,0-1.128-.976,2.329,2.329,0,0,0-1.955,1.188L278.318,15h-1.237l1.285-7.4Zm6.446,7.4h-1.23l1.285-7.4h1.23ZM287,4.9a.677.677,0,0,1,.523.188.7.7,0,0,1,.208.53.73.73,0,0,1-.731.745.681.681,0,0,1-.526-.185.669.669,0,0,1-.2-.52.775.775,0,0,1,.205-.533A.723.723,0,0,1,287,4.9ZM290.445,7.6l-.157.827a2.892,2.892,0,0,1,2.249-.957,2.282,2.282,0,0,1,1.193.321,1.576,1.576,0,0,1,.673.868,3.054,3.054,0,0,1,2.454-1.189,1.956,1.956,0,0,1,1.634.745,2.662,2.662,0,0,1,.39,1.928L298.067,15h-1.23l.807-4.874a2.575,2.575,0,0,0,0-.649q-.13-.93-1.217-.95a1.869,1.869,0,0,0-1.227.42,1.945,1.945,0,0,0-.708,1.138L293.651,15h-1.244l.82-4.867A1.563,1.563,0,0,0,293,8.964a1.2,1.2,0,0,0-.988-.424,2.026,2.026,0,0,0-1.839,1.053L289.235,15H288l1.285-7.4ZM304.5,15a1.657,1.657,0,0,1-.048-.39l.021-.39a3.032,3.032,0,0,1-2.16.916,2.21,2.21,0,0,1-1.589-.619A1.872,1.872,0,0,1,300.166,13a2.277,2.277,0,0,1,1.029-1.835,4.38,4.38,0,0,1,2.526-.66l1.292.007.082-.588a1.352,1.352,0,0,0-.256-1.049,1.237,1.237,0,0,0-.974-.4,1.908,1.908,0,0,0-1.125.311,1.324,1.324,0,0,0-.6.858l-1.244.007A1.983,1.983,0,0,1,301.4,8.5a2.943,2.943,0,0,1,1.142-.779,3.688,3.688,0,0,1,1.442-.263,2.452,2.452,0,0,1,1.8.7,2.173,2.173,0,0,1,.54,1.788l-.6,3.664-.034.526a2.58,2.58,0,0,0,.082.745l-.014.116Zm-1.941-.957a2.158,2.158,0,0,0,1.125-.284,2.848,2.848,0,0,0,.913-.824l.267-1.524-.937-.007a3.547,3.547,0,0,0-1.791.369,1.36,1.36,0,0,0-.7,1.046,1.059,1.059,0,0,0,.243.865A1.156,1.156,0,0,0,302.559,14.043Zm6.214.957h-1.23L309.36,4.5H310.6Zm2.933-1.436a.74.74,0,0,1,.554.205.706.706,0,0,1,.212.547.739.739,0,0,1-.226.543.813.813,0,0,1-.547.222.689.689,0,0,1-.752-.725.765.765,0,0,1,.759-.793ZM324.16,10.6h-4.047l-.766,4.4h-1.285l1.729-9.953h5.988l-.191,1.073h-4.7L320.3,9.531h4.054Zm7.745-.205h-4.184l-.615,3.527h4.867L331.782,15h-6.146l1.729-9.953h6.077l-.191,1.073H328.46l-.554,3.206h4.184Zm8.948,4.6h-1.244l-3.555-7.725L334.715,15h-1.292l1.729-9.953H336.4l3.562,7.759L341.3,5.047h1.278Zm8.128-2.6h-4.033l-1.36,2.6h-1.374l5.407-9.953h1.128L350.718,15h-1.265Zm-3.466-1.073h3.274l-.827-4.642Zm9.509,1.921,4.04-8.2h1.449L355.373,15h-1.135l-2.017-9.953h1.347ZM361.587,15h-1.278l1.729-9.953h1.278Zm1.921,1.989-.711-.513a4.514,4.514,0,0,0,.984-1.941l.178-1.032h1.21l-.144.923A3.956,3.956,0,0,1,363.508,16.989Zm7.137-6a12.941,12.941,0,0,1,.837-3.076,9.532,9.532,0,0,1,1.5-2.553,6.164,6.164,0,0,1,1.982-1.6l.185.848A7.1,7.1,0,0,0,373.307,6.7a10.746,10.746,0,0,0-1.186,3.063,14.73,14.73,0,0,0-.4,3.5,7.744,7.744,0,0,0,.366,2.492,3.932,3.932,0,0,0,1.056,1.7l-.308.766a4.936,4.936,0,0,1-1.747-2.345,9.043,9.043,0,0,1-.55-3.555,10.809,10.809,0,0,1,.1-1.251ZM380.939,15H374.6l.15-.964,3.671-3.568.67-.663a3.923,3.923,0,0,0,1.278-2.133,1.581,1.581,0,0,0-.294-1.227,1.383,1.383,0,0,0-1.08-.5,2.037,2.037,0,0,0-1.5.523,2.4,2.4,0,0,0-.731,1.507l-1.224.007a3.462,3.462,0,0,1,.564-1.624,3.142,3.142,0,0,1,1.251-1.087,3.6,3.6,0,0,1,1.685-.359,2.762,2.762,0,0,1,1.965.749,2.218,2.218,0,0,1,.625,1.87,4.764,4.764,0,0,1-1.511,2.762l-.629.636-3.2,3.042H381.1Zm4.43.137a2.246,2.246,0,0,1-1.887-.892,3.96,3.96,0,0,1-.574-2.492q.014-.506.075-1l.246-1.661a6.162,6.162,0,0,1,1.251-3.172,2.991,2.991,0,0,1,2.434-1.012,2.273,2.273,0,0,1,1.9.872,3.873,3.873,0,0,1,.578,2.451q-.021.513-.082,1l-.239,1.606a6.53,6.53,0,0,1-1.278,3.288A2.972,2.972,0,0,1,385.369,15.137Zm2.741-6.125a10.581,10.581,0,0,0,.089-1.285q-.034-1.736-1.347-1.784a1.8,1.8,0,0,0-1.548.708,4.9,4.9,0,0,0-.824,2.328l-.294,1.982a10.084,10.084,0,0,0-.089,1.292q.034,1.812,1.34,1.859a1.756,1.756,0,0,0,1.5-.67,4.75,4.75,0,0,0,.844-2.256ZM393.969,15h-1.244l1.463-8.395-2.646.93.212-1.2L395.445,5h.219Zm9.194-4.375a3.548,3.548,0,0,1-1.073.8,2.514,2.514,0,0,1-1.128.25,2.2,2.2,0,0,1-1.343-.444,2.447,2.447,0,0,1-.813-1.183,3.919,3.919,0,0,1-.174-1.641,4.422,4.422,0,0,1,.554-1.8A3.386,3.386,0,0,1,400.4,5.331a2.974,2.974,0,0,1,1.651-.42,2.346,2.346,0,0,1,1.866.861,3.681,3.681,0,0,1,.731,2.235,9.31,9.31,0,0,1-.171,1.818,6.9,6.9,0,0,1-1.781,3.852,4.833,4.833,0,0,1-3.415,1.336h-.308l.109-1.073h.253a3.715,3.715,0,0,0,2.41-.822A4.914,4.914,0,0,0,403.163,10.625Zm-1.941,0a1.975,1.975,0,0,0,1.2-.352,2.978,2.978,0,0,0,.943-1.022l.055-.5.021-.554a3.2,3.2,0,0,0-.393-1.634,1.235,1.235,0,0,0-1.049-.6,1.75,1.75,0,0,0-1.446.653,2.959,2.959,0,0,0-.694,1.719,3.306,3.306,0,0,0,.014.848,2.156,2.156,0,0,0,.246.759A1.236,1.236,0,0,0,401.222,10.625Zm7.349,3.486a1.877,1.877,0,0,0,1.2-.386,1.837,1.837,0,0,0,.7-1.049l1.169-.007a2.637,2.637,0,0,1-.557,1.271,3.22,3.22,0,0,1-2.56,1.2,2.64,2.64,0,0,1-1.562-.482,2.7,2.7,0,0,1-.94-1.306,4.35,4.35,0,0,1-.205-1.883l.034-.342a4.9,4.9,0,0,1,.622-1.907,3.6,3.6,0,0,1,1.285-1.309,3.192,3.192,0,0,1,1.75-.441,2.5,2.5,0,0,1,1.859.779,2.7,2.7,0,0,1,.7,1.907l-1.155-.007a1.775,1.775,0,0,0-.4-1.172,1.406,1.406,0,0,0-1.053-.475,1.972,1.972,0,0,0-1.6.718,3.76,3.76,0,0,0-.8,2.064l-.021.178a5.93,5.93,0,0,0-.014.9,2.061,2.061,0,0,0,.451,1.265A1.449,1.449,0,0,0,408.57,14.111ZM416.151,11a12.684,12.684,0,0,1-.868,3.155,9.486,9.486,0,0,1-1.507,2.509,6.268,6.268,0,0,1-1.945,1.555l-.191-.786a8.976,8.976,0,0,0,3.131-5.667,14.73,14.73,0,0,0,.3-3.028,5.572,5.572,0,0,0-1.422-4.2l.321-.766a4.532,4.532,0,0,1,1.3,1.418,6.69,6.69,0,0,1,.779,2.058,10.537,10.537,0,0,1,.222,2.43,11.676,11.676,0,0,1-.1,1.251Zm2.174,2.563a.74.74,0,0,1,.554.205.706.706,0,0,1,.212.547.739.739,0,0,1-.226.543.813.813,0,0,1-.547.222.689.689,0,0,1-.752-.725.765.765,0,0,1,.759-.793Z" transform="translate(201 2056)" fill="#12263f"/>
  </g>
</svg>
