<svg xmlns="http://www.w3.org/2000/svg" xmlns:xlink="http://www.w3.org/1999/xlink" width="153" height="153" viewBox="0 0 153 153">
  <defs>
    <clipPath id="clip-path">
      <rect id="Rectángulo_341029" data-name="Rectángulo 341029" width="116.059" height="83.296" fill="none"/>
    </clipPath>
  </defs>
  <g id="Grupo_982811" data-name="Grupo 982811" transform="translate(-1728 8421.282)">
    <circle id="Elipse_5686" data-name="Elipse 5686" cx="76.5" cy="76.5" r="76.5" transform="translate(1728 -8421.282)" fill="#06d1d1"/>
    <g id="Grupo_976002" data-name="Grupo 976002" transform="translate(1746.47 -8394.398)">
      <g id="Grupo_976001" data-name="Grupo 976001" clip-path="url(#clip-path)">
        <path id="Trazado_706343" data-name="Trazado 706343" d="M58.082,83.29H3.721c-2.734,0-3.654-.928-3.654-3.679C.068,72.4-.105,65.193.1,57.993.8,34.083,11.905,16.611,33.087,5.607A49.388,49.388,0,0,1,51.378.321C74-1.79,92.009,6.513,105.469,24.668a54.688,54.688,0,0,1,10.018,25.2,55.018,55.018,0,0,1,.573,7.959q-.026,11,0,21.994c0,2.436-1.03,3.475-3.491,3.475q-27.243,0-54.485,0ZM58.053,44.6q16.37,0,32.74,0c2.8,0,3.752.952,3.754,3.733,0,9.413.024,18.827-.016,28.241,0,1.062.307,1.3,1.318,1.284,4.54-.052,9.081-.04,13.621,0,.853.008,1.122-.2,1.117-1.1-.038-6.373-.022-12.746,0-19.119a48.593,48.593,0,0,0-.74-8.431A51.539,51.539,0,0,0,89.615,15.952,52.3,52.3,0,0,0,42.277,7.794a51.671,51.671,0,0,0-24.266,16.2A50.876,50.876,0,0,0,5.618,55.38c-.307,7.11-.047,14.243-.083,21.366,0,.874.238,1.112,1.116,1.1,4.582-.044,9.165-.054,13.746.01,1.047.015,1.2-.346,1.193-1.276-.028-9.5-.011-18.994,0-28.491,0-2.476,1.019-3.494,3.474-3.495q16.495,0,32.99,0M41.214,50.074c-4.374,0-8.747.017-13.121-.015-.786-.006-1.059.176-1.056,1.025q.051,12.871,0,25.742c0,.843.271,1.024,1.066,1.022q13.058-.037,26.117.008c.862,0,1.121-.209,1.117-1.1q-.057-12.808,0-25.616c0-.915-.286-1.084-1.127-1.076-4.332.042-8.664.019-13,.016m33.721,0v0c-4.291,0-8.582.037-12.872-.026-1.065-.016-1.292.313-1.287,1.324q.064,12.622,0,25.245c-.005.991.211,1.245,1.208,1.241q12.935-.059,25.87.007c1.006.005,1.235-.272,1.23-1.247q-.057-12.685,0-25.37c0-.908-.186-1.207-1.157-1.194-4.332.057-8.665.025-13,.025" transform="translate(0 0)"/>
        <path id="Trazado_706344" data-name="Trazado 706344" d="M83.394,49.41q7.74,0,15.478,0c1.931,0,3.247,1.107,3.233,2.694-.015,1.638-1.277,2.745-3.214,2.747q-15.478.017-30.957.005c-1.931,0-3.274-1.125-3.219-2.741a2.9,2.9,0,0,1,3.2-2.739c5.158.085,10.318.031,15.478.033" transform="translate(-25.338 -19.333)"/>
        <path id="Trazado_706345" data-name="Trazado 706345" d="M88.01,29.62c2.791,0,5.583-.014,8.374,0,1.887.013,3.1,1.062,3.137,2.66.038,1.517-1.262,2.7-3.1,2.7q-8.436.029-16.872-.007a2.783,2.783,0,0,1-2.955-2.73,2.728,2.728,0,0,1,2.914-2.625c2.832-.03,5.665-.009,8.5-.007" transform="translate(-29.991 -11.594)"/>
      </g>
    </g>
  </g>
</svg>
