<svg xmlns="http://www.w3.org/2000/svg" xmlns:xlink="http://www.w3.org/1999/xlink" width="153" height="153" viewBox="0 0 153 153">
  <defs>
    <clipPath id="clip-path">
      <rect id="Rectángulo_341023" data-name="Rectángulo 341023" width="102.203" height="120.531" transform="translate(0 0)" fill="none"/>
    </clipPath>
  </defs>
  <g id="Grupo_982809" data-name="Grupo 982809" transform="translate(-727 -2624)">
    <circle id="Elipse_5684" data-name="Elipse 5684" cx="76.5" cy="76.5" r="76.5" transform="translate(727 2624)" fill="#06d1d1"/>
    <g id="Grupo_975993" data-name="Grupo 975993" transform="translate(745.773 2640.234)">
      <g id="Grupo_975992" data-name="Grupo 975992" clip-path="url(#clip-path)">
        <path id="Trazado_706312" data-name="Trazado 706312" d="M97.837,44.614c0,10.184.155,20.371-.063,30.55a65.267,65.267,0,0,0,2.079,16.109c.788,3.433,1.508,6.881,2.279,10.318a1.473,1.473,0,0,1-1.2,2,.78.78,0,0,0-.15.051c-.922.439-2.341.047-2.8,1.015-.394.827-.115,1.977-.121,2.984-.009,1.7,0,3.4-.013,5.092-.015,1.974-.325,2.283-2.343,2.283-12.889,0-25.78.144-38.666-.063a68.625,68.625,0,0,0-17.077,2.077c-5.026,1.194-10.082,2.264-15.133,3.351-1.865.4-2.362.038-2.8-1.811-.849-3.548-.849-3.547-4.42-3.551q-3.183,0-6.365-.008c-2.248-.006-2.6-.339-2.6-2.556Q8.424,98.3,8.425,84.134c0-6.259-.177-12.525.06-18.775A66.186,66.186,0,0,0,6.4,47.971C4.233,38.52,2.215,29.036.153,19.562c-.428-1.966-.019-2.489,2.007-2.9,1.7-.341,3.395-.755,5.1-1.081.85-.162,1.229-.475,1.186-1.448C8.356,12.021,8.413,9.9,8.43,7.775c.016-1.817.44-2.239,2.261-2.241,11.881-.006,23.765-.152,35.642.058a66.188,66.188,0,0,0,16.1-2.1Q69.985,1.76,77.559.149c1.931-.413,2.372-.04,2.785,1.991.687,3.389.687,3.387,4.083,3.387q5.569,0,11.139.006c1.993,0,2.29.307,2.29,2.323q0,18.379,0,36.758ZM25.18,117.19a5.112,5.112,0,0,1,.531-.183q9.342-2.037,18.684-4.067,16.513-3.6,33.024-7.2Q87.61,103.514,97.8,101.3c.831-.179,1.1-.463.884-1.4-1.023-4.358-1.946-8.74-2.9-13.113Q89.818,59.521,83.852,32.26q-3.041-13.9-6.061-27.816c-.2-.932-.555-1.118-1.5-.883C73.528,4.246,70.732,4.8,67.95,5.4q-22.8,4.984-45.609,9.971c-5.877,1.285-11.758,2.552-17.631,3.857-.688.153-1.586.066-1.283,1.41q3.956,17.544,7.785,35.117,4.976,22.639,9.919,45.287c1.089,4.983,2.128,9.976,3.234,14.955.1.448-.046,1.281.815,1.19M94.47,66.633c.5-.349.378-.691.377-.983-.008-3.919-.043-7.837-.043-11.756q0-21.7.045-43.4c0-1.461-.336-2.057-1.928-1.99-3.227.134-6.463.1-9.695.061-1.17-.015-1.421.316-1.162,1.476,2.222,9.946,4.387,19.9,6.566,29.86,1.941,8.872,3.878,17.745,5.84,26.727M11.763,72.681a5.3,5.3,0,0,0-.215,2.755c-.018,11.651.014,23.3-.035,34.952-.006,1.358.423,1.734,1.717,1.665,1.848-.1,3.708-.084,5.559-.005,1.343.057,1.557-.347,1.262-1.656-1.926-8.567-3.749-17.157-5.62-25.737-.847-3.884-1.729-7.761-2.668-11.974M64.58,111.624c0,.1,0,.21,0,.315a2.345,2.345,0,0,0,.556.134c3.009-.019,6.019-.07,9.028-.071,6.356,0,12.712-.014,19.068.057,1.359.016,1.739-.457,1.621-1.746a29.155,29.155,0,0,1-.046-3.966c.051-1.144-.355-1.315-1.413-1.068-4.1.958-8.226,1.83-12.341,2.732L64.58,111.624M37.677,8.9c-.376-.238-.46-.338-.544-.338-6.991,0-13.982-.005-20.973.037-1.509.009-3.576-.708-4.375.328-.752.973-.169,2.947-.254,4.476-.056,1.007.4,1.186,1.24.991q2-.462,4-.9c6.881-1.513,13.764-3.023,20.9-4.59"/>
        <path id="Trazado_706313" data-name="Trazado 706313" d="M20.19,54.015c-1.231.074-1.646-.729-1.866-1.74q-2.078-9.569-4.154-19.138c-.314-1.441-.675-2.871-.958-4.318-.246-1.254.055-2.055,1.547-2.374,7.921-1.692,15.819-3.488,23.726-5.242,1.462-.324,2.018.577,2.282,1.777q1.661,7.552,3.294,15.112c.593,2.717,1.18,5.435,1.8,8.145.277,1.21.049,2.178-1.266,2.468-7.974,1.76-15.957,3.48-23.937,5.214-.155.033-.311.062-.468.1M16.559,29.764c.028.1.062.2.084.306l4.251,19.724c.164.758.468.907,1.323.712q9.626-2.2,19.3-4.193c.942-.2,1.125-.588.948-1.394q-2.11-9.645-4.21-19.292c-.2-.927-.628-1.154-1.556-.905-1.679.451-3.4.768-5.094,1.145q-7.1,1.576-14.2,3.159c-.4.089-1.073-.088-.843.738"/>
        <path id="Trazado_706314" data-name="Trazado 706314" d="M31.651,91.789c-.982-.059-1.514-.473-1.607-1.348-.114-1.073.568-1.546,1.461-1.753,2.052-.474,4.116-.893,6.173-1.345q18.588-4.082,37.175-8.165c1.954-.429,3.918-.81,5.864-1.273a1.551,1.551,0,0,1,2.121,1.089c.3,1.1-.43,1.684-1.415,1.907-3.394.766-6.792,1.508-10.192,2.249q-19.311,4.206-38.623,8.4c-.358.078-.713.174-.957.234"/>
        <path id="Trazado_706315" data-name="Trazado 706315" d="M28.93,79.477a1.466,1.466,0,0,1-1.637-1.391c-.089-.932.535-1.4,1.42-1.592,3.752-.826,7.5-1.688,11.249-2.512q17.121-3.756,34.246-7.49c1.286-.281,2.572-.558,3.864-.805.977-.186,1.891-.044,2.089,1.111.188,1.091-.484,1.6-1.514,1.824-4.687,1.012-9.365,2.062-14.048,3.092q-17.13,3.771-34.264,7.532c-.463.1-.938.157-1.4.231"/>
        <path id="Trazado_706316" data-name="Trazado 706316" d="M26.267,67.264c-.9-.075-1.474-.449-1.6-1.321-.154-1.078.532-1.566,1.422-1.772,2.511-.58,5.035-1.108,7.554-1.656Q50.689,58.807,67.733,55.1c2.468-.538,4.942-1.052,7.4-1.647,1.064-.258,1.991-.227,2.293.955.324,1.269-.517,1.775-1.647,2.021-7.156,1.561-14.3,3.156-21.459,4.719q-13.589,2.969-27.184,5.909c-.308.067-.613.148-.865.209"/>
        <path id="Trazado_706317" data-name="Trazado 706317" d="M83.592,90.17c1.165-.035,1.772.28,1.9,1.187.152,1.054-.42,1.552-1.383,1.765-3.656.808-7.306,1.646-10.965,2.445Q54.6,99.618,36.052,103.649c-.464.1-.933.176-1.394.288a1.447,1.447,0,0,1-1.949-1.117c-.236-1,.4-1.582,1.343-1.794Q39.062,99.9,44.077,98.8q18.518-4.059,37.038-8.111c.925-.2,1.855-.389,2.477-.519"/>
        <path id="Trazado_706318" data-name="Trazado 706318" d="M47.269,22.384a1.46,1.46,0,0,1-1.557-1.27c-.212-1.1.525-1.564,1.4-1.77,2.459-.581,4.933-1.1,7.4-1.636,5.145-1.116,10.3-2.2,15.433-3.357,1.046-.235,1.832-.1,2.135.971.337,1.2-.382,1.739-1.465,1.977q-11.43,2.51-22.856,5.032a4.435,4.435,0,0,1-.493.053"/>
        <path id="Trazado_706319" data-name="Trazado 706319" d="M49.673,33.332a1.35,1.35,0,0,1-1.515-1.292c-.1-1.023.418-1.486,1.428-1.7,5.708-1.23,11.4-2.518,17.1-3.787,1.85-.412,3.693-.859,5.552-1.225.96-.189,2.007-.242,2.32,1.009S74.011,28.048,73,28.271q-11.27,2.479-22.544,4.934c-.258.056-.522.086-.781.127"/>
        <path id="Trazado_706320" data-name="Trazado 706320" d="M34.55,32.047c-.071,1.122-.879,1.884-1.428,2.763-1.446,2.315-1.466,2.3.774,3.753.709.46,1.446.888,2.1,1.413a1.36,1.36,0,0,1,.361,1.967,1.389,1.389,0,0,1-2.059.479,32.372,32.372,0,0,1-3.064-1.972c-1-.8-1.528-.472-2.066.491S28,42.825,27.4,43.758c-.519.806-1.214,1.244-2.13.7a1.462,1.462,0,0,1-.427-2.307c.68-1.07,1.314-2.171,2.04-3.208.49-.7.338-1.1-.352-1.51-1.048-.615-2.064-1.285-3.085-1.943-.843-.543-1.368-1.231-.734-2.235.623-.988,1.482-.836,2.343-.348.458.26.879.586,1.328.865,2.743,1.7,2.742,1.7,4.519-1.055.372-.576.729-1.166,1.153-1.7a1.326,1.326,0,0,1,1.6-.325,1.279,1.279,0,0,1,.9,1.358"/>
      </g>
    </g>
  </g>
</svg>
