<svg xmlns="http://www.w3.org/2000/svg" xmlns:xlink="http://www.w3.org/1999/xlink" width="379.116" height="342.249" viewBox="0 0 379.116 342.249">
  <defs>
    <clipPath id="clip-path">
      <rect id="Rectángulo_340832" data-name="Rectángulo 340832" width="379.116" height="342.249" fill="none"/>
    </clipPath>
  </defs>
  <g id="Grupo_975536" data-name="Grupo 975536" transform="translate(0 0.005)">
    <g id="Grupo_975535" data-name="Grupo 975535" transform="translate(0 -0.005)" clip-path="url(#clip-path)">
      <path id="Trazado_705075" data-name="Trazado 705075" d="M307.708,153.849A153.854,153.854,0,1,1,153.854,0,153.854,153.854,0,0,1,307.708,153.849" transform="translate(0 0.005)" fill="#06d1d1" opacity="0.09"/>
      <path id="Trazado_705076" data-name="Trazado 705076" d="M799.479,345.2s18.319-4.616,28.852-25.684,10.471-37.885-1.118-44.689-5.648-32.726,8.393-34.346,16.741,4.86,16.741,4.86,11.881-19.441,32.4-14.581,15.121,21.061,15.121,21.061,22.141-15.661,38.882,0,1.081,36.182,1.081,36.182,3.78-5.4,10.8,20.521-27.542,35.642-27.542,35.642,6.675,11.72-.982,26.651-25.358,18.135-37.3,2.762-25.332-55.43-85.33-28.381" transform="translate(-611.597 -175.934)" fill="#c9edf9"/>
      <path id="Trazado_705077" data-name="Trazado 705077" d="M1110.96,585.376a1.754,1.754,0,1,1-1.754-1.754,1.754,1.754,0,0,1,1.754,1.754" transform="translate(-847.195 -446.467)" fill="#064c91"/>
      <path id="Trazado_705078" data-name="Trazado 705078" d="M1115.86,685.063a1.754,1.754,0,1,1-1.754-1.754,1.754,1.754,0,0,1,1.754,1.754" transform="translate(-850.944 -522.727)" fill="#064c91"/>
      <path id="Trazado_705079" data-name="Trazado 705079" d="M1184.021,665.253a1.754,1.754,0,1,1-1.754-1.754,1.754,1.754,0,0,1,1.754,1.754" transform="translate(-903.086 -507.572)" fill="#064c91"/>
      <path id="Trazado_705080" data-name="Trazado 705080" d="M1157.688,585.739a2.1,2.1,0,1,1-2.1-2.1,2.1,2.1,0,0,1,2.1,2.1" transform="translate(-882.409 -446.478)" fill="#064c91"/>
      <path id="Trazado_705081" data-name="Trazado 705081" d="M1135.726,591.23a1.2,1.2,0,1,1-1.03-1.352,1.2,1.2,0,0,1,1.03,1.352" transform="translate(-866.995 -451.244)" fill="#064c91"/>
      <path id="Trazado_705082" data-name="Trazado 705082" d="M1185.282,639.794a1.2,1.2,0,1,1-1.2-1.2,1.2,1.2,0,0,1,1.2,1.2" transform="translate(-904.896 -488.519)" fill="#064c91"/>
      <path id="Trazado_705083" data-name="Trazado 705083" d="M1091.133,662.8a1.2,1.2,0,1,1-1.2-1.2,1.2,1.2,0,0,1,1.2,1.2" transform="translate(-832.873 -506.117)" fill="#064c91"/>
      <path id="Trazado_705084" data-name="Trazado 705084" d="M1080.5,616.161a2.7,2.7,0,1,1-2.7-2.7,2.7,2.7,0,0,1,2.7,2.7" transform="translate(-822.444 -469.291)" fill="#064c91"/>
      <path id="Trazado_705085" data-name="Trazado 705085" d="M1149.731,686.878a2.7,2.7,0,1,1-2.7-2.7,2.7,2.7,0,0,1,2.7,2.7" transform="translate(-875.403 -523.389)" fill="#064c91"/>
      <path id="Trazado_705086" data-name="Trazado 705086" d="M1190.2,609.131a2.7,2.7,0,1,1-2.7-2.7,2.7,2.7,0,0,1,2.7,2.7" transform="translate(-906.363 -463.913)" fill="#064c91"/>
      <path id="Trazado_705087" data-name="Trazado 705087" d="M1111.123,596.865a5.665,5.665,0,0,1-1.283,1.013,9.648,9.648,0,0,1-2.174.937c-.165.046-.646.192-1.43.4a8.511,8.511,0,0,0-3.9-3.672q.022-.213.049-.424c.042-.331.093-.658.151-.982a5.075,5.075,0,0,1,1.253-2.631l-1.086-.43a2.583,2.583,0,0,1-.016.515,4.172,4.172,0,0,1-.089.486,5.352,5.352,0,0,1-.318.916,6.739,6.739,0,0,1-.465.858q-.268.415-.561.82c-.092.126-.185.252-.28.377a8.524,8.524,0,0,0-2.812-.268,8.853,8.853,0,0,1,.082-2.926h-.868a9.037,9.037,0,0,1,.074,3.006,8.44,8.44,0,0,0-2.323.718,14.272,14.272,0,0,1-2.264-4.684l-1.058.494a14.574,14.574,0,0,1,2.166,4.859,8.5,8.5,0,0,0-3.047,3.773,12.207,12.207,0,0,1-4.444-1.5,4.146,4.146,0,0,1-.556-.422l-.6,1.594a4.115,4.115,0,0,1,.7.047,12.456,12.456,0,0,1,4.428,1.852,8.512,8.512,0,0,0,.481,4.877,10.681,10.681,0,0,1-2.7,1.587,4.232,4.232,0,0,1-1.082.254l.348.8a3.212,3.212,0,0,1,.445-.345,9.565,9.565,0,0,1,3.536-1.193,8.523,8.523,0,0,0,2.817,2.869,6.651,6.651,0,0,1-1.307,3.408l1.083.439a4.293,4.293,0,0,1,.518-1.874c.186-.372.641-1.068.849-1.378a8.507,8.507,0,0,0,4.823.546,9.193,9.193,0,0,1,.716,2.287,5.537,5.537,0,0,1-.073,2.364l1.671-.323a5.527,5.527,0,0,1-.949-2.166,9.256,9.256,0,0,1-.185-2.461,8.5,8.5,0,0,0,4.064-2.906,16.692,16.692,0,0,1,3.523,1.555l.538-1.037a16.319,16.319,0,0,1-3.2-1.908,8.43,8.43,0,0,0,.872-3.649,6.406,6.406,0,0,1,2.173.4l.07-.865a6.485,6.485,0,0,1-2.248.043,8.427,8.427,0,0,0-.508-2.594c.667-.407,1.086-.644,1.257-.744a7.953,7.953,0,0,1,3.8-1.147Z" transform="translate(-830.271 -452.03)" fill="#064c91"/>
      <path id="Trazado_705088" data-name="Trazado 705088" d="M1293.667,394.2a4.5,4.5,0,0,0-.227-6.47,4.77,4.77,0,0,0-6.611.5,4.5,4.5,0,0,0,.227,6.47,4.77,4.77,0,0,0,6.611-.5" transform="translate(-983.454 -295.768)" fill="#65cefe"/>
      <path id="Trazado_705089" data-name="Trazado 705089" d="M1484.665,204.519a4.5,4.5,0,0,0-.227-6.47,4.77,4.77,0,0,0-6.612.5,4.5,4.5,0,0,0,.227,6.47,4.77,4.77,0,0,0,6.611-.5" transform="translate(-1129.567 -150.66)" fill="#65cefe"/>
      <path id="Trazado_705090" data-name="Trazado 705090" d="M1581.509,359.944a4.5,4.5,0,0,0-.228-6.47,4.77,4.77,0,0,0-6.612.5,4.5,4.5,0,0,0,.227,6.47,4.771,4.771,0,0,0,6.612-.5" transform="translate(-1203.652 -269.559)" fill="#65cefe"/>
      <path id="Trazado_705091" data-name="Trazado 705091" d="M1386.691,469.766a5.4,5.4,0,0,0-.272-7.757,5.719,5.719,0,0,0-7.926.6,5.4,5.4,0,0,0,.272,7.757,5.719,5.719,0,0,0,7.926-.6" transform="translate(-1053.386 -352.42)" fill="#65cefe"/>
      <path id="Trazado_705092" data-name="Trazado 705092" d="M1350.631,429.962a3.049,3.049,0,0,0-.761-4.347,3.306,3.306,0,0,0-4.467.932,3.048,3.048,0,0,0,.761,4.347,3.306,3.306,0,0,0,4.467-.931" transform="translate(-1028.774 -325.206)" fill="#65cefe"/>
      <path id="Trazado_705093" data-name="Trazado 705093" d="M1535.646,417.882a3.086,3.086,0,0,0-.156-4.432,3.268,3.268,0,0,0-4.529.341,3.086,3.086,0,0,0,.156,4.432,3.269,3.269,0,0,0,4.53-.341" transform="translate(-1170.517 -315.706)" fill="#65cefe"/>
      <path id="Trazado_705094" data-name="Trazado 705094" d="M1393.948,211.855a3.085,3.085,0,0,0-.156-4.432,3.268,3.268,0,0,0-4.529.341,3.086,3.086,0,0,0,.156,4.432,3.268,3.268,0,0,0,4.529-.341" transform="translate(-1062.12 -158.097)" fill="#65cefe"/>
      <path id="Trazado_705095" data-name="Trazado 705095" d="M1293.727,272.224a6.943,6.943,0,0,0-.35-9.973,7.353,7.353,0,0,0-10.191.767,6.942,6.942,0,0,0,.35,9.973,7.353,7.353,0,0,0,10.191-.767" transform="translate(-980.146 -199.317)" fill="#65cefe"/>
      <path id="Trazado_705096" data-name="Trazado 705096" d="M1557.422,249.63a6.943,6.943,0,0,0-.35-9.973,7.353,7.353,0,0,0-10.191.767,6.942,6.942,0,0,0,.351,9.973,7.353,7.353,0,0,0,10.191-.767" transform="translate(-1181.872 -182.032)" fill="#65cefe"/>
      <path id="Trazado_705097" data-name="Trazado 705097" d="M1494.82,472.993a6.943,6.943,0,0,0-.35-9.973,7.353,7.353,0,0,0-10.191.767,6.943,6.943,0,0,0,.35,9.973,7.353,7.353,0,0,0,10.191-.767" transform="translate(-1133.982 -352.904)" fill="#65cefe"/>
      <path id="Trazado_705098" data-name="Trazado 705098" d="M1352.639,282.284a14.239,14.239,0,0,0-.659-4.2,23.783,23.783,0,0,0-2.533-5.564c-.236-.372-.91-1.483-2.062-3.227a23.215,23.215,0,0,1-14.284.655q-.344.46-.676.926-.779,1.093-1.491,2.21c-1.3,2.071-2.549,5.072-2.346,7.359l-2.9-1a7.175,7.175,0,0,0,.907-1.05,11.593,11.593,0,0,0,.712-1.117,14.483,14.483,0,0,0,1.048-2.362,17.877,17.877,0,0,0,.655-2.5q.23-1.282.4-2.585.077-.611.138-1.226a21.393,21.393,0,0,1-5.972-4.257,24.819,24.819,0,0,0-5.163,5.952l-1.692-1.477a25.414,25.414,0,0,0,5.616-5.845,20.748,20.748,0,0,1-3.222-5.382c-3.94,1.161-9.669,2.781-12.941,5.449L1305,260.27c4.175-.58,9.327-3.729,13.068-5.965a22.008,22.008,0,0,1,.927-12.684c-3.55-2.031-7.211-4.053-11.385-4.6a11.186,11.186,0,0,0-1.851-.108l1.735-4.184a10.368,10.368,0,0,0,1.443,1.091c3.535,2.281,7.84,3.114,12,3.863a23.965,23.965,0,0,1,9.816-8.868,26.572,26.572,0,0,0-2.369-7.746,10.436,10.436,0,0,0-1.647-2.346l2.125-.987a8.094,8.094,0,0,0,.24,1.444c.782,3.15,2.734,5.8,4.723,8.392a23.351,23.351,0,0,1,10.715-.9c1.238-1.926,3.819-5.791,3.656-8.995l2.91.971a11.709,11.709,0,0,0-2.4,4.6c-.314,1.055-.694,3.212-.854,4.184a21.4,21.4,0,0,1,10.4,7.128,26.034,26.034,0,0,0,5.558-3.323,15.481,15.481,0,0,0,4.161-4.82l2.67,3.488a15.607,15.607,0,0,0-5.793,2.688,26.1,26.1,0,0,0-4.839,4.573,21.323,21.323,0,0,1,2.636,12.694c2.052.81,6.38,2.538,9.7,2.911l-.84,2.975a43.289,43.289,0,0,0-9.708-1.657,23.134,23.134,0,0,1-4.942,8.735,16.231,16.231,0,0,0,4.966,2.9l-1.439,1.837a16.1,16.1,0,0,0-4.3-3.914,23.866,23.866,0,0,1-5.711,4.287c.558,1.944.944,3.128,1.1,3.618.975,3.023,2.868,6.783,5.323,8.75Z" transform="translate(-998.32 -166.522)" fill="#65cefe"/>
      <path id="Trazado_705099" data-name="Trazado 705099" d="M1387.112,311.881c1.049.776,3.162-.2,4.72-2.182s1.97-4.215.922-4.991-3.162.2-4.72,2.182-1.97,4.215-.922,4.991" transform="translate(-1060.69 -232.896)" fill="#fff"/>
      <path id="Trazado_705100" data-name="Trazado 705100" d="M1476.708,281.1c1.478,1.093,3.292,1.2,4.052.23s.178-2.635-1.3-3.729-3.292-1.2-4.052-.23-.178,2.636,1.3,3.729" transform="translate(-1128.424 -211.68)" fill="#fff"/>
      <path id="Trazado_705101" data-name="Trazado 705101" d="M1480.854,358c1.416.574,3.34-.66,4.3-2.756s.585-4.261-.831-4.835-3.34.659-4.3,2.756-.585,4.261.831,4.835" transform="translate(-1131.804 -267.95)" fill="#fff"/>
      <path id="Trazado_705102" data-name="Trazado 705102" d="M1389.522,389.922c1.764,1.3,3.872,1.5,4.708.438s.084-2.982-1.68-4.286-3.872-1.5-4.708-.438-.084,2.982,1.681,4.286" transform="translate(-1061.431 -294.484)" fill="#fff"/>
      <path id="Trazado_705103" data-name="Trazado 705103" d="M1435.716,403.048c-.293-.9.79-2.091,2.418-2.661s3.186-.3,3.479.6-.79,2.091-2.418,2.661-3.186.3-3.479-.6" transform="translate(-1098.279 -306.064)" fill="#fff"/>
      <path id="Trazado_705104" data-name="Trazado 705104" d="M1432.632,263.487c1.079-.243,2.035-.014,2.136.51s-.692,1.146-1.771,1.389-2.035.015-2.136-.51.692-1.146,1.771-1.389" transform="translate(-1094.595 -201.491)" fill="#fff"/>
      <path id="Trazado_705105" data-name="Trazado 705105" d="M1527.464,311.772c.4.984.419,1.914.039,2.076s-1.013-.5-1.414-1.489-.419-1.913-.039-2.076,1.013.5,1.414,1.489" transform="translate(-1167.211 -237.345)" fill="#fff"/>
      <path id="Trazado_705106" data-name="Trazado 705106" d="M1499.989,396.553c-.783.786-1.649,1.2-1.935.928s.117-1.132.9-1.919,1.649-1.2,1.935-.928-.117,1.132-.9,1.919" transform="translate(-1145.933 -301.828)" fill="#fff"/>
      <path id="Trazado_705107" data-name="Trazado 705107" d="M1378.931,291.085c.477.353,1.7-.419,2.721-1.723s1.471-2.648.995-3-1.695.419-2.721,1.723-1.471,2.648-.995,3" transform="translate(-1054.729 -218.999)" fill="#fff"/>
      <path id="Trazado_705108" data-name="Trazado 705108" d="M1459.524,316.444c1.287.952,2.824,1.1,3.432.325s.057-2.171-1.23-3.123-2.824-1.1-3.432-.325-.058,2.171,1.23,3.123" transform="translate(-1115.398 -239.307)" fill="#fff"/>
      <path id="Trazado_705109" data-name="Trazado 705109" d="M1367.429,357.56c.679,1.442,1.95,2.26,2.839,1.829s1.058-1.95.379-3.391-1.95-2.26-2.839-1.829-1.058,1.95-.379,3.391" transform="translate(-1045.757 -270.848)" fill="#fff"/>
      <path id="Trazado_705110" data-name="Trazado 705110" d="M1431.957,356.165a3.487,3.487,0,0,0,4.809,1.132,3.544,3.544,0,0,0,1.657-4.69,3.488,3.488,0,0,0-4.809-1.132,3.544,3.544,0,0,0-1.657,4.69" transform="translate(-1095.161 -268.492)" fill="#fff"/>
      <path id="Trazado_705111" data-name="Trazado 705111" d="M958,171.04a1.4,1.4,0,1,0,1.4-1.4,1.4,1.4,0,0,0-1.4,1.4" transform="translate(-732.865 -129.776)" fill="#65cefe"/>
      <path id="Trazado_705112" data-name="Trazado 705112" d="M954.1,250.38a1.4,1.4,0,1,0,1.4-1.4,1.4,1.4,0,0,0-1.4,1.4" transform="translate(-729.882 -190.47)" fill="#65cefe"/>
      <path id="Trazado_705113" data-name="Trazado 705113" d="M899.851,234.613a1.4,1.4,0,1,0,1.4-1.4,1.4,1.4,0,0,0-1.4,1.4" transform="translate(-688.381 -178.409)" fill="#65cefe"/>
      <path id="Trazado_705114" data-name="Trazado 705114" d="M919,171.329a1.673,1.673,0,1,0,1.673-1.673A1.674,1.674,0,0,0,919,171.329" transform="translate(-703.031 -129.785)" fill="#65cefe"/>
      <path id="Trazado_705115" data-name="Trazado 705115" d="M941.15,175.7a.956.956,0,1,0,.819-1.076.956.956,0,0,0-.819,1.076" transform="translate(-719.968 -133.579)" fill="#65cefe"/>
      <path id="Trazado_705116" data-name="Trazado 705116" d="M901.71,214.351a.956.956,0,1,0,.956-.956.956.956,0,0,0-.956.956" transform="translate(-689.803 -163.245)" fill="#65cefe"/>
      <path id="Trazado_705117" data-name="Trazado 705117" d="M976.642,232.66a.956.956,0,1,0,.956-.956.956.956,0,0,0-.956.956" transform="translate(-747.126 -177.251)" fill="#65cefe"/>
      <path id="Trazado_705118" data-name="Trazado 705118" d="M977.32,195.541a2.151,2.151,0,1,0,2.151-2.151,2.151,2.151,0,0,0-2.151,2.151" transform="translate(-747.645 -147.941)" fill="#65cefe"/>
      <path id="Trazado_705119" data-name="Trazado 705119" d="M922.222,251.824a2.151,2.151,0,1,0,2.151-2.151,2.151,2.151,0,0,0-2.151,2.151" transform="translate(-705.495 -190.997)" fill="#65cefe"/>
      <path id="Trazado_705120" data-name="Trazado 705120" d="M890.012,189.946a2.151,2.151,0,1,0,2.151-2.151,2.151,2.151,0,0,0-2.151,2.151" transform="translate(-680.855 -143.661)" fill="#65cefe"/>
      <path id="Trazado_705121" data-name="Trazado 705121" d="M898.4,180.184a4.487,4.487,0,0,0,1.022.807,7.655,7.655,0,0,0,1.73.746c.131.037.514.153,1.138.317a6.773,6.773,0,0,1,3.1-2.922c-.012-.113-.025-.226-.039-.338q-.051-.395-.121-.782a4.036,4.036,0,0,0-1-2.093l.864-.342a2.05,2.05,0,0,0,.012.41,3.389,3.389,0,0,0,.071.387,4.3,4.3,0,0,0,.253.729,5.435,5.435,0,0,0,.37.683c.143.22.291.437.447.652q.109.151.223.3a6.784,6.784,0,0,1,2.238-.213,7.063,7.063,0,0,0-.066-2.328h.691a7.207,7.207,0,0,0-.059,2.393,6.7,6.7,0,0,1,1.849.572,11.347,11.347,0,0,0,1.8-3.729l.843.393a11.588,11.588,0,0,0-1.724,3.868,6.769,6.769,0,0,1,2.425,3,9.708,9.708,0,0,0,3.536-1.19,3.309,3.309,0,0,0,.442-.336l.475,1.268a3.318,3.318,0,0,0-.554.038,9.911,9.911,0,0,0-3.524,1.474,6.774,6.774,0,0,1-.383,3.882,8.509,8.509,0,0,0,2.147,1.263,3.375,3.375,0,0,0,.861.2l-.277.632a2.519,2.519,0,0,0-.354-.275,7.607,7.607,0,0,0-2.814-.95,6.784,6.784,0,0,1-2.242,2.284,5.292,5.292,0,0,0,1.04,2.712l-.861.349a3.418,3.418,0,0,0-.412-1.491c-.148-.3-.51-.85-.676-1.1a6.769,6.769,0,0,1-3.838.435,7.315,7.315,0,0,0-.57,1.82,4.405,4.405,0,0,0,.058,1.881l-1.33-.257a4.406,4.406,0,0,0,.755-1.724,7.385,7.385,0,0,0,.147-1.958,6.76,6.76,0,0,1-3.235-2.313,13.308,13.308,0,0,0-2.8,1.238l-.428-.826a12.977,12.977,0,0,0,2.545-1.518,6.719,6.719,0,0,1-.694-2.9,5.092,5.092,0,0,0-1.729.319l-.055-.688a5.155,5.155,0,0,0,1.789.034,6.719,6.719,0,0,1,.4-2.064c-.531-.324-.864-.513-1-.592a6.333,6.333,0,0,0-3.025-.913Z" transform="translate(-686.863 -134.203)" fill="#65cefe"/>
      <path id="Trazado_705122" data-name="Trazado 705122" d="M1250.156,461.419a2.467,2.467,0,1,0-3.034-1.724,2.468,2.468,0,0,0,3.034,1.724" transform="translate(-953.974 -349.274)" fill="#ff6e53"/>
      <path id="Trazado_705123" data-name="Trazado 705123" d="M1387.206,430.844a2.467,2.467,0,1,0-3.034-1.724,2.468,2.468,0,0,0,3.034,1.724" transform="translate(-1058.816 -325.884)" fill="#ff6e53"/>
      <path id="Trazado_705124" data-name="Trazado 705124" d="M1385.785,530.7a2.467,2.467,0,1,0-3.034-1.724,2.467,2.467,0,0,0,3.034,1.724" transform="translate(-1057.729 -402.274)" fill="#ff6e53"/>
      <path id="Trazado_705125" data-name="Trazado 705125" d="M1268.461,524.189a2.958,2.958,0,1,0-3.637-2.067,2.958,2.958,0,0,0,3.637,2.067" transform="translate(-967.503 -396.556)" fill="#ff6e53"/>
      <path id="Trazado_705126" data-name="Trazado 705126" d="M1266.764,493.591a1.69,1.69,0,1,0-2.218-.892,1.69,1.69,0,0,0,2.218.892" transform="translate(-967.267 -375.11)" fill="#ff6e53"/>
      <path id="Trazado_705127" data-name="Trazado 705127" d="M1351.141,542.679a1.69,1.69,0,1,0-2.078-1.181,1.69,1.69,0,0,0,2.078,1.181" transform="translate(-1031.979 -412.605)" fill="#ff6e53"/>
      <path id="Trazado_705128" data-name="Trazado 705128" d="M1347.193,406.38a1.69,1.69,0,1,0-2.078-1.181,1.69,1.69,0,0,0,2.078,1.181" transform="translate(-1028.959 -308.338)" fill="#ff6e53"/>
      <path id="Trazado_705129" data-name="Trazado 705129" d="M1281.539,407.3a3.8,3.8,0,1,0-4.676-2.657,3.8,3.8,0,0,0,4.676,2.657" transform="translate(-976.688 -305.867)" fill="#ff6e53"/>
      <path id="Trazado_705130" data-name="Trazado 705130" d="M1403.314,474.8a3.8,3.8,0,1,0-4.676-2.657,3.8,3.8,0,0,0,4.676,2.657" transform="translate(-1069.845 -357.504)" fill="#ff6e53"/>
      <path id="Trazado_705131" data-name="Trazado 705131" d="M1312.963,558.729a3.8,3.8,0,1,0-4.676-2.657,3.8,3.8,0,0,0,4.676,2.657" transform="translate(-1000.728 -421.708)" fill="#ff6e53"/>
      <path id="Trazado_705132" data-name="Trazado 705132" d="M1273.119,446.667a7.962,7.962,0,0,0,.9-2.12,13.57,13.57,0,0,0,.46-3.3c0-.24.019-.948.007-2.088a11.977,11.977,0,0,1-6.436-3.917q-.281.109-.557.225-.65.271-1.276.573a7.144,7.144,0,0,0-3.1,2.682l-.989-1.312a3.6,3.6,0,0,0,.693-.214,5.865,5.865,0,0,0,.626-.3,7.524,7.524,0,0,0,1.125-.773,9.5,9.5,0,0,0,.99-.951q.462-.519.9-1.068.205-.257.406-.521a12,12,0,0,1-1.414-3.715,12.472,12.472,0,0,0-3.937,1.2l-.324-1.177a12.726,12.726,0,0,0,4.105-1.022,11.85,11.85,0,0,1,.106-3.419c-2.051-.631-5.015-1.58-7.2-1.323l.274-1.621c1.99.967,5.133,1.044,7.4,1.124a11.974,11.974,0,0,1,3.981-5.541,17.171,17.171,0,0,0-3.687-5.469,5.828,5.828,0,0,0-.78-.6l1.939-1.406a5.85,5.85,0,0,0,.324.926,17.536,17.536,0,0,0,4.165,5.315,11.976,11.976,0,0,1,6.8-1.168,15.043,15.043,0,0,0,1.146-4.251,5.968,5.968,0,0,0-.06-1.562l1.208.175a4.542,4.542,0,0,0-.3.733,13.458,13.458,0,0,0-.3,5.242,11.988,11.988,0,0,1,4.944,2.75c1.085-.518,3.3-1.528,4.135-3.044l1,1.3a6.036,6.036,0,0,0-2.348,1.4c-.435.391-1.209,1.268-1.553,1.666a11.967,11.967,0,0,1,2.541,6.338,12.948,12.948,0,0,0,3.369.117,7.784,7.784,0,0,0,3.179-.982l.185,2.387a7.785,7.785,0,0,0-3.293-.478,13.042,13.042,0,0,0-3.407.668,11.951,11.951,0,0,1-2.423,6.6,23.472,23.472,0,0,0,3.425,4.2l-1.206,1.116a22.99,22.99,0,0,0-3.782-3.626,11.875,11.875,0,0,1-4.625,2.545,9.013,9.013,0,0,0,1.355,2.8l-1.147.417a9.116,9.116,0,0,0-.781-3.065,11.885,11.885,0,0,1-3.707.279c-.3,1.056-.469,1.713-.541,1.982a11.192,11.192,0,0,0-.136,5.584Z" transform="translate(-962.517 -313.556)" fill="#ff6e53"/>
      <path id="Trazado_705133" data-name="Trazado 705133" d="M1000.164,285.486a4.088,4.088,0,1,0-5.026-2.857,4.088,4.088,0,0,0,5.026,2.857" transform="translate(-761.162 -212.251)" fill="#e74a60"/>
      <path id="Trazado_705134" data-name="Trazado 705134" d="M1227.235,234.828a4.088,4.088,0,1,0-5.027-2.856,4.088,4.088,0,0,0,5.027,2.856" transform="translate(-934.87 -173.498)" fill="#e74a60"/>
      <path id="Trazado_705135" data-name="Trazado 705135" d="M1224.881,400.272a4.088,4.088,0,1,0-5.026-2.857,4.088,4.088,0,0,0,5.026,2.857" transform="translate(-933.069 -300.062)" fill="#e74a60"/>
      <path id="Trazado_705136" data-name="Trazado 705136" d="M1030.5,389.484a4.9,4.9,0,1,0-6.026-3.424,4.9,4.9,0,0,0,6.026,3.424" transform="translate(-783.578 -290.587)" fill="#e74a60"/>
      <path id="Trazado_705137" data-name="Trazado 705137" d="M1027.683,338.789a2.8,2.8,0,1,0-3.675-1.478,2.8,2.8,0,0,0,3.675,1.478" transform="translate(-783.189 -255.057)" fill="#e74a60"/>
      <path id="Trazado_705138" data-name="Trazado 705138" d="M1167.482,420.119a2.8,2.8,0,1,0-3.443-1.956,2.8,2.8,0,0,0,3.443,1.956" transform="translate(-890.406 -317.18)" fill="#e74a60"/>
      <path id="Trazado_705139" data-name="Trazado 705139" d="M1160.94,194.295a2.8,2.8,0,1,0-3.443-1.957,2.8,2.8,0,0,0,3.443,1.957" transform="translate(-885.402 -144.425)" fill="#e74a60"/>
      <path id="Trazado_705140" data-name="Trazado 705140" d="M1052.162,195.822a6.3,6.3,0,1,0-7.747-4.4,6.3,6.3,0,0,0,7.747,4.4" transform="translate(-798.798 -140.333)" fill="#e74a60"/>
      <path id="Trazado_705141" data-name="Trazado 705141" d="M1253.922,307.658a6.3,6.3,0,1,0-7.747-4.4,6.3,6.3,0,0,0,7.747,4.4" transform="translate(-953.143 -225.887)" fill="#e74a60"/>
      <path id="Trazado_705142" data-name="Trazado 705142" d="M1104.226,446.71a6.3,6.3,0,1,0-7.747-4.4,6.3,6.3,0,0,0,7.747,4.4" transform="translate(-838.627 -332.261)" fill="#e74a60"/>
      <path id="Trazado_705143" data-name="Trazado 705143" d="M1038.212,261.044a13.179,13.179,0,0,0,1.483-3.512,22.446,22.446,0,0,0,.761-5.466c0-.4.032-1.572.011-3.46a19.845,19.845,0,0,1-10.663-6.489q-.465.182-.923.372-1.076.449-2.113.949c-1.909.937-4.217,2.606-5.138,4.443l-1.638-2.175a5.991,5.991,0,0,0,1.148-.353,9.805,9.805,0,0,0,1.038-.5,12.47,12.47,0,0,0,1.863-1.281,15.847,15.847,0,0,0,1.641-1.576q.765-.861,1.5-1.77.341-.425.673-.863a19.886,19.886,0,0,1-2.343-6.155,20.676,20.676,0,0,0-6.523,2l-.537-1.95a21.092,21.092,0,0,0,6.8-1.693,19.622,19.622,0,0,1,.177-5.665c-3.4-1.046-8.31-2.618-11.929-2.192l.454-2.684c3.3,1.6,8.5,1.73,12.261,1.862a19.83,19.83,0,0,1,6.6-9.181c-1.625-3.279-3.336-6.606-6.109-9.061a9.631,9.631,0,0,0-1.292-.988l3.212-2.329a9.63,9.63,0,0,0,.537,1.535c1.5,3.462,4.231,6.2,6.9,8.806a19.843,19.843,0,0,1,11.259-1.935,24.917,24.917,0,0,0,1.9-7.043,9.871,9.871,0,0,0-.1-2.588l2,.29a7.5,7.5,0,0,0-.5,1.215c-.9,2.775-.724,5.74-.494,8.686a19.857,19.857,0,0,1,8.192,4.556c1.8-.858,5.473-2.531,6.851-5.045l1.656,2.161a10,10,0,0,0-3.89,2.324c-.72.647-2,2.1-2.573,2.76a19.823,19.823,0,0,1,4.21,10.5,21.441,21.441,0,0,0,5.582.195,12.9,12.9,0,0,0,5.268-1.626l.307,3.956a12.9,12.9,0,0,0-5.455-.793,21.6,21.6,0,0,0-5.645,1.107,19.8,19.8,0,0,1-4.016,10.932,38.93,38.93,0,0,0,5.675,6.957l-2,1.85a38.032,38.032,0,0,0-6.265-6.008,19.673,19.673,0,0,1-7.662,4.218,14.933,14.933,0,0,0,2.245,4.635l-1.9.691a15.1,15.1,0,0,0-1.293-5.078,19.7,19.7,0,0,1-6.143.463c-.5,1.75-.776,2.838-.9,3.284-.7,2.774-1.088,6.556-.226,9.251Z" transform="translate(-775.32 -153.071)" fill="#e74a60"/>
      <path id="Trazado_705144" data-name="Trazado 705144" d="M1105.443,270.284c.4,1.1,2.387,1.395,4.441.652s3.4-2.238,3-3.34-2.387-1.394-4.441-.652-3.4,2.238-3,3.34" transform="translate(-845.605 -203.895)" fill="#fff"/>
      <path id="Trazado_705145" data-name="Trazado 705145" d="M1191.266,285.546c.562,1.553,1.829,2.519,2.831,2.157s1.36-1.915.8-3.468-1.828-2.519-2.831-2.157-1.359,1.915-.8,3.468" transform="translate(-911.109 -215.728)" fill="#fff"/>
      <path id="Trazado_705146" data-name="Trazado 705146" d="M1152.541,349.339c.759,1.129,2.73,1.133,4.4.009s2.413-2.951,1.655-4.079-2.73-1.133-4.4-.009-2.413,2.951-1.655,4.079" transform="translate(-881.46 -263.478)" fill="#fff"/>
      <path id="Trazado_705147" data-name="Trazado 705147" d="M1077.023,325.624c.67,1.854,2.107,3.034,3.209,2.636s1.453-2.224.783-4.079-2.106-3.034-3.209-2.636-1.453,2.224-.783,4.078" transform="translate(-823.657 -245.921)" fill="#fff"/>
      <path id="Trazado_705148" data-name="Trazado 705148" d="M1103.805,360.424c.208-.827,1.549-1.2,3-.839s2.451,1.329,2.243,2.156-1.549,1.2-3,.839-2.452-1.329-2.244-2.156" transform="translate(-844.384 -274.973)" fill="#fff"/>
      <path id="Trazado_705149" data-name="Trazado 705149" d="M1168.879,251.069c.9.343,1.482.984,1.31,1.432s-1.036.532-1.932.189-1.482-.985-1.311-1.432,1.037-.532,1.932-.189" transform="translate(-892.685 -191.904)" fill="#fff"/>
      <path id="Trazado_705150" data-name="Trazado 705150" d="M1214.75,332.238c-.169.944-.59,1.659-.941,1.6s-.5-.879-.33-1.823.59-1.658.941-1.6.5.879.33,1.823" transform="translate(-928.252 -252.761)" fill="#fff"/>
      <path id="Trazado_705151" data-name="Trazado 705151" d="M1153.661,386.442c-.935.214-1.757.106-1.837-.241s.613-.8,1.548-1.018,1.757-.106,1.837.242-.614.8-1.549,1.017" transform="translate(-881.134 -294.577)" fill="#fff"/>
      <path id="Trazado_705152" data-name="Trazado 705152" d="M1112.458,248.564c.181.5,1.425.511,2.778.022s2.3-1.291,2.122-1.793-1.425-.511-2.778-.022-2.3,1.291-2.122,1.792" transform="translate(-851.008 -188.503)" fill="#fff"/>
      <path id="Trazado_705153" data-name="Trazado 705153" d="M1163.16,303.506c.489,1.353,1.535,2.215,2.337,1.925s1.055-1.622.566-2.974-1.535-2.215-2.337-1.925-1.055,1.621-.566,2.974" transform="translate(-889.621 -229.861)" fill="#fff"/>
      <path id="Trazado_705154" data-name="Trazado 705154" d="M1075.547,289.775c-.181,1.427.358,2.671,1.2,2.778s1.677-.963,1.858-2.39-.359-2.671-1.205-2.778-1.677.964-1.858,2.391" transform="translate(-822.761 -219.84)" fill="#fff"/>
      <path id="Trazado_705155" data-name="Trazado 705155" d="M1120.393,323.184a3.19,3.19,0,1,0,3.392-2.752,3.091,3.091,0,0,0-3.392,2.752" transform="translate(-857.089 -245.12)" fill="#fff"/>
      <path id="Trazado_705156" data-name="Trazado 705156" d="M1133.757,800.793a4.5,4.5,0,0,0-.227-6.47,4.77,4.77,0,0,0-6.611.5,4.5,4.5,0,0,0,.227,6.47,4.771,4.771,0,0,0,6.612-.5" transform="translate(-861.124 -606.806)" fill="#e74a60"/>
      <path id="Trazado_705157" data-name="Trazado 705157" d="M1324.755,611.108a4.5,4.5,0,0,0-.227-6.47,4.77,4.77,0,0,0-6.611.5,4.5,4.5,0,0,0,.227,6.47,4.77,4.77,0,0,0,6.611-.5" transform="translate(-1007.236 -461.698)" fill="#e74a60"/>
      <path id="Trazado_705158" data-name="Trazado 705158" d="M1421.6,766.533a4.5,4.5,0,0,0-.227-6.47,4.77,4.77,0,0,0-6.611.5,4.5,4.5,0,0,0,.227,6.47,4.77,4.77,0,0,0,6.612-.5" transform="translate(-1081.321 -580.598)" fill="#e74a60"/>
      <path id="Trazado_705159" data-name="Trazado 705159" d="M1226.781,876.355a5.4,5.4,0,0,0-.272-7.757,5.719,5.719,0,0,0-7.926.6,5.4,5.4,0,0,0,.272,7.757,5.719,5.719,0,0,0,7.926-.6" transform="translate(-931.055 -663.459)" fill="#e74a60"/>
      <path id="Trazado_705160" data-name="Trazado 705160" d="M1190.719,836.551a3.049,3.049,0,0,0-.761-4.347,3.306,3.306,0,0,0-4.467.931,3.049,3.049,0,0,0,.761,4.347,3.307,3.307,0,0,0,4.468-.932" transform="translate(-906.443 -636.245)" fill="#e74a60"/>
      <path id="Trazado_705161" data-name="Trazado 705161" d="M1375.734,824.47a3.085,3.085,0,0,0-.156-4.433,3.268,3.268,0,0,0-4.529.341,3.085,3.085,0,0,0,.156,4.432,3.268,3.268,0,0,0,4.529-.341" transform="translate(-1048.186 -626.744)" fill="#e74a60"/>
      <path id="Trazado_705162" data-name="Trazado 705162" d="M1234.037,618.445a3.085,3.085,0,0,0-.156-4.432,3.268,3.268,0,0,0-4.529.341,3.085,3.085,0,0,0,.156,4.432,3.268,3.268,0,0,0,4.529-.341" transform="translate(-939.789 -469.136)" fill="#e74a60"/>
      <path id="Trazado_705163" data-name="Trazado 705163" d="M1133.815,678.813a6.942,6.942,0,0,0-.35-9.973,7.353,7.353,0,0,0-10.191.767,6.942,6.942,0,0,0,.35,9.973,7.353,7.353,0,0,0,10.191-.767" transform="translate(-857.815 -510.355)" fill="#e74a60"/>
      <path id="Trazado_705164" data-name="Trazado 705164" d="M1397.511,656.22a6.942,6.942,0,0,0-.35-9.973,7.353,7.353,0,0,0-10.191.767,6.942,6.942,0,0,0,.35,9.973,7.353,7.353,0,0,0,10.191-.767" transform="translate(-1059.541 -493.071)" fill="#e74a60"/>
      <path id="Trazado_705165" data-name="Trazado 705165" d="M1334.908,879.583a6.942,6.942,0,0,0-.351-9.973,7.353,7.353,0,0,0-10.19.767,6.942,6.942,0,0,0,.35,9.973,7.353,7.353,0,0,0,10.191-.767" transform="translate(-1011.65 -663.943)" fill="#e74a60"/>
      <path id="Trazado_705166" data-name="Trazado 705166" d="M1192.727,688.874a14.229,14.229,0,0,0-.659-4.2,23.784,23.784,0,0,0-2.533-5.564c-.237-.372-.911-1.482-2.063-3.227a23.214,23.214,0,0,1-14.284.655q-.345.46-.677.926-.779,1.093-1.492,2.209c-1.3,2.071-2.549,5.072-2.346,7.36l-2.9-1a7.115,7.115,0,0,0,.907-1.049,11.574,11.574,0,0,0,.712-1.117,14.491,14.491,0,0,0,1.048-2.362,17.946,17.946,0,0,0,.655-2.5q.23-1.282.4-2.585.077-.61.138-1.226a21.386,21.386,0,0,1-5.972-4.257,24.815,24.815,0,0,0-5.164,5.952l-1.692-1.478a25.412,25.412,0,0,0,5.616-5.845,20.742,20.742,0,0,1-3.222-5.383c-3.94,1.161-9.669,2.781-12.942,5.45l-1.167-2.783c4.175-.579,9.328-3.729,13.068-5.965a22.007,22.007,0,0,1,.927-12.684c-3.55-2.031-7.211-4.053-11.385-4.6a11.133,11.133,0,0,0-1.851-.108l1.736-4.184a10.365,10.365,0,0,0,1.443,1.091c3.536,2.281,7.839,3.114,12,3.862a23.96,23.96,0,0,1,9.816-8.868,26.583,26.583,0,0,0-2.369-7.746,10.419,10.419,0,0,0-1.648-2.346l2.125-.987a8.075,8.075,0,0,0,.24,1.444c.782,3.15,2.733,5.8,4.723,8.392a23.353,23.353,0,0,1,10.715-.9c1.238-1.926,3.819-5.791,3.656-8.995l2.91.971a11.718,11.718,0,0,0-2.4,4.6c-.314,1.055-.693,3.212-.854,4.184a21.4,21.4,0,0,1,10.4,7.128,26.032,26.032,0,0,0,5.558-3.323,15.482,15.482,0,0,0,4.161-4.82l2.67,3.488a15.611,15.611,0,0,0-5.793,2.687,26.1,26.1,0,0,0-4.839,4.574,21.317,21.317,0,0,1,2.636,12.694c2.052.81,6.38,2.538,9.7,2.911l-.84,2.976a43.3,43.3,0,0,0-9.708-1.657,23.133,23.133,0,0,1-4.942,8.735,16.231,16.231,0,0,0,4.966,2.9l-1.438,1.837a16.1,16.1,0,0,0-4.3-3.914,23.856,23.856,0,0,1-5.711,4.287c.558,1.944.944,3.128,1.1,3.618.975,3.023,2.868,6.783,5.323,8.75Z" transform="translate(-875.989 -477.561)" fill="#e74a60"/>
      <path id="Trazado_705167" data-name="Trazado 705167" d="M1227.2,718.47c1.048.776,3.162-.2,4.72-2.182s1.97-4.215.922-4.991-3.162.2-4.72,2.182-1.971,4.215-.922,4.991" transform="translate(-938.359 -543.934)" fill="#fff"/>
      <path id="Trazado_705168" data-name="Trazado 705168" d="M1316.8,687.69c1.478,1.093,3.292,1.2,4.052.23s.178-2.635-1.3-3.729-3.292-1.2-4.052-.23-.178,2.636,1.3,3.729" transform="translate(-1006.094 -522.719)" fill="#fff"/>
      <path id="Trazado_705169" data-name="Trazado 705169" d="M1320.944,764.586c1.416.574,3.34-.66,4.3-2.756s.585-4.26-.831-4.835-3.34.66-4.3,2.756-.585,4.261.832,4.835" transform="translate(-1009.473 -578.989)" fill="#fff"/>
      <path id="Trazado_705170" data-name="Trazado 705170" d="M1229.612,796.511c1.764,1.3,3.872,1.5,4.708.438s.084-2.982-1.681-4.286-3.872-1.5-4.708-.438-.084,2.982,1.68,4.286" transform="translate(-939.1 -605.522)" fill="#fff"/>
      <path id="Trazado_705171" data-name="Trazado 705171" d="M1275.806,809.637c-.293-.9.79-2.091,2.418-2.661s3.186-.3,3.479.6-.79,2.091-2.418,2.661-3.186.3-3.479-.6" transform="translate(-975.948 -617.102)" fill="#fff"/>
      <path id="Trazado_705172" data-name="Trazado 705172" d="M1272.722,670.077c1.079-.242,2.035-.014,2.136.51s-.692,1.146-1.771,1.389-2.035.014-2.136-.51.691-1.146,1.77-1.389" transform="translate(-972.265 -512.53)" fill="#fff"/>
      <path id="Trazado_705173" data-name="Trazado 705173" d="M1367.554,718.361c.4.985.419,1.914.039,2.076s-1.013-.5-1.414-1.489-.418-1.914-.039-2.076,1.013.5,1.414,1.489" transform="translate(-1044.88 -548.384)" fill="#fff"/>
      <path id="Trazado_705174" data-name="Trazado 705174" d="M1340.079,803.142c-.783.786-1.649,1.2-1.935.929s.117-1.133.9-1.919,1.649-1.2,1.936-.928-.117,1.132-.9,1.919" transform="translate(-1023.602 -612.866)" fill="#fff"/>
      <path id="Trazado_705175" data-name="Trazado 705175" d="M1219.021,697.674c.477.353,1.695-.419,2.721-1.723s1.471-2.647.994-3-1.7.419-2.721,1.723-1.471,2.647-.994,3" transform="translate(-932.398 -530.037)" fill="#fff"/>
      <path id="Trazado_705176" data-name="Trazado 705176" d="M1299.613,723.032c1.288.952,2.824,1.1,3.432.324s.057-2.171-1.23-3.123-2.823-1.1-3.432-.324-.057,2.171,1.23,3.123" transform="translate(-993.067 -550.346)" fill="#fff"/>
      <path id="Trazado_705177" data-name="Trazado 705177" d="M1207.518,764.15c.68,1.441,1.951,2.26,2.839,1.829s1.058-1.95.379-3.391-1.95-2.26-2.839-1.829-1.058,1.95-.379,3.391" transform="translate(-923.426 -581.888)" fill="#fff"/>
      <path id="Trazado_705178" data-name="Trazado 705178" d="M1272.046,762.753a3.487,3.487,0,0,0,4.81,1.132,3.544,3.544,0,0,0,1.657-4.69,3.487,3.487,0,0,0-4.809-1.131,3.544,3.544,0,0,0-1.657,4.69" transform="translate(-972.83 -579.53)" fill="#fff"/>
      <path id="Trazado_705179" data-name="Trazado 705179" d="M792.442,355.681a3.334,3.334,0,1,0-4.1-2.33,3.334,3.334,0,0,0,4.1,2.33" transform="translate(-602.986 -267.083)" fill="#064c91"/>
      <path id="Trazado_705180" data-name="Trazado 705180" d="M977.619,314.369a3.334,3.334,0,1,0-4.1-2.329,3.334,3.334,0,0,0,4.1,2.329" transform="translate(-744.646 -235.48)" fill="#064c91"/>
      <path id="Trazado_705181" data-name="Trazado 705181" d="M975.7,449.29a3.334,3.334,0,1,0-4.1-2.329,3.334,3.334,0,0,0,4.1,2.329" transform="translate(-743.177 -338.694)" fill="#064c91"/>
      <path id="Trazado_705182" data-name="Trazado 705182" d="M817.176,440.492a4,4,0,1,0-4.914-2.793,4,4,0,0,0,4.914,2.793" transform="translate(-621.266 -330.967)" fill="#064c91"/>
      <path id="Trazado_705183" data-name="Trazado 705183" d="M814.884,399.15a2.284,2.284,0,1,0-3-1.205,2.284,2.284,0,0,0,3,1.205" transform="translate(-620.949 -301.992)" fill="#064c91"/>
      <path id="Trazado_705184" data-name="Trazado 705184" d="M928.889,465.475a2.284,2.284,0,1,0-2.808-1.6,2.284,2.284,0,0,0,2.808,1.6" transform="translate(-708.384 -352.653)" fill="#064c91"/>
      <path id="Trazado_705185" data-name="Trazado 705185" d="M923.555,281.314a2.284,2.284,0,1,0-2.808-1.6,2.284,2.284,0,0,0,2.808,1.6" transform="translate(-704.303 -211.771)" fill="#064c91"/>
      <path id="Trazado_705186" data-name="Trazado 705186" d="M834.846,282.56a5.138,5.138,0,1,0-6.318-3.59,5.138,5.138,0,0,0,6.318,3.59" transform="translate(-633.678 -208.434)" fill="#064c91"/>
      <path id="Trazado_705187" data-name="Trazado 705187" d="M999.382,373.762a5.138,5.138,0,1,0-6.318-3.59,5.138,5.138,0,0,0,6.318,3.59" transform="translate(-759.547 -278.203)" fill="#064c91"/>
      <path id="Trazado_705188" data-name="Trazado 705188" d="M877.3,487.161a5.139,5.139,0,1,0-6.318-3.59,5.138,5.138,0,0,0,6.318,3.59" transform="translate(-666.158 -364.952)" fill="#064c91"/>
      <path id="Trazado_705189" data-name="Trazado 705189" d="M823.469,335.749a10.745,10.745,0,0,0,1.21-2.864,18.315,18.315,0,0,0,.621-4.457c0-.325.026-1.281.009-2.822a16.182,16.182,0,0,1-8.7-5.292q-.379.148-.753.3-.877.366-1.724.774a9.647,9.647,0,0,0-4.189,3.623l-1.336-1.774a4.831,4.831,0,0,0,.936-.288,8.029,8.029,0,0,0,.846-.408,10.187,10.187,0,0,0,1.519-1.045,12.815,12.815,0,0,0,1.338-1.285q.624-.7,1.219-1.443.278-.347.549-.7a16.2,16.2,0,0,1-1.91-5.02,16.857,16.857,0,0,0-5.32,1.627l-.438-1.59a17.224,17.224,0,0,0,5.547-1.38,15.988,15.988,0,0,1,.144-4.62c-2.772-.852-6.777-2.135-9.728-1.787l.37-2.19c2.689,1.306,6.935,1.411,10,1.518a16.171,16.171,0,0,1,5.379-7.488c-1.326-2.674-2.72-5.388-4.982-7.389a7.869,7.869,0,0,0-1.054-.805l2.619-1.9a7.887,7.887,0,0,0,.438,1.252c1.222,2.824,3.45,5.057,5.627,7.182a16.183,16.183,0,0,1,9.182-1.578,20.306,20.306,0,0,0,1.549-5.744,8.051,8.051,0,0,0-.081-2.111l1.633.236a6.056,6.056,0,0,0-.408.99,18.182,18.182,0,0,0-.4,7.083,16.2,16.2,0,0,1,6.68,3.715c1.465-.7,4.464-2.064,5.587-4.114l1.351,1.762a8.158,8.158,0,0,0-3.172,1.9c-.588.528-1.633,1.713-2.1,2.251a16.168,16.168,0,0,1,3.433,8.563,17.487,17.487,0,0,0,4.552.159,10.524,10.524,0,0,0,4.3-1.326l.251,3.226a10.518,10.518,0,0,0-4.449-.646,17.607,17.607,0,0,0-4.6.9,16.146,16.146,0,0,1-3.275,8.915,31.743,31.743,0,0,0,4.628,5.673l-1.629,1.508a31.046,31.046,0,0,0-5.11-4.9,16.039,16.039,0,0,1-6.248,3.439,12.17,12.17,0,0,0,1.831,3.78l-1.55.564a12.319,12.319,0,0,0-1.055-4.141,16.056,16.056,0,0,1-5.01.378c-.41,1.427-.633,2.314-.73,2.678a15.119,15.119,0,0,0-.184,7.544Z" transform="translate(-614.53 -218.823)" fill="#064c91"/>
      <path id="Trazado_705190" data-name="Trazado 705190" d="M878.3,343.284c.325.9,1.947,1.137,3.622.532s2.77-1.825,2.445-2.724-1.947-1.137-3.622-.532-2.77,1.825-2.446,2.724" transform="translate(-671.848 -260.269)" fill="#fff"/>
      <path id="Trazado_705191" data-name="Trazado 705191" d="M948.287,355.73c.458,1.267,1.491,2.054,2.308,1.759s1.109-1.562.651-2.829-1.492-2.054-2.309-1.759-1.109,1.562-.651,2.829" transform="translate(-725.269 -269.92)" fill="#fff"/>
      <path id="Trazado_705192" data-name="Trazado 705192" d="M916.7,407.754c.619.921,2.226.924,3.59.007s1.969-2.406,1.35-3.327-2.226-.924-3.59-.007-1.968,2.406-1.35,3.327" transform="translate(-701.089 -308.859)" fill="#fff"/>
      <path id="Trazado_705193" data-name="Trazado 705193" d="M855.121,388.414c.547,1.512,1.718,2.474,2.617,2.15s1.185-1.814.639-3.326-1.718-2.474-2.617-2.149-1.185,1.814-.639,3.326" transform="translate(-653.951 -294.541)" fill="#fff"/>
      <path id="Trazado_705194" data-name="Trazado 705194" d="M876.962,416.793c.17-.674,1.263-.98,2.443-.684s2,1.084,1.83,1.758-1.263.98-2.444.684-2-1.084-1.829-1.758" transform="translate(-670.854 -318.234)" fill="#fff"/>
      <path id="Trazado_705195" data-name="Trazado 705195" d="M930.029,327.614c.73.28,1.209.8,1.069,1.168s-.846.434-1.576.154-1.209-.8-1.069-1.168.845-.434,1.576-.154" transform="translate(-710.244 -250.49)" fill="#fff"/>
      <path id="Trazado_705196" data-name="Trazado 705196" d="M967.437,393.807c-.138.77-.481,1.352-.768,1.3s-.406-.717-.269-1.487.482-1.352.768-1.3.407.717.27,1.487" transform="translate(-739.247 -300.12)" fill="#fff"/>
      <path id="Trazado_705197" data-name="Trazado 705197" d="M917.618,438.012c-.763.175-1.433.087-1.5-.2s.5-.655,1.263-.83,1.433-.086,1.5.2-.5.655-1.263.83" transform="translate(-700.823 -334.221)" fill="#fff"/>
      <path id="Trazado_705198" data-name="Trazado 705198" d="M884.017,325.571c.148.409,1.162.417,2.265.018s1.878-1.053,1.73-1.462-1.162-.416-2.265-.018-1.878,1.053-1.73,1.462" transform="translate(-676.255 -247.716)" fill="#fff"/>
      <path id="Trazado_705199" data-name="Trazado 705199" d="M925.365,370.377c.4,1.1,1.252,1.807,1.906,1.57s.861-1.322.462-2.426-1.252-1.806-1.906-1.57-.861,1.322-.462,2.425" transform="translate(-707.744 -281.445)" fill="#fff"/>
      <path id="Trazado_705200" data-name="Trazado 705200" d="M853.915,359.179c-.147,1.164.293,2.178.983,2.265s1.368-.786,1.515-1.949-.293-2.178-.983-2.266-1.368.786-1.515,1.95" transform="translate(-653.219 -273.273)" fill="#fff"/>
      <path id="Trazado_705201" data-name="Trazado 705201" d="M890.488,386.423a2.6,2.6,0,1,0,2.766-2.244,2.521,2.521,0,0,0-2.766,2.244" transform="translate(-681.214 -293.888)" fill="#fff"/>
      <path id="Trazado_705202" data-name="Trazado 705202" d="M1020.828,1147.482a2.087,2.087,0,1,1-2.088-2.088,2.088,2.088,0,0,1,2.088,2.088" transform="translate(-777.734 -876.219)" fill="#6577ff"/>
      <path id="Trazado_705203" data-name="Trazado 705203" d="M1026.658,1266.14a2.088,2.088,0,1,1-2.088-2.087,2.088,2.088,0,0,1,2.088,2.087" transform="translate(-782.194 -966.993)" fill="#6577ff"/>
      <path id="Trazado_705204" data-name="Trazado 705204" d="M1107.792,1242.561a2.088,2.088,0,1,1-2.088-2.088,2.088,2.088,0,0,1,2.088,2.088" transform="translate(-844.261 -948.954)" fill="#6577ff"/>
      <path id="Trazado_705205" data-name="Trazado 705205" d="M1076.449,1147.915a2.5,2.5,0,1,1-2.5-2.5,2.5,2.5,0,0,1,2.5,2.5" transform="translate(-819.649 -876.234)" fill="#6577ff"/>
      <path id="Trazado_705206" data-name="Trazado 705206" d="M1050.307,1154.452a1.43,1.43,0,1,1-1.226-1.609,1.431,1.431,0,0,1,1.226,1.609" transform="translate(-801.301 -881.908)" fill="#6577ff"/>
      <path id="Trazado_705207" data-name="Trazado 705207" d="M1109.293,1212.256a1.43,1.43,0,1,1-1.43-1.43,1.43,1.43,0,0,1,1.43,1.43" transform="translate(-846.415 -926.274)" fill="#6577ff"/>
      <path id="Trazado_705208" data-name="Trazado 705208" d="M997.227,1239.638a1.43,1.43,0,1,1-1.43-1.43,1.43,1.43,0,0,1,1.43,1.43" transform="translate(-760.685 -947.221)" fill="#6577ff"/>
      <path id="Trazado_705209" data-name="Trazado 705209" d="M984.575,1184.126a3.218,3.218,0,1,1-3.217-3.218,3.217,3.217,0,0,1,3.217,3.218" transform="translate(-748.272 -903.387)" fill="#6577ff"/>
      <path id="Trazado_705210" data-name="Trazado 705210" d="M1066.977,1268.3a3.218,3.218,0,1,1-3.217-3.218,3.218,3.218,0,0,1,3.217,3.218" transform="translate(-811.309 -967.781)" fill="#6577ff"/>
      <path id="Trazado_705211" data-name="Trazado 705211" d="M1115.149,1175.76a3.218,3.218,0,1,1-3.218-3.218,3.218,3.218,0,0,1,3.218,3.218" transform="translate(-848.16 -896.987)" fill="#6577ff"/>
      <path id="Trazado_705212" data-name="Trazado 705212" d="M1021.022,1161.159a6.734,6.734,0,0,1-1.528,1.206,11.464,11.464,0,0,1-2.588,1.116c-.2.055-.769.229-1.7.474a10.133,10.133,0,0,0-4.64-4.37q.026-.253.058-.5c.05-.394.111-.783.181-1.169a6.043,6.043,0,0,1,1.491-3.131l-1.293-.512a3.021,3.021,0,0,1-.019.613,4.969,4.969,0,0,1-.106.579,6.334,6.334,0,0,1-.378,1.091,8.011,8.011,0,0,1-.554,1.021q-.32.494-.668.976-.163.225-.334.448a10.145,10.145,0,0,0-3.348-.319,10.567,10.567,0,0,1,.1-3.482h-1.033a10.779,10.779,0,0,1,.088,3.578,10.016,10.016,0,0,0-2.765.854c-.975-1.531-2.415-3.736-2.7-5.576l-1.261.587c1.236,1.406,2,3.953,2.578,5.784a10.129,10.129,0,0,0-3.627,4.492,14.525,14.525,0,0,1-5.289-1.78,4.945,4.945,0,0,1-.661-.5l-.711,1.9a4.91,4.91,0,0,1,.828.056,14.837,14.837,0,0,1,5.271,2.2,10.132,10.132,0,0,0,.573,5.805,12.735,12.735,0,0,1-3.21,1.89,5.059,5.059,0,0,1-1.288.3l.414.946a3.823,3.823,0,0,1,.53-.411,11.387,11.387,0,0,1,4.209-1.42,10.145,10.145,0,0,0,3.354,3.415c-.179,1-.5,3.038-1.556,4.057l1.289.522a5.11,5.11,0,0,1,.617-2.23c.222-.442.763-1.271,1.01-1.64a10.129,10.129,0,0,0,5.74.649,10.951,10.951,0,0,1,.852,2.722,6.592,6.592,0,0,1-.087,2.814l1.989-.385a6.586,6.586,0,0,1-1.129-2.578,11.045,11.045,0,0,1-.22-2.929,10.11,10.11,0,0,0,4.838-3.458,19.881,19.881,0,0,1,4.194,1.851l.64-1.234a19.46,19.46,0,0,1-3.807-2.271,10.04,10.04,0,0,0,1.038-4.344,7.622,7.622,0,0,1,2.586.478l.083-1.03a7.711,7.711,0,0,1-2.676.051,10.069,10.069,0,0,0-.6-3.087c.793-.485,1.292-.767,1.5-.886a9.473,9.473,0,0,1,4.524-1.365Z" transform="translate(-757.589 -882.842)" fill="#8a3d02"/>
      <path id="Trazado_705213" data-name="Trazado 705213" d="M591.874,107.236a2.087,2.087,0,1,1-2.088-2.088,2.088,2.088,0,0,1,2.088,2.088" transform="translate(-449.587 -80.437)" fill="#6577ff"/>
      <path id="Trazado_705214" data-name="Trazado 705214" d="M597.7,225.894a2.087,2.087,0,1,1-2.088-2.088,2.088,2.088,0,0,1,2.088,2.088" transform="translate(-454.047 -171.209)" fill="#6577ff"/>
      <path id="Trazado_705215" data-name="Trazado 705215" d="M678.839,202.314a2.088,2.088,0,1,1-2.088-2.087,2.088,2.088,0,0,1,2.088,2.087" transform="translate(-516.114 -153.171)" fill="#6577ff"/>
      <path id="Trazado_705216" data-name="Trazado 705216" d="M647.5,107.669a2.5,2.5,0,1,1-2.5-2.5,2.5,2.5,0,0,1,2.5,2.5" transform="translate(-491.501 -80.45)" fill="#6577ff"/>
      <path id="Trazado_705217" data-name="Trazado 705217" d="M621.353,114.205a1.43,1.43,0,1,1-1.226-1.609,1.43,1.43,0,0,1,1.226,1.609" transform="translate(-473.153 -86.125)" fill="#6577ff"/>
      <path id="Trazado_705218" data-name="Trazado 705218" d="M680.34,172.009a1.43,1.43,0,1,1-1.43-1.43,1.43,1.43,0,0,1,1.43,1.43" transform="translate(-518.269 -130.491)" fill="#6577ff"/>
      <path id="Trazado_705219" data-name="Trazado 705219" d="M568.273,199.392a1.43,1.43,0,1,1-1.43-1.43,1.43,1.43,0,0,1,1.43,1.43" transform="translate(-432.538 -151.439)" fill="#6577ff"/>
      <path id="Trazado_705220" data-name="Trazado 705220" d="M555.622,143.879a3.218,3.218,0,1,1-3.218-3.217,3.217,3.217,0,0,1,3.218,3.217" transform="translate(-420.125 -107.605)" fill="#6577ff"/>
      <path id="Trazado_705221" data-name="Trazado 705221" d="M638.022,228.055a3.218,3.218,0,1,1-3.218-3.217,3.218,3.218,0,0,1,3.218,3.217" transform="translate(-483.161 -171.999)" fill="#6577ff"/>
      <path id="Trazado_705222" data-name="Trazado 705222" d="M686.2,135.513a3.218,3.218,0,1,1-3.217-3.217,3.218,3.218,0,0,1,3.217,3.217" transform="translate(-520.014 -101.205)" fill="#6577ff"/>
      <path id="Trazado_705223" data-name="Trazado 705223" d="M592.068,120.912a6.735,6.735,0,0,1-1.528,1.206,11.469,11.469,0,0,1-2.588,1.116c-.2.055-.769.229-1.7.474a10.132,10.132,0,0,0-4.64-4.37q.026-.253.058-.5.075-.59.181-1.169a6.043,6.043,0,0,1,1.491-3.131l-1.293-.512a3.023,3.023,0,0,1-.019.613,4.953,4.953,0,0,1-.106.579,6.345,6.345,0,0,1-.378,1.091,8.072,8.072,0,0,1-.553,1.021q-.32.494-.668.976-.164.225-.334.448a10.14,10.14,0,0,0-3.348-.319,10.567,10.567,0,0,1,.1-3.482h-1.033a10.771,10.771,0,0,1,.089,3.578,10.013,10.013,0,0,0-2.765.855c-.975-1.532-2.415-3.737-2.7-5.576l-1.26.588c1.236,1.406,2,3.952,2.578,5.784a10.127,10.127,0,0,0-3.627,4.491,14.522,14.522,0,0,1-5.289-1.78,4.941,4.941,0,0,1-.661-.5l-.711,1.9a4.936,4.936,0,0,1,.828.056,14.835,14.835,0,0,1,5.271,2.2,10.132,10.132,0,0,0,.573,5.805,12.738,12.738,0,0,1-3.21,1.89,5.052,5.052,0,0,1-1.288.3l.414.946a3.837,3.837,0,0,1,.53-.411,11.388,11.388,0,0,1,4.209-1.42,10.142,10.142,0,0,0,3.353,3.415c-.179,1-.5,3.038-1.555,4.057l1.289.522a5.111,5.111,0,0,1,.617-2.23c.222-.443.763-1.271,1.01-1.64a10.131,10.131,0,0,0,5.74.649,10.952,10.952,0,0,1,.852,2.722,6.592,6.592,0,0,1-.087,2.814l1.989-.385A6.586,6.586,0,0,1,580.771,141a11.036,11.036,0,0,1-.22-2.929,10.108,10.108,0,0,0,4.838-3.459,19.876,19.876,0,0,1,4.194,1.851l.64-1.234a19.445,19.445,0,0,1-3.807-2.271,10.04,10.04,0,0,0,1.038-4.344,7.625,7.625,0,0,1,2.586.478l.083-1.03a7.712,7.712,0,0,1-2.676.051,10.06,10.06,0,0,0-.6-3.087c.793-.485,1.292-.767,1.5-.886a9.469,9.469,0,0,1,4.524-1.365Z" transform="translate(-429.441 -87.058)" fill="#8a3d02"/>
      <path id="Trazado_705224" data-name="Trazado 705224" d="M1201.713,1275.558a1.353,1.353,0,1,1-1.332-1.114,1.238,1.238,0,0,1,1.332,1.114" transform="translate(-917.266 -974.942)" fill="#6577ff"/>
      <path id="Trazado_705225" data-name="Trazado 705225" d="M1205.435,1338.882a1.353,1.353,0,1,1-1.332-1.114,1.238,1.238,0,0,1,1.332,1.114" transform="translate(-920.114 -1023.384)" fill="#6577ff"/>
      <path id="Trazado_705226" data-name="Trazado 705226" d="M1257.2,1326.3a1.353,1.353,0,1,1-1.332-1.114,1.238,1.238,0,0,1,1.332,1.114" transform="translate(-959.716 -1013.758)" fill="#6577ff"/>
      <path id="Trazado_705227" data-name="Trazado 705227" d="M1237.2,1275.788a1.622,1.622,0,1,1-1.6-1.336,1.483,1.483,0,0,1,1.6,1.336" transform="translate(-944.012 -974.948)" fill="#6577ff"/>
      <path id="Trazado_705228" data-name="Trazado 705228" d="M1220.524,1279.276a.9.9,0,0,1-1.026.654.8.8,0,0,1-.782-.858.9.9,0,0,1,1.026-.654.8.8,0,0,1,.782.859" transform="translate(-932.305 -977.976)" fill="#6577ff"/>
      <path id="Trazado_705229" data-name="Trazado 705229" d="M1258.16,1310.125a.927.927,0,1,1-.912-.763.848.848,0,0,1,.912.763" transform="translate(-961.09 -1001.654)" fill="#6577ff"/>
      <path id="Trazado_705230" data-name="Trazado 705230" d="M1186.655,1324.739a.927.927,0,1,1-.912-.763.847.847,0,0,1,.912.763" transform="translate(-906.389 -1012.834)" fill="#6577ff"/>
      <path id="Trazado_705231" data-name="Trazado 705231" d="M1178.583,1295.112a2.086,2.086,0,1,1-2.053-1.717,1.908,1.908,0,0,1,2.053,1.717" transform="translate(-898.469 -989.439)" fill="#6577ff"/>
      <path id="Trazado_705232" data-name="Trazado 705232" d="M1231.16,1340.035a2.086,2.086,0,1,1-2.053-1.717,1.908,1.908,0,0,1,2.053,1.717" transform="translate(-938.69 -1023.805)" fill="#6577ff"/>
      <path id="Trazado_705233" data-name="Trazado 705233" d="M1261.9,1290.647a2.086,2.086,0,1,1-2.053-1.717,1.908,1.908,0,0,1,2.053,1.717" transform="translate(-962.204 -986.024)" fill="#6577ff"/>
      <path id="Trazado_705234" data-name="Trazado 705234" d="M1201.839,1282.855a4.249,4.249,0,0,1-.975.644,8.147,8.147,0,0,1-1.651.6c-.125.029-.491.122-1.086.253a6.139,6.139,0,0,0-2.96-2.332c.011-.09.023-.18.037-.27q.048-.315.115-.624a3.041,3.041,0,0,1,.952-1.671l-.825-.273a1.357,1.357,0,0,1-.012.327,2.343,2.343,0,0,1-.067.309,3.069,3.069,0,0,1-.242.582,4.134,4.134,0,0,1-.353.546q-.2.263-.427.521-.1.12-.213.24a7.692,7.692,0,0,0-2.136-.17,4.724,4.724,0,0,1,.063-1.858h-.659a4.825,4.825,0,0,1,.056,1.909,7.345,7.345,0,0,0-1.764.456,8.533,8.533,0,0,1-1.72-2.976l-.8.313a8.6,8.6,0,0,1,1.645,3.087,5.719,5.719,0,0,0-2.314,2.4,10.548,10.548,0,0,1-3.375-.95,3.186,3.186,0,0,1-.422-.268l-.454,1.012a3.78,3.78,0,0,1,.529.03,10.537,10.537,0,0,1,3.363,1.176,4.592,4.592,0,0,0,.366,3.1,8.588,8.588,0,0,1-2.048,1.009,3.74,3.74,0,0,1-.821.161l.264.505a2.444,2.444,0,0,1,.338-.219,8.267,8.267,0,0,1,2.686-.758,6.018,6.018,0,0,0,2.14,1.823,3.843,3.843,0,0,1-.992,2.165l.822.279a2.39,2.39,0,0,1,.394-1.19,10.811,10.811,0,0,1,.645-.875,7.638,7.638,0,0,0,3.662.347,5.178,5.178,0,0,1,.544,1.453,2.958,2.958,0,0,1-.055,1.5l1.269-.2a3.264,3.264,0,0,1-.721-1.376,4.944,4.944,0,0,1-.14-1.563,6.543,6.543,0,0,0,3.087-1.846,14.066,14.066,0,0,1,2.676.988l.408-.659a13.062,13.062,0,0,1-2.429-1.212,4.656,4.656,0,0,0,.662-2.318,5.728,5.728,0,0,1,1.65.255l.053-.549a5.875,5.875,0,0,1-1.707.027,4.612,4.612,0,0,0-.386-1.647c.506-.259.824-.409.954-.473a6.928,6.928,0,0,1,2.887-.729Z" transform="translate(-904.414 -978.475)" fill="#8a3d02"/>
      <path id="Trazado_705235" data-name="Trazado 705235" d="M907.886,1377.472a1.178,1.178,0,1,1-1.16-.97,1.078,1.078,0,0,1,1.16.97" transform="translate(-692.753 -1053.016)" fill="#6577ff"/>
      <path id="Trazado_705236" data-name="Trazado 705236" d="M911.126,1432.616a1.178,1.178,0,1,1-1.16-.97,1.078,1.078,0,0,1,1.16.97" transform="translate(-695.232 -1095.201)" fill="#6577ff"/>
      <path id="Trazado_705237" data-name="Trazado 705237" d="M956.206,1421.658a1.178,1.178,0,1,1-1.16-.97,1.078,1.078,0,0,1,1.16.97" transform="translate(-729.718 -1086.818)" fill="#6577ff"/>
      <path id="Trazado_705238" data-name="Trazado 705238" d="M938.791,1377.673a1.413,1.413,0,1,1-1.391-1.163,1.292,1.292,0,0,1,1.391,1.163" transform="translate(-716.043 -1053.022)" fill="#6577ff"/>
      <path id="Trazado_705239" data-name="Trazado 705239" d="M924.265,1380.71a.781.781,0,0,1-.894.569.7.7,0,0,1-.681-.748.781.781,0,0,1,.894-.569.7.7,0,0,1,.681.748" transform="translate(-705.848 -1055.658)" fill="#6577ff"/>
      <path id="Trazado_705240" data-name="Trazado 705240" d="M957.039,1407.574a.807.807,0,1,1-.795-.665.738.738,0,0,1,.795.665" transform="translate(-730.914 -1076.277)" fill="#6577ff"/>
      <path id="Trazado_705241" data-name="Trazado 705241" d="M894.773,1420.3a.807.807,0,1,1-.795-.664.739.739,0,0,1,.795.664" transform="translate(-683.281 -1086.013)" fill="#6577ff"/>
      <path id="Trazado_705242" data-name="Trazado 705242" d="M887.743,1394.5a1.816,1.816,0,1,1-1.788-1.5,1.661,1.661,0,0,1,1.788,1.5" transform="translate(-676.384 -1065.641)" fill="#6577ff"/>
      <path id="Trazado_705243" data-name="Trazado 705243" d="M933.527,1433.619a1.816,1.816,0,1,1-1.787-1.5,1.661,1.661,0,0,1,1.787,1.5" transform="translate(-711.408 -1095.566)" fill="#6577ff"/>
      <path id="Trazado_705244" data-name="Trazado 705244" d="M960.294,1390.613a1.816,1.816,0,1,1-1.788-1.5,1.661,1.661,0,0,1,1.788,1.5" transform="translate(-731.884 -1062.667)" fill="#6577ff"/>
      <path id="Trazado_705245" data-name="Trazado 705245" d="M907.994,1383.827a3.727,3.727,0,0,1-.849.56,7.094,7.094,0,0,1-1.438.519c-.109.026-.428.106-.946.22a5.344,5.344,0,0,0-2.578-2.031q.014-.118.032-.234c.028-.183.062-.364.1-.543a2.647,2.647,0,0,1,.828-1.455l-.718-.238a1.178,1.178,0,0,1-.01.285,2.036,2.036,0,0,1-.059.269,2.65,2.65,0,0,1-.21.507,3.591,3.591,0,0,1-.308.474q-.178.229-.371.454-.091.1-.186.208a6.692,6.692,0,0,0-1.86-.148,4.119,4.119,0,0,1,.055-1.618H898.9a4.189,4.189,0,0,1,.049,1.663,6.392,6.392,0,0,0-1.536.4,7.429,7.429,0,0,1-1.5-2.592l-.7.273a7.485,7.485,0,0,1,1.432,2.688,4.984,4.984,0,0,0-2.015,2.087,9.193,9.193,0,0,1-2.939-.827,2.77,2.77,0,0,1-.367-.234l-.4.882a3.276,3.276,0,0,1,.46.026,9.176,9.176,0,0,1,2.929,1.024,4,4,0,0,0,.319,2.7,7.5,7.5,0,0,1-1.784.878,3.292,3.292,0,0,1-.716.14l.23.44a2.083,2.083,0,0,1,.295-.191,7.206,7.206,0,0,1,2.339-.66,5.245,5.245,0,0,0,1.863,1.587,3.341,3.341,0,0,1-.864,1.885l.716.243a2.089,2.089,0,0,1,.343-1.036c.123-.205.424-.59.562-.762a6.648,6.648,0,0,0,3.189.3,4.517,4.517,0,0,1,.474,1.265,2.573,2.573,0,0,1-.048,1.307l1.1-.179a2.839,2.839,0,0,1-.627-1.2,4.3,4.3,0,0,1-.122-1.361,5.7,5.7,0,0,0,2.688-1.607,12.247,12.247,0,0,1,2.331.86l.356-.574a11.42,11.42,0,0,1-2.115-1.055,4.06,4.06,0,0,0,.577-2.019,4.983,4.983,0,0,1,1.437.222l.046-.479a5.1,5.1,0,0,1-1.486.024,4.015,4.015,0,0,0-.336-1.435c.441-.225.718-.356.831-.412a6.022,6.022,0,0,1,2.514-.634Z" transform="translate(-681.56 -1056.092)" fill="#8a3d02"/>
      <path id="Trazado_705246" data-name="Trazado 705246" d="M804.478,1388.961a1.178,1.178,0,1,1-1.16-.97,1.078,1.078,0,0,1,1.16.97" transform="translate(-613.647 -1061.805)" fill="#6577ff"/>
      <path id="Trazado_705247" data-name="Trazado 705247" d="M807.718,1444.105a1.178,1.178,0,1,1-1.16-.97,1.078,1.078,0,0,1,1.16.97" transform="translate(-616.125 -1103.99)" fill="#6577ff"/>
      <path id="Trazado_705248" data-name="Trazado 705248" d="M852.8,1433.148a1.178,1.178,0,1,1-1.16-.97,1.078,1.078,0,0,1,1.16.97" transform="translate(-650.611 -1095.608)" fill="#6577ff"/>
      <path id="Trazado_705249" data-name="Trazado 705249" d="M835.383,1389.163a1.413,1.413,0,1,1-1.391-1.163,1.292,1.292,0,0,1,1.391,1.163" transform="translate(-636.936 -1061.812)" fill="#6577ff"/>
      <path id="Trazado_705250" data-name="Trazado 705250" d="M820.857,1392.2a.781.781,0,0,1-.894.569.7.7,0,0,1-.681-.747.781.781,0,0,1,.894-.57.7.7,0,0,1,.681.748" transform="translate(-626.741 -1064.448)" fill="#6577ff"/>
      <path id="Trazado_705251" data-name="Trazado 705251" d="M853.631,1419.064a.807.807,0,1,1-.795-.664.739.739,0,0,1,.795.664" transform="translate(-651.808 -1085.068)" fill="#6577ff"/>
      <path id="Trazado_705252" data-name="Trazado 705252" d="M791.364,1431.79a.807.807,0,1,1-.795-.665.738.738,0,0,1,.795.665" transform="translate(-604.174 -1094.802)" fill="#6577ff"/>
      <path id="Trazado_705253" data-name="Trazado 705253" d="M784.335,1405.991a1.816,1.816,0,1,1-1.788-1.5,1.661,1.661,0,0,1,1.788,1.5" transform="translate(-597.277 -1074.431)" fill="#6577ff"/>
      <path id="Trazado_705254" data-name="Trazado 705254" d="M830.12,1445.111a1.817,1.817,0,1,1-1.788-1.495,1.661,1.661,0,0,1,1.788,1.495" transform="translate(-632.302 -1104.358)" fill="#6577ff"/>
      <path id="Trazado_705255" data-name="Trazado 705255" d="M856.886,1402.1a1.816,1.816,0,1,1-1.787-1.5,1.661,1.661,0,0,1,1.787,1.5" transform="translate(-652.778 -1071.457)" fill="#6577ff"/>
      <path id="Trazado_705256" data-name="Trazado 705256" d="M804.586,1395.316a3.715,3.715,0,0,1-.849.561,7.086,7.086,0,0,1-1.438.518c-.109.026-.428.106-.946.22a5.341,5.341,0,0,0-2.578-2.031q.014-.118.032-.235c.028-.183.062-.364.1-.543a2.648,2.648,0,0,1,.828-1.455l-.718-.238a1.184,1.184,0,0,1-.01.285,1.954,1.954,0,0,1-.059.269,2.629,2.629,0,0,1-.21.507,3.593,3.593,0,0,1-.308.475q-.178.229-.371.453-.09.1-.185.208a6.7,6.7,0,0,0-1.86-.148,4.12,4.12,0,0,1,.055-1.618h-.574a4.191,4.191,0,0,1,.049,1.663,6.389,6.389,0,0,0-1.536.4,7.433,7.433,0,0,1-1.5-2.592l-.7.273a7.486,7.486,0,0,1,1.432,2.688,4.982,4.982,0,0,0-2.015,2.087,9.187,9.187,0,0,1-2.939-.827,2.755,2.755,0,0,1-.367-.233l-.4.881a3.3,3.3,0,0,1,.46.026,9.177,9.177,0,0,1,2.928,1.025,4,4,0,0,0,.319,2.7,7.488,7.488,0,0,1-1.784.878,3.259,3.259,0,0,1-.715.14l.23.44a2.137,2.137,0,0,1,.294-.191,7.208,7.208,0,0,1,2.339-.66,5.252,5.252,0,0,0,1.863,1.587,3.343,3.343,0,0,1-.864,1.885l.716.243a2.088,2.088,0,0,1,.343-1.036,9.452,9.452,0,0,1,.561-.762,6.651,6.651,0,0,0,3.189.3,4.509,4.509,0,0,1,.474,1.265,2.576,2.576,0,0,1-.048,1.307l1.1-.179a2.841,2.841,0,0,1-.627-1.2,4.321,4.321,0,0,1-.122-1.362,5.7,5.7,0,0,0,2.688-1.607,12.251,12.251,0,0,1,2.331.86l.356-.574a11.421,11.421,0,0,1-2.116-1.055,4.057,4.057,0,0,0,.577-2.019,4.98,4.98,0,0,1,1.437.222l.046-.479a5.11,5.11,0,0,1-1.486.024,4.014,4.014,0,0,0-.336-1.435c.441-.225.718-.356.831-.411a6.035,6.035,0,0,1,2.514-.635Z" transform="translate(-602.453 -1064.881)" fill="#8a3d02"/>
      <path id="Trazado_705257" data-name="Trazado 705257" d="M1087.126,1384.366a1.178,1.178,0,1,1-1.16-.97,1.078,1.078,0,0,1,1.16.97" transform="translate(-829.871 -1058.29)" fill="#6577ff"/>
      <path id="Trazado_705258" data-name="Trazado 705258" d="M1090.366,1439.509a1.178,1.178,0,1,1-1.16-.97,1.078,1.078,0,0,1,1.16.97" transform="translate(-832.35 -1100.474)" fill="#6577ff"/>
      <path id="Trazado_705259" data-name="Trazado 705259" d="M1135.447,1428.551a1.178,1.178,0,1,1-1.16-.97,1.078,1.078,0,0,1,1.16.97" transform="translate(-866.836 -1092.091)" fill="#6577ff"/>
      <path id="Trazado_705260" data-name="Trazado 705260" d="M1118.032,1384.568a1.413,1.413,0,1,1-1.39-1.163,1.292,1.292,0,0,1,1.39,1.163" transform="translate(-853.161 -1058.296)" fill="#6577ff"/>
      <path id="Trazado_705261" data-name="Trazado 705261" d="M1103.506,1387.6a.781.781,0,0,1-.894.569.7.7,0,0,1-.681-.747.782.782,0,0,1,.894-.57.7.7,0,0,1,.681.748" transform="translate(-842.966 -1060.932)" fill="#6577ff"/>
      <path id="Trazado_705262" data-name="Trazado 705262" d="M1136.28,1414.468a.807.807,0,1,1-.795-.664.739.739,0,0,1,.795.664" transform="translate(-868.033 -1081.552)" fill="#6577ff"/>
      <path id="Trazado_705263" data-name="Trazado 705263" d="M1074.013,1427.194a.807.807,0,1,1-.795-.665.738.738,0,0,1,.795.665" transform="translate(-820.399 -1091.286)" fill="#6577ff"/>
      <path id="Trazado_705264" data-name="Trazado 705264" d="M1066.983,1401.4a1.816,1.816,0,1,1-1.787-1.5,1.661,1.661,0,0,1,1.787,1.5" transform="translate(-813.502 -1070.915)" fill="#6577ff"/>
      <path id="Trazado_705265" data-name="Trazado 705265" d="M1112.769,1440.514a1.816,1.816,0,1,1-1.788-1.5,1.661,1.661,0,0,1,1.788,1.5" transform="translate(-848.527 -1100.841)" fill="#6577ff"/>
      <path id="Trazado_705266" data-name="Trazado 705266" d="M1139.534,1397.507a1.816,1.816,0,1,1-1.788-1.5,1.661,1.661,0,0,1,1.788,1.5" transform="translate(-869.002 -1067.941)" fill="#6577ff"/>
      <path id="Trazado_705267" data-name="Trazado 705267" d="M1087.234,1390.722a3.723,3.723,0,0,1-.849.56,7.089,7.089,0,0,1-1.438.518c-.109.026-.428.107-.946.221a5.341,5.341,0,0,0-2.578-2.031c.01-.079.02-.157.032-.235.028-.183.062-.364.1-.543a2.643,2.643,0,0,1,.828-1.455l-.718-.238a1.185,1.185,0,0,1-.01.285,2.024,2.024,0,0,1-.059.269,2.645,2.645,0,0,1-.211.507,3.6,3.6,0,0,1-.307.475q-.178.229-.372.453-.09.1-.186.208a6.7,6.7,0,0,0-1.86-.148,4.119,4.119,0,0,1,.055-1.618h-.574a4.192,4.192,0,0,1,.049,1.663,6.4,6.4,0,0,0-1.536.4,7.435,7.435,0,0,1-1.5-2.591l-.7.273a7.483,7.483,0,0,1,1.432,2.688,4.981,4.981,0,0,0-2.015,2.087,9.184,9.184,0,0,1-2.939-.827,2.734,2.734,0,0,1-.367-.233l-.4.882a3.228,3.228,0,0,1,.461.026,9.184,9.184,0,0,1,2.928,1.024,4,4,0,0,0,.319,2.7,7.493,7.493,0,0,1-1.784.878,3.276,3.276,0,0,1-.715.141l.23.44a2.121,2.121,0,0,1,.295-.191,7.2,7.2,0,0,1,2.339-.66,5.249,5.249,0,0,0,1.863,1.587,3.341,3.341,0,0,1-.864,1.885l.716.243a2.085,2.085,0,0,1,.343-1.036,9.442,9.442,0,0,1,.562-.762,6.652,6.652,0,0,0,3.189.3,4.522,4.522,0,0,1,.474,1.265,2.578,2.578,0,0,1-.048,1.307l1.1-.179a2.843,2.843,0,0,1-.628-1.2,4.323,4.323,0,0,1-.122-1.361,5.7,5.7,0,0,0,2.688-1.607,12.2,12.2,0,0,1,2.33.86l.355-.574a11.434,11.434,0,0,1-2.115-1.055,4.064,4.064,0,0,0,.577-2.019,4.976,4.976,0,0,1,1.437.222l.046-.479a5.113,5.113,0,0,1-1.486.024,4,4,0,0,0-.336-1.434c.441-.225.718-.356.832-.412a6.025,6.025,0,0,1,2.514-.634Z" transform="translate(-818.677 -1061.367)" fill="#8a3d02"/>
      <path id="Trazado_705268" data-name="Trazado 705268" d="M1046.668,1022.462l-1.139-3.873,3.259-2.669-3.745-3.139,3.471-2.807-3.757-3.076,3.1-3.141-3.007-3.311-.892.746,2.339,2.575-3.211,3.252,3.644,2.985-3.46,2.8,3.752,3.145-2.812,2.3,1.34,4.559Z" transform="translate(-797.957 -765.335)" fill="#ff6e53"/>
      <path id="Trazado_705269" data-name="Trazado 705269" d="M1092.928,930.185a.827.827,0,1,1-.827-.828.827.827,0,0,1,.827.828" transform="translate(-834.818 -710.953)" fill="#6577ff"/>
      <path id="Trazado_705270" data-name="Trazado 705270" d="M1095.24,977.216a.827.827,0,1,1-.827-.827.827.827,0,0,1,.827.827" transform="translate(-836.587 -746.931)" fill="#6577ff"/>
      <path id="Trazado_705271" data-name="Trazado 705271" d="M1127.4,967.871a.827.827,0,1,1-.828-.828.828.828,0,0,1,.828.828" transform="translate(-861.188 -739.782)" fill="#6577ff"/>
      <path id="Trazado_705272" data-name="Trazado 705272" d="M1114.975,930.357a.992.992,0,1,1-.992-.992.992.992,0,0,1,.992.992" transform="translate(-851.432 -710.958)" fill="#6577ff"/>
      <path id="Trazado_705273" data-name="Trazado 705273" d="M1104.614,932.948a.567.567,0,1,1-.486-.638.567.567,0,0,1,.486.638" transform="translate(-844.161 -713.207)" fill="#6577ff"/>
      <path id="Trazado_705274" data-name="Trazado 705274" d="M1127.993,955.86a.567.567,0,1,1-.567-.567.567.567,0,0,1,.567.567" transform="translate(-862.041 -730.793)" fill="#6577ff"/>
      <path id="Trazado_705275" data-name="Trazado 705275" d="M1083.575,966.714a.567.567,0,1,1-.567-.567.567.567,0,0,1,.567.567" transform="translate(-828.062 -739.096)" fill="#6577ff"/>
      <path id="Trazado_705276" data-name="Trazado 705276" d="M1078.56,944.71a1.275,1.275,0,1,1-1.275-1.275,1.275,1.275,0,0,1,1.275,1.275" transform="translate(-823.141 -721.722)" fill="#6577ff"/>
      <path id="Trazado_705277" data-name="Trazado 705277" d="M1111.22,978.074a1.275,1.275,0,1,1-1.275-1.275,1.275,1.275,0,0,1,1.275,1.275" transform="translate(-848.126 -747.245)" fill="#6577ff"/>
      <path id="Trazado_705278" data-name="Trazado 705278" d="M1130.315,941.393a1.275,1.275,0,1,1-1.275-1.276,1.276,1.276,0,0,1,1.275,1.276" transform="translate(-862.734 -719.183)" fill="#6577ff"/>
      <path id="Trazado_705279" data-name="Trazado 705279" d="M1093.006,935.606a2.685,2.685,0,0,1-.606.478,4.537,4.537,0,0,1-1.026.442c-.078.022-.3.091-.675.188a4.012,4.012,0,0,0-1.839-1.732c.007-.067.015-.134.023-.2q.03-.234.072-.463a2.4,2.4,0,0,1,.591-1.241l-.512-.2a1.253,1.253,0,0,1-.007.243,2.091,2.091,0,0,1-.042.229,2.566,2.566,0,0,1-.15.433,3.233,3.233,0,0,1-.219.4q-.127.2-.265.387c-.043.06-.087.119-.132.178a4.019,4.019,0,0,0-1.327-.127,4.185,4.185,0,0,1,.039-1.381h-.41a4.281,4.281,0,0,1,.035,1.419,3.976,3.976,0,0,0-1.1.338,6.723,6.723,0,0,1-1.068-2.21l-.5.233a6.86,6.86,0,0,1,1.021,2.292,4.015,4.015,0,0,0-1.437,1.78,5.765,5.765,0,0,1-2.1-.705,1.954,1.954,0,0,1-.262-.2l-.282.752a1.984,1.984,0,0,1,.328.022,5.887,5.887,0,0,1,2.089.874,4.015,4.015,0,0,0,.227,2.3,5.035,5.035,0,0,1-1.272.749,2,2,0,0,1-.51.12l.164.375a1.524,1.524,0,0,1,.21-.163,4.518,4.518,0,0,1,1.668-.563,4.022,4.022,0,0,0,1.329,1.354,3.133,3.133,0,0,1-.616,1.608l.511.207a2.024,2.024,0,0,1,.245-.884c.087-.175.3-.5.4-.65a4.012,4.012,0,0,0,2.275.257,4.33,4.33,0,0,1,.338,1.079,2.609,2.609,0,0,1-.034,1.115l.788-.153a2.605,2.605,0,0,1-.448-1.022,4.368,4.368,0,0,1-.087-1.161,4,4,0,0,0,1.917-1.371,7.881,7.881,0,0,1,1.663.734l.254-.489a7.717,7.717,0,0,1-1.509-.9,3.984,3.984,0,0,0,.412-1.722,3.017,3.017,0,0,1,1.025.189l.033-.408a3.073,3.073,0,0,1-1.061.02,3.969,3.969,0,0,0-.24-1.224c.315-.192.513-.3.593-.351a3.753,3.753,0,0,1,1.793-.541Z" transform="translate(-826.834 -713.577)" fill="#8a3d02"/>
      <path id="Trazado_705280" data-name="Trazado 705280" d="M802.215.822A.827.827,0,1,1,801.387,0a.827.827,0,0,1,.827.827" transform="translate(-612.424 0.005)" fill="#6577ff"/>
      <path id="Trazado_705281" data-name="Trazado 705281" d="M804.527,47.854a.827.827,0,1,1-.828-.827.828.828,0,0,1,.828.827" transform="translate(-614.193 -35.974)" fill="#6577ff"/>
      <path id="Trazado_705282" data-name="Trazado 705282" d="M836.686,38.508a.827.827,0,1,1-.827-.827.827.827,0,0,1,.827.827" transform="translate(-638.794 -28.825)" fill="#6577ff"/>
      <path id="Trazado_705283" data-name="Trazado 705283" d="M824.263.995A.992.992,0,1,1,823.271,0a.992.992,0,0,1,.992.992" transform="translate(-629.039 -0.001)" fill="#6577ff"/>
      <path id="Trazado_705284" data-name="Trazado 705284" d="M813.9,3.585a.567.567,0,1,1-.486-.638.567.567,0,0,1,.486.638" transform="translate(-621.766 -2.25)" fill="#6577ff"/>
      <path id="Trazado_705285" data-name="Trazado 705285" d="M837.28,26.5a.567.567,0,1,1-.567-.567.567.567,0,0,1,.567.567" transform="translate(-639.648 -19.835)" fill="#6577ff"/>
      <path id="Trazado_705286" data-name="Trazado 705286" d="M792.862,37.35a.567.567,0,1,1-.567-.567.567.567,0,0,1,.567.567" transform="translate(-605.669 -28.138)" fill="#6577ff"/>
      <path id="Trazado_705287" data-name="Trazado 705287" d="M787.848,15.346a1.275,1.275,0,1,1-1.275-1.275,1.275,1.275,0,0,1,1.275,1.275" transform="translate(-600.748 -10.763)" fill="#6577ff"/>
      <path id="Trazado_705288" data-name="Trazado 705288" d="M820.508,48.711a1.275,1.275,0,1,1-1.275-1.275,1.275,1.275,0,0,1,1.275,1.275" transform="translate(-625.734 -36.287)" fill="#6577ff"/>
      <path id="Trazado_705289" data-name="Trazado 705289" d="M839.6,12.03a1.275,1.275,0,1,1-1.275-1.275A1.276,1.276,0,0,1,839.6,12.03" transform="translate(-640.34 -8.226)" fill="#6577ff"/>
      <path id="Trazado_705290" data-name="Trazado 705290" d="M802.293,6.243a2.69,2.69,0,0,1-.606.478,4.542,4.542,0,0,1-1.026.442c-.078.022-.3.091-.675.188a4.018,4.018,0,0,0-1.839-1.732c.007-.067.015-.134.023-.2.02-.156.044-.31.072-.463a2.4,2.4,0,0,1,.591-1.241l-.512-.2a1.232,1.232,0,0,1-.007.243,2.075,2.075,0,0,1-.042.229,2.556,2.556,0,0,1-.15.432,3.191,3.191,0,0,1-.22.4q-.127.2-.265.387-.065.089-.132.178a4.013,4.013,0,0,0-1.327-.127,4.19,4.19,0,0,1,.039-1.38h-.409a4.281,4.281,0,0,1,.035,1.418,3.965,3.965,0,0,0-1.1.339,6.73,6.73,0,0,1-1.068-2.21l-.5.233A6.867,6.867,0,0,1,794.2,5.951a4.016,4.016,0,0,0-1.437,1.78,5.764,5.764,0,0,1-2.1-.705,1.913,1.913,0,0,1-.262-.2l-.282.752a1.955,1.955,0,0,1,.329.022,5.882,5.882,0,0,1,2.089.874,4.014,4.014,0,0,0,.227,2.3,5.035,5.035,0,0,1-1.272.749,2,2,0,0,1-.51.12l.164.375a1.479,1.479,0,0,1,.21-.163,4.511,4.511,0,0,1,1.668-.563,4.024,4.024,0,0,0,1.329,1.354,3.136,3.136,0,0,1-.616,1.608l.511.207a2.029,2.029,0,0,1,.245-.884c.088-.175.3-.5.4-.65a4.012,4.012,0,0,0,2.275.258,4.319,4.319,0,0,1,.338,1.079,2.608,2.608,0,0,1-.034,1.115l.789-.152a2.6,2.6,0,0,1-.448-1.022,4.358,4.358,0,0,1-.087-1.161,4,4,0,0,0,1.917-1.371,7.874,7.874,0,0,1,1.663.734l.254-.489a7.7,7.7,0,0,1-1.509-.9,3.981,3.981,0,0,0,.411-1.722,3.018,3.018,0,0,1,1.025.189l.033-.408a3.066,3.066,0,0,1-1.061.02,3.981,3.981,0,0,0-.24-1.224c.314-.192.512-.3.593-.351a3.758,3.758,0,0,1,1.793-.541Z" transform="translate(-604.44 -2.62)" fill="#8a3d02"/>
      <path id="Trazado_705291" data-name="Trazado 705291" d="M1287.916,117.666a.827.827,0,1,1-.827-.827.827.827,0,0,1,.827.827" transform="translate(-983.983 -89.38)" fill="#6577ff"/>
      <path id="Trazado_705292" data-name="Trazado 705292" d="M1290.228,164.7a.827.827,0,1,1-.827-.827.827.827,0,0,1,.827.827" transform="translate(-985.752 -125.359)" fill="#6577ff"/>
      <path id="Trazado_705293" data-name="Trazado 705293" d="M1322.386,155.352a.827.827,0,1,1-.827-.828.827.827,0,0,1,.827.828" transform="translate(-1010.352 -118.209)" fill="#6577ff"/>
      <path id="Trazado_705294" data-name="Trazado 705294" d="M1309.962,117.839a.992.992,0,1,1-.992-.992.992.992,0,0,1,.992.992" transform="translate(-1000.596 -89.386)" fill="#6577ff"/>
      <path id="Trazado_705295" data-name="Trazado 705295" d="M1299.6,120.43a.567.567,0,1,1-.486-.638.567.567,0,0,1,.486.638" transform="translate(-993.325 -91.635)" fill="#6577ff"/>
      <path id="Trazado_705296" data-name="Trazado 705296" d="M1322.98,143.342a.567.567,0,1,1-.567-.567.567.567,0,0,1,.567.567" transform="translate(-1011.206 -109.221)" fill="#6577ff"/>
      <path id="Trazado_705297" data-name="Trazado 705297" d="M1278.563,154.194a.567.567,0,1,1-.567-.567.567.567,0,0,1,.567.567" transform="translate(-977.227 -117.523)" fill="#6577ff"/>
      <path id="Trazado_705298" data-name="Trazado 705298" d="M1273.548,132.191a1.275,1.275,0,1,1-1.276-1.275,1.276,1.276,0,0,1,1.276,1.275" transform="translate(-972.306 -100.149)" fill="#6577ff"/>
      <path id="Trazado_705299" data-name="Trazado 705299" d="M1306.208,165.554a1.275,1.275,0,1,1-1.275-1.275,1.275,1.275,0,0,1,1.275,1.275" transform="translate(-997.292 -125.671)" fill="#6577ff"/>
      <path id="Trazado_705300" data-name="Trazado 705300" d="M1325.3,128.874a1.275,1.275,0,1,1-1.275-1.275,1.275,1.275,0,0,1,1.275,1.275" transform="translate(-1011.898 -97.611)" fill="#6577ff"/>
      <path id="Trazado_705301" data-name="Trazado 705301" d="M1287.994,123.088a2.683,2.683,0,0,1-.606.478,4.544,4.544,0,0,1-1.025.442c-.078.022-.305.091-.675.188a4.015,4.015,0,0,0-1.839-1.732c.007-.067.015-.134.023-.2.02-.156.044-.31.072-.463a2.4,2.4,0,0,1,.591-1.241l-.512-.2a1.23,1.23,0,0,1-.007.243,2.17,2.17,0,0,1-.042.229,2.561,2.561,0,0,1-.15.432,3.142,3.142,0,0,1-.219.4q-.127.2-.265.387c-.044.059-.088.119-.133.178a4.014,4.014,0,0,0-1.327-.127,4.19,4.19,0,0,1,.039-1.38h-.409a4.267,4.267,0,0,1,.035,1.418,3.963,3.963,0,0,0-1.1.339,6.721,6.721,0,0,1-1.068-2.21l-.5.233a6.871,6.871,0,0,1,1.022,2.293,4.017,4.017,0,0,0-1.437,1.78,5.762,5.762,0,0,1-2.1-.705,1.991,1.991,0,0,1-.262-.2l-.282.752a1.955,1.955,0,0,1,.328.022,5.885,5.885,0,0,1,2.089.874,4.013,4.013,0,0,0,.227,2.3,5.04,5.04,0,0,1-1.273.749,2,2,0,0,1-.51.12l.164.375a1.509,1.509,0,0,1,.21-.163,4.516,4.516,0,0,1,1.668-.563,4.026,4.026,0,0,0,1.329,1.354,3.135,3.135,0,0,1-.616,1.608l.511.207a2.029,2.029,0,0,1,.245-.884c.088-.175.3-.5.4-.65a4.012,4.012,0,0,0,2.275.258,4.328,4.328,0,0,1,.338,1.079,2.609,2.609,0,0,1-.035,1.115l.789-.152a2.607,2.607,0,0,1-.448-1.022,4.374,4.374,0,0,1-.087-1.161,4,4,0,0,0,1.917-1.371,7.868,7.868,0,0,1,1.663.734l.254-.49a7.7,7.7,0,0,1-1.509-.9,3.984,3.984,0,0,0,.411-1.722,3.005,3.005,0,0,1,1.025.189l.033-.408a3.068,3.068,0,0,1-1.061.02,3.978,3.978,0,0,0-.24-1.224c.314-.192.512-.3.593-.351a3.753,3.753,0,0,1,1.793-.541Z" transform="translate(-975.999 -92.006)" fill="#8a3d02"/>
      <path id="Trazado_705302" data-name="Trazado 705302" d="M41.953,1445.008h0a.963.963,0,0,0,.91,1.009H200.732a1.014,1.014,0,0,0,0-2.017H42.863a.963.963,0,0,0-.91,1.008" transform="translate(-32.094 -1104.651)" fill="#65cefe"/>
      <path id="Trazado_705303" data-name="Trazado 705303" d="M358.432,505.225a3.549,3.549,0,1,1-3.539-3.8,3.679,3.679,0,0,1,3.539,3.8" transform="translate(-268.783 -383.583)" fill="#063e70"/>
      <path id="Trazado_705304" data-name="Trazado 705304" d="M590.545,741.3c-.935-1.587-.388-.495-2.249-1.372-.283-.133-14.587,3.4-14.614,3.407.481,1.316-3.382,6.431-2.9,7.753.9-.271,6.408-.448,8.537-.675,1.27-.136,6.234.394,9.543.51,2.713.1,3.906-.123,4.5-.911,1.312-1.747-1.882-7.126-2.817-8.713" transform="translate(-436.615 -566.036)" fill="#6577ff"/>
      <path id="Trazado_705305" data-name="Trazado 705305" d="M615.892,752.395l1.317,2.4-11.793,4.276-2.7-1.486.765-3.511Z" transform="translate(-461.074 -575.577)" fill="#4054e7"/>
      <path id="Trazado_705306" data-name="Trazado 705306" d="M655.207,708.974l-46.582,13.654a14.457,14.457,0,0,0,1.18,3.69l46.081-15.268Z" transform="translate(-465.595 -542.36)" fill="#063e70"/>
      <path id="Trazado_705307" data-name="Trazado 705307" d="M638.332,749.51s.74,7.847-1.836,8.433c-2.849.647-8.724-.423-8.31-1.031s7.283-1.65,7.283-1.65a16.3,16.3,0,0,1,.855-4.184c.6-1.182,1.3-2.333,2.009-1.568" transform="translate(-480.543 -573.181)" fill="#6577ff"/>
      <path id="Trazado_705308" data-name="Trazado 705308" d="M642.871,742.534s-3.8-1.366-3.644-1.845,1.456-.748,1.456-.748,6.24.638,5.443,1.757-3.255.836-3.255.836" transform="translate(-489.002 -566.049)" fill="#6577ff"/>
      <path id="Trazado_705309" data-name="Trazado 705309" d="M670.472,753.672s.14-4.847-.78-4.046c-1.11.966-2.05,5.892-1.091,6.788s1.821-.026,1.871-2.742" transform="translate(-511.172 -573.39)" fill="#6577ff"/>
      <path id="Trazado_705310" data-name="Trazado 705310" d="M321.6,568.761s18.743,29.294,22.415,33.141,30.111,4.321,32.407,8.237c1.069,1.823.739,8.664-1.35,10.4-7.067,5.863-35.729.9-37.4-.135-10.423-6.438-31.82-37.267-31.82-37.267Z" transform="translate(-233.969 -435.098)" fill="#e6a748"/>
      <path id="Trazado_705311" data-name="Trazado 705311" d="M172.312,981.011l-.188-.011c-.6,0-11.6-.047-12.1.067a2.244,2.244,0,0,0-1.462,1.23c-.489,1.038.011,2.266.267,3.317l.735,3.018,1.5,6.172.2.8,1.449-.353c0-.04-.032-.786-.421-3.968-.079-.525-.352-2.882-1.237-7.54.316,0,4.744.153,10.548,0-.055.376-1.284,7.544-1.541,12.516l1.458.314c.159-.737,2.76-12.811,2.742-12.726.015-.072.027-.144.038-.216a2.292,2.292,0,0,0-1.985-2.621" transform="translate(-121.143 -750.45)" fill="#063e70"/>
      <path id="Trazado_705312" data-name="Trazado 705312" d="M168.111,918.867a33.008,33.008,0,0,1,.276,6.586s-.817,7.737-.246,9.784a3.548,3.548,0,0,0,3.4,2.608,5.553,5.553,0,0,1,2.819.292c1.01.346,2.668-1.319,2.668-1.319s1.575,1.07,2.535.1.64-5.11-1.047-7.237a12.636,12.636,0,0,1-2.175-3.749s.144-2.054.769-6.919c-2.876-.553-6.008-.079-9-.146" transform="translate(-128.472 -702.832)" fill="#6577ff"/>
      <path id="Trazado_705313" data-name="Trazado 705313" d="M419.36,1384.66l-.017,0a4.906,4.906,0,0,1-1.963-2.43,31.617,31.617,0,0,1-.419-5.588l-8.185-.334-2,15.9s21.107,1.648,26.692.013c2.213-.648-6.665-4.864-14.1-7.57" transform="translate(-311.178 -1052.87)" fill="#063e70"/>
      <path id="Trazado_705314" data-name="Trazado 705314" d="M213.9,1381.456l-.015,0c-.445-.29-2.369-2.093-2.438-3.239-.111-1.848.053-4.778.053-4.778l-8.185-.334-2.409,17.745s22.476.781,27.441-.512c2.231-.581-7.008-6.179-14.447-8.886" transform="translate(-153.696 -1050.419)" fill="#063e70"/>
      <path id="Trazado_705315" data-name="Trazado 705315" d="M327.075,874.894l5.795,5.413,12.859,64.414s2.786,40.66-3.584,50.06c-1.673,2.469-11.151,2.639-11.927-.241-2.589-9.609-4.841-45.045-4.749-48.421s-19.153-58.453-19.153-58.453Z" transform="translate(-234.33 -669.288)" fill="#e6a748"/>
      <path id="Trazado_705316" data-name="Trazado 705316" d="M249.111,576.986c-1.081-4.882-9.179-14.7-14.377-15.983s-13.689-.232-13.689-.232-7.741.865-9.811,2.3a27.266,27.266,0,0,0-4.969,5.305s8.443,32.939,8.257,40.471c-.144,5.827-3.514,24.275-3.514,24.275s-2.032,15.386-1.621,20.8c.182,2.395,1.173,35.04-.114,37.118-10.96,17.712-16.354,58.938-11.731,63.363,2.177,2.083,10.034,2,12.049-.241,5.605-6.233,15.6-45.122,17.623-51.2,1.637-4.912,20.75-62.453,21.174-63.267,0,0,.495-17.386.615-21.854s2.758-28.888.107-40.855" transform="translate(-149.85 -428.676)" fill="#ffc403"/>
      <path id="Trazado_705317" data-name="Trazado 705317" d="M306.627,514.076l-1.969,10.785s7.8,7.876,11.562,6.819c3.158-.887-.4-6.731-.4-6.731s-1.536-6.388-.939-9.548-8.254-1.326-8.254-1.326" transform="translate(-233.062 -392.859)" fill="#f7a491"/>
      <path id="Trazado_705318" data-name="Trazado 705318" d="M320.745,512c.6-3.16-8.3-2.895-8.3-2.895l-.125,2.5a5.16,5.16,0,0,0,.911,1.588,11.618,11.618,0,0,0,7.6,3.664,17.207,17.207,0,0,1-.088-4.853" transform="translate(-238.927 -389.458)" fill="#f47458"/>
      <path id="Trazado_705319" data-name="Trazado 705319" d="M308.566,508.432l1.225-.918.648.756.63,1.927Z" transform="translate(-236.052 -388.244)" fill="#f47458"/>
      <path id="Trazado_705320" data-name="Trazado 705320" d="M178.4,569.043s-8.6,2.769-12.918,7.091-14.4,45.732-14.4,45.732,2.07,30.923,3.241,32.588,1.665,2.431,1.665,2.431l7.472-.18s4.456-24.126,4.456-27.727a41.013,41.013,0,0,1,.18-4.861l11.344-26.185Z" transform="translate(-115.572 -435.314)" fill="#ffc403"/>
      <path id="Trazado_705321" data-name="Trazado 705321" d="M285.343,418.183s.323-2.1-1.077-3.122a19.685,19.685,0,0,0-8.021-3.23c-3.176-.377-11.25.538-13.511,3.768s-1.884,14.265-2.637,17.01,5.41,9.178,6.056,9.824-1.615,5.894-1.615,5.894,15.314,6.405,17.2,5.867,2.638-3.176,2.476-4.414-1.938-2.584-2.422-3.068,1.184-3.983,2.261-4.575,1.292-23.954,1.292-23.954" transform="translate(-198.924 -314.987)" fill="#f7cc7f"/>
      <path id="Trazado_705322" data-name="Trazado 705322" d="M308.009,434.47c-.688,1.2-1.835,9.72.118,14.155,1.873,4.255,8.677,10.625,11.065,7.9,2.641-3.013,6.258-21.534,1.211-25.312s-11.659,1.968-12.394,3.256" transform="translate(-234.887 -328.905)" fill="#f7a491"/>
      <path id="Trazado_705323" data-name="Trazado 705323" d="M309.348,481.614c-.041-.326-5.209.795-5.488.928l-.035.017a7.855,7.855,0,0,1-6.654.093l-6.394-2.9-1.617,2.219,9.071,12.186.026-.057a5.315,5.315,0,0,0,3.243,2.019c1.87.616,4.166.97,4.967.057,1.508-1.72,3.614-8.664,2.88-14.561" transform="translate(-221.207 -367.006)" fill="#064c91"/>
      <path id="Trazado_705324" data-name="Trazado 705324" d="M332.8,507.015a3.615,3.615,0,1,1-3.605-3.876,3.748,3.748,0,0,1,3.605,3.876" transform="translate(-249.071 -384.898)" fill="#063e70"/>
      <path id="Trazado_705325" data-name="Trazado 705325" d="M299.289,456.708l.227.018c1.829.144,14.169,1.062,16.46-.234,2.476-1.4,1.131,7.375.754,7.859s-1.023-.592-2.1-.484-2.261,1.884-5.921,1.938-10.954-3.512-10.954-3.512Z" transform="translate(-227.781 -349.098)" fill="#063e70"/>
      <path id="Trazado_705326" data-name="Trazado 705326" d="M303.031,459.719l-1.2,4.287c2.454,1.116,7.463,3.186,10.162,3.146,3.75-.054,4.541-1.946,6.194-1.946a6.479,6.479,0,0,1,1.869.631c.342-1.527.789-5.179.232-6.68l-.483.192c-2.472,1.373-13.926.579-16.775.369" transform="translate(-230.9 -351.252)" fill="#c9edf9"/>
      <path id="Trazado_705327" data-name="Trazado 705327" d="M281.8,446.712c-.484-.485,1.552-2.1.915-2.1-5.531,0-8.667-5.652-10.54-9.907-1.953-4.435-.806-12.95-.118-14.155.735-1.288,7.347-7.034,12.394-3.256a4.114,4.114,0,0,1,.9.949v-.062s.323-2.1-1.077-3.122a19.693,19.693,0,0,0-8.021-3.23c-3.176-.377-11.25.538-13.511,3.768s-1.884,14.265-2.638,17.01,5.652,9.582,6.3,10.228-1.857,5.49-1.857,5.49,15.314,6.406,17.2,5.867,2.638-3.176,2.476-4.414-1.938-2.584-2.422-3.068" transform="translate(-198.931 -314.987)" fill="#e6a748"/>
      <path id="Trazado_705328" data-name="Trazado 705328" d="M328.673,507.015a3.615,3.615,0,1,1-3.605-3.876,3.748,3.748,0,0,1,3.605,3.876" transform="translate(-245.917 -384.898)" fill="#6577ff"/>
      <path id="Trazado_705329" data-name="Trazado 705329" d="M805.908,696.739l-11.58,4a.537.537,0,0,1-.682-.332l-.649-1.88a.536.536,0,0,1,.332-.682l11.58-4a.536.536,0,0,1,.682.332l.649,1.88a.536.536,0,0,1-.331.682" transform="translate(-606.616 -530.765)" fill="#063e70"/>
      <path id="Trazado_705330" data-name="Trazado 705330" d="M242.309,1086.245h-4.276v-6.092a1.335,1.335,0,0,1,1.335-1.335h1.606a1.335,1.335,0,0,1,1.335,1.335Z" transform="translate(-182.094 -825.289)" fill="#063e70"/>
      <rect id="Rectángulo_340831" data-name="Rectángulo 340831" width="11.703" height="12.243" transform="translate(40.185 249.478)" fill="#063e70"/>
      <path id="Trazado_705331" data-name="Trazado 705331" d="M167.51,1039.67H156.34a4.5,4.5,0,0,1-4.5-4.5v-2.7h20.165v2.7a4.5,4.5,0,0,1-4.5,4.5" transform="translate(-116.158 -789.831)" fill="#063e70"/>
      <path id="Trazado_705332" data-name="Trazado 705332" d="M334.634,769.584c-32.112,11.454-49.928,33.563-54.011,55.5a33.516,33.516,0,0,0-.046,14.153c3.19,12.9,17.894,19.056,27.967,6.61,9.835-12.152,9.158-34.74-6.973-44.541a26.608,26.608,0,0,0-24.23-2.025c-8.321,3.334-14.96,9.847-20.091,16.886-6.431,8.822-10.234,19.257-9.977,29.805.033,1.333,2.17,1.338,2.138,0a45.232,45.232,0,0,1,6.178-23.333c3.925-6.913,10.252-14.205,16.671-18.375,7.169-4.657,14.823-6.383,23.049-3.6,22.515,7.622,21.453,38.384,7.52,47.648-6.878,4.573-14.556,1.754-18.453-5.129-5.651-9.979-.407-26.481,5.495-36.565,8.841-15.108,22.926-25.656,39.4-32.785q2.914-1.261,5.9-2.348a1.013,1.013,0,0,0,.711-1.216,1.031,1.031,0,0,0-1.253-.69" transform="translate(-189.153 -588.691)" fill="#063e70"/>
      <path id="Trazado_705333" data-name="Trazado 705333" d="M156.616,1159.9H145.667a9.106,9.106,0,0,1-9.106-9.106v-55.649a8.15,8.15,0,0,1,8.15-8.15h12.862a8.15,8.15,0,0,1,8.15,8.15V1150.8a9.107,9.107,0,0,1-9.106,9.106" transform="translate(-104.468 -831.547)" fill="#ff6e53"/>
      <path id="Trazado_705334" data-name="Trazado 705334" d="M865.6,535.49a51.534,51.534,0,0,0,16.649-16.6c1.228-2.087.808-1.316,2.122-3.757,4.564-8.841,6.86-19.146,8.984-28.833l1.927.457c-2.426,9.518-3.121,11.5-3.376,12.411-3.367,11.19-7.1,17.109-7.044,17.013A51.616,51.616,0,0,1,865.6,535.49" transform="translate(-662.178 -372.013)" fill="#65cefe"/>
      <path id="Trazado_705335" data-name="Trazado 705335" d="M912.24,542.392a102.786,102.786,0,0,0,45.283-40.342L959.2,503.1a103.78,103.78,0,0,1-46.965,39.295" transform="translate(-697.859 -384.064)" fill="#65cefe"/>
      <path id="Trazado_705336" data-name="Trazado 705336" d="M1138.539,536.392a49.027,49.027,0,0,1,18.885-7.6l.248,1.965a48.039,48.039,0,0,0-19.133,5.632" transform="translate(-870.976 -404.524)" fill="#65cefe"/>
    </g>
  </g>
</svg>
