<svg xmlns="http://www.w3.org/2000/svg" xmlns:xlink="http://www.w3.org/1999/xlink" width="153" height="153" viewBox="0 0 153 153">
  <defs>
    <clipPath id="clip-path">
      <rect id="Rectángulo_341033" data-name="Rectángulo 341033" width="121.61" height="123.607" fill="none"/>
    </clipPath>
  </defs>
  <g id="Grupo_982814" data-name="Grupo 982814" transform="translate(-1717 7675.282)">
    <circle id="Elipse_5689" data-name="Elipse 5689" cx="76.5" cy="76.5" r="76.5" transform="translate(1717 -7675.282)" fill="#06d1d1"/>
    <g id="Grupo_976009" data-name="Grupo 976009" transform="translate(1734.952 -7657.585)">
      <g id="Grupo_976008" data-name="Grupo 976008" transform="translate(0 0)" clip-path="url(#clip-path)">
        <path id="Trazado_706358" data-name="Trazado 706358" d="M85.45,44.732A40.555,40.555,0,0,0,75.6,18.265c-.957-1.127-1.347-.216-1.859.3Q51.9,40.39,30.077,62.237c-3.934,3.936-7.858,7.881-11.831,11.777-.751.739-.7,1.132.081,1.778a40.27,40.27,0,0,0,21.141,9.262,8.177,8.177,0,0,1,1.061.216,1.859,1.859,0,0,1,1.617,2.252,1.822,1.822,0,0,1-2.136,1.625,34.438,34.438,0,0,1-9.1-1.916C14.784,81.547,4.577,70.35.987,53.688A44.684,44.684,0,0,1,88.244,34.43,52.6,52.6,0,0,1,89.315,48.7a5.175,5.175,0,0,1-.223,1.194,1.96,1.96,0,0,1-3.851-.533c.019-1.4.121-2.8.208-4.625M45.245,4.039c-10.129.092-18.836,2.979-26.225,9.184C7.845,22.606,2.947,34.693,4.345,49.245a39.082,39.082,0,0,0,9,21.373c1.2,1.468,1.222,1.447,2.546.126Q35.943,50.7,55.994,30.665c5.021-5.018,10.029-10.051,15.071-15.045.748-.744.928-1.12-.047-1.93a40.638,40.638,0,0,0-25.773-9.65" transform="translate(0.001 0.001)"/>
        <path id="Trazado_706359" data-name="Trazado 706359" d="M18.7,77.983a2.062,2.062,0,0,1,1.537.793c.924.931,1.876,1.838,2.778,2.787.44.464.748.661,1.3.1Q28.12,77.789,32,74c.654-.635.033-.864-.256-1.158-2.188-2.224-4.4-4.421-6.6-6.633a4.774,4.774,0,0,1-.888-1.014,1.892,1.892,0,0,1,.455-2.558,1.852,1.852,0,0,1,2.491.009,19.347,19.347,0,0,1,2.3,2.3c.7.822,1.153.732,1.892-.009Q41.64,54.641,51.952,44.421q5.907-5.89,11.82-11.779a4.936,4.936,0,0,1,7.346,0c1.887,1.828,1.887,1.826,3.675-.021.6-.618,1.184-1.248,1.809-1.835a4.014,4.014,0,0,1,5.2-.684,1.237,1.237,0,0,0,1.821-.265c3.746-3.8,7.533-7.557,11.308-11.325a2.979,2.979,0,0,1,1.267-.99,1.97,1.97,0,0,1,2.29.737,1.816,1.816,0,0,1-.166,2.472c-.99,1.054-2.03,2.063-3.053,3.088-2.972,2.977-5.935,5.963-8.928,8.921-.547.54-.751.893-.253,1.679a4,4,0,0,1-.675,5.3c-.961,1.018-1.947,2.02-2.982,2.965-.523.476-.611.831-.033,1.272a.917.917,0,0,1,.095.1c3.787,4.059,3.77,5.847-.159,9.785q-15.481,15.516-30.995,31c-.751.748-.871,1.213-.019,1.921a20.354,20.354,0,0,1,2.11,2.105,1.859,1.859,0,0,1,0,2.877,1.925,1.925,0,0,1-2.889-.149c-2.352-2.316-4.694-4.639-6.991-7.01-.611-.63-.973-.675-1.606-.024q-3.595,3.7-7.289,7.3c-.554.542-.552.867.019,1.381.973.879,1.887,1.821,2.8,2.764,1.146,1.182,1.234,2.285.289,3.192-.886.853-1.987.751-3.081-.339Q26.035,90.225,17.4,81.59a2.152,2.152,0,0,1-.635-2.456A1.822,1.822,0,0,1,18.7,77.983M55.237,67.852a2,2,0,0,1,1.1-1.662,1.95,1.95,0,0,1,2.273.277c.748.656,1.473,1.34,2.157,2.06.419.445.7.566,1.184.052,1.141-1.22,2.326-2.4,3.524-3.566.431-.419.419-.687-.017-1.092A30.744,30.744,0,0,1,63.27,61.7a1.885,1.885,0,0,1-.078-2.5,1.845,1.845,0,0,1,2.176-.663A3.314,3.314,0,0,1,66.751,59.6c2.082,2.093,2.084,2.093,4.194-.045.793-.805,2.117-1.556,2.217-2.442.118-1.04-1.395-1.7-2.157-2.562-.9-1.018-.969-2.048-.154-2.9a2.124,2.124,0,0,1,3.027.137,22.8,22.8,0,0,1,1.8,1.842c.481.575.793.512,1.279,0,1.179-1.25,2.387-2.475,3.642-3.649.855-.8.838-1.437.009-2.259q-6.025-5.95-11.983-11.973c-.909-.919-1.572-.893-2.477.036-3.06,3.145-6.188,6.221-9.29,9.323Q45.538,56.429,34.217,67.753c-.538.535-1.014.926-.192,1.726q6.447,6.309,12.788,12.731c.62.625.985.649,1.606.007,2.643-2.73,5.338-5.407,8.009-8.109,2.1-2.124,2.1-2.131-.031-4.26a2.92,2.92,0,0,1-1.16-2M31.157,89.646c.194-.168.367-.3.519-.448,2.56-2.543,5.108-5.1,7.685-7.626.5-.49.362-.789-.066-1.2-1.165-1.132-2.3-2.29-3.441-3.45-.35-.36-.583-.554-1.059-.066q-3.787,3.868-7.659,7.656c-.488.481-.41.786.028,1.21,1.165,1.13,2.3,2.29,3.458,3.434.156.156.324.3.535.493M78.58,40.391c.429-.159.583-.168.668-.251q1.638-1.613,3.254-3.249a.467.467,0,0,0-.028-.718c-.9-.874-1.686-2.091-2.768-2.484-.677-.246-1.4,1.2-2.141,1.845a8.917,8.917,0,0,1-.772.755c-1.054.71-.888,1.359.024,2.039a3.807,3.807,0,0,1,.665.673c.4.483.781.985,1.1,1.39" transform="translate(22.718 23.846)"/>
        <path id="Trazado_706360" data-name="Trazado 706360" d="M14.166,55.7c1.028.346,1.042-.54,1.241-1.044.208-.538.815-1.106-.128-1.724a1.806,1.806,0,0,1-.5-2.73,1.966,1.966,0,0,1,2.764-.533,25.516,25.516,0,0,0,7.434,2.392,2.4,2.4,0,0,0,2.373-.49,1.484,1.484,0,0,1,2.008-.118c1.009,1,2.046.654,3.15.464a23.476,23.476,0,0,0,10.65-4.727,1.885,1.885,0,0,0,.874-1.542A1.63,1.63,0,0,1,45.7,44.024a1.787,1.787,0,0,0,1.44-.805A24.1,24.1,0,0,0,52.139,31.25a1.884,1.884,0,0,0-.455-1.617,1.723,1.723,0,0,1,0-2.463,2.079,2.079,0,0,0,.41-2.008,26.047,26.047,0,0,0-2.546-7.952c-.713-1.381-.507-2.479.516-3.088,1.049-.623,1.982-.284,2.887,1.1.27.412.516.819,1.042.45.592-.414,1.8-.111,1.722-1.293A2,2,0,0,1,57.21,12c1.16-.315,1.954.244,2.541,1.665.483,1.168.952,2.34,1.44,3.507a1.886,1.886,0,0,1-.692,2.5,1.719,1.719,0,0,1-2.539-.334c-.935-1.217-1.665-.114-2.463.092-.98.253-.377.952-.275,1.416.27,1.231.609,2.439.777,3.7a4.305,4.305,0,0,0,1.078,2.939,1.484,1.484,0,0,1-.083,2.11,2.96,2.96,0,0,0-.869,2.136,26.077,26.077,0,0,1-.99,4.613c-.147.424-.4.957.256,1.1.758.166,1.492,1.208,2.292.327.85-.931,1.738-1.347,2.837-.623,1.177.777,1.018,1.883.533,3.012s-.938,2.247-1.409,3.372A2.024,2.024,0,0,1,55.7,42.66c.116-1.392-1.224-.992-1.857-1.456-.7-.514-.774.275-1.016.637-.8,1.205-1.551,2.442-2.392,3.616a3.876,3.876,0,0,0-1.051,2.394c0,1.006-.779,1.577-1.809,1.667-.308.028-.727-.126-.919.026a42.653,42.653,0,0,1-5.376,3.649c-.7.4-.073,1.011.13,1.421.218.433.036,1.331.973,1.168a1.889,1.889,0,0,1,2.442,1.525c.308,1.293-.391,2.025-1.561,2.458s-2.337.957-3.51,1.426a1.93,1.93,0,0,1-2.617-.7,1.875,1.875,0,0,1,.495-2.65c1.118-.907-.121-1.58-.227-2.347-.1-.732-.781-.417-1.217-.284a28.953,28.953,0,0,1-4.9.976,2.1,2.1,0,0,0-1.523.661,1.6,1.6,0,0,1-2.318.284c-.973-1.04-2.188-.914-3.327-1.139s-2.285-.471-3.413-.781c-.393-.107-1.011-.684-1.2.154-.18.808-1.419,1.527-.3,2.494a1.846,1.846,0,0,1,.737,2.022A1.967,1.967,0,0,1,17.3,61.288c-1.4-.5-2.757-1.12-4.116-1.726a2.009,2.009,0,0,1,.985-3.858" transform="translate(16.296 16.301)"/>
        <path id="Trazado_706361" data-name="Trazado 706361" d="M19.959,26.358a6.513,6.513,0,0,1,13.025.144,6.513,6.513,0,1,1-13.025-.144m8.978.1a2.473,2.473,0,1,0-2.427,2.487,2.362,2.362,0,0,0,2.427-2.487" transform="translate(27.307 27.322)"/>
        <path id="Trazado_706362" data-name="Trazado 706362" d="M29.629,6.889a1.9,1.9,0,0,1-.812,1.636c-1.227.912.009,1.679.171,2.47.185.9.883.294,1.321.18a25.38,25.38,0,0,1,4.367-.855,2.773,2.773,0,0,0,2.056-.838A1.4,1.4,0,0,1,38.7,9.2c1.144,1.227,2.641,1.011,4.009,1.329,1.051.242,2.122.422,3.152.729.561.168,1,.26,1.151-.419.154-.713,1.151-1.395.277-2.157-.957-.834-1.347-1.748-.6-2.828.727-1.059,1.743-1.087,2.877-.545,1.177.564,2.416,1,3.611,1.525a1.867,1.867,0,0,1,1.284,2.245A1.788,1.788,0,0,1,52.4,10.64c-1.49-.187-1.217,1.134-1.644,1.838-.49.808.362.86.741,1.118,1.134.77,1.487,1.76.916,2.749a2,2,0,0,1-2.92.708,25.562,25.562,0,0,0-8.424-2.794,1.924,1.924,0,0,0-1.859.414,1.757,1.757,0,0,1-2.569-.031,1.588,1.588,0,0,0-1.452-.448,24.424,24.424,0,0,0-11.973,5,1.633,1.633,0,0,0-.812,1.414A1.74,1.74,0,0,1,20.6,22.424a1.589,1.589,0,0,0-1.317.72,24.04,24.04,0,0,0-5.047,12.222,1.358,1.358,0,0,0,.4,1.2c.561.635,1,1.513.339,2.207-1.118,1.175-.609,2.408-.407,3.645a23.281,23.281,0,0,0,2.086,6.261c.625,1.314.384,2.382-.637,2.939a1.812,1.812,0,0,1-2.529-.519.86.86,0,0,0-1.364-.261c-.547.393-1.658.189-1.485,1.39A1.861,1.861,0,0,1,9,54.494c-1.163.23-1.828-.514-2.24-1.532-.526-1.3-1.059-2.588-1.615-3.87a1.83,1.83,0,0,1,.786-2.458,1.7,1.7,0,0,1,2.515.41c.916,1.3,1.674.111,2.465-.059,1.04-.22.334-.954.232-1.409a32.911,32.911,0,0,1-.819-4.239,3.006,3.006,0,0,0-.864-2.181,1.4,1.4,0,0,1-.249-1.973c1.291-1.248.976-2.91,1.4-4.372.189-.644.26-1.324.433-1.975.424-1.591.012-2.243-1.589-2.543-.462-.088-.642.168-.888.445A1.843,1.843,0,0,1,5.93,29.2a1.98,1.98,0,0,1-.675-2.73c.554-1.234,1.07-2.484,1.582-3.737a1.89,1.89,0,0,1,2.408-1.22,1.711,1.711,0,0,1,1.39,2.027c-.187,1.5,1.108,1.281,1.845,1.653.848.429.9-.455,1.2-.888.7-1.051,1.362-2.129,2.075-3.173a4.429,4.429,0,0,0,1.2-2.61,1.694,1.694,0,0,1,1.852-1.617,2.44,2.44,0,0,0,1.691-.665A29.538,29.538,0,0,1,24.438,13.6c.436-.253,1.186-.4.755-1.137-.4-.682-.159-1.88-1.556-1.835a1.87,1.87,0,0,1-2.176-2.12,1.788,1.788,0,0,1,1.08-1.606c1.485-.651,2.979-1.3,4.5-1.842a2,2,0,0,1,2.584,1.823" transform="translate(6.765 6.788)"/>
        <path id="Trazado_706363" data-name="Trazado 706363" d="M25.333,18.889a6.411,6.411,0,0,1-6.543,6.472,6.581,6.581,0,0,1-6.484-6.453,6.685,6.685,0,0,1,6.527-6.6,6.608,6.608,0,0,1,6.5,6.586m-3.952-.04A2.533,2.533,0,1,0,18.908,21.4a2.613,2.613,0,0,0,2.472-2.555" transform="translate(16.837 16.833)"/>
      </g>
    </g>
  </g>
</svg>
