<svg xmlns="http://www.w3.org/2000/svg" xmlns:xlink="http://www.w3.org/1999/xlink" width="307.708" height="411.487" viewBox="0 0 307.708 411.487">
  <defs>
    <clipPath id="clip-path">
      <rect id="Rectángulo_341022" data-name="Rectángulo 341022" width="263.605" height="411.487" fill="none"/>
    </clipPath>
    <clipPath id="clip-path-3">
      <rect id="Rectángulo_340994" data-name="Rectángulo 340994" width="232.486" height="411.487" fill="none"/>
    </clipPath>
    <clipPath id="clip-path-4">
      <rect id="Rectángulo_340995" data-name="Rectángulo 340995" width="183.1" height="411.487" fill="none"/>
    </clipPath>
    <clipPath id="clip-path-5">
      <rect id="Rectángulo_340996" data-name="Rectángulo 340996" width="32.575" height="39.153" fill="none"/>
    </clipPath>
    <clipPath id="clip-path-6">
      <rect id="Rectángulo_340997" data-name="Rectángulo 340997" width="3.233" height="3.233" fill="none"/>
    </clipPath>
    <clipPath id="clip-path-7">
      <rect id="Rectángulo_340998" data-name="Rectángulo 340998" width="0.986" height="0.986" fill="none"/>
    </clipPath>
    <clipPath id="clip-path-8">
      <rect id="Rectángulo_340999" data-name="Rectángulo 340999" width="1.816" height="1.815" fill="none"/>
    </clipPath>
    <clipPath id="clip-path-9">
      <rect id="Rectángulo_341000" data-name="Rectángulo 341000" width="0.554" height="0.554" fill="none"/>
    </clipPath>
    <clipPath id="clip-path-11">
      <rect id="Rectángulo_341002" data-name="Rectángulo 341002" width="0.986" height="0.987" fill="none"/>
    </clipPath>
    <clipPath id="clip-path-12">
      <rect id="Rectángulo_341003" data-name="Rectángulo 341003" width="1.815" height="1.815" fill="none"/>
    </clipPath>
    <clipPath id="clip-path-18">
      <rect id="Rectángulo_341009" data-name="Rectángulo 341009" width="3.966" height="3.966" fill="none"/>
    </clipPath>
    <clipPath id="clip-path-19">
      <rect id="Rectángulo_341010" data-name="Rectángulo 341010" width="1.21" height="1.21" fill="none"/>
    </clipPath>
    <clipPath id="clip-path-20">
      <rect id="Rectángulo_341011" data-name="Rectángulo 341011" width="2.227" height="2.228" fill="none"/>
    </clipPath>
    <clipPath id="clip-path-21">
      <rect id="Rectángulo_341012" data-name="Rectángulo 341012" width="0.68" height="0.68" fill="none"/>
    </clipPath>
    <clipPath id="clip-path-22">
      <rect id="Rectángulo_341013" data-name="Rectángulo 341013" width="2.66" height="2.66" fill="none"/>
    </clipPath>
    <clipPath id="clip-path-23">
      <rect id="Rectángulo_341014" data-name="Rectángulo 341014" width="0.811" height="0.811" fill="none"/>
    </clipPath>
    <clipPath id="clip-path-24">
      <rect id="Rectángulo_341015" data-name="Rectángulo 341015" width="1.494" height="1.494" fill="none"/>
    </clipPath>
    <clipPath id="clip-path-25">
      <rect id="Rectángulo_341016" data-name="Rectángulo 341016" width="0.456" height="0.455" fill="none"/>
    </clipPath>
    <clipPath id="clip-path-29">
      <rect id="Rectángulo_341020" data-name="Rectángulo 341020" width="0.456" height="0.456" fill="none"/>
    </clipPath>
  </defs>
  <g id="Grupo_982806" data-name="Grupo 982806" transform="translate(-1759 8994.244)">
    <path id="Trazado_706209" data-name="Trazado 706209" d="M307.708,153.849A153.854,153.854,0,1,1,153.854,0,153.854,153.854,0,0,1,307.708,153.849" transform="translate(1759 -8947.619)" fill="#06d1d1" opacity="0.09"/>
    <g id="Grupo_975991" data-name="Grupo 975991" transform="translate(1775.197 -8994.244)">
      <g id="Grupo_975990" data-name="Grupo 975990" clip-path="url(#clip-path)">
        <g id="Grupo_975989" data-name="Grupo 975989">
          <g id="Grupo_975988" data-name="Grupo 975988" clip-path="url(#clip-path)">
            <g id="Grupo_975909" data-name="Grupo 975909" transform="translate(20.773)" style="mix-blend-mode: screen;isolation: isolate">
              <g id="Grupo_975908" data-name="Grupo 975908">
                <g id="Grupo_975907" data-name="Grupo 975907" clip-path="url(#clip-path-3)">
                  <path id="Trazado_706210" data-name="Trazado 706210" d="M175.319,0h-67.67C97.575,258.414,25.241,411.487,25.241,411.487H257.726S185.393,258.414,175.319,0" transform="translate(-25.241)" fill="#65a8df"/>
                </g>
              </g>
            </g>
            <g id="Grupo_975912" data-name="Grupo 975912" transform="translate(45.466)" style="mix-blend-mode: screen;isolation: isolate">
              <g id="Grupo_975911" data-name="Grupo 975911">
                <g id="Grupo_975910" data-name="Grupo 975910" clip-path="url(#clip-path-4)">
                  <path id="Trazado_706211" data-name="Trazado 706211" d="M163.143,0h-32.7c-4.868,258.414-75.2,411.487-75.2,411.487h183.1S168.011,258.414,163.143,0" transform="translate(-55.246)" fill="#65a8df"/>
                </g>
              </g>
            </g>
            <path id="Trazado_706212" data-name="Trazado 706212" d="M69.3,214.236s-3.44-13.93-7.986-22.522-9.2-15.774,3.1-16.271,22.176,21.929,22.176,21.929l9.689,2.845,2.706-88.71a7.176,7.176,0,0,1,14.325-.365l4.549,55.793,8.682-63.413a9.088,9.088,0,0,1,18.068,1.909l-4.694,62.914,10.828-54.653a7.28,7.28,0,0,1,14.388,2.112l-5.586,58.014,13.622-40.394a6.492,6.492,0,0,1,12.522,3.331l-9.92,50.3s-2.62,44.6-7.743,59.541S157.914,262.1,157.914,262.1L148.56,428.423H75.549l24.725-171.09S84.7,244.854,80.026,234.839s-10.722-20.6-10.722-20.6" transform="translate(-10.009 -16.936)" fill="#f0aa65"/>
            <g id="Grupo_975915" data-name="Grupo 975915" transform="translate(86.274 177.361)" opacity="0.5" style="mix-blend-mode: multiply;isolation: isolate">
              <g id="Grupo_975914" data-name="Grupo 975914">
                <g id="Grupo_975913" data-name="Grupo 975913" clip-path="url(#clip-path-5)">
                  <path id="Trazado_706213" data-name="Trazado 706213" d="M104.832,221.432s32.715,10.221,31.47,33.232c0,0,10.187-20.3-31.289-39.152Z" transform="translate(-104.832 -215.512)" fill="#f0aa65"/>
                </g>
              </g>
            </g>
            <path id="Trazado_706214" data-name="Trazado 706214" d="M113.212,272.05s-7.32-12.34-14.155-19.251-13.363-12.443-1.736-16.473,27.568,14.583,27.568,14.583l10.1-.077-23.054-85.705a7.176,7.176,0,0,1,13.609-4.49l20.482,52.1-10.019-63.214a9.088,9.088,0,0,1,17.847-3.4l13.693,61.585-5.432-55.449a7.28,7.28,0,0,1,14.384-2.138l11.424,57.151,1.363-42.607a6.492,6.492,0,0,1,12.95-.43l5.043,51.017s10.384,43.451,9.8,59.236-5.2,17.775-5.2,17.775L243.6,436.094H167.27L155.317,304.355s-18.514-7.444-25.884-15.68-16.221-16.625-16.221-16.625" transform="translate(-16.099 -24.607)" fill="#f7bd84"/>
            <path id="Trazado_706215" data-name="Trazado 706215" d="M263.163,189.583a2.792,2.792,0,1,1-2.792-2.792,2.792,2.792,0,0,1,2.792,2.792" transform="translate(-45.598 -33.067)" fill="#fff"/>
            <path id="Trazado_706216" data-name="Trazado 706216" d="M111.18,89.9a2.792,2.792,0,1,1-2.792-2.792A2.792,2.792,0,0,1,111.18,89.9" transform="translate(-18.693 -15.42)" fill="#fff"/>
            <path id="Trazado_706217" data-name="Trazado 706217" d="M195.222,83.939a2.792,2.792,0,1,1-2.792-2.792,2.792,2.792,0,0,1,2.792,2.792" transform="translate(-33.571 -14.365)" fill="#fff"/>
            <path id="Trazado_706218" data-name="Trazado 706218" d="M226.556,117.606a2.792,2.792,0,1,1-2.792-2.792,2.792,2.792,0,0,1,2.792,2.792" transform="translate(-39.118 -20.325)" fill="#fff"/>
            <path id="Trazado_706219" data-name="Trazado 706219" d="M50.663,226.583a2.792,2.792,0,1,1-2.792-2.792,2.792,2.792,0,0,1,2.792,2.792" transform="translate(-7.98 -39.617)" fill="#fff"/>
            <path id="Trazado_706220" data-name="Trazado 706220" d="M255.775,171.643a6.309,6.309,0,1,1-6.31-6.31,6.31,6.31,0,0,1,6.31,6.31" transform="translate(-43.045 -29.268)" fill="#fff"/>
            <path id="Trazado_706221" data-name="Trazado 706221" d="M94.775,97.643a6.309,6.309,0,1,1-6.31-6.31,6.31,6.31,0,0,1,6.31,6.31" transform="translate(-14.544 -16.168)" fill="#fff"/>
            <path id="Trazado_706222" data-name="Trazado 706222" d="M181.25,94.31A6.309,6.309,0,1,1,174.94,88a6.31,6.31,0,0,1,6.31,6.31" transform="translate(-29.852 -15.578)" fill="#fff"/>
            <path id="Trazado_706223" data-name="Trazado 706223" d="M44.275,206.643a6.309,6.309,0,1,1-6.31-6.31,6.31,6.31,0,0,1,6.31,6.31" transform="translate(-5.604 -35.464)" fill="#fff"/>
            <path id="Trazado_706224" data-name="Trazado 706224" d="M142.445,223.949c-.083-.1-.174-.189-.261-.282a12.3,12.3,0,0,0-12.756-19.219,8.478,8.478,0,0,0-16.7-.965,5.861,5.861,0,0,0-5.919,2.981,7.2,7.2,0,0,0-6.192,11.271,7.658,7.658,0,0,0,.679,14.11,7.671,7.671,0,0,0,11.712,9.452c.133-.111.253-.23.377-.348a7.657,7.657,0,0,0,12.34,3.956,7.769,7.769,0,0,0,.922-.926,8.83,8.83,0,1,0,14.416-10.086c-.126-.151-.263-.287-.4-.427a6.268,6.268,0,0,0,1.776-9.517" transform="translate(-17.041 -34.854)" fill="#fff"/>
            <path id="Trazado_706225" data-name="Trazado 706225" d="M223.3,278.118a9,9,0,0,0,14.108-2.175c.206.092.411.187.625.266a9.572,9.572,0,0,0,10.847-14.867,9.842,9.842,0,0,0-3.344-18.207,8.024,8.024,0,0,0-6.326-14.741,7.228,7.228,0,0,0-12.491-5.145,11.273,11.273,0,0,0-1.1-.472,11.123,11.123,0,0,0-13.649,5.255c-.327-.151-.662-.291-1.009-.414a11.262,11.262,0,0,0-7.9,21.088,9.969,9.969,0,0,0,4.12,17.864A10,10,0,0,0,223.3,278.118" transform="translate(-34.688 -39.118)" fill="#fff"/>
            <path id="Trazado_706226" data-name="Trazado 706226" d="M160.74,190.96a4.828,4.828,0,0,0,5.347,5.48c.024.119.046.238.079.356a5.134,5.134,0,0,0,9.871.1,5.28,5.28,0,0,0,6.906-7.135,4.3,4.3,0,0,0,4.463-7.356,3.877,3.877,0,0,0-1.648-7.056,6.045,6.045,0,0,0-.137-.626,5.966,5.966,0,0,0-6.548-4.321c-.036-.19-.08-.379-.134-.569a6.041,6.041,0,0,0-11.668,3.123,5.363,5.363,0,0,0-6.829,6.529,5.453,5.453,0,0,0,.314.838,5.447,5.447,0,0,0-.748.144,5.365,5.365,0,0,0,.732,10.491" transform="translate(-27.629 -29.292)" fill="#fff"/>
            <path id="Trazado_706227" data-name="Trazado 706227" d="M221.645,146.532s6.776-18.788,18.671-16.245c7.884,1.686,6.713,14.673-2.171,13.986-6.319-.488-11.868-2.2-16.5,2.258" transform="translate(-39.237 -23.022)" fill="#fff"/>
            <path id="Trazado_706228" data-name="Trazado 706228" d="M94.883,298.8s-12.765-15.361-23.085-8.92c-6.839,4.268-.311,15.2,6.8,12.412,5.9-2.313,10.41-6.111,16.283-3.492" transform="translate(-12.198 -51.038)" fill="#fff"/>
            <path id="Trazado_706229" data-name="Trazado 706229" d="M81.617,138.645s-7.089-22.553-21.282-20.129c-9.407,1.606-9.007,16.372,1.88,16.647,7.5.189,14.144-2.023,19.4,3.482" transform="translate(-9.496 -20.948)" fill="#fff"/>
            <path id="Trazado_706230" data-name="Trazado 706230" d="M131.006,90.581s7.585-22.391-5.3-28.81c-8.542-4.255-16.934,7.9-8.306,14.549,5.943,4.578,12.612,6.713,13.609,14.26" transform="translate(-20.141 -10.779)" fill="#fff"/>
            <path id="Trazado_706231" data-name="Trazado 706231" d="M197.591,123s-2.381-14.195,5.99-16.8c5.548-1.727,9.409,6.4,3.577,9.552-4.017,2.174-8.234,2.809-9.567,7.247" transform="translate(-34.923 -18.757)" fill="#fff"/>
            <path id="Trazado_706232" data-name="Trazado 706232" d="M71.406,166.8s-11.218-12.614-19.752-6.882c-5.656,3.8-1.809,13.193,6.1,10.292,5.028-1.844,8.62-5.456,13.656-3.41" transform="translate(-8.668 -28.044)" fill="#fff"/>
            <path id="Trazado_706233" data-name="Trazado 706233" d="M248.479,251.852s18.361-14.891,28.858-5.036c6.957,6.532-2,19.1-10.757,12.843-6.1-4.362-10.677-9.495-18.1-7.808" transform="translate(-43.987 -43.096)" fill="#fff"/>
            <path id="Trazado_706234" data-name="Trazado 706234" d="M34.561,266.083A7.438,7.438,0,1,1,30.01,256.6a7.437,7.437,0,0,1,4.551,9.483" transform="translate(-3.559 -45.35)" fill="#84e7f4"/>
            <line id="Línea_690" data-name="Línea 690" x1="3.535" y1="7.366" transform="translate(19.434 206.249)" fill="none" stroke="#84e7f4" stroke-miterlimit="10" stroke-width="1.937"/>
            <line id="Línea_691" data-name="Línea 691" y1="7.393" x2="2.598" transform="translate(26.022 205.747)" fill="none" stroke="#84e7f4" stroke-miterlimit="10" stroke-width="1.937"/>
            <line id="Línea_692" data-name="Línea 692" y1="3.57" x2="6.464" transform="translate(28.832 212.388)" fill="none" stroke="#84e7f4" stroke-miterlimit="10" stroke-width="1.937"/>
            <line id="Línea_693" data-name="Línea 693" x2="7.393" y2="2.598" transform="translate(28.282 220.129)" fill="none" stroke="#84e7f4" stroke-miterlimit="10" stroke-width="1.937"/>
            <line id="Línea_694" data-name="Línea 694" x2="3.047" y2="6.35" transform="translate(25.899 223.303)" fill="none" stroke="#84e7f4" stroke-miterlimit="10" stroke-width="1.937"/>
            <line id="Línea_695" data-name="Línea 695" x1="2.643" y2="7.518" transform="translate(19.201 223.427)" fill="none" stroke="#84e7f4" stroke-miterlimit="10" stroke-width="1.937"/>
            <line id="Línea_696" data-name="Línea 696" x1="5.716" y2="2.743" transform="translate(12.64 220.934)" fill="none" stroke="#84e7f4" stroke-miterlimit="10" stroke-width="1.937"/>
            <line id="Línea_697" data-name="Línea 697" x1="6.704" y1="2.356" transform="translate(11.288 213.804)" fill="none" stroke="#84e7f4" stroke-miterlimit="10" stroke-width="1.937"/>
            <path id="Trazado_706235" data-name="Trazado 706235" d="M37.444,248.478a2.844,2.844,0,1,1-1.741-3.627,2.845,2.845,0,0,1,1.741,3.627" transform="translate(-5.65 -43.316)" fill="#84e7f4"/>
            <path id="Trazado_706236" data-name="Trazado 706236" d="M25.091,248.584a2.845,2.845,0,1,1-1.741-3.627,2.845,2.845,0,0,1,1.741,3.627" transform="translate(-3.463 -43.335)" fill="#84e7f4"/>
            <path id="Trazado_706237" data-name="Trazado 706237" d="M14.338,259.06a2.844,2.844,0,1,1-1.741-3.627,2.845,2.845,0,0,1,1.741,3.627" transform="translate(-1.559 -45.19)" fill="#84e7f4"/>
            <path id="Trazado_706238" data-name="Trazado 706238" d="M15.1,273.125a2.844,2.844,0,1,1-1.741-3.627,2.845,2.845,0,0,1,1.741,3.627" transform="translate(-1.694 -47.68)" fill="#84e7f4"/>
            <path id="Trazado_706239" data-name="Trazado 706239" d="M24.634,282.978a2.845,2.845,0,1,1-1.741-3.627,2.845,2.845,0,0,1,1.741,3.627" transform="translate(-3.382 -49.424)" fill="#84e7f4"/>
            <path id="Trazado_706240" data-name="Trazado 706240" d="M38.081,281.546a2.844,2.844,0,1,1-1.741-3.627,2.845,2.845,0,0,1,1.741,3.627" transform="translate(-5.763 -49.17)" fill="#84e7f4"/>
            <path id="Trazado_706241" data-name="Trazado 706241" d="M47.82,271.683a2.844,2.844,0,1,1-1.741-3.627,2.845,2.845,0,0,1,1.741,3.627" transform="translate(-7.487 -47.424)" fill="#84e7f4"/>
            <path id="Trazado_706242" data-name="Trazado 706242" d="M46.938,256.833a2.845,2.845,0,1,1-1.741-3.627,2.845,2.845,0,0,1,1.741,3.627" transform="translate(-7.33 -44.795)" fill="#84e7f4"/>
            <g id="Grupo_975918" data-name="Grupo 975918" transform="translate(21.186 211.871)" opacity="0.5" style="mix-blend-mode: screen;isolation: isolate">
              <g id="Grupo_975917" data-name="Grupo 975917">
                <g id="Grupo_975916" data-name="Grupo 975916" clip-path="url(#clip-path-6)">
                  <path id="Trazado_706243" data-name="Trazado 706243" d="M28.884,259.6a1.616,1.616,0,1,1-.988-2.06,1.616,1.616,0,0,1,.988,2.06" transform="translate(-25.744 -257.445)" fill="#84e7f4"/>
                </g>
              </g>
            </g>
            <g id="Grupo_975921" data-name="Grupo 975921" transform="translate(22 212.304)" opacity="0.5" style="mix-blend-mode: screen;isolation: isolate">
              <g id="Grupo_975920" data-name="Grupo 975920">
                <g id="Grupo_975919" data-name="Grupo 975919" clip-path="url(#clip-path-7)">
                  <path id="Trazado_706244" data-name="Trazado 706244" d="M27.691,258.629a.493.493,0,1,1-.3-.629.494.494,0,0,1,.3.629" transform="translate(-26.733 -257.972)" fill="#84e7f4"/>
                </g>
              </g>
            </g>
            <g id="Grupo_975924" data-name="Grupo 975924" transform="translate(18.858 213.811)" opacity="0.5" style="mix-blend-mode: screen;isolation: isolate">
              <g id="Grupo_975923" data-name="Grupo 975923">
                <g id="Grupo_975922" data-name="Grupo 975922" clip-path="url(#clip-path-8)">
                  <path id="Trazado_706245" data-name="Trazado 706245" d="M24.136,261.562a.907.907,0,1,1,.537-1.165.907.907,0,0,1-.537,1.165" transform="translate(-22.914 -259.803)" fill="#84e7f4"/>
                </g>
              </g>
            </g>
            <g id="Grupo_975927" data-name="Grupo 975927" transform="translate(19.676 214.061)" opacity="0.5" style="mix-blend-mode: screen;isolation: isolate">
              <g id="Grupo_975926" data-name="Grupo 975926">
                <g id="Grupo_975925" data-name="Grupo 975925" clip-path="url(#clip-path-9)">
                  <path id="Trazado_706246" data-name="Trazado 706246" d="M24.281,260.644a.277.277,0,1,1,.164-.356.277.277,0,0,1-.164.356" transform="translate(-23.908 -260.107)" fill="#84e7f4"/>
                </g>
              </g>
            </g>
            <path id="Trazado_706247" data-name="Trazado 706247" d="M130.177,394.561a7.438,7.438,0,1,1-4.55-9.483,7.437,7.437,0,0,1,4.55,9.483" transform="translate(-20.485 -68.094)" fill="#84e7f4"/>
            <line id="Línea_698" data-name="Línea 698" x1="3.535" y1="7.366" transform="translate(98.124 311.983)" fill="none" stroke="#84e7f4" stroke-miterlimit="10" stroke-width="1.937"/>
            <line id="Línea_699" data-name="Línea 699" y1="7.393" x2="2.598" transform="translate(104.711 311.482)" fill="none" stroke="#84e7f4" stroke-miterlimit="10" stroke-width="1.937"/>
            <line id="Línea_700" data-name="Línea 700" y1="3.571" x2="6.464" transform="translate(107.522 318.121)" fill="none" stroke="#84e7f4" stroke-miterlimit="10" stroke-width="1.937"/>
            <line id="Línea_701" data-name="Línea 701" x2="7.393" y2="2.598" transform="translate(106.971 325.863)" fill="none" stroke="#84e7f4" stroke-miterlimit="10" stroke-width="1.937"/>
            <line id="Línea_702" data-name="Línea 702" x2="3.047" y2="6.35" transform="translate(104.588 329.038)" fill="none" stroke="#84e7f4" stroke-miterlimit="10" stroke-width="1.937"/>
            <line id="Línea_703" data-name="Línea 703" x1="2.643" y2="7.518" transform="translate(97.89 329.161)" fill="none" stroke="#84e7f4" stroke-miterlimit="10" stroke-width="1.937"/>
            <line id="Línea_704" data-name="Línea 704" x1="5.716" y2="2.743" transform="translate(91.329 326.668)" fill="none" stroke="#84e7f4" stroke-miterlimit="10" stroke-width="1.937"/>
            <line id="Línea_705" data-name="Línea 705" x1="6.704" y1="2.356" transform="translate(89.977 319.538)" fill="none" stroke="#84e7f4" stroke-miterlimit="10" stroke-width="1.937"/>
            <path id="Trazado_706248" data-name="Trazado 706248" d="M133.06,376.956a2.844,2.844,0,1,1-1.741-3.627,2.845,2.845,0,0,1,1.741,3.627" transform="translate(-22.576 -66.06)" fill="#84e7f4"/>
            <path id="Trazado_706249" data-name="Trazado 706249" d="M120.707,377.062a2.845,2.845,0,1,1-1.741-3.627,2.845,2.845,0,0,1,1.741,3.627" transform="translate(-20.389 -66.079)" fill="#84e7f4"/>
            <path id="Trazado_706250" data-name="Trazado 706250" d="M109.954,387.538a2.844,2.844,0,1,1-1.741-3.627,2.845,2.845,0,0,1,1.741,3.627" transform="translate(-18.486 -67.934)" fill="#84e7f4"/>
            <path id="Trazado_706251" data-name="Trazado 706251" d="M110.712,401.6a2.844,2.844,0,1,1-1.741-3.627,2.845,2.845,0,0,1,1.741,3.627" transform="translate(-18.62 -70.424)" fill="#84e7f4"/>
            <path id="Trazado_706252" data-name="Trazado 706252" d="M120.25,411.456a2.845,2.845,0,1,1-1.741-3.627,2.845,2.845,0,0,1,1.741,3.627" transform="translate(-20.309 -72.168)" fill="#84e7f4"/>
            <path id="Trazado_706253" data-name="Trazado 706253" d="M133.7,410.024a2.844,2.844,0,1,1-1.741-3.627,2.845,2.845,0,0,1,1.741,3.627" transform="translate(-22.689 -71.914)" fill="#84e7f4"/>
            <path id="Trazado_706254" data-name="Trazado 706254" d="M143.436,400.161a2.844,2.844,0,1,1-1.741-3.627,2.845,2.845,0,0,1,1.741,3.627" transform="translate(-24.413 -70.168)" fill="#84e7f4"/>
            <path id="Trazado_706255" data-name="Trazado 706255" d="M142.554,385.311a2.845,2.845,0,1,1-1.741-3.627,2.845,2.845,0,0,1,1.741,3.627" transform="translate(-24.257 -67.539)" fill="#84e7f4"/>
            <g id="Grupo_975930" data-name="Grupo 975930" transform="translate(99.876 317.605)" opacity="0.5" style="mix-blend-mode: screen;isolation: isolate">
              <g id="Grupo_975929" data-name="Grupo 975929">
                <g id="Grupo_975928" data-name="Grupo 975928" clip-path="url(#clip-path-6)">
                  <path id="Trazado_706256" data-name="Trazado 706256" d="M124.5,388.075a1.616,1.616,0,1,1-.988-2.061,1.615,1.615,0,0,1,.988,2.061" transform="translate(-121.36 -385.923)" fill="#84e7f4"/>
                </g>
              </g>
            </g>
            <g id="Grupo_975933" data-name="Grupo 975933" transform="translate(100.69 318.038)" opacity="0.5" style="mix-blend-mode: screen;isolation: isolate">
              <g id="Grupo_975932" data-name="Grupo 975932">
                <g id="Grupo_975931" data-name="Grupo 975931" clip-path="url(#clip-path-11)">
                  <path id="Trazado_706257" data-name="Trazado 706257" d="M123.307,387.107a.493.493,0,1,1-.3-.629.494.494,0,0,1,.3.629" transform="translate(-122.349 -386.45)" fill="#84e7f4"/>
                </g>
              </g>
            </g>
            <g id="Grupo_975936" data-name="Grupo 975936" transform="translate(97.547 319.545)" opacity="0.5" style="mix-blend-mode: screen;isolation: isolate">
              <g id="Grupo_975935" data-name="Grupo 975935">
                <g id="Grupo_975934" data-name="Grupo 975934" clip-path="url(#clip-path-12)">
                  <path id="Trazado_706258" data-name="Trazado 706258" d="M119.752,390.041a.907.907,0,1,1,.537-1.165.907.907,0,0,1-.537,1.165" transform="translate(-118.53 -388.281)" fill="#84e7f4"/>
                </g>
              </g>
            </g>
            <g id="Grupo_975939" data-name="Grupo 975939" transform="translate(98.365 319.795)" opacity="0.5" style="mix-blend-mode: screen;isolation: isolate">
              <g id="Grupo_975938" data-name="Grupo 975938">
                <g id="Grupo_975937" data-name="Grupo 975937" clip-path="url(#clip-path-9)">
                  <path id="Trazado_706259" data-name="Trazado 706259" d="M119.9,389.122a.277.277,0,1,1,.164-.356.277.277,0,0,1-.164.356" transform="translate(-119.524 -388.585)" fill="#84e7f4"/>
                </g>
              </g>
            </g>
            <path id="Trazado_706260" data-name="Trazado 706260" d="M295.063,305.755a7.438,7.438,0,1,0-3.405-9.951,7.437,7.437,0,0,0,3.405,9.951" transform="translate(-51.496 -51.627)" fill="#bbf484"/>
            <line id="Línea_706" data-name="Línea 706" x1="2.645" y1="7.73" transform="translate(241.658 235.69)" fill="none" stroke="#bbf484" stroke-miterlimit="10" stroke-width="1.937"/>
            <line id="Línea_707" data-name="Línea 707" x1="7.036" y1="3.448" transform="translate(234.756 241.774)" fill="none" stroke="#bbf484" stroke-miterlimit="10" stroke-width="1.937"/>
            <line id="Línea_708" data-name="Línea 708" x1="7.112" y2="1.987" transform="translate(234.653 249.202)" fill="none" stroke="#bbf484" stroke-miterlimit="10" stroke-width="1.937"/>
            <line id="Línea_709" data-name="Línea 709" x1="3.448" y2="7.036" transform="translate(241.634 251.789)" fill="none" stroke="#bbf484" stroke-miterlimit="10" stroke-width="1.937"/>
            <line id="Línea_710" data-name="Línea 710" x2="2.28" y2="6.664" transform="translate(249.007 252.381)" fill="none" stroke="#bbf484" stroke-miterlimit="10" stroke-width="1.937"/>
            <line id="Línea_711" data-name="Línea 711" x2="7.156" y2="3.507" transform="translate(251.985 249.625)" fill="none" stroke="#bbf484" stroke-miterlimit="10" stroke-width="1.937"/>
            <line id="Línea_712" data-name="Línea 712" y1="2.052" x2="5.998" transform="translate(252.723 243.35)" fill="none" stroke="#bbf484" stroke-miterlimit="10" stroke-width="1.937"/>
            <line id="Línea_713" data-name="Línea 713" y1="6.381" x2="3.126" transform="translate(249.635 235.363)" fill="none" stroke="#bbf484" stroke-miterlimit="10" stroke-width="1.937"/>
            <path id="Trazado_706261" data-name="Trazado 706261" d="M281.662,294.816a2.844,2.844,0,1,0-1.3-3.806,2.844,2.844,0,0,0,1.3,3.806" transform="translate(-49.579 -51.234)" fill="#bbf484"/>
            <path id="Trazado_706262" data-name="Trazado 706262" d="M290.543,286.229a2.844,2.844,0,1,0-1.3-3.806,2.845,2.845,0,0,0,1.3,3.806" transform="translate(-51.152 -49.714)" fill="#bbf484"/>
            <path id="Trazado_706263" data-name="Trazado 706263" d="M305.555,286.157a2.844,2.844,0,1,0-1.3-3.806,2.844,2.844,0,0,0,1.3,3.806" transform="translate(-53.809 -49.701)" fill="#bbf484"/>
            <path id="Trazado_706264" data-name="Trazado 706264" d="M314.878,296.717a2.844,2.844,0,1,0-1.3-3.806,2.844,2.844,0,0,0,1.3,3.806" transform="translate(-55.459 -51.571)" fill="#bbf484"/>
            <path id="Trazado_706265" data-name="Trazado 706265" d="M314.987,310.429a2.844,2.844,0,1,0-1.3-3.806,2.845,2.845,0,0,0,1.3,3.806" transform="translate(-55.479 -53.998)" fill="#bbf484"/>
            <path id="Trazado_706266" data-name="Trazado 706266" d="M304.4,318.838a2.844,2.844,0,1,0-1.3-3.806,2.844,2.844,0,0,0,1.3,3.806" transform="translate(-53.604 -55.487)" fill="#bbf484"/>
            <path id="Trazado_706267" data-name="Trazado 706267" d="M290.537,318.636a2.844,2.844,0,1,0-1.3-3.806,2.844,2.844,0,0,0,1.3,3.806" transform="translate(-51.15 -55.451)" fill="#bbf484"/>
            <path id="Trazado_706268" data-name="Trazado 706268" d="M280.752,307.43a2.844,2.844,0,1,0-1.3-3.806,2.845,2.845,0,0,0,1.3,3.806" transform="translate(-49.418 -53.467)" fill="#bbf484"/>
            <g id="Grupo_975942" data-name="Grupo 975942" transform="translate(242.715 241.596)" opacity="0.5" style="mix-blend-mode: screen;isolation: isolate">
              <g id="Grupo_975941" data-name="Grupo 975941">
                <g id="Grupo_975940" data-name="Grupo 975940" clip-path="url(#clip-path-6)">
                  <path id="Trazado_706269" data-name="Trazado 706269" d="M295.828,296.631a1.616,1.616,0,1,0-.74-2.162,1.615,1.615,0,0,0,.74,2.162" transform="translate(-294.924 -293.564)" fill="#bbf484"/>
                </g>
              </g>
            </g>
            <g id="Grupo_975945" data-name="Grupo 975945" transform="translate(243.575 242.01)" opacity="0.5" style="mix-blend-mode: screen;isolation: isolate">
              <g id="Grupo_975944" data-name="Grupo 975944">
                <g id="Grupo_975943" data-name="Grupo 975943" clip-path="url(#clip-path-7)">
                  <path id="Trazado_706270" data-name="Trazado 706270" d="M296.245,295a.493.493,0,1,0-.226-.659.491.491,0,0,0,.226.659" transform="translate(-295.969 -294.068)" fill="#bbf484"/>
                </g>
              </g>
            </g>
            <g id="Grupo_975948" data-name="Grupo 975948" transform="translate(246.452 241.052)" opacity="0.5" style="mix-blend-mode: screen;isolation: isolate">
              <g id="Grupo_975947" data-name="Grupo 975947">
                <g id="Grupo_975946" data-name="Grupo 975946" clip-path="url(#clip-path-12)">
                  <path id="Trazado_706271" data-name="Trazado 706271" d="M300.746,294.639a.908.908,0,1,0-1.2-.454.908.908,0,0,0,1.2.454" transform="translate(-299.465 -292.904)" fill="#bbf484"/>
                </g>
              </g>
            </g>
            <g id="Grupo_975951" data-name="Grupo 975951" transform="translate(246.682 241.543)" opacity="0.5" style="mix-blend-mode: screen;isolation: isolate">
              <g id="Grupo_975950" data-name="Grupo 975950">
                <g id="Grupo_975949" data-name="Grupo 975949" clip-path="url(#clip-path-9)">
                  <path id="Trazado_706272" data-name="Trazado 706272" d="M300.136,294.03a.277.277,0,1,0-.366-.138.277.277,0,0,0,.366.138" transform="translate(-299.745 -293.5)" fill="#bbf484"/>
                </g>
              </g>
            </g>
            <path id="Trazado_706273" data-name="Trazado 706273" d="M19.51,359.111A9.125,9.125,0,1,0,15.332,346.9a9.124,9.124,0,0,0,4.178,12.209" transform="translate(-2.549 -60.506)" fill="#bbf484"/>
            <line id="Línea_714" data-name="Línea 714" x1="3.246" y1="9.484" transform="translate(14.619 275.985)" fill="none" stroke="#bbf484" stroke-miterlimit="10" stroke-width="2.376"/>
            <line id="Línea_715" data-name="Línea 715" x1="8.632" y1="4.231" transform="translate(6.153 283.449)" fill="none" stroke="#bbf484" stroke-miterlimit="10" stroke-width="2.376"/>
            <line id="Línea_716" data-name="Línea 716" x1="8.725" y2="2.438" transform="translate(6.027 292.562)" fill="none" stroke="#bbf484" stroke-miterlimit="10" stroke-width="2.376"/>
            <line id="Línea_717" data-name="Línea 717" x1="4.231" y2="8.632" transform="translate(14.591 295.736)" fill="none" stroke="#bbf484" stroke-miterlimit="10" stroke-width="2.376"/>
            <line id="Línea_718" data-name="Línea 718" x2="2.798" y2="8.175" transform="translate(23.637 296.463)" fill="none" stroke="#bbf484" stroke-miterlimit="10" stroke-width="2.376"/>
            <line id="Línea_719" data-name="Línea 719" x2="8.779" y2="4.303" transform="translate(27.29 293.082)" fill="none" stroke="#bbf484" stroke-miterlimit="10" stroke-width="2.376"/>
            <line id="Línea_720" data-name="Línea 720" y1="2.518" x2="7.358" transform="translate(28.196 285.382)" fill="none" stroke="#bbf484" stroke-miterlimit="10" stroke-width="2.376"/>
            <line id="Línea_721" data-name="Línea 721" y1="7.828" x2="3.836" transform="translate(24.407 275.585)" fill="none" stroke="#bbf484" stroke-miterlimit="10" stroke-width="2.376"/>
            <path id="Trazado_706274" data-name="Trazado 706274" d="M3.071,345.691a3.49,3.49,0,1,0-1.6-4.67,3.49,3.49,0,0,0,1.6,4.67" transform="translate(-0.198 -60.024)" fill="#bbf484"/>
            <path id="Trazado_706275" data-name="Trazado 706275" d="M13.967,335.155a3.49,3.49,0,1,0-1.6-4.67,3.49,3.49,0,0,0,1.6,4.67" transform="translate(-2.126 -58.159)" fill="#bbf484"/>
            <path id="Trazado_706276" data-name="Trazado 706276" d="M32.384,335.068a3.49,3.49,0,1,0-1.6-4.67,3.49,3.49,0,0,0,1.6,4.67" transform="translate(-5.387 -58.143)" fill="#bbf484"/>
            <path id="Trazado_706277" data-name="Trazado 706277" d="M43.821,348.022a3.49,3.49,0,1,0-1.6-4.67,3.49,3.49,0,0,0,1.6,4.67" transform="translate(-7.411 -60.436)" fill="#bbf484"/>
            <path id="Trazado_706278" data-name="Trazado 706278" d="M43.955,364.845a3.49,3.49,0,1,0-1.6-4.67,3.49,3.49,0,0,0,1.6,4.67" transform="translate(-7.435 -63.414)" fill="#bbf484"/>
            <path id="Trazado_706279" data-name="Trazado 706279" d="M30.962,375.161a3.49,3.49,0,1,0-1.6-4.67,3.49,3.49,0,0,0,1.6,4.67" transform="translate(-5.135 -65.241)" fill="#bbf484"/>
            <path id="Trazado_706280" data-name="Trazado 706280" d="M13.96,374.913a3.49,3.49,0,1,0-1.6-4.67,3.49,3.49,0,0,0,1.6,4.67" transform="translate(-2.125 -65.197)" fill="#bbf484"/>
            <path id="Trazado_706281" data-name="Trazado 706281" d="M1.955,361.166a3.49,3.49,0,1,0-1.6-4.67,3.49,3.49,0,0,0,1.6,4.67" transform="translate(0 -62.763)" fill="#bbf484"/>
            <g id="Grupo_975954" data-name="Grupo 975954" transform="translate(15.917 283.231)" opacity="0.5" style="mix-blend-mode: screen;isolation: isolate">
              <g id="Grupo_975953" data-name="Grupo 975953">
                <g id="Grupo_975952" data-name="Grupo 975952" clip-path="url(#clip-path-18)">
                  <path id="Trazado_706282" data-name="Trazado 706282" d="M20.451,347.918a1.982,1.982,0,1,0-.908-2.652,1.982,1.982,0,0,0,.908,2.652" transform="translate(-19.34 -344.155)" fill="#bbf484"/>
                </g>
              </g>
            </g>
            <g id="Grupo_975957" data-name="Grupo 975957" transform="translate(16.972 283.739)" opacity="0.5" style="mix-blend-mode: screen;isolation: isolate">
              <g id="Grupo_975956" data-name="Grupo 975956">
                <g id="Grupo_975955" data-name="Grupo 975955" clip-path="url(#clip-path-19)">
                  <path id="Trazado_706283" data-name="Trazado 706283" d="M20.961,345.921a.6.6,0,1,0-.277-.809.6.6,0,0,0,.277.809" transform="translate(-20.623 -344.773)" fill="#bbf484"/>
                </g>
              </g>
            </g>
            <g id="Grupo_975960" data-name="Grupo 975960" transform="translate(20.502 282.564)" opacity="0.5" style="mix-blend-mode: screen;isolation: isolate">
              <g id="Grupo_975959" data-name="Grupo 975959">
                <g id="Grupo_975958" data-name="Grupo 975958" clip-path="url(#clip-path-20)">
                  <path id="Trazado_706284" data-name="Trazado 706284" d="M26.484,345.474a1.113,1.113,0,1,0-1.472-.557,1.114,1.114,0,0,0,1.472.557" transform="translate(-24.912 -343.345)" fill="#bbf484"/>
                </g>
              </g>
            </g>
            <g id="Grupo_975963" data-name="Grupo 975963" transform="translate(20.785 283.166)" opacity="0.5" style="mix-blend-mode: screen;isolation: isolate">
              <g id="Grupo_975962" data-name="Grupo 975962">
                <g id="Grupo_975961" data-name="Grupo 975961" clip-path="url(#clip-path-21)">
                  <path id="Trazado_706285" data-name="Trazado 706285" d="M25.735,344.726a.34.34,0,1,0-.449-.17.34.34,0,0,0,.449.17" transform="translate(-25.255 -344.077)" fill="#bbf484"/>
                </g>
              </g>
            </g>
            <path id="Trazado_706286" data-name="Trazado 706286" d="M271.839,204.97a6.119,6.119,0,1,0,4.195-7.569,6.119,6.119,0,0,0-4.195,7.569" transform="translate(-48.08 -34.903)" fill="#dc84f4"/>
            <line id="Línea_722" data-name="Línea 722" y1="5.879" x2="3.259" transform="translate(230.7 158.729)" fill="none" stroke="#dc84f4" stroke-miterlimit="10" stroke-width="1.593"/>
            <line id="Línea_723" data-name="Línea 723" x1="1.778" y1="6.197" transform="translate(226.438 157.874)" fill="none" stroke="#dc84f4" stroke-miterlimit="10" stroke-width="1.593"/>
            <line id="Línea_724" data-name="Línea 724" x1="5.136" y1="3.244" transform="translate(220.635 163.006)" fill="none" stroke="#dc84f4" stroke-miterlimit="10" stroke-width="1.593"/>
            <line id="Línea_725" data-name="Línea 725" x1="6.197" y2="1.778" transform="translate(219.825 169.702)" fill="none" stroke="#dc84f4" stroke-miterlimit="10" stroke-width="1.593"/>
            <line id="Línea_726" data-name="Línea 726" x1="2.809" y2="5.069" transform="translate(225.017 172.424)" fill="none" stroke="#dc84f4" stroke-miterlimit="10" stroke-width="1.593"/>
            <line id="Línea_727" data-name="Línea 727" x2="1.807" y2="6.302" transform="translate(231.151 172.721)" fill="none" stroke="#dc84f4" stroke-miterlimit="10" stroke-width="1.593"/>
            <line id="Línea_728" data-name="Línea 728" x2="4.562" y2="2.528" transform="translate(234.136 170.842)" fill="none" stroke="#dc84f4" stroke-miterlimit="10" stroke-width="1.593"/>
            <line id="Línea_729" data-name="Línea 729" y1="1.611" x2="5.619" transform="translate(234.665 165.327)" fill="none" stroke="#dc84f4" stroke-miterlimit="10" stroke-width="1.593"/>
            <path id="Trazado_706287" data-name="Trazado 706287" d="M271.993,190.421a2.34,2.34,0,1,0,1.6-2.894,2.34,2.34,0,0,0-1.6,2.894" transform="translate(-48.134 -33.181)" fill="#dc84f4"/>
            <path id="Trazado_706288" data-name="Trazado 706288" d="M282.134,191.1a2.34,2.34,0,1,0,1.6-2.894,2.34,2.34,0,0,0-1.6,2.894" transform="translate(-49.929 -33.302)" fill="#dc84f4"/>
            <path id="Trazado_706289" data-name="Trazado 706289" d="M290.46,200.226a2.34,2.34,0,1,0,1.6-2.894,2.34,2.34,0,0,0-1.6,2.894" transform="translate(-51.403 -34.917)" fill="#dc84f4"/>
            <path id="Trazado_706290" data-name="Trazado 706290" d="M289.158,211.742a2.34,2.34,0,1,0,1.6-2.894,2.34,2.34,0,0,0-1.6,2.894" transform="translate(-51.172 -36.955)" fill="#dc84f4"/>
            <path id="Trazado_706291" data-name="Trazado 706291" d="M280.849,219.374a2.34,2.34,0,1,0,1.6-2.894,2.34,2.34,0,0,0-1.6,2.894" transform="translate(-49.701 -38.306)" fill="#dc84f4"/>
            <path id="Trazado_706292" data-name="Trazado 706292" d="M269.874,217.549a2.34,2.34,0,1,0,1.6-2.894,2.34,2.34,0,0,0-1.6,2.894" transform="translate(-47.759 -37.983)" fill="#dc84f4"/>
            <path id="Trazado_706293" data-name="Trazado 706293" d="M262.351,208.979a2.34,2.34,0,1,0,1.6-2.894,2.34,2.34,0,0,0-1.6,2.894" transform="translate(-46.427 -36.466)" fill="#dc84f4"/>
            <path id="Trazado_706294" data-name="Trazado 706294" d="M263.792,196.825a2.34,2.34,0,1,0,1.6-2.894,2.34,2.34,0,0,0-1.6,2.894" transform="translate(-46.682 -34.315)" fill="#dc84f4"/>
            <g id="Grupo_975966" data-name="Grupo 975966" transform="translate(229.513 163.181)" opacity="0.5" style="mix-blend-mode: screen;isolation: isolate">
              <g id="Grupo_975965" data-name="Grupo 975965">
                <g id="Grupo_975964" data-name="Grupo 975964" clip-path="url(#clip-path-22)">
                  <path id="Trazado_706295" data-name="Trazado 706295" d="M278.934,199.978a1.33,1.33,0,1,0,.911-1.644,1.33,1.33,0,0,0-.911,1.644" transform="translate(-278.882 -198.282)" fill="#dc84f4"/>
                </g>
              </g>
            </g>
            <g id="Grupo_975969" data-name="Grupo 975969" transform="translate(230.724 163.554)" opacity="0.5" style="mix-blend-mode: screen;isolation: isolate">
              <g id="Grupo_975968" data-name="Grupo 975968">
                <g id="Grupo_975967" data-name="Grupo 975967" clip-path="url(#clip-path-23)">
                  <path id="Trazado_706296" data-name="Trazado 706296" d="M280.37,199.253a.406.406,0,1,0,.278-.5.406.406,0,0,0-.278.5" transform="translate(-280.354 -198.735)" fill="#dc84f4"/>
                </g>
              </g>
            </g>
            <g id="Grupo_975972" data-name="Grupo 975972" transform="translate(232.531 164.922)" opacity="0.5" style="mix-blend-mode: screen;isolation: isolate">
              <g id="Grupo_975971" data-name="Grupo 975971">
                <g id="Grupo_975970" data-name="Grupo 975970" clip-path="url(#clip-path-24)">
                  <path id="Trazado_706297" data-name="Trazado 706297" d="M283,201.829a.747.747,0,1,0-.385-.983.747.747,0,0,0,.385.983" transform="translate(-282.549 -200.398)" fill="#dc84f4"/>
                </g>
              </g>
            </g>
            <g id="Grupo_975975" data-name="Grupo 975975" transform="translate(232.914 165.12)" opacity="0.5" style="mix-blend-mode: screen;isolation: isolate">
              <g id="Grupo_975974" data-name="Grupo 975974">
                <g id="Grupo_975973" data-name="Grupo 975973" clip-path="url(#clip-path-25)">
                  <path id="Trazado_706298" data-name="Trazado 706298" d="M283.152,201.074a.228.228,0,1,0-.118-.3.228.228,0,0,0,.118.3" transform="translate(-283.015 -200.638)" fill="#dc84f4"/>
                </g>
              </g>
            </g>
            <path id="Trazado_706299" data-name="Trazado 706299" d="M228.014,344a6.119,6.119,0,1,0,4.195-7.569A6.119,6.119,0,0,0,228.014,344" transform="translate(-40.322 -59.514)" fill="#dc84f4"/>
            <line id="Línea_730" data-name="Línea 730" y1="5.879" x2="3.259" transform="translate(194.633 273.146)" fill="none" stroke="#dc84f4" stroke-miterlimit="10" stroke-width="1.593"/>
            <line id="Línea_731" data-name="Línea 731" x1="1.778" y1="6.197" transform="translate(190.371 272.291)" fill="none" stroke="#dc84f4" stroke-miterlimit="10" stroke-width="1.593"/>
            <line id="Línea_732" data-name="Línea 732" x1="5.137" y1="3.244" transform="translate(184.567 277.423)" fill="none" stroke="#dc84f4" stroke-miterlimit="10" stroke-width="1.593"/>
            <line id="Línea_733" data-name="Línea 733" x1="6.197" y2="1.778" transform="translate(183.759 284.119)" fill="none" stroke="#dc84f4" stroke-miterlimit="10" stroke-width="1.593"/>
            <line id="Línea_734" data-name="Línea 734" x1="2.809" y2="5.069" transform="translate(188.951 286.841)" fill="none" stroke="#dc84f4" stroke-miterlimit="10" stroke-width="1.593"/>
            <line id="Línea_735" data-name="Línea 735" x2="1.807" y2="6.302" transform="translate(195.084 287.138)" fill="none" stroke="#dc84f4" stroke-miterlimit="10" stroke-width="1.593"/>
            <line id="Línea_736" data-name="Línea 736" x2="4.562" y2="2.528" transform="translate(198.069 285.259)" fill="none" stroke="#dc84f4" stroke-miterlimit="10" stroke-width="1.593"/>
            <line id="Línea_737" data-name="Línea 737" y1="1.611" x2="5.619" transform="translate(198.598 279.744)" fill="none" stroke="#dc84f4" stroke-miterlimit="10" stroke-width="1.593"/>
            <path id="Trazado_706300" data-name="Trazado 706300" d="M228.168,329.45a2.34,2.34,0,1,0,1.6-2.894,2.34,2.34,0,0,0-1.6,2.894" transform="translate(-40.376 -57.793)" fill="#dc84f4"/>
            <path id="Trazado_706301" data-name="Trazado 706301" d="M238.309,330.132a2.34,2.34,0,1,0,1.6-2.894,2.34,2.34,0,0,0-1.6,2.894" transform="translate(-42.171 -57.913)" fill="#dc84f4"/>
            <path id="Trazado_706302" data-name="Trazado 706302" d="M246.635,339.255a2.34,2.34,0,1,0,1.6-2.894,2.34,2.34,0,0,0-1.6,2.894" transform="translate(-43.645 -59.528)" fill="#dc84f4"/>
            <path id="Trazado_706303" data-name="Trazado 706303" d="M245.333,350.771a2.34,2.34,0,1,0,1.6-2.894,2.34,2.34,0,0,0-1.6,2.894" transform="translate(-43.414 -61.567)" fill="#dc84f4"/>
            <path id="Trazado_706304" data-name="Trazado 706304" d="M237.024,358.4a2.34,2.34,0,1,0,1.6-2.894,2.34,2.34,0,0,0-1.6,2.894" transform="translate(-41.943 -62.918)" fill="#dc84f4"/>
            <path id="Trazado_706305" data-name="Trazado 706305" d="M226.049,356.578a2.34,2.34,0,1,0,1.6-2.894,2.34,2.34,0,0,0-1.6,2.894" transform="translate(-40 -62.595)" fill="#dc84f4"/>
            <path id="Trazado_706306" data-name="Trazado 706306" d="M218.527,348.008a2.34,2.34,0,1,0,1.6-2.894,2.34,2.34,0,0,0-1.6,2.894" transform="translate(-38.669 -61.078)" fill="#dc84f4"/>
            <path id="Trazado_706307" data-name="Trazado 706307" d="M219.967,335.853a2.34,2.34,0,1,0,1.6-2.894,2.34,2.34,0,0,0-1.6,2.894" transform="translate(-38.924 -58.926)" fill="#dc84f4"/>
            <g id="Grupo_975978" data-name="Grupo 975978" transform="translate(193.446 277.598)" opacity="0.5" style="mix-blend-mode: screen;isolation: isolate">
              <g id="Grupo_975977" data-name="Grupo 975977">
                <g id="Grupo_975976" data-name="Grupo 975976" clip-path="url(#clip-path-22)">
                  <path id="Trazado_706308" data-name="Trazado 706308" d="M235.109,339.007a1.33,1.33,0,1,0,.911-1.644,1.329,1.329,0,0,0-.911,1.644" transform="translate(-235.057 -337.311)" fill="#dc84f4"/>
                </g>
              </g>
            </g>
            <g id="Grupo_975981" data-name="Grupo 975981" transform="translate(194.657 277.971)" opacity="0.5" style="mix-blend-mode: screen;isolation: isolate">
              <g id="Grupo_975980" data-name="Grupo 975980">
                <g id="Grupo_975979" data-name="Grupo 975979" clip-path="url(#clip-path-23)">
                  <path id="Trazado_706309" data-name="Trazado 706309" d="M236.545,338.282a.405.405,0,1,0,.278-.5.406.406,0,0,0-.278.5" transform="translate(-236.529 -337.764)" fill="#dc84f4"/>
                </g>
              </g>
            </g>
            <g id="Grupo_975984" data-name="Grupo 975984" transform="translate(196.465 279.34)" opacity="0.5" style="mix-blend-mode: screen;isolation: isolate">
              <g id="Grupo_975983" data-name="Grupo 975983">
                <g id="Grupo_975982" data-name="Grupo 975982" clip-path="url(#clip-path-24)">
                  <path id="Trazado_706310" data-name="Trazado 706310" d="M239.173,340.858a.747.747,0,1,0-.385-.983.747.747,0,0,0,.385.983" transform="translate(-238.725 -339.427)" fill="#dc84f4"/>
                </g>
              </g>
            </g>
            <g id="Grupo_975987" data-name="Grupo 975987" transform="translate(196.847 279.536)" opacity="0.5" style="mix-blend-mode: screen;isolation: isolate">
              <g id="Grupo_975986" data-name="Grupo 975986">
                <g id="Grupo_975985" data-name="Grupo 975985" clip-path="url(#clip-path-29)">
                  <path id="Trazado_706311" data-name="Trazado 706311" d="M239.327,340.1a.228.228,0,1,0-.118-.3.229.229,0,0,0,.118.3" transform="translate(-239.19 -339.666)" fill="#dc84f4"/>
                </g>
              </g>
            </g>
          </g>
        </g>
      </g>
    </g>
  </g>
</svg>
