<svg id="Grupo_975533" data-name="Grupo 975533" xmlns="http://www.w3.org/2000/svg" xmlns:xlink="http://www.w3.org/1999/xlink" width="101.218" height="105.389" viewBox="0 0 101.218 105.389">
  <defs>
    <clipPath id="clip-path">
      <rect id="Rectángulo_340830" data-name="Rectángulo 340830" width="101.218" height="105.389" fill="none"/>
    </clipPath>
    <clipPath id="clip-path-2">
      <path id="Trazado_705066" data-name="Trazado 705066" d="M10.635,1165.554,0,1159.894l1.869,6.983,10.634,5.655,6.232-10.792-1.869-6.983Z" transform="translate(0 -1154.757)" fill="#ffc403"/>
    </clipPath>
    <clipPath id="clip-path-3">
      <path id="Trazado_705067" data-name="Trazado 705067" d="M183.087,292.385a42.354,42.354,0,0,0-7.514,28.726q.189,1.74.524,3.475a2.44,2.44,0,0,0,3.005,1.877,2.675,2.675,0,0,0,2.046-3.062,35.937,35.937,0,0,1-.6-4.791,37.28,37.28,0,0,1,6.741-23.494c11.806-17.078,35.026-22.127,51.763-11.253a34.482,34.482,0,0,1,8.61,7.949l8.186,3.3a38.979,38.979,0,0,0-7.388-10.315,39.71,39.71,0,0,0-6.446-5.218,40.755,40.755,0,0,0-22.3-6.528,44.746,44.746,0,0,0-36.623,19.339" transform="translate(-175.337 -273.046)" fill="#ffc403"/>
    </clipPath>
    <clipPath id="clip-path-4">
      <path id="Trazado_705068" data-name="Trazado 705068" d="M390.112,0a3.04,3.04,0,0,0-2.55,1.367c-8.062,12.122-32.471,50.226-32.471,67.2,0,20.335,15.679,36.819,35.021,36.819s35.021-16.485,35.021-36.819c0-16.977-24.409-55.08-32.471-67.2A3.04,3.04,0,0,0,390.112,0Z" transform="translate(-355.091 -0.004)" fill="none"/>
    </clipPath>
    <clipPath id="clip-path-5">
      <rect id="Rectángulo_340827" data-name="Rectángulo 340827" width="101.218" height="105.389" fill="#06d1d1"/>
    </clipPath>
    <clipPath id="clip-path-6">
      <rect id="Rectángulo_340825" data-name="Rectángulo 340825" width="45.392" height="105.389" fill="#06d1d1"/>
    </clipPath>
    <clipPath id="clip-path-7">
      <path id="Trazado_705069" data-name="Trazado 705069" d="M378.439,60.142c1.974-16.336,16.395-23.6,17.583-42.948a42.247,42.247,0,0,0-1.115-12.412c-.84-1.288-1.595-2.432-2.244-3.408a3.062,3.062,0,0,0-5.1,0C379.5,13.5,355.092,51.6,355.092,68.576c0,20.335,15.679,36.819,35.021,36.819a33.437,33.437,0,0,0,10.371-1.642c-19.992-19.385-23.242-33.706-22.044-43.612" transform="translate(-355.092 -0.007)" fill="#06d1d1"/>
    </clipPath>
    <clipPath id="clip-path-8">
      <rect id="Rectángulo_340826" data-name="Rectángulo 340826" width="52.883" height="50.903" fill="#06d1d1"/>
    </clipPath>
    <clipPath id="clip-path-9">
      <path id="Trazado_705073" data-name="Trazado 705073" d="M1878.959,991.675l1.868,6.983,6.231-10.8,10.635,5.66-1.868-6.983-10.634-5.655Z" transform="translate(-1878.959 -980.883)" fill="#ffc403"/>
    </clipPath>
    <clipPath id="clip-path-10">
      <path id="Trazado_705074" data-name="Trazado 705074" d="M376.124,1049.133a2.675,2.675,0,0,0-2.046,3.062,35.924,35.924,0,0,1,.6,4.789,37.284,37.284,0,0,1-6.741,23.5c-11.806,17.078-35.026,22.127-51.76,11.253a34.508,34.508,0,0,1-8-7.173l-8.664-3.8a39.029,39.029,0,0,0,7.251,10.044,39.542,39.542,0,0,0,6.446,5.215c19.052,12.378,45.487,6.634,58.928-12.808a42.366,42.366,0,0,0,7.512-28.725q-.189-1.74-.524-3.475a2.415,2.415,0,0,0-2.4-1.948,2.642,2.642,0,0,0-.6.071" transform="translate(-299.516 -1049.062)" fill="#ffc403"/>
    </clipPath>
  </defs>
  <g id="Grupo_975532" data-name="Grupo 975532" clip-path="url(#clip-path)">
    <g id="Grupo_975513" data-name="Grupo 975513" transform="translate(0 50.692)">
      <g id="Grupo_975512" data-name="Grupo 975512" clip-path="url(#clip-path-2)">
        <rect id="Rectángulo_340821" data-name="Rectángulo 340821" width="25.065" height="25.357" transform="translate(-8.064 12.622) rotate(-57.426)" fill="#ffc403"/>
      </g>
    </g>
    <g id="Grupo_975515" data-name="Grupo 975515" transform="translate(7.697 11.986)">
      <g id="Grupo_975514" data-name="Grupo 975514" clip-path="url(#clip-path-3)">
        <rect id="Rectángulo_340822" data-name="Rectángulo 340822" width="89.135" height="97.517" transform="translate(-25.248 38.149) rotate(-57.426)" fill="#ffc403"/>
      </g>
    </g>
    <g id="Grupo_975517" data-name="Grupo 975517" transform="translate(15.588 0)">
      <g id="Grupo_975516" data-name="Grupo 975516" clip-path="url(#clip-path-4)">
        <rect id="Rectángulo_340823" data-name="Rectángulo 340823" width="122.092" height="99.685" transform="translate(-31.52 94.922) rotate(-71.631)" fill="#06d1d1"/>
      </g>
    </g>
    <g id="Grupo_975527" data-name="Grupo 975527" transform="translate(0 0)">
      <g id="Grupo_975526" data-name="Grupo 975526" clip-path="url(#clip-path-5)">
        <g id="Grupo_975522" data-name="Grupo 975522" transform="translate(15.588 0)" opacity="0.3" style="mix-blend-mode: multiply;isolation: isolate">
          <g id="Grupo_975521" data-name="Grupo 975521" transform="translate(0 0)">
            <g id="Grupo_975520" data-name="Grupo 975520" clip-path="url(#clip-path-6)">
              <g id="Grupo_975519" data-name="Grupo 975519" transform="translate(0 0)">
                <g id="Grupo_975518" data-name="Grupo 975518" clip-path="url(#clip-path-7)">
                  <rect id="Rectángulo_340824" data-name="Rectángulo 340824" width="114.756" height="76.435" transform="translate(-31.656 94.877) rotate(-71.631)" fill="#06d1d1"/>
                </g>
              </g>
            </g>
          </g>
        </g>
        <g id="Grupo_975525" data-name="Grupo 975525" transform="translate(23.738 33.187)" style="mix-blend-mode: overlay;isolation: isolate">
          <g id="Grupo_975524" data-name="Grupo 975524">
            <g id="Grupo_975523" data-name="Grupo 975523" clip-path="url(#clip-path-8)">
              <path id="Trazado_705070" data-name="Trazado 705070" d="M723.2,757.088c-7.258-3.59-16.515,2.4-20.139,8.947a16.78,16.78,0,0,0-1.793,5.014,35.575,35.575,0,0,0-2.359,5.6.666.666,0,0,0,.442.832l.052.014a.667.667,0,0,0,.78-.456c.035-.113,3.54-11.32,9.982-13.226s13.967,3.77,14.042,3.828c0,0-13.145-8.99-19.063,2.72a8.145,8.145,0,0,1,2.251-.7c4.63-.711,7.211,3.157,12.785,3.726,2.411.246,5.9-.072,10.365-2.777-.185-5.89-2.829-11.287-7.344-13.521" transform="translate(-691.938 -756.01)" fill="#06d1d1"/>
              <path id="Trazado_705071" data-name="Trazado 705071" d="M1320.731,1170.927c6.051-5.381,3.974-16.208-.736-22.025a16.789,16.789,0,0,0-3.975-3.544,35.565,35.565,0,0,0-4.3-4.287.666.666,0,0,0-.937.1q-.017.021-.032.043a.667.667,0,0,0,.129.894c.092.075,9.165,7.529,8.514,14.215s-8.736,11.532-8.817,11.58c0,0,13.265-8.811,4.633-18.691a8.148,8.148,0,0,1-.2,2.349c-1.078,4.559-5.632,5.5-8.251,10.452-1.133,2.142-2.147,5.5-1.315,10.65,5.529,2.039,11.524,1.613,15.289-1.734" transform="translate(-1271.583 -1124.025)" fill="#06d1d1"/>
              <path id="Trazado_705072" data-name="Trazado 705072" d="M540.775,1336.219c.588,8.076,10.444,13.016,17.926,12.818a16.786,16.786,0,0,0,5.231-1,35.606,35.606,0,0,0,6.022-.807.666.666,0,0,0,.493-.8c0-.018-.009-.035-.015-.052a.666.666,0,0,0-.788-.442c-.115.028-11.552,2.691-16.461-1.894s-3.835-13.949-3.824-14.043c0,0-1.08,15.888,12.013,15.049a8.141,8.141,0,0,1-1.745-1.585c-2.961-3.63-.936-7.816-3.273-12.908-1.011-2.2-3.055-5.048-7.651-7.524-4.983,3.147-8.293,8.164-7.927,13.187" transform="translate(-540.747 -1298.141)" fill="#06d1d1"/>
            </g>
          </g>
        </g>
      </g>
    </g>
    <g id="Grupo_975529" data-name="Grupo 975529" transform="translate(82.483 43.059)">
      <g id="Grupo_975528" data-name="Grupo 975528" clip-path="url(#clip-path-9)">
        <rect id="Rectángulo_340828" data-name="Rectángulo 340828" width="25.471" height="25.66" transform="matrix(0.602, -0.799, 0.799, 0.602, -8.544, 11.334)" fill="#ffc403"/>
      </g>
    </g>
    <g id="Grupo_975531" data-name="Grupo 975531" transform="translate(13.148 46.052)">
      <g id="Grupo_975530" data-name="Grupo 975530" clip-path="url(#clip-path-10)">
        <rect id="Rectángulo_340829" data-name="Rectángulo 340829" width="95.982" height="100.576" transform="matrix(0.594, -0.804, 0.804, 0.594, -28.359, 38.38)" fill="#ffc403"/>
      </g>
    </g>
  </g>
</svg>
