<svg id="Grupo_976214" data-name="Grupo 976214" xmlns="http://www.w3.org/2000/svg" xmlns:xlink="http://www.w3.org/1999/xlink" width="81.192" height="89.949" viewBox="0 0 81.192 89.949">
  <defs>
    <clipPath id="clip-path">
      <rect id="Rectángulo_341173" data-name="Rectángulo 341173" width="81.192" height="89.949" fill="#ffe8ce"/>
    </clipPath>
  </defs>
  <g id="Grupo_976213" data-name="Grupo 976213" clip-path="url(#clip-path)">
    <path id="Trazado_709854" data-name="Trazado 709854" d="M0,28.059c0-1.518-.009-3.037,0-4.556A12.074,12.074,0,0,1,9.993,11.417,68.132,68.132,0,0,0,22.762,8.1,51.354,51.354,0,0,0,33.238,2.516c4.589-3.2,9.842-3.4,14.434-.295a55.442,55.442,0,0,0,23.186,9.09,12.124,12.124,0,0,1,10.252,11.6c.379,11.918-.439,23.7-4.757,34.991A52.9,52.9,0,0,1,57.344,82.886a53.093,53.093,0,0,1-12.1,6.237c-3.846,1.45-7.489.841-11.132-.651C20.837,83.034,11.557,73.56,5.854,60.486A72.812,72.812,0,0,1,.221,35.544C.068,33.046.027,30.555,0,28.059m73.811,1.463c0-1.959.015-3.918,0-5.877-.029-3.088-1.49-4.8-4.574-5.277A60.731,60.731,0,0,1,44.4,8.689c-2.907-1.952-4.484-2.021-7.388-.033a58.742,58.742,0,0,1-24.534,9.626c-3.858.6-5.282,2.325-5.329,6.245-.036,2.986.093,5.967.21,8.952A66.552,66.552,0,0,0,12.173,56.94c5.073,12.056,13.5,20.707,25.89,25.3a6.967,6.967,0,0,0,5.015,0c12.471-4.581,20.9-13.319,25.941-25.43a67.175,67.175,0,0,0,4.8-27.291" transform="translate(0 0)" fill="#ffe8ce"/>
    <path id="Trazado_709855" data-name="Trazado 709855" d="M163.168,154.464a5.287,5.287,0,0,1-1.3,3.507Q150.65,172.5,139.41,187.02a5.059,5.059,0,0,1-7.731.563c-2.963-2.852-5.912-5.719-8.814-8.633-3.014-3.026-2.751-7.023.526-9,2.176-1.311,4.523-1.016,6.586.912,1.359,1.27,2.665,2.6,3.953,3.942.638.665,1.042.63,1.612-.114q8.348-10.9,16.75-21.765a25.211,25.211,0,0,1,1.867-2.262,5.1,5.1,0,0,1,5.687-1.117,5.16,5.16,0,0,1,3.321,4.914" transform="translate(-101.396 -125.214)" fill="#ffe8ce"/>
  </g>
</svg>
