<svg id="Grupo_982493" data-name="Grupo 982493" xmlns="http://www.w3.org/2000/svg" xmlns:xlink="http://www.w3.org/1999/xlink" width="204.268" height="141" viewBox="0 0 204.268 141">
  <defs>
    <clipPath id="clip-path">
      <rect id="Rectángulo_343781" data-name="Rectángulo 343781" width="204.268" height="141" fill="none"/>
    </clipPath>
  </defs>
  <g id="Grupo_982492" data-name="Grupo 982492" clip-path="url(#clip-path)">
    <path id="Trazado_715777" data-name="Trazado 715777" d="M17.925,97.591a5.757,5.757,0,1,1-5.757-5.758,5.756,5.756,0,0,1,5.757,5.758" transform="translate(2.629 37.652)" fill="#1d1c1a"/>
    <path id="Trazado_715778" data-name="Trazado 715778" d="M15.06,96.946a3.538,3.538,0,1,1-3.538-3.538,3.537,3.537,0,0,1,3.538,3.538" transform="translate(3.274 38.297)" fill="#5e5f5f"/>
    <path id="Trazado_715779" data-name="Trazado 715779" d="M12.758,96.586A1.754,1.754,0,1,1,11,94.832a1.754,1.754,0,0,1,1.754,1.754" transform="translate(3.793 38.881)" fill="#1d1c1a"/>
    <path id="Trazado_715780" data-name="Trazado 715780" d="M9.536,89.982l.272,8.728s-.272,1.08,1.079,1.17c0,0,.9.178,1.44-.991l3.419-8.367Z" transform="translate(3.91 36.893)" fill="#00ad53"/>
    <path id="Trazado_715781" data-name="Trazado 715781" d="M8.515,88.451l.811,3.06h7.737v-2.7Z" transform="translate(3.491 36.265)" fill="#0b8a4c"/>
    <path id="Trazado_715782" data-name="Trazado 715782" d="M11.332,96.185a.674.674,0,1,1-.674-.671.675.675,0,0,1,.674.671" transform="translate(4.093 39.161)" fill="#00ad53"/>
    <path id="Trazado_715783" data-name="Trazado 715783" d="M141.809,97.591a5.758,5.758,0,1,1-5.758-5.758,5.758,5.758,0,0,1,5.758,5.758" transform="translate(53.421 37.652)" fill="#1d1c1a"/>
    <path id="Trazado_715784" data-name="Trazado 715784" d="M138.945,96.946a3.539,3.539,0,1,1-3.539-3.538,3.539,3.539,0,0,1,3.539,3.538" transform="translate(54.065 38.297)" fill="#5e5f5f"/>
    <path id="Trazado_715785" data-name="Trazado 715785" d="M136.642,96.586a1.755,1.755,0,1,1-1.755-1.754,1.756,1.756,0,0,1,1.755,1.754" transform="translate(54.585 38.881)" fill="#1d1c1a"/>
    <path id="Trazado_715786" data-name="Trazado 715786" d="M133.42,89.982l.269,8.728s-.269,1.08,1.079,1.17c0,0,.9.178,1.44-.991l3.419-8.367Z" transform="translate(54.702 36.893)" fill="#00ad53"/>
    <path id="Trazado_715787" data-name="Trazado 715787" d="M132.4,88.451l.811,3.06h7.735v-2.7Z" transform="translate(54.284 36.265)" fill="#0b8a4c"/>
    <path id="Trazado_715788" data-name="Trazado 715788" d="M135.217,96.185a.675.675,0,1,1-.674-.671.676.676,0,0,1,.674.671" transform="translate(54.885 39.161)" fill="#00ad53"/>
    <rect id="Rectángulo_343762" data-name="Rectángulo 343762" width="199.865" height="90.161" transform="translate(2.201 35.481)" fill="#00ad53"/>
    <path id="Trazado_715789" data-name="Trazado 715789" d="M12.094,25.429l1,9H15.5l1.056-9.142Z" transform="translate(4.959 10.368)" fill="#0d8a48"/>
    <path id="Trazado_715790" data-name="Trazado 715790" d="M35.6,25.429l1,9h2.413l1.055-9.142Z" transform="translate(14.595 10.368)" fill="#0d8a48"/>
    <path id="Trazado_715791" data-name="Trazado 715791" d="M59.1,25.429l1,9h2.413l1.056-9.142Z" transform="translate(24.231 10.368)" fill="#0d8a48"/>
    <path id="Trazado_715792" data-name="Trazado 715792" d="M82.6,25.429l1,9h2.413l1.056-9.142Z" transform="translate(33.867 10.368)" fill="#0d8a48"/>
    <path id="Trazado_715793" data-name="Trazado 715793" d="M106.106,25.429l1,9h2.411l1.056-9.142Z" transform="translate(43.503 10.368)" fill="#0d8a48"/>
    <path id="Trazado_715794" data-name="Trazado 715794" d="M129.609,25.429l1,9h2.414l1.055-9.142Z" transform="translate(53.14 10.368)" fill="#0d8a48"/>
    <rect id="Rectángulo_343763" data-name="Rectángulo 343763" width="199.865" height="3.773" transform="translate(2.201 35.481)" fill="#0b8a4c"/>
    <path id="Trazado_715795" data-name="Trazado 715795" d="M67.86.851H78.943V37.36H69.875Z" transform="translate(27.823 0.349)" fill="#0c934f"/>
    <path id="Trazado_715796" data-name="Trazado 715796" d="M72.43.851H67.86L69.875,37.36H72.43Z" transform="translate(27.823 0.349)" fill="#0b8a4c"/>
    <rect id="Rectángulo_343764" data-name="Rectángulo 343764" width="2.654" height="36.509" transform="translate(104.112 1.201)" fill="#0b8a4c"/>
    <path id="Trazado_715797" data-name="Trazado 715797" d="M98.762,0H37.448C19.108.687,1.968,27.939,1.968,27.939l92.272.6v.092l4.749-.017Z" transform="translate(0.807)" fill="#00ad53"/>
    <path id="Trazado_715798" data-name="Trazado 715798" d="M4.485,17.222c-1.614,2.221-2.517,3.656-2.517,3.656l92.273.6v.092l4.749-.017-.035-4.326Z" transform="translate(0.807 7.061)" fill="#21b253"/>
    <path id="Trazado_715799" data-name="Trazado 715799" d="M135.6,0H74.183l.457,28.585,4.164.041,0-.092,92.272-.6S153.94.687,135.6,0" transform="translate(30.415)" fill="#00ad53"/>
    <path id="Trazado_715800" data-name="Trazado 715800" d="M74.458,17.222l.069,4.3,4.164.041,0-.092,92.272-.6s-.9-1.435-2.514-3.656Z" transform="translate(30.528 7.061)" fill="#21b253"/>
    <rect id="Rectángulo_343765" data-name="Rectángulo 343765" width="99.048" height="1.6" transform="translate(0.845 30.91)" fill="#0b8a4c"/>
    <rect id="Rectángulo_343766" data-name="Rectángulo 343766" width="100.735" height="5.255" transform="translate(0 32.399)" fill="#00ad53"/>
    <rect id="Rectángulo_343767" data-name="Rectángulo 343767" width="100.735" height="5.256" transform="translate(0 26.227)" fill="#00ad53"/>
    <rect id="Rectángulo_343768" data-name="Rectángulo 343768" width="100.735" height="0.967" transform="translate(0 25.572)" fill="#43b553"/>
    <rect id="Rectángulo_343769" data-name="Rectángulo 343769" width="99.048" height="1.6" transform="translate(104.375 30.91)" fill="#14743b"/>
    <rect id="Rectángulo_343770" data-name="Rectángulo 343770" width="100.737" height="5.255" transform="translate(103.531 32.399)" fill="#00ad53"/>
    <rect id="Rectángulo_343771" data-name="Rectángulo 343771" width="100.737" height="5.256" transform="translate(103.531 26.227)" fill="#00ad53"/>
    <rect id="Rectángulo_343772" data-name="Rectángulo 343772" width="100.737" height="0.967" transform="translate(103.531 25.572)" fill="#43b553"/>
    <path id="Trazado_715801" data-name="Trazado 715801" d="M39.647,2.232c-6.207,0-12.013,2.827-16.776,6.648A85.517,85.517,0,0,0,9.57,22.287l.056.849c.02,0,.12.011.144.011h16.8C30.934,15,35.422,7.47,42.881,2.635V1.521Z" transform="translate(3.924 0.624)" fill="#0b8a4c"/>
    <path id="Trazado_715802" data-name="Trazado 715802" d="M53.984,1.5l-12.3.735C33.419,6.275,27.342,13.961,22.755,22.3l-.011.028v.829H42.322a77.5,77.5,0,0,1,3.93-9.192A56.834,56.834,0,0,1,54.038,2.426Z" transform="translate(9.325 0.617)" fill="#0b8a4c"/>
    <path id="Trazado_715803" data-name="Trazado 715803" d="M59.412,2.236a52.829,52.829,0,0,0-3.11,10.7c-.651,3.2-1.653,6.119-2.167,9.329a1.344,1.344,0,0,0,.094.888H73.045V2.236s-.336-.726-.458-.726c-1.052,0-6.2.726-13.175.726" transform="translate(22.182 0.619)" fill="#0b8a4c"/>
    <path id="Trazado_715804" data-name="Trazado 715804" d="M61.441,10.563a53.587,53.587,0,0,1,2.24-8.177l-.128-.89L50.664,2.24a54.732,54.732,0,0,0-9.936,14.75c-.87,1.877-2.039,3.383-2.769,5.311-.055.148-.082.716.1.854H59.1c.644-4.22,1.375-8.422,2.342-12.593" transform="translate(15.546 0.614)" fill="#0b8a4c"/>
    <path id="Trazado_715805" data-name="Trazado 715805" d="M42.953,1.5H38.994c-6.176,0-11.95,2.814-16.685,6.614C13.965,14.812,10.167,22.3,9.509,22.3H25.99c4.337-8.1,9.547-15.989,16.962-20.8" transform="translate(3.899 0.615)" fill="#21b253"/>
    <path id="Trazado_715806" data-name="Trazado 715806" d="M46.016,13.16A58.653,58.653,0,0,1,53.953,1.5H41.479C33.05,5.615,27.372,13.783,22.75,22.3H42.108a76.268,76.268,0,0,1,3.909-9.14" transform="translate(9.328 0.615)" fill="#21b253"/>
    <path id="Trazado_715807" data-name="Trazado 715807" d="M59.027,1.5A52.172,52.172,0,0,0,55.933,12.14c-.688,3.383-1.276,6.765-1.816,10.158H72.581V1.5Z" transform="translate(22.188 0.615)" fill="#21b253"/>
    <path id="Trazado_715808" data-name="Trazado 715808" d="M61.072,9.777A56.021,56.021,0,0,1,63.552,1.5H50.357a54.517,54.517,0,0,0-9.883,14.668c-.931,2.008-1.744,4.064-2.522,6.132h20.79c.643-4.2,1.369-8.375,2.329-12.522" transform="translate(15.56 0.615)" fill="#21b253"/>
    <path id="Trazado_715809" data-name="Trazado 715809" d="M115,2.232c6.205,0,12.012,2.827,16.775,6.648a85.58,85.58,0,0,1,13.3,13.408l-.058.849c-.021,0-.121.011-.144.011h-16.8C123.713,15,119.228,7.47,111.766,2.635V1.521Z" transform="translate(45.824 0.624)" fill="#0b8a4c"/>
    <path id="Trazado_715810" data-name="Trazado 715810" d="M100.077,1.5l12.3.735c8.27,4.037,14.347,11.723,18.933,20.06a.079.079,0,0,1,.011.028v.829H111.739a77.037,77.037,0,0,0-3.93-9.192,56.834,56.834,0,0,0-7.786-11.537Z" transform="translate(41.009 0.617)" fill="#0b8a4c"/>
    <path id="Trazado_715811" data-name="Trazado 715811" d="M91.057,2.236a52.74,52.74,0,0,1,3.11,10.7c.651,3.2,1.653,6.119,2.17,9.329a1.354,1.354,0,0,1-.1.888H77.425V2.236s.334-.726.455-.726c1.053,0,6.2.726,13.176.726" transform="translate(31.744 0.619)" fill="#0b8a4c"/>
    <path id="Trazado_715812" data-name="Trazado 715812" d="M91.011,10.563a53.751,53.751,0,0,0-2.24-8.177L88.9,1.5l12.889.743a54.732,54.732,0,0,1,9.936,14.75c.87,1.877,2.039,3.383,2.769,5.311.058.148.082.716-.1.854H93.355c-.646-4.22-1.375-8.422-2.343-12.593" transform="translate(36.396 0.614)" fill="#0b8a4c"/>
    <path id="Trazado_715813" data-name="Trazado 715813" d="M111.733,1.5H115.7c6.173,0,11.947,2.814,16.682,6.614,8.343,6.7,12.142,14.185,12.8,14.185H128.7c-4.337-8.1-9.547-15.989-16.962-20.8" transform="translate(45.811 0.615)" fill="#21b253"/>
    <path id="Trazado_715814" data-name="Trazado 715814" d="M108.017,13.16A58.707,58.707,0,0,0,100.082,1.5h12.473c8.428,4.116,14.106,12.284,18.729,20.8H111.926a76.273,76.273,0,0,0-3.909-9.14" transform="translate(41.034 0.615)" fill="#21b253"/>
    <path id="Trazado_715815" data-name="Trazado 715815" d="M91.306,1.5A52.438,52.438,0,0,1,94.4,12.14c.687,3.383,1.275,6.765,1.817,10.158H77.747V1.5Z" transform="translate(31.876 0.615)" fill="#21b253"/>
    <path id="Trazado_715816" data-name="Trazado 715816" d="M91.332,9.777A56.353,56.353,0,0,0,88.855,1.5h13.192a54.451,54.451,0,0,1,9.883,14.668c.931,2.008,1.744,4.064,2.522,6.132H93.662c-.643-4.2-1.368-8.375-2.329-12.522" transform="translate(36.431 0.615)" fill="#21b253"/>
    <rect id="Rectángulo_343773" data-name="Rectángulo 343773" width="42.025" height="71.078" transform="translate(8.945 48.566)" fill="#14743b"/>
    <path id="Trazado_715817" data-name="Trazado 715817" d="M48.369,105.522H6.344L48.369,34.444Z" transform="translate(2.601 14.122)" fill="#43b553"/>
    <rect id="Rectángulo_343774" data-name="Rectángulo 343774" width="38.916" height="65.822" transform="translate(10.499 51.194)" fill="#00ad53"/>
    <rect id="Rectángulo_343775" data-name="Rectángulo 343775" width="42.028" height="71.078" transform="translate(57.061 48.566)" fill="#14743b"/>
    <path id="Trazado_715818" data-name="Trazado 715818" d="M82.5,105.522H40.469L82.5,34.444Z" transform="translate(16.592 14.122)" fill="#43b553"/>
    <rect id="Rectángulo_343776" data-name="Rectángulo 343776" width="38.916" height="65.822" transform="translate(58.617 51.194)" fill="#00ad53"/>
    <rect id="Rectángulo_343777" data-name="Rectángulo 343777" width="42.025" height="71.078" transform="translate(105.182 48.566)" fill="#14743b"/>
    <path id="Trazado_715819" data-name="Trazado 715819" d="M116.622,105.522H74.6l42.025-71.078Z" transform="translate(30.585 14.122)" fill="#43b553"/>
    <rect id="Rectángulo_343778" data-name="Rectángulo 343778" width="38.916" height="65.822" transform="translate(106.736 51.194)" fill="#00ad53"/>
    <rect id="Rectángulo_343779" data-name="Rectángulo 343779" width="42.024" height="71.078" transform="translate(153.299 48.566)" fill="#14743b"/>
    <path id="Trazado_715820" data-name="Trazado 715820" d="M150.746,105.522H108.723l42.024-71.078Z" transform="translate(44.576 14.122)" fill="#43b553"/>
    <rect id="Rectángulo_343780" data-name="Rectángulo 343780" width="38.916" height="65.822" transform="translate(154.853 51.194)" fill="#00ad53"/>
  </g>
</svg>
