<svg id="Grupo_982258" data-name="Grupo 982258" xmlns="http://www.w3.org/2000/svg" xmlns:xlink="http://www.w3.org/1999/xlink" width="135.587" height="191.954" viewBox="0 0 135.587 191.954">
  <defs>
    <clipPath id="clip-path">
      <rect id="Rectángulo_343661" data-name="Rectángulo 343661" width="135.588" height="191.954" fill="none"/>
    </clipPath>
  </defs>
  <g id="Grupo_982257" data-name="Grupo 982257" clip-path="url(#clip-path)">
    <path id="Trazado_715499" data-name="Trazado 715499" d="M129.75,131.513l-31.8-22.537a13.837,13.837,0,0,0-8.237-2.546l-59.257.248c-3.387.058-6.492,2.113-8.986,4.405L4.475,126.7A13.838,13.838,0,0,0,0,136.889V259.361a13.839,13.839,0,0,0,4.02,9.752l1.634,1.645a13.839,13.839,0,0,0,9.819,4.087H120.807a13.839,13.839,0,0,0,10.474-4.793l.941-1.09a13.838,13.838,0,0,0,3.365-9.045V142.8a13.839,13.839,0,0,0-5.838-11.291m-6.165,22.5a6.557,6.557,0,0,1-10.8,5L85.933,136.226c-5.773-3.963-1.45-9.312-1.45-9.312a6.557,6.557,0,0,1,9.939-3.932l26.178,17a6.557,6.557,0,0,1,2.985,5.5Z" transform="translate(0 -82.891)" fill="#0071be"/>
    <path id="Trazado_715500" data-name="Trazado 715500" d="M131.281,765.536a13.839,13.839,0,0,1-10.474,4.794H15.473a13.839,13.839,0,0,1-9.819-4.087L4.02,764.6A13.839,13.839,0,0,1,0,754.845v9.53a13.84,13.84,0,0,0,4.02,9.752l1.634,1.645a13.839,13.839,0,0,0,9.819,4.087H120.807a13.84,13.84,0,0,0,10.474-4.794l.941-1.09a13.839,13.839,0,0,0,3.365-9.046V755.4a13.839,13.839,0,0,1-3.365,9.046Z" transform="translate(0 -587.906)" fill="#006299"/>
    <path id="Trazado_715501" data-name="Trazado 715501" d="M351.248,178.836c.759-1.37,2.539-4.157,7.638-4.995,0,0-2.266-1.68-9.341,0-4.019.955-10.364,9.085-4.924,14.307l26.853,22.782c2.578,2.187,10.21,3.342,12.5,1.57-3.852-.725-4.358-1.511-4.426-1.57L352.7,188.149a7.145,7.145,0,0,1-1.449-9.312" transform="translate(-266.765 -134.814)" fill="#006299"/>
    <path id="Trazado_715502" data-name="Trazado 715502" d="M421.279,131.512l-31.8-22.537a13.84,13.84,0,0,0-8.237-2.546l-6.928.029a13.838,13.838,0,0,1,7.088,2.517l31.8,22.537A13.839,13.839,0,0,1,419.04,142.8V259.916a13.839,13.839,0,0,1-3.365,9.046l-.941,1.09a13.839,13.839,0,0,1-10.474,4.794h8.076a13.84,13.84,0,0,0,10.474-4.794l.941-1.09a13.84,13.84,0,0,0,3.365-9.046V142.8a13.838,13.838,0,0,0-5.838-11.291" transform="translate(-291.529 -82.891)" fill="#006299"/>
    <rect id="Rectángulo_343658" data-name="Rectángulo 343658" width="41.565" height="21.407" transform="translate(33.699 11.625)" fill="#0071be"/>
    <path id="Trazado_715503" data-name="Trazado 715503" d="M183.851,16.286H134.284V4.622A4.622,4.622,0,0,1,138.906,0h40.323a4.622,4.622,0,0,1,4.622,4.622Z" transform="translate(-104.586)" fill="#ef4538"/>
    <path id="Trazado_715504" data-name="Trazado 715504" d="M312.462,0h-7.113a4.622,4.622,0,0,1,4.622,4.622V16.286h7.113V4.622A4.622,4.622,0,0,0,312.462,0" transform="translate(-237.819)" fill="#ce3932"/>
    <rect id="Rectángulo_343659" data-name="Rectángulo 343659" width="49.567" height="3.429" transform="translate(29.698 20.358)" fill="#ef4538"/>
    <path id="Trazado_715505" data-name="Trazado 715505" d="M147.247,10.5c0,.859,1.11,1.186,1.967,1.251a143.338,143.338,0,0,0,17.757.236,5.259,5.259,0,0,0,2.479-.542,1.847,1.847,0,0,0,.9-2.169c-.413-.957-1.689-1.1-2.732-1.1-2.722.007-20.371-1.779-20.371,2.32" transform="translate(-114.682 -6.076)" fill="#fc675b"/>
    <rect id="Rectángulo_343660" data-name="Rectángulo 343660" width="7.446" height="3.429" transform="translate(71.819 20.358)" fill="#ce3932"/>
    <path id="Trazado_715506" data-name="Trazado 715506" d="M42.7,266.674l.685-121.736a13.84,13.84,0,0,1,4.475-10.19l16.131-18.073H52.78L30.965,134.748a13.84,13.84,0,0,0-4.475,10.19V252.448Z" transform="translate(-20.632 -90.872)" fill="#0093e5"/>
    <path id="Trazado_715507" data-name="Trazado 715507" d="M141,400.773h0c0-5.933,6.5-10.743,14.529-10.743h66.8a18.927,18.927,0,0,1,5.841.9c-2.519-3.19-7.2-5.334-12.555-5.334h-66.8c-8.024,0-14.529,4.81-14.529,10.743,0,4.4,3.573,8.176,8.688,9.839A8.68,8.68,0,0,1,141,400.773" transform="translate(-104.586 -300.322)" fill="#006299"/>
    <path id="Trazado_715508" data-name="Trazado 715508" d="M136.965,525.609h0c0-5.933,6.5-10.743,14.529-10.743h66.8a18.928,18.928,0,0,1,5.841.9c-2.519-3.19-7.2-5.334-12.555-5.334h-66.8c-8.024,0-14.529,4.81-14.529,10.743,0,4.4,3.573,8.176,8.688,9.839a8.68,8.68,0,0,1-1.974-5.409" transform="translate(-101.445 -397.55)" fill="#006299"/>
    <path id="Trazado_715509" data-name="Trazado 715509" d="M141,639.515h0c0-5.933,6.5-10.743,14.529-10.743h66.8a18.928,18.928,0,0,1,5.841.9c-2.519-3.19-7.2-5.334-12.555-5.334h-66.8c-8.024,0-14.529,4.81-14.529,10.743,0,4.4,3.573,8.176,8.688,9.839A8.68,8.68,0,0,1,141,639.515" transform="translate(-104.586 -486.264)" fill="#006299"/>
  </g>
</svg>
