<svg xmlns="http://www.w3.org/2000/svg" xmlns:xlink="http://www.w3.org/1999/xlink" width="153" height="153" viewBox="0 0 153 153">
  <defs>
    <clipPath id="clip-path">
      <rect id="Rectángulo_341031" data-name="Rectángulo 341031" width="91.068" height="121.604" fill="none" stroke="#000" stroke-width="1"/>
    </clipPath>
  </defs>
  <g id="Grupo_982812" data-name="Grupo 982812" transform="translate(-2078 8421.282)">
    <circle id="Elipse_5687" data-name="Elipse 5687" cx="76.5" cy="76.5" r="76.5" transform="translate(2078 -8421.282)" fill="#06d1d1"/>
    <g id="Grupo_976005" data-name="Grupo 976005" transform="translate(2108.966 -8408.695)">
      <g id="Grupo_976004" data-name="Grupo 976004" clip-path="url(#clip-path)">
        <path id="Trazado_706346" data-name="Trazado 706346" d="M45.53,131.52q-19.07,0-38.138,0c-4.216,0-7.43-3.035-7.391-6.956a6.884,6.884,0,0,1,7.214-6.76c1.39.008,1.383-.644,1.382-1.653q-.017-34.452,0-68.9c0-3.194-.028-3.194-3.173-3.2L2.058,44.04c-1.027,0-1.635-.5-1.623-1.541.012-1,.672-1.382,1.6-1.387,1.763-.009,3.527-.061,5.287.01.987.039,1.294-.282,1.281-1.266-.044-3.579-.011-7.157,0-10.736a12.29,12.29,0,0,1,.027-1.442c.111-.921.45-1.666,1.572-1.64,1.1.025,1.455.728,1.514,1.684.024.373.011.747.011,1.122,0,3.633.041,7.265-.022,10.9-.018,1.042.241,1.378,1.323,1.374q14.5-.054,29,0c.969,0,1.349-.3,1.328-1.271-.03-1.446.272-2.833-1.483-3.771-1.377-.737-1.734-2.789-1.165-4.325a3.838,3.838,0,0,1,3.606-2.738c5.553-.09,11.11-.073,16.664,0a4.1,4.1,0,0,1,2.137,7.482c-.845.641-1.495,3.376-1.016,4.247.271.494.74.332,1.136.337,1.6.022,3.206.037,4.807.011,1.123-.019,2.137.169,2.127,1.539-.01,1.3-1.006,1.435-2.055,1.42-1.656-.022-3.313.04-4.967-.014-.829-.028-1.122.222-1.111,1.076.038,3.044.057,6.089-.025,9.132-.024.9.5,1.044,1.089,1.279a29.432,29.432,0,0,1,18.3,20.188c4.192,14.559-4.363,30.837-18.687,35.679a5.723,5.723,0,0,1-1.883.252c-4.647,0-9.3-.153-13.939.055a15.634,15.634,0,0,1-8.921-2.464A29.735,29.735,0,0,1,41.38,55.9a2.634,2.634,0,0,0,2.011-3.01c-.124-2.45-.066-4.913-.008-7.369.025-1.065-.248-1.508-1.424-1.5q-14.5.062-29,0c-.992,0-1.257.306-1.256,1.279q.034,35.573-.02,71.148c0,1.462.748,1.316,1.682,1.316q35.254-.011,70.507,0a6.875,6.875,0,1,1,.282,13.741c-11.11.028-22.22.011-33.331.012H45.53m7.255-57.415c-7.851,0-15.7.028-23.552-.029A1.825,1.825,0,0,0,27.1,75.583,26.823,26.823,0,0,0,38,105.7a15.132,15.132,0,0,0,9.415,2.863c4.363-.266,8.754-.072,13.134-.062a5.628,5.628,0,0,0,2.178-.381A26.75,26.75,0,0,0,78.246,75.645a1.8,1.8,0,0,0-2.069-1.57c-7.8.061-15.594.031-23.391.03M76.3,70.918A26.555,26.555,0,0,0,61.309,58.1c-2.237-.766-2.389-.948-2.39-3.3,0-3.045-.041-6.09.033-9.134.03-1.189-.205-1.692-1.551-1.646-3.148.106-6.3.085-9.454.006-1.217-.031-1.679.246-1.636,1.567.1,3.1-.079,6.2.073,9.292A2.755,2.755,0,0,1,44.127,58.1,25.737,25.737,0,0,0,29.838,69.561c-.243.394-.632.75-.423,1.356ZM45.532,128.395v.006q18.424,0,36.849,0c.748,0,1.5.016,2.242-.033a3.758,3.758,0,0,0,.941-7.282,9.469,9.469,0,0,0-2.538-.228q-36.768,0-73.537.03c-1.014,0-2.031-.014-3.043.042a3.366,3.366,0,0,0-2.978,2.106c-1.271,2.733.564,5.351,3.772,5.355q19.145.025,38.29.007m7.224-96.311v-.013c-2.562,0-5.124.006-7.687,0-.746,0-1.485.1-1.549.991-.057.793.561.991,1.276,1.1a1.693,1.693,0,0,1,1.563,2.016c-.078,1.33,0,2.669-.027,4-.015.687.244.937.938.932,3.522-.027,7.046-.038,10.569-.008.864.007,1.1-.341,1.072-1.147-.045-1.278-.012-2.561.009-3.842a1.735,1.735,0,0,1,1.511-1.947c.777-.106,1.425-.272,1.31-1.206-.12-.97-.938-.867-1.62-.87-2.455-.012-4.911-.006-7.366-.006" transform="translate(0 -9.922)" stroke="#000" stroke-width="1"/>
        <path id="Trazado_706347" data-name="Trazado 706347" d="M102.977,7.107a7.1,7.1,0,0,1-14.2.132,7.1,7.1,0,1,1,14.2-.132M95.808,3.023A4.245,4.245,0,0,0,91.755,7.18,4.139,4.139,0,1,0,100.031,7a4.237,4.237,0,0,0-4.222-3.981" transform="translate(-33.83 0)" stroke="#000" stroke-width="1"/>
        <path id="Trazado_706348" data-name="Trazado 706348" d="M77.77,14.9a4.85,4.85,0,0,1-4.832,4.749,4.989,4.989,0,0,1-4.762-4.864,4.918,4.918,0,0,1,4.874-4.728A4.829,4.829,0,0,1,77.77,14.9m-3.083.025c-.046-.954-.439-1.693-1.552-1.756a1.523,1.523,0,0,0-1.81,1.525,1.478,1.478,0,0,0,1.516,1.789,1.561,1.561,0,0,0,1.846-1.559" transform="translate(-25.978 -3.833)" stroke="#000" stroke-width="1"/>
        <path id="Trazado_706349" data-name="Trazado 706349" d="M62.2,124.427a6.467,6.467,0,0,1-6.4-6.446,6.639,6.639,0,0,1,6.529-6.388,6.457,6.457,0,0,1,6.326,6.679,6.327,6.327,0,0,1-6.457,6.155m-3.252-6.373a3.419,3.419,0,0,0,3.323,3.413,3.607,3.607,0,0,0,3.41-3.4,3.389,3.389,0,0,0-3.393-3.328,3.237,3.237,0,0,0-3.339,3.313" transform="translate(-21.264 -42.523)" stroke="#000" stroke-width="1"/>
        <path id="Trazado_706350" data-name="Trazado 706350" d="M105.83,125.965a6.464,6.464,0,0,1-6.493-6.337,6.611,6.611,0,0,1,6.42-6.472,6.438,6.438,0,0,1,6.433,6.563,6.314,6.314,0,0,1-6.361,6.246m-3.363-6.325A3.414,3.414,0,0,0,105.834,123a3.5,3.5,0,0,0,3.363-3.42,3.356,3.356,0,0,0-3.423-3.277,3.22,3.22,0,0,0-3.307,3.339" transform="translate(-37.853 -43.119)" stroke="#000" stroke-width="1"/>
        <path id="Trazado_706351" data-name="Trazado 706351" d="M83.369,133.786a5.226,5.226,0,0,1,5.317,5.359,5.286,5.286,0,0,1-5.317,5.231A5.435,5.435,0,0,1,78,139.144a5.321,5.321,0,0,1,5.366-5.358m2.308,5.2a2.491,2.491,0,0,0-2.282-2.228,2.3,2.3,0,0,0-2.227,2.537,2.087,2.087,0,0,0,2.366,1.983,2.23,2.23,0,0,0,2.143-2.292" transform="translate(-29.723 -50.98)" stroke="#000" stroke-width="1"/>
      </g>
    </g>
  </g>
</svg>
