<svg xmlns="http://www.w3.org/2000/svg" xmlns:xlink="http://www.w3.org/1999/xlink" width="153" height="153" viewBox="0 0 153 153">
  <defs>
    <clipPath id="clip-path">
      <rect id="Rectángulo_341024" data-name="Rectángulo 341024" width="104.514" height="99.284" fill="none" stroke="#000" stroke-width="1"/>
    </clipPath>
  </defs>
  <g id="Grupo_982808" data-name="Grupo 982808" transform="translate(-377 -2624)">
    <circle id="Elipse_5683" data-name="Elipse 5683" cx="76.5" cy="76.5" r="76.5" transform="translate(377 2624)" fill="#06d1d1"/>
    <g id="Grupo_975995" data-name="Grupo 975995" transform="translate(400.406 2653.482)">
      <g id="Grupo_975994" data-name="Grupo 975994" transform="translate(0 0)" clip-path="url(#clip-path)">
        <path id="Trazado_706321" data-name="Trazado 706321" d="M16.888,53.874c0-11.921-.015-23.839.028-35.757,0-1.024-.31-1.2-1.234-1.189-4.342.045-8.683.021-13.025.015-2,0-2.652-.63-2.614-2.663.047-2.444-.293-4.92.4-7.324A9.681,9.681,0,0,1,9.667,0Q43.4,0,77.125.017a15.552,15.552,0,0,1,15.4,12.858,19.855,19.855,0,0,1,.225,3.426q.029,33.421,0,66.842c0,1.206.331,1.509,1.495,1.471,2.618-.087,5.243-.03,7.863-.028,2.273,0,2.6.36,2.332,2.574A13.289,13.289,0,0,1,94.277,98.87a12.182,12.182,0,0,1-3.146.413q-32.254-.006-64.508-.008A9.669,9.669,0,0,1,16.9,89.506c-.032-11.878-.008-23.756-.013-35.632M16.523,2.45c-.074.076-.151.153-.227.227,3.148,2.864,3.057,6.585,3.053,10.35q-.051,38.337,0,76.675a7.212,7.212,0,0,0,14.293,1.327,21.687,21.687,0,0,0,.193-4.157c.025-2.078.216-2.281,2.338-2.281q26.355,0,52.713.015c1.054,0,1.488-.163,1.486-1.376q-.051-33.669-.025-67.336a13.129,13.129,0,0,0-1.779-6.92A12.5,12.5,0,0,0,77.451,2.482c-19.044-.068-38.091-.03-57.137-.032h-3.79M33,96.8c.528.023.761.045,1,.045q28.435,0,56.872,0a10.97,10.97,0,0,0,10.937-8.461c.259-.973.172-1.389-1-1.386q-31.631.045-63.26-.006c-1.149,0-1.359.382-1.308,1.4A10.229,10.229,0,0,1,33,96.8M9.7,14.506c2.124,0,4.251-.023,6.375.015.647.011.852-.178.831-.829-.049-1.389-.013-2.777-.021-4.168A7.208,7.208,0,0,0,2.6,8.276a41.837,41.837,0,0,0-.216,5.251c-.064.852.3,1.011,1.064.992,2.084-.047,4.168-.015,6.252-.013" transform="translate(0 0)" stroke="#000" stroke-width="1"/>
        <path id="Trazado_706322" data-name="Trazado 706322" d="M40.367,9.158q12.278,0,24.56,0c2.086,0,2.707.619,2.709,2.7,0,1.1.03,2.213-.055,3.311a1.842,1.842,0,0,1-1.969,1.906c-.611.042-1.227.017-1.84.017l-47.89-.006c-2.29,0-2.915-.617-2.923-2.89,0-.859-.008-1.719,0-2.578.023-1.7.782-2.457,2.476-2.457q12.465-.006,24.929,0m-.159,2.432q-11.785,0-23.57.006c-.39,0-1.039-.2-1.119.193a6.442,6.442,0,0,0-.055,2.546c.131.621.905.367,1.4.367q23.509.006,47.017-.015c1.374,0,1.3-.008,1.412-1.929.074-1.194-.522-1.185-1.389-1.183-7.9.019-15.8.011-23.693.015" transform="translate(14.508 10.256)" stroke="#000" stroke-width="1"/>
        <path id="Trazado_706323" data-name="Trazado 706323" d="M40.181,18.792H15.258c-.329,0-.655.006-.982-.006a1.2,1.2,0,0,1-1.3-1.189,1.184,1.184,0,0,1,1.249-1.236c.246-.017.492,0,.738,0q25.29,0,50.58,0c.246,0,.492,0,.738,0a1.139,1.139,0,0,1,1.264,1.2,1.112,1.112,0,0,1-1.215,1.23c-.367.019-.736.011-1.1.011q-12.523,0-25.045,0" transform="translate(14.534 18.313)" stroke="#000" stroke-width="1"/>
        <path id="Trazado_706324" data-name="Trazado 706324" d="M40.293,28.418H15a5.017,5.017,0,0,1-.979-.028A1.217,1.217,0,0,1,12.971,27.2,1.181,1.181,0,0,1,14,26.01a3.384,3.384,0,0,1,.856-.03q25.351,0,50.7,0c.286,0,.575-.011.859.015a1.123,1.123,0,0,1,1.141,1.2,1.138,1.138,0,0,1-1.119,1.219,7.569,7.569,0,0,1-.982.013q-12.583,0-25.166,0" transform="translate(14.525 29.083)" stroke="#000" stroke-width="1"/>
        <path id="Trazado_706325" data-name="Trazado 706325" d="M40.359,21.189q12.532,0,25.064,0c.369,0,.738,0,1.1.025a1.151,1.151,0,0,1,.011,2.29,10.6,10.6,0,0,1-1.1.047q-25.249,0-50.5,0a5.4,5.4,0,0,1-1.1-.081,1.065,1.065,0,0,1-.869-1.17,1.011,1.011,0,0,1,.971-1.071c.407-.036.818-.038,1.227-.038q12.593,0,25.187,0" transform="translate(14.529 23.731)" stroke="#000" stroke-width="1"/>
        <path id="Trazado_706326" data-name="Trazado 706326" d="M34.632,30.813q7.18,0,14.359,0a10.262,10.262,0,0,1,1.225.049,1.025,1.025,0,0,1,.912,1.007,1.065,1.065,0,0,1-.818,1.2,5.073,5.073,0,0,1-1.217.11q-14.545,0-29.088-.011a4.736,4.736,0,0,1-1.1-.087,1.06,1.06,0,0,1-.842-1.187.99.99,0,0,1,.979-1.049c.53-.028,1.064-.034,1.594-.034l13.992,0" transform="translate(20.23 34.509)" stroke="#000" stroke-width="1"/>
      </g>
    </g>
  </g>
</svg>
