<svg xmlns="http://www.w3.org/2000/svg" xmlns:xlink="http://www.w3.org/1999/xlink" width="153" height="153" viewBox="0 0 153 153">
  <defs>
    <clipPath id="clip-path">
      <rect id="Rectángulo_341032" data-name="Rectángulo 341032" width="107.686" height="95.941" fill="none"/>
    </clipPath>
  </defs>
  <g id="Grupo_982813" data-name="Grupo 982813" transform="translate(-2429 8421.282)">
    <circle id="Elipse_5688" data-name="Elipse 5688" cx="76.5" cy="76.5" r="76.5" transform="translate(2429 -8421.282)" fill="#06d1d1"/>
    <g id="Grupo_976007" data-name="Grupo 976007" transform="translate(2448.943 -8387.704)">
      <g id="Grupo_976006" data-name="Grupo 976006" transform="translate(0 0)" clip-path="url(#clip-path)">
        <path id="Trazado_706352" data-name="Trazado 706352" d="M61.1,41.677c-4.036,3.058-7.908,6.01-11.806,8.922a1.853,1.853,0,0,0-.773,1.658c-.074,6.257-.19,12.515-.265,18.772a4.9,4.9,0,0,1-5.154,5,5.14,5.14,0,0,1-5.213-5.016q-.007-10.425.025-20.849a5.455,5.455,0,0,1,2.1-4.738,5.037,5.037,0,0,0,.934-.853c2.279-2.785,5.685-3.083,8.806-3.948,6.7-1.856,13.424-3.6,20.125-5.433.8-.218,1.028-.122,1.218.715,1.028,4.56,2.133,9.1,3.221,13.651a5.273,5.273,0,0,0,.705,1.56q5.241,8.391,10.447,16.8a5.233,5.233,0,0,1-.605,6.094,5.421,5.421,0,0,1-6.3,1.325,5.247,5.247,0,0,1-2.143-2.031Q70.4,63.641,64.4,53.961c-1.169-1.9-1.281-4.143-1.843-6.237-.525-1.95-.951-3.928-1.458-6.047" transform="translate(21.5 19.913)"/>
        <path id="Trazado_706353" data-name="Trazado 706353" d="M49.458,22.541A17.085,17.085,0,0,1,42.951,21.1c-5.033-2.569-7.609-6.792-8.289-12.3-.069-.58.08-.81.718-.809q10.247.031,20.5.008c.575,0,.777.1.71.773a7.839,7.839,0,0,1-5.652,6.7,1.151,1.151,0,0,0-1,1.356c.031,1.519.009,3.041.009,4.555.655.074.754-.387.975-.655a30.966,30.966,0,0,1,3.274-3.85c3.806-3.329,8.447-2.566,10.968,1.8a9.936,9.936,0,0,1,1.107,2.752Q67.7,27.671,69.236,33.88c.16.646.165.919-.588,1.114-4.4,1.143-8.776,2.342-13.157,3.542-.624.171-.937.18-1.071-.63-.324-1.98-.787-3.938-1.251-6.177-.6.746-1.074,1.315-1.533,1.894-3.387,4.267-6.732,8.565-10.17,12.791a4.2,4.2,0,0,1-7.326-1.183,4.344,4.344,0,0,1,.89-4.486q6.384-8,12.733-16.032c.52-.657,1.031-1.321,1.694-2.171M47.472,15.16h0c0-1.267-.028-2.533.013-3.8.02-.669-.241-.848-.876-.842q-4.143.038-8.287,0c-.654-.008-.788.221-.655.815.865,3.829,5.013,7.723,8.942,8.4.687.118.884-.121.867-.777-.033-1.265-.008-2.531-.008-3.8" transform="translate(19.21 4.537)"/>
        <path id="Trazado_706354" data-name="Trazado 706354" d="M59.86,44.624c-.586.088-.608-.386-.715-.724-.646-2.05-.641-2.053-2.782-1.477-11.17,3-22.346,5.986-33.5,9.049-1.262.346-1.6-.055-1.785-1.141-.172-1.013-1.006-2.149-.6-2.952.417-.821,1.826-.7,2.8-.961q16.506-4.493,33.027-8.93c.821-.219,1.046-.433.785-1.3-.746-2.473-.705-2.488,1.788-3.162q16.571-4.477,33.138-8.977c.879-.24,1.191-.089,1.406.765.766,3.064,1.553,6.124,2.415,9.163.2.719.041.945-.607,1.119q-16.809,4.5-33.611,9.03c-.589.158-1.176.329-1.763.494" transform="translate(11.558 13.591)"/>
        <path id="Trazado_706355" data-name="Trazado 706355" d="M6.571,50.345c-.045,5.17,4.022,7.483,8.5,6.881a10.177,10.177,0,0,0,2.006-.459,1.482,1.482,0,0,1,1.7.276,1.463,1.463,0,0,1,.227,1.7,15.468,15.468,0,0,0-1.1,5.01c-.212,5.668,6.024,9.286,10.977,6.867a11.193,11.193,0,0,0,5.6-6.7c.627-1.743,1.21-1.937,2.76-.889,2.936,1.984,7.491,1.442,9.548-1.136a7.2,7.2,0,0,0-.56-9.886c-.3-.29-.635-.556-.966-.818a1.379,1.379,0,1,1,1.7-2.162,10.3,10.3,0,0,1,4.025,5.84,9.932,9.932,0,0,1-6.5,11.7,10.957,10.957,0,0,1-6.765-.328c-.868-.3-1.187-.086-1.563.652C34.34,70.441,31.66,73,27.663,73.874a10.4,10.4,0,0,1-11.206-4.945c-.439-.751-.672-.919-1.486-.361A9.733,9.733,0,0,1,3.323,53.041a1.47,1.47,0,0,0,.556-1.368c-.339-3.514.481-6.63,3.3-8.985a9.7,9.7,0,0,1,4.894-2.119c.439-.066.712-.116.8-.712.76-5.206,3.958-8.37,9.312-9.3a10.783,10.783,0,0,1,12.613,7.6c.276.9.2,1.618-.694,2.025-.857.39-1.544-.058-1.912-1.238-2.169-6.955-10.073-7.013-13.99-3.785a7.447,7.447,0,0,0-1.293,9.96c.334.514.741.978,1.1,1.477a1.24,1.24,0,0,1-.215,1.839,1.253,1.253,0,0,1-1.853-.122A10.272,10.272,0,0,1,13.427,44.1c-.246-.777-.619-.879-1.346-.743-3.453.64-5.554,3.273-5.51,6.983M9.529,67.458a5.511,5.511,0,0,0,2.162-.279,4.189,4.189,0,0,0,3.491-4.229,8.213,8.213,0,0,1,.3-2.035c.293-.872,0-.925-.77-.884-3.867.2-7.19-.859-9.416-4.281-.434-.666-.679-.188-.923.127A6.868,6.868,0,0,0,3.339,63.29a6.716,6.716,0,0,0,6.19,4.168" transform="translate(0 17.23)"/>
        <path id="Trazado_706356" data-name="Trazado 706356" d="M45.083,10.466c-3.605,0-7.212-.033-10.816.022-.937.014-1.191-.285-1.111-1.168.072-.787-.183-1.588,1.169-1.488,1.754.13,3.525,0,5.29.016.63.006.882-.136,1.014-.857a8.255,8.255,0,0,1,16.18-.683,13.988,13.988,0,0,1,.268,3.536c0,.746-.5.619-.948.629-.038,0-.077,0-.114,0H45.083Z" transform="translate(18.807 0)"/>
        <path id="Trazado_706357" data-name="Trazado 706357" d="M23.456,54a9.118,9.118,0,0,1-8.8-12.433,7.129,7.129,0,0,1,.506-1.03,1.275,1.275,0,0,1,1.8-.508,1.217,1.217,0,0,1,.6,1.749,6.992,6.992,0,0,0-.727,3.89c.389,4.224,5.693,7.022,9.4,4.928a4.669,4.669,0,0,0,2.394-4.18c.045-1.2.563-1.9,1.393-1.846.851.05,1.357.77,1.359,1.931.009,4.251-3.423,7.5-7.917,7.5" transform="translate(7.951 22.616)"/>
      </g>
    </g>
  </g>
</svg>
