<svg id="Grupo_982316" data-name="Grupo 982316" xmlns="http://www.w3.org/2000/svg" xmlns:xlink="http://www.w3.org/1999/xlink" width="193" height="169.327" viewBox="0 0 193 169.327">
  <defs>
    <clipPath id="clip-path">
      <rect id="Rectángulo_343681" data-name="Rectángulo 343681" width="193" height="169.327" fill="none"/>
    </clipPath>
    <clipPath id="clip-path-3">
      <rect id="Rectángulo_343662" data-name="Rectángulo 343662" width="51.992" height="24.926" fill="none"/>
    </clipPath>
    <clipPath id="clip-path-4">
      <rect id="Rectángulo_343663" data-name="Rectángulo 343663" width="15.338" height="9.771" fill="none"/>
    </clipPath>
    <clipPath id="clip-path-5">
      <rect id="Rectángulo_343664" data-name="Rectángulo 343664" width="2.792" height="1.985" fill="none"/>
    </clipPath>
    <clipPath id="clip-path-6">
      <rect id="Rectángulo_343665" data-name="Rectángulo 343665" width="3.39" height="2.346" fill="none"/>
    </clipPath>
    <clipPath id="clip-path-7">
      <rect id="Rectángulo_343666" data-name="Rectángulo 343666" width="15.88" height="26.6" fill="none"/>
    </clipPath>
    <clipPath id="clip-path-8">
      <rect id="Rectángulo_343667" data-name="Rectángulo 343667" width="5.783" height="7.858" fill="none"/>
    </clipPath>
    <clipPath id="clip-path-9">
      <rect id="Rectángulo_343668" data-name="Rectángulo 343668" width="1.065" height="1.491" fill="none"/>
    </clipPath>
    <clipPath id="clip-path-10">
      <rect id="Rectángulo_343669" data-name="Rectángulo 343669" width="1.258" height="1.814" fill="none"/>
    </clipPath>
    <clipPath id="clip-path-11">
      <rect id="Rectángulo_343670" data-name="Rectángulo 343670" width="50.763" height="30.802" fill="none"/>
    </clipPath>
    <clipPath id="clip-path-12">
      <rect id="Rectángulo_343671" data-name="Rectángulo 343671" width="15.258" height="9.523" fill="none"/>
    </clipPath>
    <clipPath id="clip-path-13">
      <rect id="Rectángulo_343672" data-name="Rectángulo 343672" width="2.402" height="2.437" fill="none"/>
    </clipPath>
    <clipPath id="clip-path-14">
      <rect id="Rectángulo_343673" data-name="Rectángulo 343673" width="2.872" height="2.953" fill="none"/>
    </clipPath>
    <clipPath id="clip-path-15">
      <rect id="Rectángulo_343674" data-name="Rectángulo 343674" width="193.001" height="14.161" fill="none"/>
    </clipPath>
    <clipPath id="clip-path-16">
      <rect id="Rectángulo_343675" data-name="Rectángulo 343675" width="165.287" height="46.984" fill="none"/>
    </clipPath>
    <clipPath id="clip-path-17">
      <rect id="Rectángulo_343676" data-name="Rectángulo 343676" width="128.237" height="24.84" fill="none"/>
    </clipPath>
    <clipPath id="clip-path-18">
      <rect id="Rectángulo_343677" data-name="Rectángulo 343677" width="174.483" height="45.591" fill="none"/>
    </clipPath>
    <clipPath id="clip-path-19">
      <rect id="Rectángulo_343678" data-name="Rectángulo 343678" width="78.475" height="23.613" fill="none"/>
    </clipPath>
    <clipPath id="clip-path-20">
      <rect id="Rectángulo_343679" data-name="Rectángulo 343679" width="108.153" height="38.814" fill="none"/>
    </clipPath>
  </defs>
  <g id="Grupo_982315" data-name="Grupo 982315" clip-path="url(#clip-path)">
    <g id="Grupo_982314" data-name="Grupo 982314">
      <g id="Grupo_982313" data-name="Grupo 982313" clip-path="url(#clip-path)">
        <path id="Trazado_715510" data-name="Trazado 715510" d="M154.315,43.372c-1.162-1.529-3.723.381-3.465,1.952.648,3.945,1.562,7.821,2.053,11.8a66.663,66.663,0,0,1,.223,12.068c-.227,3.911-.628,7.8-1.06,11.693-.4,3.569-1.461,7.682-.709,11.247.256,1.216,2.039.434,2.432-.246,2.037-3.522,2.758-7.891,3.575-11.83a81.117,81.117,0,0,0,1.72-12.776c.353-7.8.169-17.4-4.77-23.9" transform="translate(-54.616 -15.502)" fill="#1c672d"/>
        <path id="Trazado_715511" data-name="Trazado 715511" d="M203.063,18.776a10.1,10.1,0,0,0,.565-8.527,14.082,14.082,0,0,0-3.907-5c-17.709-15.1-42.213,5.412-47.269,23.3-.739,2.622,2.351,3.3,4.466,3.638a76.649,76.649,0,0,0,24.459-.227c8.282-1.375,17.813-5.168,21.686-13.189" transform="translate(-55.162 0)" fill="#89c540"/>
        <g id="Grupo_982261" data-name="Grupo 982261" transform="translate(97.178 8.14)" style="mix-blend-mode: multiply;isolation: isolate">
          <g id="Grupo_982260" data-name="Grupo 982260">
            <g id="Grupo_982259" data-name="Grupo 982259" clip-path="url(#clip-path-3)">
              <path id="Trazado_715512" data-name="Trazado 715512" d="M203.063,23.4a10.1,10.1,0,0,0,.566-8.527,11.436,11.436,0,0,0-1.2-2.108,12.314,12.314,0,0,1,.908,3.772,10.59,10.59,0,0,1-.748,4.748,14.931,14.931,0,0,1-3.84,5.189c-3.679,3.394-8.507,5.3-13.336,6.365a67.29,67.29,0,0,1-7.854,1.141,53.126,53.126,0,0,1-8.859.3,12.924,12.924,0,0,1-3.537-.632,2.808,2.808,0,0,1-1.834-1.528,3.069,3.069,0,0,1,.744-2.654,23.626,23.626,0,0,1,4.542-4.6,56.7,56.7,0,0,1,12.555-7.107c3.761-1.647,7.611-3.068,11.432-4.567a38.385,38.385,0,0,0-8.3,1.956c-2.789.95-5.5,2.1-8.2,3.281-2.989,1.308-5.934,2.689-8.809,4.234q-4.574,2.459-8.9,5.348-2.853,1.906-5.576,4c-.128.39-.25.78-.359,1.167-.739,2.622,2.351,3.3,4.466,3.638a76.649,76.649,0,0,0,24.459-.227c8.282-1.375,17.813-5.168,21.686-13.189" transform="translate(-152.34 -12.761)" fill="#89c540"/>
            </g>
          </g>
        </g>
        <g id="Grupo_982264" data-name="Grupo 982264" transform="translate(116.089 1.72)" style="mix-blend-mode: screen;isolation: isolate">
          <g id="Grupo_982263" data-name="Grupo 982263">
            <g id="Grupo_982262" data-name="Grupo 982262" clip-path="url(#clip-path-4)">
              <path id="Trazado_715513" data-name="Trazado 715513" d="M197.323,5.508c.051-1.7-1.887-2.6-3.31-2.764a10.955,10.955,0,0,0-6.258,1.593A16.965,16.965,0,0,0,186,5.4a8.428,8.428,0,0,0-2.879,2c-.985,1.083-1.691,2.852-.555,4.073,1.164,1.25,3.162,1.1,4.676.743a22.354,22.354,0,0,0,7.433-3.35c1.086-.76,2.6-1.884,2.645-3.355" transform="translate(-181.986 -2.697)" fill="#89c540"/>
            </g>
          </g>
        </g>
        <g id="Grupo_982267" data-name="Grupo 982267" transform="translate(111.954 11.56)" style="mix-blend-mode: screen;isolation: isolate">
          <g id="Grupo_982266" data-name="Grupo 982266">
            <g id="Grupo_982265" data-name="Grupo 982265" clip-path="url(#clip-path-5)">
              <path id="Trazado_715514" data-name="Trazado 715514" d="M178.3,19.168a1,1,0,0,0-.64-.882,1.812,1.812,0,0,0-1.373-.054,1.9,1.9,0,0,0-.333.17l-.026.02a2.3,2.3,0,0,0-.229.2.74.74,0,0,0-.037.948,1.191,1.191,0,0,0,.449.355,1.66,1.66,0,0,0,.42.124,1.786,1.786,0,0,0,.37.054,1.761,1.761,0,0,0,.691-.108,1,1,0,0,0,.707-.829" transform="translate(-175.504 -18.122)" fill="#89c540"/>
            </g>
          </g>
        </g>
        <g id="Grupo_982270" data-name="Grupo 982270" transform="translate(123.618 16.094)" style="mix-blend-mode: screen;isolation: isolate">
          <g id="Grupo_982269" data-name="Grupo 982269">
            <g id="Grupo_982268" data-name="Grupo 982268" clip-path="url(#clip-path-6)">
              <path id="Trazado_715515" data-name="Trazado 715515" d="M197.179,26.468a1.074,1.074,0,0,0-.438-.846,2.181,2.181,0,0,0-1.123-.387.707.707,0,0,0-.232.01,1.548,1.548,0,0,0-.6.115l-.033.011c-.037.013-.074.026-.11.041a1.363,1.363,0,0,0-.8.664h.011a.73.73,0,0,0-.054.412.982.982,0,0,0,.369.612,1.2,1.2,0,0,0,.384.22,2.521,2.521,0,0,0,.975.252,2.1,2.1,0,0,0,1.149-.3,1.07,1.07,0,0,0,.5-.809" transform="translate(-193.789 -25.23)" fill="#89c540"/>
            </g>
          </g>
        </g>
        <path id="Trazado_715516" data-name="Trazado 715516" d="M168.487,68.6a5.409,5.409,0,0,0,4.567-.279,7.55,7.55,0,0,0,2.389-2.414c6.817-10.43-5.742-22.048-15.587-23.517-1.443-.214-1.6,1.473-1.629,2.618a41.054,41.054,0,0,0,1.782,12.974c1.293,4.3,3.955,9.108,8.478,10.619" transform="translate(-57.288 -15.341)" fill="#89c540"/>
        <g id="Grupo_982273" data-name="Grupo 982273" transform="translate(100.924 27.025)" style="mix-blend-mode: multiply;isolation: isolate">
          <g id="Grupo_982272" data-name="Grupo 982272">
            <g id="Grupo_982271" data-name="Grupo 982271" clip-path="url(#clip-path-7)">
              <path id="Trazado_715517" data-name="Trazado 715517" d="M168.487,68.6a5.409,5.409,0,0,0,4.567-.279,6.082,6.082,0,0,0,1.038-.783,6.578,6.578,0,0,1-1.941.739,5.661,5.661,0,0,1-2.572-.075,7.989,7.989,0,0,1-3.017-1.687,15.271,15.271,0,0,1-4.286-6.649,36.068,36.068,0,0,1-1.139-4.093,28.436,28.436,0,0,1-.764-4.684,6.9,6.9,0,0,1,.1-1.921,1.5,1.5,0,0,1,.686-1.078,1.643,1.643,0,0,1,1.46.215,12.633,12.633,0,0,1,2.751,2.1,30.327,30.327,0,0,1,4.627,6.184c1.13,1.885,2.147,3.833,3.2,5.76a20.581,20.581,0,0,0-1.6-4.275c-.694-1.417-1.49-2.781-2.3-4.133-.9-1.5-1.831-2.968-2.846-4.389q-1.617-2.262-3.444-4.362-1.207-1.386-2.5-2.691c-.216-.04-.431-.078-.644-.11-1.443-.214-1.6,1.473-1.629,2.618a41.054,41.054,0,0,0,1.782,12.974c1.293,4.3,3.955,9.108,8.478,10.619" transform="translate(-158.212 -42.365)" fill="#89c540"/>
            </g>
          </g>
        </g>
        <g id="Grupo_982276" data-name="Grupo 982276" transform="translate(113.105 35.686)" style="mix-blend-mode: screen;isolation: isolate">
          <g id="Grupo_982275" data-name="Grupo 982275">
            <g id="Grupo_982274" data-name="Grupo 982274" clip-path="url(#clip-path-8)">
              <path id="Trazado_715518" data-name="Trazado 715518" d="M181.847,63.8c.9-.088,1.25-1.178,1.243-1.946a5.872,5.872,0,0,0-1.271-3.214,9.07,9.07,0,0,0-.683-.858,4.507,4.507,0,0,0-1.257-1.393,1.634,1.634,0,0,0-2.2-.018A2.592,2.592,0,0,0,177.6,58.9a11.971,11.971,0,0,0,2.284,3.72c.477.525,1.178,1.253,1.962,1.176" transform="translate(-177.308 -55.943)" fill="#89c540"/>
            </g>
          </g>
        </g>
        <g id="Grupo_982279" data-name="Grupo 982279" transform="translate(111.626 33.74)" style="mix-blend-mode: screen;isolation: isolate">
          <g id="Grupo_982278" data-name="Grupo 982278">
            <g id="Grupo_982277" data-name="Grupo 982277" clip-path="url(#clip-path-9)">
              <path id="Trazado_715519" data-name="Trazado 715519" d="M175.586,54.381a.536.536,0,0,0,.425-.4.964.964,0,0,0-.065-.733.964.964,0,0,0-.113-.165.081.081,0,0,0-.013-.013,1.234,1.234,0,0,0-.122-.108.4.4,0,0,0-.506.045.634.634,0,0,0-.158.263A.869.869,0,0,0,175,53.5a.912.912,0,0,0,0,.2.948.948,0,0,0,.1.36.536.536,0,0,0,.488.32" transform="translate(-174.99 -52.892)" fill="#89c540"/>
            </g>
          </g>
        </g>
        <g id="Grupo_982282" data-name="Grupo 982282" transform="translate(109.838 40.252)" style="mix-blend-mode: screen;isolation: isolate">
          <g id="Grupo_982281" data-name="Grupo 982281">
            <g id="Grupo_982280" data-name="Grupo 982280" clip-path="url(#clip-path-10)">
              <path id="Trazado_715520" data-name="Trazado 715520" d="M172.895,64.91a.576.576,0,0,0,.42-.29,1.177,1.177,0,0,0,.13-.622.381.381,0,0,0-.022-.122.831.831,0,0,0-.1-.313c0-.005-.006-.011-.008-.016s-.019-.038-.029-.055a.731.731,0,0,0-.407-.381v.006a.383.383,0,0,0-.223,0,.521.521,0,0,0-.3.237.656.656,0,0,0-.091.219,1.365,1.365,0,0,0-.068.535,1.124,1.124,0,0,0,.237.59.573.573,0,0,0,.464.212" transform="translate(-172.186 -63.101)" fill="#89c540"/>
            </g>
          </g>
        </g>
        <path id="Trazado_715521" data-name="Trazado 715521" d="M86.866,66.712a10.1,10.1,0,0,1-6.487-5.563,14.078,14.078,0,0,1-.837-6.289c1.6-23.22,33.4-26.37,49.725-17.462,2.39,1.307.716,3.992-.526,5.737a76.67,76.67,0,0,1-17.278,17.315c-6.777,4.955-16.157,9.109-24.6,6.263" transform="translate(-28.785 -11.879)" fill="#89c540"/>
        <g id="Grupo_982285" data-name="Grupo 982285" transform="translate(50.93 24.96)" style="mix-blend-mode: multiply;isolation: isolate">
          <g id="Grupo_982284" data-name="Grupo 982284">
            <g id="Grupo_982283" data-name="Grupo 982283" clip-path="url(#clip-path-11)">
              <path id="Trazado_715522" data-name="Trazado 715522" d="M86.991,69A10.1,10.1,0,0,1,80.5,63.438a11.444,11.444,0,0,1-.664-2.336A12.315,12.315,0,0,0,81.9,64.391a10.6,10.6,0,0,0,3.915,2.788,14.941,14.941,0,0,0,6.394.888c5-.254,9.738-2.37,13.879-5.073a67.346,67.346,0,0,0,6.311-4.813,53.169,53.169,0,0,0,6.417-6.116,12.9,12.9,0,0,0,2.023-2.969,2.808,2.808,0,0,0,.192-2.379,3.07,3.07,0,0,0-2.416-1.326,23.613,23.613,0,0,0-6.464.026,56.689,56.689,0,0,0-13.862,4c-3.808,1.534-7.518,3.291-11.262,4.972a38.356,38.356,0,0,1,7.205-4.562c2.631-1.327,5.352-2.462,8.083-3.563,3.026-1.219,6.073-2.358,9.189-3.33q4.956-1.547,10.046-2.615,3.359-.705,6.759-1.186c.367.182.731.367,1.084.56,2.39,1.306.716,3.991-.526,5.736a76.67,76.67,0,0,1-17.278,17.315c-6.777,4.955-16.157,9.109-24.6,6.263" transform="translate(-79.839 -39.128)" fill="#89c540"/>
            </g>
          </g>
        </g>
        <g id="Grupo_982288" data-name="Grupo 982288" transform="translate(58.76 24.27)" style="mix-blend-mode: screen;isolation: isolate">
          <g id="Grupo_982287" data-name="Grupo 982287">
            <g id="Grupo_982286" data-name="Grupo 982286" clip-path="url(#clip-path-12)">
              <path id="Trazado_715523" data-name="Trazado 715523" d="M92.787,46.873c-1.248-1.151-.535-3.165.341-4.3a10.958,10.958,0,0,1,5.517-3.355,16.917,16.917,0,0,1,1.984-.508,8.433,8.433,0,0,1,3.442-.659c1.463.054,3.221.788,3.3,2.454.078,1.707-1.423,3.032-2.741,3.861a22.377,22.377,0,0,1-7.594,2.966c-1.3.244-3.166.539-4.248-.459" transform="translate(-92.115 -38.047)" fill="#89c540"/>
            </g>
          </g>
        </g>
        <g id="Grupo_982291" data-name="Grupo 982291" transform="translate(76.616 24.592)" style="mix-blend-mode: screen;isolation: isolate">
          <g id="Grupo_982290" data-name="Grupo 982290">
            <g id="Grupo_982289" data-name="Grupo 982289" clip-path="url(#clip-path-13)">
              <path id="Trazado_715524" data-name="Trazado 715524" d="M121.451,40.864a1.765,1.765,0,0,0,.561-.418,1.739,1.739,0,0,0,.22-.3,1.663,1.663,0,0,0,.205-.387,1.178,1.178,0,0,0,.061-.57.739.739,0,0,0-.7-.636,2.307,2.307,0,0,0-.3.022l-.033.005a1.9,1.9,0,0,0-.355.118,1.813,1.813,0,0,0-.922,1.019.881.881,0,0,0,1.269,1.149" transform="translate(-120.107 -38.551)" fill="#89c540"/>
            </g>
          </g>
        </g>
        <g id="Grupo_982294" data-name="Grupo 982294" transform="translate(71.361 36.177)" style="mix-blend-mode: screen;isolation: isolate">
          <g id="Grupo_982293" data-name="Grupo 982293">
            <g id="Grupo_982292" data-name="Grupo 982292" clip-path="url(#clip-path-14)">
              <path id="Trazado_715525" data-name="Trazado 715525" d="M112.176,59.432a1.076,1.076,0,0,1-.3-.905,2.192,2.192,0,0,1,.508-1.073.732.732,0,0,1,.17-.158,1.54,1.54,0,0,1,.5-.35l.031-.015.105-.05a1.364,1.364,0,0,1,1.035-.108l-.006.01a.723.723,0,0,1,.331.25.98.98,0,0,1,.179.691,1.231,1.231,0,0,1-.112.429,2.527,2.527,0,0,1-.5.873,2.1,2.1,0,0,1-1.017.613,1.072,1.072,0,0,1-.93-.207" transform="translate(-111.868 -56.712)" fill="#89c540"/>
            </g>
          </g>
        </g>
        <path id="Trazado_715526" data-name="Trazado 715526" d="M55.4,106.827a2.673,2.673,0,0,0-1.216-2.467c-1.983-1.389-5.2-.608-7.345.019a32.36,32.36,0,0,0-7.092,2.914c-1.66.955-4.289,2.792-3.517,5.069.785,2.316,4.126,2.754,6.167,2.9a20.523,20.523,0,0,0,9.2-1.322c2.242-.937,4.539-2.814,4.463-5.48a2.335,2.335,0,0,0-.655-1.631" transform="translate(-13.068 -37.508)" fill="#6e4931"/>
        <path id="Trazado_715527" data-name="Trazado 715527" d="M84.247,108.5a6.111,6.111,0,0,0-3.667-.9,4.5,4.5,0,0,0-.718-.1c-1.974-.117-4.492,1.079-4.737,3.264-.241,2.149,2.263,2.434,3.845,2.228,1.922-.249,4.518-1.165,5.423-3.046.228-.473.37-1.083-.147-1.437" transform="translate(-27.197 -38.92)" fill="#6e4931"/>
        <path id="Trazado_715528" data-name="Trazado 715528" d="M143.536,107.672c-.838-3.337-5.98-4.652-8.894-4.977a6.672,6.672,0,0,0-5.612,2.025c-1.082,1.148-1.681,2.879-.982,4.176a2.642,2.642,0,0,0,.785,1.077c2.133,1.832,5.788,2.141,8.464,2.181,2.555.038,7.142-.887,6.239-4.482" transform="translate(-46.257 -37.17)" fill="#6e4931"/>
        <path id="Trazado_715529" data-name="Trazado 715529" d="M178.166,107.8c-1.1-2.875-4.4-3.159-6.89-2.016-1.983.91-4.4,3.121-4.052,5.511a3.031,3.031,0,0,0-.226,1.144.994.994,0,0,0,.713,1.017c3.251,1.188,12.405-.559,10.455-5.656" transform="translate(-60.47 -38.076)" fill="#6e4931"/>
        <path id="Trazado_715530" data-name="Trazado 715530" d="M245.284,107.7a8.062,8.062,0,0,0-5.23-1.8,12.443,12.443,0,0,0-5.247,1.263c-1.2.572-3.171,1.749-2.791,3.382.446,1.914,4.022,2.289,5.5,2.476a10.322,10.322,0,0,0,5.775-.9.579.579,0,0,0,.462-.1c1.407-.986,3.207-2.638,1.534-4.321" transform="translate(-83.996 -38.347)" fill="#6e4931"/>
        <path id="Trazado_715531" data-name="Trazado 715531" d="M269.755,107.911c-.025-1.636-1.863-2.33-3.225-2.52-3.068-.428-7.356.386-9.26,3.075-.714,1.008-1.145,2.428-.109,3.374a4.961,4.961,0,0,0,3.214.906c2.363.059,5.556-.209,7.572-1.585a3.094,3.094,0,0,0,1.564-2.231,2.153,2.153,0,0,0,.244-1.019" transform="translate(-92.895 -38.123)" fill="#6e4931"/>
        <path id="Trazado_715532" data-name="Trazado 715532" d="M292.823,109.224a1.958,1.958,0,0,0-2.822-.955,2.074,2.074,0,0,0-1.274,1.544.772.772,0,0,0,.617.888.924.924,0,0,0,.352.226,2.673,2.673,0,0,0,1.807-.043c.607-.194,1.6-.85,1.319-1.66" transform="translate(-104.546 -39.117)" fill="#6e4931"/>
        <path id="Trazado_715533" data-name="Trazado 715533" d="M17.094,110.873c-.13-1.312-1.9-2.115-3.056-2.168a3.242,3.242,0,0,0-3.148,2.161,2.25,2.25,0,0,0-.1.531.808.808,0,0,0,.094.945c.049.052.1.094.154.143a1.4,1.4,0,0,0,.558.473.62.62,0,0,0,.1.033,4,4,0,0,0,2.778.473c1.2-.218,2.758-1.189,2.619-2.591" transform="translate(-3.867 -39.361)" fill="#6e4931"/>
        <path id="Trazado_715534" data-name="Trazado 715534" d="M114.226,108.176a1.079,1.079,0,0,0-.7-.2,1.219,1.219,0,0,0-.53-.119,2.039,2.039,0,0,0-.407.044c-.085.019-.17.05-.252.077-.04.013-.427.12-.052.02-.687.182-1.508.93-1.071,1.694a1.473,1.473,0,0,0,1.271.618,2.228,2.228,0,0,0,1.852-1.007.825.825,0,0,0-.115-1.131" transform="translate(-40.228 -39.056)" fill="#6e4931"/>
        <path id="Trazado_715535" data-name="Trazado 715535" d="M201.024,110.217a1.193,1.193,0,0,1-.085-.107c.017-.063.032-.127.043-.192a.806.806,0,0,0-.589-.841,1.248,1.248,0,0,0-.618-.013c-.064.016-.274.085-.334.11a1.432,1.432,0,0,0-.466.3q-.339.291.111-.1a2.435,2.435,0,0,0-.194.158c-.075.064-.137.125-.2.189a1.915,1.915,0,0,0-.214.2,1.145,1.145,0,0,0-.319,1.209.917.917,0,0,0,1.077.427,3.542,3.542,0,0,0,.618-.239c.025.009.05.02.075.027a.978.978,0,0,0,.929-.311c.169-.19.387-.594.165-.829" transform="translate(-71.727 -39.481)" fill="#6e4931"/>
        <path id="Trazado_715536" data-name="Trazado 715536" d="M190.7,111.15a54.252,54.252,0,0,0-10.838.251c-3.717.343-7.421.811-11.138,1.16a63.351,63.351,0,0,1-11.335.37c-3.617-.313-7.21-.846-10.807-1.332-3.865-.522-7.743-1-11.644-1.138a61.012,61.012,0,0,0-11.235.751c-7.254,1.089-14.429,2.61-21.8,2.6-7.278-.01-14.442-1.413-21.615-2.478a66.366,66.366,0,0,0-11.66-.959,91.075,91.075,0,0,0-11.469,1.192C50,112.685,42.911,114,35.64,114.131c-11.934.207-23.745-1.9-35.632-2.52Q0,112.2,0,112.788a96.5,96.5,0,0,0,193,0q0-.676-.01-1.349c-.764-.107-1.526-.206-2.287-.289" transform="translate(0 -39.961)" fill="#6e4931"/>
        <g id="Grupo_982297" data-name="Grupo 982297" transform="translate(0 70.398)" style="mix-blend-mode: screen;isolation: isolate">
          <g id="Grupo_982296" data-name="Grupo 982296">
            <g id="Grupo_982295" data-name="Grupo 982295" clip-path="url(#clip-path-15)">
              <path id="Trazado_715537" data-name="Trazado 715537" d="M17.432,122.276a31.457,31.457,0,0,0,10.439,2.235,36.348,36.348,0,0,0,10.636-1.477c6.564-1.827,12.629-5.027,19.465-5.887a84.2,84.2,0,0,1,11.069-.181c3.766.026,7.534.022,11.3-.131,7.182-.292,14.33-1.164,21.312,1.143,3.279,1.083,6.474,2.409,9.9,2.971a26.287,26.287,0,0,0,10.937-.9,93.671,93.671,0,0,1,10.08-2.4,30.729,30.729,0,0,1,9.494.281c3.451.59,6.819,1.57,10.241,2.3a43.636,43.636,0,0,0,10.921,1.041c6.711-.28,13.226-2.31,19.962-2.325,3.163-.008,6.306.378,9.464.477l.12,0q.224-3.293.227-6.643,0-.676-.01-1.349c-.764-.108-1.526-.206-2.288-.29a54.2,54.2,0,0,0-10.837.251c-3.717.343-7.421.81-11.138,1.16a63.293,63.293,0,0,1-11.335.369c-3.618-.313-7.211-.846-10.807-1.332-3.864-.522-7.743-1-11.644-1.137a60.955,60.955,0,0,0-11.235.75c-7.254,1.09-14.429,2.61-21.8,2.6-7.278-.01-14.442-1.412-21.614-2.478a66.376,66.376,0,0,0-11.66-.959,91.169,91.169,0,0,0-11.469,1.192C50,112.686,42.91,114,35.64,114.131c-11.934.207-23.744-1.9-35.632-2.519Q0,112.2,0,112.788q0,2.968.178,5.894a49.856,49.856,0,0,1,17.254,3.593" transform="translate(0 -110.359)" fill="#6e4931"/>
            </g>
          </g>
        </g>
        <path id="Trazado_715538" data-name="Trazado 715538" d="M17.8,117.531c2.306-.61,4.489-1.7,6.891-1.913a24.46,24.46,0,0,1,4,.2,24.4,24.4,0,0,0,4.323,0c2.612-.265,5.276-1.373,7.92-1.086a30.184,30.184,0,0,1,3.428.786,8.92,8.92,0,0,0,4.381-.041c2.512-.677,4.713-2.078,7.386-2.1a25.544,25.544,0,0,1,3.934.4,27.583,27.583,0,0,0,4.611.27c1.521-.029,3.041-.127,4.562-.181a12.878,12.878,0,0,1,3.72.249,20.223,20.223,0,0,0,4.2.945,11.475,11.475,0,0,0,4.119-.952,8.409,8.409,0,0,1,3.528-.6,28.209,28.209,0,0,1,3.762.734c1.377.311,2.767.387,4.15.632a28.437,28.437,0,0,1,3.355.951,16.031,16.031,0,0,0,4.382.784,20.493,20.493,0,0,0,4.083-.436c1.195-.221,2.393-.475,3.606-.579a36.862,36.862,0,0,1,4.12.117c1.284.033,2.525-.221,3.8-.28a19.112,19.112,0,0,1,3.708.343,8.943,8.943,0,0,0,4.333-.337c1.123-.376,2.2-.9,3.34-1.213a24.279,24.279,0,0,1,6.082-.586,22.315,22.315,0,0,1,2.963.126l.061.01a18.971,18.971,0,0,1,3.34-.173c1.858.03,3.711.207,5.561.381.735.07,1.472.142,2.21.188,1.072.066,2.153.028,3.227.082a26.831,26.831,0,0,1,6.7,1.091c2,.627,3.919,1.652,6.049,1.766,2.407.129,4.722-.848,6.981-1.544a19.833,19.833,0,0,1,3.394-.778,22.469,22.469,0,0,1,3.876-.046,30.963,30.963,0,0,0,7.687-.12,38.12,38.12,0,0,1,6.92-.524l.5-.01c.006-.431.011-.863.011-1.3q0-.676-.01-1.349c-.764-.107-1.526-.206-2.287-.289a54.249,54.249,0,0,0-10.838.251c-3.717.343-7.421.81-11.138,1.16a63.353,63.353,0,0,1-11.335.37c-3.618-.314-7.211-.846-10.807-1.333-3.864-.522-7.743-1-11.644-1.137a61.011,61.011,0,0,0-11.235.751c-7.254,1.089-14.429,2.61-21.8,2.6-7.278-.01-14.442-1.413-21.614-2.478a66.375,66.375,0,0,0-11.66-.959,91.168,91.168,0,0,0-11.469,1.192C50,112.685,42.91,114,35.64,114.13c-11.934.207-23.745-1.9-35.633-2.519Q0,112.2,0,112.788q0,1.7.061,3.383c3.525,1.064,7.373,1.211,10.994,1.479,2.294.169,4.474.482,6.741-.119" transform="translate(0 -39.961)" fill="#986749"/>
        <g id="Grupo_982300" data-name="Grupo 982300" transform="translate(13.658 122.343)" opacity="0.57" style="mix-blend-mode: multiply;isolation: isolate">
          <g id="Grupo_982299" data-name="Grupo 982299">
            <g id="Grupo_982298" data-name="Grupo 982298" clip-path="url(#clip-path-16)">
              <path id="Trazado_715539" data-name="Trazado 715539" d="M166.4,193.362c-6.453.073-12.773,2.087-18.917,3.859-5.986,1.726-12.079,3.346-18.357,3.29-6.665-.059-13.154-1.776-19.677-2.935a59.044,59.044,0,0,0-10.542-1.049,76.287,76.287,0,0,0-10.467.847c-6.716.957-13.341,2.474-20.074,3.319a38.878,38.878,0,0,1-9.617.311,37.389,37.389,0,0,1-8.1-2.05c-5.864-2.113-11.42-4.877-17.608-5.972a101.041,101.041,0,0,0-11.629-1.19,96.527,96.527,0,0,0,165.287.66,192.041,192.041,0,0,1-20.294.911" transform="translate(-21.41 -191.791)" fill="#8c664b"/>
            </g>
          </g>
        </g>
        <g id="Grupo_982303" data-name="Grupo 982303" transform="translate(32.294 144.487)" opacity="0.57" style="mix-blend-mode: multiply;isolation: isolate">
          <g id="Grupo_982302" data-name="Grupo 982302">
            <g id="Grupo_982301" data-name="Grupo 982301" clip-path="url(#clip-path-17)">
              <path id="Trazado_715540" data-name="Trazado 715540" d="M171.113,226.562c-6.1.436-11.827,2.931-17.885,3.635a139.308,139.308,0,0,1-19.048.874c-6.237-.135-12.464-.8-18.7-.787a45.266,45.266,0,0,0-9.39.914c-3.152.676-6.271,1.458-9.4,2.235a68.823,68.823,0,0,1-8.828,1.729,38.78,38.78,0,0,1-9.121-.138,83.5,83.5,0,0,1-16.175-3.949c-3.986-1.33-7.948-2.808-11.938-4.191a96.5,96.5,0,0,0,128.237.156,36.221,36.221,0,0,0-7.75-.48" transform="translate(-50.626 -226.504)" fill="#8c664b"/>
            </g>
          </g>
        </g>
        <g id="Grupo_982306" data-name="Grupo 982306" transform="translate(10.184 80.199)" opacity="0.57" style="mix-blend-mode: multiply;isolation: isolate">
          <g id="Grupo_982305" data-name="Grupo 982305">
            <g id="Grupo_982304" data-name="Grupo 982304" clip-path="url(#clip-path-18)">
              <path id="Trazado_715541" data-name="Trazado 715541" d="M24.848,149.028a4.334,4.334,0,0,0-3.679,1.18,5.129,5.129,0,0,0-1.095,3.254c-.059,2.761,1.143,5.462,4.332,5.124a6.23,6.23,0,0,0,5.51-5.059c.361-2.536-2.428-4.288-5.069-4.5" transform="translate(-17.452 -134.154)" fill="#8c664b"/>
              <path id="Trazado_715542" data-name="Trazado 715542" d="M42.917,167.292a.741.741,0,0,0-.022-.09c0-.035-.006-.07-.009-.105a.517.517,0,0,0-.193-.313.823.823,0,0,0-.588-.233,1.685,1.685,0,0,0-.592.126,1.3,1.3,0,0,0-.422.276,1.223,1.223,0,0,0-.322.359,1.445,1.445,0,0,0-.207.677c0,.063.008.126.015.189a.644.644,0,0,0,0,.339.771.771,0,0,0,.262.374.991.991,0,0,0,.739.11,1.71,1.71,0,0,0,1.288-1.082,1.313,1.313,0,0,0,.046-.627" transform="translate(-24.869 -140.506)" fill="#8c664b"/>
              <path id="Trazado_715543" data-name="Trazado 715543" d="M63.676,192.578a1.24,1.24,0,0,0-.7.181,1.536,1.536,0,0,0-1.3.963,1.187,1.187,0,0,0,.174,1.273,1.48,1.48,0,0,0,1.055.528,1.736,1.736,0,0,0,1.625-1.618c.077-.6-.154-1.283-.847-1.326" transform="translate(-32.475 -149.93)" fill="#8c664b"/>
              <path id="Trazado_715544" data-name="Trazado 715544" d="M19.559,139.025c-.27-.636-.679-1.187-1.492-1.126a2.439,2.439,0,0,0-1.537.852c-.932,1-.766,2.733.9,2.633a3.585,3.585,0,0,0,.62.047c.82-.023,2.041-.845,1.725-1.812-.064-.2-.134-.4-.217-.594" transform="translate(-15.964 -130.13)" fill="#8c664b"/>
              <path id="Trazado_715545" data-name="Trazado 715545" d="M34.053,178.51a2.652,2.652,0,0,0-2.222-.291c-.036,0-.071-.011-.11-.011a2.849,2.849,0,0,0-2.057.93c-.9.936-1.527,2.628-.663,3.788,1.216,1.635,4.266.653,5.452-.5a2.422,2.422,0,0,0-.4-3.912" transform="translate(-20.536 -144.687)" fill="#8c664b"/>
              <path id="Trazado_715546" data-name="Trazado 715546" d="M66.678,175.467c-.67,0-1.3,1.192-.408,1.192.67,0,1.3-1.192.408-1.192" transform="translate(-34.021 -143.735)" fill="#8c664b"/>
              <path id="Trazado_715547" data-name="Trazado 715547" d="M70.742,138.628a2.91,2.91,0,0,0-2.693-.371c-.042,0-.084-.008-.126-.008a2.762,2.762,0,0,0-2.767,2.249,2.952,2.952,0,0,0,1.9,3,3.671,3.671,0,0,0,3.739-1.158,2.552,2.552,0,0,0-.056-3.707" transform="translate(-33.77 -130.203)" fill="#8c664b"/>
              <path id="Trazado_715548" data-name="Trazado 715548" d="M85.73,140.064c-.854,0-1.652,1.517-.52,1.517.854,0,1.652-1.517.52-1.517" transform="translate(-40.836 -130.916)" fill="#8c664b"/>
              <path id="Trazado_715549" data-name="Trazado 715549" d="M107.12,158.593a4.335,4.335,0,0,1-3.679-1.18,5.129,5.129,0,0,1-1.095-3.255c-.058-2.761,1.143-5.461,4.332-5.124a6.23,6.23,0,0,1,5.51,5.059c.361,2.536-2.428,4.288-5.069,4.5" transform="translate(-47.243 -134.154)" fill="#8c664b"/>
              <path id="Trazado_715550" data-name="Trazado 715550" d="M140.992,147.954a1.9,1.9,0,0,1-1.08-.276,2.359,2.359,0,0,1-2-1.477,1.821,1.821,0,0,1,.266-1.951,2.264,2.264,0,0,1,1.618-.808,2.661,2.661,0,0,1,2.492,2.48c.117.922-.235,1.968-1.3,2.033" transform="translate(-60.062 -132.139)" fill="#8c664b"/>
              <path id="Trazado_715551" data-name="Trazado 715551" d="M88.081,187.726c.317-.967-.9-1.789-1.724-1.812a3.655,3.655,0,0,0-.621.047c-1.667-.1-1.832,1.632-.9,2.633a2.44,2.44,0,0,0,1.536.853c.813.061,1.222-.491,1.492-1.127.083-.2.152-.4.217-.594" transform="translate(-40.698 -147.518)" fill="#8c664b"/>
              <path id="Trazado_715552" data-name="Trazado 715552" d="M105.083,131a2.654,2.654,0,0,1-2.222.291c-.037,0-.072.011-.11.011a2.847,2.847,0,0,1-2.057-.931c-.9-.936-1.527-2.627-.663-3.788,1.216-1.635,4.266-.654,5.452.5a2.422,2.422,0,0,1-.4,3.912" transform="translate(-46.256 -125.723)" fill="#8c664b"/>
              <path id="Trazado_715553" data-name="Trazado 715553" d="M123.8,187.689a2.91,2.91,0,0,1-2.693.371c-.042,0-.084.008-.126.008a2.762,2.762,0,0,1-2.767-2.249,2.951,2.951,0,0,1,1.9-3,3.671,3.671,0,0,1,3.739,1.158,2.553,2.553,0,0,1-.056,3.707" transform="translate(-52.983 -146.346)" fill="#8c664b"/>
              <path id="Trazado_715554" data-name="Trazado 715554" d="M154.035,188.428c-.854,0-1.652-1.517-.52-1.517.854,0,1.652,1.517.52,1.517" transform="translate(-65.569 -147.879)" fill="#8c664b"/>
              <path id="Trazado_715555" data-name="Trazado 715555" d="M167.046,156.548a2.168,2.168,0,0,0-1.839.59,2.563,2.563,0,0,0-.548,1.627c-.029,1.38.572,2.731,2.166,2.562a3.114,3.114,0,0,0,2.755-2.529c.181-1.268-1.214-2.144-2.534-2.25" transform="translate(-69.807 -136.881)" fill="#8c664b"/>
              <path id="Trazado_715556" data-name="Trazado 715556" d="M187.5,167.292a.638.638,0,0,0-.022-.09c0-.035-.006-.07-.009-.105a.519.519,0,0,0-.192-.313.825.825,0,0,0-.587-.233,1.689,1.689,0,0,0-.593.126,1.305,1.305,0,0,0-.422.276,1.223,1.223,0,0,0-.322.359,1.453,1.453,0,0,0-.207.677c0,.063.008.126.015.189a.644.644,0,0,0,0,.339.771.771,0,0,0,.262.374.991.991,0,0,0,.739.11,1.71,1.71,0,0,0,1.288-1.082,1.313,1.313,0,0,0,.046-.627" transform="translate(-77.224 -140.506)" fill="#8c664b"/>
              <path id="Trazado_715557" data-name="Trazado 715557" d="M208.263,192.578a1.24,1.24,0,0,0-.7.181,1.536,1.536,0,0,0-1.3.963,1.187,1.187,0,0,0,.174,1.273,1.479,1.479,0,0,0,1.055.528,1.736,1.736,0,0,0,1.625-1.618c.077-.6-.154-1.283-.847-1.326" transform="translate(-84.83 -149.93)" fill="#8c664b"/>
              <path id="Trazado_715558" data-name="Trazado 715558" d="M164.146,139.025c-.27-.636-.679-1.187-1.492-1.126a2.439,2.439,0,0,0-1.537.852c-.932,1-.766,2.733.9,2.633a3.592,3.592,0,0,0,.621.047c.82-.023,2.041-.845,1.725-1.812-.064-.2-.134-.4-.217-.594" transform="translate(-68.319 -130.13)" fill="#8c664b"/>
              <path id="Trazado_715559" data-name="Trazado 715559" d="M178.64,178.51a2.652,2.652,0,0,0-2.222-.291c-.037,0-.072-.011-.11-.011a2.848,2.848,0,0,0-2.057.93c-.9.936-1.527,2.628-.663,3.788,1.216,1.635,4.266.653,5.452-.5a2.422,2.422,0,0,0-.4-3.912" transform="translate(-72.891 -144.687)" fill="#8c664b"/>
              <path id="Trazado_715560" data-name="Trazado 715560" d="M211.265,175.467c-.67,0-1.3,1.192-.408,1.192.67,0,1.3-1.192.408-1.192" transform="translate(-86.375 -143.735)" fill="#8c664b"/>
              <path id="Trazado_715561" data-name="Trazado 715561" d="M215.329,138.628a2.91,2.91,0,0,0-2.693-.371c-.042,0-.084-.008-.126-.008a2.762,2.762,0,0,0-2.767,2.249,2.952,2.952,0,0,0,1.9,3,3.671,3.671,0,0,0,3.739-1.158,2.553,2.553,0,0,0-.056-3.707" transform="translate(-86.125 -130.203)" fill="#8c664b"/>
              <path id="Trazado_715562" data-name="Trazado 715562" d="M230.317,140.064c-.854,0-1.652,1.517-.52,1.517.854,0,1.652-1.517.52-1.517" transform="translate(-93.191 -130.916)" fill="#8c664b"/>
              <path id="Trazado_715563" data-name="Trazado 715563" d="M244.252,163.728a3.251,3.251,0,0,1-2.759-.885,3.846,3.846,0,0,1-.821-2.441c-.044-2.071.857-4.1,3.249-3.843a4.673,4.673,0,0,1,4.133,3.794c.271,1.9-1.821,3.216-3.8,3.374" transform="translate(-97.331 -136.881)" fill="#8c664b"/>
              <path id="Trazado_715564" data-name="Trazado 715564" d="M285.578,147.954a1.9,1.9,0,0,1-1.08-.276,2.359,2.359,0,0,1-2-1.477,1.821,1.821,0,0,1,.266-1.951,2.264,2.264,0,0,1,1.618-.808,2.661,2.661,0,0,1,2.492,2.48c.117.922-.235,1.968-1.3,2.033" transform="translate(-112.417 -132.139)" fill="#8c664b"/>
              <path id="Trazado_715565" data-name="Trazado 715565" d="M232.667,187.726c.317-.967-.9-1.789-1.724-1.812a3.655,3.655,0,0,0-.621.047c-1.667-.1-1.832,1.632-.9,2.633a2.44,2.44,0,0,0,1.536.853c.813.061,1.222-.491,1.492-1.127.083-.2.153-.4.217-.594" transform="translate(-93.052 -147.518)" fill="#8c664b"/>
              <path id="Trazado_715566" data-name="Trazado 715566" d="M255.115,137.994a1.68,1.68,0,0,1-1.407.184c-.024,0-.045.006-.07.007a1.8,1.8,0,0,1-1.3-.589,1.969,1.969,0,0,1-.42-2.4c.77-1.035,2.7-.413,3.452.32a1.534,1.534,0,0,1-.253,2.477" transform="translate(-101.308 -128.956)" fill="#8c664b"/>
              <path id="Trazado_715567" data-name="Trazado 715567" d="M268.389,187.689a2.91,2.91,0,0,1-2.693.371c-.042,0-.084.008-.126.008a2.762,2.762,0,0,1-2.767-2.249,2.951,2.951,0,0,1,1.9-3,3.671,3.671,0,0,1,3.739,1.158,2.553,2.553,0,0,1-.056,3.707" transform="translate(-105.338 -146.346)" fill="#8c664b"/>
            </g>
          </g>
        </g>
        <g id="Grupo_982309" data-name="Grupo 982309" transform="translate(23.94 130.144)" opacity="0.57" style="mix-blend-mode: lighten;isolation: isolate">
          <g id="Grupo_982308" data-name="Grupo 982308">
            <g id="Grupo_982307" data-name="Grupo 982307" clip-path="url(#clip-path-19)">
              <path id="Trazado_715568" data-name="Trazado 715568" d="M47.337,208.026a1.262,1.262,0,0,0-1.071.344,1.491,1.491,0,0,0-.319.947c-.017.8.333,1.59,1.261,1.491a1.814,1.814,0,0,0,1.6-1.473c.105-.738-.707-1.248-1.475-1.31" transform="translate(-40.577 -205.468)" fill="#8c664b"/>
              <path id="Trazado_715569" data-name="Trazado 715569" d="M49.651,217.242a.265.265,0,0,0-.01-.04l0-.048a.234.234,0,0,0-.087-.141.372.372,0,0,0-.264-.1.754.754,0,0,0-.267.057.6.6,0,0,0-.189.124.548.548,0,0,0-.145.161.658.658,0,0,0-.093.3c0,.028,0,.057.007.085a.283.283,0,0,0,0,.153.347.347,0,0,0,.117.168.448.448,0,0,0,.332.049.768.768,0,0,0,.579-.487.587.587,0,0,0,.021-.282" transform="translate(-41.534 -208.687)" fill="#8c664b"/>
              <path id="Trazado_715570" data-name="Trazado 715570" d="M39.146,204.528c-.121-.286-.306-.534-.671-.507a1.1,1.1,0,0,0-.691.383c-.419.45-.345,1.229.4,1.185a1.633,1.633,0,0,0,.279.021c.369-.01.918-.38.776-.815-.029-.088-.061-.179-.1-.267" transform="translate(-37.53 -204.02)" fill="#8c664b"/>
              <path id="Trazado_715571" data-name="Trazado 715571" d="M89.008,237.207a1.193,1.193,0,0,0-1-.131.429.429,0,0,0-.049-.005,1.28,1.28,0,0,0-.925.418,1.4,1.4,0,0,0-.3,1.7c.547.735,1.919.293,2.452-.227a1.089,1.089,0,0,0-.18-1.759" transform="translate(-55.28 -215.969)" fill="#8c664b"/>
              <path id="Trazado_715572" data-name="Trazado 715572" d="M60.338,220.919c-.3,0-.584.536-.184.536.3,0,.584-.536.184-.536" transform="translate(-45.65 -210.139)" fill="#8c664b"/>
              <path id="Trazado_715573" data-name="Trazado 715573" d="M62.166,204.35a1.31,1.31,0,0,0-1.211-.167c-.019,0-.038,0-.057,0a1.242,1.242,0,0,0-1.245,1.011,1.328,1.328,0,0,0,.856,1.347,1.651,1.651,0,0,0,1.682-.521,1.148,1.148,0,0,0-.025-1.667" transform="translate(-45.538 -204.052)" fill="#8c664b"/>
              <path id="Trazado_715574" data-name="Trazado 715574" d="M68.907,205c-.384,0-.743.683-.234.683.384,0,.743-.683.234-.683" transform="translate(-48.715 -204.373)" fill="#8c664b"/>
              <path id="Trazado_715575" data-name="Trazado 715575" d="M77.3,218.7a1.95,1.95,0,0,1-1.655-.531,2.306,2.306,0,0,1-.492-1.463c-.026-1.242.514-2.457,1.949-2.3a2.8,2.8,0,0,1,2.478,2.275c.163,1.141-1.092,1.928-2.28,2.023" transform="translate(-51.153 -207.776)" fill="#8c664b"/>
              <path id="Trazado_715576" data-name="Trazado 715576" d="M93.763,208.545a.852.852,0,0,1-.485-.124,1.061,1.061,0,0,1-.9-.664.82.82,0,0,1,.119-.878,1.02,1.02,0,0,1,.728-.363,1.2,1.2,0,0,1,1.121,1.116c.052.415-.106.885-.584.914" transform="translate(-57.363 -204.923)" fill="#8c664b"/>
              <path id="Trazado_715577" data-name="Trazado 715577" d="M69.965,226.432c.142-.435-.407-.805-.776-.815a1.634,1.634,0,0,0-.279.021c-.75-.045-.824.734-.4,1.185a1.1,1.1,0,0,0,.691.383c.366.027.55-.221.671-.506.038-.088.069-.179.1-.267" transform="translate(-48.654 -211.84)" fill="#8c664b"/>
              <path id="Trazado_715578" data-name="Trazado 715578" d="M89.437,226.744a.655.655,0,0,1-.606.084l-.028,0a.621.621,0,0,1-.622-.506.663.663,0,0,1,.428-.674.827.827,0,0,1,.841.26.574.574,0,0,1-.013.834" transform="translate(-55.869 -211.84)" fill="#8c664b"/>
              <path id="Trazado_715579" data-name="Trazado 715579" d="M99.628,226.748c-.384,0-.743-.682-.234-.682.384,0,.743.682.234.682" transform="translate(-59.84 -212.003)" fill="#8c664b"/>
              <path id="Trazado_715580" data-name="Trazado 715580" d="M106.555,209.028a1.95,1.95,0,0,0-1.655.531,2.306,2.306,0,0,0-.492,1.463c-.026,1.242.514,2.457,1.949,2.3a2.8,2.8,0,0,0,2.478-2.275c.163-1.141-1.092-1.928-2.28-2.023" transform="translate(-61.746 -205.83)" fill="#8c664b"/>
              <path id="Trazado_715581" data-name="Trazado 715581" d="M114.681,217.242a.264.264,0,0,0-.01-.04l0-.048a.231.231,0,0,0-.087-.141.372.372,0,0,0-.264-.1.747.747,0,0,0-.266.057.593.593,0,0,0-.19.124.548.548,0,0,0-.145.161.658.658,0,0,0-.093.3c0,.028,0,.057.007.085a.283.283,0,0,0,0,.153.347.347,0,0,0,.117.168.448.448,0,0,0,.332.049.768.768,0,0,0,.579-.487.587.587,0,0,0,.021-.282" transform="translate(-65.082 -208.687)" fill="#8c664b"/>
              <path id="Trazado_715582" data-name="Trazado 715582" d="M124.018,228.614a.554.554,0,0,0-.316.081.693.693,0,0,0-.586.433.535.535,0,0,0,.078.573.664.664,0,0,0,.474.237.78.78,0,0,0,.731-.727c.034-.27-.069-.577-.381-.6" transform="translate(-68.502 -212.925)" fill="#8c664b"/>
              <path id="Trazado_715583" data-name="Trazado 715583" d="M104.176,204.528c-.121-.286-.306-.534-.671-.507a1.1,1.1,0,0,0-.691.383c-.42.45-.345,1.229.4,1.185a1.632,1.632,0,0,0,.279.021c.369-.01.918-.38.776-.815-.029-.088-.061-.179-.1-.267" transform="translate(-61.077 -204.02)" fill="#8c664b"/>
              <path id="Trazado_715584" data-name="Trazado 715584" d="M110.7,235.2a1.193,1.193,0,0,0-1-.131c-.017,0-.032-.005-.049-.005a1.28,1.28,0,0,0-.925.418,1.4,1.4,0,0,0-.3,1.7c.547.735,1.919.293,2.452-.227a1.089,1.089,0,0,0-.18-1.759" transform="translate(-63.133 -215.242)" fill="#8c664b"/>
              <path id="Trazado_715585" data-name="Trazado 715585" d="M125.368,220.919c-.3,0-.584.536-.184.536.3,0,.584-.536.184-.536" transform="translate(-69.198 -210.139)" fill="#8c664b"/>
              <path id="Trazado_715586" data-name="Trazado 715586" d="M127.2,204.35a1.31,1.31,0,0,0-1.211-.167c-.019,0-.038,0-.056,0a1.242,1.242,0,0,0-1.245,1.011,1.328,1.328,0,0,0,.856,1.347,1.651,1.651,0,0,0,1.682-.521,1.148,1.148,0,0,0-.025-1.667" transform="translate(-69.085 -204.052)" fill="#8c664b"/>
              <path id="Trazado_715587" data-name="Trazado 715587" d="M133.937,205c-.384,0-.743.683-.234.683.384,0,.743-.683.234-.683" transform="translate(-72.263 -204.373)" fill="#8c664b"/>
              <path id="Trazado_715588" data-name="Trazado 715588" d="M142.332,218.7a1.95,1.95,0,0,1-1.655-.531,2.31,2.31,0,0,1-.492-1.463c-.026-1.242.514-2.457,1.949-2.3a2.8,2.8,0,0,1,2.478,2.275c.163,1.141-1.092,1.928-2.28,2.023" transform="translate(-74.701 -207.776)" fill="#8c664b"/>
              <path id="Trazado_715589" data-name="Trazado 715589" d="M158.792,208.545a.852.852,0,0,1-.485-.124,1.06,1.06,0,0,1-.9-.664.82.82,0,0,1,.119-.878,1.021,1.021,0,0,1,.728-.363,1.2,1.2,0,0,1,1.121,1.116c.053.415-.106.885-.584.914" transform="translate(-80.91 -204.923)" fill="#8c664b"/>
              <path id="Trazado_715590" data-name="Trazado 715590" d="M134.994,226.432c.142-.435-.407-.805-.776-.815a1.622,1.622,0,0,0-.279.021c-.75-.045-.824.734-.405,1.185a1.1,1.1,0,0,0,.691.383c.366.027.55-.221.671-.506.038-.088.069-.179.1-.267" transform="translate(-72.201 -211.84)" fill="#8c664b"/>
              <path id="Trazado_715591" data-name="Trazado 715591" d="M151.061,226.415a1.311,1.311,0,0,1-1.212.167c-.018,0-.038,0-.056,0a1.243,1.243,0,0,1-1.245-1.012,1.328,1.328,0,0,1,.857-1.347,1.652,1.652,0,0,1,1.682.521,1.149,1.149,0,0,1-.025,1.667" transform="translate(-77.726 -211.313)" fill="#8c664b"/>
            </g>
          </g>
        </g>
        <g id="Grupo_982312" data-name="Grupo 982312" transform="translate(59.63 126.703)" opacity="0.57" style="mix-blend-mode: lighten;isolation: isolate">
          <g id="Grupo_982311" data-name="Grupo 982311">
            <g id="Grupo_982310" data-name="Grupo 982310" clip-path="url(#clip-path-20)">
              <path id="Trazado_715592" data-name="Trazado 715592" d="M177.723,210.014a1.478,1.478,0,0,0,.416,1.25,1.747,1.747,0,0,0,1.114.362c.942.01,1.859-.41,1.732-1.5a2.124,2.124,0,0,0-1.745-1.861c-.866-.114-1.454.844-1.516,1.745" transform="translate(-123.981 -202.113)" fill="#8c664b"/>
              <path id="Trazado_715593" data-name="Trazado 715593" d="M188.5,208.394a.365.365,0,0,0-.047.012l-.055.006a.271.271,0,0,0-.164.1.435.435,0,0,0-.12.311.877.877,0,0,0,.07.311.69.69,0,0,0,.147.221.644.644,0,0,0,.191.168.764.764,0,0,0,.358.1c.033,0,.066,0,.1-.009a.335.335,0,0,0,.179,0,.405.405,0,0,0,.2-.14.521.521,0,0,0,.054-.39.9.9,0,0,0-.577-.672.682.682,0,0,0-.33-.021" transform="translate(-127.744 -202.158)" fill="#8c664b"/>
              <path id="Trazado_715594" data-name="Trazado 715594" d="M173.727,220.414c-.334.146-.622.365-.585.793a1.284,1.284,0,0,0,.458.805c.533.485,1.445.388,1.382-.489A1.869,1.869,0,0,0,175,221.2c-.017-.432-.457-1.071-.965-.9-.1.035-.209.073-.312.117" transform="translate(-122.323 -206.462)" fill="#8c664b"/>
              <path id="Trazado_715595" data-name="Trazado 715595" d="M218.4,239.7a1.177,1.177,0,0,0-.984-.129c-.016,0-.032,0-.048-.005a1.262,1.262,0,0,0-.911.412,1.376,1.376,0,0,0-.293,1.678c.538.724,1.889.29,2.414-.223a1.073,1.073,0,0,0-.177-1.733" transform="translate(-137.835 -213.432)" fill="#8c664b"/>
              <path id="Trazado_715596" data-name="Trazado 715596" d="M218.768,215.265c-.3,0-.575.528-.181.528.3,0,.575-.528.181-.528" transform="translate(-138.709 -204.65)" fill="#8c664b"/>
              <path id="Trazado_715597" data-name="Trazado 715597" d="M218.336,206.332a1.291,1.291,0,0,0-1.193-.165c-.019,0-.037,0-.055,0a1.223,1.223,0,0,0-1.225,1,1.307,1.307,0,0,0,.843,1.326,1.626,1.626,0,0,0,1.656-.512,1.131,1.131,0,0,0-.025-1.642" transform="translate(-137.791 -201.33)" fill="#8c664b"/>
              <path id="Trazado_715598" data-name="Trazado 715598" d="M227.206,199.586c-.378,0-.732.672-.23.672.378,0,.732-.672.23-.672" transform="translate(-141.727 -198.973)" fill="#8c664b"/>
              <path id="Trazado_715599" data-name="Trazado 715599" d="M235.472,213.085a1.918,1.918,0,0,1-1.629-.523,2.27,2.27,0,0,1-.485-1.441c-.026-1.222.506-2.418,1.918-2.269a2.759,2.759,0,0,1,2.441,2.24c.16,1.123-1.075,1.9-2.245,1.993" transform="translate(-144.128 -202.323)" fill="#8c664b"/>
              <path id="Trazado_715600" data-name="Trazado 715600" d="M251.679,203.08a.839.839,0,0,1-.478-.122,1.044,1.044,0,0,1-.884-.654.807.807,0,0,1,.118-.865,1.006,1.006,0,0,1,.716-.358,1.18,1.18,0,0,1,1.1,1.1c.052.408-.1.871-.575.9" transform="translate(-150.242 -199.514)" fill="#8c664b"/>
              <path id="Trazado_715601" data-name="Trazado 715601" d="M228.246,220.693c.14-.429-.4-.793-.764-.8a1.641,1.641,0,0,0-.275.02c-.738-.044-.811.723-.4,1.166a1.079,1.079,0,0,0,.681.378c.36.027.541-.217.661-.5.036-.086.068-.176.1-.263" transform="translate(-141.666 -206.325)" fill="#8c664b"/>
              <path id="Trazado_715602" data-name="Trazado 715602" d="M245.08,201.443a1.176,1.176,0,0,1-.985.129c-.016,0-.031,0-.048.005a1.261,1.261,0,0,1-.912-.412,1.375,1.375,0,0,1-.293-1.678c.538-.724,1.889-.29,2.414.223a1.073,1.073,0,0,1-.177,1.733" transform="translate(-147.497 -198.798)" fill="#8c664b"/>
              <path id="Trazado_715603" data-name="Trazado 715603" d="M247.42,221a.643.643,0,0,1-.6.082l-.027,0a.612.612,0,0,1-.613-.5.653.653,0,0,1,.422-.663.813.813,0,0,1,.828.256.565.565,0,0,1-.013.821" transform="translate(-148.771 -206.325)" fill="#8c664b"/>
              <path id="Trazado_715604" data-name="Trazado 715604" d="M257.456,221c-.378,0-.732-.672-.23-.672.378,0,.732.672.23.672" transform="translate(-152.681 -206.485)" fill="#8c664b"/>
              <path id="Trazado_715605" data-name="Trazado 715605" d="M171.087,235.7a1.92,1.92,0,0,0-1.629.522,2.272,2.272,0,0,0-.485,1.441c-.026,1.223.506,2.419,1.918,2.27a2.759,2.759,0,0,0,2.441-2.24c.16-1.123-1.076-1.9-2.245-1.993" transform="translate(-120.814 -212.047)" fill="#8c664b"/>
              <path id="Trazado_715606" data-name="Trazado 715606" d="M178.059,250.92a.4.4,0,0,0-.231.059.5.5,0,0,0-.426.315.389.389,0,0,0,.057.417.484.484,0,0,0,.345.173.569.569,0,0,0,.533-.53c.026-.2-.05-.42-.277-.434" transform="translate(-123.854 -217.56)" fill="#8c664b"/>
              <path id="Trazado_715607" data-name="Trazado 715607" d="M261.933,199.126c-.119-.282-.3-.526-.661-.5a1.08,1.08,0,0,0-.681.378c-.413.443-.339,1.211.4,1.166a1.581,1.581,0,0,0,.275.021c.363-.01.9-.374.764-.8-.028-.086-.059-.177-.1-.263" transform="translate(-153.899 -198.625)" fill="#8c664b"/>
              <path id="Trazado_715608" data-name="Trazado 715608" d="M179.042,245.312c-.219,0-.425.39-.134.39.22,0,.425-.39.134-.39" transform="translate(-124.36 -215.53)" fill="#8c664b"/>
              <path id="Trazado_715609" data-name="Trazado 715609" d="M204.34,220.907a1.135,1.135,0,0,0-.134,1.052c0,.017,0,.033,0,.049a1.078,1.078,0,0,0,.889,1.07,1.152,1.152,0,0,0,1.16-.755,1.432,1.432,0,0,0-.467-1.453,1,1,0,0,0-1.445.037" transform="translate(-133.548 -206.574)" fill="#8c664b"/>
              <path id="Trazado_715610" data-name="Trazado 715610" d="M204.845,216.121c0,.333.6.638.594.2,0-.333-.6-.638-.594-.2" transform="translate(-133.804 -204.88)" fill="#8c664b"/>
              <path id="Trazado_715611" data-name="Trazado 715611" d="M207.5,245.529a1.42,1.42,0,0,1-1.206-.387,1.683,1.683,0,0,1-.359-1.067c-.019-.9.374-1.789,1.419-1.679a2.041,2.041,0,0,1,1.806,1.658c.119.831-.8,1.4-1.661,1.474" transform="translate(-134.199 -214.471)" fill="#8c664b"/>
              <path id="Trazado_715612" data-name="Trazado 715612" d="M220.009,227.9a.623.623,0,0,1-.354-.09.775.775,0,0,1-.654-.484.6.6,0,0,1,.087-.64.741.741,0,0,1,.53-.264.872.872,0,0,1,.817.813c.038.3-.077.646-.425.666" transform="translate(-138.91 -208.689)" fill="#8c664b"/>
              <path id="Trazado_715613" data-name="Trazado 715613" d="M186.056,249.329c.1-.317-.3-.586-.565-.594a1.205,1.205,0,0,0-.2.015c-.546-.033-.6.535-.295.863a.8.8,0,0,0,.5.279c.267.02.4-.161.489-.369.027-.064.05-.13.071-.195" transform="translate(-126.548 -216.769)" fill="#8c664b"/>
              <path id="Trazado_715614" data-name="Trazado 715614" d="M201.228,207.49a1.035,1.035,0,0,1,.122.866c0,.014,0,.028.005.043a1.112,1.112,0,0,1-.354.806,1.212,1.212,0,0,1-1.475.274c-.642-.467-.272-1.661.174-2.128a.945.945,0,0,1,1.527.14" transform="translate(-131.753 -201.667)" fill="#8c664b"/>
              <path id="Trazado_715615" data-name="Trazado 715615" d="M197.762,249.317a.953.953,0,0,1-.882.122l-.041,0a.906.906,0,0,1-.907-.737.968.968,0,0,1,.624-.982,1.2,1.2,0,0,1,1.225.38.836.836,0,0,1-.018,1.215" transform="translate(-130.574 -216.385)" fill="#8c664b"/>
              <path id="Trazado_715616" data-name="Trazado 715616" d="M167.814,251.893a1.4,1.4,0,0,0-1.17-.153c-.02,0-.038-.006-.058-.006a1.5,1.5,0,0,0-1.083.491,1.637,1.637,0,0,0-.35,1.995c.64.861,2.247.344,2.871-.266a1.275,1.275,0,0,0-.21-2.06" transform="translate(-119.353 -217.834)" fill="#8c664b"/>
              <path id="Trazado_715617" data-name="Trazado 715617" d="M94.3,250.634a.48.48,0,0,0-.274.07.6.6,0,0,0-.507.375.461.461,0,0,0,.068.5.574.574,0,0,0,.411.205.676.676,0,0,0,.633-.63c.03-.234-.059-.5-.33-.517" transform="translate(-93.478 -217.457)" fill="#8c664b"/>
              <path id="Trazado_715618" data-name="Trazado 715618" d="M95.471,243.966c-.262,0-.506.464-.159.464.262,0,.506-.464.159-.464" transform="translate(-94.08 -215.043)" fill="#8c664b"/>
              <path id="Trazado_715619" data-name="Trazado 715619" d="M136.162,257.337a1.688,1.688,0,0,1-1.433-.46,2,2,0,0,1-.427-1.268c-.022-1.076.445-2.129,1.688-2a2.427,2.427,0,0,1,2.147,1.971c.141.988-.946,1.671-1.975,1.753" transform="translate(-108.26 -218.532)" fill="#8c664b"/>
              <path id="Trazado_715620" data-name="Trazado 715620" d="M103.811,248.742c.123-.377-.353-.7-.672-.706a1.448,1.448,0,0,0-.242.018c-.649-.039-.714.636-.351,1.026a.951.951,0,0,0,.6.332c.317.024.477-.191.582-.439.032-.076.059-.155.084-.232" transform="translate(-96.682 -216.516)" fill="#8c664b"/>
              <path id="Trazado_715621" data-name="Trazado 715621" d="M117.731,248.728a1.133,1.133,0,0,1-1.049.145c-.017,0-.033,0-.049,0a1.076,1.076,0,0,1-1.078-.876,1.151,1.151,0,0,1,.741-1.167,1.429,1.429,0,0,1,1.457.451.994.994,0,0,1-.022,1.444" transform="translate(-101.469 -216.06)" fill="#8c664b"/>
            </g>
          </g>
        </g>
        <path id="Trazado_715622" data-name="Trazado 715622" d="M9.869,109.517a2.975,2.975,0,0,0-1.84-1.976,6.136,6.136,0,0,0-6.068.4,2.563,2.563,0,0,0-1.021,2.879,1.927,1.927,0,0,0,2.243,1.247.546.546,0,0,0,.191-.084A6.2,6.2,0,0,0,8.1,112a2.555,2.555,0,0,0,1.772-2.485" transform="translate(-0.292 -38.719)" fill="#5a3b25"/>
        <path id="Trazado_715623" data-name="Trazado 715623" d="M30.348,107.4a10.637,10.637,0,0,0-5.65-1.176c-2.029.031-4.715.359-6.031,2.1-1.144,1.515.077,2.612,1.447,3.244a5.022,5.022,0,0,0,2.381,1.5c2.671.942,7.467,1.593,9.133-1.389a3.214,3.214,0,0,0-1.281-4.285" transform="translate(-6.595 -38.464)" fill="#5a3b25"/>
        <path id="Trazado_715624" data-name="Trazado 715624" d="M71.49,109.935c-1.673-1.067-4.079-.56-5.721.33a2.955,2.955,0,0,0-1.731,2.123,1.315,1.315,0,0,0,.041.438.9.9,0,0,0,.646.968,4.846,4.846,0,0,0,.82.224l.089.023a.446.446,0,0,0,.1.01,10.456,10.456,0,0,0,4.233-.373,3.571,3.571,0,0,0,2.237-1.491,1.606,1.606,0,0,0-.718-2.252" transform="translate(-23.187 -39.59)" fill="#5a3b25"/>
        <path id="Trazado_715625" data-name="Trazado 715625" d="M101.021,104.53a8.706,8.706,0,0,0-9.21.316,5.205,5.205,0,0,0-2.545,3.237c-.184,1.4.923,1.452,1.989,1.606h.02a9.012,9.012,0,0,0,5.237.975c1.881-.105,4.157-.445,5.545-1.856,1.558-1.583.626-3.293-1.036-4.278" transform="translate(-32.316 -37.427)" fill="#5a3b25"/>
        <path id="Trazado_715626" data-name="Trazado 715626" d="M125.127,108.806c-1.16-1.942-4.2-2.264-6.223-2.2-1.592.051-5.912,1.315-4.449,3.709a1.033,1.033,0,0,0,.368.78c1.554,1.4,4.617,1.606,6.584,1.472,1.8-.123,5.147-1.373,3.72-3.762" transform="translate(-41.336 -38.599)" fill="#5a3b25"/>
        <path id="Trazado_715627" data-name="Trazado 715627" d="M160.313,109.286a12.707,12.707,0,0,0-7.759-.569c-1.139.306-2.673,1.054-3.073,2.266a1.331,1.331,0,0,0-.066.653c-.1.112-.2.226-.3.348a1.1,1.1,0,0,0,.468,1.718,14.189,14.189,0,0,0,9.818.3c1.109-.344,2.468-.922,2.842-2.141.414-1.35-.868-2.115-1.931-2.571" transform="translate(-53.905 -39.236)" fill="#5a3b25"/>
        <path id="Trazado_715628" data-name="Trazado 715628" d="M192.277,109c-2.069-1.435-5.007-1.2-7.353-.166a4.831,4.831,0,0,0-3.659,2.061.975.975,0,0,0-.061,1.088c2.327,3.027,8.149.84,10.657-.89.607-.419,1.23-1.527.417-2.092" transform="translate(-65.563 -39.103)" fill="#5a3b25"/>
        <path id="Trazado_715629" data-name="Trazado 715629" d="M216.221,108.31c-1.879-1.888-4.6-1.918-7.086-1.914-1.608,0-5.976.824-4.063,3.4,1.095,1.473,3.616,1.951,5.307,2.115,2.113.2,4.681-.313,5.772-2.346.177-.329.4-.924.07-1.254" transform="translate(-74.084 -38.526)" fill="#5a3b25"/>
        <path id="Trazado_715630" data-name="Trazado 715630" d="M229.051,106.5c-1.851-.547-4.669,0-5.325,2.078a2.733,2.733,0,0,0,1.28,2.871c1.158.713,2.71.094,3.82-.52,1.643-.91,2.6-3.729.225-4.43" transform="translate(-80.981 -38.491)" fill="#5a3b25"/>
        <path id="Trazado_715631" data-name="Trazado 715631" d="M255.973,114.454a.959.959,0,0,0-.021-1.036c-.01-.014-.022-.026-.033-.039-.516-1.644-3.087-1.343-4.427-.4a1.394,1.394,0,0,0-.654,1.344c0,.01.006.017.008.026a1.257,1.257,0,0,0,.121.677,1.056,1.056,0,0,0,.889.633,3.823,3.823,0,0,0,3.491-.475,2.119,2.119,0,0,0,.511-.533.69.69,0,0,0,.117-.2" transform="translate(-90.821 -40.631)" fill="#5a3b25"/>
        <path id="Trazado_715632" data-name="Trazado 715632" d="M285.833,107.928c-.7-1.26-2.433-1.616-3.789-1.689a7.34,7.34,0,0,0-2.872-.3c-1.68.127-4.513,1.061-4.172,3.264.286,1.852,2.869,1.944,4.308,1.916a12.4,12.4,0,0,0,5.867-1.274,1.5,1.5,0,0,0,.658-1.918" transform="translate(-99.567 -38.351)" fill="#5a3b25"/>
        <path id="Trazado_715633" data-name="Trazado 715633" d="M297.027,109.029a.965.965,0,0,0-1.214-.607,2.282,2.282,0,0,0-1.058.572,3.129,3.129,0,0,0-.433.392,1.545,1.545,0,0,0-.138.175c-.014.02-.032.037-.045.057l.012,0a1.416,1.416,0,0,0-.074.13.77.77,0,0,0,.41,1.147c.024.006.047.008.071.012a.945.945,0,0,0,.343.124,1.8,1.8,0,0,0,1.593-.7,1.889,1.889,0,0,0,.221-.207.93.93,0,0,0,.535-.464c.1-.221.082-.573-.221-.633" transform="translate(-106.447 -39.247)" fill="#5a3b25"/>
        <path id="Trazado_715634" data-name="Trazado 715634" d="M16.492,113.033c-.511-1.451-2.2-1.539-3.664-1.071a3.328,3.328,0,0,0-3.113,1.51c-1.12,2.066,1.9,2.484,3.285,2.46,1.523-.026,4.225-.816,3.492-2.9" transform="translate(-3.429 -40.45)" fill="#82583d"/>
        <path id="Trazado_715635" data-name="Trazado 715635" d="M45.566,114.185a1.757,1.757,0,0,0-.965-.252,1.51,1.51,0,0,0-.368-.055,1.973,1.973,0,0,0-1.783,1.273.681.681,0,0,0,.219.813,2.3,2.3,0,0,0,2.564-.105c.444-.293,1.026-1.276.333-1.673" transform="translate(-15.351 -41.235)" fill="#82583d"/>
        <path id="Trazado_715636" data-name="Trazado 715636" d="M77.224,112.691a1.543,1.543,0,0,0-.95-.244,2.309,2.309,0,0,0-1.745.5,1.3,1.3,0,0,0-.6,1.235,1.351,1.351,0,0,0,1.417,1.023,2.417,2.417,0,0,0,2.152-1.5.838.838,0,0,0-.272-1.012" transform="translate(-26.762 -40.707)" fill="#82583d"/>
        <path id="Trazado_715637" data-name="Trazado 715637" d="M109.991,109.14a2.117,2.117,0,0,0-.566-.281,1.284,1.284,0,0,0-.2-.206,2.545,2.545,0,0,0-1.992-.35c-1.179.183-3.044,1.3-2.107,2.716.654.982,2.369,1.114,3.405.866a2.537,2.537,0,0,0,1.724-1.244,1.14,1.14,0,0,0-.267-1.5" transform="translate(-37.975 -39.197)" fill="#82583d"/>
        <path id="Trazado_715638" data-name="Trazado 715638" d="M140.413,111.867a1.554,1.554,0,0,0-.757-.5,1.481,1.481,0,0,0-.1-.114,2.341,2.341,0,0,0-1.694-.522c-1.169.024-2.908.535-3.281,1.809-.459,1.565,1.88,1.75,2.869,1.789a4.052,4.052,0,0,0,2.383-.481,1.418,1.418,0,0,0,.582-1.985" transform="translate(-48.71 -40.097)" fill="#82583d"/>
        <path id="Trazado_715639" data-name="Trazado 715639" d="M175.822,112.982a2.9,2.9,0,0,0-3.35.216c-.4.342-.921.972-.521,1.521a.991.991,0,0,0,.529.373,2.455,2.455,0,0,0,1.238.17,3.116,3.116,0,0,0,2.034-.912c.339-.369.559-1.014.07-1.369" transform="translate(-62.212 -40.753)" fill="#82583d"/>
        <path id="Trazado_715640" data-name="Trazado 715640" d="M203.1,110.15a1.432,1.432,0,0,0-1.178-.487,2.7,2.7,0,0,0-2.587,1.5,1.266,1.266,0,0,0,.246,1.28,1.919,1.919,0,0,0,1.354.6c1.157.141,2.777-.1,3.177-1.4.273-.884-.274-1.344-1.012-1.5" transform="translate(-72.152 -39.709)" fill="#82583d"/>
        <path id="Trazado_715641" data-name="Trazado 715641" d="M235.949,111.494a2.407,2.407,0,0,0-.7-.445,2.858,2.858,0,0,0-1.159-.558c-1.141-.258-2.738,0-3.137,1.3-.329,1.07.871,1.595,1.713,1.757a3.417,3.417,0,0,0,3.213-.737.883.883,0,0,0,.067-1.313" transform="translate(-83.609 -39.976)" fill="#82583d"/>
        <path id="Trazado_715642" data-name="Trazado 715642" d="M264.774,112a3.724,3.724,0,0,0-3.559-.342,1.568,1.568,0,0,0-.7.612,1.154,1.154,0,0,0-.464,1.207c.232.97,1.463.941,2.238.832a3.823,3.823,0,0,0,2.583-1.321.721.721,0,0,0-.1-.989" transform="translate(-94.153 -40.325)" fill="#82583d"/>
        <path id="Trazado_715643" data-name="Trazado 715643" d="M291.806,111.413a1.178,1.178,0,0,0-1.313-.446,1.415,1.415,0,0,0-1.344.519c-.168.189-.4.544-.28.817a1.307,1.307,0,0,0,.834.827,1.868,1.868,0,0,0,1.356-.182,1.629,1.629,0,0,0,.754-.716.8.8,0,0,0-.006-.819" transform="translate(-104.587 -40.164)" fill="#82583d"/>
      </g>
    </g>
  </g>
</svg>
